<?xml version="1.0" encoding="utf-8" standalone="no"?>
<!DOCTYPE svg PUBLIC "-//W3C//DTD SVG 1.1//EN"
  "http://www.w3.org/Graphics/SVG/1.1/DTD/svg11.dtd">
<!-- Created with matplotlib (https://matplotlib.org/) -->
<svg height="382.858125pt" version="1.1" viewBox="0 0 713.389062 382.858125" width="713.389062pt" xmlns="http://www.w3.org/2000/svg" xmlns:xlink="http://www.w3.org/1999/xlink">
 <defs>
  <style type="text/css">
*{stroke-linecap:butt;stroke-linejoin:round;}
  </style>
 </defs>
 <g id="figure_1">
  <g id="patch_1">
   <path d="M 0 382.858125 
L 713.389062 382.858125 
L 713.389062 0 
L 0 0 
z
" style="fill:#ffffff;"/>
  </g>
  <g id="axes_1">
   <g id="patch_2">
    <path d="M 26.925 294.118125 
L 584.925 294.118125 
L 584.925 22.318125 
L 26.925 22.318125 
z
" style="fill:#ffffff;"/>
   </g>
   <g id="matplotlib.axis_1">
    <g id="xtick_1">
     <g id="line2d_1">
      <path clip-path="url(#p4c343e108d)" d="M 83.993182 294.118125 
L 83.993182 22.318125 
" style="fill:none;stroke:#c0c0c0;stroke-dasharray:0.5,0.825;stroke-dashoffset:0;stroke-width:0.5;"/>
     </g>
     <g id="line2d_2">
      <defs>
       <path d="M 0 0 
L 0 3.5 
" id="m2e5c2c940e" style="stroke:#000000;stroke-width:0.8;"/>
      </defs>
      <g>
       <use style="stroke:#000000;stroke-width:0.8;" x="83.993182" xlink:href="#m2e5c2c940e" y="294.118125"/>
      </g>
     </g>
     <g id="text_1">
      <!-- 2 -->
      <defs>
       <path d="M 19.1875 8.296875 
L 53.609375 8.296875 
L 53.609375 0 
L 7.328125 0 
L 7.328125 8.296875 
Q 12.9375 14.109375 22.625 23.890625 
Q 32.328125 33.6875 34.8125 36.53125 
Q 39.546875 41.84375 41.421875 45.53125 
Q 43.3125 49.21875 43.3125 52.78125 
Q 43.3125 58.59375 39.234375 62.25 
Q 35.15625 65.921875 28.609375 65.921875 
Q 23.96875 65.921875 18.8125 64.3125 
Q 13.671875 62.703125 7.8125 59.421875 
L 7.8125 69.390625 
Q 13.765625 71.78125 18.9375 73 
Q 24.125 74.21875 28.421875 74.21875 
Q 39.75 74.21875 46.484375 68.546875 
Q 53.21875 62.890625 53.21875 53.421875 
Q 53.21875 48.921875 51.53125 44.890625 
Q 49.859375 40.875 45.40625 35.40625 
Q 44.1875 33.984375 37.640625 27.21875 
Q 31.109375 20.453125 19.1875 8.296875 
z
" id="DejaVuSans-50"/>
      </defs>
      <g transform="translate(80.811932 308.716562)scale(0.1 -0.1)">
       <use xlink:href="#DejaVuSans-50"/>
      </g>
     </g>
    </g>
    <g id="xtick_2">
     <g id="line2d_3">
      <path clip-path="url(#p4c343e108d)" d="M 147.402273 294.118125 
L 147.402273 22.318125 
" style="fill:none;stroke:#c0c0c0;stroke-dasharray:0.5,0.825;stroke-dashoffset:0;stroke-width:0.5;"/>
     </g>
     <g id="line2d_4">
      <g>
       <use style="stroke:#000000;stroke-width:0.8;" x="147.402273" xlink:href="#m2e5c2c940e" y="294.118125"/>
      </g>
     </g>
     <g id="text_2">
      <!-- 4 -->
      <defs>
       <path d="M 37.796875 64.3125 
L 12.890625 25.390625 
L 37.796875 25.390625 
z
M 35.203125 72.90625 
L 47.609375 72.90625 
L 47.609375 25.390625 
L 58.015625 25.390625 
L 58.015625 17.1875 
L 47.609375 17.1875 
L 47.609375 0 
L 37.796875 0 
L 37.796875 17.1875 
L 4.890625 17.1875 
L 4.890625 26.703125 
z
" id="DejaVuSans-52"/>
      </defs>
      <g transform="translate(144.221023 308.716562)scale(0.1 -0.1)">
       <use xlink:href="#DejaVuSans-52"/>
      </g>
     </g>
    </g>
    <g id="xtick_3">
     <g id="line2d_5">
      <path clip-path="url(#p4c343e108d)" d="M 210.811364 294.118125 
L 210.811364 22.318125 
" style="fill:none;stroke:#c0c0c0;stroke-dasharray:0.5,0.825;stroke-dashoffset:0;stroke-width:0.5;"/>
     </g>
     <g id="line2d_6">
      <g>
       <use style="stroke:#000000;stroke-width:0.8;" x="210.811364" xlink:href="#m2e5c2c940e" y="294.118125"/>
      </g>
     </g>
     <g id="text_3">
      <!-- 6 -->
      <defs>
       <path d="M 33.015625 40.375 
Q 26.375 40.375 22.484375 35.828125 
Q 18.609375 31.296875 18.609375 23.390625 
Q 18.609375 15.53125 22.484375 10.953125 
Q 26.375 6.390625 33.015625 6.390625 
Q 39.65625 6.390625 43.53125 10.953125 
Q 47.40625 15.53125 47.40625 23.390625 
Q 47.40625 31.296875 43.53125 35.828125 
Q 39.65625 40.375 33.015625 40.375 
z
M 52.59375 71.296875 
L 52.59375 62.3125 
Q 48.875 64.0625 45.09375 64.984375 
Q 41.3125 65.921875 37.59375 65.921875 
Q 27.828125 65.921875 22.671875 59.328125 
Q 17.53125 52.734375 16.796875 39.40625 
Q 19.671875 43.65625 24.015625 45.921875 
Q 28.375 48.1875 33.59375 48.1875 
Q 44.578125 48.1875 50.953125 41.515625 
Q 57.328125 34.859375 57.328125 23.390625 
Q 57.328125 12.15625 50.6875 5.359375 
Q 44.046875 -1.421875 33.015625 -1.421875 
Q 20.359375 -1.421875 13.671875 8.265625 
Q 6.984375 17.96875 6.984375 36.375 
Q 6.984375 53.65625 15.1875 63.9375 
Q 23.390625 74.21875 37.203125 74.21875 
Q 40.921875 74.21875 44.703125 73.484375 
Q 48.484375 72.75 52.59375 71.296875 
z
" id="DejaVuSans-54"/>
      </defs>
      <g transform="translate(207.630114 308.716562)scale(0.1 -0.1)">
       <use xlink:href="#DejaVuSans-54"/>
      </g>
     </g>
    </g>
    <g id="xtick_4">
     <g id="line2d_7">
      <path clip-path="url(#p4c343e108d)" d="M 274.220455 294.118125 
L 274.220455 22.318125 
" style="fill:none;stroke:#c0c0c0;stroke-dasharray:0.5,0.825;stroke-dashoffset:0;stroke-width:0.5;"/>
     </g>
     <g id="line2d_8">
      <g>
       <use style="stroke:#000000;stroke-width:0.8;" x="274.220455" xlink:href="#m2e5c2c940e" y="294.118125"/>
      </g>
     </g>
     <g id="text_4">
      <!-- 8 -->
      <defs>
       <path d="M 31.78125 34.625 
Q 24.75 34.625 20.71875 30.859375 
Q 16.703125 27.09375 16.703125 20.515625 
Q 16.703125 13.921875 20.71875 10.15625 
Q 24.75 6.390625 31.78125 6.390625 
Q 38.8125 6.390625 42.859375 10.171875 
Q 46.921875 13.96875 46.921875 20.515625 
Q 46.921875 27.09375 42.890625 30.859375 
Q 38.875 34.625 31.78125 34.625 
z
M 21.921875 38.8125 
Q 15.578125 40.375 12.03125 44.71875 
Q 8.5 49.078125 8.5 55.328125 
Q 8.5 64.0625 14.71875 69.140625 
Q 20.953125 74.21875 31.78125 74.21875 
Q 42.671875 74.21875 48.875 69.140625 
Q 55.078125 64.0625 55.078125 55.328125 
Q 55.078125 49.078125 51.53125 44.71875 
Q 48 40.375 41.703125 38.8125 
Q 48.828125 37.15625 52.796875 32.3125 
Q 56.78125 27.484375 56.78125 20.515625 
Q 56.78125 9.90625 50.3125 4.234375 
Q 43.84375 -1.421875 31.78125 -1.421875 
Q 19.734375 -1.421875 13.25 4.234375 
Q 6.78125 9.90625 6.78125 20.515625 
Q 6.78125 27.484375 10.78125 32.3125 
Q 14.796875 37.15625 21.921875 38.8125 
z
M 18.3125 54.390625 
Q 18.3125 48.734375 21.84375 45.5625 
Q 25.390625 42.390625 31.78125 42.390625 
Q 38.140625 42.390625 41.71875 45.5625 
Q 45.3125 48.734375 45.3125 54.390625 
Q 45.3125 60.0625 41.71875 63.234375 
Q 38.140625 66.40625 31.78125 66.40625 
Q 25.390625 66.40625 21.84375 63.234375 
Q 18.3125 60.0625 18.3125 54.390625 
z
" id="DejaVuSans-56"/>
      </defs>
      <g transform="translate(271.039205 308.716562)scale(0.1 -0.1)">
       <use xlink:href="#DejaVuSans-56"/>
      </g>
     </g>
    </g>
    <g id="xtick_5">
     <g id="line2d_9">
      <path clip-path="url(#p4c343e108d)" d="M 337.629545 294.118125 
L 337.629545 22.318125 
" style="fill:none;stroke:#c0c0c0;stroke-dasharray:0.5,0.825;stroke-dashoffset:0;stroke-width:0.5;"/>
     </g>
     <g id="line2d_10">
      <g>
       <use style="stroke:#000000;stroke-width:0.8;" x="337.629545" xlink:href="#m2e5c2c940e" y="294.118125"/>
      </g>
     </g>
     <g id="text_5">
      <!-- 10 -->
      <defs>
       <path d="M 12.40625 8.296875 
L 28.515625 8.296875 
L 28.515625 63.921875 
L 10.984375 60.40625 
L 10.984375 69.390625 
L 28.421875 72.90625 
L 38.28125 72.90625 
L 38.28125 8.296875 
L 54.390625 8.296875 
L 54.390625 0 
L 12.40625 0 
z
" id="DejaVuSans-49"/>
       <path d="M 31.78125 66.40625 
Q 24.171875 66.40625 20.328125 58.90625 
Q 16.5 51.421875 16.5 36.375 
Q 16.5 21.390625 20.328125 13.890625 
Q 24.171875 6.390625 31.78125 6.390625 
Q 39.453125 6.390625 43.28125 13.890625 
Q 47.125 21.390625 47.125 36.375 
Q 47.125 51.421875 43.28125 58.90625 
Q 39.453125 66.40625 31.78125 66.40625 
z
M 31.78125 74.21875 
Q 44.046875 74.21875 50.515625 64.515625 
Q 56.984375 54.828125 56.984375 36.375 
Q 56.984375 17.96875 50.515625 8.265625 
Q 44.046875 -1.421875 31.78125 -1.421875 
Q 19.53125 -1.421875 13.0625 8.265625 
Q 6.59375 17.96875 6.59375 36.375 
Q 6.59375 54.828125 13.0625 64.515625 
Q 19.53125 74.21875 31.78125 74.21875 
z
" id="DejaVuSans-48"/>
      </defs>
      <g transform="translate(331.267045 308.716562)scale(0.1 -0.1)">
       <use xlink:href="#DejaVuSans-49"/>
       <use x="63.623047" xlink:href="#DejaVuSans-48"/>
      </g>
     </g>
    </g>
    <g id="xtick_6">
     <g id="line2d_11">
      <path clip-path="url(#p4c343e108d)" d="M 401.038636 294.118125 
L 401.038636 22.318125 
" style="fill:none;stroke:#c0c0c0;stroke-dasharray:0.5,0.825;stroke-dashoffset:0;stroke-width:0.5;"/>
     </g>
     <g id="line2d_12">
      <g>
       <use style="stroke:#000000;stroke-width:0.8;" x="401.038636" xlink:href="#m2e5c2c940e" y="294.118125"/>
      </g>
     </g>
     <g id="text_6">
      <!-- 12 -->
      <g transform="translate(394.676136 308.716562)scale(0.1 -0.1)">
       <use xlink:href="#DejaVuSans-49"/>
       <use x="63.623047" xlink:href="#DejaVuSans-50"/>
      </g>
     </g>
    </g>
    <g id="xtick_7">
     <g id="line2d_13">
      <path clip-path="url(#p4c343e108d)" d="M 464.447727 294.118125 
L 464.447727 22.318125 
" style="fill:none;stroke:#c0c0c0;stroke-dasharray:0.5,0.825;stroke-dashoffset:0;stroke-width:0.5;"/>
     </g>
     <g id="line2d_14">
      <g>
       <use style="stroke:#000000;stroke-width:0.8;" x="464.447727" xlink:href="#m2e5c2c940e" y="294.118125"/>
      </g>
     </g>
     <g id="text_7">
      <!-- 14 -->
      <g transform="translate(458.085227 308.716562)scale(0.1 -0.1)">
       <use xlink:href="#DejaVuSans-49"/>
       <use x="63.623047" xlink:href="#DejaVuSans-52"/>
      </g>
     </g>
    </g>
    <g id="xtick_8">
     <g id="line2d_15">
      <path clip-path="url(#p4c343e108d)" d="M 527.856818 294.118125 
L 527.856818 22.318125 
" style="fill:none;stroke:#c0c0c0;stroke-dasharray:0.5,0.825;stroke-dashoffset:0;stroke-width:0.5;"/>
     </g>
     <g id="line2d_16">
      <g>
       <use style="stroke:#000000;stroke-width:0.8;" x="527.856818" xlink:href="#m2e5c2c940e" y="294.118125"/>
      </g>
     </g>
     <g id="text_8">
      <!-- 16 -->
      <g transform="translate(521.494318 308.716562)scale(0.1 -0.1)">
       <use xlink:href="#DejaVuSans-49"/>
       <use x="63.623047" xlink:href="#DejaVuSans-54"/>
      </g>
     </g>
    </g>
   </g>
   <g id="matplotlib.axis_2">
    <g id="ytick_1">
     <g id="line2d_17">
      <path clip-path="url(#p4c343e108d)" d="M 26.925 285.148387 
L 584.925 285.148387 
" style="fill:none;stroke:#c0c0c0;stroke-dasharray:0.5,0.825;stroke-dashoffset:0;stroke-width:0.5;"/>
     </g>
     <g id="line2d_18">
      <defs>
       <path d="M 0 0 
L -3.5 0 
" id="m989e0955fe" style="stroke:#000000;stroke-width:0.8;"/>
      </defs>
      <g>
       <use style="stroke:#000000;stroke-width:0.8;" x="26.925" xlink:href="#m989e0955fe" y="285.148387"/>
      </g>
     </g>
     <g id="text_9">
      <!-- 0 -->
      <g transform="translate(13.5625 288.947605)scale(0.1 -0.1)">
       <use xlink:href="#DejaVuSans-48"/>
      </g>
     </g>
    </g>
    <g id="ytick_2">
     <g id="line2d_19">
      <path clip-path="url(#p4c343e108d)" d="M 26.925 251.300317 
L 584.925 251.300317 
" style="fill:none;stroke:#c0c0c0;stroke-dasharray:0.5,0.825;stroke-dashoffset:0;stroke-width:0.5;"/>
     </g>
     <g id="line2d_20">
      <g>
       <use style="stroke:#000000;stroke-width:0.8;" x="26.925" xlink:href="#m989e0955fe" y="251.300317"/>
      </g>
     </g>
     <g id="text_10">
      <!-- 10 -->
      <g transform="translate(7.2 255.099536)scale(0.1 -0.1)">
       <use xlink:href="#DejaVuSans-49"/>
       <use x="63.623047" xlink:href="#DejaVuSans-48"/>
      </g>
     </g>
    </g>
    <g id="ytick_3">
     <g id="line2d_21">
      <path clip-path="url(#p4c343e108d)" d="M 26.925 217.452247 
L 584.925 217.452247 
" style="fill:none;stroke:#c0c0c0;stroke-dasharray:0.5,0.825;stroke-dashoffset:0;stroke-width:0.5;"/>
     </g>
     <g id="line2d_22">
      <g>
       <use style="stroke:#000000;stroke-width:0.8;" x="26.925" xlink:href="#m989e0955fe" y="217.452247"/>
      </g>
     </g>
     <g id="text_11">
      <!-- 20 -->
      <g transform="translate(7.2 221.251466)scale(0.1 -0.1)">
       <use xlink:href="#DejaVuSans-50"/>
       <use x="63.623047" xlink:href="#DejaVuSans-48"/>
      </g>
     </g>
    </g>
    <g id="ytick_4">
     <g id="line2d_23">
      <path clip-path="url(#p4c343e108d)" d="M 26.925 183.604177 
L 584.925 183.604177 
" style="fill:none;stroke:#c0c0c0;stroke-dasharray:0.5,0.825;stroke-dashoffset:0;stroke-width:0.5;"/>
     </g>
     <g id="line2d_24">
      <g>
       <use style="stroke:#000000;stroke-width:0.8;" x="26.925" xlink:href="#m989e0955fe" y="183.604177"/>
      </g>
     </g>
     <g id="text_12">
      <!-- 30 -->
      <defs>
       <path d="M 40.578125 39.3125 
Q 47.65625 37.796875 51.625 33 
Q 55.609375 28.21875 55.609375 21.1875 
Q 55.609375 10.40625 48.1875 4.484375 
Q 40.765625 -1.421875 27.09375 -1.421875 
Q 22.515625 -1.421875 17.65625 -0.515625 
Q 12.796875 0.390625 7.625 2.203125 
L 7.625 11.71875 
Q 11.71875 9.328125 16.59375 8.109375 
Q 21.484375 6.890625 26.8125 6.890625 
Q 36.078125 6.890625 40.9375 10.546875 
Q 45.796875 14.203125 45.796875 21.1875 
Q 45.796875 27.640625 41.28125 31.265625 
Q 36.765625 34.90625 28.71875 34.90625 
L 20.21875 34.90625 
L 20.21875 43.015625 
L 29.109375 43.015625 
Q 36.375 43.015625 40.234375 45.921875 
Q 44.09375 48.828125 44.09375 54.296875 
Q 44.09375 59.90625 40.109375 62.90625 
Q 36.140625 65.921875 28.71875 65.921875 
Q 24.65625 65.921875 20.015625 65.03125 
Q 15.375 64.15625 9.8125 62.3125 
L 9.8125 71.09375 
Q 15.4375 72.65625 20.34375 73.4375 
Q 25.25 74.21875 29.59375 74.21875 
Q 40.828125 74.21875 47.359375 69.109375 
Q 53.90625 64.015625 53.90625 55.328125 
Q 53.90625 49.265625 50.4375 45.09375 
Q 46.96875 40.921875 40.578125 39.3125 
z
" id="DejaVuSans-51"/>
      </defs>
      <g transform="translate(7.2 187.403396)scale(0.1 -0.1)">
       <use xlink:href="#DejaVuSans-51"/>
       <use x="63.623047" xlink:href="#DejaVuSans-48"/>
      </g>
     </g>
    </g>
    <g id="ytick_5">
     <g id="line2d_25">
      <path clip-path="url(#p4c343e108d)" d="M 26.925 149.756108 
L 584.925 149.756108 
" style="fill:none;stroke:#c0c0c0;stroke-dasharray:0.5,0.825;stroke-dashoffset:0;stroke-width:0.5;"/>
     </g>
     <g id="line2d_26">
      <g>
       <use style="stroke:#000000;stroke-width:0.8;" x="26.925" xlink:href="#m989e0955fe" y="149.756108"/>
      </g>
     </g>
     <g id="text_13">
      <!-- 40 -->
      <g transform="translate(7.2 153.555326)scale(0.1 -0.1)">
       <use xlink:href="#DejaVuSans-52"/>
       <use x="63.623047" xlink:href="#DejaVuSans-48"/>
      </g>
     </g>
    </g>
    <g id="ytick_6">
     <g id="line2d_27">
      <path clip-path="url(#p4c343e108d)" d="M 26.925 115.908038 
L 584.925 115.908038 
" style="fill:none;stroke:#c0c0c0;stroke-dasharray:0.5,0.825;stroke-dashoffset:0;stroke-width:0.5;"/>
     </g>
     <g id="line2d_28">
      <g>
       <use style="stroke:#000000;stroke-width:0.8;" x="26.925" xlink:href="#m989e0955fe" y="115.908038"/>
      </g>
     </g>
     <g id="text_14">
      <!-- 50 -->
      <defs>
       <path d="M 10.796875 72.90625 
L 49.515625 72.90625 
L 49.515625 64.59375 
L 19.828125 64.59375 
L 19.828125 46.734375 
Q 21.96875 47.46875 24.109375 47.828125 
Q 26.265625 48.1875 28.421875 48.1875 
Q 40.625 48.1875 47.75 41.5 
Q 54.890625 34.8125 54.890625 23.390625 
Q 54.890625 11.625 47.5625 5.09375 
Q 40.234375 -1.421875 26.90625 -1.421875 
Q 22.3125 -1.421875 17.546875 -0.640625 
Q 12.796875 0.140625 7.71875 1.703125 
L 7.71875 11.625 
Q 12.109375 9.234375 16.796875 8.0625 
Q 21.484375 6.890625 26.703125 6.890625 
Q 35.15625 6.890625 40.078125 11.328125 
Q 45.015625 15.765625 45.015625 23.390625 
Q 45.015625 31 40.078125 35.4375 
Q 35.15625 39.890625 26.703125 39.890625 
Q 22.75 39.890625 18.8125 39.015625 
Q 14.890625 38.140625 10.796875 36.28125 
z
" id="DejaVuSans-53"/>
      </defs>
      <g transform="translate(7.2 119.707257)scale(0.1 -0.1)">
       <use xlink:href="#DejaVuSans-53"/>
       <use x="63.623047" xlink:href="#DejaVuSans-48"/>
      </g>
     </g>
    </g>
    <g id="ytick_7">
     <g id="line2d_29">
      <path clip-path="url(#p4c343e108d)" d="M 26.925 82.059968 
L 584.925 82.059968 
" style="fill:none;stroke:#c0c0c0;stroke-dasharray:0.5,0.825;stroke-dashoffset:0;stroke-width:0.5;"/>
     </g>
     <g id="line2d_30">
      <g>
       <use style="stroke:#000000;stroke-width:0.8;" x="26.925" xlink:href="#m989e0955fe" y="82.059968"/>
      </g>
     </g>
     <g id="text_15">
      <!-- 60 -->
      <g transform="translate(7.2 85.859187)scale(0.1 -0.1)">
       <use xlink:href="#DejaVuSans-54"/>
       <use x="63.623047" xlink:href="#DejaVuSans-48"/>
      </g>
     </g>
    </g>
    <g id="ytick_8">
     <g id="line2d_31">
      <path clip-path="url(#p4c343e108d)" d="M 26.925 48.211898 
L 584.925 48.211898 
" style="fill:none;stroke:#c0c0c0;stroke-dasharray:0.5,0.825;stroke-dashoffset:0;stroke-width:0.5;"/>
     </g>
     <g id="line2d_32">
      <g>
       <use style="stroke:#000000;stroke-width:0.8;" x="26.925" xlink:href="#m989e0955fe" y="48.211898"/>
      </g>
     </g>
     <g id="text_16">
      <!-- 70 -->
      <defs>
       <path d="M 8.203125 72.90625 
L 55.078125 72.90625 
L 55.078125 68.703125 
L 28.609375 0 
L 18.3125 0 
L 43.21875 64.59375 
L 8.203125 64.59375 
z
" id="DejaVuSans-55"/>
      </defs>
      <g transform="translate(7.2 52.011117)scale(0.1 -0.1)">
       <use xlink:href="#DejaVuSans-55"/>
       <use x="63.623047" xlink:href="#DejaVuSans-48"/>
      </g>
     </g>
    </g>
   </g>
   <g id="line2d_33">
    <path clip-path="url(#p4c343e108d)" d="M 52.288636 281.76358 
L 83.993182 281.76358 
L 115.697727 278.378773 
L 147.402273 278.378773 
L 179.106818 268.224352 
L 210.811364 268.224352 
L 242.515909 268.224352 
L 274.220455 268.224352 
L 305.925 268.224352 
L 337.629545 261.454738 
L 369.334091 258.069931 
L 401.038636 258.069931 
L 432.743182 247.91551 
L 464.447727 247.91551 
L 496.152273 247.91551 
L 527.856818 247.91551 
L 559.561364 247.91551 
" style="fill:none;stroke:#1f77b4;stroke-linecap:square;stroke-width:1.5;"/>
   </g>
   <g id="line2d_34">
    <path clip-path="url(#p4c343e108d)" d="M 52.288636 278.378773 
L 83.993182 278.378773 
L 115.697727 278.378773 
L 147.402273 278.378773 
L 179.106818 278.378773 
L 210.811364 278.378773 
L 242.515909 274.993966 
L 274.220455 274.993966 
L 305.925 274.993966 
L 337.629545 274.993966 
L 369.334091 274.993966 
L 401.038636 274.993966 
L 432.743182 274.993966 
L 464.447727 274.993966 
L 496.152273 274.993966 
L 527.856818 274.993966 
L 559.561364 274.993966 
" style="fill:none;stroke:#ff7f0e;stroke-linecap:square;stroke-width:1.5;"/>
   </g>
   <g id="line2d_35">
    <path clip-path="url(#p4c343e108d)" d="M 52.288636 281.76358 
L 83.993182 281.76358 
L 115.697727 281.76358 
L 147.402273 281.76358 
L 179.106818 281.76358 
L 210.811364 281.76358 
L 242.515909 281.76358 
L 274.220455 278.378773 
L 305.925 278.378773 
L 337.629545 278.378773 
L 369.334091 278.378773 
L 401.038636 278.378773 
L 432.743182 278.378773 
L 464.447727 278.378773 
L 496.152273 278.378773 
L 527.856818 278.378773 
L 559.561364 278.378773 
" style="fill:none;stroke:#2ca02c;stroke-linecap:square;stroke-width:1.5;"/>
   </g>
   <g id="line2d_36">
    <path clip-path="url(#p4c343e108d)" d="M 52.288636 278.378773 
L 83.993182 274.993966 
L 115.697727 274.993966 
L 147.402273 274.993966 
L 179.106818 271.609159 
L 210.811364 268.224352 
L 242.515909 268.224352 
L 274.220455 268.224352 
L 305.925 264.839545 
L 337.629545 264.839545 
L 369.334091 264.839545 
L 401.038636 264.839545 
L 432.743182 264.839545 
L 464.447727 264.839545 
L 496.152273 264.839545 
L 527.856818 247.91551 
L 559.561364 247.91551 
" style="fill:none;stroke:#d62728;stroke-linecap:square;stroke-width:1.5;"/>
   </g>
   <g id="line2d_37">
    <path clip-path="url(#p4c343e108d)" d="M 52.288636 278.378773 
L 83.993182 278.378773 
L 115.697727 278.378773 
L 147.402273 278.378773 
L 179.106818 278.378773 
L 210.811364 278.378773 
L 242.515909 274.993966 
L 274.220455 274.993966 
L 305.925 274.993966 
L 337.629545 258.069931 
L 369.334091 258.069931 
L 401.038636 254.685124 
L 432.743182 254.685124 
L 464.447727 254.685124 
L 496.152273 254.685124 
L 527.856818 254.685124 
L 559.561364 254.685124 
" style="fill:none;stroke:#9467bd;stroke-linecap:square;stroke-width:1.5;"/>
   </g>
   <g id="line2d_38">
    <path clip-path="url(#p4c343e108d)" d="M 52.288636 278.378773 
L 83.993182 274.993966 
L 115.697727 268.224352 
L 147.402273 258.069931 
L 179.106818 251.300317 
L 210.811364 234.376282 
L 242.515909 230.991475 
L 274.220455 217.452247 
L 305.925 214.06744 
L 337.629545 210.682633 
L 369.334091 207.297826 
L 401.038636 190.373791 
L 432.743182 180.21937 
L 464.447727 153.140915 
L 496.152273 146.371301 
L 527.856818 71.905547 
L 559.561364 34.67267 
" style="fill:none;stroke:#8c564b;stroke-linecap:square;stroke-width:1.5;"/>
   </g>
   <g id="patch_3">
    <path d="M 26.925 294.118125 
L 26.925 22.318125 
" style="fill:none;stroke:#000000;stroke-linecap:square;stroke-linejoin:miter;stroke-width:0.8;"/>
   </g>
   <g id="patch_4">
    <path d="M 584.925 294.118125 
L 584.925 22.318125 
" style="fill:none;stroke:#000000;stroke-linecap:square;stroke-linejoin:miter;stroke-width:0.8;"/>
   </g>
   <g id="patch_5">
    <path d="M 26.925 294.118125 
L 584.925 294.118125 
" style="fill:none;stroke:#000000;stroke-linecap:square;stroke-linejoin:miter;stroke-width:0.8;"/>
   </g>
   <g id="patch_6">
    <path d="M 26.925 22.318125 
L 584.925 22.318125 
" style="fill:none;stroke:#000000;stroke-linecap:square;stroke-linejoin:miter;stroke-width:0.8;"/>
   </g>
   <g id="text_17">
    <!-- 15-04-2020 is the 17th day since we have identified the first COVID-19 patient in our country. -->
    <defs>
     <path d="M 4.890625 31.390625 
L 31.203125 31.390625 
L 31.203125 23.390625 
L 4.890625 23.390625 
z
" id="DejaVuSans-45"/>
     <path id="DejaVuSans-32"/>
     <path d="M 9.421875 54.6875 
L 18.40625 54.6875 
L 18.40625 0 
L 9.421875 0 
z
M 9.421875 75.984375 
L 18.40625 75.984375 
L 18.40625 64.59375 
L 9.421875 64.59375 
z
" id="DejaVuSans-105"/>
     <path d="M 44.28125 53.078125 
L 44.28125 44.578125 
Q 40.484375 46.53125 36.375 47.5 
Q 32.28125 48.484375 27.875 48.484375 
Q 21.1875 48.484375 17.84375 46.4375 
Q 14.5 44.390625 14.5 40.28125 
Q 14.5 37.15625 16.890625 35.375 
Q 19.28125 33.59375 26.515625 31.984375 
L 29.59375 31.296875 
Q 39.15625 29.25 43.1875 25.515625 
Q 47.21875 21.78125 47.21875 15.09375 
Q 47.21875 7.46875 41.1875 3.015625 
Q 35.15625 -1.421875 24.609375 -1.421875 
Q 20.21875 -1.421875 15.453125 -0.5625 
Q 10.6875 0.296875 5.421875 2 
L 5.421875 11.28125 
Q 10.40625 8.6875 15.234375 7.390625 
Q 20.0625 6.109375 24.8125 6.109375 
Q 31.15625 6.109375 34.5625 8.28125 
Q 37.984375 10.453125 37.984375 14.40625 
Q 37.984375 18.0625 35.515625 20.015625 
Q 33.0625 21.96875 24.703125 23.78125 
L 21.578125 24.515625 
Q 13.234375 26.265625 9.515625 29.90625 
Q 5.8125 33.546875 5.8125 39.890625 
Q 5.8125 47.609375 11.28125 51.796875 
Q 16.75 56 26.8125 56 
Q 31.78125 56 36.171875 55.265625 
Q 40.578125 54.546875 44.28125 53.078125 
z
" id="DejaVuSans-115"/>
     <path d="M 18.3125 70.21875 
L 18.3125 54.6875 
L 36.8125 54.6875 
L 36.8125 47.703125 
L 18.3125 47.703125 
L 18.3125 18.015625 
Q 18.3125 11.328125 20.140625 9.421875 
Q 21.96875 7.515625 27.59375 7.515625 
L 36.8125 7.515625 
L 36.8125 0 
L 27.59375 0 
Q 17.1875 0 13.234375 3.875 
Q 9.28125 7.765625 9.28125 18.015625 
L 9.28125 47.703125 
L 2.6875 47.703125 
L 2.6875 54.6875 
L 9.28125 54.6875 
L 9.28125 70.21875 
z
" id="DejaVuSans-116"/>
     <path d="M 54.890625 33.015625 
L 54.890625 0 
L 45.90625 0 
L 45.90625 32.71875 
Q 45.90625 40.484375 42.875 44.328125 
Q 39.84375 48.1875 33.796875 48.1875 
Q 26.515625 48.1875 22.3125 43.546875 
Q 18.109375 38.921875 18.109375 30.90625 
L 18.109375 0 
L 9.078125 0 
L 9.078125 75.984375 
L 18.109375 75.984375 
L 18.109375 46.1875 
Q 21.34375 51.125 25.703125 53.5625 
Q 30.078125 56 35.796875 56 
Q 45.21875 56 50.046875 50.171875 
Q 54.890625 44.34375 54.890625 33.015625 
z
" id="DejaVuSans-104"/>
     <path d="M 56.203125 29.59375 
L 56.203125 25.203125 
L 14.890625 25.203125 
Q 15.484375 15.921875 20.484375 11.0625 
Q 25.484375 6.203125 34.421875 6.203125 
Q 39.59375 6.203125 44.453125 7.46875 
Q 49.3125 8.734375 54.109375 11.28125 
L 54.109375 2.78125 
Q 49.265625 0.734375 44.1875 -0.34375 
Q 39.109375 -1.421875 33.890625 -1.421875 
Q 20.796875 -1.421875 13.15625 6.1875 
Q 5.515625 13.8125 5.515625 26.8125 
Q 5.515625 40.234375 12.765625 48.109375 
Q 20.015625 56 32.328125 56 
Q 43.359375 56 49.78125 48.890625 
Q 56.203125 41.796875 56.203125 29.59375 
z
M 47.21875 32.234375 
Q 47.125 39.59375 43.09375 43.984375 
Q 39.0625 48.390625 32.421875 48.390625 
Q 24.90625 48.390625 20.390625 44.140625 
Q 15.875 39.890625 15.1875 32.171875 
z
" id="DejaVuSans-101"/>
     <path d="M 45.40625 46.390625 
L 45.40625 75.984375 
L 54.390625 75.984375 
L 54.390625 0 
L 45.40625 0 
L 45.40625 8.203125 
Q 42.578125 3.328125 38.25 0.953125 
Q 33.9375 -1.421875 27.875 -1.421875 
Q 17.96875 -1.421875 11.734375 6.484375 
Q 5.515625 14.40625 5.515625 27.296875 
Q 5.515625 40.1875 11.734375 48.09375 
Q 17.96875 56 27.875 56 
Q 33.9375 56 38.25 53.625 
Q 42.578125 51.265625 45.40625 46.390625 
z
M 14.796875 27.296875 
Q 14.796875 17.390625 18.875 11.75 
Q 22.953125 6.109375 30.078125 6.109375 
Q 37.203125 6.109375 41.296875 11.75 
Q 45.40625 17.390625 45.40625 27.296875 
Q 45.40625 37.203125 41.296875 42.84375 
Q 37.203125 48.484375 30.078125 48.484375 
Q 22.953125 48.484375 18.875 42.84375 
Q 14.796875 37.203125 14.796875 27.296875 
z
" id="DejaVuSans-100"/>
     <path d="M 34.28125 27.484375 
Q 23.390625 27.484375 19.1875 25 
Q 14.984375 22.515625 14.984375 16.5 
Q 14.984375 11.71875 18.140625 8.90625 
Q 21.296875 6.109375 26.703125 6.109375 
Q 34.1875 6.109375 38.703125 11.40625 
Q 43.21875 16.703125 43.21875 25.484375 
L 43.21875 27.484375 
z
M 52.203125 31.203125 
L 52.203125 0 
L 43.21875 0 
L 43.21875 8.296875 
Q 40.140625 3.328125 35.546875 0.953125 
Q 30.953125 -1.421875 24.3125 -1.421875 
Q 15.921875 -1.421875 10.953125 3.296875 
Q 6 8.015625 6 15.921875 
Q 6 25.140625 12.171875 29.828125 
Q 18.359375 34.515625 30.609375 34.515625 
L 43.21875 34.515625 
L 43.21875 35.40625 
Q 43.21875 41.609375 39.140625 45 
Q 35.0625 48.390625 27.6875 48.390625 
Q 23 48.390625 18.546875 47.265625 
Q 14.109375 46.140625 10.015625 43.890625 
L 10.015625 52.203125 
Q 14.9375 54.109375 19.578125 55.046875 
Q 24.21875 56 28.609375 56 
Q 40.484375 56 46.34375 49.84375 
Q 52.203125 43.703125 52.203125 31.203125 
z
" id="DejaVuSans-97"/>
     <path d="M 32.171875 -5.078125 
Q 28.375 -14.84375 24.75 -17.8125 
Q 21.140625 -20.796875 15.09375 -20.796875 
L 7.90625 -20.796875 
L 7.90625 -13.28125 
L 13.1875 -13.28125 
Q 16.890625 -13.28125 18.9375 -11.515625 
Q 21 -9.765625 23.484375 -3.21875 
L 25.09375 0.875 
L 2.984375 54.6875 
L 12.5 54.6875 
L 29.59375 11.921875 
L 46.6875 54.6875 
L 56.203125 54.6875 
z
" id="DejaVuSans-121"/>
     <path d="M 54.890625 33.015625 
L 54.890625 0 
L 45.90625 0 
L 45.90625 32.71875 
Q 45.90625 40.484375 42.875 44.328125 
Q 39.84375 48.1875 33.796875 48.1875 
Q 26.515625 48.1875 22.3125 43.546875 
Q 18.109375 38.921875 18.109375 30.90625 
L 18.109375 0 
L 9.078125 0 
L 9.078125 54.6875 
L 18.109375 54.6875 
L 18.109375 46.1875 
Q 21.34375 51.125 25.703125 53.5625 
Q 30.078125 56 35.796875 56 
Q 45.21875 56 50.046875 50.171875 
Q 54.890625 44.34375 54.890625 33.015625 
z
" id="DejaVuSans-110"/>
     <path d="M 48.78125 52.59375 
L 48.78125 44.1875 
Q 44.96875 46.296875 41.140625 47.34375 
Q 37.3125 48.390625 33.40625 48.390625 
Q 24.65625 48.390625 19.8125 42.84375 
Q 14.984375 37.3125 14.984375 27.296875 
Q 14.984375 17.28125 19.8125 11.734375 
Q 24.65625 6.203125 33.40625 6.203125 
Q 37.3125 6.203125 41.140625 7.25 
Q 44.96875 8.296875 48.78125 10.40625 
L 48.78125 2.09375 
Q 45.015625 0.34375 40.984375 -0.53125 
Q 36.96875 -1.421875 32.421875 -1.421875 
Q 20.0625 -1.421875 12.78125 6.34375 
Q 5.515625 14.109375 5.515625 27.296875 
Q 5.515625 40.671875 12.859375 48.328125 
Q 20.21875 56 33.015625 56 
Q 37.15625 56 41.109375 55.140625 
Q 45.0625 54.296875 48.78125 52.59375 
z
" id="DejaVuSans-99"/>
     <path d="M 4.203125 54.6875 
L 13.1875 54.6875 
L 24.421875 12.015625 
L 35.59375 54.6875 
L 46.1875 54.6875 
L 57.421875 12.015625 
L 68.609375 54.6875 
L 77.59375 54.6875 
L 63.28125 0 
L 52.6875 0 
L 40.921875 44.828125 
L 29.109375 0 
L 18.5 0 
z
" id="DejaVuSans-119"/>
     <path d="M 2.984375 54.6875 
L 12.5 54.6875 
L 29.59375 8.796875 
L 46.6875 54.6875 
L 56.203125 54.6875 
L 35.6875 0 
L 23.484375 0 
z
" id="DejaVuSans-118"/>
     <path d="M 37.109375 75.984375 
L 37.109375 68.5 
L 28.515625 68.5 
Q 23.6875 68.5 21.796875 66.546875 
Q 19.921875 64.59375 19.921875 59.515625 
L 19.921875 54.6875 
L 34.71875 54.6875 
L 34.71875 47.703125 
L 19.921875 47.703125 
L 19.921875 0 
L 10.890625 0 
L 10.890625 47.703125 
L 2.296875 47.703125 
L 2.296875 54.6875 
L 10.890625 54.6875 
L 10.890625 58.5 
Q 10.890625 67.625 15.140625 71.796875 
Q 19.390625 75.984375 28.609375 75.984375 
z
" id="DejaVuSans-102"/>
     <path d="M 41.109375 46.296875 
Q 39.59375 47.171875 37.8125 47.578125 
Q 36.03125 48 33.890625 48 
Q 26.265625 48 22.1875 43.046875 
Q 18.109375 38.09375 18.109375 28.8125 
L 18.109375 0 
L 9.078125 0 
L 9.078125 54.6875 
L 18.109375 54.6875 
L 18.109375 46.1875 
Q 20.953125 51.171875 25.484375 53.578125 
Q 30.03125 56 36.53125 56 
Q 37.453125 56 38.578125 55.875 
Q 39.703125 55.765625 41.0625 55.515625 
z
" id="DejaVuSans-114"/>
     <path d="M 64.40625 67.28125 
L 64.40625 56.890625 
Q 59.421875 61.53125 53.78125 63.8125 
Q 48.140625 66.109375 41.796875 66.109375 
Q 29.296875 66.109375 22.65625 58.46875 
Q 16.015625 50.828125 16.015625 36.375 
Q 16.015625 21.96875 22.65625 14.328125 
Q 29.296875 6.6875 41.796875 6.6875 
Q 48.140625 6.6875 53.78125 8.984375 
Q 59.421875 11.28125 64.40625 15.921875 
L 64.40625 5.609375 
Q 59.234375 2.09375 53.4375 0.328125 
Q 47.65625 -1.421875 41.21875 -1.421875 
Q 24.65625 -1.421875 15.125 8.703125 
Q 5.609375 18.84375 5.609375 36.375 
Q 5.609375 53.953125 15.125 64.078125 
Q 24.65625 74.21875 41.21875 74.21875 
Q 47.75 74.21875 53.53125 72.484375 
Q 59.328125 70.75 64.40625 67.28125 
z
" id="DejaVuSans-67"/>
     <path d="M 39.40625 66.21875 
Q 28.65625 66.21875 22.328125 58.203125 
Q 16.015625 50.203125 16.015625 36.375 
Q 16.015625 22.609375 22.328125 14.59375 
Q 28.65625 6.59375 39.40625 6.59375 
Q 50.140625 6.59375 56.421875 14.59375 
Q 62.703125 22.609375 62.703125 36.375 
Q 62.703125 50.203125 56.421875 58.203125 
Q 50.140625 66.21875 39.40625 66.21875 
z
M 39.40625 74.21875 
Q 54.734375 74.21875 63.90625 63.9375 
Q 73.09375 53.65625 73.09375 36.375 
Q 73.09375 19.140625 63.90625 8.859375 
Q 54.734375 -1.421875 39.40625 -1.421875 
Q 24.03125 -1.421875 14.8125 8.828125 
Q 5.609375 19.09375 5.609375 36.375 
Q 5.609375 53.65625 14.8125 63.9375 
Q 24.03125 74.21875 39.40625 74.21875 
z
" id="DejaVuSans-79"/>
     <path d="M 28.609375 0 
L 0.78125 72.90625 
L 11.078125 72.90625 
L 34.1875 11.53125 
L 57.328125 72.90625 
L 67.578125 72.90625 
L 39.796875 0 
z
" id="DejaVuSans-86"/>
     <path d="M 9.8125 72.90625 
L 19.671875 72.90625 
L 19.671875 0 
L 9.8125 0 
z
" id="DejaVuSans-73"/>
     <path d="M 19.671875 64.796875 
L 19.671875 8.109375 
L 31.59375 8.109375 
Q 46.6875 8.109375 53.6875 14.9375 
Q 60.6875 21.78125 60.6875 36.53125 
Q 60.6875 51.171875 53.6875 57.984375 
Q 46.6875 64.796875 31.59375 64.796875 
z
M 9.8125 72.90625 
L 30.078125 72.90625 
Q 51.265625 72.90625 61.171875 64.09375 
Q 71.09375 55.28125 71.09375 36.53125 
Q 71.09375 17.671875 61.125 8.828125 
Q 51.171875 0 30.078125 0 
L 9.8125 0 
z
" id="DejaVuSans-68"/>
     <path d="M 10.984375 1.515625 
L 10.984375 10.5 
Q 14.703125 8.734375 18.5 7.8125 
Q 22.3125 6.890625 25.984375 6.890625 
Q 35.75 6.890625 40.890625 13.453125 
Q 46.046875 20.015625 46.78125 33.40625 
Q 43.953125 29.203125 39.59375 26.953125 
Q 35.25 24.703125 29.984375 24.703125 
Q 19.046875 24.703125 12.671875 31.3125 
Q 6.296875 37.9375 6.296875 49.421875 
Q 6.296875 60.640625 12.9375 67.421875 
Q 19.578125 74.21875 30.609375 74.21875 
Q 43.265625 74.21875 49.921875 64.515625 
Q 56.59375 54.828125 56.59375 36.375 
Q 56.59375 19.140625 48.40625 8.859375 
Q 40.234375 -1.421875 26.421875 -1.421875 
Q 22.703125 -1.421875 18.890625 -0.6875 
Q 15.09375 0.046875 10.984375 1.515625 
z
M 30.609375 32.421875 
Q 37.25 32.421875 41.125 36.953125 
Q 45.015625 41.5 45.015625 49.421875 
Q 45.015625 57.28125 41.125 61.84375 
Q 37.25 66.40625 30.609375 66.40625 
Q 23.96875 66.40625 20.09375 61.84375 
Q 16.21875 57.28125 16.21875 49.421875 
Q 16.21875 41.5 20.09375 36.953125 
Q 23.96875 32.421875 30.609375 32.421875 
z
" id="DejaVuSans-57"/>
     <path d="M 18.109375 8.203125 
L 18.109375 -20.796875 
L 9.078125 -20.796875 
L 9.078125 54.6875 
L 18.109375 54.6875 
L 18.109375 46.390625 
Q 20.953125 51.265625 25.265625 53.625 
Q 29.59375 56 35.59375 56 
Q 45.5625 56 51.78125 48.09375 
Q 58.015625 40.1875 58.015625 27.296875 
Q 58.015625 14.40625 51.78125 6.484375 
Q 45.5625 -1.421875 35.59375 -1.421875 
Q 29.59375 -1.421875 25.265625 0.953125 
Q 20.953125 3.328125 18.109375 8.203125 
z
M 48.6875 27.296875 
Q 48.6875 37.203125 44.609375 42.84375 
Q 40.53125 48.484375 33.40625 48.484375 
Q 26.265625 48.484375 22.1875 42.84375 
Q 18.109375 37.203125 18.109375 27.296875 
Q 18.109375 17.390625 22.1875 11.75 
Q 26.265625 6.109375 33.40625 6.109375 
Q 40.53125 6.109375 44.609375 11.75 
Q 48.6875 17.390625 48.6875 27.296875 
z
" id="DejaVuSans-112"/>
     <path d="M 30.609375 48.390625 
Q 23.390625 48.390625 19.1875 42.75 
Q 14.984375 37.109375 14.984375 27.296875 
Q 14.984375 17.484375 19.15625 11.84375 
Q 23.34375 6.203125 30.609375 6.203125 
Q 37.796875 6.203125 41.984375 11.859375 
Q 46.1875 17.53125 46.1875 27.296875 
Q 46.1875 37.015625 41.984375 42.703125 
Q 37.796875 48.390625 30.609375 48.390625 
z
M 30.609375 56 
Q 42.328125 56 49.015625 48.375 
Q 55.71875 40.765625 55.71875 27.296875 
Q 55.71875 13.875 49.015625 6.21875 
Q 42.328125 -1.421875 30.609375 -1.421875 
Q 18.84375 -1.421875 12.171875 6.21875 
Q 5.515625 13.875 5.515625 27.296875 
Q 5.515625 40.765625 12.171875 48.375 
Q 18.84375 56 30.609375 56 
z
" id="DejaVuSans-111"/>
     <path d="M 8.5 21.578125 
L 8.5 54.6875 
L 17.484375 54.6875 
L 17.484375 21.921875 
Q 17.484375 14.15625 20.5 10.265625 
Q 23.53125 6.390625 29.59375 6.390625 
Q 36.859375 6.390625 41.078125 11.03125 
Q 45.3125 15.671875 45.3125 23.6875 
L 45.3125 54.6875 
L 54.296875 54.6875 
L 54.296875 0 
L 45.3125 0 
L 45.3125 8.40625 
Q 42.046875 3.421875 37.71875 1 
Q 33.40625 -1.421875 27.6875 -1.421875 
Q 18.265625 -1.421875 13.375 4.4375 
Q 8.5 10.296875 8.5 21.578125 
z
M 31.109375 56 
z
" id="DejaVuSans-117"/>
     <path d="M 10.6875 12.40625 
L 21 12.40625 
L 21 0 
L 10.6875 0 
z
" id="DejaVuSans-46"/>
    </defs>
    <g transform="translate(26.925 346.398438)scale(0.1 -0.1)">
     <use xlink:href="#DejaVuSans-49"/>
     <use x="63.623047" xlink:href="#DejaVuSans-53"/>
     <use x="127.246094" xlink:href="#DejaVuSans-45"/>
     <use x="163.330078" xlink:href="#DejaVuSans-48"/>
     <use x="226.953125" xlink:href="#DejaVuSans-52"/>
     <use x="290.576172" xlink:href="#DejaVuSans-45"/>
     <use x="326.660156" xlink:href="#DejaVuSans-50"/>
     <use x="390.283203" xlink:href="#DejaVuSans-48"/>
     <use x="453.90625" xlink:href="#DejaVuSans-50"/>
     <use x="517.529297" xlink:href="#DejaVuSans-48"/>
     <use x="581.152344" xlink:href="#DejaVuSans-32"/>
     <use x="612.939453" xlink:href="#DejaVuSans-105"/>
     <use x="640.722656" xlink:href="#DejaVuSans-115"/>
     <use x="692.822266" xlink:href="#DejaVuSans-32"/>
     <use x="724.609375" xlink:href="#DejaVuSans-116"/>
     <use x="763.818359" xlink:href="#DejaVuSans-104"/>
     <use x="827.197266" xlink:href="#DejaVuSans-101"/>
     <use x="888.720703" xlink:href="#DejaVuSans-32"/>
     <use x="920.507812" xlink:href="#DejaVuSans-49"/>
     <use x="984.130859" xlink:href="#DejaVuSans-55"/>
     <use x="1047.753906" xlink:href="#DejaVuSans-116"/>
     <use x="1086.962891" xlink:href="#DejaVuSans-104"/>
     <use x="1150.341797" xlink:href="#DejaVuSans-32"/>
     <use x="1182.128906" xlink:href="#DejaVuSans-100"/>
     <use x="1245.605469" xlink:href="#DejaVuSans-97"/>
     <use x="1306.884766" xlink:href="#DejaVuSans-121"/>
     <use x="1366.064453" xlink:href="#DejaVuSans-32"/>
     <use x="1397.851562" xlink:href="#DejaVuSans-115"/>
     <use x="1449.951172" xlink:href="#DejaVuSans-105"/>
     <use x="1477.734375" xlink:href="#DejaVuSans-110"/>
     <use x="1541.113281" xlink:href="#DejaVuSans-99"/>
     <use x="1596.09375" xlink:href="#DejaVuSans-101"/>
     <use x="1657.617188" xlink:href="#DejaVuSans-32"/>
     <use x="1689.404297" xlink:href="#DejaVuSans-119"/>
     <use x="1771.191406" xlink:href="#DejaVuSans-101"/>
     <use x="1832.714844" xlink:href="#DejaVuSans-32"/>
     <use x="1864.501953" xlink:href="#DejaVuSans-104"/>
     <use x="1927.880859" xlink:href="#DejaVuSans-97"/>
     <use x="1989.160156" xlink:href="#DejaVuSans-118"/>
     <use x="2048.339844" xlink:href="#DejaVuSans-101"/>
     <use x="2109.863281" xlink:href="#DejaVuSans-32"/>
     <use x="2141.650391" xlink:href="#DejaVuSans-105"/>
     <use x="2169.433594" xlink:href="#DejaVuSans-100"/>
     <use x="2232.910156" xlink:href="#DejaVuSans-101"/>
     <use x="2294.433594" xlink:href="#DejaVuSans-110"/>
     <use x="2357.8125" xlink:href="#DejaVuSans-116"/>
     <use x="2397.021484" xlink:href="#DejaVuSans-105"/>
     <use x="2424.804688" xlink:href="#DejaVuSans-102"/>
     <use x="2460.009766" xlink:href="#DejaVuSans-105"/>
     <use x="2487.792969" xlink:href="#DejaVuSans-101"/>
     <use x="2549.316406" xlink:href="#DejaVuSans-100"/>
     <use x="2612.792969" xlink:href="#DejaVuSans-32"/>
     <use x="2644.580078" xlink:href="#DejaVuSans-116"/>
     <use x="2683.789062" xlink:href="#DejaVuSans-104"/>
     <use x="2747.167969" xlink:href="#DejaVuSans-101"/>
     <use x="2808.691406" xlink:href="#DejaVuSans-32"/>
     <use x="2840.478516" xlink:href="#DejaVuSans-102"/>
     <use x="2875.683594" xlink:href="#DejaVuSans-105"/>
     <use x="2903.466797" xlink:href="#DejaVuSans-114"/>
     <use x="2944.580078" xlink:href="#DejaVuSans-115"/>
     <use x="2996.679688" xlink:href="#DejaVuSans-116"/>
     <use x="3035.888672" xlink:href="#DejaVuSans-32"/>
     <use x="3067.675781" xlink:href="#DejaVuSans-67"/>
     <use x="3137.5" xlink:href="#DejaVuSans-79"/>
     <use x="3214.460938" xlink:href="#DejaVuSans-86"/>
     <use x="3282.869141" xlink:href="#DejaVuSans-73"/>
     <use x="3312.361328" xlink:href="#DejaVuSans-68"/>
     <use x="3389.363281" xlink:href="#DejaVuSans-45"/>
     <use x="3425.447266" xlink:href="#DejaVuSans-49"/>
     <use x="3489.070312" xlink:href="#DejaVuSans-57"/>
     <use x="3552.693359" xlink:href="#DejaVuSans-32"/>
     <use x="3584.480469" xlink:href="#DejaVuSans-112"/>
     <use x="3647.957031" xlink:href="#DejaVuSans-97"/>
     <use x="3709.236328" xlink:href="#DejaVuSans-116"/>
     <use x="3748.445312" xlink:href="#DejaVuSans-105"/>
     <use x="3776.228516" xlink:href="#DejaVuSans-101"/>
     <use x="3837.751953" xlink:href="#DejaVuSans-110"/>
     <use x="3901.130859" xlink:href="#DejaVuSans-116"/>
     <use x="3940.339844" xlink:href="#DejaVuSans-32"/>
     <use x="3972.126953" xlink:href="#DejaVuSans-105"/>
     <use x="3999.910156" xlink:href="#DejaVuSans-110"/>
     <use x="4063.289062" xlink:href="#DejaVuSans-32"/>
     <use x="4095.076172" xlink:href="#DejaVuSans-111"/>
     <use x="4156.257812" xlink:href="#DejaVuSans-117"/>
     <use x="4219.636719" xlink:href="#DejaVuSans-114"/>
     <use x="4260.75" xlink:href="#DejaVuSans-32"/>
     <use x="4292.537109" xlink:href="#DejaVuSans-99"/>
     <use x="4347.517578" xlink:href="#DejaVuSans-111"/>
     <use x="4408.699219" xlink:href="#DejaVuSans-117"/>
     <use x="4472.078125" xlink:href="#DejaVuSans-110"/>
     <use x="4535.457031" xlink:href="#DejaVuSans-116"/>
     <use x="4574.666016" xlink:href="#DejaVuSans-114"/>
     <use x="4615.779297" xlink:href="#DejaVuSans-121"/>
     <use x="4660.708984" xlink:href="#DejaVuSans-46"/>
    </g>
   </g>
   <g id="text_18">
    <!-- On 17th day, People's Republic of China has 34110.0 confirmed cases. -->
    <defs>
     <path d="M 11.71875 12.40625 
L 22.015625 12.40625 
L 22.015625 4 
L 14.015625 -11.625 
L 7.71875 -11.625 
L 11.71875 4 
z
" id="DejaVuSans-44"/>
     <path d="M 19.671875 64.796875 
L 19.671875 37.40625 
L 32.078125 37.40625 
Q 38.96875 37.40625 42.71875 40.96875 
Q 46.484375 44.53125 46.484375 51.125 
Q 46.484375 57.671875 42.71875 61.234375 
Q 38.96875 64.796875 32.078125 64.796875 
z
M 9.8125 72.90625 
L 32.078125 72.90625 
Q 44.34375 72.90625 50.609375 67.359375 
Q 56.890625 61.8125 56.890625 51.125 
Q 56.890625 40.328125 50.609375 34.8125 
Q 44.34375 29.296875 32.078125 29.296875 
L 19.671875 29.296875 
L 19.671875 0 
L 9.8125 0 
z
" id="DejaVuSans-80"/>
     <path d="M 9.421875 75.984375 
L 18.40625 75.984375 
L 18.40625 0 
L 9.421875 0 
z
" id="DejaVuSans-108"/>
     <path d="M 17.921875 72.90625 
L 17.921875 45.796875 
L 9.625 45.796875 
L 9.625 72.90625 
z
" id="DejaVuSans-39"/>
     <path d="M 44.390625 34.1875 
Q 47.5625 33.109375 50.5625 29.59375 
Q 53.5625 26.078125 56.59375 19.921875 
L 66.609375 0 
L 56 0 
L 46.6875 18.703125 
Q 43.0625 26.03125 39.671875 28.421875 
Q 36.28125 30.8125 30.421875 30.8125 
L 19.671875 30.8125 
L 19.671875 0 
L 9.8125 0 
L 9.8125 72.90625 
L 32.078125 72.90625 
Q 44.578125 72.90625 50.734375 67.671875 
Q 56.890625 62.453125 56.890625 51.90625 
Q 56.890625 45.015625 53.6875 40.46875 
Q 50.484375 35.9375 44.390625 34.1875 
z
M 19.671875 64.796875 
L 19.671875 38.921875 
L 32.078125 38.921875 
Q 39.203125 38.921875 42.84375 42.21875 
Q 46.484375 45.515625 46.484375 51.90625 
Q 46.484375 58.296875 42.84375 61.546875 
Q 39.203125 64.796875 32.078125 64.796875 
z
" id="DejaVuSans-82"/>
     <path d="M 48.6875 27.296875 
Q 48.6875 37.203125 44.609375 42.84375 
Q 40.53125 48.484375 33.40625 48.484375 
Q 26.265625 48.484375 22.1875 42.84375 
Q 18.109375 37.203125 18.109375 27.296875 
Q 18.109375 17.390625 22.1875 11.75 
Q 26.265625 6.109375 33.40625 6.109375 
Q 40.53125 6.109375 44.609375 11.75 
Q 48.6875 17.390625 48.6875 27.296875 
z
M 18.109375 46.390625 
Q 20.953125 51.265625 25.265625 53.625 
Q 29.59375 56 35.59375 56 
Q 45.5625 56 51.78125 48.09375 
Q 58.015625 40.1875 58.015625 27.296875 
Q 58.015625 14.40625 51.78125 6.484375 
Q 45.5625 -1.421875 35.59375 -1.421875 
Q 29.59375 -1.421875 25.265625 0.953125 
Q 20.953125 3.328125 18.109375 8.203125 
L 18.109375 0 
L 9.078125 0 
L 9.078125 75.984375 
L 18.109375 75.984375 
z
" id="DejaVuSans-98"/>
     <path d="M 52 44.1875 
Q 55.375 50.25 60.0625 53.125 
Q 64.75 56 71.09375 56 
Q 79.640625 56 84.28125 50.015625 
Q 88.921875 44.046875 88.921875 33.015625 
L 88.921875 0 
L 79.890625 0 
L 79.890625 32.71875 
Q 79.890625 40.578125 77.09375 44.375 
Q 74.3125 48.1875 68.609375 48.1875 
Q 61.625 48.1875 57.5625 43.546875 
Q 53.515625 38.921875 53.515625 30.90625 
L 53.515625 0 
L 44.484375 0 
L 44.484375 32.71875 
Q 44.484375 40.625 41.703125 44.40625 
Q 38.921875 48.1875 33.109375 48.1875 
Q 26.21875 48.1875 22.15625 43.53125 
Q 18.109375 38.875 18.109375 30.90625 
L 18.109375 0 
L 9.078125 0 
L 9.078125 54.6875 
L 18.109375 54.6875 
L 18.109375 46.1875 
Q 21.1875 51.21875 25.484375 53.609375 
Q 29.78125 56 35.6875 56 
Q 41.65625 56 45.828125 52.96875 
Q 50 49.953125 52 44.1875 
z
" id="DejaVuSans-109"/>
    </defs>
    <g transform="translate(26.925 373.578437)scale(0.1 -0.1)">
     <use xlink:href="#DejaVuSans-79"/>
     <use x="78.710938" xlink:href="#DejaVuSans-110"/>
     <use x="142.089844" xlink:href="#DejaVuSans-32"/>
     <use x="173.876953" xlink:href="#DejaVuSans-49"/>
     <use x="237.5" xlink:href="#DejaVuSans-55"/>
     <use x="301.123047" xlink:href="#DejaVuSans-116"/>
     <use x="340.332031" xlink:href="#DejaVuSans-104"/>
     <use x="403.710938" xlink:href="#DejaVuSans-32"/>
     <use x="435.498047" xlink:href="#DejaVuSans-100"/>
     <use x="498.974609" xlink:href="#DejaVuSans-97"/>
     <use x="560.253906" xlink:href="#DejaVuSans-121"/>
     <use x="619.433594" xlink:href="#DejaVuSans-44"/>
     <use x="651.220703" xlink:href="#DejaVuSans-32"/>
     <use x="683.007812" xlink:href="#DejaVuSans-80"/>
     <use x="739.685547" xlink:href="#DejaVuSans-101"/>
     <use x="801.208984" xlink:href="#DejaVuSans-111"/>
     <use x="862.390625" xlink:href="#DejaVuSans-112"/>
     <use x="925.867188" xlink:href="#DejaVuSans-108"/>
     <use x="953.650391" xlink:href="#DejaVuSans-101"/>
     <use x="1015.173828" xlink:href="#DejaVuSans-39"/>
     <use x="1042.664062" xlink:href="#DejaVuSans-115"/>
     <use x="1094.763672" xlink:href="#DejaVuSans-32"/>
     <use x="1126.550781" xlink:href="#DejaVuSans-82"/>
     <use x="1191.533203" xlink:href="#DejaVuSans-101"/>
     <use x="1253.056641" xlink:href="#DejaVuSans-112"/>
     <use x="1316.533203" xlink:href="#DejaVuSans-117"/>
     <use x="1379.912109" xlink:href="#DejaVuSans-98"/>
     <use x="1443.388672" xlink:href="#DejaVuSans-108"/>
     <use x="1471.171875" xlink:href="#DejaVuSans-105"/>
     <use x="1498.955078" xlink:href="#DejaVuSans-99"/>
     <use x="1553.935547" xlink:href="#DejaVuSans-32"/>
     <use x="1585.722656" xlink:href="#DejaVuSans-111"/>
     <use x="1646.904297" xlink:href="#DejaVuSans-102"/>
     <use x="1682.109375" xlink:href="#DejaVuSans-32"/>
     <use x="1713.896484" xlink:href="#DejaVuSans-67"/>
     <use x="1783.720703" xlink:href="#DejaVuSans-104"/>
     <use x="1847.099609" xlink:href="#DejaVuSans-105"/>
     <use x="1874.882812" xlink:href="#DejaVuSans-110"/>
     <use x="1938.261719" xlink:href="#DejaVuSans-97"/>
     <use x="1999.541016" xlink:href="#DejaVuSans-32"/>
     <use x="2031.328125" xlink:href="#DejaVuSans-104"/>
     <use x="2094.707031" xlink:href="#DejaVuSans-97"/>
     <use x="2155.986328" xlink:href="#DejaVuSans-115"/>
     <use x="2208.085938" xlink:href="#DejaVuSans-32"/>
     <use x="2239.873047" xlink:href="#DejaVuSans-51"/>
     <use x="2303.496094" xlink:href="#DejaVuSans-52"/>
     <use x="2367.119141" xlink:href="#DejaVuSans-49"/>
     <use x="2430.742188" xlink:href="#DejaVuSans-49"/>
     <use x="2494.365234" xlink:href="#DejaVuSans-48"/>
     <use x="2557.988281" xlink:href="#DejaVuSans-46"/>
     <use x="2589.775391" xlink:href="#DejaVuSans-48"/>
     <use x="2653.398438" xlink:href="#DejaVuSans-32"/>
     <use x="2685.185547" xlink:href="#DejaVuSans-99"/>
     <use x="2740.166016" xlink:href="#DejaVuSans-111"/>
     <use x="2801.347656" xlink:href="#DejaVuSans-110"/>
     <use x="2864.726562" xlink:href="#DejaVuSans-102"/>
     <use x="2899.931641" xlink:href="#DejaVuSans-105"/>
     <use x="2927.714844" xlink:href="#DejaVuSans-114"/>
     <use x="2967.078125" xlink:href="#DejaVuSans-109"/>
     <use x="3064.490234" xlink:href="#DejaVuSans-101"/>
     <use x="3126.013672" xlink:href="#DejaVuSans-100"/>
     <use x="3189.490234" xlink:href="#DejaVuSans-32"/>
     <use x="3221.277344" xlink:href="#DejaVuSans-99"/>
     <use x="3276.257812" xlink:href="#DejaVuSans-97"/>
     <use x="3337.537109" xlink:href="#DejaVuSans-115"/>
     <use x="3389.636719" xlink:href="#DejaVuSans-101"/>
     <use x="3451.160156" xlink:href="#DejaVuSans-115"/>
     <use x="3503.259766" xlink:href="#DejaVuSans-46"/>
    </g>
   </g>
   <g id="text_19">
    <!-- Confirmed case growth for Myanmar compared as of 15-04-2020 -->
    <defs>
     <path d="M 45.40625 27.984375 
Q 45.40625 37.75 41.375 43.109375 
Q 37.359375 48.484375 30.078125 48.484375 
Q 22.859375 48.484375 18.828125 43.109375 
Q 14.796875 37.75 14.796875 27.984375 
Q 14.796875 18.265625 18.828125 12.890625 
Q 22.859375 7.515625 30.078125 7.515625 
Q 37.359375 7.515625 41.375 12.890625 
Q 45.40625 18.265625 45.40625 27.984375 
z
M 54.390625 6.78125 
Q 54.390625 -7.171875 48.1875 -13.984375 
Q 42 -20.796875 29.203125 -20.796875 
Q 24.46875 -20.796875 20.265625 -20.09375 
Q 16.0625 -19.390625 12.109375 -17.921875 
L 12.109375 -9.1875 
Q 16.0625 -11.328125 19.921875 -12.34375 
Q 23.78125 -13.375 27.78125 -13.375 
Q 36.625 -13.375 41.015625 -8.765625 
Q 45.40625 -4.15625 45.40625 5.171875 
L 45.40625 9.625 
Q 42.625 4.78125 38.28125 2.390625 
Q 33.9375 0 27.875 0 
Q 17.828125 0 11.671875 7.65625 
Q 5.515625 15.328125 5.515625 27.984375 
Q 5.515625 40.671875 11.671875 48.328125 
Q 17.828125 56 27.875 56 
Q 33.9375 56 38.28125 53.609375 
Q 42.625 51.21875 45.40625 46.390625 
L 45.40625 54.6875 
L 54.390625 54.6875 
z
" id="DejaVuSans-103"/>
     <path d="M 9.8125 72.90625 
L 24.515625 72.90625 
L 43.109375 23.296875 
L 61.8125 72.90625 
L 76.515625 72.90625 
L 76.515625 0 
L 66.890625 0 
L 66.890625 64.015625 
L 48.09375 14.015625 
L 38.1875 14.015625 
L 19.390625 64.015625 
L 19.390625 0 
L 9.8125 0 
z
" id="DejaVuSans-77"/>
    </defs>
    <g transform="translate(110.82 16.318125)scale(0.12 -0.12)">
     <use xlink:href="#DejaVuSans-67"/>
     <use x="69.824219" xlink:href="#DejaVuSans-111"/>
     <use x="131.005859" xlink:href="#DejaVuSans-110"/>
     <use x="194.384766" xlink:href="#DejaVuSans-102"/>
     <use x="229.589844" xlink:href="#DejaVuSans-105"/>
     <use x="257.373047" xlink:href="#DejaVuSans-114"/>
     <use x="296.736328" xlink:href="#DejaVuSans-109"/>
     <use x="394.148438" xlink:href="#DejaVuSans-101"/>
     <use x="455.671875" xlink:href="#DejaVuSans-100"/>
     <use x="519.148438" xlink:href="#DejaVuSans-32"/>
     <use x="550.935547" xlink:href="#DejaVuSans-99"/>
     <use x="605.916016" xlink:href="#DejaVuSans-97"/>
     <use x="667.195312" xlink:href="#DejaVuSans-115"/>
     <use x="719.294922" xlink:href="#DejaVuSans-101"/>
     <use x="780.818359" xlink:href="#DejaVuSans-32"/>
     <use x="812.605469" xlink:href="#DejaVuSans-103"/>
     <use x="876.082031" xlink:href="#DejaVuSans-114"/>
     <use x="914.945312" xlink:href="#DejaVuSans-111"/>
     <use x="976.126953" xlink:href="#DejaVuSans-119"/>
     <use x="1057.914062" xlink:href="#DejaVuSans-116"/>
     <use x="1097.123047" xlink:href="#DejaVuSans-104"/>
     <use x="1160.501953" xlink:href="#DejaVuSans-32"/>
     <use x="1192.289062" xlink:href="#DejaVuSans-102"/>
     <use x="1227.494141" xlink:href="#DejaVuSans-111"/>
     <use x="1288.675781" xlink:href="#DejaVuSans-114"/>
     <use x="1329.789062" xlink:href="#DejaVuSans-32"/>
     <use x="1361.576172" xlink:href="#DejaVuSans-77"/>
     <use x="1447.855469" xlink:href="#DejaVuSans-121"/>
     <use x="1507.035156" xlink:href="#DejaVuSans-97"/>
     <use x="1568.314453" xlink:href="#DejaVuSans-110"/>
     <use x="1631.693359" xlink:href="#DejaVuSans-109"/>
     <use x="1729.105469" xlink:href="#DejaVuSans-97"/>
     <use x="1790.384766" xlink:href="#DejaVuSans-114"/>
     <use x="1831.498047" xlink:href="#DejaVuSans-32"/>
     <use x="1863.285156" xlink:href="#DejaVuSans-99"/>
     <use x="1918.265625" xlink:href="#DejaVuSans-111"/>
     <use x="1979.447266" xlink:href="#DejaVuSans-109"/>
     <use x="2076.859375" xlink:href="#DejaVuSans-112"/>
     <use x="2140.335938" xlink:href="#DejaVuSans-97"/>
     <use x="2201.615234" xlink:href="#DejaVuSans-114"/>
     <use x="2240.478516" xlink:href="#DejaVuSans-101"/>
     <use x="2302.001953" xlink:href="#DejaVuSans-100"/>
     <use x="2365.478516" xlink:href="#DejaVuSans-32"/>
     <use x="2397.265625" xlink:href="#DejaVuSans-97"/>
     <use x="2458.544922" xlink:href="#DejaVuSans-115"/>
     <use x="2510.644531" xlink:href="#DejaVuSans-32"/>
     <use x="2542.431641" xlink:href="#DejaVuSans-111"/>
     <use x="2603.613281" xlink:href="#DejaVuSans-102"/>
     <use x="2638.818359" xlink:href="#DejaVuSans-32"/>
     <use x="2670.605469" xlink:href="#DejaVuSans-49"/>
     <use x="2734.228516" xlink:href="#DejaVuSans-53"/>
     <use x="2797.851562" xlink:href="#DejaVuSans-45"/>
     <use x="2833.935547" xlink:href="#DejaVuSans-48"/>
     <use x="2897.558594" xlink:href="#DejaVuSans-52"/>
     <use x="2961.181641" xlink:href="#DejaVuSans-45"/>
     <use x="2997.265625" xlink:href="#DejaVuSans-50"/>
     <use x="3060.888672" xlink:href="#DejaVuSans-48"/>
     <use x="3124.511719" xlink:href="#DejaVuSans-50"/>
     <use x="3188.134766" xlink:href="#DejaVuSans-48"/>
    </g>
   </g>
   <g id="legend_1">
    <g id="patch_7">
     <path d="M 591.925 153.218125 
L 704.189062 153.218125 
Q 706.189062 153.218125 706.189062 151.218125 
L 706.189062 64.149375 
Q 706.189062 62.149375 704.189062 62.149375 
L 591.925 62.149375 
Q 589.925 62.149375 589.925 64.149375 
L 589.925 151.218125 
Q 589.925 153.218125 591.925 153.218125 
z
" style="fill:#ffffff;opacity:0.8;stroke:#cccccc;stroke-linejoin:miter;"/>
    </g>
    <g id="line2d_39">
     <path d="M 593.925 70.247812 
L 613.925 70.247812 
" style="fill:none;stroke:#1f77b4;stroke-linecap:square;stroke-width:1.5;"/>
    </g>
    <g id="line2d_40"/>
    <g id="text_20">
     <!-- United States -->
     <defs>
      <path d="M 8.6875 72.90625 
L 18.609375 72.90625 
L 18.609375 28.609375 
Q 18.609375 16.890625 22.84375 11.734375 
Q 27.09375 6.59375 36.625 6.59375 
Q 46.09375 6.59375 50.34375 11.734375 
Q 54.59375 16.890625 54.59375 28.609375 
L 54.59375 72.90625 
L 64.5 72.90625 
L 64.5 27.390625 
Q 64.5 13.140625 57.4375 5.859375 
Q 50.390625 -1.421875 36.625 -1.421875 
Q 22.796875 -1.421875 15.734375 5.859375 
Q 8.6875 13.140625 8.6875 27.390625 
z
" id="DejaVuSans-85"/>
      <path d="M 53.515625 70.515625 
L 53.515625 60.890625 
Q 47.90625 63.578125 42.921875 64.890625 
Q 37.9375 66.21875 33.296875 66.21875 
Q 25.25 66.21875 20.875 63.09375 
Q 16.5 59.96875 16.5 54.203125 
Q 16.5 49.359375 19.40625 46.890625 
Q 22.3125 44.4375 30.421875 42.921875 
L 36.375 41.703125 
Q 47.40625 39.59375 52.65625 34.296875 
Q 57.90625 29 57.90625 20.125 
Q 57.90625 9.515625 50.796875 4.046875 
Q 43.703125 -1.421875 29.984375 -1.421875 
Q 24.8125 -1.421875 18.96875 -0.25 
Q 13.140625 0.921875 6.890625 3.21875 
L 6.890625 13.375 
Q 12.890625 10.015625 18.65625 8.296875 
Q 24.421875 6.59375 29.984375 6.59375 
Q 38.421875 6.59375 43.015625 9.90625 
Q 47.609375 13.234375 47.609375 19.390625 
Q 47.609375 24.75 44.3125 27.78125 
Q 41.015625 30.8125 33.5 32.328125 
L 27.484375 33.5 
Q 16.453125 35.6875 11.515625 40.375 
Q 6.59375 45.0625 6.59375 53.421875 
Q 6.59375 63.09375 13.40625 68.65625 
Q 20.21875 74.21875 32.171875 74.21875 
Q 37.3125 74.21875 42.625 73.28125 
Q 47.953125 72.359375 53.515625 70.515625 
z
" id="DejaVuSans-83"/>
     </defs>
     <g transform="translate(621.925 73.747812)scale(0.1 -0.1)">
      <use xlink:href="#DejaVuSans-85"/>
      <use x="73.193359" xlink:href="#DejaVuSans-110"/>
      <use x="136.572266" xlink:href="#DejaVuSans-105"/>
      <use x="164.355469" xlink:href="#DejaVuSans-116"/>
      <use x="203.564453" xlink:href="#DejaVuSans-101"/>
      <use x="265.087891" xlink:href="#DejaVuSans-100"/>
      <use x="328.564453" xlink:href="#DejaVuSans-32"/>
      <use x="360.351562" xlink:href="#DejaVuSans-83"/>
      <use x="423.828125" xlink:href="#DejaVuSans-116"/>
      <use x="463.037109" xlink:href="#DejaVuSans-97"/>
      <use x="524.316406" xlink:href="#DejaVuSans-116"/>
      <use x="563.525391" xlink:href="#DejaVuSans-101"/>
      <use x="625.048828" xlink:href="#DejaVuSans-115"/>
     </g>
    </g>
    <g id="line2d_41">
     <path d="M 593.925 84.925937 
L 613.925 84.925937 
" style="fill:none;stroke:#ff7f0e;stroke-linecap:square;stroke-width:1.5;"/>
    </g>
    <g id="line2d_42"/>
    <g id="text_21">
     <!-- Italy -->
     <g transform="translate(621.925 88.425937)scale(0.1 -0.1)">
      <use xlink:href="#DejaVuSans-73"/>
      <use x="29.492188" xlink:href="#DejaVuSans-116"/>
      <use x="68.701172" xlink:href="#DejaVuSans-97"/>
      <use x="129.980469" xlink:href="#DejaVuSans-108"/>
      <use x="157.763672" xlink:href="#DejaVuSans-121"/>
     </g>
    </g>
    <g id="line2d_43">
     <path d="M 593.925 99.604062 
L 613.925 99.604062 
" style="fill:none;stroke:#2ca02c;stroke-linecap:square;stroke-width:1.5;"/>
    </g>
    <g id="line2d_44"/>
    <g id="text_22">
     <!-- Spain -->
     <g transform="translate(621.925 103.104062)scale(0.1 -0.1)">
      <use xlink:href="#DejaVuSans-83"/>
      <use x="63.476562" xlink:href="#DejaVuSans-112"/>
      <use x="126.953125" xlink:href="#DejaVuSans-97"/>
      <use x="188.232422" xlink:href="#DejaVuSans-105"/>
      <use x="216.015625" xlink:href="#DejaVuSans-110"/>
     </g>
    </g>
    <g id="line2d_45">
     <path d="M 593.925 114.282187 
L 613.925 114.282187 
" style="fill:none;stroke:#d62728;stroke-linecap:square;stroke-width:1.5;"/>
    </g>
    <g id="line2d_46"/>
    <g id="text_23">
     <!-- France -->
     <defs>
      <path d="M 9.8125 72.90625 
L 51.703125 72.90625 
L 51.703125 64.59375 
L 19.671875 64.59375 
L 19.671875 43.109375 
L 48.578125 43.109375 
L 48.578125 34.8125 
L 19.671875 34.8125 
L 19.671875 0 
L 9.8125 0 
z
" id="DejaVuSans-70"/>
     </defs>
     <g transform="translate(621.925 117.782187)scale(0.1 -0.1)">
      <use xlink:href="#DejaVuSans-70"/>
      <use x="50.269531" xlink:href="#DejaVuSans-114"/>
      <use x="91.382812" xlink:href="#DejaVuSans-97"/>
      <use x="152.662109" xlink:href="#DejaVuSans-110"/>
      <use x="216.041016" xlink:href="#DejaVuSans-99"/>
      <use x="271.021484" xlink:href="#DejaVuSans-101"/>
     </g>
    </g>
    <g id="line2d_47">
     <path d="M 593.925 128.960312 
L 613.925 128.960312 
" style="fill:none;stroke:#9467bd;stroke-linecap:square;stroke-width:1.5;"/>
    </g>
    <g id="line2d_48"/>
    <g id="text_24">
     <!-- United Kingdom -->
     <defs>
      <path d="M 9.8125 72.90625 
L 19.671875 72.90625 
L 19.671875 42.09375 
L 52.390625 72.90625 
L 65.09375 72.90625 
L 28.90625 38.921875 
L 67.671875 0 
L 54.6875 0 
L 19.671875 35.109375 
L 19.671875 0 
L 9.8125 0 
z
" id="DejaVuSans-75"/>
     </defs>
     <g transform="translate(621.925 132.460312)scale(0.1 -0.1)">
      <use xlink:href="#DejaVuSans-85"/>
      <use x="73.193359" xlink:href="#DejaVuSans-110"/>
      <use x="136.572266" xlink:href="#DejaVuSans-105"/>
      <use x="164.355469" xlink:href="#DejaVuSans-116"/>
      <use x="203.564453" xlink:href="#DejaVuSans-101"/>
      <use x="265.087891" xlink:href="#DejaVuSans-100"/>
      <use x="328.564453" xlink:href="#DejaVuSans-32"/>
      <use x="360.351562" xlink:href="#DejaVuSans-75"/>
      <use x="425.927734" xlink:href="#DejaVuSans-105"/>
      <use x="453.710938" xlink:href="#DejaVuSans-110"/>
      <use x="517.089844" xlink:href="#DejaVuSans-103"/>
      <use x="580.566406" xlink:href="#DejaVuSans-100"/>
      <use x="644.042969" xlink:href="#DejaVuSans-111"/>
      <use x="705.224609" xlink:href="#DejaVuSans-109"/>
     </g>
    </g>
    <g id="line2d_49">
     <path d="M 593.925 143.638437 
L 613.925 143.638437 
" style="fill:none;stroke:#8c564b;stroke-linecap:square;stroke-width:1.5;"/>
    </g>
    <g id="line2d_50"/>
    <g id="text_25">
     <!-- Myanmar -->
     <g transform="translate(621.925 147.138437)scale(0.1 -0.1)">
      <use xlink:href="#DejaVuSans-77"/>
      <use x="86.279297" xlink:href="#DejaVuSans-121"/>
      <use x="145.458984" xlink:href="#DejaVuSans-97"/>
      <use x="206.738281" xlink:href="#DejaVuSans-110"/>
      <use x="270.117188" xlink:href="#DejaVuSans-109"/>
      <use x="367.529297" xlink:href="#DejaVuSans-97"/>
      <use x="428.808594" xlink:href="#DejaVuSans-114"/>
     </g>
    </g>
   </g>
  </g>
 </g>
 <defs>
  <clipPath id="p4c343e108d">
   <rect height="271.8" width="558" x="26.925" y="22.318125"/>
  </clipPath>
 </defs>
</svg>
