<?xml version="1.0" encoding="utf-8" standalone="no"?>
<!DOCTYPE svg PUBLIC "-//W3C//DTD SVG 1.1//EN"
  "http://www.w3.org/Graphics/SVG/1.1/DTD/svg11.dtd">
<!-- Created with matplotlib (https://matplotlib.org/) -->
<svg height="410.038125pt" version="1.1" viewBox="0 0 719.751562 410.038125" width="719.751562pt" xmlns="http://www.w3.org/2000/svg" xmlns:xlink="http://www.w3.org/1999/xlink">
 <defs>
  <style type="text/css">
*{stroke-linecap:butt;stroke-linejoin:round;}
  </style>
 </defs>
 <g id="figure_1">
  <g id="patch_1">
   <path d="M 0 410.038125 
L 719.751562 410.038125 
L 719.751562 0 
L 0 0 
z
" style="fill:#ffffff;"/>
  </g>
  <g id="axes_1">
   <g id="patch_2">
    <path d="M 33.2875 294.118125 
L 591.2875 294.118125 
L 591.2875 22.318125 
L 33.2875 22.318125 
z
" style="fill:#ffffff;"/>
   </g>
   <g id="matplotlib.axis_1">
    <g id="xtick_1">
     <g id="line2d_1">
      <path clip-path="url(#p29d38952d4)" d="M 39.863258 294.118125 
L 39.863258 22.318125 
" style="fill:none;stroke:#c0c0c0;stroke-dasharray:0.5,0.825;stroke-dashoffset:0;stroke-width:0.5;"/>
     </g>
     <g id="line2d_2">
      <defs>
       <path d="M 0 0 
L 0 3.5 
" id="mc17dd470c6" style="stroke:#000000;stroke-width:0.8;"/>
      </defs>
      <g>
       <use style="stroke:#000000;stroke-width:0.8;" x="39.863258" xlink:href="#mc17dd470c6" y="294.118125"/>
      </g>
     </g>
     <g id="text_1">
      <!-- 0 -->
      <defs>
       <path d="M 31.78125 66.40625 
Q 24.171875 66.40625 20.328125 58.90625 
Q 16.5 51.421875 16.5 36.375 
Q 16.5 21.390625 20.328125 13.890625 
Q 24.171875 6.390625 31.78125 6.390625 
Q 39.453125 6.390625 43.28125 13.890625 
Q 47.125 21.390625 47.125 36.375 
Q 47.125 51.421875 43.28125 58.90625 
Q 39.453125 66.40625 31.78125 66.40625 
z
M 31.78125 74.21875 
Q 44.046875 74.21875 50.515625 64.515625 
Q 56.984375 54.828125 56.984375 36.375 
Q 56.984375 17.96875 50.515625 8.265625 
Q 44.046875 -1.421875 31.78125 -1.421875 
Q 19.53125 -1.421875 13.0625 8.265625 
Q 6.59375 17.96875 6.59375 36.375 
Q 6.59375 54.828125 13.0625 64.515625 
Q 19.53125 74.21875 31.78125 74.21875 
z
" id="DejaVuSans-48"/>
      </defs>
      <g transform="translate(36.682008 308.716563)scale(0.1 -0.1)">
       <use xlink:href="#DejaVuSans-48"/>
      </g>
     </g>
    </g>
    <g id="xtick_2">
     <g id="line2d_3">
      <path clip-path="url(#p29d38952d4)" d="M 133.802652 294.118125 
L 133.802652 22.318125 
" style="fill:none;stroke:#c0c0c0;stroke-dasharray:0.5,0.825;stroke-dashoffset:0;stroke-width:0.5;"/>
     </g>
     <g id="line2d_4">
      <g>
       <use style="stroke:#000000;stroke-width:0.8;" x="133.802652" xlink:href="#mc17dd470c6" y="294.118125"/>
      </g>
     </g>
     <g id="text_2">
      <!-- 5 -->
      <defs>
       <path d="M 10.796875 72.90625 
L 49.515625 72.90625 
L 49.515625 64.59375 
L 19.828125 64.59375 
L 19.828125 46.734375 
Q 21.96875 47.46875 24.109375 47.828125 
Q 26.265625 48.1875 28.421875 48.1875 
Q 40.625 48.1875 47.75 41.5 
Q 54.890625 34.8125 54.890625 23.390625 
Q 54.890625 11.625 47.5625 5.09375 
Q 40.234375 -1.421875 26.90625 -1.421875 
Q 22.3125 -1.421875 17.546875 -0.640625 
Q 12.796875 0.140625 7.71875 1.703125 
L 7.71875 11.625 
Q 12.109375 9.234375 16.796875 8.0625 
Q 21.484375 6.890625 26.703125 6.890625 
Q 35.15625 6.890625 40.078125 11.328125 
Q 45.015625 15.765625 45.015625 23.390625 
Q 45.015625 31 40.078125 35.4375 
Q 35.15625 39.890625 26.703125 39.890625 
Q 22.75 39.890625 18.8125 39.015625 
Q 14.890625 38.140625 10.796875 36.28125 
z
" id="DejaVuSans-53"/>
      </defs>
      <g transform="translate(130.621402 308.716563)scale(0.1 -0.1)">
       <use xlink:href="#DejaVuSans-53"/>
      </g>
     </g>
    </g>
    <g id="xtick_3">
     <g id="line2d_5">
      <path clip-path="url(#p29d38952d4)" d="M 227.742045 294.118125 
L 227.742045 22.318125 
" style="fill:none;stroke:#c0c0c0;stroke-dasharray:0.5,0.825;stroke-dashoffset:0;stroke-width:0.5;"/>
     </g>
     <g id="line2d_6">
      <g>
       <use style="stroke:#000000;stroke-width:0.8;" x="227.742045" xlink:href="#mc17dd470c6" y="294.118125"/>
      </g>
     </g>
     <g id="text_3">
      <!-- 10 -->
      <defs>
       <path d="M 12.40625 8.296875 
L 28.515625 8.296875 
L 28.515625 63.921875 
L 10.984375 60.40625 
L 10.984375 69.390625 
L 28.421875 72.90625 
L 38.28125 72.90625 
L 38.28125 8.296875 
L 54.390625 8.296875 
L 54.390625 0 
L 12.40625 0 
z
" id="DejaVuSans-49"/>
      </defs>
      <g transform="translate(221.379545 308.716563)scale(0.1 -0.1)">
       <use xlink:href="#DejaVuSans-49"/>
       <use x="63.623047" xlink:href="#DejaVuSans-48"/>
      </g>
     </g>
    </g>
    <g id="xtick_4">
     <g id="line2d_7">
      <path clip-path="url(#p29d38952d4)" d="M 321.681439 294.118125 
L 321.681439 22.318125 
" style="fill:none;stroke:#c0c0c0;stroke-dasharray:0.5,0.825;stroke-dashoffset:0;stroke-width:0.5;"/>
     </g>
     <g id="line2d_8">
      <g>
       <use style="stroke:#000000;stroke-width:0.8;" x="321.681439" xlink:href="#mc17dd470c6" y="294.118125"/>
      </g>
     </g>
     <g id="text_4">
      <!-- 15 -->
      <g transform="translate(315.318939 308.716563)scale(0.1 -0.1)">
       <use xlink:href="#DejaVuSans-49"/>
       <use x="63.623047" xlink:href="#DejaVuSans-53"/>
      </g>
     </g>
    </g>
    <g id="xtick_5">
     <g id="line2d_9">
      <path clip-path="url(#p29d38952d4)" d="M 415.620833 294.118125 
L 415.620833 22.318125 
" style="fill:none;stroke:#c0c0c0;stroke-dasharray:0.5,0.825;stroke-dashoffset:0;stroke-width:0.5;"/>
     </g>
     <g id="line2d_10">
      <g>
       <use style="stroke:#000000;stroke-width:0.8;" x="415.620833" xlink:href="#mc17dd470c6" y="294.118125"/>
      </g>
     </g>
     <g id="text_5">
      <!-- 20 -->
      <defs>
       <path d="M 19.1875 8.296875 
L 53.609375 8.296875 
L 53.609375 0 
L 7.328125 0 
L 7.328125 8.296875 
Q 12.9375 14.109375 22.625 23.890625 
Q 32.328125 33.6875 34.8125 36.53125 
Q 39.546875 41.84375 41.421875 45.53125 
Q 43.3125 49.21875 43.3125 52.78125 
Q 43.3125 58.59375 39.234375 62.25 
Q 35.15625 65.921875 28.609375 65.921875 
Q 23.96875 65.921875 18.8125 64.3125 
Q 13.671875 62.703125 7.8125 59.421875 
L 7.8125 69.390625 
Q 13.765625 71.78125 18.9375 73 
Q 24.125 74.21875 28.421875 74.21875 
Q 39.75 74.21875 46.484375 68.546875 
Q 53.21875 62.890625 53.21875 53.421875 
Q 53.21875 48.921875 51.53125 44.890625 
Q 49.859375 40.875 45.40625 35.40625 
Q 44.1875 33.984375 37.640625 27.21875 
Q 31.109375 20.453125 19.1875 8.296875 
z
" id="DejaVuSans-50"/>
      </defs>
      <g transform="translate(409.258333 308.716563)scale(0.1 -0.1)">
       <use xlink:href="#DejaVuSans-50"/>
       <use x="63.623047" xlink:href="#DejaVuSans-48"/>
      </g>
     </g>
    </g>
    <g id="xtick_6">
     <g id="line2d_11">
      <path clip-path="url(#p29d38952d4)" d="M 509.560227 294.118125 
L 509.560227 22.318125 
" style="fill:none;stroke:#c0c0c0;stroke-dasharray:0.5,0.825;stroke-dashoffset:0;stroke-width:0.5;"/>
     </g>
     <g id="line2d_12">
      <g>
       <use style="stroke:#000000;stroke-width:0.8;" x="509.560227" xlink:href="#mc17dd470c6" y="294.118125"/>
      </g>
     </g>
     <g id="text_6">
      <!-- 25 -->
      <g transform="translate(503.197727 308.716563)scale(0.1 -0.1)">
       <use xlink:href="#DejaVuSans-50"/>
       <use x="63.623047" xlink:href="#DejaVuSans-53"/>
      </g>
     </g>
    </g>
   </g>
   <g id="matplotlib.axis_2">
    <g id="ytick_1">
     <g id="line2d_13">
      <path clip-path="url(#p29d38952d4)" d="M 33.2875 284.094626 
L 591.2875 284.094626 
" style="fill:none;stroke:#c0c0c0;stroke-dasharray:0.5,0.825;stroke-dashoffset:0;stroke-width:0.5;"/>
     </g>
     <g id="line2d_14">
      <defs>
       <path d="M 0 0 
L -3.5 0 
" id="m4101b9290c" style="stroke:#000000;stroke-width:0.8;"/>
      </defs>
      <g>
       <use style="stroke:#000000;stroke-width:0.8;" x="33.2875" xlink:href="#m4101b9290c" y="284.094626"/>
      </g>
     </g>
     <g id="text_7">
      <!-- 0 -->
      <g transform="translate(19.925 287.893845)scale(0.1 -0.1)">
       <use xlink:href="#DejaVuSans-48"/>
      </g>
     </g>
    </g>
    <g id="ytick_2">
     <g id="line2d_15">
      <path clip-path="url(#p29d38952d4)" d="M 33.2875 237.4737 
L 591.2875 237.4737 
" style="fill:none;stroke:#c0c0c0;stroke-dasharray:0.5,0.825;stroke-dashoffset:0;stroke-width:0.5;"/>
     </g>
     <g id="line2d_16">
      <g>
       <use style="stroke:#000000;stroke-width:0.8;" x="33.2875" xlink:href="#m4101b9290c" y="237.4737"/>
      </g>
     </g>
     <g id="text_8">
      <!-- 20 -->
      <g transform="translate(13.5625 241.272918)scale(0.1 -0.1)">
       <use xlink:href="#DejaVuSans-50"/>
       <use x="63.623047" xlink:href="#DejaVuSans-48"/>
      </g>
     </g>
    </g>
    <g id="ytick_3">
     <g id="line2d_17">
      <path clip-path="url(#p29d38952d4)" d="M 33.2875 190.852773 
L 591.2875 190.852773 
" style="fill:none;stroke:#c0c0c0;stroke-dasharray:0.5,0.825;stroke-dashoffset:0;stroke-width:0.5;"/>
     </g>
     <g id="line2d_18">
      <g>
       <use style="stroke:#000000;stroke-width:0.8;" x="33.2875" xlink:href="#m4101b9290c" y="190.852773"/>
      </g>
     </g>
     <g id="text_9">
      <!-- 40 -->
      <defs>
       <path d="M 37.796875 64.3125 
L 12.890625 25.390625 
L 37.796875 25.390625 
z
M 35.203125 72.90625 
L 47.609375 72.90625 
L 47.609375 25.390625 
L 58.015625 25.390625 
L 58.015625 17.1875 
L 47.609375 17.1875 
L 47.609375 0 
L 37.796875 0 
L 37.796875 17.1875 
L 4.890625 17.1875 
L 4.890625 26.703125 
z
" id="DejaVuSans-52"/>
      </defs>
      <g transform="translate(13.5625 194.651992)scale(0.1 -0.1)">
       <use xlink:href="#DejaVuSans-52"/>
       <use x="63.623047" xlink:href="#DejaVuSans-48"/>
      </g>
     </g>
    </g>
    <g id="ytick_4">
     <g id="line2d_19">
      <path clip-path="url(#p29d38952d4)" d="M 33.2875 144.231847 
L 591.2875 144.231847 
" style="fill:none;stroke:#c0c0c0;stroke-dasharray:0.5,0.825;stroke-dashoffset:0;stroke-width:0.5;"/>
     </g>
     <g id="line2d_20">
      <g>
       <use style="stroke:#000000;stroke-width:0.8;" x="33.2875" xlink:href="#m4101b9290c" y="144.231847"/>
      </g>
     </g>
     <g id="text_10">
      <!-- 60 -->
      <defs>
       <path d="M 33.015625 40.375 
Q 26.375 40.375 22.484375 35.828125 
Q 18.609375 31.296875 18.609375 23.390625 
Q 18.609375 15.53125 22.484375 10.953125 
Q 26.375 6.390625 33.015625 6.390625 
Q 39.65625 6.390625 43.53125 10.953125 
Q 47.40625 15.53125 47.40625 23.390625 
Q 47.40625 31.296875 43.53125 35.828125 
Q 39.65625 40.375 33.015625 40.375 
z
M 52.59375 71.296875 
L 52.59375 62.3125 
Q 48.875 64.0625 45.09375 64.984375 
Q 41.3125 65.921875 37.59375 65.921875 
Q 27.828125 65.921875 22.671875 59.328125 
Q 17.53125 52.734375 16.796875 39.40625 
Q 19.671875 43.65625 24.015625 45.921875 
Q 28.375 48.1875 33.59375 48.1875 
Q 44.578125 48.1875 50.953125 41.515625 
Q 57.328125 34.859375 57.328125 23.390625 
Q 57.328125 12.15625 50.6875 5.359375 
Q 44.046875 -1.421875 33.015625 -1.421875 
Q 20.359375 -1.421875 13.671875 8.265625 
Q 6.984375 17.96875 6.984375 36.375 
Q 6.984375 53.65625 15.1875 63.9375 
Q 23.390625 74.21875 37.203125 74.21875 
Q 40.921875 74.21875 44.703125 73.484375 
Q 48.484375 72.75 52.59375 71.296875 
z
" id="DejaVuSans-54"/>
      </defs>
      <g transform="translate(13.5625 148.031066)scale(0.1 -0.1)">
       <use xlink:href="#DejaVuSans-54"/>
       <use x="63.623047" xlink:href="#DejaVuSans-48"/>
      </g>
     </g>
    </g>
    <g id="ytick_5">
     <g id="line2d_21">
      <path clip-path="url(#p29d38952d4)" d="M 33.2875 97.610921 
L 591.2875 97.610921 
" style="fill:none;stroke:#c0c0c0;stroke-dasharray:0.5,0.825;stroke-dashoffset:0;stroke-width:0.5;"/>
     </g>
     <g id="line2d_22">
      <g>
       <use style="stroke:#000000;stroke-width:0.8;" x="33.2875" xlink:href="#m4101b9290c" y="97.610921"/>
      </g>
     </g>
     <g id="text_11">
      <!-- 80 -->
      <defs>
       <path d="M 31.78125 34.625 
Q 24.75 34.625 20.71875 30.859375 
Q 16.703125 27.09375 16.703125 20.515625 
Q 16.703125 13.921875 20.71875 10.15625 
Q 24.75 6.390625 31.78125 6.390625 
Q 38.8125 6.390625 42.859375 10.171875 
Q 46.921875 13.96875 46.921875 20.515625 
Q 46.921875 27.09375 42.890625 30.859375 
Q 38.875 34.625 31.78125 34.625 
z
M 21.921875 38.8125 
Q 15.578125 40.375 12.03125 44.71875 
Q 8.5 49.078125 8.5 55.328125 
Q 8.5 64.0625 14.71875 69.140625 
Q 20.953125 74.21875 31.78125 74.21875 
Q 42.671875 74.21875 48.875 69.140625 
Q 55.078125 64.0625 55.078125 55.328125 
Q 55.078125 49.078125 51.53125 44.71875 
Q 48 40.375 41.703125 38.8125 
Q 48.828125 37.15625 52.796875 32.3125 
Q 56.78125 27.484375 56.78125 20.515625 
Q 56.78125 9.90625 50.3125 4.234375 
Q 43.84375 -1.421875 31.78125 -1.421875 
Q 19.734375 -1.421875 13.25 4.234375 
Q 6.78125 9.90625 6.78125 20.515625 
Q 6.78125 27.484375 10.78125 32.3125 
Q 14.796875 37.15625 21.921875 38.8125 
z
M 18.3125 54.390625 
Q 18.3125 48.734375 21.84375 45.5625 
Q 25.390625 42.390625 31.78125 42.390625 
Q 38.140625 42.390625 41.71875 45.5625 
Q 45.3125 48.734375 45.3125 54.390625 
Q 45.3125 60.0625 41.71875 63.234375 
Q 38.140625 66.40625 31.78125 66.40625 
Q 25.390625 66.40625 21.84375 63.234375 
Q 18.3125 60.0625 18.3125 54.390625 
z
" id="DejaVuSans-56"/>
      </defs>
      <g transform="translate(13.5625 101.41014)scale(0.1 -0.1)">
       <use xlink:href="#DejaVuSans-56"/>
       <use x="63.623047" xlink:href="#DejaVuSans-48"/>
      </g>
     </g>
    </g>
    <g id="ytick_6">
     <g id="line2d_23">
      <path clip-path="url(#p29d38952d4)" d="M 33.2875 50.989995 
L 591.2875 50.989995 
" style="fill:none;stroke:#c0c0c0;stroke-dasharray:0.5,0.825;stroke-dashoffset:0;stroke-width:0.5;"/>
     </g>
     <g id="line2d_24">
      <g>
       <use style="stroke:#000000;stroke-width:0.8;" x="33.2875" xlink:href="#m4101b9290c" y="50.989995"/>
      </g>
     </g>
     <g id="text_12">
      <!-- 100 -->
      <g transform="translate(7.2 54.789213)scale(0.1 -0.1)">
       <use xlink:href="#DejaVuSans-49"/>
       <use x="63.623047" xlink:href="#DejaVuSans-48"/>
       <use x="127.246094" xlink:href="#DejaVuSans-48"/>
      </g>
     </g>
    </g>
   </g>
   <g id="line2d_25">
    <path clip-path="url(#p29d38952d4)" d="M 58.651136 281.76358 
L 77.439015 281.76358 
L 96.226894 279.432533 
L 115.014773 279.432533 
L 133.802652 272.439394 
L 152.59053 272.439394 
L 171.378409 272.439394 
L 190.166288 272.439394 
L 208.954167 272.439394 
L 227.742045 267.777302 
L 246.529924 265.446255 
L 265.317803 265.446255 
L 284.105682 258.453116 
L 302.893561 258.453116 
L 321.681439 258.453116 
L 340.469318 258.453116 
L 359.257197 258.453116 
L 378.045076 258.453116 
L 396.832955 258.453116 
L 415.620833 258.453116 
L 434.408712 256.12207 
L 453.196591 256.12207 
L 471.98447 253.791024 
L 490.772348 253.791024 
L 509.560227 253.791024 
L 528.348106 253.791024 
L 547.135985 253.791024 
L 565.923864 253.791024 
" style="fill:none;stroke:#1f77b4;stroke-linecap:square;stroke-width:1.5;"/>
   </g>
   <g id="line2d_26">
    <path clip-path="url(#p29d38952d4)" d="M 58.651136 281.76358 
L 77.439015 281.76358 
L 96.226894 281.76358 
L 115.014773 281.76358 
L 133.802652 281.76358 
L 152.59053 281.76358 
L 171.378409 281.76358 
L 190.166288 279.432533 
L 208.954167 279.432533 
L 227.742045 279.432533 
L 246.529924 279.432533 
L 265.317803 279.432533 
L 284.105682 279.432533 
L 302.893561 279.432533 
L 321.681439 279.432533 
L 340.469318 279.432533 
L 359.257197 279.432533 
L 378.045076 279.432533 
L 396.832955 279.432533 
L 415.620833 279.432533 
L 434.408712 279.432533 
L 453.196591 279.432533 
L 471.98447 279.432533 
L 490.772348 270.108348 
L 509.560227 253.791024 
L 528.348106 249.128931 
L 547.135985 209.501144 
L 565.923864 179.197542 
" style="fill:none;stroke:#ff7f0e;stroke-linecap:square;stroke-width:1.5;"/>
   </g>
   <g id="line2d_27">
    <path clip-path="url(#p29d38952d4)" d="M 58.651136 279.432533 
L 77.439015 277.101487 
L 96.226894 277.101487 
L 115.014773 277.101487 
L 133.802652 274.770441 
L 152.59053 272.439394 
L 171.378409 272.439394 
L 190.166288 272.439394 
L 208.954167 270.108348 
L 227.742045 270.108348 
L 246.529924 270.108348 
L 265.317803 270.108348 
L 284.105682 270.108348 
L 302.893561 270.108348 
L 321.681439 270.108348 
L 340.469318 258.453116 
L 359.257197 258.453116 
L 378.045076 258.453116 
L 396.832955 258.453116 
L 415.620833 258.453116 
L 434.408712 258.453116 
L 453.196591 258.453116 
L 471.98447 256.12207 
L 490.772348 256.12207 
L 509.560227 256.12207 
L 528.348106 256.12207 
L 547.135985 256.12207 
L 565.923864 256.12207 
" style="fill:none;stroke:#2ca02c;stroke-linecap:square;stroke-width:1.5;"/>
   </g>
   <g id="line2d_28">
    <path clip-path="url(#p29d38952d4)" d="M 58.651136 279.432533 
L 77.439015 279.432533 
L 96.226894 279.432533 
L 115.014773 279.432533 
L 133.802652 279.432533 
L 152.59053 279.432533 
L 171.378409 277.101487 
L 190.166288 277.101487 
L 208.954167 277.101487 
L 227.742045 265.446255 
L 246.529924 265.446255 
L 265.317803 263.115209 
L 284.105682 263.115209 
L 302.893561 263.115209 
L 321.681439 263.115209 
L 340.469318 263.115209 
L 359.257197 263.115209 
L 378.045076 263.115209 
L 396.832955 263.115209 
L 415.620833 263.115209 
L 434.408712 263.115209 
L 453.196591 263.115209 
L 471.98447 263.115209 
L 490.772348 253.791024 
L 509.560227 253.791024 
L 528.348106 253.791024 
L 547.135985 249.128931 
L 565.923864 237.4737 
" style="fill:none;stroke:#d62728;stroke-linecap:square;stroke-width:1.5;"/>
   </g>
   <g id="line2d_29">
    <path clip-path="url(#p29d38952d4)" d="M 58.651136 279.432533 
L 77.439015 279.432533 
L 96.226894 277.101487 
L 115.014773 277.101487 
L 133.802652 272.439394 
L 152.59053 265.446255 
L 171.378409 260.784163 
L 190.166288 249.128931 
L 208.954167 249.128931 
L 227.742045 246.797885 
L 246.529924 237.4737 
L 265.317803 237.4737 
L 284.105682 235.142653 
L 302.893561 235.142653 
L 321.681439 232.811607 
L 340.469318 232.811607 
L 359.257197 232.811607 
L 378.045076 230.480561 
L 396.832955 218.825329 
L 415.620833 211.83219 
L 434.408712 193.18382 
L 453.196591 188.521727 
L 471.98447 137.238708 
L 490.772348 111.597199 
L 509.560227 85.955689 
L 528.348106 78.96255 
L 547.135985 55.652087 
L 565.923864 34.67267 
" style="fill:none;stroke:#9467bd;stroke-linecap:square;stroke-width:1.5;"/>
   </g>
   <g id="patch_3">
    <path d="M 33.2875 294.118125 
L 33.2875 22.318125 
" style="fill:none;stroke:#000000;stroke-linecap:square;stroke-linejoin:miter;stroke-width:0.8;"/>
   </g>
   <g id="patch_4">
    <path d="M 591.2875 294.118125 
L 591.2875 22.318125 
" style="fill:none;stroke:#000000;stroke-linecap:square;stroke-linejoin:miter;stroke-width:0.8;"/>
   </g>
   <g id="patch_5">
    <path d="M 33.2875 294.118125 
L 591.2875 294.118125 
" style="fill:none;stroke:#000000;stroke-linecap:square;stroke-linejoin:miter;stroke-width:0.8;"/>
   </g>
   <g id="patch_6">
    <path d="M 33.2875 22.318125 
L 591.2875 22.318125 
" style="fill:none;stroke:#000000;stroke-linecap:square;stroke-linejoin:miter;stroke-width:0.8;"/>
   </g>
   <g id="text_13">
    <!-- 19-04-2020 is the 28th day since we have identified the first COVID-19 patient in our country. -->
    <defs>
     <path d="M 10.984375 1.515625 
L 10.984375 10.5 
Q 14.703125 8.734375 18.5 7.8125 
Q 22.3125 6.890625 25.984375 6.890625 
Q 35.75 6.890625 40.890625 13.453125 
Q 46.046875 20.015625 46.78125 33.40625 
Q 43.953125 29.203125 39.59375 26.953125 
Q 35.25 24.703125 29.984375 24.703125 
Q 19.046875 24.703125 12.671875 31.3125 
Q 6.296875 37.9375 6.296875 49.421875 
Q 6.296875 60.640625 12.9375 67.421875 
Q 19.578125 74.21875 30.609375 74.21875 
Q 43.265625 74.21875 49.921875 64.515625 
Q 56.59375 54.828125 56.59375 36.375 
Q 56.59375 19.140625 48.40625 8.859375 
Q 40.234375 -1.421875 26.421875 -1.421875 
Q 22.703125 -1.421875 18.890625 -0.6875 
Q 15.09375 0.046875 10.984375 1.515625 
z
M 30.609375 32.421875 
Q 37.25 32.421875 41.125 36.953125 
Q 45.015625 41.5 45.015625 49.421875 
Q 45.015625 57.28125 41.125 61.84375 
Q 37.25 66.40625 30.609375 66.40625 
Q 23.96875 66.40625 20.09375 61.84375 
Q 16.21875 57.28125 16.21875 49.421875 
Q 16.21875 41.5 20.09375 36.953125 
Q 23.96875 32.421875 30.609375 32.421875 
z
" id="DejaVuSans-57"/>
     <path d="M 4.890625 31.390625 
L 31.203125 31.390625 
L 31.203125 23.390625 
L 4.890625 23.390625 
z
" id="DejaVuSans-45"/>
     <path id="DejaVuSans-32"/>
     <path d="M 9.421875 54.6875 
L 18.40625 54.6875 
L 18.40625 0 
L 9.421875 0 
z
M 9.421875 75.984375 
L 18.40625 75.984375 
L 18.40625 64.59375 
L 9.421875 64.59375 
z
" id="DejaVuSans-105"/>
     <path d="M 44.28125 53.078125 
L 44.28125 44.578125 
Q 40.484375 46.53125 36.375 47.5 
Q 32.28125 48.484375 27.875 48.484375 
Q 21.1875 48.484375 17.84375 46.4375 
Q 14.5 44.390625 14.5 40.28125 
Q 14.5 37.15625 16.890625 35.375 
Q 19.28125 33.59375 26.515625 31.984375 
L 29.59375 31.296875 
Q 39.15625 29.25 43.1875 25.515625 
Q 47.21875 21.78125 47.21875 15.09375 
Q 47.21875 7.46875 41.1875 3.015625 
Q 35.15625 -1.421875 24.609375 -1.421875 
Q 20.21875 -1.421875 15.453125 -0.5625 
Q 10.6875 0.296875 5.421875 2 
L 5.421875 11.28125 
Q 10.40625 8.6875 15.234375 7.390625 
Q 20.0625 6.109375 24.8125 6.109375 
Q 31.15625 6.109375 34.5625 8.28125 
Q 37.984375 10.453125 37.984375 14.40625 
Q 37.984375 18.0625 35.515625 20.015625 
Q 33.0625 21.96875 24.703125 23.78125 
L 21.578125 24.515625 
Q 13.234375 26.265625 9.515625 29.90625 
Q 5.8125 33.546875 5.8125 39.890625 
Q 5.8125 47.609375 11.28125 51.796875 
Q 16.75 56 26.8125 56 
Q 31.78125 56 36.171875 55.265625 
Q 40.578125 54.546875 44.28125 53.078125 
z
" id="DejaVuSans-115"/>
     <path d="M 18.3125 70.21875 
L 18.3125 54.6875 
L 36.8125 54.6875 
L 36.8125 47.703125 
L 18.3125 47.703125 
L 18.3125 18.015625 
Q 18.3125 11.328125 20.140625 9.421875 
Q 21.96875 7.515625 27.59375 7.515625 
L 36.8125 7.515625 
L 36.8125 0 
L 27.59375 0 
Q 17.1875 0 13.234375 3.875 
Q 9.28125 7.765625 9.28125 18.015625 
L 9.28125 47.703125 
L 2.6875 47.703125 
L 2.6875 54.6875 
L 9.28125 54.6875 
L 9.28125 70.21875 
z
" id="DejaVuSans-116"/>
     <path d="M 54.890625 33.015625 
L 54.890625 0 
L 45.90625 0 
L 45.90625 32.71875 
Q 45.90625 40.484375 42.875 44.328125 
Q 39.84375 48.1875 33.796875 48.1875 
Q 26.515625 48.1875 22.3125 43.546875 
Q 18.109375 38.921875 18.109375 30.90625 
L 18.109375 0 
L 9.078125 0 
L 9.078125 75.984375 
L 18.109375 75.984375 
L 18.109375 46.1875 
Q 21.34375 51.125 25.703125 53.5625 
Q 30.078125 56 35.796875 56 
Q 45.21875 56 50.046875 50.171875 
Q 54.890625 44.34375 54.890625 33.015625 
z
" id="DejaVuSans-104"/>
     <path d="M 56.203125 29.59375 
L 56.203125 25.203125 
L 14.890625 25.203125 
Q 15.484375 15.921875 20.484375 11.0625 
Q 25.484375 6.203125 34.421875 6.203125 
Q 39.59375 6.203125 44.453125 7.46875 
Q 49.3125 8.734375 54.109375 11.28125 
L 54.109375 2.78125 
Q 49.265625 0.734375 44.1875 -0.34375 
Q 39.109375 -1.421875 33.890625 -1.421875 
Q 20.796875 -1.421875 13.15625 6.1875 
Q 5.515625 13.8125 5.515625 26.8125 
Q 5.515625 40.234375 12.765625 48.109375 
Q 20.015625 56 32.328125 56 
Q 43.359375 56 49.78125 48.890625 
Q 56.203125 41.796875 56.203125 29.59375 
z
M 47.21875 32.234375 
Q 47.125 39.59375 43.09375 43.984375 
Q 39.0625 48.390625 32.421875 48.390625 
Q 24.90625 48.390625 20.390625 44.140625 
Q 15.875 39.890625 15.1875 32.171875 
z
" id="DejaVuSans-101"/>
     <path d="M 45.40625 46.390625 
L 45.40625 75.984375 
L 54.390625 75.984375 
L 54.390625 0 
L 45.40625 0 
L 45.40625 8.203125 
Q 42.578125 3.328125 38.25 0.953125 
Q 33.9375 -1.421875 27.875 -1.421875 
Q 17.96875 -1.421875 11.734375 6.484375 
Q 5.515625 14.40625 5.515625 27.296875 
Q 5.515625 40.1875 11.734375 48.09375 
Q 17.96875 56 27.875 56 
Q 33.9375 56 38.25 53.625 
Q 42.578125 51.265625 45.40625 46.390625 
z
M 14.796875 27.296875 
Q 14.796875 17.390625 18.875 11.75 
Q 22.953125 6.109375 30.078125 6.109375 
Q 37.203125 6.109375 41.296875 11.75 
Q 45.40625 17.390625 45.40625 27.296875 
Q 45.40625 37.203125 41.296875 42.84375 
Q 37.203125 48.484375 30.078125 48.484375 
Q 22.953125 48.484375 18.875 42.84375 
Q 14.796875 37.203125 14.796875 27.296875 
z
" id="DejaVuSans-100"/>
     <path d="M 34.28125 27.484375 
Q 23.390625 27.484375 19.1875 25 
Q 14.984375 22.515625 14.984375 16.5 
Q 14.984375 11.71875 18.140625 8.90625 
Q 21.296875 6.109375 26.703125 6.109375 
Q 34.1875 6.109375 38.703125 11.40625 
Q 43.21875 16.703125 43.21875 25.484375 
L 43.21875 27.484375 
z
M 52.203125 31.203125 
L 52.203125 0 
L 43.21875 0 
L 43.21875 8.296875 
Q 40.140625 3.328125 35.546875 0.953125 
Q 30.953125 -1.421875 24.3125 -1.421875 
Q 15.921875 -1.421875 10.953125 3.296875 
Q 6 8.015625 6 15.921875 
Q 6 25.140625 12.171875 29.828125 
Q 18.359375 34.515625 30.609375 34.515625 
L 43.21875 34.515625 
L 43.21875 35.40625 
Q 43.21875 41.609375 39.140625 45 
Q 35.0625 48.390625 27.6875 48.390625 
Q 23 48.390625 18.546875 47.265625 
Q 14.109375 46.140625 10.015625 43.890625 
L 10.015625 52.203125 
Q 14.9375 54.109375 19.578125 55.046875 
Q 24.21875 56 28.609375 56 
Q 40.484375 56 46.34375 49.84375 
Q 52.203125 43.703125 52.203125 31.203125 
z
" id="DejaVuSans-97"/>
     <path d="M 32.171875 -5.078125 
Q 28.375 -14.84375 24.75 -17.8125 
Q 21.140625 -20.796875 15.09375 -20.796875 
L 7.90625 -20.796875 
L 7.90625 -13.28125 
L 13.1875 -13.28125 
Q 16.890625 -13.28125 18.9375 -11.515625 
Q 21 -9.765625 23.484375 -3.21875 
L 25.09375 0.875 
L 2.984375 54.6875 
L 12.5 54.6875 
L 29.59375 11.921875 
L 46.6875 54.6875 
L 56.203125 54.6875 
z
" id="DejaVuSans-121"/>
     <path d="M 54.890625 33.015625 
L 54.890625 0 
L 45.90625 0 
L 45.90625 32.71875 
Q 45.90625 40.484375 42.875 44.328125 
Q 39.84375 48.1875 33.796875 48.1875 
Q 26.515625 48.1875 22.3125 43.546875 
Q 18.109375 38.921875 18.109375 30.90625 
L 18.109375 0 
L 9.078125 0 
L 9.078125 54.6875 
L 18.109375 54.6875 
L 18.109375 46.1875 
Q 21.34375 51.125 25.703125 53.5625 
Q 30.078125 56 35.796875 56 
Q 45.21875 56 50.046875 50.171875 
Q 54.890625 44.34375 54.890625 33.015625 
z
" id="DejaVuSans-110"/>
     <path d="M 48.78125 52.59375 
L 48.78125 44.1875 
Q 44.96875 46.296875 41.140625 47.34375 
Q 37.3125 48.390625 33.40625 48.390625 
Q 24.65625 48.390625 19.8125 42.84375 
Q 14.984375 37.3125 14.984375 27.296875 
Q 14.984375 17.28125 19.8125 11.734375 
Q 24.65625 6.203125 33.40625 6.203125 
Q 37.3125 6.203125 41.140625 7.25 
Q 44.96875 8.296875 48.78125 10.40625 
L 48.78125 2.09375 
Q 45.015625 0.34375 40.984375 -0.53125 
Q 36.96875 -1.421875 32.421875 -1.421875 
Q 20.0625 -1.421875 12.78125 6.34375 
Q 5.515625 14.109375 5.515625 27.296875 
Q 5.515625 40.671875 12.859375 48.328125 
Q 20.21875 56 33.015625 56 
Q 37.15625 56 41.109375 55.140625 
Q 45.0625 54.296875 48.78125 52.59375 
z
" id="DejaVuSans-99"/>
     <path d="M 4.203125 54.6875 
L 13.1875 54.6875 
L 24.421875 12.015625 
L 35.59375 54.6875 
L 46.1875 54.6875 
L 57.421875 12.015625 
L 68.609375 54.6875 
L 77.59375 54.6875 
L 63.28125 0 
L 52.6875 0 
L 40.921875 44.828125 
L 29.109375 0 
L 18.5 0 
z
" id="DejaVuSans-119"/>
     <path d="M 2.984375 54.6875 
L 12.5 54.6875 
L 29.59375 8.796875 
L 46.6875 54.6875 
L 56.203125 54.6875 
L 35.6875 0 
L 23.484375 0 
z
" id="DejaVuSans-118"/>
     <path d="M 37.109375 75.984375 
L 37.109375 68.5 
L 28.515625 68.5 
Q 23.6875 68.5 21.796875 66.546875 
Q 19.921875 64.59375 19.921875 59.515625 
L 19.921875 54.6875 
L 34.71875 54.6875 
L 34.71875 47.703125 
L 19.921875 47.703125 
L 19.921875 0 
L 10.890625 0 
L 10.890625 47.703125 
L 2.296875 47.703125 
L 2.296875 54.6875 
L 10.890625 54.6875 
L 10.890625 58.5 
Q 10.890625 67.625 15.140625 71.796875 
Q 19.390625 75.984375 28.609375 75.984375 
z
" id="DejaVuSans-102"/>
     <path d="M 41.109375 46.296875 
Q 39.59375 47.171875 37.8125 47.578125 
Q 36.03125 48 33.890625 48 
Q 26.265625 48 22.1875 43.046875 
Q 18.109375 38.09375 18.109375 28.8125 
L 18.109375 0 
L 9.078125 0 
L 9.078125 54.6875 
L 18.109375 54.6875 
L 18.109375 46.1875 
Q 20.953125 51.171875 25.484375 53.578125 
Q 30.03125 56 36.53125 56 
Q 37.453125 56 38.578125 55.875 
Q 39.703125 55.765625 41.0625 55.515625 
z
" id="DejaVuSans-114"/>
     <path d="M 64.40625 67.28125 
L 64.40625 56.890625 
Q 59.421875 61.53125 53.78125 63.8125 
Q 48.140625 66.109375 41.796875 66.109375 
Q 29.296875 66.109375 22.65625 58.46875 
Q 16.015625 50.828125 16.015625 36.375 
Q 16.015625 21.96875 22.65625 14.328125 
Q 29.296875 6.6875 41.796875 6.6875 
Q 48.140625 6.6875 53.78125 8.984375 
Q 59.421875 11.28125 64.40625 15.921875 
L 64.40625 5.609375 
Q 59.234375 2.09375 53.4375 0.328125 
Q 47.65625 -1.421875 41.21875 -1.421875 
Q 24.65625 -1.421875 15.125 8.703125 
Q 5.609375 18.84375 5.609375 36.375 
Q 5.609375 53.953125 15.125 64.078125 
Q 24.65625 74.21875 41.21875 74.21875 
Q 47.75 74.21875 53.53125 72.484375 
Q 59.328125 70.75 64.40625 67.28125 
z
" id="DejaVuSans-67"/>
     <path d="M 39.40625 66.21875 
Q 28.65625 66.21875 22.328125 58.203125 
Q 16.015625 50.203125 16.015625 36.375 
Q 16.015625 22.609375 22.328125 14.59375 
Q 28.65625 6.59375 39.40625 6.59375 
Q 50.140625 6.59375 56.421875 14.59375 
Q 62.703125 22.609375 62.703125 36.375 
Q 62.703125 50.203125 56.421875 58.203125 
Q 50.140625 66.21875 39.40625 66.21875 
z
M 39.40625 74.21875 
Q 54.734375 74.21875 63.90625 63.9375 
Q 73.09375 53.65625 73.09375 36.375 
Q 73.09375 19.140625 63.90625 8.859375 
Q 54.734375 -1.421875 39.40625 -1.421875 
Q 24.03125 -1.421875 14.8125 8.828125 
Q 5.609375 19.09375 5.609375 36.375 
Q 5.609375 53.65625 14.8125 63.9375 
Q 24.03125 74.21875 39.40625 74.21875 
z
" id="DejaVuSans-79"/>
     <path d="M 28.609375 0 
L 0.78125 72.90625 
L 11.078125 72.90625 
L 34.1875 11.53125 
L 57.328125 72.90625 
L 67.578125 72.90625 
L 39.796875 0 
z
" id="DejaVuSans-86"/>
     <path d="M 9.8125 72.90625 
L 19.671875 72.90625 
L 19.671875 0 
L 9.8125 0 
z
" id="DejaVuSans-73"/>
     <path d="M 19.671875 64.796875 
L 19.671875 8.109375 
L 31.59375 8.109375 
Q 46.6875 8.109375 53.6875 14.9375 
Q 60.6875 21.78125 60.6875 36.53125 
Q 60.6875 51.171875 53.6875 57.984375 
Q 46.6875 64.796875 31.59375 64.796875 
z
M 9.8125 72.90625 
L 30.078125 72.90625 
Q 51.265625 72.90625 61.171875 64.09375 
Q 71.09375 55.28125 71.09375 36.53125 
Q 71.09375 17.671875 61.125 8.828125 
Q 51.171875 0 30.078125 0 
L 9.8125 0 
z
" id="DejaVuSans-68"/>
     <path d="M 18.109375 8.203125 
L 18.109375 -20.796875 
L 9.078125 -20.796875 
L 9.078125 54.6875 
L 18.109375 54.6875 
L 18.109375 46.390625 
Q 20.953125 51.265625 25.265625 53.625 
Q 29.59375 56 35.59375 56 
Q 45.5625 56 51.78125 48.09375 
Q 58.015625 40.1875 58.015625 27.296875 
Q 58.015625 14.40625 51.78125 6.484375 
Q 45.5625 -1.421875 35.59375 -1.421875 
Q 29.59375 -1.421875 25.265625 0.953125 
Q 20.953125 3.328125 18.109375 8.203125 
z
M 48.6875 27.296875 
Q 48.6875 37.203125 44.609375 42.84375 
Q 40.53125 48.484375 33.40625 48.484375 
Q 26.265625 48.484375 22.1875 42.84375 
Q 18.109375 37.203125 18.109375 27.296875 
Q 18.109375 17.390625 22.1875 11.75 
Q 26.265625 6.109375 33.40625 6.109375 
Q 40.53125 6.109375 44.609375 11.75 
Q 48.6875 17.390625 48.6875 27.296875 
z
" id="DejaVuSans-112"/>
     <path d="M 30.609375 48.390625 
Q 23.390625 48.390625 19.1875 42.75 
Q 14.984375 37.109375 14.984375 27.296875 
Q 14.984375 17.484375 19.15625 11.84375 
Q 23.34375 6.203125 30.609375 6.203125 
Q 37.796875 6.203125 41.984375 11.859375 
Q 46.1875 17.53125 46.1875 27.296875 
Q 46.1875 37.015625 41.984375 42.703125 
Q 37.796875 48.390625 30.609375 48.390625 
z
M 30.609375 56 
Q 42.328125 56 49.015625 48.375 
Q 55.71875 40.765625 55.71875 27.296875 
Q 55.71875 13.875 49.015625 6.21875 
Q 42.328125 -1.421875 30.609375 -1.421875 
Q 18.84375 -1.421875 12.171875 6.21875 
Q 5.515625 13.875 5.515625 27.296875 
Q 5.515625 40.765625 12.171875 48.375 
Q 18.84375 56 30.609375 56 
z
" id="DejaVuSans-111"/>
     <path d="M 8.5 21.578125 
L 8.5 54.6875 
L 17.484375 54.6875 
L 17.484375 21.921875 
Q 17.484375 14.15625 20.5 10.265625 
Q 23.53125 6.390625 29.59375 6.390625 
Q 36.859375 6.390625 41.078125 11.03125 
Q 45.3125 15.671875 45.3125 23.6875 
L 45.3125 54.6875 
L 54.296875 54.6875 
L 54.296875 0 
L 45.3125 0 
L 45.3125 8.40625 
Q 42.046875 3.421875 37.71875 1 
Q 33.40625 -1.421875 27.6875 -1.421875 
Q 18.265625 -1.421875 13.375 4.4375 
Q 8.5 10.296875 8.5 21.578125 
z
M 31.109375 56 
z
" id="DejaVuSans-117"/>
     <path d="M 10.6875 12.40625 
L 21 12.40625 
L 21 0 
L 10.6875 0 
z
" id="DejaVuSans-46"/>
    </defs>
    <g transform="translate(33.2875 346.398438)scale(0.1 -0.1)">
     <use xlink:href="#DejaVuSans-49"/>
     <use x="63.623047" xlink:href="#DejaVuSans-57"/>
     <use x="127.246094" xlink:href="#DejaVuSans-45"/>
     <use x="163.330078" xlink:href="#DejaVuSans-48"/>
     <use x="226.953125" xlink:href="#DejaVuSans-52"/>
     <use x="290.576172" xlink:href="#DejaVuSans-45"/>
     <use x="326.660156" xlink:href="#DejaVuSans-50"/>
     <use x="390.283203" xlink:href="#DejaVuSans-48"/>
     <use x="453.90625" xlink:href="#DejaVuSans-50"/>
     <use x="517.529297" xlink:href="#DejaVuSans-48"/>
     <use x="581.152344" xlink:href="#DejaVuSans-32"/>
     <use x="612.939453" xlink:href="#DejaVuSans-105"/>
     <use x="640.722656" xlink:href="#DejaVuSans-115"/>
     <use x="692.822266" xlink:href="#DejaVuSans-32"/>
     <use x="724.609375" xlink:href="#DejaVuSans-116"/>
     <use x="763.818359" xlink:href="#DejaVuSans-104"/>
     <use x="827.197266" xlink:href="#DejaVuSans-101"/>
     <use x="888.720703" xlink:href="#DejaVuSans-32"/>
     <use x="920.507812" xlink:href="#DejaVuSans-50"/>
     <use x="984.130859" xlink:href="#DejaVuSans-56"/>
     <use x="1047.753906" xlink:href="#DejaVuSans-116"/>
     <use x="1086.962891" xlink:href="#DejaVuSans-104"/>
     <use x="1150.341797" xlink:href="#DejaVuSans-32"/>
     <use x="1182.128906" xlink:href="#DejaVuSans-100"/>
     <use x="1245.605469" xlink:href="#DejaVuSans-97"/>
     <use x="1306.884766" xlink:href="#DejaVuSans-121"/>
     <use x="1366.064453" xlink:href="#DejaVuSans-32"/>
     <use x="1397.851562" xlink:href="#DejaVuSans-115"/>
     <use x="1449.951172" xlink:href="#DejaVuSans-105"/>
     <use x="1477.734375" xlink:href="#DejaVuSans-110"/>
     <use x="1541.113281" xlink:href="#DejaVuSans-99"/>
     <use x="1596.09375" xlink:href="#DejaVuSans-101"/>
     <use x="1657.617188" xlink:href="#DejaVuSans-32"/>
     <use x="1689.404297" xlink:href="#DejaVuSans-119"/>
     <use x="1771.191406" xlink:href="#DejaVuSans-101"/>
     <use x="1832.714844" xlink:href="#DejaVuSans-32"/>
     <use x="1864.501953" xlink:href="#DejaVuSans-104"/>
     <use x="1927.880859" xlink:href="#DejaVuSans-97"/>
     <use x="1989.160156" xlink:href="#DejaVuSans-118"/>
     <use x="2048.339844" xlink:href="#DejaVuSans-101"/>
     <use x="2109.863281" xlink:href="#DejaVuSans-32"/>
     <use x="2141.650391" xlink:href="#DejaVuSans-105"/>
     <use x="2169.433594" xlink:href="#DejaVuSans-100"/>
     <use x="2232.910156" xlink:href="#DejaVuSans-101"/>
     <use x="2294.433594" xlink:href="#DejaVuSans-110"/>
     <use x="2357.8125" xlink:href="#DejaVuSans-116"/>
     <use x="2397.021484" xlink:href="#DejaVuSans-105"/>
     <use x="2424.804688" xlink:href="#DejaVuSans-102"/>
     <use x="2460.009766" xlink:href="#DejaVuSans-105"/>
     <use x="2487.792969" xlink:href="#DejaVuSans-101"/>
     <use x="2549.316406" xlink:href="#DejaVuSans-100"/>
     <use x="2612.792969" xlink:href="#DejaVuSans-32"/>
     <use x="2644.580078" xlink:href="#DejaVuSans-116"/>
     <use x="2683.789062" xlink:href="#DejaVuSans-104"/>
     <use x="2747.167969" xlink:href="#DejaVuSans-101"/>
     <use x="2808.691406" xlink:href="#DejaVuSans-32"/>
     <use x="2840.478516" xlink:href="#DejaVuSans-102"/>
     <use x="2875.683594" xlink:href="#DejaVuSans-105"/>
     <use x="2903.466797" xlink:href="#DejaVuSans-114"/>
     <use x="2944.580078" xlink:href="#DejaVuSans-115"/>
     <use x="2996.679688" xlink:href="#DejaVuSans-116"/>
     <use x="3035.888672" xlink:href="#DejaVuSans-32"/>
     <use x="3067.675781" xlink:href="#DejaVuSans-67"/>
     <use x="3137.5" xlink:href="#DejaVuSans-79"/>
     <use x="3214.460938" xlink:href="#DejaVuSans-86"/>
     <use x="3282.869141" xlink:href="#DejaVuSans-73"/>
     <use x="3312.361328" xlink:href="#DejaVuSans-68"/>
     <use x="3389.363281" xlink:href="#DejaVuSans-45"/>
     <use x="3425.447266" xlink:href="#DejaVuSans-49"/>
     <use x="3489.070312" xlink:href="#DejaVuSans-57"/>
     <use x="3552.693359" xlink:href="#DejaVuSans-32"/>
     <use x="3584.480469" xlink:href="#DejaVuSans-112"/>
     <use x="3647.957031" xlink:href="#DejaVuSans-97"/>
     <use x="3709.236328" xlink:href="#DejaVuSans-116"/>
     <use x="3748.445312" xlink:href="#DejaVuSans-105"/>
     <use x="3776.228516" xlink:href="#DejaVuSans-101"/>
     <use x="3837.751953" xlink:href="#DejaVuSans-110"/>
     <use x="3901.130859" xlink:href="#DejaVuSans-116"/>
     <use x="3940.339844" xlink:href="#DejaVuSans-32"/>
     <use x="3972.126953" xlink:href="#DejaVuSans-105"/>
     <use x="3999.910156" xlink:href="#DejaVuSans-110"/>
     <use x="4063.289062" xlink:href="#DejaVuSans-32"/>
     <use x="4095.076172" xlink:href="#DejaVuSans-111"/>
     <use x="4156.257812" xlink:href="#DejaVuSans-117"/>
     <use x="4219.636719" xlink:href="#DejaVuSans-114"/>
     <use x="4260.75" xlink:href="#DejaVuSans-32"/>
     <use x="4292.537109" xlink:href="#DejaVuSans-99"/>
     <use x="4347.517578" xlink:href="#DejaVuSans-111"/>
     <use x="4408.699219" xlink:href="#DejaVuSans-117"/>
     <use x="4472.078125" xlink:href="#DejaVuSans-110"/>
     <use x="4535.457031" xlink:href="#DejaVuSans-116"/>
     <use x="4574.666016" xlink:href="#DejaVuSans-114"/>
     <use x="4615.779297" xlink:href="#DejaVuSans-121"/>
     <use x="4660.708984" xlink:href="#DejaVuSans-46"/>
    </g>
   </g>
   <g id="text_14">
    <!-- On 28th day, People's Republic of China has 74211.0 confirmed cases. -->
    <defs>
     <path d="M 11.71875 12.40625 
L 22.015625 12.40625 
L 22.015625 4 
L 14.015625 -11.625 
L 7.71875 -11.625 
L 11.71875 4 
z
" id="DejaVuSans-44"/>
     <path d="M 19.671875 64.796875 
L 19.671875 37.40625 
L 32.078125 37.40625 
Q 38.96875 37.40625 42.71875 40.96875 
Q 46.484375 44.53125 46.484375 51.125 
Q 46.484375 57.671875 42.71875 61.234375 
Q 38.96875 64.796875 32.078125 64.796875 
z
M 9.8125 72.90625 
L 32.078125 72.90625 
Q 44.34375 72.90625 50.609375 67.359375 
Q 56.890625 61.8125 56.890625 51.125 
Q 56.890625 40.328125 50.609375 34.8125 
Q 44.34375 29.296875 32.078125 29.296875 
L 19.671875 29.296875 
L 19.671875 0 
L 9.8125 0 
z
" id="DejaVuSans-80"/>
     <path d="M 9.421875 75.984375 
L 18.40625 75.984375 
L 18.40625 0 
L 9.421875 0 
z
" id="DejaVuSans-108"/>
     <path d="M 17.921875 72.90625 
L 17.921875 45.796875 
L 9.625 45.796875 
L 9.625 72.90625 
z
" id="DejaVuSans-39"/>
     <path d="M 44.390625 34.1875 
Q 47.5625 33.109375 50.5625 29.59375 
Q 53.5625 26.078125 56.59375 19.921875 
L 66.609375 0 
L 56 0 
L 46.6875 18.703125 
Q 43.0625 26.03125 39.671875 28.421875 
Q 36.28125 30.8125 30.421875 30.8125 
L 19.671875 30.8125 
L 19.671875 0 
L 9.8125 0 
L 9.8125 72.90625 
L 32.078125 72.90625 
Q 44.578125 72.90625 50.734375 67.671875 
Q 56.890625 62.453125 56.890625 51.90625 
Q 56.890625 45.015625 53.6875 40.46875 
Q 50.484375 35.9375 44.390625 34.1875 
z
M 19.671875 64.796875 
L 19.671875 38.921875 
L 32.078125 38.921875 
Q 39.203125 38.921875 42.84375 42.21875 
Q 46.484375 45.515625 46.484375 51.90625 
Q 46.484375 58.296875 42.84375 61.546875 
Q 39.203125 64.796875 32.078125 64.796875 
z
" id="DejaVuSans-82"/>
     <path d="M 48.6875 27.296875 
Q 48.6875 37.203125 44.609375 42.84375 
Q 40.53125 48.484375 33.40625 48.484375 
Q 26.265625 48.484375 22.1875 42.84375 
Q 18.109375 37.203125 18.109375 27.296875 
Q 18.109375 17.390625 22.1875 11.75 
Q 26.265625 6.109375 33.40625 6.109375 
Q 40.53125 6.109375 44.609375 11.75 
Q 48.6875 17.390625 48.6875 27.296875 
z
M 18.109375 46.390625 
Q 20.953125 51.265625 25.265625 53.625 
Q 29.59375 56 35.59375 56 
Q 45.5625 56 51.78125 48.09375 
Q 58.015625 40.1875 58.015625 27.296875 
Q 58.015625 14.40625 51.78125 6.484375 
Q 45.5625 -1.421875 35.59375 -1.421875 
Q 29.59375 -1.421875 25.265625 0.953125 
Q 20.953125 3.328125 18.109375 8.203125 
L 18.109375 0 
L 9.078125 0 
L 9.078125 75.984375 
L 18.109375 75.984375 
z
" id="DejaVuSans-98"/>
     <path d="M 8.203125 72.90625 
L 55.078125 72.90625 
L 55.078125 68.703125 
L 28.609375 0 
L 18.3125 0 
L 43.21875 64.59375 
L 8.203125 64.59375 
z
" id="DejaVuSans-55"/>
     <path d="M 52 44.1875 
Q 55.375 50.25 60.0625 53.125 
Q 64.75 56 71.09375 56 
Q 79.640625 56 84.28125 50.015625 
Q 88.921875 44.046875 88.921875 33.015625 
L 88.921875 0 
L 79.890625 0 
L 79.890625 32.71875 
Q 79.890625 40.578125 77.09375 44.375 
Q 74.3125 48.1875 68.609375 48.1875 
Q 61.625 48.1875 57.5625 43.546875 
Q 53.515625 38.921875 53.515625 30.90625 
L 53.515625 0 
L 44.484375 0 
L 44.484375 32.71875 
Q 44.484375 40.625 41.703125 44.40625 
Q 38.921875 48.1875 33.109375 48.1875 
Q 26.21875 48.1875 22.15625 43.53125 
Q 18.109375 38.875 18.109375 30.90625 
L 18.109375 0 
L 9.078125 0 
L 9.078125 54.6875 
L 18.109375 54.6875 
L 18.109375 46.1875 
Q 21.1875 51.21875 25.484375 53.609375 
Q 29.78125 56 35.6875 56 
Q 41.65625 56 45.828125 52.96875 
Q 50 49.953125 52 44.1875 
z
" id="DejaVuSans-109"/>
    </defs>
    <g transform="translate(33.2875 373.578438)scale(0.1 -0.1)">
     <use xlink:href="#DejaVuSans-79"/>
     <use x="78.710938" xlink:href="#DejaVuSans-110"/>
     <use x="142.089844" xlink:href="#DejaVuSans-32"/>
     <use x="173.876953" xlink:href="#DejaVuSans-50"/>
     <use x="237.5" xlink:href="#DejaVuSans-56"/>
     <use x="301.123047" xlink:href="#DejaVuSans-116"/>
     <use x="340.332031" xlink:href="#DejaVuSans-104"/>
     <use x="403.710938" xlink:href="#DejaVuSans-32"/>
     <use x="435.498047" xlink:href="#DejaVuSans-100"/>
     <use x="498.974609" xlink:href="#DejaVuSans-97"/>
     <use x="560.253906" xlink:href="#DejaVuSans-121"/>
     <use x="619.433594" xlink:href="#DejaVuSans-44"/>
     <use x="651.220703" xlink:href="#DejaVuSans-32"/>
     <use x="683.007812" xlink:href="#DejaVuSans-80"/>
     <use x="739.685547" xlink:href="#DejaVuSans-101"/>
     <use x="801.208984" xlink:href="#DejaVuSans-111"/>
     <use x="862.390625" xlink:href="#DejaVuSans-112"/>
     <use x="925.867188" xlink:href="#DejaVuSans-108"/>
     <use x="953.650391" xlink:href="#DejaVuSans-101"/>
     <use x="1015.173828" xlink:href="#DejaVuSans-39"/>
     <use x="1042.664062" xlink:href="#DejaVuSans-115"/>
     <use x="1094.763672" xlink:href="#DejaVuSans-32"/>
     <use x="1126.550781" xlink:href="#DejaVuSans-82"/>
     <use x="1191.533203" xlink:href="#DejaVuSans-101"/>
     <use x="1253.056641" xlink:href="#DejaVuSans-112"/>
     <use x="1316.533203" xlink:href="#DejaVuSans-117"/>
     <use x="1379.912109" xlink:href="#DejaVuSans-98"/>
     <use x="1443.388672" xlink:href="#DejaVuSans-108"/>
     <use x="1471.171875" xlink:href="#DejaVuSans-105"/>
     <use x="1498.955078" xlink:href="#DejaVuSans-99"/>
     <use x="1553.935547" xlink:href="#DejaVuSans-32"/>
     <use x="1585.722656" xlink:href="#DejaVuSans-111"/>
     <use x="1646.904297" xlink:href="#DejaVuSans-102"/>
     <use x="1682.109375" xlink:href="#DejaVuSans-32"/>
     <use x="1713.896484" xlink:href="#DejaVuSans-67"/>
     <use x="1783.720703" xlink:href="#DejaVuSans-104"/>
     <use x="1847.099609" xlink:href="#DejaVuSans-105"/>
     <use x="1874.882812" xlink:href="#DejaVuSans-110"/>
     <use x="1938.261719" xlink:href="#DejaVuSans-97"/>
     <use x="1999.541016" xlink:href="#DejaVuSans-32"/>
     <use x="2031.328125" xlink:href="#DejaVuSans-104"/>
     <use x="2094.707031" xlink:href="#DejaVuSans-97"/>
     <use x="2155.986328" xlink:href="#DejaVuSans-115"/>
     <use x="2208.085938" xlink:href="#DejaVuSans-32"/>
     <use x="2239.873047" xlink:href="#DejaVuSans-55"/>
     <use x="2303.496094" xlink:href="#DejaVuSans-52"/>
     <use x="2367.119141" xlink:href="#DejaVuSans-50"/>
     <use x="2430.742188" xlink:href="#DejaVuSans-49"/>
     <use x="2494.365234" xlink:href="#DejaVuSans-49"/>
     <use x="2557.988281" xlink:href="#DejaVuSans-46"/>
     <use x="2589.775391" xlink:href="#DejaVuSans-48"/>
     <use x="2653.398438" xlink:href="#DejaVuSans-32"/>
     <use x="2685.185547" xlink:href="#DejaVuSans-99"/>
     <use x="2740.166016" xlink:href="#DejaVuSans-111"/>
     <use x="2801.347656" xlink:href="#DejaVuSans-110"/>
     <use x="2864.726562" xlink:href="#DejaVuSans-102"/>
     <use x="2899.931641" xlink:href="#DejaVuSans-105"/>
     <use x="2927.714844" xlink:href="#DejaVuSans-114"/>
     <use x="2967.078125" xlink:href="#DejaVuSans-109"/>
     <use x="3064.490234" xlink:href="#DejaVuSans-101"/>
     <use x="3126.013672" xlink:href="#DejaVuSans-100"/>
     <use x="3189.490234" xlink:href="#DejaVuSans-32"/>
     <use x="3221.277344" xlink:href="#DejaVuSans-99"/>
     <use x="3276.257812" xlink:href="#DejaVuSans-97"/>
     <use x="3337.537109" xlink:href="#DejaVuSans-115"/>
     <use x="3389.636719" xlink:href="#DejaVuSans-101"/>
     <use x="3451.160156" xlink:href="#DejaVuSans-115"/>
     <use x="3503.259766" xlink:href="#DejaVuSans-46"/>
    </g>
   </g>
   <g id="text_15">
    <!-- On 28th day, Italy has 888.0 confirmed cases. -->
    <g transform="translate(33.2875 400.758438)scale(0.1 -0.1)">
     <use xlink:href="#DejaVuSans-79"/>
     <use x="78.710938" xlink:href="#DejaVuSans-110"/>
     <use x="142.089844" xlink:href="#DejaVuSans-32"/>
     <use x="173.876953" xlink:href="#DejaVuSans-50"/>
     <use x="237.5" xlink:href="#DejaVuSans-56"/>
     <use x="301.123047" xlink:href="#DejaVuSans-116"/>
     <use x="340.332031" xlink:href="#DejaVuSans-104"/>
     <use x="403.710938" xlink:href="#DejaVuSans-32"/>
     <use x="435.498047" xlink:href="#DejaVuSans-100"/>
     <use x="498.974609" xlink:href="#DejaVuSans-97"/>
     <use x="560.253906" xlink:href="#DejaVuSans-121"/>
     <use x="619.433594" xlink:href="#DejaVuSans-44"/>
     <use x="651.220703" xlink:href="#DejaVuSans-32"/>
     <use x="683.007812" xlink:href="#DejaVuSans-73"/>
     <use x="712.5" xlink:href="#DejaVuSans-116"/>
     <use x="751.708984" xlink:href="#DejaVuSans-97"/>
     <use x="812.988281" xlink:href="#DejaVuSans-108"/>
     <use x="840.771484" xlink:href="#DejaVuSans-121"/>
     <use x="899.951172" xlink:href="#DejaVuSans-32"/>
     <use x="931.738281" xlink:href="#DejaVuSans-104"/>
     <use x="995.117188" xlink:href="#DejaVuSans-97"/>
     <use x="1056.396484" xlink:href="#DejaVuSans-115"/>
     <use x="1108.496094" xlink:href="#DejaVuSans-32"/>
     <use x="1140.283203" xlink:href="#DejaVuSans-56"/>
     <use x="1203.90625" xlink:href="#DejaVuSans-56"/>
     <use x="1267.529297" xlink:href="#DejaVuSans-56"/>
     <use x="1331.152344" xlink:href="#DejaVuSans-46"/>
     <use x="1362.939453" xlink:href="#DejaVuSans-48"/>
     <use x="1426.5625" xlink:href="#DejaVuSans-32"/>
     <use x="1458.349609" xlink:href="#DejaVuSans-99"/>
     <use x="1513.330078" xlink:href="#DejaVuSans-111"/>
     <use x="1574.511719" xlink:href="#DejaVuSans-110"/>
     <use x="1637.890625" xlink:href="#DejaVuSans-102"/>
     <use x="1673.095703" xlink:href="#DejaVuSans-105"/>
     <use x="1700.878906" xlink:href="#DejaVuSans-114"/>
     <use x="1740.242188" xlink:href="#DejaVuSans-109"/>
     <use x="1837.654297" xlink:href="#DejaVuSans-101"/>
     <use x="1899.177734" xlink:href="#DejaVuSans-100"/>
     <use x="1962.654297" xlink:href="#DejaVuSans-32"/>
     <use x="1994.441406" xlink:href="#DejaVuSans-99"/>
     <use x="2049.421875" xlink:href="#DejaVuSans-97"/>
     <use x="2110.701172" xlink:href="#DejaVuSans-115"/>
     <use x="2162.800781" xlink:href="#DejaVuSans-101"/>
     <use x="2224.324219" xlink:href="#DejaVuSans-115"/>
     <use x="2276.423828" xlink:href="#DejaVuSans-46"/>
    </g>
   </g>
   <g id="text_16">
    <!-- Confirmed case growth for Myanmar compared as of 19-04-2020 -->
    <defs>
     <path d="M 45.40625 27.984375 
Q 45.40625 37.75 41.375 43.109375 
Q 37.359375 48.484375 30.078125 48.484375 
Q 22.859375 48.484375 18.828125 43.109375 
Q 14.796875 37.75 14.796875 27.984375 
Q 14.796875 18.265625 18.828125 12.890625 
Q 22.859375 7.515625 30.078125 7.515625 
Q 37.359375 7.515625 41.375 12.890625 
Q 45.40625 18.265625 45.40625 27.984375 
z
M 54.390625 6.78125 
Q 54.390625 -7.171875 48.1875 -13.984375 
Q 42 -20.796875 29.203125 -20.796875 
Q 24.46875 -20.796875 20.265625 -20.09375 
Q 16.0625 -19.390625 12.109375 -17.921875 
L 12.109375 -9.1875 
Q 16.0625 -11.328125 19.921875 -12.34375 
Q 23.78125 -13.375 27.78125 -13.375 
Q 36.625 -13.375 41.015625 -8.765625 
Q 45.40625 -4.15625 45.40625 5.171875 
L 45.40625 9.625 
Q 42.625 4.78125 38.28125 2.390625 
Q 33.9375 0 27.875 0 
Q 17.828125 0 11.671875 7.65625 
Q 5.515625 15.328125 5.515625 27.984375 
Q 5.515625 40.671875 11.671875 48.328125 
Q 17.828125 56 27.875 56 
Q 33.9375 56 38.28125 53.609375 
Q 42.625 51.21875 45.40625 46.390625 
L 45.40625 54.6875 
L 54.390625 54.6875 
z
" id="DejaVuSans-103"/>
     <path d="M 9.8125 72.90625 
L 24.515625 72.90625 
L 43.109375 23.296875 
L 61.8125 72.90625 
L 76.515625 72.90625 
L 76.515625 0 
L 66.890625 0 
L 66.890625 64.015625 
L 48.09375 14.015625 
L 38.1875 14.015625 
L 19.390625 64.015625 
L 19.390625 0 
L 9.8125 0 
z
" id="DejaVuSans-77"/>
    </defs>
    <g transform="translate(117.1825 16.318125)scale(0.12 -0.12)">
     <use xlink:href="#DejaVuSans-67"/>
     <use x="69.824219" xlink:href="#DejaVuSans-111"/>
     <use x="131.005859" xlink:href="#DejaVuSans-110"/>
     <use x="194.384766" xlink:href="#DejaVuSans-102"/>
     <use x="229.589844" xlink:href="#DejaVuSans-105"/>
     <use x="257.373047" xlink:href="#DejaVuSans-114"/>
     <use x="296.736328" xlink:href="#DejaVuSans-109"/>
     <use x="394.148438" xlink:href="#DejaVuSans-101"/>
     <use x="455.671875" xlink:href="#DejaVuSans-100"/>
     <use x="519.148438" xlink:href="#DejaVuSans-32"/>
     <use x="550.935547" xlink:href="#DejaVuSans-99"/>
     <use x="605.916016" xlink:href="#DejaVuSans-97"/>
     <use x="667.195312" xlink:href="#DejaVuSans-115"/>
     <use x="719.294922" xlink:href="#DejaVuSans-101"/>
     <use x="780.818359" xlink:href="#DejaVuSans-32"/>
     <use x="812.605469" xlink:href="#DejaVuSans-103"/>
     <use x="876.082031" xlink:href="#DejaVuSans-114"/>
     <use x="914.945312" xlink:href="#DejaVuSans-111"/>
     <use x="976.126953" xlink:href="#DejaVuSans-119"/>
     <use x="1057.914062" xlink:href="#DejaVuSans-116"/>
     <use x="1097.123047" xlink:href="#DejaVuSans-104"/>
     <use x="1160.501953" xlink:href="#DejaVuSans-32"/>
     <use x="1192.289062" xlink:href="#DejaVuSans-102"/>
     <use x="1227.494141" xlink:href="#DejaVuSans-111"/>
     <use x="1288.675781" xlink:href="#DejaVuSans-114"/>
     <use x="1329.789062" xlink:href="#DejaVuSans-32"/>
     <use x="1361.576172" xlink:href="#DejaVuSans-77"/>
     <use x="1447.855469" xlink:href="#DejaVuSans-121"/>
     <use x="1507.035156" xlink:href="#DejaVuSans-97"/>
     <use x="1568.314453" xlink:href="#DejaVuSans-110"/>
     <use x="1631.693359" xlink:href="#DejaVuSans-109"/>
     <use x="1729.105469" xlink:href="#DejaVuSans-97"/>
     <use x="1790.384766" xlink:href="#DejaVuSans-114"/>
     <use x="1831.498047" xlink:href="#DejaVuSans-32"/>
     <use x="1863.285156" xlink:href="#DejaVuSans-99"/>
     <use x="1918.265625" xlink:href="#DejaVuSans-111"/>
     <use x="1979.447266" xlink:href="#DejaVuSans-109"/>
     <use x="2076.859375" xlink:href="#DejaVuSans-112"/>
     <use x="2140.335938" xlink:href="#DejaVuSans-97"/>
     <use x="2201.615234" xlink:href="#DejaVuSans-114"/>
     <use x="2240.478516" xlink:href="#DejaVuSans-101"/>
     <use x="2302.001953" xlink:href="#DejaVuSans-100"/>
     <use x="2365.478516" xlink:href="#DejaVuSans-32"/>
     <use x="2397.265625" xlink:href="#DejaVuSans-97"/>
     <use x="2458.544922" xlink:href="#DejaVuSans-115"/>
     <use x="2510.644531" xlink:href="#DejaVuSans-32"/>
     <use x="2542.431641" xlink:href="#DejaVuSans-111"/>
     <use x="2603.613281" xlink:href="#DejaVuSans-102"/>
     <use x="2638.818359" xlink:href="#DejaVuSans-32"/>
     <use x="2670.605469" xlink:href="#DejaVuSans-49"/>
     <use x="2734.228516" xlink:href="#DejaVuSans-57"/>
     <use x="2797.851562" xlink:href="#DejaVuSans-45"/>
     <use x="2833.935547" xlink:href="#DejaVuSans-48"/>
     <use x="2897.558594" xlink:href="#DejaVuSans-52"/>
     <use x="2961.181641" xlink:href="#DejaVuSans-45"/>
     <use x="2997.265625" xlink:href="#DejaVuSans-50"/>
     <use x="3060.888672" xlink:href="#DejaVuSans-48"/>
     <use x="3124.511719" xlink:href="#DejaVuSans-50"/>
     <use x="3188.134766" xlink:href="#DejaVuSans-48"/>
    </g>
   </g>
   <g id="legend_1">
    <g id="patch_7">
     <path d="M 598.2875 153.218125 
L 710.551563 153.218125 
Q 712.551563 153.218125 712.551563 151.218125 
L 712.551563 78.8275 
Q 712.551563 76.8275 710.551563 76.8275 
L 598.2875 76.8275 
Q 596.2875 76.8275 596.2875 78.8275 
L 596.2875 151.218125 
Q 596.2875 153.218125 598.2875 153.218125 
z
" style="fill:#ffffff;opacity:0.8;stroke:#cccccc;stroke-linejoin:miter;"/>
    </g>
    <g id="line2d_30">
     <path d="M 600.2875 84.925938 
L 620.2875 84.925938 
" style="fill:none;stroke:#1f77b4;stroke-linecap:square;stroke-width:1.5;"/>
    </g>
    <g id="line2d_31"/>
    <g id="text_17">
     <!-- United States -->
     <defs>
      <path d="M 8.6875 72.90625 
L 18.609375 72.90625 
L 18.609375 28.609375 
Q 18.609375 16.890625 22.84375 11.734375 
Q 27.09375 6.59375 36.625 6.59375 
Q 46.09375 6.59375 50.34375 11.734375 
Q 54.59375 16.890625 54.59375 28.609375 
L 54.59375 72.90625 
L 64.5 72.90625 
L 64.5 27.390625 
Q 64.5 13.140625 57.4375 5.859375 
Q 50.390625 -1.421875 36.625 -1.421875 
Q 22.796875 -1.421875 15.734375 5.859375 
Q 8.6875 13.140625 8.6875 27.390625 
z
" id="DejaVuSans-85"/>
      <path d="M 53.515625 70.515625 
L 53.515625 60.890625 
Q 47.90625 63.578125 42.921875 64.890625 
Q 37.9375 66.21875 33.296875 66.21875 
Q 25.25 66.21875 20.875 63.09375 
Q 16.5 59.96875 16.5 54.203125 
Q 16.5 49.359375 19.40625 46.890625 
Q 22.3125 44.4375 30.421875 42.921875 
L 36.375 41.703125 
Q 47.40625 39.59375 52.65625 34.296875 
Q 57.90625 29 57.90625 20.125 
Q 57.90625 9.515625 50.796875 4.046875 
Q 43.703125 -1.421875 29.984375 -1.421875 
Q 24.8125 -1.421875 18.96875 -0.25 
Q 13.140625 0.921875 6.890625 3.21875 
L 6.890625 13.375 
Q 12.890625 10.015625 18.65625 8.296875 
Q 24.421875 6.59375 29.984375 6.59375 
Q 38.421875 6.59375 43.015625 9.90625 
Q 47.609375 13.234375 47.609375 19.390625 
Q 47.609375 24.75 44.3125 27.78125 
Q 41.015625 30.8125 33.5 32.328125 
L 27.484375 33.5 
Q 16.453125 35.6875 11.515625 40.375 
Q 6.59375 45.0625 6.59375 53.421875 
Q 6.59375 63.09375 13.40625 68.65625 
Q 20.21875 74.21875 32.171875 74.21875 
Q 37.3125 74.21875 42.625 73.28125 
Q 47.953125 72.359375 53.515625 70.515625 
z
" id="DejaVuSans-83"/>
     </defs>
     <g transform="translate(628.2875 88.425938)scale(0.1 -0.1)">
      <use xlink:href="#DejaVuSans-85"/>
      <use x="73.193359" xlink:href="#DejaVuSans-110"/>
      <use x="136.572266" xlink:href="#DejaVuSans-105"/>
      <use x="164.355469" xlink:href="#DejaVuSans-116"/>
      <use x="203.564453" xlink:href="#DejaVuSans-101"/>
      <use x="265.087891" xlink:href="#DejaVuSans-100"/>
      <use x="328.564453" xlink:href="#DejaVuSans-32"/>
      <use x="360.351562" xlink:href="#DejaVuSans-83"/>
      <use x="423.828125" xlink:href="#DejaVuSans-116"/>
      <use x="463.037109" xlink:href="#DejaVuSans-97"/>
      <use x="524.316406" xlink:href="#DejaVuSans-116"/>
      <use x="563.525391" xlink:href="#DejaVuSans-101"/>
      <use x="625.048828" xlink:href="#DejaVuSans-115"/>
     </g>
    </g>
    <g id="line2d_32">
     <path d="M 600.2875 99.604063 
L 620.2875 99.604063 
" style="fill:none;stroke:#ff7f0e;stroke-linecap:square;stroke-width:1.5;"/>
    </g>
    <g id="line2d_33"/>
    <g id="text_18">
     <!-- Spain -->
     <g transform="translate(628.2875 103.104063)scale(0.1 -0.1)">
      <use xlink:href="#DejaVuSans-83"/>
      <use x="63.476562" xlink:href="#DejaVuSans-112"/>
      <use x="126.953125" xlink:href="#DejaVuSans-97"/>
      <use x="188.232422" xlink:href="#DejaVuSans-105"/>
      <use x="216.015625" xlink:href="#DejaVuSans-110"/>
     </g>
    </g>
    <g id="line2d_34">
     <path d="M 600.2875 114.282188 
L 620.2875 114.282188 
" style="fill:none;stroke:#2ca02c;stroke-linecap:square;stroke-width:1.5;"/>
    </g>
    <g id="line2d_35"/>
    <g id="text_19">
     <!-- France -->
     <defs>
      <path d="M 9.8125 72.90625 
L 51.703125 72.90625 
L 51.703125 64.59375 
L 19.671875 64.59375 
L 19.671875 43.109375 
L 48.578125 43.109375 
L 48.578125 34.8125 
L 19.671875 34.8125 
L 19.671875 0 
L 9.8125 0 
z
" id="DejaVuSans-70"/>
     </defs>
     <g transform="translate(628.2875 117.782188)scale(0.1 -0.1)">
      <use xlink:href="#DejaVuSans-70"/>
      <use x="50.269531" xlink:href="#DejaVuSans-114"/>
      <use x="91.382812" xlink:href="#DejaVuSans-97"/>
      <use x="152.662109" xlink:href="#DejaVuSans-110"/>
      <use x="216.041016" xlink:href="#DejaVuSans-99"/>
      <use x="271.021484" xlink:href="#DejaVuSans-101"/>
     </g>
    </g>
    <g id="line2d_36">
     <path d="M 600.2875 128.960313 
L 620.2875 128.960313 
" style="fill:none;stroke:#d62728;stroke-linecap:square;stroke-width:1.5;"/>
    </g>
    <g id="line2d_37"/>
    <g id="text_20">
     <!-- United Kingdom -->
     <defs>
      <path d="M 9.8125 72.90625 
L 19.671875 72.90625 
L 19.671875 42.09375 
L 52.390625 72.90625 
L 65.09375 72.90625 
L 28.90625 38.921875 
L 67.671875 0 
L 54.6875 0 
L 19.671875 35.109375 
L 19.671875 0 
L 9.8125 0 
z
" id="DejaVuSans-75"/>
     </defs>
     <g transform="translate(628.2875 132.460313)scale(0.1 -0.1)">
      <use xlink:href="#DejaVuSans-85"/>
      <use x="73.193359" xlink:href="#DejaVuSans-110"/>
      <use x="136.572266" xlink:href="#DejaVuSans-105"/>
      <use x="164.355469" xlink:href="#DejaVuSans-116"/>
      <use x="203.564453" xlink:href="#DejaVuSans-101"/>
      <use x="265.087891" xlink:href="#DejaVuSans-100"/>
      <use x="328.564453" xlink:href="#DejaVuSans-32"/>
      <use x="360.351562" xlink:href="#DejaVuSans-75"/>
      <use x="425.927734" xlink:href="#DejaVuSans-105"/>
      <use x="453.710938" xlink:href="#DejaVuSans-110"/>
      <use x="517.089844" xlink:href="#DejaVuSans-103"/>
      <use x="580.566406" xlink:href="#DejaVuSans-100"/>
      <use x="644.042969" xlink:href="#DejaVuSans-111"/>
      <use x="705.224609" xlink:href="#DejaVuSans-109"/>
     </g>
    </g>
    <g id="line2d_38">
     <path d="M 600.2875 143.638438 
L 620.2875 143.638438 
" style="fill:none;stroke:#9467bd;stroke-linecap:square;stroke-width:1.5;"/>
    </g>
    <g id="line2d_39"/>
    <g id="text_21">
     <!-- Myanmar -->
     <g transform="translate(628.2875 147.138438)scale(0.1 -0.1)">
      <use xlink:href="#DejaVuSans-77"/>
      <use x="86.279297" xlink:href="#DejaVuSans-121"/>
      <use x="145.458984" xlink:href="#DejaVuSans-97"/>
      <use x="206.738281" xlink:href="#DejaVuSans-110"/>
      <use x="270.117188" xlink:href="#DejaVuSans-109"/>
      <use x="367.529297" xlink:href="#DejaVuSans-97"/>
      <use x="428.808594" xlink:href="#DejaVuSans-114"/>
     </g>
    </g>
   </g>
  </g>
 </g>
 <defs>
  <clipPath id="p29d38952d4">
   <rect height="271.8" width="558" x="33.2875" y="22.318125"/>
  </clipPath>
 </defs>
</svg>
