<?xml version="1.0" encoding="utf-8" standalone="no"?>
<!DOCTYPE svg PUBLIC "-//W3C//DTD SVG 1.1//EN"
  "http://www.w3.org/Graphics/SVG/1.1/DTD/svg11.dtd">
<!-- Created with matplotlib (https://matplotlib.org/) -->
<svg height="304.446125pt" version="1.1" viewBox="0 0 512.486941 304.446125" width="512.486941pt" xmlns="http://www.w3.org/2000/svg" xmlns:xlink="http://www.w3.org/1999/xlink">
 <defs>
  <style type="text/css">
*{stroke-linecap:butt;stroke-linejoin:round;}
  </style>
 </defs>
 <g id="figure_1">
  <g id="patch_1">
   <path d="M 0 304.446125 
L 512.486941 304.446125 
L 512.486941 0 
L 0 0 
z
" style="fill:#ffffff;"/>
  </g>
  <g id="axes_1">
   <g id="patch_2">
    <path d="M 285.663503 155.910125 
C 285.663503 141.633145 282.851249 127.494991 277.387686 114.304782 
C 271.924122 101.114573 263.915501 89.128825 253.820152 79.033476 
C 243.724803 68.938127 231.739055 60.929506 218.548846 55.465942 
C 205.358637 50.002379 191.220483 47.190125 176.943503 47.190125 
C 162.666523 47.190125 148.52837 50.002379 135.33816 55.465942 
C 122.147951 60.929506 110.162203 68.938127 100.066854 79.033476 
C 89.971505 89.128825 81.962884 101.114573 76.49932 114.304782 
C 71.035757 127.494991 68.223503 141.633145 68.223503 155.910125 
C 68.223503 170.187105 71.035757 184.325259 76.49932 197.515468 
C 81.962884 210.705677 89.971505 222.691425 100.066854 232.786774 
C 110.162203 242.882123 122.147951 250.890744 135.33816 256.354308 
C 148.52837 261.817871 162.666523 264.630125 176.943503 264.630125 
C 191.220483 264.630125 205.358637 261.817871 218.548846 256.354308 
C 231.739055 250.890744 243.724803 242.882123 253.820152 232.786774 
C 263.915501 222.691425 271.924122 210.705677 277.387686 197.515468 
C 282.851249 184.325259 285.663503 170.187105 285.663503 155.910125 
M 176.943503 155.910125 
C 176.943503 155.910125 176.943503 155.910125 176.943503 155.910125 
C 176.943503 155.910125 176.943503 155.910125 176.943503 155.910125 
C 176.943503 155.910125 176.943503 155.910125 176.943503 155.910125 
C 176.943503 155.910125 176.943503 155.910125 176.943503 155.910125 
C 176.943503 155.910125 176.943503 155.910125 176.943503 155.910125 
C 176.943503 155.910125 176.943503 155.910125 176.943503 155.910125 
C 176.943503 155.910125 176.943503 155.910125 176.943503 155.910125 
C 176.943503 155.910125 176.943503 155.910125 176.943503 155.910125 
C 176.943503 155.910125 176.943503 155.910125 176.943503 155.910125 
C 176.943503 155.910125 176.943503 155.910125 176.943503 155.910125 
C 176.943503 155.910125 176.943503 155.910125 176.943503 155.910125 
C 176.943503 155.910125 176.943503 155.910125 176.943503 155.910125 
C 176.943503 155.910125 176.943503 155.910125 176.943503 155.910125 
C 176.943503 155.910125 176.943503 155.910125 176.943503 155.910125 
C 176.943503 155.910125 176.943503 155.910125 176.943503 155.910125 
C 176.943503 155.910125 176.943503 155.910125 176.943503 155.910125 
M 285.663503 155.910125 
z
" style="fill:#ffffff;"/>
   </g>
   <g id="patch_3">
    <path clip-path="url(#p34e1473a75)" d="M 249.423503 155.910125 
L 199.341055 86.977549 
L 118.305951 113.30745 
L 176.943503 155.910125 
L 199.341055 224.842701 
z
" style="fill:#708090;opacity:0.3;"/>
   </g>
   <g id="matplotlib.axis_1">
    <g id="xtick_1">
     <g id="line2d_1">
      <path clip-path="url(#p34e1473a75)" d="M 176.943503 155.910125 
L 285.663503 155.910125 
" style="fill:none;stroke:#b0b0b0;stroke-linecap:square;stroke-width:0.8;"/>
     </g>
     <g id="text_1">
      <!-- Heart Disease -->
      <defs>
       <path d="M 9.8125 72.90625 
L 19.671875 72.90625 
L 19.671875 43.015625 
L 55.515625 43.015625 
L 55.515625 72.90625 
L 65.375 72.90625 
L 65.375 0 
L 55.515625 0 
L 55.515625 34.71875 
L 19.671875 34.71875 
L 19.671875 0 
L 9.8125 0 
z
" id="DejaVuSans-72"/>
       <path d="M 56.203125 29.59375 
L 56.203125 25.203125 
L 14.890625 25.203125 
Q 15.484375 15.921875 20.484375 11.0625 
Q 25.484375 6.203125 34.421875 6.203125 
Q 39.59375 6.203125 44.453125 7.46875 
Q 49.3125 8.734375 54.109375 11.28125 
L 54.109375 2.78125 
Q 49.265625 0.734375 44.1875 -0.34375 
Q 39.109375 -1.421875 33.890625 -1.421875 
Q 20.796875 -1.421875 13.15625 6.1875 
Q 5.515625 13.8125 5.515625 26.8125 
Q 5.515625 40.234375 12.765625 48.109375 
Q 20.015625 56 32.328125 56 
Q 43.359375 56 49.78125 48.890625 
Q 56.203125 41.796875 56.203125 29.59375 
z
M 47.21875 32.234375 
Q 47.125 39.59375 43.09375 43.984375 
Q 39.0625 48.390625 32.421875 48.390625 
Q 24.90625 48.390625 20.390625 44.140625 
Q 15.875 39.890625 15.1875 32.171875 
z
" id="DejaVuSans-101"/>
       <path d="M 34.28125 27.484375 
Q 23.390625 27.484375 19.1875 25 
Q 14.984375 22.515625 14.984375 16.5 
Q 14.984375 11.71875 18.140625 8.90625 
Q 21.296875 6.109375 26.703125 6.109375 
Q 34.1875 6.109375 38.703125 11.40625 
Q 43.21875 16.703125 43.21875 25.484375 
L 43.21875 27.484375 
z
M 52.203125 31.203125 
L 52.203125 0 
L 43.21875 0 
L 43.21875 8.296875 
Q 40.140625 3.328125 35.546875 0.953125 
Q 30.953125 -1.421875 24.3125 -1.421875 
Q 15.921875 -1.421875 10.953125 3.296875 
Q 6 8.015625 6 15.921875 
Q 6 25.140625 12.171875 29.828125 
Q 18.359375 34.515625 30.609375 34.515625 
L 43.21875 34.515625 
L 43.21875 35.40625 
Q 43.21875 41.609375 39.140625 45 
Q 35.0625 48.390625 27.6875 48.390625 
Q 23 48.390625 18.546875 47.265625 
Q 14.109375 46.140625 10.015625 43.890625 
L 10.015625 52.203125 
Q 14.9375 54.109375 19.578125 55.046875 
Q 24.21875 56 28.609375 56 
Q 40.484375 56 46.34375 49.84375 
Q 52.203125 43.703125 52.203125 31.203125 
z
" id="DejaVuSans-97"/>
       <path d="M 41.109375 46.296875 
Q 39.59375 47.171875 37.8125 47.578125 
Q 36.03125 48 33.890625 48 
Q 26.265625 48 22.1875 43.046875 
Q 18.109375 38.09375 18.109375 28.8125 
L 18.109375 0 
L 9.078125 0 
L 9.078125 54.6875 
L 18.109375 54.6875 
L 18.109375 46.1875 
Q 20.953125 51.171875 25.484375 53.578125 
Q 30.03125 56 36.53125 56 
Q 37.453125 56 38.578125 55.875 
Q 39.703125 55.765625 41.0625 55.515625 
z
" id="DejaVuSans-114"/>
       <path d="M 18.3125 70.21875 
L 18.3125 54.6875 
L 36.8125 54.6875 
L 36.8125 47.703125 
L 18.3125 47.703125 
L 18.3125 18.015625 
Q 18.3125 11.328125 20.140625 9.421875 
Q 21.96875 7.515625 27.59375 7.515625 
L 36.8125 7.515625 
L 36.8125 0 
L 27.59375 0 
Q 17.1875 0 13.234375 3.875 
Q 9.28125 7.765625 9.28125 18.015625 
L 9.28125 47.703125 
L 2.6875 47.703125 
L 2.6875 54.6875 
L 9.28125 54.6875 
L 9.28125 70.21875 
z
" id="DejaVuSans-116"/>
       <path id="DejaVuSans-32"/>
       <path d="M 19.671875 64.796875 
L 19.671875 8.109375 
L 31.59375 8.109375 
Q 46.6875 8.109375 53.6875 14.9375 
Q 60.6875 21.78125 60.6875 36.53125 
Q 60.6875 51.171875 53.6875 57.984375 
Q 46.6875 64.796875 31.59375 64.796875 
z
M 9.8125 72.90625 
L 30.078125 72.90625 
Q 51.265625 72.90625 61.171875 64.09375 
Q 71.09375 55.28125 71.09375 36.53125 
Q 71.09375 17.671875 61.125 8.828125 
Q 51.171875 0 30.078125 0 
L 9.8125 0 
z
" id="DejaVuSans-68"/>
       <path d="M 9.421875 54.6875 
L 18.40625 54.6875 
L 18.40625 0 
L 9.421875 0 
z
M 9.421875 75.984375 
L 18.40625 75.984375 
L 18.40625 64.59375 
L 9.421875 64.59375 
z
" id="DejaVuSans-105"/>
       <path d="M 44.28125 53.078125 
L 44.28125 44.578125 
Q 40.484375 46.53125 36.375 47.5 
Q 32.28125 48.484375 27.875 48.484375 
Q 21.1875 48.484375 17.84375 46.4375 
Q 14.5 44.390625 14.5 40.28125 
Q 14.5 37.15625 16.890625 35.375 
Q 19.28125 33.59375 26.515625 31.984375 
L 29.59375 31.296875 
Q 39.15625 29.25 43.1875 25.515625 
Q 47.21875 21.78125 47.21875 15.09375 
Q 47.21875 7.46875 41.1875 3.015625 
Q 35.15625 -1.421875 24.609375 -1.421875 
Q 20.21875 -1.421875 15.453125 -0.5625 
Q 10.6875 0.296875 5.421875 2 
L 5.421875 11.28125 
Q 10.40625 8.6875 15.234375 7.390625 
Q 20.0625 6.109375 24.8125 6.109375 
Q 31.15625 6.109375 34.5625 8.28125 
Q 37.984375 10.453125 37.984375 14.40625 
Q 37.984375 18.0625 35.515625 20.015625 
Q 33.0625 21.96875 24.703125 23.78125 
L 21.578125 24.515625 
Q 13.234375 26.265625 9.515625 29.90625 
Q 5.8125 33.546875 5.8125 39.890625 
Q 5.8125 47.609375 11.28125 51.796875 
Q 16.75 56 26.8125 56 
Q 31.78125 56 36.171875 55.265625 
Q 40.578125 54.546875 44.28125 53.078125 
z
" id="DejaVuSans-115"/>
      </defs>
      <g transform="translate(264.492409 158.6695)scale(0.1 -0.1)">
       <use xlink:href="#DejaVuSans-72"/>
       <use x="75.195312" xlink:href="#DejaVuSans-101"/>
       <use x="136.71875" xlink:href="#DejaVuSans-97"/>
       <use x="197.998047" xlink:href="#DejaVuSans-114"/>
       <use x="239.111328" xlink:href="#DejaVuSans-116"/>
       <use x="278.320312" xlink:href="#DejaVuSans-32"/>
       <use x="310.107422" xlink:href="#DejaVuSans-68"/>
       <use x="387.109375" xlink:href="#DejaVuSans-105"/>
       <use x="414.892578" xlink:href="#DejaVuSans-115"/>
       <use x="466.992188" xlink:href="#DejaVuSans-101"/>
       <use x="528.515625" xlink:href="#DejaVuSans-97"/>
       <use x="589.794922" xlink:href="#DejaVuSans-115"/>
       <use x="641.894531" xlink:href="#DejaVuSans-101"/>
      </g>
     </g>
    </g>
    <g id="xtick_2">
     <g id="line2d_2">
      <path clip-path="url(#p34e1473a75)" d="M 176.943503 155.910125 
L 210.539831 52.511261 
" style="fill:none;stroke:#b0b0b0;stroke-linecap:square;stroke-width:0.8;"/>
     </g>
     <g id="text_2">
      <!-- Diabetes Mellitus -->
      <defs>
       <path d="M 48.6875 27.296875 
Q 48.6875 37.203125 44.609375 42.84375 
Q 40.53125 48.484375 33.40625 48.484375 
Q 26.265625 48.484375 22.1875 42.84375 
Q 18.109375 37.203125 18.109375 27.296875 
Q 18.109375 17.390625 22.1875 11.75 
Q 26.265625 6.109375 33.40625 6.109375 
Q 40.53125 6.109375 44.609375 11.75 
Q 48.6875 17.390625 48.6875 27.296875 
z
M 18.109375 46.390625 
Q 20.953125 51.265625 25.265625 53.625 
Q 29.59375 56 35.59375 56 
Q 45.5625 56 51.78125 48.09375 
Q 58.015625 40.1875 58.015625 27.296875 
Q 58.015625 14.40625 51.78125 6.484375 
Q 45.5625 -1.421875 35.59375 -1.421875 
Q 29.59375 -1.421875 25.265625 0.953125 
Q 20.953125 3.328125 18.109375 8.203125 
L 18.109375 0 
L 9.078125 0 
L 9.078125 75.984375 
L 18.109375 75.984375 
z
" id="DejaVuSans-98"/>
       <path d="M 9.8125 72.90625 
L 24.515625 72.90625 
L 43.109375 23.296875 
L 61.8125 72.90625 
L 76.515625 72.90625 
L 76.515625 0 
L 66.890625 0 
L 66.890625 64.015625 
L 48.09375 14.015625 
L 38.1875 14.015625 
L 19.390625 64.015625 
L 19.390625 0 
L 9.8125 0 
z
" id="DejaVuSans-77"/>
       <path d="M 9.421875 75.984375 
L 18.40625 75.984375 
L 18.40625 0 
L 9.421875 0 
z
" id="DejaVuSans-108"/>
       <path d="M 8.5 21.578125 
L 8.5 54.6875 
L 17.484375 54.6875 
L 17.484375 21.921875 
Q 17.484375 14.15625 20.5 10.265625 
Q 23.53125 6.390625 29.59375 6.390625 
Q 36.859375 6.390625 41.078125 11.03125 
Q 45.3125 15.671875 45.3125 23.6875 
L 45.3125 54.6875 
L 54.296875 54.6875 
L 54.296875 0 
L 45.3125 0 
L 45.3125 8.40625 
Q 42.046875 3.421875 37.71875 1 
Q 33.40625 -1.421875 27.6875 -1.421875 
Q 18.265625 -1.421875 13.375 4.4375 
Q 8.5 10.296875 8.5 21.578125 
z
M 31.109375 56 
z
" id="DejaVuSans-117"/>
      </defs>
      <g transform="translate(171.790287 41.955844)scale(0.1 -0.1)">
       <use xlink:href="#DejaVuSans-68"/>
       <use x="77.001953" xlink:href="#DejaVuSans-105"/>
       <use x="104.785156" xlink:href="#DejaVuSans-97"/>
       <use x="166.064453" xlink:href="#DejaVuSans-98"/>
       <use x="229.541016" xlink:href="#DejaVuSans-101"/>
       <use x="291.064453" xlink:href="#DejaVuSans-116"/>
       <use x="330.273438" xlink:href="#DejaVuSans-101"/>
       <use x="391.796875" xlink:href="#DejaVuSans-115"/>
       <use x="443.896484" xlink:href="#DejaVuSans-32"/>
       <use x="475.683594" xlink:href="#DejaVuSans-77"/>
       <use x="561.962891" xlink:href="#DejaVuSans-101"/>
       <use x="623.486328" xlink:href="#DejaVuSans-108"/>
       <use x="651.269531" xlink:href="#DejaVuSans-108"/>
       <use x="679.052734" xlink:href="#DejaVuSans-105"/>
       <use x="706.835938" xlink:href="#DejaVuSans-116"/>
       <use x="746.044922" xlink:href="#DejaVuSans-117"/>
       <use x="809.423828" xlink:href="#DejaVuSans-115"/>
      </g>
     </g>
    </g>
    <g id="xtick_3">
     <g id="line2d_3">
      <path clip-path="url(#p34e1473a75)" d="M 176.943503 155.910125 
L 88.987175 92.006112 
" style="fill:none;stroke:#b0b0b0;stroke-linecap:square;stroke-width:0.8;"/>
     </g>
     <g id="text_3">
      <!-- Hypertension -->
      <defs>
       <path d="M 32.171875 -5.078125 
Q 28.375 -14.84375 24.75 -17.8125 
Q 21.140625 -20.796875 15.09375 -20.796875 
L 7.90625 -20.796875 
L 7.90625 -13.28125 
L 13.1875 -13.28125 
Q 16.890625 -13.28125 18.9375 -11.515625 
Q 21 -9.765625 23.484375 -3.21875 
L 25.09375 0.875 
L 2.984375 54.6875 
L 12.5 54.6875 
L 29.59375 11.921875 
L 46.6875 54.6875 
L 56.203125 54.6875 
z
" id="DejaVuSans-121"/>
       <path d="M 18.109375 8.203125 
L 18.109375 -20.796875 
L 9.078125 -20.796875 
L 9.078125 54.6875 
L 18.109375 54.6875 
L 18.109375 46.390625 
Q 20.953125 51.265625 25.265625 53.625 
Q 29.59375 56 35.59375 56 
Q 45.5625 56 51.78125 48.09375 
Q 58.015625 40.1875 58.015625 27.296875 
Q 58.015625 14.40625 51.78125 6.484375 
Q 45.5625 -1.421875 35.59375 -1.421875 
Q 29.59375 -1.421875 25.265625 0.953125 
Q 20.953125 3.328125 18.109375 8.203125 
z
M 48.6875 27.296875 
Q 48.6875 37.203125 44.609375 42.84375 
Q 40.53125 48.484375 33.40625 48.484375 
Q 26.265625 48.484375 22.1875 42.84375 
Q 18.109375 37.203125 18.109375 27.296875 
Q 18.109375 17.390625 22.1875 11.75 
Q 26.265625 6.109375 33.40625 6.109375 
Q 40.53125 6.109375 44.609375 11.75 
Q 48.6875 17.390625 48.6875 27.296875 
z
" id="DejaVuSans-112"/>
       <path d="M 54.890625 33.015625 
L 54.890625 0 
L 45.90625 0 
L 45.90625 32.71875 
Q 45.90625 40.484375 42.875 44.328125 
Q 39.84375 48.1875 33.796875 48.1875 
Q 26.515625 48.1875 22.3125 43.546875 
Q 18.109375 38.921875 18.109375 30.90625 
L 18.109375 0 
L 9.078125 0 
L 9.078125 54.6875 
L 18.109375 54.6875 
L 18.109375 46.1875 
Q 21.34375 51.125 25.703125 53.5625 
Q 30.078125 56 35.796875 56 
Q 45.21875 56 50.046875 50.171875 
Q 54.890625 44.34375 54.890625 33.015625 
z
" id="DejaVuSans-110"/>
       <path d="M 30.609375 48.390625 
Q 23.390625 48.390625 19.1875 42.75 
Q 14.984375 37.109375 14.984375 27.296875 
Q 14.984375 17.484375 19.15625 11.84375 
Q 23.34375 6.203125 30.609375 6.203125 
Q 37.796875 6.203125 41.984375 11.859375 
Q 46.1875 17.53125 46.1875 27.296875 
Q 46.1875 37.015625 41.984375 42.703125 
Q 37.796875 48.390625 30.609375 48.390625 
z
M 30.609375 56 
Q 42.328125 56 49.015625 48.375 
Q 55.71875 40.765625 55.71875 27.296875 
Q 55.71875 13.875 49.015625 6.21875 
Q 42.328125 -1.421875 30.609375 -1.421875 
Q 18.84375 -1.421875 12.171875 6.21875 
Q 5.515625 13.875 5.515625 27.296875 
Q 5.515625 40.765625 12.171875 48.375 
Q 18.84375 56 30.609375 56 
z
" id="DejaVuSans-111"/>
      </defs>
      <g transform="translate(44.207813 86.536494)scale(0.1 -0.1)">
       <use xlink:href="#DejaVuSans-72"/>
       <use x="75.195312" xlink:href="#DejaVuSans-121"/>
       <use x="134.375" xlink:href="#DejaVuSans-112"/>
       <use x="197.851562" xlink:href="#DejaVuSans-101"/>
       <use x="259.375" xlink:href="#DejaVuSans-114"/>
       <use x="300.488281" xlink:href="#DejaVuSans-116"/>
       <use x="339.697266" xlink:href="#DejaVuSans-101"/>
       <use x="401.220703" xlink:href="#DejaVuSans-110"/>
       <use x="464.599609" xlink:href="#DejaVuSans-115"/>
       <use x="516.699219" xlink:href="#DejaVuSans-105"/>
       <use x="544.482422" xlink:href="#DejaVuSans-111"/>
       <use x="605.664062" xlink:href="#DejaVuSans-110"/>
      </g>
     </g>
    </g>
    <g id="xtick_4">
     <g id="line2d_4">
      <path clip-path="url(#p34e1473a75)" d="M 176.943503 155.910125 
L 88.987175 219.814138 
" style="fill:none;stroke:#b0b0b0;stroke-linecap:square;stroke-width:0.8;"/>
     </g>
     <g id="text_4">
      <!-- Chronic Respiratory Disease -->
      <defs>
       <path d="M 64.40625 67.28125 
L 64.40625 56.890625 
Q 59.421875 61.53125 53.78125 63.8125 
Q 48.140625 66.109375 41.796875 66.109375 
Q 29.296875 66.109375 22.65625 58.46875 
Q 16.015625 50.828125 16.015625 36.375 
Q 16.015625 21.96875 22.65625 14.328125 
Q 29.296875 6.6875 41.796875 6.6875 
Q 48.140625 6.6875 53.78125 8.984375 
Q 59.421875 11.28125 64.40625 15.921875 
L 64.40625 5.609375 
Q 59.234375 2.09375 53.4375 0.328125 
Q 47.65625 -1.421875 41.21875 -1.421875 
Q 24.65625 -1.421875 15.125 8.703125 
Q 5.609375 18.84375 5.609375 36.375 
Q 5.609375 53.953125 15.125 64.078125 
Q 24.65625 74.21875 41.21875 74.21875 
Q 47.75 74.21875 53.53125 72.484375 
Q 59.328125 70.75 64.40625 67.28125 
z
" id="DejaVuSans-67"/>
       <path d="M 54.890625 33.015625 
L 54.890625 0 
L 45.90625 0 
L 45.90625 32.71875 
Q 45.90625 40.484375 42.875 44.328125 
Q 39.84375 48.1875 33.796875 48.1875 
Q 26.515625 48.1875 22.3125 43.546875 
Q 18.109375 38.921875 18.109375 30.90625 
L 18.109375 0 
L 9.078125 0 
L 9.078125 75.984375 
L 18.109375 75.984375 
L 18.109375 46.1875 
Q 21.34375 51.125 25.703125 53.5625 
Q 30.078125 56 35.796875 56 
Q 45.21875 56 50.046875 50.171875 
Q 54.890625 44.34375 54.890625 33.015625 
z
" id="DejaVuSans-104"/>
       <path d="M 48.78125 52.59375 
L 48.78125 44.1875 
Q 44.96875 46.296875 41.140625 47.34375 
Q 37.3125 48.390625 33.40625 48.390625 
Q 24.65625 48.390625 19.8125 42.84375 
Q 14.984375 37.3125 14.984375 27.296875 
Q 14.984375 17.28125 19.8125 11.734375 
Q 24.65625 6.203125 33.40625 6.203125 
Q 37.3125 6.203125 41.140625 7.25 
Q 44.96875 8.296875 48.78125 10.40625 
L 48.78125 2.09375 
Q 45.015625 0.34375 40.984375 -0.53125 
Q 36.96875 -1.421875 32.421875 -1.421875 
Q 20.0625 -1.421875 12.78125 6.34375 
Q 5.515625 14.109375 5.515625 27.296875 
Q 5.515625 40.671875 12.859375 48.328125 
Q 20.21875 56 33.015625 56 
Q 37.15625 56 41.109375 55.140625 
Q 45.0625 54.296875 48.78125 52.59375 
z
" id="DejaVuSans-99"/>
       <path d="M 44.390625 34.1875 
Q 47.5625 33.109375 50.5625 29.59375 
Q 53.5625 26.078125 56.59375 19.921875 
L 66.609375 0 
L 56 0 
L 46.6875 18.703125 
Q 43.0625 26.03125 39.671875 28.421875 
Q 36.28125 30.8125 30.421875 30.8125 
L 19.671875 30.8125 
L 19.671875 0 
L 9.8125 0 
L 9.8125 72.90625 
L 32.078125 72.90625 
Q 44.578125 72.90625 50.734375 67.671875 
Q 56.890625 62.453125 56.890625 51.90625 
Q 56.890625 45.015625 53.6875 40.46875 
Q 50.484375 35.9375 44.390625 34.1875 
z
M 19.671875 64.796875 
L 19.671875 38.921875 
L 32.078125 38.921875 
Q 39.203125 38.921875 42.84375 42.21875 
Q 46.484375 45.515625 46.484375 51.90625 
Q 46.484375 58.296875 42.84375 61.546875 
Q 39.203125 64.796875 32.078125 64.796875 
z
" id="DejaVuSans-82"/>
      </defs>
      <g transform="translate(7.2 230.802506)scale(0.1 -0.1)">
       <use xlink:href="#DejaVuSans-67"/>
       <use x="69.824219" xlink:href="#DejaVuSans-104"/>
       <use x="133.203125" xlink:href="#DejaVuSans-114"/>
       <use x="172.066406" xlink:href="#DejaVuSans-111"/>
       <use x="233.248047" xlink:href="#DejaVuSans-110"/>
       <use x="296.626953" xlink:href="#DejaVuSans-105"/>
       <use x="324.410156" xlink:href="#DejaVuSans-99"/>
       <use x="379.390625" xlink:href="#DejaVuSans-32"/>
       <use x="411.177734" xlink:href="#DejaVuSans-82"/>
       <use x="476.160156" xlink:href="#DejaVuSans-101"/>
       <use x="537.683594" xlink:href="#DejaVuSans-115"/>
       <use x="589.783203" xlink:href="#DejaVuSans-112"/>
       <use x="653.259766" xlink:href="#DejaVuSans-105"/>
       <use x="681.042969" xlink:href="#DejaVuSans-114"/>
       <use x="722.15625" xlink:href="#DejaVuSans-97"/>
       <use x="783.435547" xlink:href="#DejaVuSans-116"/>
       <use x="822.644531" xlink:href="#DejaVuSans-111"/>
       <use x="883.826172" xlink:href="#DejaVuSans-114"/>
       <use x="924.939453" xlink:href="#DejaVuSans-121"/>
       <use x="984.119141" xlink:href="#DejaVuSans-32"/>
       <use x="1015.90625" xlink:href="#DejaVuSans-68"/>
       <use x="1092.908203" xlink:href="#DejaVuSans-105"/>
       <use x="1120.691406" xlink:href="#DejaVuSans-115"/>
       <use x="1172.791016" xlink:href="#DejaVuSans-101"/>
       <use x="1234.314453" xlink:href="#DejaVuSans-97"/>
       <use x="1295.59375" xlink:href="#DejaVuSans-115"/>
       <use x="1347.693359" xlink:href="#DejaVuSans-101"/>
      </g>
     </g>
    </g>
    <g id="xtick_5">
     <g id="line2d_5">
      <path clip-path="url(#p34e1473a75)" d="M 176.943503 155.910125 
L 210.539831 259.308989 
" style="fill:none;stroke:#b0b0b0;stroke-linecap:square;stroke-width:0.8;"/>
     </g>
     <g id="text_5">
      <!-- Cancer -->
      <g transform="translate(197.2606 275.383156)scale(0.1 -0.1)">
       <use xlink:href="#DejaVuSans-67"/>
       <use x="69.824219" xlink:href="#DejaVuSans-97"/>
       <use x="131.103516" xlink:href="#DejaVuSans-110"/>
       <use x="194.482422" xlink:href="#DejaVuSans-99"/>
       <use x="249.462891" xlink:href="#DejaVuSans-101"/>
       <use x="310.986328" xlink:href="#DejaVuSans-114"/>
      </g>
     </g>
    </g>
   </g>
   <g id="matplotlib.axis_2">
    <g id="ytick_1">
     <g id="line2d_6">
      <path clip-path="url(#p34e1473a75)" d="M 198.687503 155.910125 
L 198.568387 153.637258 
L 198.212344 151.389293 
L 197.623276 149.190859 
L 196.807635 147.066043 
L 195.774359 145.038125 
L 194.534769 143.129322 
L 193.102444 141.360549 
L 191.493079 139.751184 
L 189.724306 138.318859 
L 187.815503 137.079269 
L 185.787585 136.045993 
L 183.662769 135.230352 
L 181.464335 134.641284 
L 179.21637 134.285241 
L 176.943503 134.166125 
L 174.670636 134.285241 
L 172.422671 134.641284 
L 170.224238 135.230352 
L 168.099421 136.045993 
L 166.071503 137.079269 
L 164.162701 138.318859 
L 162.393927 139.751184 
L 160.784562 141.360549 
L 159.352238 143.129322 
L 158.112647 145.038125 
L 157.079371 147.066043 
L 156.26373 149.190859 
L 155.674662 151.389293 
L 155.318619 153.637258 
L 155.199503 155.910125 
L 155.318619 158.182992 
L 155.674662 160.430957 
L 156.26373 162.629391 
L 157.079371 164.754207 
L 158.112647 166.782125 
L 159.352238 168.690928 
L 160.784562 170.459701 
L 162.393927 172.069066 
L 164.162701 173.501391 
L 166.071503 174.740981 
L 168.099421 175.774257 
L 170.224238 176.589898 
L 172.422671 177.178966 
L 174.670636 177.535009 
L 176.943503 177.654125 
L 179.21637 177.535009 
L 181.464335 177.178966 
L 183.662769 176.589898 
L 185.787585 175.774257 
L 187.815503 174.740981 
L 189.724306 173.501391 
L 191.493079 172.069066 
L 193.102444 170.459701 
L 194.534769 168.690928 
L 195.774359 166.782125 
L 196.807635 164.754207 
L 197.623276 162.629391 
L 198.212344 160.430957 
L 198.568387 158.182992 
L 198.687503 155.910125 
L 198.687503 155.910125 
" style="fill:none;stroke:#b0b0b0;stroke-linecap:square;stroke-width:0.8;"/>
     </g>
     <g id="text_6">
      <!-- 10% -->
      <defs>
       <path d="M 12.40625 8.296875 
L 28.515625 8.296875 
L 28.515625 63.921875 
L 10.984375 60.40625 
L 10.984375 69.390625 
L 28.421875 72.90625 
L 38.28125 72.90625 
L 38.28125 8.296875 
L 54.390625 8.296875 
L 54.390625 0 
L 12.40625 0 
z
" id="DejaVuSans-49"/>
       <path d="M 31.78125 66.40625 
Q 24.171875 66.40625 20.328125 58.90625 
Q 16.5 51.421875 16.5 36.375 
Q 16.5 21.390625 20.328125 13.890625 
Q 24.171875 6.390625 31.78125 6.390625 
Q 39.453125 6.390625 43.28125 13.890625 
Q 47.125 21.390625 47.125 36.375 
Q 47.125 51.421875 43.28125 58.90625 
Q 39.453125 66.40625 31.78125 66.40625 
z
M 31.78125 74.21875 
Q 44.046875 74.21875 50.515625 64.515625 
Q 56.984375 54.828125 56.984375 36.375 
Q 56.984375 17.96875 50.515625 8.265625 
Q 44.046875 -1.421875 31.78125 -1.421875 
Q 19.53125 -1.421875 13.0625 8.265625 
Q 6.59375 17.96875 6.59375 36.375 
Q 6.59375 54.828125 13.0625 64.515625 
Q 19.53125 74.21875 31.78125 74.21875 
z
" id="DejaVuSans-48"/>
       <path d="M 72.703125 32.078125 
Q 68.453125 32.078125 66.03125 28.46875 
Q 63.625 24.859375 63.625 18.40625 
Q 63.625 12.0625 66.03125 8.421875 
Q 68.453125 4.78125 72.703125 4.78125 
Q 76.859375 4.78125 79.265625 8.421875 
Q 81.6875 12.0625 81.6875 18.40625 
Q 81.6875 24.8125 79.265625 28.4375 
Q 76.859375 32.078125 72.703125 32.078125 
z
M 72.703125 38.28125 
Q 80.421875 38.28125 84.953125 32.90625 
Q 89.5 27.546875 89.5 18.40625 
Q 89.5 9.28125 84.9375 3.921875 
Q 80.375 -1.421875 72.703125 -1.421875 
Q 64.890625 -1.421875 60.34375 3.921875 
Q 55.8125 9.28125 55.8125 18.40625 
Q 55.8125 27.59375 60.375 32.9375 
Q 64.9375 38.28125 72.703125 38.28125 
z
M 22.3125 68.015625 
Q 18.109375 68.015625 15.6875 64.375 
Q 13.28125 60.75 13.28125 54.390625 
Q 13.28125 47.953125 15.671875 44.328125 
Q 18.0625 40.71875 22.3125 40.71875 
Q 26.5625 40.71875 28.96875 44.328125 
Q 31.390625 47.953125 31.390625 54.390625 
Q 31.390625 60.6875 28.953125 64.34375 
Q 26.515625 68.015625 22.3125 68.015625 
z
M 66.40625 74.21875 
L 74.21875 74.21875 
L 28.609375 -1.421875 
L 20.796875 -1.421875 
z
M 22.3125 74.21875 
Q 30.03125 74.21875 34.609375 68.875 
Q 39.203125 63.53125 39.203125 54.390625 
Q 39.203125 45.171875 34.640625 39.84375 
Q 30.078125 34.515625 22.3125 34.515625 
Q 14.546875 34.515625 10.03125 39.859375 
Q 5.515625 45.21875 5.515625 54.390625 
Q 5.515625 63.484375 10.046875 68.84375 
Q 14.59375 74.21875 22.3125 74.21875 
z
" id="DejaVuSans-37"/>
      </defs>
      <g transform="translate(197.03234 145.509369)scale(0.1 -0.1)">
       <use xlink:href="#DejaVuSans-49"/>
       <use x="63.623047" xlink:href="#DejaVuSans-48"/>
       <use x="127.246094" xlink:href="#DejaVuSans-37"/>
      </g>
     </g>
    </g>
    <g id="ytick_2">
     <g id="line2d_7">
      <path clip-path="url(#p34e1473a75)" d="M 220.431503 155.910125 
L 220.325568 152.876555 
L 220.008281 149.857765 
L 219.481186 146.868461 
L 218.746852 143.923208 
L 217.808856 141.036353 
L 216.671768 138.221962 
L 215.341128 135.493746 
L 213.823419 132.864996 
L 212.126034 130.34852 
L 210.257244 127.956577 
L 208.226152 125.700822 
L 206.042655 123.592243 
L 203.717389 121.641113 
L 201.261684 119.856939 
L 198.687503 118.248412 
L 196.007387 116.82337 
L 193.234395 115.588754 
L 190.382034 114.550579 
L 187.464202 113.713904 
L 184.495115 113.082805 
L 181.489237 112.660357 
L 178.461212 112.448617 
L 175.425794 112.448617 
L 172.397769 112.660357 
L 169.391891 113.082805 
L 166.422804 113.713904 
L 163.504972 114.550579 
L 160.652612 115.588754 
L 157.879619 116.82337 
L 155.199503 118.248412 
L 152.625322 119.856939 
L 150.169617 121.641113 
L 147.844351 123.592243 
L 145.660854 125.700822 
L 143.629762 127.956577 
L 141.760972 130.34852 
L 140.063587 132.864996 
L 138.545878 135.493746 
L 137.215238 138.221962 
L 136.07815 141.036353 
L 135.140154 143.923208 
L 134.40582 146.868461 
L 133.878725 149.857765 
L 133.561438 152.876555 
L 133.455503 155.910125 
L 133.561438 158.943695 
L 133.878725 161.962485 
L 134.40582 164.951789 
L 135.140154 167.897042 
L 136.07815 170.783897 
L 137.215238 173.598288 
L 138.545878 176.326504 
L 140.063587 178.955254 
L 141.760972 181.47173 
L 143.629762 183.863673 
L 145.660854 186.119428 
L 147.844351 188.228007 
L 150.169617 190.179137 
L 152.625322 191.963311 
L 155.199503 193.571838 
L 157.879619 194.99688 
L 160.652612 196.231496 
L 163.504972 197.269671 
L 166.422804 198.106346 
L 169.391891 198.737445 
L 172.397769 199.159893 
L 175.425794 199.371633 
L 178.461212 199.371633 
L 181.489237 199.159893 
L 184.495115 198.737445 
L 187.464202 198.106346 
L 190.382034 197.269671 
L 193.234395 196.231496 
L 196.007387 194.99688 
L 198.687503 193.571838 
L 201.261684 191.963311 
L 203.717389 190.179137 
L 206.042655 188.228007 
L 208.226152 186.119428 
L 210.257244 183.863673 
L 212.126034 181.47173 
L 213.823419 178.955254 
L 215.341128 176.326504 
L 216.671768 173.598288 
L 217.808856 170.783897 
L 218.746852 167.897042 
L 219.481186 164.951789 
L 220.008281 161.962485 
L 220.325568 158.943695 
L 220.431503 155.910125 
L 220.431503 155.910125 
" style="fill:none;stroke:#b0b0b0;stroke-linecap:square;stroke-width:0.8;"/>
     </g>
     <g id="text_7">
      <!-- 20% -->
      <defs>
       <path d="M 19.1875 8.296875 
L 53.609375 8.296875 
L 53.609375 0 
L 7.328125 0 
L 7.328125 8.296875 
Q 12.9375 14.109375 22.625 23.890625 
Q 32.328125 33.6875 34.8125 36.53125 
Q 39.546875 41.84375 41.421875 45.53125 
Q 43.3125 49.21875 43.3125 52.78125 
Q 43.3125 58.59375 39.234375 62.25 
Q 35.15625 65.921875 28.609375 65.921875 
Q 23.96875 65.921875 18.8125 64.3125 
Q 13.671875 62.703125 7.8125 59.421875 
L 7.8125 69.390625 
Q 13.765625 71.78125 18.9375 73 
Q 24.125 74.21875 28.421875 74.21875 
Q 39.75 74.21875 46.484375 68.546875 
Q 53.21875 62.890625 53.21875 53.421875 
Q 53.21875 48.921875 51.53125 44.890625 
Q 49.859375 40.875 45.40625 35.40625 
Q 44.1875 33.984375 37.640625 27.21875 
Q 31.109375 20.453125 19.1875 8.296875 
z
" id="DejaVuSans-50"/>
      </defs>
      <g transform="translate(217.121176 137.1883)scale(0.1 -0.1)">
       <use xlink:href="#DejaVuSans-50"/>
       <use x="63.623047" xlink:href="#DejaVuSans-48"/>
       <use x="127.246094" xlink:href="#DejaVuSans-37"/>
      </g>
     </g>
    </g>
    <g id="ytick_3">
     <g id="line2d_8">
      <path clip-path="url(#p34e1473a75)" d="M 242.175503 155.910125 
L 242.016601 151.359771 
L 241.54067 146.831585 
L 240.750027 142.34763 
L 239.648526 137.929749 
L 238.241532 133.599467 
L 236.5359 129.37788 
L 234.53994 125.285556 
L 232.263376 121.342432 
L 229.7173 117.567717 
L 226.914114 113.979804 
L 223.867477 110.59617 
L 220.592231 107.433302 
L 217.104332 104.506608 
L 213.420775 101.830346 
L 209.559503 99.417556 
L 205.53933 97.279992 
L 201.37984 95.428068 
L 197.1013 93.870806 
L 192.724552 92.615794 
L 188.270921 91.669146 
L 183.762104 91.035473 
L 179.220067 90.717863 
L 174.666939 90.717863 
L 170.124902 91.035473 
L 165.616085 91.669146 
L 161.162454 92.615794 
L 156.785706 93.870806 
L 152.507166 95.428068 
L 148.347676 97.279992 
L 144.327503 99.417556 
L 140.466232 101.830346 
L 136.782674 104.506608 
L 133.294775 107.433302 
L 130.019529 110.59617 
L 126.972892 113.979804 
L 124.169706 117.567717 
L 121.62363 121.342432 
L 119.347066 125.285556 
L 117.351106 129.37788 
L 115.645474 133.599467 
L 114.23848 137.929749 
L 113.136979 142.34763 
L 112.346336 146.831585 
L 111.870405 151.359771 
L 111.711503 155.910125 
L 111.870405 160.460479 
L 112.346336 164.988665 
L 113.136979 169.47262 
L 114.23848 173.890501 
L 115.645474 178.220783 
L 117.351106 182.44237 
L 119.347066 186.534694 
L 121.62363 190.477818 
L 124.169706 194.252533 
L 126.972892 197.840446 
L 130.019529 201.22408 
L 133.294775 204.386948 
L 136.782674 207.313642 
L 140.466232 209.989904 
L 144.327503 212.402694 
L 148.347676 214.540258 
L 152.507166 216.392182 
L 156.785706 217.949444 
L 161.162454 219.204456 
L 165.616085 220.151104 
L 170.124902 220.784777 
L 174.666939 221.102387 
L 179.220067 221.102387 
L 183.762104 220.784777 
L 188.270921 220.151104 
L 192.724552 219.204456 
L 197.1013 217.949444 
L 201.37984 216.392182 
L 205.53933 214.540258 
L 209.559503 212.402694 
L 213.420775 209.989904 
L 217.104332 207.313642 
L 220.592231 204.386948 
L 223.867477 201.22408 
L 226.914114 197.840446 
L 229.7173 194.252533 
L 232.263376 190.477818 
L 234.53994 186.534694 
L 236.5359 182.44237 
L 238.241532 178.220783 
L 239.648526 173.890501 
L 240.750027 169.47262 
L 241.54067 164.988665 
L 242.016601 160.460479 
L 242.175503 155.910125 
L 242.175503 155.910125 
" style="fill:none;stroke:#b0b0b0;stroke-linecap:square;stroke-width:0.8;"/>
     </g>
     <g id="text_8">
      <!-- 30% -->
      <defs>
       <path d="M 40.578125 39.3125 
Q 47.65625 37.796875 51.625 33 
Q 55.609375 28.21875 55.609375 21.1875 
Q 55.609375 10.40625 48.1875 4.484375 
Q 40.765625 -1.421875 27.09375 -1.421875 
Q 22.515625 -1.421875 17.65625 -0.515625 
Q 12.796875 0.390625 7.625 2.203125 
L 7.625 11.71875 
Q 11.71875 9.328125 16.59375 8.109375 
Q 21.484375 6.890625 26.8125 6.890625 
Q 36.078125 6.890625 40.9375 10.546875 
Q 45.796875 14.203125 45.796875 21.1875 
Q 45.796875 27.640625 41.28125 31.265625 
Q 36.765625 34.90625 28.71875 34.90625 
L 20.21875 34.90625 
L 20.21875 43.015625 
L 29.109375 43.015625 
Q 36.375 43.015625 40.234375 45.921875 
Q 44.09375 48.828125 44.09375 54.296875 
Q 44.09375 59.90625 40.109375 62.90625 
Q 36.140625 65.921875 28.71875 65.921875 
Q 24.65625 65.921875 20.015625 65.03125 
Q 15.375 64.15625 9.8125 62.3125 
L 9.8125 71.09375 
Q 15.4375 72.65625 20.34375 73.4375 
Q 25.25 74.21875 29.59375 74.21875 
Q 40.828125 74.21875 47.359375 69.109375 
Q 53.90625 64.015625 53.90625 55.328125 
Q 53.90625 49.265625 50.4375 45.09375 
Q 46.96875 40.921875 40.578125 39.3125 
z
" id="DejaVuSans-51"/>
      </defs>
      <g transform="translate(237.210013 128.867232)scale(0.1 -0.1)">
       <use xlink:href="#DejaVuSans-51"/>
       <use x="63.623047" xlink:href="#DejaVuSans-48"/>
       <use x="127.246094" xlink:href="#DejaVuSans-37"/>
      </g>
     </g>
    </g>
    <g id="ytick_4">
     <g id="line2d_9">
      <path clip-path="url(#p34e1473a75)" d="M 263.919503 155.910125 
L 263.707634 149.842986 
L 263.073059 143.805405 
L 262.018869 137.826798 
L 260.5502 131.93629 
L 258.674208 126.162581 
L 256.400033 120.533799 
L 253.738753 115.077366 
L 250.703334 109.819867 
L 247.308565 104.786915 
L 243.570985 100.00303 
L 239.508802 95.491519 
L 235.141807 91.274361 
L 230.491276 87.372102 
L 225.579865 83.803753 
L 220.431503 80.586699 
L 215.071272 77.736614 
L 209.525286 75.267382 
L 203.820565 73.191033 
L 197.984902 71.517684 
L 192.046727 70.255486 
L 186.034971 69.410589 
L 179.978922 68.987108 
L 173.908084 68.987108 
L 167.852035 69.410589 
L 161.840279 70.255486 
L 155.902104 71.517684 
L 150.066441 73.191033 
L 144.36172 75.267382 
L 138.815734 77.736614 
L 133.455503 80.586699 
L 128.307141 83.803753 
L 123.395731 87.372102 
L 118.745199 91.274361 
L 114.378205 95.491519 
L 110.316022 100.00303 
L 106.578441 104.786915 
L 103.183672 109.819867 
L 100.148253 115.077366 
L 97.486973 120.533799 
L 95.212798 126.162581 
L 93.336806 131.93629 
L 91.868137 137.826798 
L 90.813948 143.805405 
L 90.179372 149.842986 
L 89.967503 155.910125 
L 90.179372 161.977264 
L 90.813948 168.014845 
L 91.868137 173.993452 
L 93.336806 179.88396 
L 95.212798 185.657669 
L 97.486973 191.286451 
L 100.148253 196.742884 
L 103.183672 202.000383 
L 106.578441 207.033335 
L 110.316022 211.81722 
L 114.378205 216.328731 
L 118.745199 220.545889 
L 123.395731 224.448148 
L 128.307141 228.016497 
L 133.455503 231.233551 
L 138.815734 234.083636 
L 144.36172 236.552868 
L 150.066441 238.629217 
L 155.902104 240.302566 
L 161.840279 241.564764 
L 167.852035 242.409661 
L 173.908084 242.833142 
L 179.978922 242.833142 
L 186.034971 242.409661 
L 192.046727 241.564764 
L 197.984902 240.302566 
L 203.820565 238.629217 
L 209.525286 236.552868 
L 215.071272 234.083636 
L 220.431503 231.233551 
L 225.579865 228.016497 
L 230.491276 224.448148 
L 235.141807 220.545889 
L 239.508802 216.328731 
L 243.570985 211.81722 
L 247.308565 207.033335 
L 250.703334 202.000383 
L 253.738753 196.742884 
L 256.400033 191.286451 
L 258.674208 185.657669 
L 260.5502 179.88396 
L 262.018869 173.993452 
L 263.073059 168.014845 
L 263.707634 161.977264 
L 263.919503 155.910125 
L 263.919503 155.910125 
" style="fill:none;stroke:#b0b0b0;stroke-linecap:square;stroke-width:0.8;"/>
     </g>
     <g id="text_9">
      <!-- 40% -->
      <defs>
       <path d="M 37.796875 64.3125 
L 12.890625 25.390625 
L 37.796875 25.390625 
z
M 35.203125 72.90625 
L 47.609375 72.90625 
L 47.609375 25.390625 
L 58.015625 25.390625 
L 58.015625 17.1875 
L 47.609375 17.1875 
L 47.609375 0 
L 37.796875 0 
L 37.796875 17.1875 
L 4.890625 17.1875 
L 4.890625 26.703125 
z
" id="DejaVuSans-52"/>
      </defs>
      <g transform="translate(257.298849 120.546163)scale(0.1 -0.1)">
       <use xlink:href="#DejaVuSans-52"/>
       <use x="63.623047" xlink:href="#DejaVuSans-48"/>
       <use x="127.246094" xlink:href="#DejaVuSans-37"/>
      </g>
     </g>
    </g>
    <g id="ytick_5">
     <g id="line2d_10">
      <path clip-path="url(#p34e1473a75)" d="M 285.663503 155.910125 
L 285.597274 152.115852 
L 285.398667 148.326201 
L 285.067924 144.54579 
L 284.605447 140.779225 
L 284.011802 137.031095 
L 283.28771 133.305966 
L 282.434054 129.608377 
L 281.451875 125.942832 
L 280.342368 122.313797 
L 279.106885 118.725695 
L 277.746932 115.182896 
L 276.264165 111.689717 
L 274.660392 108.250414 
L 272.937565 104.869177 
L 271.097785 101.550125 
L 269.143292 98.297303 
L 267.076468 95.114673 
L 264.899831 92.006112 
L 262.616032 88.975409 
L 260.227855 86.026256 
L 257.738208 83.162245 
L 255.150126 80.386867 
L 252.466761 77.703502 
L 249.691383 75.11542 
L 246.827372 72.625773 
L 243.878219 70.237596 
L 240.847516 67.953797 
L 237.738956 65.77716 
L 234.556325 63.710336 
L 231.303503 61.755843 
L 227.984451 59.916063 
L 224.603214 58.193236 
L 221.163911 56.589463 
L 217.670732 55.106696 
L 214.127933 53.746743 
L 210.539831 52.511261 
L 206.910796 51.401753 
L 203.245252 50.419574 
L 199.547662 49.565918 
L 195.822533 48.841826 
L 192.074403 48.248181 
L 188.307838 47.785705 
L 184.527427 47.454961 
L 180.737776 47.256354 
L 176.943503 47.190125 
L 173.14923 47.256354 
L 169.359579 47.454961 
L 165.579169 47.785705 
L 161.812604 48.248181 
L 158.064473 48.841826 
L 154.339344 49.565918 
L 150.641755 50.419574 
L 146.97621 51.401753 
L 143.347175 52.511261 
L 139.759073 53.746743 
L 136.216274 55.106696 
L 132.723095 56.589463 
L 129.283792 58.193236 
L 125.902555 59.916063 
L 122.583503 61.755843 
L 119.330681 63.710336 
L 116.148051 65.77716 
L 113.03949 67.953797 
L 110.008787 70.237596 
L 107.059634 72.625773 
L 104.195624 75.11542 
L 101.420245 77.703502 
L 98.73688 80.386867 
L 96.148798 83.162245 
L 93.659151 86.026256 
L 91.270974 88.975409 
L 88.987175 92.006112 
L 86.810538 95.114673 
L 84.743714 98.297303 
L 82.789221 101.550125 
L 80.949441 104.869177 
L 79.226614 108.250414 
L 77.622841 111.689717 
L 76.140074 115.182896 
L 74.780121 118.725695 
L 73.544639 122.313797 
L 72.435131 125.942832 
L 71.452952 129.608377 
L 70.599296 133.305966 
L 69.875204 137.031095 
L 69.281559 140.779225 
L 68.819083 144.54579 
L 68.48834 148.326201 
L 68.289732 152.115852 
L 68.223503 155.910125 
L 68.289732 159.704398 
L 68.48834 163.494049 
L 68.819083 167.27446 
L 69.281559 171.041025 
L 69.875204 174.789155 
L 70.599296 178.514284 
L 71.452952 182.211873 
L 72.435131 185.877418 
L 73.544639 189.506453 
L 74.780121 193.094555 
L 76.140074 196.637354 
L 77.622841 200.130533 
L 79.226614 203.569836 
L 80.949441 206.951073 
L 82.789221 210.270125 
L 84.743714 213.522947 
L 86.810538 216.705577 
L 88.987175 219.814138 
L 91.270974 222.844841 
L 93.659151 225.793994 
L 96.148798 228.658005 
L 98.73688 231.433383 
L 101.420245 234.116748 
L 104.195624 236.70483 
L 107.059634 239.194477 
L 110.008787 241.582654 
L 113.03949 243.866453 
L 116.148051 246.04309 
L 119.330681 248.109914 
L 122.583503 250.064407 
L 125.902555 251.904187 
L 129.283792 253.627014 
L 132.723095 255.230787 
L 136.216274 256.713554 
L 139.759073 258.073507 
L 143.347175 259.308989 
L 146.97621 260.418497 
L 150.641755 261.400676 
L 154.339344 262.254332 
L 158.064473 262.978424 
L 161.812604 263.572069 
L 165.579169 264.034545 
L 169.359579 264.365289 
L 173.14923 264.563896 
L 176.943503 264.630125 
L 180.737776 264.563896 
L 184.527427 264.365289 
L 188.307838 264.034545 
L 192.074403 263.572069 
L 195.822533 262.978424 
L 199.547662 262.254332 
L 203.245252 261.400676 
L 206.910796 260.418497 
L 210.539831 259.308989 
L 214.127933 258.073507 
L 217.670732 256.713554 
L 221.163911 255.230787 
L 224.603214 253.627014 
L 227.984451 251.904187 
L 231.303503 250.064407 
L 234.556325 248.109914 
L 237.738956 246.04309 
L 240.847516 243.866453 
L 243.878219 241.582654 
L 246.827372 239.194477 
L 249.691383 236.70483 
L 252.466761 234.116748 
L 255.150126 231.433383 
L 257.738208 228.658005 
L 260.227855 225.793994 
L 262.616032 222.844841 
L 264.899831 219.814138 
L 267.076468 216.705577 
L 269.143292 213.522947 
L 271.097785 210.270125 
L 272.937565 206.951073 
L 274.660392 203.569836 
L 276.264165 200.130533 
L 277.746932 196.637354 
L 279.106885 193.094555 
L 280.342368 189.506453 
L 281.451875 185.877418 
L 282.434054 182.211873 
L 283.28771 178.514284 
L 284.011802 174.789155 
L 284.605447 171.041025 
L 285.067924 167.27446 
L 285.398667 163.494049 
L 285.597274 159.704398 
L 285.663503 155.910125 
L 285.663503 155.910125 
" style="fill:none;stroke:#b0b0b0;stroke-linecap:square;stroke-width:0.8;"/>
     </g>
     <g id="text_10">
      <!-- 50% -->
      <defs>
       <path d="M 10.796875 72.90625 
L 49.515625 72.90625 
L 49.515625 64.59375 
L 19.828125 64.59375 
L 19.828125 46.734375 
Q 21.96875 47.46875 24.109375 47.828125 
Q 26.265625 48.1875 28.421875 48.1875 
Q 40.625 48.1875 47.75 41.5 
Q 54.890625 34.8125 54.890625 23.390625 
Q 54.890625 11.625 47.5625 5.09375 
Q 40.234375 -1.421875 26.90625 -1.421875 
Q 22.3125 -1.421875 17.546875 -0.640625 
Q 12.796875 0.140625 7.71875 1.703125 
L 7.71875 11.625 
Q 12.109375 9.234375 16.796875 8.0625 
Q 21.484375 6.890625 26.703125 6.890625 
Q 35.15625 6.890625 40.078125 11.328125 
Q 45.015625 15.765625 45.015625 23.390625 
Q 45.015625 31 40.078125 35.4375 
Q 35.15625 39.890625 26.703125 39.890625 
Q 22.75 39.890625 18.8125 39.015625 
Q 14.890625 38.140625 10.796875 36.28125 
z
" id="DejaVuSans-53"/>
      </defs>
      <g transform="translate(277.387686 112.225095)scale(0.1 -0.1)">
       <use xlink:href="#DejaVuSans-53"/>
       <use x="63.623047" xlink:href="#DejaVuSans-48"/>
       <use x="127.246094" xlink:href="#DejaVuSans-37"/>
      </g>
     </g>
    </g>
   </g>
   <g id="line2d_11">
    <path clip-path="url(#p34e1473a75)" d="M 249.423503 155.910125 
L 199.341055 86.977549 
L 118.305951 113.30745 
L 176.943503 155.910125 
L 199.341055 224.842701 
L 249.423503 155.910125 
" style="fill:none;stroke:#1f77b4;stroke-linecap:square;stroke-width:1.5;"/>
   </g>
   <g id="patch_4">
    <path d="M 285.663503 155.910125 
C 285.663503 141.633145 282.851249 127.494991 277.387686 114.304782 
C 271.924122 101.114573 263.915501 89.128825 253.820152 79.033476 
C 243.724803 68.938127 231.739055 60.929506 218.548846 55.465942 
C 205.358637 50.002379 191.220483 47.190125 176.943503 47.190125 
C 162.666523 47.190125 148.52837 50.002379 135.33816 55.465942 
C 122.147951 60.929506 110.162203 68.938127 100.066854 79.033476 
C 89.971505 89.128825 81.962884 101.114573 76.49932 114.304782 
C 71.035757 127.494991 68.223503 141.633145 68.223503 155.910125 
C 68.223503 170.187105 71.035757 184.325259 76.49932 197.515468 
C 81.962884 210.705677 89.971505 222.691425 100.066854 232.786774 
C 110.162203 242.882123 122.147951 250.890744 135.33816 256.354308 
C 148.52837 261.817871 162.666523 264.630125 176.943503 264.630125 
C 191.220483 264.630125 205.358637 261.817871 218.548846 256.354308 
C 231.739055 250.890744 243.724803 242.882123 253.820152 232.786774 
C 263.915501 222.691425 271.924122 210.705677 277.387686 197.515468 
C 282.851249 184.325259 285.663503 170.187105 285.663503 155.910125 
" style="fill:none;stroke:#000000;stroke-linecap:square;stroke-linejoin:miter;stroke-width:0.8;"/>
   </g>
   <g id="text_11">
    <!-- * out of 3 patients expired as of 12/04/2020 -->
    <defs>
     <path d="M 47.015625 60.890625 
L 29.5 51.421875 
L 47.015625 41.890625 
L 44.1875 37.109375 
L 27.78125 47.015625 
L 27.78125 28.609375 
L 22.21875 28.609375 
L 22.21875 47.015625 
L 5.8125 37.109375 
L 2.984375 41.890625 
L 20.515625 51.421875 
L 2.984375 60.890625 
L 5.8125 65.71875 
L 22.21875 55.8125 
L 22.21875 74.21875 
L 27.78125 74.21875 
L 27.78125 55.8125 
L 44.1875 65.71875 
z
" id="DejaVuSans-42"/>
     <path d="M 37.109375 75.984375 
L 37.109375 68.5 
L 28.515625 68.5 
Q 23.6875 68.5 21.796875 66.546875 
Q 19.921875 64.59375 19.921875 59.515625 
L 19.921875 54.6875 
L 34.71875 54.6875 
L 34.71875 47.703125 
L 19.921875 47.703125 
L 19.921875 0 
L 10.890625 0 
L 10.890625 47.703125 
L 2.296875 47.703125 
L 2.296875 54.6875 
L 10.890625 54.6875 
L 10.890625 58.5 
Q 10.890625 67.625 15.140625 71.796875 
Q 19.390625 75.984375 28.609375 75.984375 
z
" id="DejaVuSans-102"/>
     <path d="M 54.890625 54.6875 
L 35.109375 28.078125 
L 55.90625 0 
L 45.3125 0 
L 29.390625 21.484375 
L 13.484375 0 
L 2.875 0 
L 24.125 28.609375 
L 4.6875 54.6875 
L 15.28125 54.6875 
L 29.78125 35.203125 
L 44.28125 54.6875 
z
" id="DejaVuSans-120"/>
     <path d="M 45.40625 46.390625 
L 45.40625 75.984375 
L 54.390625 75.984375 
L 54.390625 0 
L 45.40625 0 
L 45.40625 8.203125 
Q 42.578125 3.328125 38.25 0.953125 
Q 33.9375 -1.421875 27.875 -1.421875 
Q 17.96875 -1.421875 11.734375 6.484375 
Q 5.515625 14.40625 5.515625 27.296875 
Q 5.515625 40.1875 11.734375 48.09375 
Q 17.96875 56 27.875 56 
Q 33.9375 56 38.25 53.625 
Q 42.578125 51.265625 45.40625 46.390625 
z
M 14.796875 27.296875 
Q 14.796875 17.390625 18.875 11.75 
Q 22.953125 6.109375 30.078125 6.109375 
Q 37.203125 6.109375 41.296875 11.75 
Q 45.40625 17.390625 45.40625 27.296875 
Q 45.40625 37.203125 41.296875 42.84375 
Q 37.203125 48.484375 30.078125 48.484375 
Q 22.953125 48.484375 18.875 42.84375 
Q 14.796875 37.203125 14.796875 27.296875 
z
" id="DejaVuSans-100"/>
     <path d="M 25.390625 72.90625 
L 33.6875 72.90625 
L 8.296875 -9.28125 
L 0 -9.28125 
z
" id="DejaVuSans-47"/>
    </defs>
    <g transform="translate(285.663503 295.166437)scale(0.1 -0.1)">
     <use xlink:href="#DejaVuSans-42"/>
     <use x="50" xlink:href="#DejaVuSans-32"/>
     <use x="81.787109" xlink:href="#DejaVuSans-111"/>
     <use x="142.96875" xlink:href="#DejaVuSans-117"/>
     <use x="206.347656" xlink:href="#DejaVuSans-116"/>
     <use x="245.556641" xlink:href="#DejaVuSans-32"/>
     <use x="277.34375" xlink:href="#DejaVuSans-111"/>
     <use x="338.525391" xlink:href="#DejaVuSans-102"/>
     <use x="373.730469" xlink:href="#DejaVuSans-32"/>
     <use x="405.517578" xlink:href="#DejaVuSans-51"/>
     <use x="469.140625" xlink:href="#DejaVuSans-32"/>
     <use x="500.927734" xlink:href="#DejaVuSans-112"/>
     <use x="564.404297" xlink:href="#DejaVuSans-97"/>
     <use x="625.683594" xlink:href="#DejaVuSans-116"/>
     <use x="664.892578" xlink:href="#DejaVuSans-105"/>
     <use x="692.675781" xlink:href="#DejaVuSans-101"/>
     <use x="754.199219" xlink:href="#DejaVuSans-110"/>
     <use x="817.578125" xlink:href="#DejaVuSans-116"/>
     <use x="856.787109" xlink:href="#DejaVuSans-115"/>
     <use x="908.886719" xlink:href="#DejaVuSans-32"/>
     <use x="940.673828" xlink:href="#DejaVuSans-101"/>
     <use x="1000.447266" xlink:href="#DejaVuSans-120"/>
     <use x="1059.626953" xlink:href="#DejaVuSans-112"/>
     <use x="1123.103516" xlink:href="#DejaVuSans-105"/>
     <use x="1150.886719" xlink:href="#DejaVuSans-114"/>
     <use x="1189.75" xlink:href="#DejaVuSans-101"/>
     <use x="1251.273438" xlink:href="#DejaVuSans-100"/>
     <use x="1314.75" xlink:href="#DejaVuSans-32"/>
     <use x="1346.537109" xlink:href="#DejaVuSans-97"/>
     <use x="1407.816406" xlink:href="#DejaVuSans-115"/>
     <use x="1459.916016" xlink:href="#DejaVuSans-32"/>
     <use x="1491.703125" xlink:href="#DejaVuSans-111"/>
     <use x="1552.884766" xlink:href="#DejaVuSans-102"/>
     <use x="1588.089844" xlink:href="#DejaVuSans-32"/>
     <use x="1619.876953" xlink:href="#DejaVuSans-49"/>
     <use x="1683.5" xlink:href="#DejaVuSans-50"/>
     <use x="1747.123047" xlink:href="#DejaVuSans-47"/>
     <use x="1780.814453" xlink:href="#DejaVuSans-48"/>
     <use x="1844.4375" xlink:href="#DejaVuSans-52"/>
     <use x="1908.060547" xlink:href="#DejaVuSans-47"/>
     <use x="1941.751953" xlink:href="#DejaVuSans-50"/>
     <use x="2005.375" xlink:href="#DejaVuSans-48"/>
     <use x="2068.998047" xlink:href="#DejaVuSans-50"/>
     <use x="2132.621094" xlink:href="#DejaVuSans-48"/>
    </g>
   </g>
   <g id="text_12">
    <!-- Underlying conditions of the expired patients -->
    <defs>
     <path d="M 8.6875 72.90625 
L 18.609375 72.90625 
L 18.609375 28.609375 
Q 18.609375 16.890625 22.84375 11.734375 
Q 27.09375 6.59375 36.625 6.59375 
Q 46.09375 6.59375 50.34375 11.734375 
Q 54.59375 16.890625 54.59375 28.609375 
L 54.59375 72.90625 
L 64.5 72.90625 
L 64.5 27.390625 
Q 64.5 13.140625 57.4375 5.859375 
Q 50.390625 -1.421875 36.625 -1.421875 
Q 22.796875 -1.421875 15.734375 5.859375 
Q 8.6875 13.140625 8.6875 27.390625 
z
" id="DejaVuSans-85"/>
     <path d="M 45.40625 27.984375 
Q 45.40625 37.75 41.375 43.109375 
Q 37.359375 48.484375 30.078125 48.484375 
Q 22.859375 48.484375 18.828125 43.109375 
Q 14.796875 37.75 14.796875 27.984375 
Q 14.796875 18.265625 18.828125 12.890625 
Q 22.859375 7.515625 30.078125 7.515625 
Q 37.359375 7.515625 41.375 12.890625 
Q 45.40625 18.265625 45.40625 27.984375 
z
M 54.390625 6.78125 
Q 54.390625 -7.171875 48.1875 -13.984375 
Q 42 -20.796875 29.203125 -20.796875 
Q 24.46875 -20.796875 20.265625 -20.09375 
Q 16.0625 -19.390625 12.109375 -17.921875 
L 12.109375 -9.1875 
Q 16.0625 -11.328125 19.921875 -12.34375 
Q 23.78125 -13.375 27.78125 -13.375 
Q 36.625 -13.375 41.015625 -8.765625 
Q 45.40625 -4.15625 45.40625 5.171875 
L 45.40625 9.625 
Q 42.625 4.78125 38.28125 2.390625 
Q 33.9375 0 27.875 0 
Q 17.828125 0 11.671875 7.65625 
Q 5.515625 15.328125 5.515625 27.984375 
Q 5.515625 40.671875 11.671875 48.328125 
Q 17.828125 56 27.875 56 
Q 33.9375 56 38.28125 53.609375 
Q 42.625 51.21875 45.40625 46.390625 
L 45.40625 54.6875 
L 54.390625 54.6875 
z
" id="DejaVuSans-103"/>
    </defs>
    <g transform="translate(41.330378 16.318125)scale(0.12 -0.12)">
     <use xlink:href="#DejaVuSans-85"/>
     <use x="73.193359" xlink:href="#DejaVuSans-110"/>
     <use x="136.572266" xlink:href="#DejaVuSans-100"/>
     <use x="200.048828" xlink:href="#DejaVuSans-101"/>
     <use x="261.572266" xlink:href="#DejaVuSans-114"/>
     <use x="302.685547" xlink:href="#DejaVuSans-108"/>
     <use x="330.46875" xlink:href="#DejaVuSans-121"/>
     <use x="389.648438" xlink:href="#DejaVuSans-105"/>
     <use x="417.431641" xlink:href="#DejaVuSans-110"/>
     <use x="480.810547" xlink:href="#DejaVuSans-103"/>
     <use x="544.287109" xlink:href="#DejaVuSans-32"/>
     <use x="576.074219" xlink:href="#DejaVuSans-99"/>
     <use x="631.054688" xlink:href="#DejaVuSans-111"/>
     <use x="692.236328" xlink:href="#DejaVuSans-110"/>
     <use x="755.615234" xlink:href="#DejaVuSans-100"/>
     <use x="819.091797" xlink:href="#DejaVuSans-105"/>
     <use x="846.875" xlink:href="#DejaVuSans-116"/>
     <use x="886.083984" xlink:href="#DejaVuSans-105"/>
     <use x="913.867188" xlink:href="#DejaVuSans-111"/>
     <use x="975.048828" xlink:href="#DejaVuSans-110"/>
     <use x="1038.427734" xlink:href="#DejaVuSans-115"/>
     <use x="1090.527344" xlink:href="#DejaVuSans-32"/>
     <use x="1122.314453" xlink:href="#DejaVuSans-111"/>
     <use x="1183.496094" xlink:href="#DejaVuSans-102"/>
     <use x="1218.701172" xlink:href="#DejaVuSans-32"/>
     <use x="1250.488281" xlink:href="#DejaVuSans-116"/>
     <use x="1289.697266" xlink:href="#DejaVuSans-104"/>
     <use x="1353.076172" xlink:href="#DejaVuSans-101"/>
     <use x="1414.599609" xlink:href="#DejaVuSans-32"/>
     <use x="1446.386719" xlink:href="#DejaVuSans-101"/>
     <use x="1506.160156" xlink:href="#DejaVuSans-120"/>
     <use x="1565.339844" xlink:href="#DejaVuSans-112"/>
     <use x="1628.816406" xlink:href="#DejaVuSans-105"/>
     <use x="1656.599609" xlink:href="#DejaVuSans-114"/>
     <use x="1695.462891" xlink:href="#DejaVuSans-101"/>
     <use x="1756.986328" xlink:href="#DejaVuSans-100"/>
     <use x="1820.462891" xlink:href="#DejaVuSans-32"/>
     <use x="1852.25" xlink:href="#DejaVuSans-112"/>
     <use x="1915.726562" xlink:href="#DejaVuSans-97"/>
     <use x="1977.005859" xlink:href="#DejaVuSans-116"/>
     <use x="2016.214844" xlink:href="#DejaVuSans-105"/>
     <use x="2043.998047" xlink:href="#DejaVuSans-101"/>
     <use x="2105.521484" xlink:href="#DejaVuSans-110"/>
     <use x="2168.900391" xlink:href="#DejaVuSans-116"/>
     <use x="2208.109375" xlink:href="#DejaVuSans-115"/>
    </g>
   </g>
  </g>
 </g>
 <defs>
  <clipPath id="p34e1473a75">
   <path d="M 285.663503 155.910125 
C 285.663503 141.633145 282.851249 127.494991 277.387686 114.304782 
C 271.924122 101.114573 263.915501 89.128825 253.820152 79.033476 
C 243.724803 68.938127 231.739055 60.929506 218.548846 55.465942 
C 205.358637 50.002379 191.220483 47.190125 176.943503 47.190125 
C 162.666523 47.190125 148.52837 50.002379 135.33816 55.465942 
C 122.147951 60.929506 110.162203 68.938127 100.066854 79.033476 
C 89.971505 89.128825 81.962884 101.114573 76.49932 114.304782 
C 71.035757 127.494991 68.223503 141.633145 68.223503 155.910125 
C 68.223503 170.187105 71.035757 184.325259 76.49932 197.515468 
C 81.962884 210.705677 89.971505 222.691425 100.066854 232.786774 
C 110.162203 242.882123 122.147951 250.890744 135.33816 256.354308 
C 148.52837 261.817871 162.666523 264.630125 176.943503 264.630125 
C 191.220483 264.630125 205.358637 261.817871 218.548846 256.354308 
C 231.739055 250.890744 243.724803 242.882123 253.820152 232.786774 
C 263.915501 222.691425 271.924122 210.705677 277.387686 197.515468 
C 282.851249 184.325259 285.663503 170.187105 285.663503 155.910125 
M 176.943503 155.910125 
C 176.943503 155.910125 176.943503 155.910125 176.943503 155.910125 
C 176.943503 155.910125 176.943503 155.910125 176.943503 155.910125 
C 176.943503 155.910125 176.943503 155.910125 176.943503 155.910125 
C 176.943503 155.910125 176.943503 155.910125 176.943503 155.910125 
C 176.943503 155.910125 176.943503 155.910125 176.943503 155.910125 
C 176.943503 155.910125 176.943503 155.910125 176.943503 155.910125 
C 176.943503 155.910125 176.943503 155.910125 176.943503 155.910125 
C 176.943503 155.910125 176.943503 155.910125 176.943503 155.910125 
C 176.943503 155.910125 176.943503 155.910125 176.943503 155.910125 
C 176.943503 155.910125 176.943503 155.910125 176.943503 155.910125 
C 176.943503 155.910125 176.943503 155.910125 176.943503 155.910125 
C 176.943503 155.910125 176.943503 155.910125 176.943503 155.910125 
C 176.943503 155.910125 176.943503 155.910125 176.943503 155.910125 
C 176.943503 155.910125 176.943503 155.910125 176.943503 155.910125 
C 176.943503 155.910125 176.943503 155.910125 176.943503 155.910125 
C 176.943503 155.910125 176.943503 155.910125 176.943503 155.910125 
M 285.663503 155.910125 
z
"/>
  </clipPath>
 </defs>
</svg>
