<?xml version="1.0" encoding="utf-8" standalone="no"?>
<!DOCTYPE svg PUBLIC "-//W3C//DTD SVG 1.1//EN"
  "http://www.w3.org/Graphics/SVG/1.1/DTD/svg11.dtd">
<!-- Created with matplotlib (https://matplotlib.org/) -->
<svg height="565.374125pt" version="1.1" viewBox="0 0 709.163268 565.374125" width="709.163268pt" xmlns="http://www.w3.org/2000/svg" xmlns:xlink="http://www.w3.org/1999/xlink">
 <defs>
  <style type="text/css">
*{stroke-linecap:butt;stroke-linejoin:round;}
  </style>
 </defs>
 <g id="figure_1">
  <g id="patch_1">
   <path d="M 0 565.374125 
L 709.163268 565.374125 
L 709.163268 0 
L 0 0 
z
" style="fill:#ffffff;"/>
  </g>
  <g id="axes_1">
   <g id="patch_2">
    <path d="M 482.339831 275.502125 
C 482.339831 246.948166 476.715323 218.671858 465.788196 192.291439 
C 454.861069 165.911021 438.843827 141.939525 418.653129 121.748826 
C 398.462431 101.558128 374.490935 85.540887 348.110516 74.613759 
C 321.730098 63.686632 293.45379 58.062125 264.899831 58.062125 
C 236.345872 58.062125 208.069564 63.686632 181.689145 74.613759 
C 155.308727 85.540887 131.33723 101.558128 111.146532 121.748826 
C 90.955834 141.939525 74.938592 165.911021 64.011465 192.291439 
C 53.084338 218.671858 47.459831 246.948166 47.459831 275.502125 
C 47.459831 304.056084 53.084338 332.332392 64.011465 358.712811 
C 74.938592 385.093229 90.955834 409.064725 111.146532 429.255424 
C 131.33723 449.446122 155.308727 465.463363 181.689145 476.390491 
C 208.069564 487.317618 236.345872 492.942125 264.899831 492.942125 
C 293.45379 492.942125 321.730098 487.317618 348.110516 476.390491 
C 374.490935 465.463363 398.462431 449.446122 418.653129 429.255424 
C 438.843827 409.064725 454.861069 385.093229 465.788196 358.712811 
C 476.715323 332.332392 482.339831 304.056084 482.339831 275.502125 
M 264.899831 275.502125 
C 264.899831 275.502125 264.899831 275.502125 264.899831 275.502125 
C 264.899831 275.502125 264.899831 275.502125 264.899831 275.502125 
C 264.899831 275.502125 264.899831 275.502125 264.899831 275.502125 
C 264.899831 275.502125 264.899831 275.502125 264.899831 275.502125 
C 264.899831 275.502125 264.899831 275.502125 264.899831 275.502125 
C 264.899831 275.502125 264.899831 275.502125 264.899831 275.502125 
C 264.899831 275.502125 264.899831 275.502125 264.899831 275.502125 
C 264.899831 275.502125 264.899831 275.502125 264.899831 275.502125 
C 264.899831 275.502125 264.899831 275.502125 264.899831 275.502125 
C 264.899831 275.502125 264.899831 275.502125 264.899831 275.502125 
C 264.899831 275.502125 264.899831 275.502125 264.899831 275.502125 
C 264.899831 275.502125 264.899831 275.502125 264.899831 275.502125 
C 264.899831 275.502125 264.899831 275.502125 264.899831 275.502125 
C 264.899831 275.502125 264.899831 275.502125 264.899831 275.502125 
C 264.899831 275.502125 264.899831 275.502125 264.899831 275.502125 
C 264.899831 275.502125 264.899831 275.502125 264.899831 275.502125 
M 482.339831 275.502125 
z
" style="fill:#ffffff;"/>
   </g>
   <g id="patch_3">
    <path clip-path="url(#p4db1df1d9e)" d="M 373.619831 275.502125 
L 298.496158 172.103261 
L 176.943503 211.598112 
L 264.899831 275.502125 
L 281.697994 327.201557 
z
" style="fill:#708090;opacity:0.8;"/>
   </g>
   <g id="matplotlib.axis_1">
    <g id="xtick_1">
     <g id="line2d_1">
      <path clip-path="url(#p4db1df1d9e)" d="M 264.899831 275.502125 
L 482.339831 275.502125 
" style="fill:none;stroke:#b0b0b0;stroke-linecap:square;stroke-width:0.8;"/>
     </g>
     <g id="text_1">
      <!-- Heart Disease -->
      <defs>
       <path d="M 9.8125 72.90625 
L 19.671875 72.90625 
L 19.671875 43.015625 
L 55.515625 43.015625 
L 55.515625 72.90625 
L 65.375 72.90625 
L 65.375 0 
L 55.515625 0 
L 55.515625 34.71875 
L 19.671875 34.71875 
L 19.671875 0 
L 9.8125 0 
z
" id="DejaVuSans-72"/>
       <path d="M 56.203125 29.59375 
L 56.203125 25.203125 
L 14.890625 25.203125 
Q 15.484375 15.921875 20.484375 11.0625 
Q 25.484375 6.203125 34.421875 6.203125 
Q 39.59375 6.203125 44.453125 7.46875 
Q 49.3125 8.734375 54.109375 11.28125 
L 54.109375 2.78125 
Q 49.265625 0.734375 44.1875 -0.34375 
Q 39.109375 -1.421875 33.890625 -1.421875 
Q 20.796875 -1.421875 13.15625 6.1875 
Q 5.515625 13.8125 5.515625 26.8125 
Q 5.515625 40.234375 12.765625 48.109375 
Q 20.015625 56 32.328125 56 
Q 43.359375 56 49.78125 48.890625 
Q 56.203125 41.796875 56.203125 29.59375 
z
M 47.21875 32.234375 
Q 47.125 39.59375 43.09375 43.984375 
Q 39.0625 48.390625 32.421875 48.390625 
Q 24.90625 48.390625 20.390625 44.140625 
Q 15.875 39.890625 15.1875 32.171875 
z
" id="DejaVuSans-101"/>
       <path d="M 34.28125 27.484375 
Q 23.390625 27.484375 19.1875 25 
Q 14.984375 22.515625 14.984375 16.5 
Q 14.984375 11.71875 18.140625 8.90625 
Q 21.296875 6.109375 26.703125 6.109375 
Q 34.1875 6.109375 38.703125 11.40625 
Q 43.21875 16.703125 43.21875 25.484375 
L 43.21875 27.484375 
z
M 52.203125 31.203125 
L 52.203125 0 
L 43.21875 0 
L 43.21875 8.296875 
Q 40.140625 3.328125 35.546875 0.953125 
Q 30.953125 -1.421875 24.3125 -1.421875 
Q 15.921875 -1.421875 10.953125 3.296875 
Q 6 8.015625 6 15.921875 
Q 6 25.140625 12.171875 29.828125 
Q 18.359375 34.515625 30.609375 34.515625 
L 43.21875 34.515625 
L 43.21875 35.40625 
Q 43.21875 41.609375 39.140625 45 
Q 35.0625 48.390625 27.6875 48.390625 
Q 23 48.390625 18.546875 47.265625 
Q 14.109375 46.140625 10.015625 43.890625 
L 10.015625 52.203125 
Q 14.9375 54.109375 19.578125 55.046875 
Q 24.21875 56 28.609375 56 
Q 40.484375 56 46.34375 49.84375 
Q 52.203125 43.703125 52.203125 31.203125 
z
" id="DejaVuSans-97"/>
       <path d="M 41.109375 46.296875 
Q 39.59375 47.171875 37.8125 47.578125 
Q 36.03125 48 33.890625 48 
Q 26.265625 48 22.1875 43.046875 
Q 18.109375 38.09375 18.109375 28.8125 
L 18.109375 0 
L 9.078125 0 
L 9.078125 54.6875 
L 18.109375 54.6875 
L 18.109375 46.1875 
Q 20.953125 51.171875 25.484375 53.578125 
Q 30.03125 56 36.53125 56 
Q 37.453125 56 38.578125 55.875 
Q 39.703125 55.765625 41.0625 55.515625 
z
" id="DejaVuSans-114"/>
       <path d="M 18.3125 70.21875 
L 18.3125 54.6875 
L 36.8125 54.6875 
L 36.8125 47.703125 
L 18.3125 47.703125 
L 18.3125 18.015625 
Q 18.3125 11.328125 20.140625 9.421875 
Q 21.96875 7.515625 27.59375 7.515625 
L 36.8125 7.515625 
L 36.8125 0 
L 27.59375 0 
Q 17.1875 0 13.234375 3.875 
Q 9.28125 7.765625 9.28125 18.015625 
L 9.28125 47.703125 
L 2.6875 47.703125 
L 2.6875 54.6875 
L 9.28125 54.6875 
L 9.28125 70.21875 
z
" id="DejaVuSans-116"/>
       <path id="DejaVuSans-32"/>
       <path d="M 19.671875 64.796875 
L 19.671875 8.109375 
L 31.59375 8.109375 
Q 46.6875 8.109375 53.6875 14.9375 
Q 60.6875 21.78125 60.6875 36.53125 
Q 60.6875 51.171875 53.6875 57.984375 
Q 46.6875 64.796875 31.59375 64.796875 
z
M 9.8125 72.90625 
L 30.078125 72.90625 
Q 51.265625 72.90625 61.171875 64.09375 
Q 71.09375 55.28125 71.09375 36.53125 
Q 71.09375 17.671875 61.125 8.828125 
Q 51.171875 0 30.078125 0 
L 9.8125 0 
z
" id="DejaVuSans-68"/>
       <path d="M 9.421875 54.6875 
L 18.40625 54.6875 
L 18.40625 0 
L 9.421875 0 
z
M 9.421875 75.984375 
L 18.40625 75.984375 
L 18.40625 64.59375 
L 9.421875 64.59375 
z
" id="DejaVuSans-105"/>
       <path d="M 44.28125 53.078125 
L 44.28125 44.578125 
Q 40.484375 46.53125 36.375 47.5 
Q 32.28125 48.484375 27.875 48.484375 
Q 21.1875 48.484375 17.84375 46.4375 
Q 14.5 44.390625 14.5 40.28125 
Q 14.5 37.15625 16.890625 35.375 
Q 19.28125 33.59375 26.515625 31.984375 
L 29.59375 31.296875 
Q 39.15625 29.25 43.1875 25.515625 
Q 47.21875 21.78125 47.21875 15.09375 
Q 47.21875 7.46875 41.1875 3.015625 
Q 35.15625 -1.421875 24.609375 -1.421875 
Q 20.21875 -1.421875 15.453125 -0.5625 
Q 10.6875 0.296875 5.421875 2 
L 5.421875 11.28125 
Q 10.40625 8.6875 15.234375 7.390625 
Q 20.0625 6.109375 24.8125 6.109375 
Q 31.15625 6.109375 34.5625 8.28125 
Q 37.984375 10.453125 37.984375 14.40625 
Q 37.984375 18.0625 35.515625 20.015625 
Q 33.0625 21.96875 24.703125 23.78125 
L 21.578125 24.515625 
Q 13.234375 26.265625 9.515625 29.90625 
Q 5.8125 33.546875 5.8125 39.890625 
Q 5.8125 47.609375 11.28125 51.796875 
Q 16.75 56 26.8125 56 
Q 31.78125 56 36.171875 55.265625 
Q 40.578125 54.546875 44.28125 53.078125 
z
" id="DejaVuSans-115"/>
      </defs>
      <g transform="translate(461.168737 278.2615)scale(0.1 -0.1)">
       <use xlink:href="#DejaVuSans-72"/>
       <use x="75.195312" xlink:href="#DejaVuSans-101"/>
       <use x="136.71875" xlink:href="#DejaVuSans-97"/>
       <use x="197.998047" xlink:href="#DejaVuSans-114"/>
       <use x="239.111328" xlink:href="#DejaVuSans-116"/>
       <use x="278.320312" xlink:href="#DejaVuSans-32"/>
       <use x="310.107422" xlink:href="#DejaVuSans-68"/>
       <use x="387.109375" xlink:href="#DejaVuSans-105"/>
       <use x="414.892578" xlink:href="#DejaVuSans-115"/>
       <use x="466.992188" xlink:href="#DejaVuSans-101"/>
       <use x="528.515625" xlink:href="#DejaVuSans-97"/>
       <use x="589.794922" xlink:href="#DejaVuSans-115"/>
       <use x="641.894531" xlink:href="#DejaVuSans-101"/>
      </g>
     </g>
    </g>
    <g id="xtick_2">
     <g id="line2d_2">
      <path clip-path="url(#p4db1df1d9e)" d="M 264.899831 275.502125 
L 332.092486 68.704396 
" style="fill:none;stroke:#b0b0b0;stroke-linecap:square;stroke-width:0.8;"/>
     </g>
     <g id="text_2">
      <!-- Diabetes Mellitus -->
      <defs>
       <path d="M 48.6875 27.296875 
Q 48.6875 37.203125 44.609375 42.84375 
Q 40.53125 48.484375 33.40625 48.484375 
Q 26.265625 48.484375 22.1875 42.84375 
Q 18.109375 37.203125 18.109375 27.296875 
Q 18.109375 17.390625 22.1875 11.75 
Q 26.265625 6.109375 33.40625 6.109375 
Q 40.53125 6.109375 44.609375 11.75 
Q 48.6875 17.390625 48.6875 27.296875 
z
M 18.109375 46.390625 
Q 20.953125 51.265625 25.265625 53.625 
Q 29.59375 56 35.59375 56 
Q 45.5625 56 51.78125 48.09375 
Q 58.015625 40.1875 58.015625 27.296875 
Q 58.015625 14.40625 51.78125 6.484375 
Q 45.5625 -1.421875 35.59375 -1.421875 
Q 29.59375 -1.421875 25.265625 0.953125 
Q 20.953125 3.328125 18.109375 8.203125 
L 18.109375 0 
L 9.078125 0 
L 9.078125 75.984375 
L 18.109375 75.984375 
z
" id="DejaVuSans-98"/>
       <path d="M 9.8125 72.90625 
L 24.515625 72.90625 
L 43.109375 23.296875 
L 61.8125 72.90625 
L 76.515625 72.90625 
L 76.515625 0 
L 66.890625 0 
L 66.890625 64.015625 
L 48.09375 14.015625 
L 38.1875 14.015625 
L 19.390625 64.015625 
L 19.390625 0 
L 9.8125 0 
z
" id="DejaVuSans-77"/>
       <path d="M 9.421875 75.984375 
L 18.40625 75.984375 
L 18.40625 0 
L 9.421875 0 
z
" id="DejaVuSans-108"/>
       <path d="M 8.5 21.578125 
L 8.5 54.6875 
L 17.484375 54.6875 
L 17.484375 21.921875 
Q 17.484375 14.15625 20.5 10.265625 
Q 23.53125 6.390625 29.59375 6.390625 
Q 36.859375 6.390625 41.078125 11.03125 
Q 45.3125 15.671875 45.3125 23.6875 
L 45.3125 54.6875 
L 54.296875 54.6875 
L 54.296875 0 
L 45.3125 0 
L 45.3125 8.40625 
Q 42.046875 3.421875 37.71875 1 
Q 33.40625 -1.421875 27.6875 -1.421875 
Q 18.265625 -1.421875 13.375 4.4375 
Q 8.5 10.296875 8.5 21.578125 
z
M 31.109375 56 
z
" id="DejaVuSans-117"/>
      </defs>
      <g transform="translate(293.342943 58.14898)scale(0.1 -0.1)">
       <use xlink:href="#DejaVuSans-68"/>
       <use x="77.001953" xlink:href="#DejaVuSans-105"/>
       <use x="104.785156" xlink:href="#DejaVuSans-97"/>
       <use x="166.064453" xlink:href="#DejaVuSans-98"/>
       <use x="229.541016" xlink:href="#DejaVuSans-101"/>
       <use x="291.064453" xlink:href="#DejaVuSans-116"/>
       <use x="330.273438" xlink:href="#DejaVuSans-101"/>
       <use x="391.796875" xlink:href="#DejaVuSans-115"/>
       <use x="443.896484" xlink:href="#DejaVuSans-32"/>
       <use x="475.683594" xlink:href="#DejaVuSans-77"/>
       <use x="561.962891" xlink:href="#DejaVuSans-101"/>
       <use x="623.486328" xlink:href="#DejaVuSans-108"/>
       <use x="651.269531" xlink:href="#DejaVuSans-108"/>
       <use x="679.052734" xlink:href="#DejaVuSans-105"/>
       <use x="706.835938" xlink:href="#DejaVuSans-116"/>
       <use x="746.044922" xlink:href="#DejaVuSans-117"/>
       <use x="809.423828" xlink:href="#DejaVuSans-115"/>
      </g>
     </g>
    </g>
    <g id="xtick_3">
     <g id="line2d_3">
      <path clip-path="url(#p4db1df1d9e)" d="M 264.899831 275.502125 
L 88.987175 147.6941 
" style="fill:none;stroke:#b0b0b0;stroke-linecap:square;stroke-width:0.8;"/>
     </g>
     <g id="text_3">
      <!-- Hypertension -->
      <defs>
       <path d="M 32.171875 -5.078125 
Q 28.375 -14.84375 24.75 -17.8125 
Q 21.140625 -20.796875 15.09375 -20.796875 
L 7.90625 -20.796875 
L 7.90625 -13.28125 
L 13.1875 -13.28125 
Q 16.890625 -13.28125 18.9375 -11.515625 
Q 21 -9.765625 23.484375 -3.21875 
L 25.09375 0.875 
L 2.984375 54.6875 
L 12.5 54.6875 
L 29.59375 11.921875 
L 46.6875 54.6875 
L 56.203125 54.6875 
z
" id="DejaVuSans-121"/>
       <path d="M 18.109375 8.203125 
L 18.109375 -20.796875 
L 9.078125 -20.796875 
L 9.078125 54.6875 
L 18.109375 54.6875 
L 18.109375 46.390625 
Q 20.953125 51.265625 25.265625 53.625 
Q 29.59375 56 35.59375 56 
Q 45.5625 56 51.78125 48.09375 
Q 58.015625 40.1875 58.015625 27.296875 
Q 58.015625 14.40625 51.78125 6.484375 
Q 45.5625 -1.421875 35.59375 -1.421875 
Q 29.59375 -1.421875 25.265625 0.953125 
Q 20.953125 3.328125 18.109375 8.203125 
z
M 48.6875 27.296875 
Q 48.6875 37.203125 44.609375 42.84375 
Q 40.53125 48.484375 33.40625 48.484375 
Q 26.265625 48.484375 22.1875 42.84375 
Q 18.109375 37.203125 18.109375 27.296875 
Q 18.109375 17.390625 22.1875 11.75 
Q 26.265625 6.109375 33.40625 6.109375 
Q 40.53125 6.109375 44.609375 11.75 
Q 48.6875 17.390625 48.6875 27.296875 
z
" id="DejaVuSans-112"/>
       <path d="M 54.890625 33.015625 
L 54.890625 0 
L 45.90625 0 
L 45.90625 32.71875 
Q 45.90625 40.484375 42.875 44.328125 
Q 39.84375 48.1875 33.796875 48.1875 
Q 26.515625 48.1875 22.3125 43.546875 
Q 18.109375 38.921875 18.109375 30.90625 
L 18.109375 0 
L 9.078125 0 
L 9.078125 54.6875 
L 18.109375 54.6875 
L 18.109375 46.1875 
Q 21.34375 51.125 25.703125 53.5625 
Q 30.078125 56 35.796875 56 
Q 45.21875 56 50.046875 50.171875 
Q 54.890625 44.34375 54.890625 33.015625 
z
" id="DejaVuSans-110"/>
       <path d="M 30.609375 48.390625 
Q 23.390625 48.390625 19.1875 42.75 
Q 14.984375 37.109375 14.984375 27.296875 
Q 14.984375 17.484375 19.15625 11.84375 
Q 23.34375 6.203125 30.609375 6.203125 
Q 37.796875 6.203125 41.984375 11.859375 
Q 46.1875 17.53125 46.1875 27.296875 
Q 46.1875 37.015625 41.984375 42.703125 
Q 37.796875 48.390625 30.609375 48.390625 
z
M 30.609375 56 
Q 42.328125 56 49.015625 48.375 
Q 55.71875 40.765625 55.71875 27.296875 
Q 55.71875 13.875 49.015625 6.21875 
Q 42.328125 -1.421875 30.609375 -1.421875 
Q 18.84375 -1.421875 12.171875 6.21875 
Q 5.515625 13.875 5.515625 27.296875 
Q 5.515625 40.765625 12.171875 48.375 
Q 18.84375 56 30.609375 56 
z
" id="DejaVuSans-111"/>
      </defs>
      <g transform="translate(44.207813 142.224481)scale(0.1 -0.1)">
       <use xlink:href="#DejaVuSans-72"/>
       <use x="75.195312" xlink:href="#DejaVuSans-121"/>
       <use x="134.375" xlink:href="#DejaVuSans-112"/>
       <use x="197.851562" xlink:href="#DejaVuSans-101"/>
       <use x="259.375" xlink:href="#DejaVuSans-114"/>
       <use x="300.488281" xlink:href="#DejaVuSans-116"/>
       <use x="339.697266" xlink:href="#DejaVuSans-101"/>
       <use x="401.220703" xlink:href="#DejaVuSans-110"/>
       <use x="464.599609" xlink:href="#DejaVuSans-115"/>
       <use x="516.699219" xlink:href="#DejaVuSans-105"/>
       <use x="544.482422" xlink:href="#DejaVuSans-111"/>
       <use x="605.664062" xlink:href="#DejaVuSans-110"/>
      </g>
     </g>
    </g>
    <g id="xtick_4">
     <g id="line2d_4">
      <path clip-path="url(#p4db1df1d9e)" d="M 264.899831 275.502125 
L 88.987175 403.31015 
" style="fill:none;stroke:#b0b0b0;stroke-linecap:square;stroke-width:0.8;"/>
     </g>
     <g id="text_4">
      <!-- Chronic Respiratory Disease -->
      <defs>
       <path d="M 64.40625 67.28125 
L 64.40625 56.890625 
Q 59.421875 61.53125 53.78125 63.8125 
Q 48.140625 66.109375 41.796875 66.109375 
Q 29.296875 66.109375 22.65625 58.46875 
Q 16.015625 50.828125 16.015625 36.375 
Q 16.015625 21.96875 22.65625 14.328125 
Q 29.296875 6.6875 41.796875 6.6875 
Q 48.140625 6.6875 53.78125 8.984375 
Q 59.421875 11.28125 64.40625 15.921875 
L 64.40625 5.609375 
Q 59.234375 2.09375 53.4375 0.328125 
Q 47.65625 -1.421875 41.21875 -1.421875 
Q 24.65625 -1.421875 15.125 8.703125 
Q 5.609375 18.84375 5.609375 36.375 
Q 5.609375 53.953125 15.125 64.078125 
Q 24.65625 74.21875 41.21875 74.21875 
Q 47.75 74.21875 53.53125 72.484375 
Q 59.328125 70.75 64.40625 67.28125 
z
" id="DejaVuSans-67"/>
       <path d="M 54.890625 33.015625 
L 54.890625 0 
L 45.90625 0 
L 45.90625 32.71875 
Q 45.90625 40.484375 42.875 44.328125 
Q 39.84375 48.1875 33.796875 48.1875 
Q 26.515625 48.1875 22.3125 43.546875 
Q 18.109375 38.921875 18.109375 30.90625 
L 18.109375 0 
L 9.078125 0 
L 9.078125 75.984375 
L 18.109375 75.984375 
L 18.109375 46.1875 
Q 21.34375 51.125 25.703125 53.5625 
Q 30.078125 56 35.796875 56 
Q 45.21875 56 50.046875 50.171875 
Q 54.890625 44.34375 54.890625 33.015625 
z
" id="DejaVuSans-104"/>
       <path d="M 48.78125 52.59375 
L 48.78125 44.1875 
Q 44.96875 46.296875 41.140625 47.34375 
Q 37.3125 48.390625 33.40625 48.390625 
Q 24.65625 48.390625 19.8125 42.84375 
Q 14.984375 37.3125 14.984375 27.296875 
Q 14.984375 17.28125 19.8125 11.734375 
Q 24.65625 6.203125 33.40625 6.203125 
Q 37.3125 6.203125 41.140625 7.25 
Q 44.96875 8.296875 48.78125 10.40625 
L 48.78125 2.09375 
Q 45.015625 0.34375 40.984375 -0.53125 
Q 36.96875 -1.421875 32.421875 -1.421875 
Q 20.0625 -1.421875 12.78125 6.34375 
Q 5.515625 14.109375 5.515625 27.296875 
Q 5.515625 40.671875 12.859375 48.328125 
Q 20.21875 56 33.015625 56 
Q 37.15625 56 41.109375 55.140625 
Q 45.0625 54.296875 48.78125 52.59375 
z
" id="DejaVuSans-99"/>
       <path d="M 44.390625 34.1875 
Q 47.5625 33.109375 50.5625 29.59375 
Q 53.5625 26.078125 56.59375 19.921875 
L 66.609375 0 
L 56 0 
L 46.6875 18.703125 
Q 43.0625 26.03125 39.671875 28.421875 
Q 36.28125 30.8125 30.421875 30.8125 
L 19.671875 30.8125 
L 19.671875 0 
L 9.8125 0 
L 9.8125 72.90625 
L 32.078125 72.90625 
Q 44.578125 72.90625 50.734375 67.671875 
Q 56.890625 62.453125 56.890625 51.90625 
Q 56.890625 45.015625 53.6875 40.46875 
Q 50.484375 35.9375 44.390625 34.1875 
z
M 19.671875 64.796875 
L 19.671875 38.921875 
L 32.078125 38.921875 
Q 39.203125 38.921875 42.84375 42.21875 
Q 46.484375 45.515625 46.484375 51.90625 
Q 46.484375 58.296875 42.84375 61.546875 
Q 39.203125 64.796875 32.078125 64.796875 
z
" id="DejaVuSans-82"/>
      </defs>
      <g transform="translate(7.2 414.298519)scale(0.1 -0.1)">
       <use xlink:href="#DejaVuSans-67"/>
       <use x="69.824219" xlink:href="#DejaVuSans-104"/>
       <use x="133.203125" xlink:href="#DejaVuSans-114"/>
       <use x="172.066406" xlink:href="#DejaVuSans-111"/>
       <use x="233.248047" xlink:href="#DejaVuSans-110"/>
       <use x="296.626953" xlink:href="#DejaVuSans-105"/>
       <use x="324.410156" xlink:href="#DejaVuSans-99"/>
       <use x="379.390625" xlink:href="#DejaVuSans-32"/>
       <use x="411.177734" xlink:href="#DejaVuSans-82"/>
       <use x="476.160156" xlink:href="#DejaVuSans-101"/>
       <use x="537.683594" xlink:href="#DejaVuSans-115"/>
       <use x="589.783203" xlink:href="#DejaVuSans-112"/>
       <use x="653.259766" xlink:href="#DejaVuSans-105"/>
       <use x="681.042969" xlink:href="#DejaVuSans-114"/>
       <use x="722.15625" xlink:href="#DejaVuSans-97"/>
       <use x="783.435547" xlink:href="#DejaVuSans-116"/>
       <use x="822.644531" xlink:href="#DejaVuSans-111"/>
       <use x="883.826172" xlink:href="#DejaVuSans-114"/>
       <use x="924.939453" xlink:href="#DejaVuSans-121"/>
       <use x="984.119141" xlink:href="#DejaVuSans-32"/>
       <use x="1015.90625" xlink:href="#DejaVuSans-68"/>
       <use x="1092.908203" xlink:href="#DejaVuSans-105"/>
       <use x="1120.691406" xlink:href="#DejaVuSans-115"/>
       <use x="1172.791016" xlink:href="#DejaVuSans-101"/>
       <use x="1234.314453" xlink:href="#DejaVuSans-97"/>
       <use x="1295.59375" xlink:href="#DejaVuSans-115"/>
       <use x="1347.693359" xlink:href="#DejaVuSans-101"/>
      </g>
     </g>
    </g>
    <g id="xtick_5">
     <g id="line2d_5">
      <path clip-path="url(#p4db1df1d9e)" d="M 264.899831 275.502125 
L 332.092486 482.299854 
" style="fill:none;stroke:#b0b0b0;stroke-linecap:square;stroke-width:0.8;"/>
     </g>
     <g id="text_5">
      <!-- Cancer -->
      <g transform="translate(318.813255 498.37402)scale(0.1 -0.1)">
       <use xlink:href="#DejaVuSans-67"/>
       <use x="69.824219" xlink:href="#DejaVuSans-97"/>
       <use x="131.103516" xlink:href="#DejaVuSans-110"/>
       <use x="194.482422" xlink:href="#DejaVuSans-99"/>
       <use x="249.462891" xlink:href="#DejaVuSans-101"/>
       <use x="310.986328" xlink:href="#DejaVuSans-114"/>
      </g>
     </g>
    </g>
   </g>
   <g id="matplotlib.axis_2">
    <g id="ytick_1">
     <g id="line2d_6">
      <path clip-path="url(#p4db1df1d9e)" d="M 308.387831 275.502125 
L 308.281896 272.468555 
L 307.964608 269.449765 
L 307.437514 266.460461 
L 306.703179 263.515208 
L 305.765183 260.628353 
L 304.628096 257.813962 
L 303.297456 255.085746 
L 301.779746 252.456996 
L 300.082362 249.94052 
L 298.213571 247.548577 
L 296.18248 245.292822 
L 293.998982 243.184243 
L 291.673717 241.233113 
L 289.218012 239.448939 
L 286.643831 237.840412 
L 283.963715 236.41537 
L 281.190722 235.180754 
L 278.338362 234.142579 
L 275.42053 233.305904 
L 272.451443 232.674805 
L 269.445564 232.252357 
L 266.41754 232.040617 
L 263.382121 232.040617 
L 260.354097 232.252357 
L 257.348219 232.674805 
L 254.379131 233.305904 
L 251.4613 234.142579 
L 248.608939 235.180754 
L 245.835946 236.41537 
L 243.155831 237.840412 
L 240.58165 239.448939 
L 238.125944 241.233113 
L 235.800679 243.184243 
L 233.617181 245.292822 
L 231.58609 247.548577 
L 229.7173 249.94052 
L 228.019915 252.456996 
L 226.502206 255.085746 
L 225.171566 257.813962 
L 224.034478 260.628353 
L 223.096482 263.515208 
L 222.362148 266.460461 
L 221.835053 269.449765 
L 221.517765 272.468555 
L 221.411831 275.502125 
L 221.517765 278.535695 
L 221.835053 281.554485 
L 222.362148 284.543789 
L 223.096482 287.489042 
L 224.034478 290.375897 
L 225.171566 293.190288 
L 226.502206 295.918504 
L 228.019915 298.547254 
L 229.7173 301.06373 
L 231.58609 303.455673 
L 233.617181 305.711428 
L 235.800679 307.820007 
L 238.125944 309.771137 
L 240.58165 311.555311 
L 243.155831 313.163838 
L 245.835946 314.58888 
L 248.608939 315.823496 
L 251.4613 316.861671 
L 254.379131 317.698346 
L 257.348219 318.329445 
L 260.354097 318.751893 
L 263.382121 318.963633 
L 266.41754 318.963633 
L 269.445564 318.751893 
L 272.451443 318.329445 
L 275.42053 317.698346 
L 278.338362 316.861671 
L 281.190722 315.823496 
L 283.963715 314.58888 
L 286.643831 313.163838 
L 289.218012 311.555311 
L 291.673717 309.771137 
L 293.998982 307.820007 
L 296.18248 305.711428 
L 298.213571 303.455673 
L 300.082362 301.06373 
L 301.779746 298.547254 
L 303.297456 295.918504 
L 304.628096 293.190288 
L 305.765183 290.375897 
L 306.703179 287.489042 
L 307.437514 284.543789 
L 307.964608 281.554485 
L 308.281896 278.535695 
L 308.387831 275.502125 
L 308.387831 275.502125 
" style="fill:none;stroke:#b0b0b0;stroke-linecap:square;stroke-width:0.8;"/>
     </g>
     <g id="text_6">
      <!-- 20% -->
      <defs>
       <path d="M 19.1875 8.296875 
L 53.609375 8.296875 
L 53.609375 0 
L 7.328125 0 
L 7.328125 8.296875 
Q 12.9375 14.109375 22.625 23.890625 
Q 32.328125 33.6875 34.8125 36.53125 
Q 39.546875 41.84375 41.421875 45.53125 
Q 43.3125 49.21875 43.3125 52.78125 
Q 43.3125 58.59375 39.234375 62.25 
Q 35.15625 65.921875 28.609375 65.921875 
Q 23.96875 65.921875 18.8125 64.3125 
Q 13.671875 62.703125 7.8125 59.421875 
L 7.8125 69.390625 
Q 13.765625 71.78125 18.9375 73 
Q 24.125 74.21875 28.421875 74.21875 
Q 39.75 74.21875 46.484375 68.546875 
Q 53.21875 62.890625 53.21875 53.421875 
Q 53.21875 48.921875 51.53125 44.890625 
Q 49.859375 40.875 45.40625 35.40625 
Q 44.1875 33.984375 37.640625 27.21875 
Q 31.109375 20.453125 19.1875 8.296875 
z
" id="DejaVuSans-50"/>
       <path d="M 31.78125 66.40625 
Q 24.171875 66.40625 20.328125 58.90625 
Q 16.5 51.421875 16.5 36.375 
Q 16.5 21.390625 20.328125 13.890625 
Q 24.171875 6.390625 31.78125 6.390625 
Q 39.453125 6.390625 43.28125 13.890625 
Q 47.125 21.390625 47.125 36.375 
Q 47.125 51.421875 43.28125 58.90625 
Q 39.453125 66.40625 31.78125 66.40625 
z
M 31.78125 74.21875 
Q 44.046875 74.21875 50.515625 64.515625 
Q 56.984375 54.828125 56.984375 36.375 
Q 56.984375 17.96875 50.515625 8.265625 
Q 44.046875 -1.421875 31.78125 -1.421875 
Q 19.53125 -1.421875 13.0625 8.265625 
Q 6.59375 17.96875 6.59375 36.375 
Q 6.59375 54.828125 13.0625 64.515625 
Q 19.53125 74.21875 31.78125 74.21875 
z
" id="DejaVuSans-48"/>
       <path d="M 72.703125 32.078125 
Q 68.453125 32.078125 66.03125 28.46875 
Q 63.625 24.859375 63.625 18.40625 
Q 63.625 12.0625 66.03125 8.421875 
Q 68.453125 4.78125 72.703125 4.78125 
Q 76.859375 4.78125 79.265625 8.421875 
Q 81.6875 12.0625 81.6875 18.40625 
Q 81.6875 24.8125 79.265625 28.4375 
Q 76.859375 32.078125 72.703125 32.078125 
z
M 72.703125 38.28125 
Q 80.421875 38.28125 84.953125 32.90625 
Q 89.5 27.546875 89.5 18.40625 
Q 89.5 9.28125 84.9375 3.921875 
Q 80.375 -1.421875 72.703125 -1.421875 
Q 64.890625 -1.421875 60.34375 3.921875 
Q 55.8125 9.28125 55.8125 18.40625 
Q 55.8125 27.59375 60.375 32.9375 
Q 64.9375 38.28125 72.703125 38.28125 
z
M 22.3125 68.015625 
Q 18.109375 68.015625 15.6875 64.375 
Q 13.28125 60.75 13.28125 54.390625 
Q 13.28125 47.953125 15.671875 44.328125 
Q 18.0625 40.71875 22.3125 40.71875 
Q 26.5625 40.71875 28.96875 44.328125 
Q 31.390625 47.953125 31.390625 54.390625 
Q 31.390625 60.6875 28.953125 64.34375 
Q 26.515625 68.015625 22.3125 68.015625 
z
M 66.40625 74.21875 
L 74.21875 74.21875 
L 28.609375 -1.421875 
L 20.796875 -1.421875 
z
M 22.3125 74.21875 
Q 30.03125 74.21875 34.609375 68.875 
Q 39.203125 63.53125 39.203125 54.390625 
Q 39.203125 45.171875 34.640625 39.84375 
Q 30.078125 34.515625 22.3125 34.515625 
Q 14.546875 34.515625 10.03125 39.859375 
Q 5.515625 45.21875 5.515625 54.390625 
Q 5.515625 63.484375 10.046875 68.84375 
Q 14.59375 74.21875 22.3125 74.21875 
z
" id="DejaVuSans-37"/>
      </defs>
      <g transform="translate(305.077504 256.7803)scale(0.1 -0.1)">
       <use xlink:href="#DejaVuSans-50"/>
       <use x="63.623047" xlink:href="#DejaVuSans-48"/>
       <use x="127.246094" xlink:href="#DejaVuSans-37"/>
      </g>
     </g>
    </g>
    <g id="ytick_2">
     <g id="line2d_7">
      <path clip-path="url(#p4db1df1d9e)" d="M 351.875831 275.502125 
L 351.663962 269.434986 
L 351.029386 263.397405 
L 349.975196 257.418798 
L 348.506528 251.52829 
L 346.630536 245.754581 
L 344.35636 240.125799 
L 341.695081 234.669366 
L 338.659662 229.411867 
L 335.264893 224.378915 
L 331.527312 219.59503 
L 327.465129 215.083519 
L 323.098134 210.866361 
L 318.447603 206.964102 
L 313.536193 203.395753 
L 308.387831 200.178699 
L 303.0276 197.328614 
L 297.481614 194.859382 
L 291.776893 192.783033 
L 285.941229 191.109684 
L 280.003055 189.847486 
L 273.991298 189.002589 
L 267.935249 188.579108 
L 261.864412 188.579108 
L 255.808363 189.002589 
L 249.796607 189.847486 
L 243.858432 191.109684 
L 238.022769 192.783033 
L 232.318048 194.859382 
L 226.772062 197.328614 
L 221.411831 200.178699 
L 216.263469 203.395753 
L 211.352058 206.964102 
L 206.701527 210.866361 
L 202.334532 215.083519 
L 198.272349 219.59503 
L 194.534769 224.378915 
L 191.139999 229.411867 
L 188.104581 234.669366 
L 185.443301 240.125799 
L 183.169125 245.754581 
L 181.293133 251.52829 
L 179.824465 257.418798 
L 178.770275 263.397405 
L 178.1357 269.434986 
L 177.923831 275.502125 
L 178.1357 281.569264 
L 178.770275 287.606845 
L 179.824465 293.585452 
L 181.293133 299.47596 
L 183.169125 305.249669 
L 185.443301 310.878451 
L 188.104581 316.334884 
L 191.139999 321.592383 
L 194.534769 326.625335 
L 198.272349 331.40922 
L 202.334532 335.920731 
L 206.701527 340.137889 
L 211.352058 344.040148 
L 216.263469 347.608497 
L 221.411831 350.825551 
L 226.772062 353.675636 
L 232.318048 356.144868 
L 238.022769 358.221217 
L 243.858432 359.894566 
L 249.796607 361.156764 
L 255.808363 362.001661 
L 261.864412 362.425142 
L 267.935249 362.425142 
L 273.991298 362.001661 
L 280.003055 361.156764 
L 285.941229 359.894566 
L 291.776893 358.221217 
L 297.481614 356.144868 
L 303.0276 353.675636 
L 308.387831 350.825551 
L 313.536193 347.608497 
L 318.447603 344.040148 
L 323.098134 340.137889 
L 327.465129 335.920731 
L 331.527312 331.40922 
L 335.264893 326.625335 
L 338.659662 321.592383 
L 341.695081 316.334884 
L 344.35636 310.878451 
L 346.630536 305.249669 
L 348.506528 299.47596 
L 349.975196 293.585452 
L 351.029386 287.606845 
L 351.663962 281.569264 
L 351.875831 275.502125 
L 351.875831 275.502125 
" style="fill:none;stroke:#b0b0b0;stroke-linecap:square;stroke-width:0.8;"/>
     </g>
     <g id="text_7">
      <!-- 40% -->
      <defs>
       <path d="M 37.796875 64.3125 
L 12.890625 25.390625 
L 37.796875 25.390625 
z
M 35.203125 72.90625 
L 47.609375 72.90625 
L 47.609375 25.390625 
L 58.015625 25.390625 
L 58.015625 17.1875 
L 47.609375 17.1875 
L 47.609375 0 
L 37.796875 0 
L 37.796875 17.1875 
L 4.890625 17.1875 
L 4.890625 26.703125 
z
" id="DejaVuSans-52"/>
      </defs>
      <g transform="translate(345.255177 240.138163)scale(0.1 -0.1)">
       <use xlink:href="#DejaVuSans-52"/>
       <use x="63.623047" xlink:href="#DejaVuSans-48"/>
       <use x="127.246094" xlink:href="#DejaVuSans-37"/>
      </g>
     </g>
    </g>
    <g id="ytick_3">
     <g id="line2d_8">
      <path clip-path="url(#p4db1df1d9e)" d="M 395.363831 275.502125 
L 395.284356 270.948997 
L 395.046027 266.401416 
L 394.649135 261.864924 
L 394.094164 257.345046 
L 393.381789 252.847289 
L 392.512879 248.377134 
L 391.488492 243.940027 
L 390.309877 239.541373 
L 388.978468 235.186532 
L 387.495889 230.880809 
L 385.863945 226.62945 
L 384.084625 222.437636 
L 382.160097 218.310472 
L 380.092705 214.252987 
L 377.884969 210.270125 
L 375.539577 206.366738 
L 373.059389 202.547582 
L 370.447424 198.81731 
L 367.706866 195.180466 
L 364.841053 191.641482 
L 361.853477 188.20467 
L 358.747778 184.874215 
L 355.52774 181.654177 
L 352.197286 178.548478 
L 348.760473 175.560903 
L 345.221489 172.69509 
L 341.584646 169.954532 
L 337.854374 167.342567 
L 334.035218 164.862378 
L 330.131831 162.516987 
L 326.148969 160.30925 
L 322.091484 158.241859 
L 317.96432 156.31733 
L 313.772505 154.538011 
L 309.521147 152.906067 
L 305.215424 151.423488 
L 300.860583 150.092079 
L 296.461929 148.913463 
L 292.024822 147.889076 
L 287.554667 147.020166 
L 283.05691 146.307792 
L 278.537032 145.75282 
L 274.000539 145.355929 
L 269.452959 145.1176 
L 264.899831 145.038125 
L 260.346703 145.1176 
L 255.799122 145.355929 
L 251.262629 145.75282 
L 246.742751 146.307792 
L 242.244995 147.020166 
L 237.77484 147.889076 
L 233.337732 148.913463 
L 228.939079 150.092079 
L 224.584238 151.423488 
L 220.278515 152.906067 
L 216.027156 154.538011 
L 211.835341 156.31733 
L 207.708177 158.241859 
L 203.650693 160.30925 
L 199.667831 162.516987 
L 195.764444 164.862378 
L 191.945288 167.342567 
L 188.215016 169.954532 
L 184.578172 172.69509 
L 181.039188 175.560903 
L 177.602375 178.548478 
L 174.271921 181.654177 
L 171.051883 184.874215 
L 167.946184 188.20467 
L 164.958608 191.641482 
L 162.092796 195.180466 
L 159.352238 198.81731 
L 156.740273 202.547582 
L 154.260084 206.366738 
L 151.914692 210.270125 
L 149.706956 214.252987 
L 147.639564 218.310472 
L 145.715036 222.437636 
L 143.935716 226.62945 
L 142.303773 230.880809 
L 140.821193 235.186532 
L 139.489785 239.541373 
L 138.311169 243.940027 
L 137.286782 248.377134 
L 136.417872 252.847289 
L 135.705497 257.345046 
L 135.150526 261.864924 
L 134.753634 266.401416 
L 134.515306 270.948997 
L 134.435831 275.502125 
L 134.515306 280.055253 
L 134.753634 284.602834 
L 135.150526 289.139326 
L 135.705497 293.659204 
L 136.417872 298.156961 
L 137.286782 302.627116 
L 138.311169 307.064223 
L 139.489785 311.462877 
L 140.821193 315.817718 
L 142.303773 320.123441 
L 143.935716 324.3748 
L 145.715036 328.566614 
L 147.639564 332.693778 
L 149.706956 336.751263 
L 151.914692 340.734125 
L 154.260084 344.637512 
L 156.740273 348.456668 
L 159.352238 352.18694 
L 162.092796 355.823784 
L 164.958608 359.362768 
L 167.946184 362.79958 
L 171.051883 366.130035 
L 174.271921 369.350073 
L 177.602375 372.455772 
L 181.039188 375.443347 
L 184.578172 378.30916 
L 188.215016 381.049718 
L 191.945288 383.661683 
L 195.764444 386.141872 
L 199.667831 388.487263 
L 203.650693 390.695 
L 207.708177 392.762391 
L 211.835341 394.68692 
L 216.027156 396.466239 
L 220.278515 398.098183 
L 224.584238 399.580762 
L 228.939079 400.912171 
L 233.337732 402.090787 
L 237.77484 403.115174 
L 242.244995 403.984084 
L 246.742751 404.696458 
L 251.262629 405.25143 
L 255.799122 405.648321 
L 260.346703 405.88665 
L 264.899831 405.966125 
L 269.452959 405.88665 
L 274.000539 405.648321 
L 278.537032 405.25143 
L 283.05691 404.696458 
L 287.554667 403.984084 
L 292.024822 403.115174 
L 296.461929 402.090787 
L 300.860583 400.912171 
L 305.215424 399.580762 
L 309.521147 398.098183 
L 313.772505 396.466239 
L 317.96432 394.68692 
L 322.091484 392.762391 
L 326.148969 390.695 
L 330.131831 388.487263 
L 334.035218 386.141872 
L 337.854374 383.661683 
L 341.584646 381.049718 
L 345.221489 378.30916 
L 348.760473 375.443347 
L 352.197286 372.455772 
L 355.52774 369.350073 
L 358.747778 366.130035 
L 361.853477 362.79958 
L 364.841053 359.362768 
L 367.706866 355.823784 
L 370.447424 352.18694 
L 373.059389 348.456668 
L 375.539577 344.637512 
L 377.884969 340.734125 
L 380.092705 336.751263 
L 382.160097 332.693778 
L 384.084625 328.566614 
L 385.863945 324.3748 
L 387.495889 320.123441 
L 388.978468 315.817718 
L 390.309877 311.462877 
L 391.488492 307.064223 
L 392.512879 302.627116 
L 393.381789 298.156961 
L 394.094164 293.659204 
L 394.649135 289.139326 
L 395.046027 284.602834 
L 395.284356 280.055253 
L 395.363831 275.502125 
L 395.363831 275.502125 
" style="fill:none;stroke:#b0b0b0;stroke-linecap:square;stroke-width:0.8;"/>
     </g>
     <g id="text_8">
      <!-- 60% -->
      <defs>
       <path d="M 33.015625 40.375 
Q 26.375 40.375 22.484375 35.828125 
Q 18.609375 31.296875 18.609375 23.390625 
Q 18.609375 15.53125 22.484375 10.953125 
Q 26.375 6.390625 33.015625 6.390625 
Q 39.65625 6.390625 43.53125 10.953125 
Q 47.40625 15.53125 47.40625 23.390625 
Q 47.40625 31.296875 43.53125 35.828125 
Q 39.65625 40.375 33.015625 40.375 
z
M 52.59375 71.296875 
L 52.59375 62.3125 
Q 48.875 64.0625 45.09375 64.984375 
Q 41.3125 65.921875 37.59375 65.921875 
Q 27.828125 65.921875 22.671875 59.328125 
Q 17.53125 52.734375 16.796875 39.40625 
Q 19.671875 43.65625 24.015625 45.921875 
Q 28.375 48.1875 33.59375 48.1875 
Q 44.578125 48.1875 50.953125 41.515625 
Q 57.328125 34.859375 57.328125 23.390625 
Q 57.328125 12.15625 50.6875 5.359375 
Q 44.046875 -1.421875 33.015625 -1.421875 
Q 20.359375 -1.421875 13.671875 8.265625 
Q 6.984375 17.96875 6.984375 36.375 
Q 6.984375 53.65625 15.1875 63.9375 
Q 23.390625 74.21875 37.203125 74.21875 
Q 40.921875 74.21875 44.703125 73.484375 
Q 48.484375 72.75 52.59375 71.296875 
z
" id="DejaVuSans-54"/>
      </defs>
      <g transform="translate(385.43285 223.496026)scale(0.1 -0.1)">
       <use xlink:href="#DejaVuSans-54"/>
       <use x="63.623047" xlink:href="#DejaVuSans-48"/>
       <use x="127.246094" xlink:href="#DejaVuSans-37"/>
      </g>
     </g>
    </g>
    <g id="ytick_4">
     <g id="line2d_9">
      <path clip-path="url(#p4db1df1d9e)" d="M 438.851831 275.502125 
L 438.745864 269.431288 
L 438.428092 263.367847 
L 437.898903 257.31919 
L 437.158942 251.292686 
L 436.209109 245.295677 
L 435.050562 239.335471 
L 433.684713 233.419327 
L 432.113225 227.554456 
L 430.338014 221.748001 
L 428.361241 216.007037 
L 426.185317 210.338559 
L 423.81289 204.749472 
L 421.246853 199.246587 
L 418.49033 193.836608 
L 415.546682 188.526125 
L 412.419493 183.321609 
L 409.112574 178.229401 
L 405.629955 173.255705 
L 401.975877 168.40658 
L 398.154794 163.687935 
L 394.171359 159.105518 
L 390.030428 154.664912 
L 385.737044 150.371528 
L 381.296438 146.230596 
L 376.714021 142.247162 
L 371.995376 138.426078 
L 367.146251 134.772001 
L 362.172555 131.289381 
L 357.080347 127.982463 
L 351.875831 124.855274 
L 346.565348 121.911625 
L 341.155368 119.155103 
L 335.652483 116.589066 
L 330.063397 114.216639 
L 324.394919 112.040714 
L 318.653955 110.063942 
L 312.8475 108.28873 
L 306.982628 106.717243 
L 301.066485 105.351394 
L 295.106278 104.192847 
L 289.10927 103.243014 
L 283.082766 102.503052 
L 277.034109 101.973863 
L 270.970668 101.656092 
L 264.899831 101.550125 
L 258.828993 101.656092 
L 252.765553 101.973863 
L 246.716895 102.503052 
L 240.690391 103.243014 
L 234.693383 104.192847 
L 228.733176 105.351394 
L 222.817033 106.717243 
L 216.952161 108.28873 
L 211.145706 110.063942 
L 205.404743 112.040714 
L 199.736265 114.216639 
L 194.147178 116.589066 
L 188.644293 119.155103 
L 183.234313 121.911625 
L 177.923831 124.855274 
L 172.719315 127.982463 
L 167.627107 131.289381 
L 162.65341 134.772001 
L 157.804286 138.426078 
L 153.08564 142.247162 
L 148.503223 146.230596 
L 144.062618 150.371528 
L 139.769234 154.664912 
L 135.628302 159.105518 
L 131.644868 163.687935 
L 127.823784 168.40658 
L 124.169706 173.255705 
L 120.687087 178.229401 
L 117.380168 183.321609 
L 114.25298 188.526125 
L 111.309331 193.836608 
L 108.552809 199.246587 
L 105.986771 204.749472 
L 103.614345 210.338559 
L 101.43842 216.007037 
L 99.461648 221.748001 
L 97.686436 227.554456 
L 96.114949 233.419327 
L 94.749099 239.335471 
L 93.590552 245.295677 
L 92.64072 251.292686 
L 91.900758 257.31919 
L 91.371569 263.367847 
L 91.053798 269.431288 
L 90.947831 275.502125 
L 91.053798 281.572962 
L 91.371569 287.636403 
L 91.900758 293.68506 
L 92.64072 299.711564 
L 93.590552 305.708573 
L 94.749099 311.668779 
L 96.114949 317.584923 
L 97.686436 323.449794 
L 99.461648 329.256249 
L 101.43842 334.997213 
L 103.614345 340.665691 
L 105.986771 346.254778 
L 108.552809 351.757663 
L 111.309331 357.167642 
L 114.25298 362.478125 
L 117.380168 367.682641 
L 120.687087 372.774849 
L 124.169706 377.748545 
L 127.823784 382.59767 
L 131.644868 387.316315 
L 135.628302 391.898732 
L 139.769234 396.339338 
L 144.062618 400.632722 
L 148.503223 404.773654 
L 153.08564 408.757088 
L 157.804286 412.578172 
L 162.65341 416.232249 
L 167.627107 419.714869 
L 172.719315 423.021787 
L 177.923831 426.148976 
L 183.234313 429.092625 
L 188.644293 431.849147 
L 194.147178 434.415184 
L 199.736265 436.787611 
L 205.404743 438.963536 
L 211.145706 440.940308 
L 216.952161 442.71552 
L 222.817033 444.287007 
L 228.733176 445.652856 
L 234.693383 446.811403 
L 240.690391 447.761236 
L 246.716895 448.501198 
L 252.765553 449.030387 
L 258.828993 449.348158 
L 264.899831 449.454125 
L 270.970668 449.348158 
L 277.034109 449.030387 
L 283.082766 448.501198 
L 289.10927 447.761236 
L 295.106278 446.811403 
L 301.066485 445.652856 
L 306.982628 444.287007 
L 312.8475 442.71552 
L 318.653955 440.940308 
L 324.394919 438.963536 
L 330.063397 436.787611 
L 335.652483 434.415184 
L 341.155368 431.849147 
L 346.565348 429.092625 
L 351.875831 426.148976 
L 357.080347 423.021787 
L 362.172555 419.714869 
L 367.146251 416.232249 
L 371.995376 412.578172 
L 376.714021 408.757088 
L 381.296438 404.773654 
L 385.737044 400.632722 
L 390.030428 396.339338 
L 394.171359 391.898732 
L 398.154794 387.316315 
L 401.975877 382.59767 
L 405.629955 377.748545 
L 409.112574 372.774849 
L 412.419493 367.682641 
L 415.546682 362.478125 
L 418.49033 357.167642 
L 421.246853 351.757663 
L 423.81289 346.254778 
L 426.185317 340.665691 
L 428.361241 334.997213 
L 430.338014 329.256249 
L 432.113225 323.449794 
L 433.684713 317.584923 
L 435.050562 311.668779 
L 436.209109 305.708573 
L 437.158942 299.711564 
L 437.898903 293.68506 
L 438.428092 287.636403 
L 438.745864 281.572962 
L 438.851831 275.502125 
L 438.851831 275.502125 
" style="fill:none;stroke:#b0b0b0;stroke-linecap:square;stroke-width:0.8;"/>
     </g>
     <g id="text_9">
      <!-- 80% -->
      <defs>
       <path d="M 31.78125 34.625 
Q 24.75 34.625 20.71875 30.859375 
Q 16.703125 27.09375 16.703125 20.515625 
Q 16.703125 13.921875 20.71875 10.15625 
Q 24.75 6.390625 31.78125 6.390625 
Q 38.8125 6.390625 42.859375 10.171875 
Q 46.921875 13.96875 46.921875 20.515625 
Q 46.921875 27.09375 42.890625 30.859375 
Q 38.875 34.625 31.78125 34.625 
z
M 21.921875 38.8125 
Q 15.578125 40.375 12.03125 44.71875 
Q 8.5 49.078125 8.5 55.328125 
Q 8.5 64.0625 14.71875 69.140625 
Q 20.953125 74.21875 31.78125 74.21875 
Q 42.671875 74.21875 48.875 69.140625 
Q 55.078125 64.0625 55.078125 55.328125 
Q 55.078125 49.078125 51.53125 44.71875 
Q 48 40.375 41.703125 38.8125 
Q 48.828125 37.15625 52.796875 32.3125 
Q 56.78125 27.484375 56.78125 20.515625 
Q 56.78125 9.90625 50.3125 4.234375 
Q 43.84375 -1.421875 31.78125 -1.421875 
Q 19.734375 -1.421875 13.25 4.234375 
Q 6.78125 9.90625 6.78125 20.515625 
Q 6.78125 27.484375 10.78125 32.3125 
Q 14.796875 37.15625 21.921875 38.8125 
z
M 18.3125 54.390625 
Q 18.3125 48.734375 21.84375 45.5625 
Q 25.390625 42.390625 31.78125 42.390625 
Q 38.140625 42.390625 41.71875 45.5625 
Q 45.3125 48.734375 45.3125 54.390625 
Q 45.3125 60.0625 41.71875 63.234375 
Q 38.140625 66.40625 31.78125 66.40625 
Q 25.390625 66.40625 21.84375 63.234375 
Q 18.3125 60.0625 18.3125 54.390625 
z
" id="DejaVuSans-56"/>
      </defs>
      <g transform="translate(425.610523 206.853889)scale(0.1 -0.1)">
       <use xlink:href="#DejaVuSans-56"/>
       <use x="63.623047" xlink:href="#DejaVuSans-48"/>
       <use x="127.246094" xlink:href="#DejaVuSans-37"/>
      </g>
     </g>
    </g>
    <g id="ytick_5">
     <g id="line2d_10">
      <path clip-path="url(#p4db1df1d9e)" d="M 482.339831 275.502125 
L 482.207372 267.913578 
L 481.810158 260.334277 
L 481.148672 252.773456 
L 480.22372 245.240326 
L 479.036428 237.744065 
L 477.588245 230.293807 
L 475.880933 222.898628 
L 473.916574 215.567538 
L 471.69756 208.30947 
L 469.226594 201.133265 
L 466.506688 194.047667 
L 463.541155 187.061309 
L 460.333608 180.182703 
L 456.887955 173.420228 
L 453.208394 166.782125 
L 449.299409 160.27648 
L 445.16576 153.91122 
L 440.812486 147.6941 
L 436.244889 141.632694 
L 431.468534 135.734387 
L 426.489242 130.006366 
L 421.313077 124.455609 
L 415.946347 119.088879 
L 410.39559 113.912714 
L 404.667569 108.933421 
L 398.769262 104.157067 
L 392.707856 99.58947 
L 386.490736 95.236195 
L 380.125475 91.102547 
L 373.619831 87.193561 
L 366.981727 83.514 
L 360.219253 80.068348 
L 353.340646 76.860801 
L 346.354288 73.895268 
L 339.268691 71.175362 
L 332.092486 68.704396 
L 324.834417 66.485382 
L 317.503328 64.521022 
L 310.108149 62.813711 
L 302.65789 61.365527 
L 295.16163 60.178236 
L 287.6285 59.253284 
L 280.067678 58.591798 
L 272.488377 58.194584 
L 264.899831 58.062125 
L 257.311284 58.194584 
L 249.731983 58.591798 
L 242.171162 59.253284 
L 234.638032 60.178236 
L 227.141771 61.365527 
L 219.691513 62.813711 
L 212.296334 64.521022 
L 204.965244 66.485382 
L 197.707175 68.704396 
L 190.530971 71.175362 
L 183.445373 73.895268 
L 176.459015 76.860801 
L 169.580409 80.068348 
L 162.817934 83.514 
L 156.179831 87.193561 
L 149.674186 91.102547 
L 143.308926 95.236195 
L 137.091805 99.58947 
L 131.030399 104.157067 
L 125.132093 108.933421 
L 119.404072 113.912714 
L 113.853315 119.088879 
L 108.486584 124.455609 
L 103.31042 130.006366 
L 98.331127 135.734387 
L 93.554772 141.632694 
L 88.987175 147.6941 
L 84.633901 153.91122 
L 80.500253 160.27648 
L 76.591267 166.782125 
L 72.911706 173.420228 
L 69.466053 180.182703 
L 66.258506 187.061309 
L 63.292973 194.047667 
L 60.573067 201.133265 
L 58.102102 208.30947 
L 55.883088 215.567538 
L 53.918728 222.898628 
L 52.211416 230.293807 
L 50.763233 237.744065 
L 49.575942 245.240326 
L 48.65099 252.773456 
L 47.989504 260.334277 
L 47.592289 267.913578 
L 47.459831 275.502125 
L 47.592289 283.090672 
L 47.989504 290.669973 
L 48.65099 298.230794 
L 49.575942 305.763924 
L 50.763233 313.260185 
L 52.211416 320.710443 
L 53.918728 328.105622 
L 55.883088 335.436712 
L 58.102102 342.69478 
L 60.573067 349.870985 
L 63.292973 356.956583 
L 66.258506 363.942941 
L 69.466053 370.821547 
L 72.911706 377.584022 
L 76.591267 384.222125 
L 80.500253 390.72777 
L 84.633901 397.09303 
L 88.987175 403.31015 
L 93.554772 409.371556 
L 98.331127 415.269863 
L 103.31042 420.997884 
L 108.486584 426.548641 
L 113.853315 431.915371 
L 119.404072 437.091536 
L 125.132093 442.070829 
L 131.030399 446.847183 
L 137.091805 451.41478 
L 143.308926 455.768055 
L 149.674186 459.901703 
L 156.179831 463.810689 
L 162.817934 467.49025 
L 169.580409 470.935902 
L 176.459015 474.143449 
L 183.445373 477.108982 
L 190.530971 479.828888 
L 197.707175 482.299854 
L 204.965244 484.518868 
L 212.296334 486.483228 
L 219.691513 488.190539 
L 227.141771 489.638723 
L 234.638032 490.826014 
L 242.171162 491.750966 
L 249.731983 492.412452 
L 257.311284 492.809666 
L 264.899831 492.942125 
L 272.488377 492.809666 
L 280.067678 492.412452 
L 287.6285 491.750966 
L 295.16163 490.826014 
L 302.65789 489.638723 
L 310.108149 488.190539 
L 317.503328 486.483228 
L 324.834417 484.518868 
L 332.092486 482.299854 
L 339.268691 479.828888 
L 346.354288 477.108982 
L 353.340646 474.143449 
L 360.219253 470.935902 
L 366.981727 467.49025 
L 373.619831 463.810689 
L 380.125475 459.901703 
L 386.490736 455.768055 
L 392.707856 451.41478 
L 398.769262 446.847183 
L 404.667569 442.070829 
L 410.39559 437.091536 
L 415.946347 431.915371 
L 421.313077 426.548641 
L 426.489242 420.997884 
L 431.468534 415.269863 
L 436.244889 409.371556 
L 440.812486 403.31015 
L 445.16576 397.09303 
L 449.299409 390.72777 
L 453.208394 384.222125 
L 456.887955 377.584022 
L 460.333608 370.821547 
L 463.541155 363.942941 
L 466.506688 356.956583 
L 469.226594 349.870985 
L 471.69756 342.69478 
L 473.916574 335.436712 
L 475.880933 328.105622 
L 477.588245 320.710443 
L 479.036428 313.260185 
L 480.22372 305.763924 
L 481.148672 298.230794 
L 481.810158 290.669973 
L 482.207372 283.090672 
L 482.339831 275.502125 
L 482.339831 275.502125 
" style="fill:none;stroke:#b0b0b0;stroke-linecap:square;stroke-width:0.8;"/>
     </g>
     <g id="text_10">
      <!-- 100% -->
      <defs>
       <path d="M 12.40625 8.296875 
L 28.515625 8.296875 
L 28.515625 63.921875 
L 10.984375 60.40625 
L 10.984375 69.390625 
L 28.421875 72.90625 
L 38.28125 72.90625 
L 38.28125 8.296875 
L 54.390625 8.296875 
L 54.390625 0 
L 12.40625 0 
z
" id="DejaVuSans-49"/>
      </defs>
      <g transform="translate(465.788196 190.211752)scale(0.1 -0.1)">
       <use xlink:href="#DejaVuSans-49"/>
       <use x="63.623047" xlink:href="#DejaVuSans-48"/>
       <use x="127.246094" xlink:href="#DejaVuSans-48"/>
       <use x="190.869141" xlink:href="#DejaVuSans-37"/>
      </g>
     </g>
    </g>
   </g>
   <g id="line2d_11">
    <path clip-path="url(#p4db1df1d9e)" d="M 373.619831 275.502125 
L 298.496158 172.103261 
L 176.943503 211.598112 
L 264.899831 275.502125 
L 281.697994 327.201557 
L 373.619831 275.502125 
" style="fill:none;stroke:#1f77b4;stroke-linecap:square;stroke-width:1.5;"/>
   </g>
   <g id="patch_4">
    <path d="M 482.339831 275.502125 
C 482.339831 246.948166 476.715323 218.671858 465.788196 192.291439 
C 454.861069 165.911021 438.843827 141.939525 418.653129 121.748826 
C 398.462431 101.558128 374.490935 85.540887 348.110516 74.613759 
C 321.730098 63.686632 293.45379 58.062125 264.899831 58.062125 
C 236.345872 58.062125 208.069564 63.686632 181.689145 74.613759 
C 155.308727 85.540887 131.33723 101.558128 111.146532 121.748826 
C 90.955834 141.939525 74.938592 165.911021 64.011465 192.291439 
C 53.084338 218.671858 47.459831 246.948166 47.459831 275.502125 
C 47.459831 304.056084 53.084338 332.332392 64.011465 358.712811 
C 74.938592 385.093229 90.955834 409.064725 111.146532 429.255424 
C 131.33723 449.446122 155.308727 465.463363 181.689145 476.390491 
C 208.069564 487.317618 236.345872 492.942125 264.899831 492.942125 
C 293.45379 492.942125 321.730098 487.317618 348.110516 476.390491 
C 374.490935 465.463363 398.462431 449.446122 418.653129 429.255424 
C 438.843827 409.064725 454.861069 385.093229 465.788196 358.712811 
C 476.715323 332.332392 482.339831 304.056084 482.339831 275.502125 
" style="fill:none;stroke:#000000;stroke-linecap:square;stroke-linejoin:miter;stroke-width:0.8;"/>
   </g>
   <g id="text_11">
    <!-- * out of 4 patients expired as of 14/04/2020 -->
    <defs>
     <path d="M 47.015625 60.890625 
L 29.5 51.421875 
L 47.015625 41.890625 
L 44.1875 37.109375 
L 27.78125 47.015625 
L 27.78125 28.609375 
L 22.21875 28.609375 
L 22.21875 47.015625 
L 5.8125 37.109375 
L 2.984375 41.890625 
L 20.515625 51.421875 
L 2.984375 60.890625 
L 5.8125 65.71875 
L 22.21875 55.8125 
L 22.21875 74.21875 
L 27.78125 74.21875 
L 27.78125 55.8125 
L 44.1875 65.71875 
z
" id="DejaVuSans-42"/>
     <path d="M 37.109375 75.984375 
L 37.109375 68.5 
L 28.515625 68.5 
Q 23.6875 68.5 21.796875 66.546875 
Q 19.921875 64.59375 19.921875 59.515625 
L 19.921875 54.6875 
L 34.71875 54.6875 
L 34.71875 47.703125 
L 19.921875 47.703125 
L 19.921875 0 
L 10.890625 0 
L 10.890625 47.703125 
L 2.296875 47.703125 
L 2.296875 54.6875 
L 10.890625 54.6875 
L 10.890625 58.5 
Q 10.890625 67.625 15.140625 71.796875 
Q 19.390625 75.984375 28.609375 75.984375 
z
" id="DejaVuSans-102"/>
     <path d="M 54.890625 54.6875 
L 35.109375 28.078125 
L 55.90625 0 
L 45.3125 0 
L 29.390625 21.484375 
L 13.484375 0 
L 2.875 0 
L 24.125 28.609375 
L 4.6875 54.6875 
L 15.28125 54.6875 
L 29.78125 35.203125 
L 44.28125 54.6875 
z
" id="DejaVuSans-120"/>
     <path d="M 45.40625 46.390625 
L 45.40625 75.984375 
L 54.390625 75.984375 
L 54.390625 0 
L 45.40625 0 
L 45.40625 8.203125 
Q 42.578125 3.328125 38.25 0.953125 
Q 33.9375 -1.421875 27.875 -1.421875 
Q 17.96875 -1.421875 11.734375 6.484375 
Q 5.515625 14.40625 5.515625 27.296875 
Q 5.515625 40.1875 11.734375 48.09375 
Q 17.96875 56 27.875 56 
Q 33.9375 56 38.25 53.625 
Q 42.578125 51.265625 45.40625 46.390625 
z
M 14.796875 27.296875 
Q 14.796875 17.390625 18.875 11.75 
Q 22.953125 6.109375 30.078125 6.109375 
Q 37.203125 6.109375 41.296875 11.75 
Q 45.40625 17.390625 45.40625 27.296875 
Q 45.40625 37.203125 41.296875 42.84375 
Q 37.203125 48.484375 30.078125 48.484375 
Q 22.953125 48.484375 18.875 42.84375 
Q 14.796875 37.203125 14.796875 27.296875 
z
" id="DejaVuSans-100"/>
     <path d="M 25.390625 72.90625 
L 33.6875 72.90625 
L 8.296875 -9.28125 
L 0 -9.28125 
z
" id="DejaVuSans-47"/>
    </defs>
    <g transform="translate(482.339831 556.094437)scale(0.1 -0.1)">
     <use xlink:href="#DejaVuSans-42"/>
     <use x="50" xlink:href="#DejaVuSans-32"/>
     <use x="81.787109" xlink:href="#DejaVuSans-111"/>
     <use x="142.96875" xlink:href="#DejaVuSans-117"/>
     <use x="206.347656" xlink:href="#DejaVuSans-116"/>
     <use x="245.556641" xlink:href="#DejaVuSans-32"/>
     <use x="277.34375" xlink:href="#DejaVuSans-111"/>
     <use x="338.525391" xlink:href="#DejaVuSans-102"/>
     <use x="373.730469" xlink:href="#DejaVuSans-32"/>
     <use x="405.517578" xlink:href="#DejaVuSans-52"/>
     <use x="469.140625" xlink:href="#DejaVuSans-32"/>
     <use x="500.927734" xlink:href="#DejaVuSans-112"/>
     <use x="564.404297" xlink:href="#DejaVuSans-97"/>
     <use x="625.683594" xlink:href="#DejaVuSans-116"/>
     <use x="664.892578" xlink:href="#DejaVuSans-105"/>
     <use x="692.675781" xlink:href="#DejaVuSans-101"/>
     <use x="754.199219" xlink:href="#DejaVuSans-110"/>
     <use x="817.578125" xlink:href="#DejaVuSans-116"/>
     <use x="856.787109" xlink:href="#DejaVuSans-115"/>
     <use x="908.886719" xlink:href="#DejaVuSans-32"/>
     <use x="940.673828" xlink:href="#DejaVuSans-101"/>
     <use x="1000.447266" xlink:href="#DejaVuSans-120"/>
     <use x="1059.626953" xlink:href="#DejaVuSans-112"/>
     <use x="1123.103516" xlink:href="#DejaVuSans-105"/>
     <use x="1150.886719" xlink:href="#DejaVuSans-114"/>
     <use x="1189.75" xlink:href="#DejaVuSans-101"/>
     <use x="1251.273438" xlink:href="#DejaVuSans-100"/>
     <use x="1314.75" xlink:href="#DejaVuSans-32"/>
     <use x="1346.537109" xlink:href="#DejaVuSans-97"/>
     <use x="1407.816406" xlink:href="#DejaVuSans-115"/>
     <use x="1459.916016" xlink:href="#DejaVuSans-32"/>
     <use x="1491.703125" xlink:href="#DejaVuSans-111"/>
     <use x="1552.884766" xlink:href="#DejaVuSans-102"/>
     <use x="1588.089844" xlink:href="#DejaVuSans-32"/>
     <use x="1619.876953" xlink:href="#DejaVuSans-49"/>
     <use x="1683.5" xlink:href="#DejaVuSans-52"/>
     <use x="1747.123047" xlink:href="#DejaVuSans-47"/>
     <use x="1780.814453" xlink:href="#DejaVuSans-48"/>
     <use x="1844.4375" xlink:href="#DejaVuSans-52"/>
     <use x="1908.060547" xlink:href="#DejaVuSans-47"/>
     <use x="1941.751953" xlink:href="#DejaVuSans-50"/>
     <use x="2005.375" xlink:href="#DejaVuSans-48"/>
     <use x="2068.998047" xlink:href="#DejaVuSans-50"/>
     <use x="2132.621094" xlink:href="#DejaVuSans-48"/>
    </g>
   </g>
   <g id="text_12">
    <!-- Underlying conditions of the expired patients -->
    <defs>
     <path d="M 8.6875 72.90625 
L 18.609375 72.90625 
L 18.609375 28.609375 
Q 18.609375 16.890625 22.84375 11.734375 
Q 27.09375 6.59375 36.625 6.59375 
Q 46.09375 6.59375 50.34375 11.734375 
Q 54.59375 16.890625 54.59375 28.609375 
L 54.59375 72.90625 
L 64.5 72.90625 
L 64.5 27.390625 
Q 64.5 13.140625 57.4375 5.859375 
Q 50.390625 -1.421875 36.625 -1.421875 
Q 22.796875 -1.421875 15.734375 5.859375 
Q 8.6875 13.140625 8.6875 27.390625 
z
" id="DejaVuSans-85"/>
     <path d="M 45.40625 27.984375 
Q 45.40625 37.75 41.375 43.109375 
Q 37.359375 48.484375 30.078125 48.484375 
Q 22.859375 48.484375 18.828125 43.109375 
Q 14.796875 37.75 14.796875 27.984375 
Q 14.796875 18.265625 18.828125 12.890625 
Q 22.859375 7.515625 30.078125 7.515625 
Q 37.359375 7.515625 41.375 12.890625 
Q 45.40625 18.265625 45.40625 27.984375 
z
M 54.390625 6.78125 
Q 54.390625 -7.171875 48.1875 -13.984375 
Q 42 -20.796875 29.203125 -20.796875 
Q 24.46875 -20.796875 20.265625 -20.09375 
Q 16.0625 -19.390625 12.109375 -17.921875 
L 12.109375 -9.1875 
Q 16.0625 -11.328125 19.921875 -12.34375 
Q 23.78125 -13.375 27.78125 -13.375 
Q 36.625 -13.375 41.015625 -8.765625 
Q 45.40625 -4.15625 45.40625 5.171875 
L 45.40625 9.625 
Q 42.625 4.78125 38.28125 2.390625 
Q 33.9375 0 27.875 0 
Q 17.828125 0 11.671875 7.65625 
Q 5.515625 15.328125 5.515625 27.984375 
Q 5.515625 40.671875 11.671875 48.328125 
Q 17.828125 56 27.875 56 
Q 33.9375 56 38.28125 53.609375 
Q 42.625 51.21875 45.40625 46.390625 
L 45.40625 54.6875 
L 54.390625 54.6875 
z
" id="DejaVuSans-103"/>
    </defs>
    <g transform="translate(129.286706 16.318125)scale(0.12 -0.12)">
     <use xlink:href="#DejaVuSans-85"/>
     <use x="73.193359" xlink:href="#DejaVuSans-110"/>
     <use x="136.572266" xlink:href="#DejaVuSans-100"/>
     <use x="200.048828" xlink:href="#DejaVuSans-101"/>
     <use x="261.572266" xlink:href="#DejaVuSans-114"/>
     <use x="302.685547" xlink:href="#DejaVuSans-108"/>
     <use x="330.46875" xlink:href="#DejaVuSans-121"/>
     <use x="389.648438" xlink:href="#DejaVuSans-105"/>
     <use x="417.431641" xlink:href="#DejaVuSans-110"/>
     <use x="480.810547" xlink:href="#DejaVuSans-103"/>
     <use x="544.287109" xlink:href="#DejaVuSans-32"/>
     <use x="576.074219" xlink:href="#DejaVuSans-99"/>
     <use x="631.054688" xlink:href="#DejaVuSans-111"/>
     <use x="692.236328" xlink:href="#DejaVuSans-110"/>
     <use x="755.615234" xlink:href="#DejaVuSans-100"/>
     <use x="819.091797" xlink:href="#DejaVuSans-105"/>
     <use x="846.875" xlink:href="#DejaVuSans-116"/>
     <use x="886.083984" xlink:href="#DejaVuSans-105"/>
     <use x="913.867188" xlink:href="#DejaVuSans-111"/>
     <use x="975.048828" xlink:href="#DejaVuSans-110"/>
     <use x="1038.427734" xlink:href="#DejaVuSans-115"/>
     <use x="1090.527344" xlink:href="#DejaVuSans-32"/>
     <use x="1122.314453" xlink:href="#DejaVuSans-111"/>
     <use x="1183.496094" xlink:href="#DejaVuSans-102"/>
     <use x="1218.701172" xlink:href="#DejaVuSans-32"/>
     <use x="1250.488281" xlink:href="#DejaVuSans-116"/>
     <use x="1289.697266" xlink:href="#DejaVuSans-104"/>
     <use x="1353.076172" xlink:href="#DejaVuSans-101"/>
     <use x="1414.599609" xlink:href="#DejaVuSans-32"/>
     <use x="1446.386719" xlink:href="#DejaVuSans-101"/>
     <use x="1506.160156" xlink:href="#DejaVuSans-120"/>
     <use x="1565.339844" xlink:href="#DejaVuSans-112"/>
     <use x="1628.816406" xlink:href="#DejaVuSans-105"/>
     <use x="1656.599609" xlink:href="#DejaVuSans-114"/>
     <use x="1695.462891" xlink:href="#DejaVuSans-101"/>
     <use x="1756.986328" xlink:href="#DejaVuSans-100"/>
     <use x="1820.462891" xlink:href="#DejaVuSans-32"/>
     <use x="1852.25" xlink:href="#DejaVuSans-112"/>
     <use x="1915.726562" xlink:href="#DejaVuSans-97"/>
     <use x="1977.005859" xlink:href="#DejaVuSans-116"/>
     <use x="2016.214844" xlink:href="#DejaVuSans-105"/>
     <use x="2043.998047" xlink:href="#DejaVuSans-101"/>
     <use x="2105.521484" xlink:href="#DejaVuSans-110"/>
     <use x="2168.900391" xlink:href="#DejaVuSans-116"/>
     <use x="2208.109375" xlink:href="#DejaVuSans-115"/>
    </g>
   </g>
  </g>
 </g>
 <defs>
  <clipPath id="p4db1df1d9e">
   <path d="M 482.339831 275.502125 
C 482.339831 246.948166 476.715323 218.671858 465.788196 192.291439 
C 454.861069 165.911021 438.843827 141.939525 418.653129 121.748826 
C 398.462431 101.558128 374.490935 85.540887 348.110516 74.613759 
C 321.730098 63.686632 293.45379 58.062125 264.899831 58.062125 
C 236.345872 58.062125 208.069564 63.686632 181.689145 74.613759 
C 155.308727 85.540887 131.33723 101.558128 111.146532 121.748826 
C 90.955834 141.939525 74.938592 165.911021 64.011465 192.291439 
C 53.084338 218.671858 47.459831 246.948166 47.459831 275.502125 
C 47.459831 304.056084 53.084338 332.332392 64.011465 358.712811 
C 74.938592 385.093229 90.955834 409.064725 111.146532 429.255424 
C 131.33723 449.446122 155.308727 465.463363 181.689145 476.390491 
C 208.069564 487.317618 236.345872 492.942125 264.899831 492.942125 
C 293.45379 492.942125 321.730098 487.317618 348.110516 476.390491 
C 374.490935 465.463363 398.462431 449.446122 418.653129 429.255424 
C 438.843827 409.064725 454.861069 385.093229 465.788196 358.712811 
C 476.715323 332.332392 482.339831 304.056084 482.339831 275.502125 
M 264.899831 275.502125 
C 264.899831 275.502125 264.899831 275.502125 264.899831 275.502125 
C 264.899831 275.502125 264.899831 275.502125 264.899831 275.502125 
C 264.899831 275.502125 264.899831 275.502125 264.899831 275.502125 
C 264.899831 275.502125 264.899831 275.502125 264.899831 275.502125 
C 264.899831 275.502125 264.899831 275.502125 264.899831 275.502125 
C 264.899831 275.502125 264.899831 275.502125 264.899831 275.502125 
C 264.899831 275.502125 264.899831 275.502125 264.899831 275.502125 
C 264.899831 275.502125 264.899831 275.502125 264.899831 275.502125 
C 264.899831 275.502125 264.899831 275.502125 264.899831 275.502125 
C 264.899831 275.502125 264.899831 275.502125 264.899831 275.502125 
C 264.899831 275.502125 264.899831 275.502125 264.899831 275.502125 
C 264.899831 275.502125 264.899831 275.502125 264.899831 275.502125 
C 264.899831 275.502125 264.899831 275.502125 264.899831 275.502125 
C 264.899831 275.502125 264.899831 275.502125 264.899831 275.502125 
C 264.899831 275.502125 264.899831 275.502125 264.899831 275.502125 
C 264.899831 275.502125 264.899831 275.502125 264.899831 275.502125 
M 482.339831 275.502125 
z
"/>
  </clipPath>
 </defs>
</svg>
