<?xml version="1.0" encoding="utf-8" standalone="no"?>
<!DOCTYPE svg PUBLIC "-//W3C//DTD SVG 1.1//EN"
  "http://www.w3.org/Graphics/SVG/1.1/DTD/svg11.dtd">
<!-- Created with matplotlib (https://matplotlib.org/) -->
<svg height="422.611781pt" version="1.1" viewBox="0 0 363.490079 422.611781" width="363.490079pt" xmlns="http://www.w3.org/2000/svg" xmlns:xlink="http://www.w3.org/1999/xlink">
 <defs>
  <style type="text/css">
*{stroke-linecap:butt;stroke-linejoin:round;}
  </style>
 </defs>
 <g id="figure_1">
  <g id="patch_1">
   <path d="M 0 422.611781 
L 363.490079 422.611781 
L 363.490079 0 
L 0 0 
z
" style="fill:#ffffff;"/>
  </g>
  <g id="axes_1">
   <g id="patch_2">
    <path d="M 356.290079 239.758125 
C 356.290079 199.379515 342.230751 160.234141 316.540166 129.08248 
C 290.84958 97.930819 255.097012 76.675728 215.456994 68.987999 
C 175.816977 61.300271 134.710867 67.649499 99.237763 86.939161 
C 63.764659 106.228824 36.091388 137.280636 20.997174 174.731896 
L 77.466491 197.491076 
C 87.27773 173.147757 105.265356 152.964079 128.322874 140.425799 
C 151.380391 127.887518 178.099363 123.76052 203.865374 128.757543 
C 229.631386 133.754567 252.870555 147.570376 269.569435 167.818956 
C 286.268316 188.067535 295.406879 213.512028 295.406879 239.758125 
L 356.290079 239.758125 
z
" style="fill:#6495ed;stroke:#ffffff;stroke-linejoin:miter;"/>
   </g>
   <g id="patch_3">
    <path d="M 20.997174 174.731896 
C 11.408769 198.522326 7.2 224.141675 8.673246 249.749323 
C 10.146493 275.356971 17.265607 300.32461 29.519116 322.858442 
C 41.772625 345.392274 58.859878 364.939411 79.553243 380.095489 
C 100.246608 395.251568 124.038354 405.64472 149.219164 410.528251 
C 174.399975 415.411781 200.352015 414.665868 225.210763 408.344101 
C 250.06951 402.022334 273.225033 390.279824 293.013724 373.960211 
C 312.802416 357.640598 328.738741 337.144298 339.677757 313.943867 
C 350.616772 290.743435 356.290079 265.408117 356.290079 239.758125 
L 295.406879 239.758125 
C 295.406879 256.43062 291.71923 272.898577 284.60887 287.978857 
C 277.49851 303.059137 267.139898 316.381732 254.277249 326.989481 
C 241.4146 337.59723 226.36351 345.229861 210.205324 349.339009 
C 194.047138 353.448158 177.178311 353.933001 160.810785 350.758707 
C 144.443258 347.584412 128.978623 340.828863 115.527936 330.977412 
C 102.077249 321.125961 90.970534 308.420322 83.005753 293.773331 
C 75.040972 279.12634 70.413548 262.897375 69.455938 246.252404 
C 68.498328 229.607433 71.234027 212.954856 77.466491 197.491076 
L 20.997174 174.731896 
z
" style="fill:#f08080;stroke:#ffffff;stroke-linejoin:miter;"/>
   </g>
   <g id="patch_4">
    <path d="M 295.406879 239.758125 
C 295.406879 213.512028 286.268316 188.067535 269.569435 167.818956 
C 252.870555 147.570376 229.631386 133.754567 203.865374 128.757543 
C 178.099363 123.76052 151.380391 127.887518 128.322874 140.425799 
C 105.265356 152.964079 87.27773 173.147757 77.466491 197.491076 
L 117.801717 213.747633 
C 123.839403 198.767129 134.908711 186.346404 149.097953 178.63054 
C 163.287194 170.914675 179.729638 168.374983 195.585645 171.450075 
C 211.441653 174.525166 225.74268 183.027203 236.018914 195.487867 
C 246.295148 207.948531 251.918879 223.606681 251.918879 239.758125 
L 295.406879 239.758125 
z
" style="fill:#b0c4de;stroke:#ffffff;stroke-linejoin:miter;"/>
   </g>
   <g id="patch_5">
    <path d="M 77.466491 197.491076 
C 66.540668 224.599864 66.540668 254.916386 77.466491 282.025174 
C 88.392314 309.133961 109.414776 330.97767 136.085182 342.933815 
L 153.874758 303.250857 
C 137.462201 295.89323 124.525301 282.450947 117.801717 265.768617 
C 111.078134 249.086286 111.078134 230.429964 117.801717 213.747633 
L 77.466491 197.491076 
z
" style="fill:#bc8f8f;stroke:#ffffff;stroke-linejoin:miter;"/>
   </g>
   <g id="patch_6">
    <path d="M 136.085182 342.933815 
C 153.302347 350.652142 172.180726 353.939494 190.993414 352.495158 
C 209.806101 351.050823 227.961423 344.920226 243.798611 334.664166 
C 259.6358 324.408106 272.656764 310.349144 281.670406 293.773331 
C 290.684047 277.197518 295.406879 258.626175 295.406879 239.758125 
L 251.918879 239.758125 
C 251.918879 251.369233 249.012521 262.797751 243.465665 272.998252 
C 237.918809 283.198752 229.905908 291.850421 220.159945 298.161842 
C 210.413983 304.473264 199.241478 308.245939 187.664439 309.134761 
C 176.087401 310.023583 164.469936 308.000597 153.874758 303.250857 
L 136.085182 342.933815 
z
" style="fill:#b22222;stroke:#ffffff;stroke-linejoin:miter;"/>
   </g>
   <g id="matplotlib.axis_1"/>
   <g id="matplotlib.axis_2"/>
   <g id="text_1">
    <!-- Overseas Inflow = 18 -->
    <defs>
     <path d="M 39.40625 66.21875 
Q 28.65625 66.21875 22.328125 58.203125 
Q 16.015625 50.203125 16.015625 36.375 
Q 16.015625 22.609375 22.328125 14.59375 
Q 28.65625 6.59375 39.40625 6.59375 
Q 50.140625 6.59375 56.421875 14.59375 
Q 62.703125 22.609375 62.703125 36.375 
Q 62.703125 50.203125 56.421875 58.203125 
Q 50.140625 66.21875 39.40625 66.21875 
z
M 39.40625 74.21875 
Q 54.734375 74.21875 63.90625 63.9375 
Q 73.09375 53.65625 73.09375 36.375 
Q 73.09375 19.140625 63.90625 8.859375 
Q 54.734375 -1.421875 39.40625 -1.421875 
Q 24.03125 -1.421875 14.8125 8.828125 
Q 5.609375 19.09375 5.609375 36.375 
Q 5.609375 53.65625 14.8125 63.9375 
Q 24.03125 74.21875 39.40625 74.21875 
z
" id="DejaVuSans-79"/>
     <path d="M 2.984375 54.6875 
L 12.5 54.6875 
L 29.59375 8.796875 
L 46.6875 54.6875 
L 56.203125 54.6875 
L 35.6875 0 
L 23.484375 0 
z
" id="DejaVuSans-118"/>
     <path d="M 56.203125 29.59375 
L 56.203125 25.203125 
L 14.890625 25.203125 
Q 15.484375 15.921875 20.484375 11.0625 
Q 25.484375 6.203125 34.421875 6.203125 
Q 39.59375 6.203125 44.453125 7.46875 
Q 49.3125 8.734375 54.109375 11.28125 
L 54.109375 2.78125 
Q 49.265625 0.734375 44.1875 -0.34375 
Q 39.109375 -1.421875 33.890625 -1.421875 
Q 20.796875 -1.421875 13.15625 6.1875 
Q 5.515625 13.8125 5.515625 26.8125 
Q 5.515625 40.234375 12.765625 48.109375 
Q 20.015625 56 32.328125 56 
Q 43.359375 56 49.78125 48.890625 
Q 56.203125 41.796875 56.203125 29.59375 
z
M 47.21875 32.234375 
Q 47.125 39.59375 43.09375 43.984375 
Q 39.0625 48.390625 32.421875 48.390625 
Q 24.90625 48.390625 20.390625 44.140625 
Q 15.875 39.890625 15.1875 32.171875 
z
" id="DejaVuSans-101"/>
     <path d="M 41.109375 46.296875 
Q 39.59375 47.171875 37.8125 47.578125 
Q 36.03125 48 33.890625 48 
Q 26.265625 48 22.1875 43.046875 
Q 18.109375 38.09375 18.109375 28.8125 
L 18.109375 0 
L 9.078125 0 
L 9.078125 54.6875 
L 18.109375 54.6875 
L 18.109375 46.1875 
Q 20.953125 51.171875 25.484375 53.578125 
Q 30.03125 56 36.53125 56 
Q 37.453125 56 38.578125 55.875 
Q 39.703125 55.765625 41.0625 55.515625 
z
" id="DejaVuSans-114"/>
     <path d="M 44.28125 53.078125 
L 44.28125 44.578125 
Q 40.484375 46.53125 36.375 47.5 
Q 32.28125 48.484375 27.875 48.484375 
Q 21.1875 48.484375 17.84375 46.4375 
Q 14.5 44.390625 14.5 40.28125 
Q 14.5 37.15625 16.890625 35.375 
Q 19.28125 33.59375 26.515625 31.984375 
L 29.59375 31.296875 
Q 39.15625 29.25 43.1875 25.515625 
Q 47.21875 21.78125 47.21875 15.09375 
Q 47.21875 7.46875 41.1875 3.015625 
Q 35.15625 -1.421875 24.609375 -1.421875 
Q 20.21875 -1.421875 15.453125 -0.5625 
Q 10.6875 0.296875 5.421875 2 
L 5.421875 11.28125 
Q 10.40625 8.6875 15.234375 7.390625 
Q 20.0625 6.109375 24.8125 6.109375 
Q 31.15625 6.109375 34.5625 8.28125 
Q 37.984375 10.453125 37.984375 14.40625 
Q 37.984375 18.0625 35.515625 20.015625 
Q 33.0625 21.96875 24.703125 23.78125 
L 21.578125 24.515625 
Q 13.234375 26.265625 9.515625 29.90625 
Q 5.8125 33.546875 5.8125 39.890625 
Q 5.8125 47.609375 11.28125 51.796875 
Q 16.75 56 26.8125 56 
Q 31.78125 56 36.171875 55.265625 
Q 40.578125 54.546875 44.28125 53.078125 
z
" id="DejaVuSans-115"/>
     <path d="M 34.28125 27.484375 
Q 23.390625 27.484375 19.1875 25 
Q 14.984375 22.515625 14.984375 16.5 
Q 14.984375 11.71875 18.140625 8.90625 
Q 21.296875 6.109375 26.703125 6.109375 
Q 34.1875 6.109375 38.703125 11.40625 
Q 43.21875 16.703125 43.21875 25.484375 
L 43.21875 27.484375 
z
M 52.203125 31.203125 
L 52.203125 0 
L 43.21875 0 
L 43.21875 8.296875 
Q 40.140625 3.328125 35.546875 0.953125 
Q 30.953125 -1.421875 24.3125 -1.421875 
Q 15.921875 -1.421875 10.953125 3.296875 
Q 6 8.015625 6 15.921875 
Q 6 25.140625 12.171875 29.828125 
Q 18.359375 34.515625 30.609375 34.515625 
L 43.21875 34.515625 
L 43.21875 35.40625 
Q 43.21875 41.609375 39.140625 45 
Q 35.0625 48.390625 27.6875 48.390625 
Q 23 48.390625 18.546875 47.265625 
Q 14.109375 46.140625 10.015625 43.890625 
L 10.015625 52.203125 
Q 14.9375 54.109375 19.578125 55.046875 
Q 24.21875 56 28.609375 56 
Q 40.484375 56 46.34375 49.84375 
Q 52.203125 43.703125 52.203125 31.203125 
z
" id="DejaVuSans-97"/>
     <path id="DejaVuSans-32"/>
     <path d="M 9.8125 72.90625 
L 19.671875 72.90625 
L 19.671875 0 
L 9.8125 0 
z
" id="DejaVuSans-73"/>
     <path d="M 54.890625 33.015625 
L 54.890625 0 
L 45.90625 0 
L 45.90625 32.71875 
Q 45.90625 40.484375 42.875 44.328125 
Q 39.84375 48.1875 33.796875 48.1875 
Q 26.515625 48.1875 22.3125 43.546875 
Q 18.109375 38.921875 18.109375 30.90625 
L 18.109375 0 
L 9.078125 0 
L 9.078125 54.6875 
L 18.109375 54.6875 
L 18.109375 46.1875 
Q 21.34375 51.125 25.703125 53.5625 
Q 30.078125 56 35.796875 56 
Q 45.21875 56 50.046875 50.171875 
Q 54.890625 44.34375 54.890625 33.015625 
z
" id="DejaVuSans-110"/>
     <path d="M 37.109375 75.984375 
L 37.109375 68.5 
L 28.515625 68.5 
Q 23.6875 68.5 21.796875 66.546875 
Q 19.921875 64.59375 19.921875 59.515625 
L 19.921875 54.6875 
L 34.71875 54.6875 
L 34.71875 47.703125 
L 19.921875 47.703125 
L 19.921875 0 
L 10.890625 0 
L 10.890625 47.703125 
L 2.296875 47.703125 
L 2.296875 54.6875 
L 10.890625 54.6875 
L 10.890625 58.5 
Q 10.890625 67.625 15.140625 71.796875 
Q 19.390625 75.984375 28.609375 75.984375 
z
" id="DejaVuSans-102"/>
     <path d="M 9.421875 75.984375 
L 18.40625 75.984375 
L 18.40625 0 
L 9.421875 0 
z
" id="DejaVuSans-108"/>
     <path d="M 30.609375 48.390625 
Q 23.390625 48.390625 19.1875 42.75 
Q 14.984375 37.109375 14.984375 27.296875 
Q 14.984375 17.484375 19.15625 11.84375 
Q 23.34375 6.203125 30.609375 6.203125 
Q 37.796875 6.203125 41.984375 11.859375 
Q 46.1875 17.53125 46.1875 27.296875 
Q 46.1875 37.015625 41.984375 42.703125 
Q 37.796875 48.390625 30.609375 48.390625 
z
M 30.609375 56 
Q 42.328125 56 49.015625 48.375 
Q 55.71875 40.765625 55.71875 27.296875 
Q 55.71875 13.875 49.015625 6.21875 
Q 42.328125 -1.421875 30.609375 -1.421875 
Q 18.84375 -1.421875 12.171875 6.21875 
Q 5.515625 13.875 5.515625 27.296875 
Q 5.515625 40.765625 12.171875 48.375 
Q 18.84375 56 30.609375 56 
z
" id="DejaVuSans-111"/>
     <path d="M 4.203125 54.6875 
L 13.1875 54.6875 
L 24.421875 12.015625 
L 35.59375 54.6875 
L 46.1875 54.6875 
L 57.421875 12.015625 
L 68.609375 54.6875 
L 77.59375 54.6875 
L 63.28125 0 
L 52.6875 0 
L 40.921875 44.828125 
L 29.109375 0 
L 18.5 0 
z
" id="DejaVuSans-119"/>
     <path d="M 10.59375 45.40625 
L 73.1875 45.40625 
L 73.1875 37.203125 
L 10.59375 37.203125 
z
M 10.59375 25.484375 
L 73.1875 25.484375 
L 73.1875 17.1875 
L 10.59375 17.1875 
z
" id="DejaVuSans-61"/>
     <path d="M 12.40625 8.296875 
L 28.515625 8.296875 
L 28.515625 63.921875 
L 10.984375 60.40625 
L 10.984375 69.390625 
L 28.421875 72.90625 
L 38.28125 72.90625 
L 38.28125 8.296875 
L 54.390625 8.296875 
L 54.390625 0 
L 12.40625 0 
z
" id="DejaVuSans-49"/>
     <path d="M 31.78125 34.625 
Q 24.75 34.625 20.71875 30.859375 
Q 16.703125 27.09375 16.703125 20.515625 
Q 16.703125 13.921875 20.71875 10.15625 
Q 24.75 6.390625 31.78125 6.390625 
Q 38.8125 6.390625 42.859375 10.171875 
Q 46.921875 13.96875 46.921875 20.515625 
Q 46.921875 27.09375 42.890625 30.859375 
Q 38.875 34.625 31.78125 34.625 
z
M 21.921875 38.8125 
Q 15.578125 40.375 12.03125 44.71875 
Q 8.5 49.078125 8.5 55.328125 
Q 8.5 64.0625 14.71875 69.140625 
Q 20.953125 74.21875 31.78125 74.21875 
Q 42.671875 74.21875 48.875 69.140625 
Q 55.078125 64.0625 55.078125 55.328125 
Q 55.078125 49.078125 51.53125 44.71875 
Q 48 40.375 41.703125 38.8125 
Q 48.828125 37.15625 52.796875 32.3125 
Q 56.78125 27.484375 56.78125 20.515625 
Q 56.78125 9.90625 50.3125 4.234375 
Q 43.84375 -1.421875 31.78125 -1.421875 
Q 19.734375 -1.421875 13.25 4.234375 
Q 6.78125 9.90625 6.78125 20.515625 
Q 6.78125 27.484375 10.78125 32.3125 
Q 14.796875 37.15625 21.921875 38.8125 
z
M 18.3125 54.390625 
Q 18.3125 48.734375 21.84375 45.5625 
Q 25.390625 42.390625 31.78125 42.390625 
Q 38.140625 42.390625 41.71875 45.5625 
Q 45.3125 48.734375 45.3125 54.390625 
Q 45.3125 60.0625 41.71875 63.234375 
Q 38.140625 66.40625 31.78125 66.40625 
Q 25.390625 66.40625 21.84375 63.234375 
Q 18.3125 60.0625 18.3125 54.390625 
z
" id="DejaVuSans-56"/>
    </defs>
    <g transform="translate(215.456994 71.747374)scale(0.1 -0.1)">
     <use xlink:href="#DejaVuSans-79"/>
     <use x="78.710938" xlink:href="#DejaVuSans-118"/>
     <use x="137.890625" xlink:href="#DejaVuSans-101"/>
     <use x="199.414062" xlink:href="#DejaVuSans-114"/>
     <use x="240.527344" xlink:href="#DejaVuSans-115"/>
     <use x="292.626953" xlink:href="#DejaVuSans-101"/>
     <use x="354.150391" xlink:href="#DejaVuSans-97"/>
     <use x="415.429688" xlink:href="#DejaVuSans-115"/>
     <use x="467.529297" xlink:href="#DejaVuSans-32"/>
     <use x="499.316406" xlink:href="#DejaVuSans-73"/>
     <use x="528.808594" xlink:href="#DejaVuSans-110"/>
     <use x="592.1875" xlink:href="#DejaVuSans-102"/>
     <use x="627.392578" xlink:href="#DejaVuSans-108"/>
     <use x="655.175781" xlink:href="#DejaVuSans-111"/>
     <use x="716.357422" xlink:href="#DejaVuSans-119"/>
     <use x="798.144531" xlink:href="#DejaVuSans-32"/>
     <use x="829.931641" xlink:href="#DejaVuSans-61"/>
     <use x="913.720703" xlink:href="#DejaVuSans-32"/>
     <use x="945.507812" xlink:href="#DejaVuSans-49"/>
     <use x="1009.130859" xlink:href="#DejaVuSans-56"/>
    </g>
   </g>
   <g id="text_2">
    <!-- Local Spread = 23 -->
    <defs>
     <path d="M 9.8125 72.90625 
L 19.671875 72.90625 
L 19.671875 8.296875 
L 55.171875 8.296875 
L 55.171875 0 
L 9.8125 0 
z
" id="DejaVuSans-76"/>
     <path d="M 48.78125 52.59375 
L 48.78125 44.1875 
Q 44.96875 46.296875 41.140625 47.34375 
Q 37.3125 48.390625 33.40625 48.390625 
Q 24.65625 48.390625 19.8125 42.84375 
Q 14.984375 37.3125 14.984375 27.296875 
Q 14.984375 17.28125 19.8125 11.734375 
Q 24.65625 6.203125 33.40625 6.203125 
Q 37.3125 6.203125 41.140625 7.25 
Q 44.96875 8.296875 48.78125 10.40625 
L 48.78125 2.09375 
Q 45.015625 0.34375 40.984375 -0.53125 
Q 36.96875 -1.421875 32.421875 -1.421875 
Q 20.0625 -1.421875 12.78125 6.34375 
Q 5.515625 14.109375 5.515625 27.296875 
Q 5.515625 40.671875 12.859375 48.328125 
Q 20.21875 56 33.015625 56 
Q 37.15625 56 41.109375 55.140625 
Q 45.0625 54.296875 48.78125 52.59375 
z
" id="DejaVuSans-99"/>
     <path d="M 53.515625 70.515625 
L 53.515625 60.890625 
Q 47.90625 63.578125 42.921875 64.890625 
Q 37.9375 66.21875 33.296875 66.21875 
Q 25.25 66.21875 20.875 63.09375 
Q 16.5 59.96875 16.5 54.203125 
Q 16.5 49.359375 19.40625 46.890625 
Q 22.3125 44.4375 30.421875 42.921875 
L 36.375 41.703125 
Q 47.40625 39.59375 52.65625 34.296875 
Q 57.90625 29 57.90625 20.125 
Q 57.90625 9.515625 50.796875 4.046875 
Q 43.703125 -1.421875 29.984375 -1.421875 
Q 24.8125 -1.421875 18.96875 -0.25 
Q 13.140625 0.921875 6.890625 3.21875 
L 6.890625 13.375 
Q 12.890625 10.015625 18.65625 8.296875 
Q 24.421875 6.59375 29.984375 6.59375 
Q 38.421875 6.59375 43.015625 9.90625 
Q 47.609375 13.234375 47.609375 19.390625 
Q 47.609375 24.75 44.3125 27.78125 
Q 41.015625 30.8125 33.5 32.328125 
L 27.484375 33.5 
Q 16.453125 35.6875 11.515625 40.375 
Q 6.59375 45.0625 6.59375 53.421875 
Q 6.59375 63.09375 13.40625 68.65625 
Q 20.21875 74.21875 32.171875 74.21875 
Q 37.3125 74.21875 42.625 73.28125 
Q 47.953125 72.359375 53.515625 70.515625 
z
" id="DejaVuSans-83"/>
     <path d="M 18.109375 8.203125 
L 18.109375 -20.796875 
L 9.078125 -20.796875 
L 9.078125 54.6875 
L 18.109375 54.6875 
L 18.109375 46.390625 
Q 20.953125 51.265625 25.265625 53.625 
Q 29.59375 56 35.59375 56 
Q 45.5625 56 51.78125 48.09375 
Q 58.015625 40.1875 58.015625 27.296875 
Q 58.015625 14.40625 51.78125 6.484375 
Q 45.5625 -1.421875 35.59375 -1.421875 
Q 29.59375 -1.421875 25.265625 0.953125 
Q 20.953125 3.328125 18.109375 8.203125 
z
M 48.6875 27.296875 
Q 48.6875 37.203125 44.609375 42.84375 
Q 40.53125 48.484375 33.40625 48.484375 
Q 26.265625 48.484375 22.1875 42.84375 
Q 18.109375 37.203125 18.109375 27.296875 
Q 18.109375 17.390625 22.1875 11.75 
Q 26.265625 6.109375 33.40625 6.109375 
Q 40.53125 6.109375 44.609375 11.75 
Q 48.6875 17.390625 48.6875 27.296875 
z
" id="DejaVuSans-112"/>
     <path d="M 45.40625 46.390625 
L 45.40625 75.984375 
L 54.390625 75.984375 
L 54.390625 0 
L 45.40625 0 
L 45.40625 8.203125 
Q 42.578125 3.328125 38.25 0.953125 
Q 33.9375 -1.421875 27.875 -1.421875 
Q 17.96875 -1.421875 11.734375 6.484375 
Q 5.515625 14.40625 5.515625 27.296875 
Q 5.515625 40.1875 11.734375 48.09375 
Q 17.96875 56 27.875 56 
Q 33.9375 56 38.25 53.625 
Q 42.578125 51.265625 45.40625 46.390625 
z
M 14.796875 27.296875 
Q 14.796875 17.390625 18.875 11.75 
Q 22.953125 6.109375 30.078125 6.109375 
Q 37.203125 6.109375 41.296875 11.75 
Q 45.40625 17.390625 45.40625 27.296875 
Q 45.40625 37.203125 41.296875 42.84375 
Q 37.203125 48.484375 30.078125 48.484375 
Q 22.953125 48.484375 18.875 42.84375 
Q 14.796875 37.203125 14.796875 27.296875 
z
" id="DejaVuSans-100"/>
     <path d="M 19.1875 8.296875 
L 53.609375 8.296875 
L 53.609375 0 
L 7.328125 0 
L 7.328125 8.296875 
Q 12.9375 14.109375 22.625 23.890625 
Q 32.328125 33.6875 34.8125 36.53125 
Q 39.546875 41.84375 41.421875 45.53125 
Q 43.3125 49.21875 43.3125 52.78125 
Q 43.3125 58.59375 39.234375 62.25 
Q 35.15625 65.921875 28.609375 65.921875 
Q 23.96875 65.921875 18.8125 64.3125 
Q 13.671875 62.703125 7.8125 59.421875 
L 7.8125 69.390625 
Q 13.765625 71.78125 18.9375 73 
Q 24.125 74.21875 28.421875 74.21875 
Q 39.75 74.21875 46.484375 68.546875 
Q 53.21875 62.890625 53.21875 53.421875 
Q 53.21875 48.921875 51.53125 44.890625 
Q 49.859375 40.875 45.40625 35.40625 
Q 44.1875 33.984375 37.640625 27.21875 
Q 31.109375 20.453125 19.1875 8.296875 
z
" id="DejaVuSans-50"/>
     <path d="M 40.578125 39.3125 
Q 47.65625 37.796875 51.625 33 
Q 55.609375 28.21875 55.609375 21.1875 
Q 55.609375 10.40625 48.1875 4.484375 
Q 40.765625 -1.421875 27.09375 -1.421875 
Q 22.515625 -1.421875 17.65625 -0.515625 
Q 12.796875 0.390625 7.625 2.203125 
L 7.625 11.71875 
Q 11.71875 9.328125 16.59375 8.109375 
Q 21.484375 6.890625 26.8125 6.890625 
Q 36.078125 6.890625 40.9375 10.546875 
Q 45.796875 14.203125 45.796875 21.1875 
Q 45.796875 27.640625 41.28125 31.265625 
Q 36.765625 34.90625 28.71875 34.90625 
L 20.21875 34.90625 
L 20.21875 43.015625 
L 29.109375 43.015625 
Q 36.375 43.015625 40.234375 45.921875 
Q 44.09375 48.828125 44.09375 54.296875 
Q 44.09375 59.90625 40.109375 62.90625 
Q 36.140625 65.921875 28.71875 65.921875 
Q 24.65625 65.921875 20.015625 65.03125 
Q 15.375 64.15625 9.8125 62.3125 
L 9.8125 71.09375 
Q 15.4375 72.65625 20.34375 73.4375 
Q 25.25 74.21875 29.59375 74.21875 
Q 40.828125 74.21875 47.359375 69.109375 
Q 53.90625 64.015625 53.90625 55.328125 
Q 53.90625 49.265625 50.4375 45.09375 
Q 46.96875 40.921875 40.578125 39.3125 
z
" id="DejaVuSans-51"/>
    </defs>
    <g transform="translate(57.447289 413.287626)scale(0.1 -0.1)">
     <use xlink:href="#DejaVuSans-76"/>
     <use x="53.962891" xlink:href="#DejaVuSans-111"/>
     <use x="115.144531" xlink:href="#DejaVuSans-99"/>
     <use x="170.125" xlink:href="#DejaVuSans-97"/>
     <use x="231.404297" xlink:href="#DejaVuSans-108"/>
     <use x="259.1875" xlink:href="#DejaVuSans-32"/>
     <use x="290.974609" xlink:href="#DejaVuSans-83"/>
     <use x="354.451172" xlink:href="#DejaVuSans-112"/>
     <use x="417.927734" xlink:href="#DejaVuSans-114"/>
     <use x="456.791016" xlink:href="#DejaVuSans-101"/>
     <use x="518.314453" xlink:href="#DejaVuSans-97"/>
     <use x="579.59375" xlink:href="#DejaVuSans-100"/>
     <use x="643.070312" xlink:href="#DejaVuSans-32"/>
     <use x="674.857422" xlink:href="#DejaVuSans-61"/>
     <use x="758.646484" xlink:href="#DejaVuSans-32"/>
     <use x="790.433594" xlink:href="#DejaVuSans-50"/>
     <use x="854.056641" xlink:href="#DejaVuSans-51"/>
    </g>
   </g>
   <g id="text_3">
    <!--   -->
    <g transform="translate(193.101727 187.017209)scale(0.1 -0.1)">
     <use xlink:href="#DejaVuSans-32"/>
    </g>
   </g>
   <g id="text_4">
    <!-- Known Contact = 10 -->
    <defs>
     <path d="M 9.8125 72.90625 
L 19.671875 72.90625 
L 19.671875 42.09375 
L 52.390625 72.90625 
L 65.09375 72.90625 
L 28.90625 38.921875 
L 67.671875 0 
L 54.6875 0 
L 19.671875 35.109375 
L 19.671875 0 
L 9.8125 0 
z
" id="DejaVuSans-75"/>
     <path d="M 64.40625 67.28125 
L 64.40625 56.890625 
Q 59.421875 61.53125 53.78125 63.8125 
Q 48.140625 66.109375 41.796875 66.109375 
Q 29.296875 66.109375 22.65625 58.46875 
Q 16.015625 50.828125 16.015625 36.375 
Q 16.015625 21.96875 22.65625 14.328125 
Q 29.296875 6.6875 41.796875 6.6875 
Q 48.140625 6.6875 53.78125 8.984375 
Q 59.421875 11.28125 64.40625 15.921875 
L 64.40625 5.609375 
Q 59.234375 2.09375 53.4375 0.328125 
Q 47.65625 -1.421875 41.21875 -1.421875 
Q 24.65625 -1.421875 15.125 8.703125 
Q 5.609375 18.84375 5.609375 36.375 
Q 5.609375 53.953125 15.125 64.078125 
Q 24.65625 74.21875 41.21875 74.21875 
Q 47.75 74.21875 53.53125 72.484375 
Q 59.328125 70.75 64.40625 67.28125 
z
" id="DejaVuSans-67"/>
     <path d="M 18.3125 70.21875 
L 18.3125 54.6875 
L 36.8125 54.6875 
L 36.8125 47.703125 
L 18.3125 47.703125 
L 18.3125 18.015625 
Q 18.3125 11.328125 20.140625 9.421875 
Q 21.96875 7.515625 27.59375 7.515625 
L 36.8125 7.515625 
L 36.8125 0 
L 27.59375 0 
Q 17.1875 0 13.234375 3.875 
Q 9.28125 7.765625 9.28125 18.015625 
L 9.28125 47.703125 
L 2.6875 47.703125 
L 2.6875 54.6875 
L 9.28125 54.6875 
L 9.28125 70.21875 
z
" id="DejaVuSans-116"/>
     <path d="M 31.78125 66.40625 
Q 24.171875 66.40625 20.328125 58.90625 
Q 16.5 51.421875 16.5 36.375 
Q 16.5 21.390625 20.328125 13.890625 
Q 24.171875 6.390625 31.78125 6.390625 
Q 39.453125 6.390625 43.28125 13.890625 
Q 47.125 21.390625 47.125 36.375 
Q 47.125 51.421875 43.28125 58.90625 
Q 39.453125 66.40625 31.78125 66.40625 
z
M 31.78125 74.21875 
Q 44.046875 74.21875 50.515625 64.515625 
Q 56.984375 54.828125 56.984375 36.375 
Q 56.984375 17.96875 50.515625 8.265625 
Q 44.046875 -1.421875 31.78125 -1.421875 
Q 19.53125 -1.421875 13.0625 8.265625 
Q 6.59375 17.96875 6.59375 36.375 
Q 6.59375 54.828125 13.0625 64.515625 
Q 19.53125 74.21875 31.78125 74.21875 
z
" id="DejaVuSans-48"/>
    </defs>
    <g transform="translate(26.827285 263.651024)scale(0.1 -0.1)">
     <use xlink:href="#DejaVuSans-75"/>
     <use x="65.576172" xlink:href="#DejaVuSans-110"/>
     <use x="128.955078" xlink:href="#DejaVuSans-111"/>
     <use x="190.136719" xlink:href="#DejaVuSans-119"/>
     <use x="271.923828" xlink:href="#DejaVuSans-110"/>
     <use x="335.302734" xlink:href="#DejaVuSans-32"/>
     <use x="367.089844" xlink:href="#DejaVuSans-67"/>
     <use x="436.914062" xlink:href="#DejaVuSans-111"/>
     <use x="498.095703" xlink:href="#DejaVuSans-110"/>
     <use x="561.474609" xlink:href="#DejaVuSans-116"/>
     <use x="600.683594" xlink:href="#DejaVuSans-97"/>
     <use x="661.962891" xlink:href="#DejaVuSans-99"/>
     <use x="716.943359" xlink:href="#DejaVuSans-116"/>
     <use x="756.152344" xlink:href="#DejaVuSans-32"/>
     <use x="787.939453" xlink:href="#DejaVuSans-61"/>
     <use x="871.728516" xlink:href="#DejaVuSans-32"/>
     <use x="903.515625" xlink:href="#DejaVuSans-49"/>
     <use x="967.138672" xlink:href="#DejaVuSans-48"/>
    </g>
   </g>
   <g id="text_5">
    <!-- Unknown Contact = 13 -->
    <defs>
     <path d="M 8.6875 72.90625 
L 18.609375 72.90625 
L 18.609375 28.609375 
Q 18.609375 16.890625 22.84375 11.734375 
Q 27.09375 6.59375 36.625 6.59375 
Q 46.09375 6.59375 50.34375 11.734375 
Q 54.59375 16.890625 54.59375 28.609375 
L 54.59375 72.90625 
L 64.5 72.90625 
L 64.5 27.390625 
Q 64.5 13.140625 57.4375 5.859375 
Q 50.390625 -1.421875 36.625 -1.421875 
Q 22.796875 -1.421875 15.734375 5.859375 
Q 8.6875 13.140625 8.6875 27.390625 
z
" id="DejaVuSans-85"/>
     <path d="M 9.078125 75.984375 
L 18.109375 75.984375 
L 18.109375 31.109375 
L 44.921875 54.6875 
L 56.390625 54.6875 
L 27.390625 29.109375 
L 57.625 0 
L 45.90625 0 
L 18.109375 26.703125 
L 18.109375 0 
L 9.078125 0 
z
" id="DejaVuSans-107"/>
    </defs>
    <g transform="translate(213.068345 289.97052)scale(0.1 -0.1)">
     <use xlink:href="#DejaVuSans-85"/>
     <use x="73.193359" xlink:href="#DejaVuSans-110"/>
     <use x="136.572266" xlink:href="#DejaVuSans-107"/>
     <use x="194.482422" xlink:href="#DejaVuSans-110"/>
     <use x="257.861328" xlink:href="#DejaVuSans-111"/>
     <use x="319.042969" xlink:href="#DejaVuSans-119"/>
     <use x="400.830078" xlink:href="#DejaVuSans-110"/>
     <use x="464.208984" xlink:href="#DejaVuSans-32"/>
     <use x="495.996094" xlink:href="#DejaVuSans-67"/>
     <use x="565.820312" xlink:href="#DejaVuSans-111"/>
     <use x="627.001953" xlink:href="#DejaVuSans-110"/>
     <use x="690.380859" xlink:href="#DejaVuSans-116"/>
     <use x="729.589844" xlink:href="#DejaVuSans-97"/>
     <use x="790.869141" xlink:href="#DejaVuSans-99"/>
     <use x="845.849609" xlink:href="#DejaVuSans-116"/>
     <use x="885.058594" xlink:href="#DejaVuSans-32"/>
     <use x="916.845703" xlink:href="#DejaVuSans-61"/>
     <use x="1000.634766" xlink:href="#DejaVuSans-32"/>
     <use x="1032.421875" xlink:href="#DejaVuSans-49"/>
     <use x="1096.044922" xlink:href="#DejaVuSans-51"/>
    </g>
   </g>
   <g id="text_6">
    <!-- Total cases as of 13/04/2020 -->
    <defs>
     <path d="M -0.296875 72.90625 
L 61.375 72.90625 
L 61.375 64.59375 
L 35.5 64.59375 
L 35.5 0 
L 25.59375 0 
L 25.59375 64.59375 
L -0.296875 64.59375 
z
" id="DejaVuSans-84"/>
     <path d="M 25.390625 72.90625 
L 33.6875 72.90625 
L 8.296875 -9.28125 
L 0 -9.28125 
z
" id="DejaVuSans-47"/>
     <path d="M 37.796875 64.3125 
L 12.890625 25.390625 
L 37.796875 25.390625 
z
M 35.203125 72.90625 
L 47.609375 72.90625 
L 47.609375 25.390625 
L 58.015625 25.390625 
L 58.015625 17.1875 
L 47.609375 17.1875 
L 47.609375 0 
L 37.796875 0 
L 37.796875 17.1875 
L 4.890625 17.1875 
L 4.890625 26.703125 
z
" id="DejaVuSans-52"/>
    </defs>
    <g transform="translate(96.611204 16.318125)scale(0.12 -0.12)">
     <use xlink:href="#DejaVuSans-84"/>
     <use x="44.083984" xlink:href="#DejaVuSans-111"/>
     <use x="105.265625" xlink:href="#DejaVuSans-116"/>
     <use x="144.474609" xlink:href="#DejaVuSans-97"/>
     <use x="205.753906" xlink:href="#DejaVuSans-108"/>
     <use x="233.537109" xlink:href="#DejaVuSans-32"/>
     <use x="265.324219" xlink:href="#DejaVuSans-99"/>
     <use x="320.304688" xlink:href="#DejaVuSans-97"/>
     <use x="381.583984" xlink:href="#DejaVuSans-115"/>
     <use x="433.683594" xlink:href="#DejaVuSans-101"/>
     <use x="495.207031" xlink:href="#DejaVuSans-115"/>
     <use x="547.306641" xlink:href="#DejaVuSans-32"/>
     <use x="579.09375" xlink:href="#DejaVuSans-97"/>
     <use x="640.373047" xlink:href="#DejaVuSans-115"/>
     <use x="692.472656" xlink:href="#DejaVuSans-32"/>
     <use x="724.259766" xlink:href="#DejaVuSans-111"/>
     <use x="785.441406" xlink:href="#DejaVuSans-102"/>
     <use x="820.646484" xlink:href="#DejaVuSans-32"/>
     <use x="852.433594" xlink:href="#DejaVuSans-49"/>
     <use x="916.056641" xlink:href="#DejaVuSans-51"/>
     <use x="979.679688" xlink:href="#DejaVuSans-47"/>
     <use x="1013.371094" xlink:href="#DejaVuSans-48"/>
     <use x="1076.994141" xlink:href="#DejaVuSans-52"/>
     <use x="1140.617188" xlink:href="#DejaVuSans-47"/>
     <use x="1174.308594" xlink:href="#DejaVuSans-50"/>
     <use x="1237.931641" xlink:href="#DejaVuSans-48"/>
     <use x="1301.554688" xlink:href="#DejaVuSans-50"/>
     <use x="1365.177734" xlink:href="#DejaVuSans-48"/>
    </g>
   </g>
  </g>
 </g>
</svg>
