<?xml version="1.0" encoding="utf-8" standalone="no"?>
<!DOCTYPE svg PUBLIC "-//W3C//DTD SVG 1.1//EN"
  "http://www.w3.org/Graphics/SVG/1.1/DTD/svg11.dtd">
<!-- Created with matplotlib (https://matplotlib.org/) -->
<svg height="337.136875pt" version="1.1" viewBox="0 0 592.125 337.136875" width="592.125pt" xmlns="http://www.w3.org/2000/svg" xmlns:xlink="http://www.w3.org/1999/xlink">
 <defs>
  <style type="text/css">
*{stroke-linecap:butt;stroke-linejoin:round;}
  </style>
 </defs>
 <g id="figure_1">
  <g id="patch_1">
   <path d="M 0 337.136875 
L 592.125 337.136875 
L 592.125 0 
L 0 0 
z
" style="fill:#ffffff;"/>
  </g>
  <g id="axes_1">
   <g id="patch_2">
    <path d="M 26.925 294.118125 
L 584.925 294.118125 
L 584.925 22.318125 
L 26.925 22.318125 
z
" style="fill:#ffffff;"/>
   </g>
   <g id="matplotlib.axis_1">
    <g id="xtick_1">
     <g id="line2d_1">
      <path clip-path="url(#pe4940ff86d)" d="M 61.596393 294.118125 
L 61.596393 22.318125 
" style="fill:none;stroke:#c0c0c0;stroke-dasharray:0.5,0.825;stroke-dashoffset:0;stroke-width:0.5;"/>
     </g>
     <g id="line2d_2">
      <defs>
       <path d="M 0 0 
L 0 3.5 
" id="mfa2f0fd6ad" style="stroke:#000000;stroke-width:0.8;"/>
      </defs>
      <g>
       <use style="stroke:#000000;stroke-width:0.8;" x="61.596393" xlink:href="#mfa2f0fd6ad" y="294.118125"/>
      </g>
     </g>
     <g id="text_1">
      <!-- 23/03 -->
      <defs>
       <path d="M 19.1875 8.296875 
L 53.609375 8.296875 
L 53.609375 0 
L 7.328125 0 
L 7.328125 8.296875 
Q 12.9375 14.109375 22.625 23.890625 
Q 32.328125 33.6875 34.8125 36.53125 
Q 39.546875 41.84375 41.421875 45.53125 
Q 43.3125 49.21875 43.3125 52.78125 
Q 43.3125 58.59375 39.234375 62.25 
Q 35.15625 65.921875 28.609375 65.921875 
Q 23.96875 65.921875 18.8125 64.3125 
Q 13.671875 62.703125 7.8125 59.421875 
L 7.8125 69.390625 
Q 13.765625 71.78125 18.9375 73 
Q 24.125 74.21875 28.421875 74.21875 
Q 39.75 74.21875 46.484375 68.546875 
Q 53.21875 62.890625 53.21875 53.421875 
Q 53.21875 48.921875 51.53125 44.890625 
Q 49.859375 40.875 45.40625 35.40625 
Q 44.1875 33.984375 37.640625 27.21875 
Q 31.109375 20.453125 19.1875 8.296875 
z
" id="DejaVuSans-50"/>
       <path d="M 40.578125 39.3125 
Q 47.65625 37.796875 51.625 33 
Q 55.609375 28.21875 55.609375 21.1875 
Q 55.609375 10.40625 48.1875 4.484375 
Q 40.765625 -1.421875 27.09375 -1.421875 
Q 22.515625 -1.421875 17.65625 -0.515625 
Q 12.796875 0.390625 7.625 2.203125 
L 7.625 11.71875 
Q 11.71875 9.328125 16.59375 8.109375 
Q 21.484375 6.890625 26.8125 6.890625 
Q 36.078125 6.890625 40.9375 10.546875 
Q 45.796875 14.203125 45.796875 21.1875 
Q 45.796875 27.640625 41.28125 31.265625 
Q 36.765625 34.90625 28.71875 34.90625 
L 20.21875 34.90625 
L 20.21875 43.015625 
L 29.109375 43.015625 
Q 36.375 43.015625 40.234375 45.921875 
Q 44.09375 48.828125 44.09375 54.296875 
Q 44.09375 59.90625 40.109375 62.90625 
Q 36.140625 65.921875 28.71875 65.921875 
Q 24.65625 65.921875 20.015625 65.03125 
Q 15.375 64.15625 9.8125 62.3125 
L 9.8125 71.09375 
Q 15.4375 72.65625 20.34375 73.4375 
Q 25.25 74.21875 29.59375 74.21875 
Q 40.828125 74.21875 47.359375 69.109375 
Q 53.90625 64.015625 53.90625 55.328125 
Q 53.90625 49.265625 50.4375 45.09375 
Q 46.96875 40.921875 40.578125 39.3125 
z
" id="DejaVuSans-51"/>
       <path d="M 25.390625 72.90625 
L 33.6875 72.90625 
L 8.296875 -9.28125 
L 0 -9.28125 
z
" id="DejaVuSans-47"/>
       <path d="M 31.78125 66.40625 
Q 24.171875 66.40625 20.328125 58.90625 
Q 16.5 51.421875 16.5 36.375 
Q 16.5 21.390625 20.328125 13.890625 
Q 24.171875 6.390625 31.78125 6.390625 
Q 39.453125 6.390625 43.28125 13.890625 
Q 47.125 21.390625 47.125 36.375 
Q 47.125 51.421875 43.28125 58.90625 
Q 39.453125 66.40625 31.78125 66.40625 
z
M 31.78125 74.21875 
Q 44.046875 74.21875 50.515625 64.515625 
Q 56.984375 54.828125 56.984375 36.375 
Q 56.984375 17.96875 50.515625 8.265625 
Q 44.046875 -1.421875 31.78125 -1.421875 
Q 19.53125 -1.421875 13.0625 8.265625 
Q 6.59375 17.96875 6.59375 36.375 
Q 6.59375 54.828125 13.0625 64.515625 
Q 19.53125 74.21875 31.78125 74.21875 
z
" id="DejaVuSans-48"/>
      </defs>
      <g transform="translate(64.355768 329.936875)rotate(-90)scale(0.1 -0.1)">
       <use xlink:href="#DejaVuSans-50"/>
       <use x="63.623047" xlink:href="#DejaVuSans-51"/>
       <use x="127.246094" xlink:href="#DejaVuSans-47"/>
       <use x="160.9375" xlink:href="#DejaVuSans-48"/>
       <use x="224.560547" xlink:href="#DejaVuSans-51"/>
      </g>
     </g>
    </g>
    <g id="xtick_2">
     <g id="line2d_3">
      <path clip-path="url(#pe4940ff86d)" d="M 84.865784 294.118125 
L 84.865784 22.318125 
" style="fill:none;stroke:#c0c0c0;stroke-dasharray:0.5,0.825;stroke-dashoffset:0;stroke-width:0.5;"/>
     </g>
     <g id="line2d_4">
      <g>
       <use style="stroke:#000000;stroke-width:0.8;" x="84.865784" xlink:href="#mfa2f0fd6ad" y="294.118125"/>
      </g>
     </g>
     <g id="text_2">
      <!-- 24/03 -->
      <defs>
       <path d="M 37.796875 64.3125 
L 12.890625 25.390625 
L 37.796875 25.390625 
z
M 35.203125 72.90625 
L 47.609375 72.90625 
L 47.609375 25.390625 
L 58.015625 25.390625 
L 58.015625 17.1875 
L 47.609375 17.1875 
L 47.609375 0 
L 37.796875 0 
L 37.796875 17.1875 
L 4.890625 17.1875 
L 4.890625 26.703125 
z
" id="DejaVuSans-52"/>
      </defs>
      <g transform="translate(87.625159 329.936875)rotate(-90)scale(0.1 -0.1)">
       <use xlink:href="#DejaVuSans-50"/>
       <use x="63.623047" xlink:href="#DejaVuSans-52"/>
       <use x="127.246094" xlink:href="#DejaVuSans-47"/>
       <use x="160.9375" xlink:href="#DejaVuSans-48"/>
       <use x="224.560547" xlink:href="#DejaVuSans-51"/>
      </g>
     </g>
    </g>
    <g id="xtick_3">
     <g id="line2d_5">
      <path clip-path="url(#pe4940ff86d)" d="M 108.135175 294.118125 
L 108.135175 22.318125 
" style="fill:none;stroke:#c0c0c0;stroke-dasharray:0.5,0.825;stroke-dashoffset:0;stroke-width:0.5;"/>
     </g>
     <g id="line2d_6">
      <g>
       <use style="stroke:#000000;stroke-width:0.8;" x="108.135175" xlink:href="#mfa2f0fd6ad" y="294.118125"/>
      </g>
     </g>
     <g id="text_3">
      <!-- 25/03 -->
      <defs>
       <path d="M 10.796875 72.90625 
L 49.515625 72.90625 
L 49.515625 64.59375 
L 19.828125 64.59375 
L 19.828125 46.734375 
Q 21.96875 47.46875 24.109375 47.828125 
Q 26.265625 48.1875 28.421875 48.1875 
Q 40.625 48.1875 47.75 41.5 
Q 54.890625 34.8125 54.890625 23.390625 
Q 54.890625 11.625 47.5625 5.09375 
Q 40.234375 -1.421875 26.90625 -1.421875 
Q 22.3125 -1.421875 17.546875 -0.640625 
Q 12.796875 0.140625 7.71875 1.703125 
L 7.71875 11.625 
Q 12.109375 9.234375 16.796875 8.0625 
Q 21.484375 6.890625 26.703125 6.890625 
Q 35.15625 6.890625 40.078125 11.328125 
Q 45.015625 15.765625 45.015625 23.390625 
Q 45.015625 31 40.078125 35.4375 
Q 35.15625 39.890625 26.703125 39.890625 
Q 22.75 39.890625 18.8125 39.015625 
Q 14.890625 38.140625 10.796875 36.28125 
z
" id="DejaVuSans-53"/>
      </defs>
      <g transform="translate(110.89455 329.936875)rotate(-90)scale(0.1 -0.1)">
       <use xlink:href="#DejaVuSans-50"/>
       <use x="63.623047" xlink:href="#DejaVuSans-53"/>
       <use x="127.246094" xlink:href="#DejaVuSans-47"/>
       <use x="160.9375" xlink:href="#DejaVuSans-48"/>
       <use x="224.560547" xlink:href="#DejaVuSans-51"/>
      </g>
     </g>
    </g>
    <g id="xtick_4">
     <g id="line2d_7">
      <path clip-path="url(#pe4940ff86d)" d="M 131.404566 294.118125 
L 131.404566 22.318125 
" style="fill:none;stroke:#c0c0c0;stroke-dasharray:0.5,0.825;stroke-dashoffset:0;stroke-width:0.5;"/>
     </g>
     <g id="line2d_8">
      <g>
       <use style="stroke:#000000;stroke-width:0.8;" x="131.404566" xlink:href="#mfa2f0fd6ad" y="294.118125"/>
      </g>
     </g>
     <g id="text_4">
      <!-- 26/03 -->
      <defs>
       <path d="M 33.015625 40.375 
Q 26.375 40.375 22.484375 35.828125 
Q 18.609375 31.296875 18.609375 23.390625 
Q 18.609375 15.53125 22.484375 10.953125 
Q 26.375 6.390625 33.015625 6.390625 
Q 39.65625 6.390625 43.53125 10.953125 
Q 47.40625 15.53125 47.40625 23.390625 
Q 47.40625 31.296875 43.53125 35.828125 
Q 39.65625 40.375 33.015625 40.375 
z
M 52.59375 71.296875 
L 52.59375 62.3125 
Q 48.875 64.0625 45.09375 64.984375 
Q 41.3125 65.921875 37.59375 65.921875 
Q 27.828125 65.921875 22.671875 59.328125 
Q 17.53125 52.734375 16.796875 39.40625 
Q 19.671875 43.65625 24.015625 45.921875 
Q 28.375 48.1875 33.59375 48.1875 
Q 44.578125 48.1875 50.953125 41.515625 
Q 57.328125 34.859375 57.328125 23.390625 
Q 57.328125 12.15625 50.6875 5.359375 
Q 44.046875 -1.421875 33.015625 -1.421875 
Q 20.359375 -1.421875 13.671875 8.265625 
Q 6.984375 17.96875 6.984375 36.375 
Q 6.984375 53.65625 15.1875 63.9375 
Q 23.390625 74.21875 37.203125 74.21875 
Q 40.921875 74.21875 44.703125 73.484375 
Q 48.484375 72.75 52.59375 71.296875 
z
" id="DejaVuSans-54"/>
      </defs>
      <g transform="translate(134.163941 329.936875)rotate(-90)scale(0.1 -0.1)">
       <use xlink:href="#DejaVuSans-50"/>
       <use x="63.623047" xlink:href="#DejaVuSans-54"/>
       <use x="127.246094" xlink:href="#DejaVuSans-47"/>
       <use x="160.9375" xlink:href="#DejaVuSans-48"/>
       <use x="224.560547" xlink:href="#DejaVuSans-51"/>
      </g>
     </g>
    </g>
    <g id="xtick_5">
     <g id="line2d_9">
      <path clip-path="url(#pe4940ff86d)" d="M 154.673957 294.118125 
L 154.673957 22.318125 
" style="fill:none;stroke:#c0c0c0;stroke-dasharray:0.5,0.825;stroke-dashoffset:0;stroke-width:0.5;"/>
     </g>
     <g id="line2d_10">
      <g>
       <use style="stroke:#000000;stroke-width:0.8;" x="154.673957" xlink:href="#mfa2f0fd6ad" y="294.118125"/>
      </g>
     </g>
     <g id="text_5">
      <!-- 27/03 -->
      <defs>
       <path d="M 8.203125 72.90625 
L 55.078125 72.90625 
L 55.078125 68.703125 
L 28.609375 0 
L 18.3125 0 
L 43.21875 64.59375 
L 8.203125 64.59375 
z
" id="DejaVuSans-55"/>
      </defs>
      <g transform="translate(157.433332 329.936875)rotate(-90)scale(0.1 -0.1)">
       <use xlink:href="#DejaVuSans-50"/>
       <use x="63.623047" xlink:href="#DejaVuSans-55"/>
       <use x="127.246094" xlink:href="#DejaVuSans-47"/>
       <use x="160.9375" xlink:href="#DejaVuSans-48"/>
       <use x="224.560547" xlink:href="#DejaVuSans-51"/>
      </g>
     </g>
    </g>
    <g id="xtick_6">
     <g id="line2d_11">
      <path clip-path="url(#pe4940ff86d)" d="M 177.943349 294.118125 
L 177.943349 22.318125 
" style="fill:none;stroke:#c0c0c0;stroke-dasharray:0.5,0.825;stroke-dashoffset:0;stroke-width:0.5;"/>
     </g>
     <g id="line2d_12">
      <g>
       <use style="stroke:#000000;stroke-width:0.8;" x="177.943349" xlink:href="#mfa2f0fd6ad" y="294.118125"/>
      </g>
     </g>
     <g id="text_6">
      <!-- 28/03 -->
      <defs>
       <path d="M 31.78125 34.625 
Q 24.75 34.625 20.71875 30.859375 
Q 16.703125 27.09375 16.703125 20.515625 
Q 16.703125 13.921875 20.71875 10.15625 
Q 24.75 6.390625 31.78125 6.390625 
Q 38.8125 6.390625 42.859375 10.171875 
Q 46.921875 13.96875 46.921875 20.515625 
Q 46.921875 27.09375 42.890625 30.859375 
Q 38.875 34.625 31.78125 34.625 
z
M 21.921875 38.8125 
Q 15.578125 40.375 12.03125 44.71875 
Q 8.5 49.078125 8.5 55.328125 
Q 8.5 64.0625 14.71875 69.140625 
Q 20.953125 74.21875 31.78125 74.21875 
Q 42.671875 74.21875 48.875 69.140625 
Q 55.078125 64.0625 55.078125 55.328125 
Q 55.078125 49.078125 51.53125 44.71875 
Q 48 40.375 41.703125 38.8125 
Q 48.828125 37.15625 52.796875 32.3125 
Q 56.78125 27.484375 56.78125 20.515625 
Q 56.78125 9.90625 50.3125 4.234375 
Q 43.84375 -1.421875 31.78125 -1.421875 
Q 19.734375 -1.421875 13.25 4.234375 
Q 6.78125 9.90625 6.78125 20.515625 
Q 6.78125 27.484375 10.78125 32.3125 
Q 14.796875 37.15625 21.921875 38.8125 
z
M 18.3125 54.390625 
Q 18.3125 48.734375 21.84375 45.5625 
Q 25.390625 42.390625 31.78125 42.390625 
Q 38.140625 42.390625 41.71875 45.5625 
Q 45.3125 48.734375 45.3125 54.390625 
Q 45.3125 60.0625 41.71875 63.234375 
Q 38.140625 66.40625 31.78125 66.40625 
Q 25.390625 66.40625 21.84375 63.234375 
Q 18.3125 60.0625 18.3125 54.390625 
z
" id="DejaVuSans-56"/>
      </defs>
      <g transform="translate(180.702724 329.936875)rotate(-90)scale(0.1 -0.1)">
       <use xlink:href="#DejaVuSans-50"/>
       <use x="63.623047" xlink:href="#DejaVuSans-56"/>
       <use x="127.246094" xlink:href="#DejaVuSans-47"/>
       <use x="160.9375" xlink:href="#DejaVuSans-48"/>
       <use x="224.560547" xlink:href="#DejaVuSans-51"/>
      </g>
     </g>
    </g>
    <g id="xtick_7">
     <g id="line2d_13">
      <path clip-path="url(#pe4940ff86d)" d="M 201.21274 294.118125 
L 201.21274 22.318125 
" style="fill:none;stroke:#c0c0c0;stroke-dasharray:0.5,0.825;stroke-dashoffset:0;stroke-width:0.5;"/>
     </g>
     <g id="line2d_14">
      <g>
       <use style="stroke:#000000;stroke-width:0.8;" x="201.21274" xlink:href="#mfa2f0fd6ad" y="294.118125"/>
      </g>
     </g>
     <g id="text_7">
      <!-- 29/03 -->
      <defs>
       <path d="M 10.984375 1.515625 
L 10.984375 10.5 
Q 14.703125 8.734375 18.5 7.8125 
Q 22.3125 6.890625 25.984375 6.890625 
Q 35.75 6.890625 40.890625 13.453125 
Q 46.046875 20.015625 46.78125 33.40625 
Q 43.953125 29.203125 39.59375 26.953125 
Q 35.25 24.703125 29.984375 24.703125 
Q 19.046875 24.703125 12.671875 31.3125 
Q 6.296875 37.9375 6.296875 49.421875 
Q 6.296875 60.640625 12.9375 67.421875 
Q 19.578125 74.21875 30.609375 74.21875 
Q 43.265625 74.21875 49.921875 64.515625 
Q 56.59375 54.828125 56.59375 36.375 
Q 56.59375 19.140625 48.40625 8.859375 
Q 40.234375 -1.421875 26.421875 -1.421875 
Q 22.703125 -1.421875 18.890625 -0.6875 
Q 15.09375 0.046875 10.984375 1.515625 
z
M 30.609375 32.421875 
Q 37.25 32.421875 41.125 36.953125 
Q 45.015625 41.5 45.015625 49.421875 
Q 45.015625 57.28125 41.125 61.84375 
Q 37.25 66.40625 30.609375 66.40625 
Q 23.96875 66.40625 20.09375 61.84375 
Q 16.21875 57.28125 16.21875 49.421875 
Q 16.21875 41.5 20.09375 36.953125 
Q 23.96875 32.421875 30.609375 32.421875 
z
" id="DejaVuSans-57"/>
      </defs>
      <g transform="translate(203.972115 329.936875)rotate(-90)scale(0.1 -0.1)">
       <use xlink:href="#DejaVuSans-50"/>
       <use x="63.623047" xlink:href="#DejaVuSans-57"/>
       <use x="127.246094" xlink:href="#DejaVuSans-47"/>
       <use x="160.9375" xlink:href="#DejaVuSans-48"/>
       <use x="224.560547" xlink:href="#DejaVuSans-51"/>
      </g>
     </g>
    </g>
    <g id="xtick_8">
     <g id="line2d_15">
      <path clip-path="url(#pe4940ff86d)" d="M 224.482131 294.118125 
L 224.482131 22.318125 
" style="fill:none;stroke:#c0c0c0;stroke-dasharray:0.5,0.825;stroke-dashoffset:0;stroke-width:0.5;"/>
     </g>
     <g id="line2d_16">
      <g>
       <use style="stroke:#000000;stroke-width:0.8;" x="224.482131" xlink:href="#mfa2f0fd6ad" y="294.118125"/>
      </g>
     </g>
     <g id="text_8">
      <!-- 30/03 -->
      <g transform="translate(227.241506 329.936875)rotate(-90)scale(0.1 -0.1)">
       <use xlink:href="#DejaVuSans-51"/>
       <use x="63.623047" xlink:href="#DejaVuSans-48"/>
       <use x="127.246094" xlink:href="#DejaVuSans-47"/>
       <use x="160.9375" xlink:href="#DejaVuSans-48"/>
       <use x="224.560547" xlink:href="#DejaVuSans-51"/>
      </g>
     </g>
    </g>
    <g id="xtick_9">
     <g id="line2d_17">
      <path clip-path="url(#pe4940ff86d)" d="M 247.751522 294.118125 
L 247.751522 22.318125 
" style="fill:none;stroke:#c0c0c0;stroke-dasharray:0.5,0.825;stroke-dashoffset:0;stroke-width:0.5;"/>
     </g>
     <g id="line2d_18">
      <g>
       <use style="stroke:#000000;stroke-width:0.8;" x="247.751522" xlink:href="#mfa2f0fd6ad" y="294.118125"/>
      </g>
     </g>
     <g id="text_9">
      <!-- 31/03 -->
      <defs>
       <path d="M 12.40625 8.296875 
L 28.515625 8.296875 
L 28.515625 63.921875 
L 10.984375 60.40625 
L 10.984375 69.390625 
L 28.421875 72.90625 
L 38.28125 72.90625 
L 38.28125 8.296875 
L 54.390625 8.296875 
L 54.390625 0 
L 12.40625 0 
z
" id="DejaVuSans-49"/>
      </defs>
      <g transform="translate(250.510897 329.936875)rotate(-90)scale(0.1 -0.1)">
       <use xlink:href="#DejaVuSans-51"/>
       <use x="63.623047" xlink:href="#DejaVuSans-49"/>
       <use x="127.246094" xlink:href="#DejaVuSans-47"/>
       <use x="160.9375" xlink:href="#DejaVuSans-48"/>
       <use x="224.560547" xlink:href="#DejaVuSans-51"/>
      </g>
     </g>
    </g>
    <g id="xtick_10">
     <g id="line2d_19">
      <path clip-path="url(#pe4940ff86d)" d="M 271.020913 294.118125 
L 271.020913 22.318125 
" style="fill:none;stroke:#c0c0c0;stroke-dasharray:0.5,0.825;stroke-dashoffset:0;stroke-width:0.5;"/>
     </g>
     <g id="line2d_20">
      <g>
       <use style="stroke:#000000;stroke-width:0.8;" x="271.020913" xlink:href="#mfa2f0fd6ad" y="294.118125"/>
      </g>
     </g>
     <g id="text_10">
      <!-- 01/04 -->
      <g transform="translate(273.780288 329.936875)rotate(-90)scale(0.1 -0.1)">
       <use xlink:href="#DejaVuSans-48"/>
       <use x="63.623047" xlink:href="#DejaVuSans-49"/>
       <use x="127.246094" xlink:href="#DejaVuSans-47"/>
       <use x="160.9375" xlink:href="#DejaVuSans-48"/>
       <use x="224.560547" xlink:href="#DejaVuSans-52"/>
      </g>
     </g>
    </g>
    <g id="xtick_11">
     <g id="line2d_21">
      <path clip-path="url(#pe4940ff86d)" d="M 294.290304 294.118125 
L 294.290304 22.318125 
" style="fill:none;stroke:#c0c0c0;stroke-dasharray:0.5,0.825;stroke-dashoffset:0;stroke-width:0.5;"/>
     </g>
     <g id="line2d_22">
      <g>
       <use style="stroke:#000000;stroke-width:0.8;" x="294.290304" xlink:href="#mfa2f0fd6ad" y="294.118125"/>
      </g>
     </g>
     <g id="text_11">
      <!-- 02/04 -->
      <g transform="translate(297.049679 329.936875)rotate(-90)scale(0.1 -0.1)">
       <use xlink:href="#DejaVuSans-48"/>
       <use x="63.623047" xlink:href="#DejaVuSans-50"/>
       <use x="127.246094" xlink:href="#DejaVuSans-47"/>
       <use x="160.9375" xlink:href="#DejaVuSans-48"/>
       <use x="224.560547" xlink:href="#DejaVuSans-52"/>
      </g>
     </g>
    </g>
    <g id="xtick_12">
     <g id="line2d_23">
      <path clip-path="url(#pe4940ff86d)" d="M 317.559696 294.118125 
L 317.559696 22.318125 
" style="fill:none;stroke:#c0c0c0;stroke-dasharray:0.5,0.825;stroke-dashoffset:0;stroke-width:0.5;"/>
     </g>
     <g id="line2d_24">
      <g>
       <use style="stroke:#000000;stroke-width:0.8;" x="317.559696" xlink:href="#mfa2f0fd6ad" y="294.118125"/>
      </g>
     </g>
     <g id="text_12">
      <!-- 03/04 -->
      <g transform="translate(320.319071 329.936875)rotate(-90)scale(0.1 -0.1)">
       <use xlink:href="#DejaVuSans-48"/>
       <use x="63.623047" xlink:href="#DejaVuSans-51"/>
       <use x="127.246094" xlink:href="#DejaVuSans-47"/>
       <use x="160.9375" xlink:href="#DejaVuSans-48"/>
       <use x="224.560547" xlink:href="#DejaVuSans-52"/>
      </g>
     </g>
    </g>
    <g id="xtick_13">
     <g id="line2d_25">
      <path clip-path="url(#pe4940ff86d)" d="M 340.829087 294.118125 
L 340.829087 22.318125 
" style="fill:none;stroke:#c0c0c0;stroke-dasharray:0.5,0.825;stroke-dashoffset:0;stroke-width:0.5;"/>
     </g>
     <g id="line2d_26">
      <g>
       <use style="stroke:#000000;stroke-width:0.8;" x="340.829087" xlink:href="#mfa2f0fd6ad" y="294.118125"/>
      </g>
     </g>
     <g id="text_13">
      <!-- 04/04 -->
      <g transform="translate(343.588462 329.936875)rotate(-90)scale(0.1 -0.1)">
       <use xlink:href="#DejaVuSans-48"/>
       <use x="63.623047" xlink:href="#DejaVuSans-52"/>
       <use x="127.246094" xlink:href="#DejaVuSans-47"/>
       <use x="160.9375" xlink:href="#DejaVuSans-48"/>
       <use x="224.560547" xlink:href="#DejaVuSans-52"/>
      </g>
     </g>
    </g>
    <g id="xtick_14">
     <g id="line2d_27">
      <path clip-path="url(#pe4940ff86d)" d="M 364.098478 294.118125 
L 364.098478 22.318125 
" style="fill:none;stroke:#c0c0c0;stroke-dasharray:0.5,0.825;stroke-dashoffset:0;stroke-width:0.5;"/>
     </g>
     <g id="line2d_28">
      <g>
       <use style="stroke:#000000;stroke-width:0.8;" x="364.098478" xlink:href="#mfa2f0fd6ad" y="294.118125"/>
      </g>
     </g>
     <g id="text_14">
      <!-- 05/04 -->
      <g transform="translate(366.857853 329.936875)rotate(-90)scale(0.1 -0.1)">
       <use xlink:href="#DejaVuSans-48"/>
       <use x="63.623047" xlink:href="#DejaVuSans-53"/>
       <use x="127.246094" xlink:href="#DejaVuSans-47"/>
       <use x="160.9375" xlink:href="#DejaVuSans-48"/>
       <use x="224.560547" xlink:href="#DejaVuSans-52"/>
      </g>
     </g>
    </g>
    <g id="xtick_15">
     <g id="line2d_29">
      <path clip-path="url(#pe4940ff86d)" d="M 387.367869 294.118125 
L 387.367869 22.318125 
" style="fill:none;stroke:#c0c0c0;stroke-dasharray:0.5,0.825;stroke-dashoffset:0;stroke-width:0.5;"/>
     </g>
     <g id="line2d_30">
      <g>
       <use style="stroke:#000000;stroke-width:0.8;" x="387.367869" xlink:href="#mfa2f0fd6ad" y="294.118125"/>
      </g>
     </g>
     <g id="text_15">
      <!-- 06/04 -->
      <g transform="translate(390.127244 329.936875)rotate(-90)scale(0.1 -0.1)">
       <use xlink:href="#DejaVuSans-48"/>
       <use x="63.623047" xlink:href="#DejaVuSans-54"/>
       <use x="127.246094" xlink:href="#DejaVuSans-47"/>
       <use x="160.9375" xlink:href="#DejaVuSans-48"/>
       <use x="224.560547" xlink:href="#DejaVuSans-52"/>
      </g>
     </g>
    </g>
    <g id="xtick_16">
     <g id="line2d_31">
      <path clip-path="url(#pe4940ff86d)" d="M 410.63726 294.118125 
L 410.63726 22.318125 
" style="fill:none;stroke:#c0c0c0;stroke-dasharray:0.5,0.825;stroke-dashoffset:0;stroke-width:0.5;"/>
     </g>
     <g id="line2d_32">
      <g>
       <use style="stroke:#000000;stroke-width:0.8;" x="410.63726" xlink:href="#mfa2f0fd6ad" y="294.118125"/>
      </g>
     </g>
     <g id="text_16">
      <!-- 07/04 -->
      <g transform="translate(413.396635 329.936875)rotate(-90)scale(0.1 -0.1)">
       <use xlink:href="#DejaVuSans-48"/>
       <use x="63.623047" xlink:href="#DejaVuSans-55"/>
       <use x="127.246094" xlink:href="#DejaVuSans-47"/>
       <use x="160.9375" xlink:href="#DejaVuSans-48"/>
       <use x="224.560547" xlink:href="#DejaVuSans-52"/>
      </g>
     </g>
    </g>
    <g id="xtick_17">
     <g id="line2d_33">
      <path clip-path="url(#pe4940ff86d)" d="M 433.906651 294.118125 
L 433.906651 22.318125 
" style="fill:none;stroke:#c0c0c0;stroke-dasharray:0.5,0.825;stroke-dashoffset:0;stroke-width:0.5;"/>
     </g>
     <g id="line2d_34">
      <g>
       <use style="stroke:#000000;stroke-width:0.8;" x="433.906651" xlink:href="#mfa2f0fd6ad" y="294.118125"/>
      </g>
     </g>
     <g id="text_17">
      <!-- 08/04 -->
      <g transform="translate(436.666026 329.936875)rotate(-90)scale(0.1 -0.1)">
       <use xlink:href="#DejaVuSans-48"/>
       <use x="63.623047" xlink:href="#DejaVuSans-56"/>
       <use x="127.246094" xlink:href="#DejaVuSans-47"/>
       <use x="160.9375" xlink:href="#DejaVuSans-48"/>
       <use x="224.560547" xlink:href="#DejaVuSans-52"/>
      </g>
     </g>
    </g>
    <g id="xtick_18">
     <g id="line2d_35">
      <path clip-path="url(#pe4940ff86d)" d="M 457.176043 294.118125 
L 457.176043 22.318125 
" style="fill:none;stroke:#c0c0c0;stroke-dasharray:0.5,0.825;stroke-dashoffset:0;stroke-width:0.5;"/>
     </g>
     <g id="line2d_36">
      <g>
       <use style="stroke:#000000;stroke-width:0.8;" x="457.176043" xlink:href="#mfa2f0fd6ad" y="294.118125"/>
      </g>
     </g>
     <g id="text_18">
      <!-- 09/04 -->
      <g transform="translate(459.935418 329.936875)rotate(-90)scale(0.1 -0.1)">
       <use xlink:href="#DejaVuSans-48"/>
       <use x="63.623047" xlink:href="#DejaVuSans-57"/>
       <use x="127.246094" xlink:href="#DejaVuSans-47"/>
       <use x="160.9375" xlink:href="#DejaVuSans-48"/>
       <use x="224.560547" xlink:href="#DejaVuSans-52"/>
      </g>
     </g>
    </g>
    <g id="xtick_19">
     <g id="line2d_37">
      <path clip-path="url(#pe4940ff86d)" d="M 480.445434 294.118125 
L 480.445434 22.318125 
" style="fill:none;stroke:#c0c0c0;stroke-dasharray:0.5,0.825;stroke-dashoffset:0;stroke-width:0.5;"/>
     </g>
     <g id="line2d_38">
      <g>
       <use style="stroke:#000000;stroke-width:0.8;" x="480.445434" xlink:href="#mfa2f0fd6ad" y="294.118125"/>
      </g>
     </g>
     <g id="text_19">
      <!-- 10/04 -->
      <g transform="translate(483.204809 329.936875)rotate(-90)scale(0.1 -0.1)">
       <use xlink:href="#DejaVuSans-49"/>
       <use x="63.623047" xlink:href="#DejaVuSans-48"/>
       <use x="127.246094" xlink:href="#DejaVuSans-47"/>
       <use x="160.9375" xlink:href="#DejaVuSans-48"/>
       <use x="224.560547" xlink:href="#DejaVuSans-52"/>
      </g>
     </g>
    </g>
    <g id="xtick_20">
     <g id="line2d_39">
      <path clip-path="url(#pe4940ff86d)" d="M 503.714825 294.118125 
L 503.714825 22.318125 
" style="fill:none;stroke:#c0c0c0;stroke-dasharray:0.5,0.825;stroke-dashoffset:0;stroke-width:0.5;"/>
     </g>
     <g id="line2d_40">
      <g>
       <use style="stroke:#000000;stroke-width:0.8;" x="503.714825" xlink:href="#mfa2f0fd6ad" y="294.118125"/>
      </g>
     </g>
     <g id="text_20">
      <!-- 11/04 -->
      <g transform="translate(506.4742 329.936875)rotate(-90)scale(0.1 -0.1)">
       <use xlink:href="#DejaVuSans-49"/>
       <use x="63.623047" xlink:href="#DejaVuSans-49"/>
       <use x="127.246094" xlink:href="#DejaVuSans-47"/>
       <use x="160.9375" xlink:href="#DejaVuSans-48"/>
       <use x="224.560547" xlink:href="#DejaVuSans-52"/>
      </g>
     </g>
    </g>
    <g id="xtick_21">
     <g id="line2d_41">
      <path clip-path="url(#pe4940ff86d)" d="M 526.984216 294.118125 
L 526.984216 22.318125 
" style="fill:none;stroke:#c0c0c0;stroke-dasharray:0.5,0.825;stroke-dashoffset:0;stroke-width:0.5;"/>
     </g>
     <g id="line2d_42">
      <g>
       <use style="stroke:#000000;stroke-width:0.8;" x="526.984216" xlink:href="#mfa2f0fd6ad" y="294.118125"/>
      </g>
     </g>
     <g id="text_21">
      <!-- 12/04 -->
      <g transform="translate(529.743591 329.936875)rotate(-90)scale(0.1 -0.1)">
       <use xlink:href="#DejaVuSans-49"/>
       <use x="63.623047" xlink:href="#DejaVuSans-50"/>
       <use x="127.246094" xlink:href="#DejaVuSans-47"/>
       <use x="160.9375" xlink:href="#DejaVuSans-48"/>
       <use x="224.560547" xlink:href="#DejaVuSans-52"/>
      </g>
     </g>
    </g>
    <g id="xtick_22">
     <g id="line2d_43">
      <path clip-path="url(#pe4940ff86d)" d="M 550.253607 294.118125 
L 550.253607 22.318125 
" style="fill:none;stroke:#c0c0c0;stroke-dasharray:0.5,0.825;stroke-dashoffset:0;stroke-width:0.5;"/>
     </g>
     <g id="line2d_44">
      <g>
       <use style="stroke:#000000;stroke-width:0.8;" x="550.253607" xlink:href="#mfa2f0fd6ad" y="294.118125"/>
      </g>
     </g>
     <g id="text_22">
      <!-- 13/04 -->
      <g transform="translate(553.012982 329.936875)rotate(-90)scale(0.1 -0.1)">
       <use xlink:href="#DejaVuSans-49"/>
       <use x="63.623047" xlink:href="#DejaVuSans-51"/>
       <use x="127.246094" xlink:href="#DejaVuSans-47"/>
       <use x="160.9375" xlink:href="#DejaVuSans-48"/>
       <use x="224.560547" xlink:href="#DejaVuSans-52"/>
      </g>
     </g>
    </g>
   </g>
   <g id="matplotlib.axis_2">
    <g id="ytick_1">
     <g id="line2d_45">
      <path clip-path="url(#pe4940ff86d)" d="M 26.925 294.118125 
L 584.925 294.118125 
" style="fill:none;stroke:#c0c0c0;stroke-dasharray:0.5,0.825;stroke-dashoffset:0;stroke-width:0.5;"/>
     </g>
     <g id="line2d_46">
      <defs>
       <path d="M 0 0 
L -3.5 0 
" id="me6e8d1f5d1" style="stroke:#000000;stroke-width:0.8;"/>
      </defs>
      <g>
       <use style="stroke:#000000;stroke-width:0.8;" x="26.925" xlink:href="#me6e8d1f5d1" y="294.118125"/>
      </g>
     </g>
     <g id="text_23">
      <!-- 0 -->
      <g transform="translate(13.5625 297.917344)scale(0.1 -0.1)">
       <use xlink:href="#DejaVuSans-48"/>
      </g>
     </g>
    </g>
    <g id="ytick_2">
     <g id="line2d_47">
      <path clip-path="url(#pe4940ff86d)" d="M 26.925 269.69764 
L 584.925 269.69764 
" style="fill:none;stroke:#c0c0c0;stroke-dasharray:0.5,0.825;stroke-dashoffset:0;stroke-width:0.5;"/>
     </g>
     <g id="line2d_48">
      <g>
       <use style="stroke:#000000;stroke-width:0.8;" x="26.925" xlink:href="#me6e8d1f5d1" y="269.69764"/>
      </g>
     </g>
     <g id="text_24">
      <!-- 5 -->
      <g transform="translate(13.5625 273.496859)scale(0.1 -0.1)">
       <use xlink:href="#DejaVuSans-53"/>
      </g>
     </g>
    </g>
    <g id="ytick_3">
     <g id="line2d_49">
      <path clip-path="url(#pe4940ff86d)" d="M 26.925 245.277155 
L 584.925 245.277155 
" style="fill:none;stroke:#c0c0c0;stroke-dasharray:0.5,0.825;stroke-dashoffset:0;stroke-width:0.5;"/>
     </g>
     <g id="line2d_50">
      <g>
       <use style="stroke:#000000;stroke-width:0.8;" x="26.925" xlink:href="#me6e8d1f5d1" y="245.277155"/>
      </g>
     </g>
     <g id="text_25">
      <!-- 10 -->
      <g transform="translate(7.2 249.076373)scale(0.1 -0.1)">
       <use xlink:href="#DejaVuSans-49"/>
       <use x="63.623047" xlink:href="#DejaVuSans-48"/>
      </g>
     </g>
    </g>
    <g id="ytick_4">
     <g id="line2d_51">
      <path clip-path="url(#pe4940ff86d)" d="M 26.925 220.856669 
L 584.925 220.856669 
" style="fill:none;stroke:#c0c0c0;stroke-dasharray:0.5,0.825;stroke-dashoffset:0;stroke-width:0.5;"/>
     </g>
     <g id="line2d_52">
      <g>
       <use style="stroke:#000000;stroke-width:0.8;" x="26.925" xlink:href="#me6e8d1f5d1" y="220.856669"/>
      </g>
     </g>
     <g id="text_26">
      <!-- 15 -->
      <g transform="translate(7.2 224.655888)scale(0.1 -0.1)">
       <use xlink:href="#DejaVuSans-49"/>
       <use x="63.623047" xlink:href="#DejaVuSans-53"/>
      </g>
     </g>
    </g>
    <g id="ytick_5">
     <g id="line2d_53">
      <path clip-path="url(#pe4940ff86d)" d="M 26.925 196.436184 
L 584.925 196.436184 
" style="fill:none;stroke:#c0c0c0;stroke-dasharray:0.5,0.825;stroke-dashoffset:0;stroke-width:0.5;"/>
     </g>
     <g id="line2d_54">
      <g>
       <use style="stroke:#000000;stroke-width:0.8;" x="26.925" xlink:href="#me6e8d1f5d1" y="196.436184"/>
      </g>
     </g>
     <g id="text_27">
      <!-- 20 -->
      <g transform="translate(7.2 200.235403)scale(0.1 -0.1)">
       <use xlink:href="#DejaVuSans-50"/>
       <use x="63.623047" xlink:href="#DejaVuSans-48"/>
      </g>
     </g>
    </g>
    <g id="ytick_6">
     <g id="line2d_55">
      <path clip-path="url(#pe4940ff86d)" d="M 26.925 172.015699 
L 584.925 172.015699 
" style="fill:none;stroke:#c0c0c0;stroke-dasharray:0.5,0.825;stroke-dashoffset:0;stroke-width:0.5;"/>
     </g>
     <g id="line2d_56">
      <g>
       <use style="stroke:#000000;stroke-width:0.8;" x="26.925" xlink:href="#me6e8d1f5d1" y="172.015699"/>
      </g>
     </g>
     <g id="text_28">
      <!-- 25 -->
      <g transform="translate(7.2 175.814918)scale(0.1 -0.1)">
       <use xlink:href="#DejaVuSans-50"/>
       <use x="63.623047" xlink:href="#DejaVuSans-53"/>
      </g>
     </g>
    </g>
    <g id="ytick_7">
     <g id="line2d_57">
      <path clip-path="url(#pe4940ff86d)" d="M 26.925 147.595214 
L 584.925 147.595214 
" style="fill:none;stroke:#c0c0c0;stroke-dasharray:0.5,0.825;stroke-dashoffset:0;stroke-width:0.5;"/>
     </g>
     <g id="line2d_58">
      <g>
       <use style="stroke:#000000;stroke-width:0.8;" x="26.925" xlink:href="#me6e8d1f5d1" y="147.595214"/>
      </g>
     </g>
     <g id="text_29">
      <!-- 30 -->
      <g transform="translate(7.2 151.394433)scale(0.1 -0.1)">
       <use xlink:href="#DejaVuSans-51"/>
       <use x="63.623047" xlink:href="#DejaVuSans-48"/>
      </g>
     </g>
    </g>
    <g id="ytick_8">
     <g id="line2d_59">
      <path clip-path="url(#pe4940ff86d)" d="M 26.925 123.174729 
L 584.925 123.174729 
" style="fill:none;stroke:#c0c0c0;stroke-dasharray:0.5,0.825;stroke-dashoffset:0;stroke-width:0.5;"/>
     </g>
     <g id="line2d_60">
      <g>
       <use style="stroke:#000000;stroke-width:0.8;" x="26.925" xlink:href="#me6e8d1f5d1" y="123.174729"/>
      </g>
     </g>
     <g id="text_30">
      <!-- 35 -->
      <g transform="translate(7.2 126.973948)scale(0.1 -0.1)">
       <use xlink:href="#DejaVuSans-51"/>
       <use x="63.623047" xlink:href="#DejaVuSans-53"/>
      </g>
     </g>
    </g>
    <g id="ytick_9">
     <g id="line2d_61">
      <path clip-path="url(#pe4940ff86d)" d="M 26.925 98.754244 
L 584.925 98.754244 
" style="fill:none;stroke:#c0c0c0;stroke-dasharray:0.5,0.825;stroke-dashoffset:0;stroke-width:0.5;"/>
     </g>
     <g id="line2d_62">
      <g>
       <use style="stroke:#000000;stroke-width:0.8;" x="26.925" xlink:href="#me6e8d1f5d1" y="98.754244"/>
      </g>
     </g>
     <g id="text_31">
      <!-- 40 -->
      <g transform="translate(7.2 102.553462)scale(0.1 -0.1)">
       <use xlink:href="#DejaVuSans-52"/>
       <use x="63.623047" xlink:href="#DejaVuSans-48"/>
      </g>
     </g>
    </g>
    <g id="ytick_10">
     <g id="line2d_63">
      <path clip-path="url(#pe4940ff86d)" d="M 26.925 74.333758 
L 584.925 74.333758 
" style="fill:none;stroke:#c0c0c0;stroke-dasharray:0.5,0.825;stroke-dashoffset:0;stroke-width:0.5;"/>
     </g>
     <g id="line2d_64">
      <g>
       <use style="stroke:#000000;stroke-width:0.8;" x="26.925" xlink:href="#me6e8d1f5d1" y="74.333758"/>
      </g>
     </g>
     <g id="text_32">
      <!-- 45 -->
      <g transform="translate(7.2 78.132977)scale(0.1 -0.1)">
       <use xlink:href="#DejaVuSans-52"/>
       <use x="63.623047" xlink:href="#DejaVuSans-53"/>
      </g>
     </g>
    </g>
    <g id="ytick_11">
     <g id="line2d_65">
      <path clip-path="url(#pe4940ff86d)" d="M 26.925 49.913273 
L 584.925 49.913273 
" style="fill:none;stroke:#c0c0c0;stroke-dasharray:0.5,0.825;stroke-dashoffset:0;stroke-width:0.5;"/>
     </g>
     <g id="line2d_66">
      <g>
       <use style="stroke:#000000;stroke-width:0.8;" x="26.925" xlink:href="#me6e8d1f5d1" y="49.913273"/>
      </g>
     </g>
     <g id="text_33">
      <!-- 50 -->
      <g transform="translate(7.2 53.712492)scale(0.1 -0.1)">
       <use xlink:href="#DejaVuSans-53"/>
       <use x="63.623047" xlink:href="#DejaVuSans-48"/>
      </g>
     </g>
    </g>
    <g id="ytick_12">
     <g id="line2d_67">
      <path clip-path="url(#pe4940ff86d)" d="M 26.925 25.492788 
L 584.925 25.492788 
" style="fill:none;stroke:#c0c0c0;stroke-dasharray:0.5,0.825;stroke-dashoffset:0;stroke-width:0.5;"/>
     </g>
     <g id="line2d_68">
      <g>
       <use style="stroke:#000000;stroke-width:0.8;" x="26.925" xlink:href="#me6e8d1f5d1" y="25.492788"/>
      </g>
     </g>
     <g id="text_34">
      <!-- 55 -->
      <g transform="translate(7.2 29.292007)scale(0.1 -0.1)">
       <use xlink:href="#DejaVuSans-53"/>
       <use x="63.623047" xlink:href="#DejaVuSans-53"/>
      </g>
     </g>
    </g>
   </g>
   <g id="patch_3">
    <path clip-path="url(#pe4940ff86d)" d="M 52.288636 294.118125 
L 70.904149 294.118125 
L 70.904149 284.349931 
L 52.288636 284.349931 
z
" style="fill:#ff6347;"/>
   </g>
   <g id="patch_4">
    <path clip-path="url(#pe4940ff86d)" d="M 75.558028 294.118125 
L 94.17354 294.118125 
L 94.17354 284.349931 
L 75.558028 284.349931 
z
" style="fill:#ff6347;"/>
   </g>
   <g id="patch_5">
    <path clip-path="url(#pe4940ff86d)" d="M 98.827419 294.118125 
L 117.442932 294.118125 
L 117.442932 279.465834 
L 98.827419 279.465834 
z
" style="fill:#ff6347;"/>
   </g>
   <g id="patch_6">
    <path clip-path="url(#pe4940ff86d)" d="M 122.09681 294.118125 
L 140.712323 294.118125 
L 140.712323 279.465834 
L 122.09681 279.465834 
z
" style="fill:#ff6347;"/>
   </g>
   <g id="patch_7">
    <path clip-path="url(#pe4940ff86d)" d="M 145.366201 294.118125 
L 163.981714 294.118125 
L 163.981714 269.69764 
L 145.366201 269.69764 
z
" style="fill:#ff6347;"/>
   </g>
   <g id="patch_8">
    <path clip-path="url(#pe4940ff86d)" d="M 168.635592 294.118125 
L 187.251105 294.118125 
L 187.251105 255.045349 
L 168.635592 255.045349 
z
" style="fill:#ff6347;"/>
   </g>
   <g id="patch_9">
    <path clip-path="url(#pe4940ff86d)" d="M 191.904983 294.118125 
L 210.520496 294.118125 
L 210.520496 245.277155 
L 191.904983 245.277155 
z
" style="fill:#ff6347;"/>
   </g>
   <g id="patch_10">
    <path clip-path="url(#pe4940ff86d)" d="M 215.174374 294.118125 
L 233.789887 294.118125 
L 233.789887 220.856669 
L 215.174374 220.856669 
z
" style="fill:#ff6347;"/>
   </g>
   <g id="patch_11">
    <path clip-path="url(#pe4940ff86d)" d="M 238.443766 294.118125 
L 257.059279 294.118125 
L 257.059279 220.856669 
L 238.443766 220.856669 
z
" style="fill:#ff6347;"/>
   </g>
   <g id="patch_12">
    <path clip-path="url(#pe4940ff86d)" d="M 261.713157 294.118125 
L 280.32867 294.118125 
L 280.32867 215.972572 
L 261.713157 215.972572 
z
" style="fill:#ff6347;"/>
   </g>
   <g id="patch_13">
    <path clip-path="url(#pe4940ff86d)" d="M 284.982548 294.118125 
L 303.598061 294.118125 
L 303.598061 196.436184 
L 284.982548 196.436184 
z
" style="fill:#ff6347;"/>
   </g>
   <g id="patch_14">
    <path clip-path="url(#pe4940ff86d)" d="M 308.251939 294.118125 
L 326.867452 294.118125 
L 326.867452 196.436184 
L 308.251939 196.436184 
z
" style="fill:#ff6347;"/>
   </g>
   <g id="patch_15">
    <path clip-path="url(#pe4940ff86d)" d="M 331.52133 294.118125 
L 350.136843 294.118125 
L 350.136843 191.552087 
L 331.52133 191.552087 
z
" style="fill:#ff6347;"/>
   </g>
   <g id="patch_16">
    <path clip-path="url(#pe4940ff86d)" d="M 354.790721 294.118125 
L 373.406234 294.118125 
L 373.406234 191.552087 
L 354.790721 191.552087 
z
" style="fill:#ff6347;"/>
   </g>
   <g id="patch_17">
    <path clip-path="url(#pe4940ff86d)" d="M 378.060113 294.118125 
L 396.675626 294.118125 
L 396.675626 186.66799 
L 378.060113 186.66799 
z
" style="fill:#ff6347;"/>
   </g>
   <g id="patch_18">
    <path clip-path="url(#pe4940ff86d)" d="M 401.329504 294.118125 
L 419.945017 294.118125 
L 419.945017 186.66799 
L 401.329504 186.66799 
z
" style="fill:#ff6347;"/>
   </g>
   <g id="patch_19">
    <path clip-path="url(#pe4940ff86d)" d="M 424.598895 294.118125 
L 443.214408 294.118125 
L 443.214408 186.66799 
L 424.598895 186.66799 
z
" style="fill:#ff6347;"/>
   </g>
   <g id="patch_20">
    <path clip-path="url(#pe4940ff86d)" d="M 447.868286 294.118125 
L 466.483799 294.118125 
L 466.483799 181.783893 
L 447.868286 181.783893 
z
" style="fill:#ff6347;"/>
   </g>
   <g id="patch_21">
    <path clip-path="url(#pe4940ff86d)" d="M 471.137677 294.118125 
L 489.75319 294.118125 
L 489.75319 157.363408 
L 471.137677 157.363408 
z
" style="fill:#ff6347;"/>
   </g>
   <g id="patch_22">
    <path clip-path="url(#pe4940ff86d)" d="M 494.407068 294.118125 
L 513.022581 294.118125 
L 513.022581 142.711117 
L 494.407068 142.711117 
z
" style="fill:#ff6347;"/>
   </g>
   <g id="patch_23">
    <path clip-path="url(#pe4940ff86d)" d="M 517.67646 294.118125 
L 536.291972 294.118125 
L 536.291972 103.638341 
L 517.67646 103.638341 
z
" style="fill:#ff6347;"/>
   </g>
   <g id="patch_24">
    <path clip-path="url(#pe4940ff86d)" d="M 540.945851 294.118125 
L 559.561364 294.118125 
L 559.561364 35.260982 
L 540.945851 35.260982 
z
" style="fill:#ff6347;"/>
   </g>
   <g id="patch_25">
    <path d="M 26.925 294.118125 
L 26.925 22.318125 
" style="fill:none;stroke:#000000;stroke-linecap:square;stroke-linejoin:miter;stroke-width:0.8;"/>
   </g>
   <g id="patch_26">
    <path d="M 584.925 294.118125 
L 584.925 22.318125 
" style="fill:none;stroke:#000000;stroke-linecap:square;stroke-linejoin:miter;stroke-width:0.8;"/>
   </g>
   <g id="patch_27">
    <path d="M 26.925 294.118125 
L 584.925 294.118125 
" style="fill:none;stroke:#000000;stroke-linecap:square;stroke-linejoin:miter;stroke-width:0.8;"/>
   </g>
   <g id="patch_28">
    <path d="M 26.925 22.318125 
L 584.925 22.318125 
" style="fill:none;stroke:#000000;stroke-linecap:square;stroke-linejoin:miter;stroke-width:0.8;"/>
   </g>
   <g id="text_35">
    <!-- Total cases as of 13/04/2020 -->
    <defs>
     <path d="M -0.296875 72.90625 
L 61.375 72.90625 
L 61.375 64.59375 
L 35.5 64.59375 
L 35.5 0 
L 25.59375 0 
L 25.59375 64.59375 
L -0.296875 64.59375 
z
" id="DejaVuSans-84"/>
     <path d="M 30.609375 48.390625 
Q 23.390625 48.390625 19.1875 42.75 
Q 14.984375 37.109375 14.984375 27.296875 
Q 14.984375 17.484375 19.15625 11.84375 
Q 23.34375 6.203125 30.609375 6.203125 
Q 37.796875 6.203125 41.984375 11.859375 
Q 46.1875 17.53125 46.1875 27.296875 
Q 46.1875 37.015625 41.984375 42.703125 
Q 37.796875 48.390625 30.609375 48.390625 
z
M 30.609375 56 
Q 42.328125 56 49.015625 48.375 
Q 55.71875 40.765625 55.71875 27.296875 
Q 55.71875 13.875 49.015625 6.21875 
Q 42.328125 -1.421875 30.609375 -1.421875 
Q 18.84375 -1.421875 12.171875 6.21875 
Q 5.515625 13.875 5.515625 27.296875 
Q 5.515625 40.765625 12.171875 48.375 
Q 18.84375 56 30.609375 56 
z
" id="DejaVuSans-111"/>
     <path d="M 18.3125 70.21875 
L 18.3125 54.6875 
L 36.8125 54.6875 
L 36.8125 47.703125 
L 18.3125 47.703125 
L 18.3125 18.015625 
Q 18.3125 11.328125 20.140625 9.421875 
Q 21.96875 7.515625 27.59375 7.515625 
L 36.8125 7.515625 
L 36.8125 0 
L 27.59375 0 
Q 17.1875 0 13.234375 3.875 
Q 9.28125 7.765625 9.28125 18.015625 
L 9.28125 47.703125 
L 2.6875 47.703125 
L 2.6875 54.6875 
L 9.28125 54.6875 
L 9.28125 70.21875 
z
" id="DejaVuSans-116"/>
     <path d="M 34.28125 27.484375 
Q 23.390625 27.484375 19.1875 25 
Q 14.984375 22.515625 14.984375 16.5 
Q 14.984375 11.71875 18.140625 8.90625 
Q 21.296875 6.109375 26.703125 6.109375 
Q 34.1875 6.109375 38.703125 11.40625 
Q 43.21875 16.703125 43.21875 25.484375 
L 43.21875 27.484375 
z
M 52.203125 31.203125 
L 52.203125 0 
L 43.21875 0 
L 43.21875 8.296875 
Q 40.140625 3.328125 35.546875 0.953125 
Q 30.953125 -1.421875 24.3125 -1.421875 
Q 15.921875 -1.421875 10.953125 3.296875 
Q 6 8.015625 6 15.921875 
Q 6 25.140625 12.171875 29.828125 
Q 18.359375 34.515625 30.609375 34.515625 
L 43.21875 34.515625 
L 43.21875 35.40625 
Q 43.21875 41.609375 39.140625 45 
Q 35.0625 48.390625 27.6875 48.390625 
Q 23 48.390625 18.546875 47.265625 
Q 14.109375 46.140625 10.015625 43.890625 
L 10.015625 52.203125 
Q 14.9375 54.109375 19.578125 55.046875 
Q 24.21875 56 28.609375 56 
Q 40.484375 56 46.34375 49.84375 
Q 52.203125 43.703125 52.203125 31.203125 
z
" id="DejaVuSans-97"/>
     <path d="M 9.421875 75.984375 
L 18.40625 75.984375 
L 18.40625 0 
L 9.421875 0 
z
" id="DejaVuSans-108"/>
     <path id="DejaVuSans-32"/>
     <path d="M 48.78125 52.59375 
L 48.78125 44.1875 
Q 44.96875 46.296875 41.140625 47.34375 
Q 37.3125 48.390625 33.40625 48.390625 
Q 24.65625 48.390625 19.8125 42.84375 
Q 14.984375 37.3125 14.984375 27.296875 
Q 14.984375 17.28125 19.8125 11.734375 
Q 24.65625 6.203125 33.40625 6.203125 
Q 37.3125 6.203125 41.140625 7.25 
Q 44.96875 8.296875 48.78125 10.40625 
L 48.78125 2.09375 
Q 45.015625 0.34375 40.984375 -0.53125 
Q 36.96875 -1.421875 32.421875 -1.421875 
Q 20.0625 -1.421875 12.78125 6.34375 
Q 5.515625 14.109375 5.515625 27.296875 
Q 5.515625 40.671875 12.859375 48.328125 
Q 20.21875 56 33.015625 56 
Q 37.15625 56 41.109375 55.140625 
Q 45.0625 54.296875 48.78125 52.59375 
z
" id="DejaVuSans-99"/>
     <path d="M 44.28125 53.078125 
L 44.28125 44.578125 
Q 40.484375 46.53125 36.375 47.5 
Q 32.28125 48.484375 27.875 48.484375 
Q 21.1875 48.484375 17.84375 46.4375 
Q 14.5 44.390625 14.5 40.28125 
Q 14.5 37.15625 16.890625 35.375 
Q 19.28125 33.59375 26.515625 31.984375 
L 29.59375 31.296875 
Q 39.15625 29.25 43.1875 25.515625 
Q 47.21875 21.78125 47.21875 15.09375 
Q 47.21875 7.46875 41.1875 3.015625 
Q 35.15625 -1.421875 24.609375 -1.421875 
Q 20.21875 -1.421875 15.453125 -0.5625 
Q 10.6875 0.296875 5.421875 2 
L 5.421875 11.28125 
Q 10.40625 8.6875 15.234375 7.390625 
Q 20.0625 6.109375 24.8125 6.109375 
Q 31.15625 6.109375 34.5625 8.28125 
Q 37.984375 10.453125 37.984375 14.40625 
Q 37.984375 18.0625 35.515625 20.015625 
Q 33.0625 21.96875 24.703125 23.78125 
L 21.578125 24.515625 
Q 13.234375 26.265625 9.515625 29.90625 
Q 5.8125 33.546875 5.8125 39.890625 
Q 5.8125 47.609375 11.28125 51.796875 
Q 16.75 56 26.8125 56 
Q 31.78125 56 36.171875 55.265625 
Q 40.578125 54.546875 44.28125 53.078125 
z
" id="DejaVuSans-115"/>
     <path d="M 56.203125 29.59375 
L 56.203125 25.203125 
L 14.890625 25.203125 
Q 15.484375 15.921875 20.484375 11.0625 
Q 25.484375 6.203125 34.421875 6.203125 
Q 39.59375 6.203125 44.453125 7.46875 
Q 49.3125 8.734375 54.109375 11.28125 
L 54.109375 2.78125 
Q 49.265625 0.734375 44.1875 -0.34375 
Q 39.109375 -1.421875 33.890625 -1.421875 
Q 20.796875 -1.421875 13.15625 6.1875 
Q 5.515625 13.8125 5.515625 26.8125 
Q 5.515625 40.234375 12.765625 48.109375 
Q 20.015625 56 32.328125 56 
Q 43.359375 56 49.78125 48.890625 
Q 56.203125 41.796875 56.203125 29.59375 
z
M 47.21875 32.234375 
Q 47.125 39.59375 43.09375 43.984375 
Q 39.0625 48.390625 32.421875 48.390625 
Q 24.90625 48.390625 20.390625 44.140625 
Q 15.875 39.890625 15.1875 32.171875 
z
" id="DejaVuSans-101"/>
     <path d="M 37.109375 75.984375 
L 37.109375 68.5 
L 28.515625 68.5 
Q 23.6875 68.5 21.796875 66.546875 
Q 19.921875 64.59375 19.921875 59.515625 
L 19.921875 54.6875 
L 34.71875 54.6875 
L 34.71875 47.703125 
L 19.921875 47.703125 
L 19.921875 0 
L 10.890625 0 
L 10.890625 47.703125 
L 2.296875 47.703125 
L 2.296875 54.6875 
L 10.890625 54.6875 
L 10.890625 58.5 
Q 10.890625 67.625 15.140625 71.796875 
Q 19.390625 75.984375 28.609375 75.984375 
z
" id="DejaVuSans-102"/>
    </defs>
    <g transform="translate(220.198125 16.318125)scale(0.12 -0.12)">
     <use xlink:href="#DejaVuSans-84"/>
     <use x="44.083984" xlink:href="#DejaVuSans-111"/>
     <use x="105.265625" xlink:href="#DejaVuSans-116"/>
     <use x="144.474609" xlink:href="#DejaVuSans-97"/>
     <use x="205.753906" xlink:href="#DejaVuSans-108"/>
     <use x="233.537109" xlink:href="#DejaVuSans-32"/>
     <use x="265.324219" xlink:href="#DejaVuSans-99"/>
     <use x="320.304688" xlink:href="#DejaVuSans-97"/>
     <use x="381.583984" xlink:href="#DejaVuSans-115"/>
     <use x="433.683594" xlink:href="#DejaVuSans-101"/>
     <use x="495.207031" xlink:href="#DejaVuSans-115"/>
     <use x="547.306641" xlink:href="#DejaVuSans-32"/>
     <use x="579.09375" xlink:href="#DejaVuSans-97"/>
     <use x="640.373047" xlink:href="#DejaVuSans-115"/>
     <use x="692.472656" xlink:href="#DejaVuSans-32"/>
     <use x="724.259766" xlink:href="#DejaVuSans-111"/>
     <use x="785.441406" xlink:href="#DejaVuSans-102"/>
     <use x="820.646484" xlink:href="#DejaVuSans-32"/>
     <use x="852.433594" xlink:href="#DejaVuSans-49"/>
     <use x="916.056641" xlink:href="#DejaVuSans-51"/>
     <use x="979.679688" xlink:href="#DejaVuSans-47"/>
     <use x="1013.371094" xlink:href="#DejaVuSans-48"/>
     <use x="1076.994141" xlink:href="#DejaVuSans-52"/>
     <use x="1140.617188" xlink:href="#DejaVuSans-47"/>
     <use x="1174.308594" xlink:href="#DejaVuSans-50"/>
     <use x="1237.931641" xlink:href="#DejaVuSans-48"/>
     <use x="1301.554688" xlink:href="#DejaVuSans-50"/>
     <use x="1365.177734" xlink:href="#DejaVuSans-48"/>
    </g>
   </g>
  </g>
 </g>
 <defs>
  <clipPath id="pe4940ff86d">
   <rect height="271.8" width="558" x="26.925" y="22.318125"/>
  </clipPath>
 </defs>
</svg>
