<?xml version="1.0" encoding="utf-8" standalone="no"?>
<!DOCTYPE svg PUBLIC "-//W3C//DTD SVG 1.1//EN"
  "http://www.w3.org/Graphics/SVG/1.1/DTD/svg11.dtd">
<!-- Created with matplotlib (https://matplotlib.org/) -->
<svg height="464.398125pt" version="1.1" viewBox="0 0 568.041326 464.398125" width="568.041326pt" xmlns="http://www.w3.org/2000/svg" xmlns:xlink="http://www.w3.org/1999/xlink">
 <defs>
  <style type="text/css">
*{stroke-linecap:butt;stroke-linejoin:round;}
  </style>
 </defs>
 <g id="figure_1">
  <g id="patch_1">
   <path d="M 0 464.398125 
L 568.041326 464.398125 
L 568.041326 0 
L 0 0 
z
" style="fill:#ffffff;"/>
  </g>
  <g id="axes_1">
   <g id="patch_2">
    <path d="M 450.220319 239.758125 
C 450.220319 207.938087 441.489335 176.719811 424.981951 149.516482 
C 408.474567 122.313154 384.815138 100.153679 356.59042 85.46082 
L 328.477685 139.464877 
C 346.823751 149.015235 362.20238 163.418894 372.93218 181.101057 
C 383.661979 198.783221 389.337119 219.075101 389.337119 239.758125 
L 450.220319 239.758125 
z
" style="fill:#6495ed;stroke:#ffffff;stroke-linejoin:miter;"/>
   </g>
   <g id="patch_3">
    <path d="M 356.59042 85.46082 
C 339.86292 76.753033 321.830161 70.823073 303.199254 67.903468 
C 284.568346 64.983863 265.586037 65.11328 246.996669 68.286644 
C 228.407302 71.460008 210.457074 77.635292 193.849858 86.570346 
C 177.242643 95.505401 162.198385 107.081891 149.307008 120.845873 
C 136.415631 134.609855 125.847867 150.37904 118.018106 167.535079 
C 110.188345 184.691117 105.200283 203.006795 103.249515 221.763909 
C 101.298747 240.521022 102.411109 259.471154 106.542981 277.87122 
C 110.674854 296.271286 117.771515 313.877598 127.554688 329.999768 
C 137.33786 346.121937 149.677975 360.546443 164.091146 372.707665 
C 178.504317 384.868886 194.799657 394.605761 212.338184 401.53648 
C 229.876712 408.4672 248.426147 412.499974 267.25912 413.476669 
C 286.092093 414.453364 304.959181 412.361044 323.120558 407.281753 
C 341.281936 402.202463 358.497073 394.203472 374.090923 383.598441 
C 389.684772 372.993411 403.450809 359.922793 414.849232 344.89912 
C 426.247656 329.875447 435.127506 313.097691 441.140581 295.223751 
C 447.153656 277.349811 450.220319 258.616407 450.220319 239.758125 
L 389.337119 239.758125 
C 389.337119 252.016008 387.343788 264.192721 383.435289 275.810782 
C 379.52679 287.428843 373.754888 298.334384 366.345913 308.099772 
C 358.936937 317.865159 349.989013 326.361061 339.853011 333.25433 
C 329.717009 340.1476 318.52717 345.346944 306.722275 348.648483 
C 294.91738 351.950022 282.653772 353.31003 270.41234 352.675179 
C 258.170907 352.040327 246.113774 349.419024 234.713732 344.914056 
C 223.313689 340.409088 212.721718 334.08012 203.353157 326.175326 
C 193.984595 318.270532 185.96352 308.894603 179.604459 298.415193 
C 173.245397 287.935783 168.632567 276.49168 165.94685 264.531637 
C 163.261132 252.571594 162.538097 240.254008 163.806097 228.061884 
C 165.074096 215.869761 168.316336 203.96457 173.405681 192.813145 
C 178.495025 181.66172 185.364072 171.41175 193.743467 162.465161 
C 202.122862 153.518573 211.901629 145.993854 222.69632 140.186069 
C 233.49101 134.378283 245.158658 130.364349 257.241747 128.301662 
C 269.324835 126.238976 281.663337 126.154855 293.773426 128.052598 
C 305.883516 129.950341 317.60481 133.804816 328.477685 139.464877 
L 356.59042 85.46082 
z
" style="fill:#f08080;stroke:#ffffff;stroke-linejoin:miter;"/>
   </g>
   <g id="patch_4">
    <path d="M 389.337119 239.758125 
C 389.337119 219.075101 383.661979 198.783221 372.93218 181.101057 
C 362.20238 163.418894 346.823751 149.015235 328.477685 139.464877 
L 308.39716 178.039203 
C 319.687047 183.916347 329.150818 192.780137 335.753772 203.661468 
C 342.356725 214.542799 345.849119 227.03011 345.849119 239.758125 
L 389.337119 239.758125 
z
" style="fill:#b0c4de;stroke:#ffffff;stroke-linejoin:miter;"/>
   </g>
   <g id="patch_5">
    <path d="M 328.477685 139.464877 
C 309.574248 129.624369 288.268332 125.325923 267.028219 127.067513 
C 245.788106 128.809102 225.466963 136.520771 208.418986 149.309125 
C 191.371009 162.09748 178.280976 179.448841 170.665363 199.353061 
C 163.04975 219.25728 161.214458 240.914852 165.372104 261.816754 
C 169.529751 282.718655 179.513334 302.025306 194.166258 317.500039 
C 208.819182 332.974771 227.552874 343.996 248.197043 349.28692 
C 268.841211 354.577841 290.566627 353.925929 310.85641 347.406708 
C 331.146193 340.887488 349.185349 328.762821 362.884048 312.437345 
L 329.570306 284.483799 
C 321.140337 294.530245 310.039318 301.991579 297.553298 306.003407 
C 285.067278 310.015235 271.697791 310.416412 258.993687 307.16046 
C 246.289584 303.904509 234.761158 297.122215 225.743974 287.599303 
C 216.72679 278.076391 210.583047 266.195374 208.024495 253.332666 
C 205.465943 240.469957 206.595353 227.142221 211.281885 214.89347 
C 215.968416 202.64472 224.023821 191.966959 234.514883 184.097202 
C 245.005946 176.227446 257.511265 171.481803 270.582104 170.410056 
C 283.652942 169.338309 296.764275 171.983506 308.39716 178.039203 
L 328.477685 139.464877 
z
" style="fill:#bc8f8f;stroke:#ffffff;stroke-linejoin:miter;"/>
   </g>
   <g id="patch_6">
    <path d="M 362.884048 312.437345 
C 368.704935 305.500281 373.671415 297.888977 377.676646 289.767173 
C 381.681876 281.645368 384.696928 273.071725 386.656938 264.230688 
L 344.199777 254.818164 
C 342.993617 260.258802 341.1382 265.53489 338.673443 270.532923 
C 336.208686 275.530957 333.15239 280.214837 329.570306 284.483799 
L 362.884048 312.437345 
z
" style="fill:#b22222;stroke:#ffffff;stroke-linejoin:miter;"/>
   </g>
   <g id="patch_7">
    <path d="M 386.656938 264.230688 
C 387.547006 260.21585 388.217382 256.155442 388.665077 252.067567 
C 389.112772 247.979693 389.337119 243.870436 389.337119 239.75812 
L 345.849119 239.758122 
C 345.849119 242.288778 345.711059 244.817551 345.435555 247.333166 
C 345.16005 249.848781 344.747511 252.347494 344.199777 254.818164 
L 386.656938 264.230688 
z
" style="fill:#ff7f50;stroke:#ffffff;stroke-linejoin:miter;"/>
   </g>
   <g id="matplotlib.axis_1"/>
   <g id="matplotlib.axis_2"/>
   <g id="text_1">
    <!-- Overseas Inflow = 17.36 % -->
    <defs>
     <path d="M 39.40625 66.21875 
Q 28.65625 66.21875 22.328125 58.203125 
Q 16.015625 50.203125 16.015625 36.375 
Q 16.015625 22.609375 22.328125 14.59375 
Q 28.65625 6.59375 39.40625 6.59375 
Q 50.140625 6.59375 56.421875 14.59375 
Q 62.703125 22.609375 62.703125 36.375 
Q 62.703125 50.203125 56.421875 58.203125 
Q 50.140625 66.21875 39.40625 66.21875 
z
M 39.40625 74.21875 
Q 54.734375 74.21875 63.90625 63.9375 
Q 73.09375 53.65625 73.09375 36.375 
Q 73.09375 19.140625 63.90625 8.859375 
Q 54.734375 -1.421875 39.40625 -1.421875 
Q 24.03125 -1.421875 14.8125 8.828125 
Q 5.609375 19.09375 5.609375 36.375 
Q 5.609375 53.65625 14.8125 63.9375 
Q 24.03125 74.21875 39.40625 74.21875 
z
" id="DejaVuSans-79"/>
     <path d="M 2.984375 54.6875 
L 12.5 54.6875 
L 29.59375 8.796875 
L 46.6875 54.6875 
L 56.203125 54.6875 
L 35.6875 0 
L 23.484375 0 
z
" id="DejaVuSans-118"/>
     <path d="M 56.203125 29.59375 
L 56.203125 25.203125 
L 14.890625 25.203125 
Q 15.484375 15.921875 20.484375 11.0625 
Q 25.484375 6.203125 34.421875 6.203125 
Q 39.59375 6.203125 44.453125 7.46875 
Q 49.3125 8.734375 54.109375 11.28125 
L 54.109375 2.78125 
Q 49.265625 0.734375 44.1875 -0.34375 
Q 39.109375 -1.421875 33.890625 -1.421875 
Q 20.796875 -1.421875 13.15625 6.1875 
Q 5.515625 13.8125 5.515625 26.8125 
Q 5.515625 40.234375 12.765625 48.109375 
Q 20.015625 56 32.328125 56 
Q 43.359375 56 49.78125 48.890625 
Q 56.203125 41.796875 56.203125 29.59375 
z
M 47.21875 32.234375 
Q 47.125 39.59375 43.09375 43.984375 
Q 39.0625 48.390625 32.421875 48.390625 
Q 24.90625 48.390625 20.390625 44.140625 
Q 15.875 39.890625 15.1875 32.171875 
z
" id="DejaVuSans-101"/>
     <path d="M 41.109375 46.296875 
Q 39.59375 47.171875 37.8125 47.578125 
Q 36.03125 48 33.890625 48 
Q 26.265625 48 22.1875 43.046875 
Q 18.109375 38.09375 18.109375 28.8125 
L 18.109375 0 
L 9.078125 0 
L 9.078125 54.6875 
L 18.109375 54.6875 
L 18.109375 46.1875 
Q 20.953125 51.171875 25.484375 53.578125 
Q 30.03125 56 36.53125 56 
Q 37.453125 56 38.578125 55.875 
Q 39.703125 55.765625 41.0625 55.515625 
z
" id="DejaVuSans-114"/>
     <path d="M 44.28125 53.078125 
L 44.28125 44.578125 
Q 40.484375 46.53125 36.375 47.5 
Q 32.28125 48.484375 27.875 48.484375 
Q 21.1875 48.484375 17.84375 46.4375 
Q 14.5 44.390625 14.5 40.28125 
Q 14.5 37.15625 16.890625 35.375 
Q 19.28125 33.59375 26.515625 31.984375 
L 29.59375 31.296875 
Q 39.15625 29.25 43.1875 25.515625 
Q 47.21875 21.78125 47.21875 15.09375 
Q 47.21875 7.46875 41.1875 3.015625 
Q 35.15625 -1.421875 24.609375 -1.421875 
Q 20.21875 -1.421875 15.453125 -0.5625 
Q 10.6875 0.296875 5.421875 2 
L 5.421875 11.28125 
Q 10.40625 8.6875 15.234375 7.390625 
Q 20.0625 6.109375 24.8125 6.109375 
Q 31.15625 6.109375 34.5625 8.28125 
Q 37.984375 10.453125 37.984375 14.40625 
Q 37.984375 18.0625 35.515625 20.015625 
Q 33.0625 21.96875 24.703125 23.78125 
L 21.578125 24.515625 
Q 13.234375 26.265625 9.515625 29.90625 
Q 5.8125 33.546875 5.8125 39.890625 
Q 5.8125 47.609375 11.28125 51.796875 
Q 16.75 56 26.8125 56 
Q 31.78125 56 36.171875 55.265625 
Q 40.578125 54.546875 44.28125 53.078125 
z
" id="DejaVuSans-115"/>
     <path d="M 34.28125 27.484375 
Q 23.390625 27.484375 19.1875 25 
Q 14.984375 22.515625 14.984375 16.5 
Q 14.984375 11.71875 18.140625 8.90625 
Q 21.296875 6.109375 26.703125 6.109375 
Q 34.1875 6.109375 38.703125 11.40625 
Q 43.21875 16.703125 43.21875 25.484375 
L 43.21875 27.484375 
z
M 52.203125 31.203125 
L 52.203125 0 
L 43.21875 0 
L 43.21875 8.296875 
Q 40.140625 3.328125 35.546875 0.953125 
Q 30.953125 -1.421875 24.3125 -1.421875 
Q 15.921875 -1.421875 10.953125 3.296875 
Q 6 8.015625 6 15.921875 
Q 6 25.140625 12.171875 29.828125 
Q 18.359375 34.515625 30.609375 34.515625 
L 43.21875 34.515625 
L 43.21875 35.40625 
Q 43.21875 41.609375 39.140625 45 
Q 35.0625 48.390625 27.6875 48.390625 
Q 23 48.390625 18.546875 47.265625 
Q 14.109375 46.140625 10.015625 43.890625 
L 10.015625 52.203125 
Q 14.9375 54.109375 19.578125 55.046875 
Q 24.21875 56 28.609375 56 
Q 40.484375 56 46.34375 49.84375 
Q 52.203125 43.703125 52.203125 31.203125 
z
" id="DejaVuSans-97"/>
     <path id="DejaVuSans-32"/>
     <path d="M 9.8125 72.90625 
L 19.671875 72.90625 
L 19.671875 0 
L 9.8125 0 
z
" id="DejaVuSans-73"/>
     <path d="M 54.890625 33.015625 
L 54.890625 0 
L 45.90625 0 
L 45.90625 32.71875 
Q 45.90625 40.484375 42.875 44.328125 
Q 39.84375 48.1875 33.796875 48.1875 
Q 26.515625 48.1875 22.3125 43.546875 
Q 18.109375 38.921875 18.109375 30.90625 
L 18.109375 0 
L 9.078125 0 
L 9.078125 54.6875 
L 18.109375 54.6875 
L 18.109375 46.1875 
Q 21.34375 51.125 25.703125 53.5625 
Q 30.078125 56 35.796875 56 
Q 45.21875 56 50.046875 50.171875 
Q 54.890625 44.34375 54.890625 33.015625 
z
" id="DejaVuSans-110"/>
     <path d="M 37.109375 75.984375 
L 37.109375 68.5 
L 28.515625 68.5 
Q 23.6875 68.5 21.796875 66.546875 
Q 19.921875 64.59375 19.921875 59.515625 
L 19.921875 54.6875 
L 34.71875 54.6875 
L 34.71875 47.703125 
L 19.921875 47.703125 
L 19.921875 0 
L 10.890625 0 
L 10.890625 47.703125 
L 2.296875 47.703125 
L 2.296875 54.6875 
L 10.890625 54.6875 
L 10.890625 58.5 
Q 10.890625 67.625 15.140625 71.796875 
Q 19.390625 75.984375 28.609375 75.984375 
z
" id="DejaVuSans-102"/>
     <path d="M 9.421875 75.984375 
L 18.40625 75.984375 
L 18.40625 0 
L 9.421875 0 
z
" id="DejaVuSans-108"/>
     <path d="M 30.609375 48.390625 
Q 23.390625 48.390625 19.1875 42.75 
Q 14.984375 37.109375 14.984375 27.296875 
Q 14.984375 17.484375 19.15625 11.84375 
Q 23.34375 6.203125 30.609375 6.203125 
Q 37.796875 6.203125 41.984375 11.859375 
Q 46.1875 17.53125 46.1875 27.296875 
Q 46.1875 37.015625 41.984375 42.703125 
Q 37.796875 48.390625 30.609375 48.390625 
z
M 30.609375 56 
Q 42.328125 56 49.015625 48.375 
Q 55.71875 40.765625 55.71875 27.296875 
Q 55.71875 13.875 49.015625 6.21875 
Q 42.328125 -1.421875 30.609375 -1.421875 
Q 18.84375 -1.421875 12.171875 6.21875 
Q 5.515625 13.875 5.515625 27.296875 
Q 5.515625 40.765625 12.171875 48.375 
Q 18.84375 56 30.609375 56 
z
" id="DejaVuSans-111"/>
     <path d="M 4.203125 54.6875 
L 13.1875 54.6875 
L 24.421875 12.015625 
L 35.59375 54.6875 
L 46.1875 54.6875 
L 57.421875 12.015625 
L 68.609375 54.6875 
L 77.59375 54.6875 
L 63.28125 0 
L 52.6875 0 
L 40.921875 44.828125 
L 29.109375 0 
L 18.5 0 
z
" id="DejaVuSans-119"/>
     <path d="M 10.59375 45.40625 
L 73.1875 45.40625 
L 73.1875 37.203125 
L 10.59375 37.203125 
z
M 10.59375 25.484375 
L 73.1875 25.484375 
L 73.1875 17.1875 
L 10.59375 17.1875 
z
" id="DejaVuSans-61"/>
     <path d="M 12.40625 8.296875 
L 28.515625 8.296875 
L 28.515625 63.921875 
L 10.984375 60.40625 
L 10.984375 69.390625 
L 28.421875 72.90625 
L 38.28125 72.90625 
L 38.28125 8.296875 
L 54.390625 8.296875 
L 54.390625 0 
L 12.40625 0 
z
" id="DejaVuSans-49"/>
     <path d="M 8.203125 72.90625 
L 55.078125 72.90625 
L 55.078125 68.703125 
L 28.609375 0 
L 18.3125 0 
L 43.21875 64.59375 
L 8.203125 64.59375 
z
" id="DejaVuSans-55"/>
     <path d="M 10.6875 12.40625 
L 21 12.40625 
L 21 0 
L 10.6875 0 
z
" id="DejaVuSans-46"/>
     <path d="M 40.578125 39.3125 
Q 47.65625 37.796875 51.625 33 
Q 55.609375 28.21875 55.609375 21.1875 
Q 55.609375 10.40625 48.1875 4.484375 
Q 40.765625 -1.421875 27.09375 -1.421875 
Q 22.515625 -1.421875 17.65625 -0.515625 
Q 12.796875 0.390625 7.625 2.203125 
L 7.625 11.71875 
Q 11.71875 9.328125 16.59375 8.109375 
Q 21.484375 6.890625 26.8125 6.890625 
Q 36.078125 6.890625 40.9375 10.546875 
Q 45.796875 14.203125 45.796875 21.1875 
Q 45.796875 27.640625 41.28125 31.265625 
Q 36.765625 34.90625 28.71875 34.90625 
L 20.21875 34.90625 
L 20.21875 43.015625 
L 29.109375 43.015625 
Q 36.375 43.015625 40.234375 45.921875 
Q 44.09375 48.828125 44.09375 54.296875 
Q 44.09375 59.90625 40.109375 62.90625 
Q 36.140625 65.921875 28.71875 65.921875 
Q 24.65625 65.921875 20.015625 65.03125 
Q 15.375 64.15625 9.8125 62.3125 
L 9.8125 71.09375 
Q 15.4375 72.65625 20.34375 73.4375 
Q 25.25 74.21875 29.59375 74.21875 
Q 40.828125 74.21875 47.359375 69.109375 
Q 53.90625 64.015625 53.90625 55.328125 
Q 53.90625 49.265625 50.4375 45.09375 
Q 46.96875 40.921875 40.578125 39.3125 
z
" id="DejaVuSans-51"/>
     <path d="M 33.015625 40.375 
Q 26.375 40.375 22.484375 35.828125 
Q 18.609375 31.296875 18.609375 23.390625 
Q 18.609375 15.53125 22.484375 10.953125 
Q 26.375 6.390625 33.015625 6.390625 
Q 39.65625 6.390625 43.53125 10.953125 
Q 47.40625 15.53125 47.40625 23.390625 
Q 47.40625 31.296875 43.53125 35.828125 
Q 39.65625 40.375 33.015625 40.375 
z
M 52.59375 71.296875 
L 52.59375 62.3125 
Q 48.875 64.0625 45.09375 64.984375 
Q 41.3125 65.921875 37.59375 65.921875 
Q 27.828125 65.921875 22.671875 59.328125 
Q 17.53125 52.734375 16.796875 39.40625 
Q 19.671875 43.65625 24.015625 45.921875 
Q 28.375 48.1875 33.59375 48.1875 
Q 44.578125 48.1875 50.953125 41.515625 
Q 57.328125 34.859375 57.328125 23.390625 
Q 57.328125 12.15625 50.6875 5.359375 
Q 44.046875 -1.421875 33.015625 -1.421875 
Q 20.359375 -1.421875 13.671875 8.265625 
Q 6.984375 17.96875 6.984375 36.375 
Q 6.984375 53.65625 15.1875 63.9375 
Q 23.390625 74.21875 37.203125 74.21875 
Q 40.921875 74.21875 44.703125 73.484375 
Q 48.484375 72.75 52.59375 71.296875 
z
" id="DejaVuSans-54"/>
     <path d="M 72.703125 32.078125 
Q 68.453125 32.078125 66.03125 28.46875 
Q 63.625 24.859375 63.625 18.40625 
Q 63.625 12.0625 66.03125 8.421875 
Q 68.453125 4.78125 72.703125 4.78125 
Q 76.859375 4.78125 79.265625 8.421875 
Q 81.6875 12.0625 81.6875 18.40625 
Q 81.6875 24.8125 79.265625 28.4375 
Q 76.859375 32.078125 72.703125 32.078125 
z
M 72.703125 38.28125 
Q 80.421875 38.28125 84.953125 32.90625 
Q 89.5 27.546875 89.5 18.40625 
Q 89.5 9.28125 84.9375 3.921875 
Q 80.375 -1.421875 72.703125 -1.421875 
Q 64.890625 -1.421875 60.34375 3.921875 
Q 55.8125 9.28125 55.8125 18.40625 
Q 55.8125 27.59375 60.375 32.9375 
Q 64.9375 38.28125 72.703125 38.28125 
z
M 22.3125 68.015625 
Q 18.109375 68.015625 15.6875 64.375 
Q 13.28125 60.75 13.28125 54.390625 
Q 13.28125 47.953125 15.671875 44.328125 
Q 18.0625 40.71875 22.3125 40.71875 
Q 26.5625 40.71875 28.96875 44.328125 
Q 31.390625 47.953125 31.390625 54.390625 
Q 31.390625 60.6875 28.953125 64.34375 
Q 26.515625 68.015625 22.3125 68.015625 
z
M 66.40625 74.21875 
L 74.21875 74.21875 
L 28.609375 -1.421875 
L 20.796875 -1.421875 
z
M 22.3125 74.21875 
Q 30.03125 74.21875 34.609375 68.875 
Q 39.203125 63.53125 39.203125 54.390625 
Q 39.203125 45.171875 34.640625 39.84375 
Q 30.078125 34.515625 22.3125 34.515625 
Q 14.546875 34.515625 10.03125 39.859375 
Q 5.515625 45.21875 5.515625 54.390625 
Q 5.515625 63.484375 10.046875 68.84375 
Q 14.59375 74.21875 22.3125 74.21875 
z
" id="DejaVuSans-37"/>
    </defs>
    <g transform="translate(424.981951 152.275857)scale(0.1 -0.1)">
     <use xlink:href="#DejaVuSans-79"/>
     <use x="78.710938" xlink:href="#DejaVuSans-118"/>
     <use x="137.890625" xlink:href="#DejaVuSans-101"/>
     <use x="199.414062" xlink:href="#DejaVuSans-114"/>
     <use x="240.527344" xlink:href="#DejaVuSans-115"/>
     <use x="292.626953" xlink:href="#DejaVuSans-101"/>
     <use x="354.150391" xlink:href="#DejaVuSans-97"/>
     <use x="415.429688" xlink:href="#DejaVuSans-115"/>
     <use x="467.529297" xlink:href="#DejaVuSans-32"/>
     <use x="499.316406" xlink:href="#DejaVuSans-73"/>
     <use x="528.808594" xlink:href="#DejaVuSans-110"/>
     <use x="592.1875" xlink:href="#DejaVuSans-102"/>
     <use x="627.392578" xlink:href="#DejaVuSans-108"/>
     <use x="655.175781" xlink:href="#DejaVuSans-111"/>
     <use x="716.357422" xlink:href="#DejaVuSans-119"/>
     <use x="798.144531" xlink:href="#DejaVuSans-32"/>
     <use x="829.931641" xlink:href="#DejaVuSans-61"/>
     <use x="913.720703" xlink:href="#DejaVuSans-32"/>
     <use x="945.507812" xlink:href="#DejaVuSans-49"/>
     <use x="1009.130859" xlink:href="#DejaVuSans-55"/>
     <use x="1072.753906" xlink:href="#DejaVuSans-46"/>
     <use x="1104.541016" xlink:href="#DejaVuSans-51"/>
     <use x="1168.164062" xlink:href="#DejaVuSans-54"/>
     <use x="1231.787109" xlink:href="#DejaVuSans-32"/>
     <use x="1263.574219" xlink:href="#DejaVuSans-37"/>
    </g>
   </g>
   <g id="text_2">
    <!-- Local Spread = 82.64 % -->
    <defs>
     <path d="M 9.8125 72.90625 
L 19.671875 72.90625 
L 19.671875 8.296875 
L 55.171875 8.296875 
L 55.171875 0 
L 9.8125 0 
z
" id="DejaVuSans-76"/>
     <path d="M 48.78125 52.59375 
L 48.78125 44.1875 
Q 44.96875 46.296875 41.140625 47.34375 
Q 37.3125 48.390625 33.40625 48.390625 
Q 24.65625 48.390625 19.8125 42.84375 
Q 14.984375 37.3125 14.984375 27.296875 
Q 14.984375 17.28125 19.8125 11.734375 
Q 24.65625 6.203125 33.40625 6.203125 
Q 37.3125 6.203125 41.140625 7.25 
Q 44.96875 8.296875 48.78125 10.40625 
L 48.78125 2.09375 
Q 45.015625 0.34375 40.984375 -0.53125 
Q 36.96875 -1.421875 32.421875 -1.421875 
Q 20.0625 -1.421875 12.78125 6.34375 
Q 5.515625 14.109375 5.515625 27.296875 
Q 5.515625 40.671875 12.859375 48.328125 
Q 20.21875 56 33.015625 56 
Q 37.15625 56 41.109375 55.140625 
Q 45.0625 54.296875 48.78125 52.59375 
z
" id="DejaVuSans-99"/>
     <path d="M 53.515625 70.515625 
L 53.515625 60.890625 
Q 47.90625 63.578125 42.921875 64.890625 
Q 37.9375 66.21875 33.296875 66.21875 
Q 25.25 66.21875 20.875 63.09375 
Q 16.5 59.96875 16.5 54.203125 
Q 16.5 49.359375 19.40625 46.890625 
Q 22.3125 44.4375 30.421875 42.921875 
L 36.375 41.703125 
Q 47.40625 39.59375 52.65625 34.296875 
Q 57.90625 29 57.90625 20.125 
Q 57.90625 9.515625 50.796875 4.046875 
Q 43.703125 -1.421875 29.984375 -1.421875 
Q 24.8125 -1.421875 18.96875 -0.25 
Q 13.140625 0.921875 6.890625 3.21875 
L 6.890625 13.375 
Q 12.890625 10.015625 18.65625 8.296875 
Q 24.421875 6.59375 29.984375 6.59375 
Q 38.421875 6.59375 43.015625 9.90625 
Q 47.609375 13.234375 47.609375 19.390625 
Q 47.609375 24.75 44.3125 27.78125 
Q 41.015625 30.8125 33.5 32.328125 
L 27.484375 33.5 
Q 16.453125 35.6875 11.515625 40.375 
Q 6.59375 45.0625 6.59375 53.421875 
Q 6.59375 63.09375 13.40625 68.65625 
Q 20.21875 74.21875 32.171875 74.21875 
Q 37.3125 74.21875 42.625 73.28125 
Q 47.953125 72.359375 53.515625 70.515625 
z
" id="DejaVuSans-83"/>
     <path d="M 18.109375 8.203125 
L 18.109375 -20.796875 
L 9.078125 -20.796875 
L 9.078125 54.6875 
L 18.109375 54.6875 
L 18.109375 46.390625 
Q 20.953125 51.265625 25.265625 53.625 
Q 29.59375 56 35.59375 56 
Q 45.5625 56 51.78125 48.09375 
Q 58.015625 40.1875 58.015625 27.296875 
Q 58.015625 14.40625 51.78125 6.484375 
Q 45.5625 -1.421875 35.59375 -1.421875 
Q 29.59375 -1.421875 25.265625 0.953125 
Q 20.953125 3.328125 18.109375 8.203125 
z
M 48.6875 27.296875 
Q 48.6875 37.203125 44.609375 42.84375 
Q 40.53125 48.484375 33.40625 48.484375 
Q 26.265625 48.484375 22.1875 42.84375 
Q 18.109375 37.203125 18.109375 27.296875 
Q 18.109375 17.390625 22.1875 11.75 
Q 26.265625 6.109375 33.40625 6.109375 
Q 40.53125 6.109375 44.609375 11.75 
Q 48.6875 17.390625 48.6875 27.296875 
z
" id="DejaVuSans-112"/>
     <path d="M 45.40625 46.390625 
L 45.40625 75.984375 
L 54.390625 75.984375 
L 54.390625 0 
L 45.40625 0 
L 45.40625 8.203125 
Q 42.578125 3.328125 38.25 0.953125 
Q 33.9375 -1.421875 27.875 -1.421875 
Q 17.96875 -1.421875 11.734375 6.484375 
Q 5.515625 14.40625 5.515625 27.296875 
Q 5.515625 40.1875 11.734375 48.09375 
Q 17.96875 56 27.875 56 
Q 33.9375 56 38.25 53.625 
Q 42.578125 51.265625 45.40625 46.390625 
z
M 14.796875 27.296875 
Q 14.796875 17.390625 18.875 11.75 
Q 22.953125 6.109375 30.078125 6.109375 
Q 37.203125 6.109375 41.296875 11.75 
Q 45.40625 17.390625 45.40625 27.296875 
Q 45.40625 37.203125 41.296875 42.84375 
Q 37.203125 48.484375 30.078125 48.484375 
Q 22.953125 48.484375 18.875 42.84375 
Q 14.796875 37.203125 14.796875 27.296875 
z
" id="DejaVuSans-100"/>
     <path d="M 31.78125 34.625 
Q 24.75 34.625 20.71875 30.859375 
Q 16.703125 27.09375 16.703125 20.515625 
Q 16.703125 13.921875 20.71875 10.15625 
Q 24.75 6.390625 31.78125 6.390625 
Q 38.8125 6.390625 42.859375 10.171875 
Q 46.921875 13.96875 46.921875 20.515625 
Q 46.921875 27.09375 42.890625 30.859375 
Q 38.875 34.625 31.78125 34.625 
z
M 21.921875 38.8125 
Q 15.578125 40.375 12.03125 44.71875 
Q 8.5 49.078125 8.5 55.328125 
Q 8.5 64.0625 14.71875 69.140625 
Q 20.953125 74.21875 31.78125 74.21875 
Q 42.671875 74.21875 48.875 69.140625 
Q 55.078125 64.0625 55.078125 55.328125 
Q 55.078125 49.078125 51.53125 44.71875 
Q 48 40.375 41.703125 38.8125 
Q 48.828125 37.15625 52.796875 32.3125 
Q 56.78125 27.484375 56.78125 20.515625 
Q 56.78125 9.90625 50.3125 4.234375 
Q 43.84375 -1.421875 31.78125 -1.421875 
Q 19.734375 -1.421875 13.25 4.234375 
Q 6.78125 9.90625 6.78125 20.515625 
Q 6.78125 27.484375 10.78125 32.3125 
Q 14.796875 37.15625 21.921875 38.8125 
z
M 18.3125 54.390625 
Q 18.3125 48.734375 21.84375 45.5625 
Q 25.390625 42.390625 31.78125 42.390625 
Q 38.140625 42.390625 41.71875 45.5625 
Q 45.3125 48.734375 45.3125 54.390625 
Q 45.3125 60.0625 41.71875 63.234375 
Q 38.140625 66.40625 31.78125 66.40625 
Q 25.390625 66.40625 21.84375 63.234375 
Q 18.3125 60.0625 18.3125 54.390625 
z
" id="DejaVuSans-56"/>
     <path d="M 19.1875 8.296875 
L 53.609375 8.296875 
L 53.609375 0 
L 7.328125 0 
L 7.328125 8.296875 
Q 12.9375 14.109375 22.625 23.890625 
Q 32.328125 33.6875 34.8125 36.53125 
Q 39.546875 41.84375 41.421875 45.53125 
Q 43.3125 49.21875 43.3125 52.78125 
Q 43.3125 58.59375 39.234375 62.25 
Q 35.15625 65.921875 28.609375 65.921875 
Q 23.96875 65.921875 18.8125 64.3125 
Q 13.671875 62.703125 7.8125 59.421875 
L 7.8125 69.390625 
Q 13.765625 71.78125 18.9375 73 
Q 24.125 74.21875 28.421875 74.21875 
Q 39.75 74.21875 46.484375 68.546875 
Q 53.21875 62.890625 53.21875 53.421875 
Q 53.21875 48.921875 51.53125 44.890625 
Q 49.859375 40.875 45.40625 35.40625 
Q 44.1875 33.984375 37.640625 27.21875 
Q 31.109375 20.453125 19.1875 8.296875 
z
" id="DejaVuSans-50"/>
     <path d="M 37.796875 64.3125 
L 12.890625 25.390625 
L 37.796875 25.390625 
z
M 35.203125 72.90625 
L 47.609375 72.90625 
L 47.609375 25.390625 
L 58.015625 25.390625 
L 58.015625 17.1875 
L 47.609375 17.1875 
L 47.609375 0 
L 37.796875 0 
L 37.796875 17.1875 
L 4.890625 17.1875 
L 4.890625 26.703125 
z
" id="DejaVuSans-52"/>
    </defs>
    <g transform="translate(7.2 332.759143)scale(0.1 -0.1)">
     <use xlink:href="#DejaVuSans-76"/>
     <use x="53.962891" xlink:href="#DejaVuSans-111"/>
     <use x="115.144531" xlink:href="#DejaVuSans-99"/>
     <use x="170.125" xlink:href="#DejaVuSans-97"/>
     <use x="231.404297" xlink:href="#DejaVuSans-108"/>
     <use x="259.1875" xlink:href="#DejaVuSans-32"/>
     <use x="290.974609" xlink:href="#DejaVuSans-83"/>
     <use x="354.451172" xlink:href="#DejaVuSans-112"/>
     <use x="417.927734" xlink:href="#DejaVuSans-114"/>
     <use x="456.791016" xlink:href="#DejaVuSans-101"/>
     <use x="518.314453" xlink:href="#DejaVuSans-97"/>
     <use x="579.59375" xlink:href="#DejaVuSans-100"/>
     <use x="643.070312" xlink:href="#DejaVuSans-32"/>
     <use x="674.857422" xlink:href="#DejaVuSans-61"/>
     <use x="758.646484" xlink:href="#DejaVuSans-32"/>
     <use x="790.433594" xlink:href="#DejaVuSans-56"/>
     <use x="854.056641" xlink:href="#DejaVuSans-50"/>
     <use x="917.679688" xlink:href="#DejaVuSans-46"/>
     <use x="949.466797" xlink:href="#DejaVuSans-54"/>
     <use x="1013.089844" xlink:href="#DejaVuSans-52"/>
     <use x="1076.712891" xlink:href="#DejaVuSans-32"/>
     <use x="1108.5" xlink:href="#DejaVuSans-37"/>
    </g>
   </g>
   <g id="text_3">
    <!--   -->
    <g transform="translate(353.599408 195.591846)scale(0.1 -0.1)">
     <use xlink:href="#DejaVuSans-32"/>
    </g>
   </g>
   <g id="text_4">
    <!-- Known Contact = 71.53 % -->
    <defs>
     <path d="M 9.8125 72.90625 
L 19.671875 72.90625 
L 19.671875 42.09375 
L 52.390625 72.90625 
L 65.09375 72.90625 
L 28.90625 38.921875 
L 67.671875 0 
L 54.6875 0 
L 19.671875 35.109375 
L 19.671875 0 
L 9.8125 0 
z
" id="DejaVuSans-75"/>
     <path d="M 64.40625 67.28125 
L 64.40625 56.890625 
Q 59.421875 61.53125 53.78125 63.8125 
Q 48.140625 66.109375 41.796875 66.109375 
Q 29.296875 66.109375 22.65625 58.46875 
Q 16.015625 50.828125 16.015625 36.375 
Q 16.015625 21.96875 22.65625 14.328125 
Q 29.296875 6.6875 41.796875 6.6875 
Q 48.140625 6.6875 53.78125 8.984375 
Q 59.421875 11.28125 64.40625 15.921875 
L 64.40625 5.609375 
Q 59.234375 2.09375 53.4375 0.328125 
Q 47.65625 -1.421875 41.21875 -1.421875 
Q 24.65625 -1.421875 15.125 8.703125 
Q 5.609375 18.84375 5.609375 36.375 
Q 5.609375 53.953125 15.125 64.078125 
Q 24.65625 74.21875 41.21875 74.21875 
Q 47.75 74.21875 53.53125 72.484375 
Q 59.328125 70.75 64.40625 67.28125 
z
" id="DejaVuSans-67"/>
     <path d="M 18.3125 70.21875 
L 18.3125 54.6875 
L 36.8125 54.6875 
L 36.8125 47.703125 
L 18.3125 47.703125 
L 18.3125 18.015625 
Q 18.3125 11.328125 20.140625 9.421875 
Q 21.96875 7.515625 27.59375 7.515625 
L 36.8125 7.515625 
L 36.8125 0 
L 27.59375 0 
Q 17.1875 0 13.234375 3.875 
Q 9.28125 7.765625 9.28125 18.015625 
L 9.28125 47.703125 
L 2.6875 47.703125 
L 2.6875 54.6875 
L 9.28125 54.6875 
L 9.28125 70.21875 
z
" id="DejaVuSans-116"/>
     <path d="M 10.796875 72.90625 
L 49.515625 72.90625 
L 49.515625 64.59375 
L 19.828125 64.59375 
L 19.828125 46.734375 
Q 21.96875 47.46875 24.109375 47.828125 
Q 26.265625 48.1875 28.421875 48.1875 
Q 40.625 48.1875 47.75 41.5 
Q 54.890625 34.8125 54.890625 23.390625 
Q 54.890625 11.625 47.5625 5.09375 
Q 40.234375 -1.421875 26.90625 -1.421875 
Q 22.3125 -1.421875 17.546875 -0.640625 
Q 12.796875 0.140625 7.71875 1.703125 
L 7.71875 11.625 
Q 12.109375 9.234375 16.796875 8.0625 
Q 21.484375 6.890625 26.703125 6.890625 
Q 35.15625 6.890625 40.078125 11.328125 
Q 45.015625 15.765625 45.015625 23.390625 
Q 45.015625 31 40.078125 35.4375 
Q 35.15625 39.890625 26.703125 39.890625 
Q 22.75 39.890625 18.8125 39.015625 
Q 14.890625 38.140625 10.796875 36.28125 
z
" id="DejaVuSans-53"/>
    </defs>
    <g transform="translate(55.893535 260.164403)scale(0.1 -0.1)">
     <use xlink:href="#DejaVuSans-75"/>
     <use x="65.576172" xlink:href="#DejaVuSans-110"/>
     <use x="128.955078" xlink:href="#DejaVuSans-111"/>
     <use x="190.136719" xlink:href="#DejaVuSans-119"/>
     <use x="271.923828" xlink:href="#DejaVuSans-110"/>
     <use x="335.302734" xlink:href="#DejaVuSans-32"/>
     <use x="367.089844" xlink:href="#DejaVuSans-67"/>
     <use x="436.914062" xlink:href="#DejaVuSans-111"/>
     <use x="498.095703" xlink:href="#DejaVuSans-110"/>
     <use x="561.474609" xlink:href="#DejaVuSans-116"/>
     <use x="600.683594" xlink:href="#DejaVuSans-97"/>
     <use x="661.962891" xlink:href="#DejaVuSans-99"/>
     <use x="716.943359" xlink:href="#DejaVuSans-116"/>
     <use x="756.152344" xlink:href="#DejaVuSans-32"/>
     <use x="787.939453" xlink:href="#DejaVuSans-61"/>
     <use x="871.728516" xlink:href="#DejaVuSans-32"/>
     <use x="903.515625" xlink:href="#DejaVuSans-55"/>
     <use x="967.138672" xlink:href="#DejaVuSans-49"/>
     <use x="1030.761719" xlink:href="#DejaVuSans-46"/>
     <use x="1062.548828" xlink:href="#DejaVuSans-53"/>
     <use x="1126.171875" xlink:href="#DejaVuSans-51"/>
     <use x="1189.794922" xlink:href="#DejaVuSans-32"/>
     <use x="1221.582031" xlink:href="#DejaVuSans-37"/>
    </g>
   </g>
   <g id="text_5">
    <!-- Unknown Contact = 7.64 % -->
    <defs>
     <path d="M 8.6875 72.90625 
L 18.609375 72.90625 
L 18.609375 28.609375 
Q 18.609375 16.890625 22.84375 11.734375 
Q 27.09375 6.59375 36.625 6.59375 
Q 46.09375 6.59375 50.34375 11.734375 
Q 54.59375 16.890625 54.59375 28.609375 
L 54.59375 72.90625 
L 64.5 72.90625 
L 64.5 27.390625 
Q 64.5 13.140625 57.4375 5.859375 
Q 50.390625 -1.421875 36.625 -1.421875 
Q 22.796875 -1.421875 15.734375 5.859375 
Q 8.6875 13.140625 8.6875 27.390625 
z
" id="DejaVuSans-85"/>
     <path d="M 9.078125 75.984375 
L 18.109375 75.984375 
L 18.109375 31.109375 
L 44.921875 54.6875 
L 56.390625 54.6875 
L 27.390625 29.109375 
L 57.625 0 
L 45.90625 0 
L 18.109375 26.703125 
L 18.109375 0 
L 9.078125 0 
z
" id="DejaVuSans-107"/>
    </defs>
    <g transform="translate(357.39498 282.524738)scale(0.1 -0.1)">
     <use xlink:href="#DejaVuSans-85"/>
     <use x="73.193359" xlink:href="#DejaVuSans-110"/>
     <use x="136.572266" xlink:href="#DejaVuSans-107"/>
     <use x="194.482422" xlink:href="#DejaVuSans-110"/>
     <use x="257.861328" xlink:href="#DejaVuSans-111"/>
     <use x="319.042969" xlink:href="#DejaVuSans-119"/>
     <use x="400.830078" xlink:href="#DejaVuSans-110"/>
     <use x="464.208984" xlink:href="#DejaVuSans-32"/>
     <use x="495.996094" xlink:href="#DejaVuSans-67"/>
     <use x="565.820312" xlink:href="#DejaVuSans-111"/>
     <use x="627.001953" xlink:href="#DejaVuSans-110"/>
     <use x="690.380859" xlink:href="#DejaVuSans-116"/>
     <use x="729.589844" xlink:href="#DejaVuSans-97"/>
     <use x="790.869141" xlink:href="#DejaVuSans-99"/>
     <use x="845.849609" xlink:href="#DejaVuSans-116"/>
     <use x="885.058594" xlink:href="#DejaVuSans-32"/>
     <use x="916.845703" xlink:href="#DejaVuSans-61"/>
     <use x="1000.634766" xlink:href="#DejaVuSans-32"/>
     <use x="1032.421875" xlink:href="#DejaVuSans-55"/>
     <use x="1096.044922" xlink:href="#DejaVuSans-46"/>
     <use x="1127.832031" xlink:href="#DejaVuSans-54"/>
     <use x="1191.455078" xlink:href="#DejaVuSans-52"/>
     <use x="1255.078125" xlink:href="#DejaVuSans-32"/>
     <use x="1286.865234" xlink:href="#DejaVuSans-37"/>
    </g>
   </g>
   <g id="text_6">
    <!-- Contact Blinded = 3.47 % -->
    <defs>
     <path d="M 19.671875 34.8125 
L 19.671875 8.109375 
L 35.5 8.109375 
Q 43.453125 8.109375 47.28125 11.40625 
Q 51.125 14.703125 51.125 21.484375 
Q 51.125 28.328125 47.28125 31.5625 
Q 43.453125 34.8125 35.5 34.8125 
z
M 19.671875 64.796875 
L 19.671875 42.828125 
L 34.28125 42.828125 
Q 41.5 42.828125 45.03125 45.53125 
Q 48.578125 48.25 48.578125 53.8125 
Q 48.578125 59.328125 45.03125 62.0625 
Q 41.5 64.796875 34.28125 64.796875 
z
M 9.8125 72.90625 
L 35.015625 72.90625 
Q 46.296875 72.90625 52.390625 68.21875 
Q 58.5 63.53125 58.5 54.890625 
Q 58.5 48.1875 55.375 44.234375 
Q 52.25 40.28125 46.1875 39.3125 
Q 53.46875 37.75 57.5 32.78125 
Q 61.53125 27.828125 61.53125 20.40625 
Q 61.53125 10.640625 54.890625 5.3125 
Q 48.25 0 35.984375 0 
L 9.8125 0 
z
" id="DejaVuSans-66"/>
     <path d="M 9.421875 54.6875 
L 18.40625 54.6875 
L 18.40625 0 
L 9.421875 0 
z
M 9.421875 75.984375 
L 18.40625 75.984375 
L 18.40625 64.59375 
L 9.421875 64.59375 
z
" id="DejaVuSans-105"/>
    </defs>
    <g transform="translate(366.185725 252.365054)scale(0.1 -0.1)">
     <use xlink:href="#DejaVuSans-67"/>
     <use x="69.824219" xlink:href="#DejaVuSans-111"/>
     <use x="131.005859" xlink:href="#DejaVuSans-110"/>
     <use x="194.384766" xlink:href="#DejaVuSans-116"/>
     <use x="233.59375" xlink:href="#DejaVuSans-97"/>
     <use x="294.873047" xlink:href="#DejaVuSans-99"/>
     <use x="349.853516" xlink:href="#DejaVuSans-116"/>
     <use x="389.0625" xlink:href="#DejaVuSans-32"/>
     <use x="420.849609" xlink:href="#DejaVuSans-66"/>
     <use x="489.453125" xlink:href="#DejaVuSans-108"/>
     <use x="517.236328" xlink:href="#DejaVuSans-105"/>
     <use x="545.019531" xlink:href="#DejaVuSans-110"/>
     <use x="608.398438" xlink:href="#DejaVuSans-100"/>
     <use x="671.875" xlink:href="#DejaVuSans-101"/>
     <use x="733.398438" xlink:href="#DejaVuSans-100"/>
     <use x="796.875" xlink:href="#DejaVuSans-32"/>
     <use x="828.662109" xlink:href="#DejaVuSans-61"/>
     <use x="912.451172" xlink:href="#DejaVuSans-32"/>
     <use x="944.238281" xlink:href="#DejaVuSans-51"/>
     <use x="1007.861328" xlink:href="#DejaVuSans-46"/>
     <use x="1039.648438" xlink:href="#DejaVuSans-52"/>
     <use x="1103.271484" xlink:href="#DejaVuSans-55"/>
     <use x="1166.894531" xlink:href="#DejaVuSans-32"/>
     <use x="1198.681641" xlink:href="#DejaVuSans-37"/>
    </g>
   </g>
   <g id="text_7">
    <!-- * out of 144 patients confirmed as of 24/04/2020 -->
    <defs>
     <path d="M 47.015625 60.890625 
L 29.5 51.421875 
L 47.015625 41.890625 
L 44.1875 37.109375 
L 27.78125 47.015625 
L 27.78125 28.609375 
L 22.21875 28.609375 
L 22.21875 47.015625 
L 5.8125 37.109375 
L 2.984375 41.890625 
L 20.515625 51.421875 
L 2.984375 60.890625 
L 5.8125 65.71875 
L 22.21875 55.8125 
L 22.21875 74.21875 
L 27.78125 74.21875 
L 27.78125 55.8125 
L 44.1875 65.71875 
z
" id="DejaVuSans-42"/>
     <path d="M 8.5 21.578125 
L 8.5 54.6875 
L 17.484375 54.6875 
L 17.484375 21.921875 
Q 17.484375 14.15625 20.5 10.265625 
Q 23.53125 6.390625 29.59375 6.390625 
Q 36.859375 6.390625 41.078125 11.03125 
Q 45.3125 15.671875 45.3125 23.6875 
L 45.3125 54.6875 
L 54.296875 54.6875 
L 54.296875 0 
L 45.3125 0 
L 45.3125 8.40625 
Q 42.046875 3.421875 37.71875 1 
Q 33.40625 -1.421875 27.6875 -1.421875 
Q 18.265625 -1.421875 13.375 4.4375 
Q 8.5 10.296875 8.5 21.578125 
z
M 31.109375 56 
z
" id="DejaVuSans-117"/>
     <path d="M 52 44.1875 
Q 55.375 50.25 60.0625 53.125 
Q 64.75 56 71.09375 56 
Q 79.640625 56 84.28125 50.015625 
Q 88.921875 44.046875 88.921875 33.015625 
L 88.921875 0 
L 79.890625 0 
L 79.890625 32.71875 
Q 79.890625 40.578125 77.09375 44.375 
Q 74.3125 48.1875 68.609375 48.1875 
Q 61.625 48.1875 57.5625 43.546875 
Q 53.515625 38.921875 53.515625 30.90625 
L 53.515625 0 
L 44.484375 0 
L 44.484375 32.71875 
Q 44.484375 40.625 41.703125 44.40625 
Q 38.921875 48.1875 33.109375 48.1875 
Q 26.21875 48.1875 22.15625 43.53125 
Q 18.109375 38.875 18.109375 30.90625 
L 18.109375 0 
L 9.078125 0 
L 9.078125 54.6875 
L 18.109375 54.6875 
L 18.109375 46.1875 
Q 21.1875 51.21875 25.484375 53.609375 
Q 29.78125 56 35.6875 56 
Q 41.65625 56 45.828125 52.96875 
Q 50 49.953125 52 44.1875 
z
" id="DejaVuSans-109"/>
     <path d="M 25.390625 72.90625 
L 33.6875 72.90625 
L 8.296875 -9.28125 
L 0 -9.28125 
z
" id="DejaVuSans-47"/>
     <path d="M 31.78125 66.40625 
Q 24.171875 66.40625 20.328125 58.90625 
Q 16.5 51.421875 16.5 36.375 
Q 16.5 21.390625 20.328125 13.890625 
Q 24.171875 6.390625 31.78125 6.390625 
Q 39.453125 6.390625 43.28125 13.890625 
Q 47.125 21.390625 47.125 36.375 
Q 47.125 51.421875 43.28125 58.90625 
Q 39.453125 66.40625 31.78125 66.40625 
z
M 31.78125 74.21875 
Q 44.046875 74.21875 50.515625 64.515625 
Q 56.984375 54.828125 56.984375 36.375 
Q 56.984375 17.96875 50.515625 8.265625 
Q 44.046875 -1.421875 31.78125 -1.421875 
Q 19.53125 -1.421875 13.0625 8.265625 
Q 6.59375 17.96875 6.59375 36.375 
Q 6.59375 54.828125 13.0625 64.515625 
Q 19.53125 74.21875 31.78125 74.21875 
z
" id="DejaVuSans-48"/>
    </defs>
    <g transform="translate(108.868319 455.118437)scale(0.1 -0.1)">
     <use xlink:href="#DejaVuSans-42"/>
     <use x="50" xlink:href="#DejaVuSans-32"/>
     <use x="81.787109" xlink:href="#DejaVuSans-111"/>
     <use x="142.96875" xlink:href="#DejaVuSans-117"/>
     <use x="206.347656" xlink:href="#DejaVuSans-116"/>
     <use x="245.556641" xlink:href="#DejaVuSans-32"/>
     <use x="277.34375" xlink:href="#DejaVuSans-111"/>
     <use x="338.525391" xlink:href="#DejaVuSans-102"/>
     <use x="373.730469" xlink:href="#DejaVuSans-32"/>
     <use x="405.517578" xlink:href="#DejaVuSans-49"/>
     <use x="469.140625" xlink:href="#DejaVuSans-52"/>
     <use x="532.763672" xlink:href="#DejaVuSans-52"/>
     <use x="596.386719" xlink:href="#DejaVuSans-32"/>
     <use x="628.173828" xlink:href="#DejaVuSans-112"/>
     <use x="691.650391" xlink:href="#DejaVuSans-97"/>
     <use x="752.929688" xlink:href="#DejaVuSans-116"/>
     <use x="792.138672" xlink:href="#DejaVuSans-105"/>
     <use x="819.921875" xlink:href="#DejaVuSans-101"/>
     <use x="881.445312" xlink:href="#DejaVuSans-110"/>
     <use x="944.824219" xlink:href="#DejaVuSans-116"/>
     <use x="984.033203" xlink:href="#DejaVuSans-115"/>
     <use x="1036.132812" xlink:href="#DejaVuSans-32"/>
     <use x="1067.919922" xlink:href="#DejaVuSans-99"/>
     <use x="1122.900391" xlink:href="#DejaVuSans-111"/>
     <use x="1184.082031" xlink:href="#DejaVuSans-110"/>
     <use x="1247.460938" xlink:href="#DejaVuSans-102"/>
     <use x="1282.666016" xlink:href="#DejaVuSans-105"/>
     <use x="1310.449219" xlink:href="#DejaVuSans-114"/>
     <use x="1349.8125" xlink:href="#DejaVuSans-109"/>
     <use x="1447.224609" xlink:href="#DejaVuSans-101"/>
     <use x="1508.748047" xlink:href="#DejaVuSans-100"/>
     <use x="1572.224609" xlink:href="#DejaVuSans-32"/>
     <use x="1604.011719" xlink:href="#DejaVuSans-97"/>
     <use x="1665.291016" xlink:href="#DejaVuSans-115"/>
     <use x="1717.390625" xlink:href="#DejaVuSans-32"/>
     <use x="1749.177734" xlink:href="#DejaVuSans-111"/>
     <use x="1810.359375" xlink:href="#DejaVuSans-102"/>
     <use x="1845.564453" xlink:href="#DejaVuSans-32"/>
     <use x="1877.351562" xlink:href="#DejaVuSans-50"/>
     <use x="1940.974609" xlink:href="#DejaVuSans-52"/>
     <use x="2004.597656" xlink:href="#DejaVuSans-47"/>
     <use x="2038.289062" xlink:href="#DejaVuSans-48"/>
     <use x="2101.912109" xlink:href="#DejaVuSans-52"/>
     <use x="2165.535156" xlink:href="#DejaVuSans-47"/>
     <use x="2199.226562" xlink:href="#DejaVuSans-50"/>
     <use x="2262.849609" xlink:href="#DejaVuSans-48"/>
     <use x="2326.472656" xlink:href="#DejaVuSans-50"/>
     <use x="2390.095703" xlink:href="#DejaVuSans-48"/>
    </g>
   </g>
   <g id="text_8">
    <!-- Total cases as of 24/04/2020 -->
    <defs>
     <path d="M -0.296875 72.90625 
L 61.375 72.90625 
L 61.375 64.59375 
L 35.5 64.59375 
L 35.5 0 
L 25.59375 0 
L 25.59375 64.59375 
L -0.296875 64.59375 
z
" id="DejaVuSans-84"/>
    </defs>
    <g transform="translate(190.541444 16.318125)scale(0.12 -0.12)">
     <use xlink:href="#DejaVuSans-84"/>
     <use x="44.083984" xlink:href="#DejaVuSans-111"/>
     <use x="105.265625" xlink:href="#DejaVuSans-116"/>
     <use x="144.474609" xlink:href="#DejaVuSans-97"/>
     <use x="205.753906" xlink:href="#DejaVuSans-108"/>
     <use x="233.537109" xlink:href="#DejaVuSans-32"/>
     <use x="265.324219" xlink:href="#DejaVuSans-99"/>
     <use x="320.304688" xlink:href="#DejaVuSans-97"/>
     <use x="381.583984" xlink:href="#DejaVuSans-115"/>
     <use x="433.683594" xlink:href="#DejaVuSans-101"/>
     <use x="495.207031" xlink:href="#DejaVuSans-115"/>
     <use x="547.306641" xlink:href="#DejaVuSans-32"/>
     <use x="579.09375" xlink:href="#DejaVuSans-97"/>
     <use x="640.373047" xlink:href="#DejaVuSans-115"/>
     <use x="692.472656" xlink:href="#DejaVuSans-32"/>
     <use x="724.259766" xlink:href="#DejaVuSans-111"/>
     <use x="785.441406" xlink:href="#DejaVuSans-102"/>
     <use x="820.646484" xlink:href="#DejaVuSans-32"/>
     <use x="852.433594" xlink:href="#DejaVuSans-50"/>
     <use x="916.056641" xlink:href="#DejaVuSans-52"/>
     <use x="979.679688" xlink:href="#DejaVuSans-47"/>
     <use x="1013.371094" xlink:href="#DejaVuSans-48"/>
     <use x="1076.994141" xlink:href="#DejaVuSans-52"/>
     <use x="1140.617188" xlink:href="#DejaVuSans-47"/>
     <use x="1174.308594" xlink:href="#DejaVuSans-50"/>
     <use x="1237.931641" xlink:href="#DejaVuSans-48"/>
     <use x="1301.554688" xlink:href="#DejaVuSans-50"/>
     <use x="1365.177734" xlink:href="#DejaVuSans-48"/>
    </g>
   </g>
  </g>
 </g>
</svg>
