<?xml version="1.0" encoding="utf-8" standalone="no"?>
<!DOCTYPE svg PUBLIC "-//W3C//DTD SVG 1.1//EN"
  "http://www.w3.org/Graphics/SVG/1.1/DTD/svg11.dtd">
<!-- Created with matplotlib (https://matplotlib.org/) -->
<svg height="405.038125pt" version="1.1" viewBox="0 0 592.125 405.038125" width="592.125pt" xmlns="http://www.w3.org/2000/svg" xmlns:xlink="http://www.w3.org/1999/xlink">
 <defs>
  <style type="text/css">
*{stroke-linecap:butt;stroke-linejoin:round;}
  </style>
 </defs>
 <g id="figure_1">
  <g id="patch_1">
   <path d="M 0 405.038125 
L 592.125 405.038125 
L 592.125 0 
L 0 0 
z
" style="fill:#ffffff;"/>
  </g>
  <g id="axes_1">
   <g id="patch_2">
    <path d="M 26.925 294.118125 
L 584.925 294.118125 
L 584.925 22.318125 
L 26.925 22.318125 
z
" style="fill:#ffffff;"/>
   </g>
   <g id="matplotlib.axis_1">
    <g id="xtick_1">
     <g id="line2d_1">
      <path clip-path="url(#p24b7cec156)" d="M 57.656602 294.118125 
L 57.656602 22.318125 
" style="fill:none;stroke:#c0c0c0;stroke-dasharray:0.5,0.825;stroke-dashoffset:0;stroke-width:0.5;"/>
     </g>
     <g id="line2d_2">
      <defs>
       <path d="M 0 0 
L 0 3.5 
" id="m79750e54f2" style="stroke:#000000;stroke-width:0.8;"/>
      </defs>
      <g>
       <use style="stroke:#000000;stroke-width:0.8;" x="57.656602" xlink:href="#m79750e54f2" y="294.118125"/>
      </g>
     </g>
     <g id="text_1">
      <!-- 23/03 -->
      <defs>
       <path d="M 19.1875 8.296875 
L 53.609375 8.296875 
L 53.609375 0 
L 7.328125 0 
L 7.328125 8.296875 
Q 12.9375 14.109375 22.625 23.890625 
Q 32.328125 33.6875 34.8125 36.53125 
Q 39.546875 41.84375 41.421875 45.53125 
Q 43.3125 49.21875 43.3125 52.78125 
Q 43.3125 58.59375 39.234375 62.25 
Q 35.15625 65.921875 28.609375 65.921875 
Q 23.96875 65.921875 18.8125 64.3125 
Q 13.671875 62.703125 7.8125 59.421875 
L 7.8125 69.390625 
Q 13.765625 71.78125 18.9375 73 
Q 24.125 74.21875 28.421875 74.21875 
Q 39.75 74.21875 46.484375 68.546875 
Q 53.21875 62.890625 53.21875 53.421875 
Q 53.21875 48.921875 51.53125 44.890625 
Q 49.859375 40.875 45.40625 35.40625 
Q 44.1875 33.984375 37.640625 27.21875 
Q 31.109375 20.453125 19.1875 8.296875 
z
" id="DejaVuSans-50"/>
       <path d="M 40.578125 39.3125 
Q 47.65625 37.796875 51.625 33 
Q 55.609375 28.21875 55.609375 21.1875 
Q 55.609375 10.40625 48.1875 4.484375 
Q 40.765625 -1.421875 27.09375 -1.421875 
Q 22.515625 -1.421875 17.65625 -0.515625 
Q 12.796875 0.390625 7.625 2.203125 
L 7.625 11.71875 
Q 11.71875 9.328125 16.59375 8.109375 
Q 21.484375 6.890625 26.8125 6.890625 
Q 36.078125 6.890625 40.9375 10.546875 
Q 45.796875 14.203125 45.796875 21.1875 
Q 45.796875 27.640625 41.28125 31.265625 
Q 36.765625 34.90625 28.71875 34.90625 
L 20.21875 34.90625 
L 20.21875 43.015625 
L 29.109375 43.015625 
Q 36.375 43.015625 40.234375 45.921875 
Q 44.09375 48.828125 44.09375 54.296875 
Q 44.09375 59.90625 40.109375 62.90625 
Q 36.140625 65.921875 28.71875 65.921875 
Q 24.65625 65.921875 20.015625 65.03125 
Q 15.375 64.15625 9.8125 62.3125 
L 9.8125 71.09375 
Q 15.4375 72.65625 20.34375 73.4375 
Q 25.25 74.21875 29.59375 74.21875 
Q 40.828125 74.21875 47.359375 69.109375 
Q 53.90625 64.015625 53.90625 55.328125 
Q 53.90625 49.265625 50.4375 45.09375 
Q 46.96875 40.921875 40.578125 39.3125 
z
" id="DejaVuSans-51"/>
       <path d="M 25.390625 72.90625 
L 33.6875 72.90625 
L 8.296875 -9.28125 
L 0 -9.28125 
z
" id="DejaVuSans-47"/>
       <path d="M 31.78125 66.40625 
Q 24.171875 66.40625 20.328125 58.90625 
Q 16.5 51.421875 16.5 36.375 
Q 16.5 21.390625 20.328125 13.890625 
Q 24.171875 6.390625 31.78125 6.390625 
Q 39.453125 6.390625 43.28125 13.890625 
Q 47.125 21.390625 47.125 36.375 
Q 47.125 51.421875 43.28125 58.90625 
Q 39.453125 66.40625 31.78125 66.40625 
z
M 31.78125 74.21875 
Q 44.046875 74.21875 50.515625 64.515625 
Q 56.984375 54.828125 56.984375 36.375 
Q 56.984375 17.96875 50.515625 8.265625 
Q 44.046875 -1.421875 31.78125 -1.421875 
Q 19.53125 -1.421875 13.0625 8.265625 
Q 6.59375 17.96875 6.59375 36.375 
Q 6.59375 54.828125 13.0625 64.515625 
Q 19.53125 74.21875 31.78125 74.21875 
z
" id="DejaVuSans-48"/>
      </defs>
      <g transform="translate(60.415977 329.936875)rotate(-90)scale(0.1 -0.1)">
       <use xlink:href="#DejaVuSans-50"/>
       <use x="63.623047" xlink:href="#DejaVuSans-51"/>
       <use x="127.246094" xlink:href="#DejaVuSans-47"/>
       <use x="160.9375" xlink:href="#DejaVuSans-48"/>
       <use x="224.560547" xlink:href="#DejaVuSans-51"/>
      </g>
     </g>
    </g>
    <g id="xtick_2">
     <g id="line2d_3">
      <path clip-path="url(#p24b7cec156)" d="M 71.076515 294.118125 
L 71.076515 22.318125 
" style="fill:none;stroke:#c0c0c0;stroke-dasharray:0.5,0.825;stroke-dashoffset:0;stroke-width:0.5;"/>
     </g>
     <g id="line2d_4">
      <g>
       <use style="stroke:#000000;stroke-width:0.8;" x="71.076515" xlink:href="#m79750e54f2" y="294.118125"/>
      </g>
     </g>
     <g id="text_2">
      <!-- 24/03 -->
      <defs>
       <path d="M 37.796875 64.3125 
L 12.890625 25.390625 
L 37.796875 25.390625 
z
M 35.203125 72.90625 
L 47.609375 72.90625 
L 47.609375 25.390625 
L 58.015625 25.390625 
L 58.015625 17.1875 
L 47.609375 17.1875 
L 47.609375 0 
L 37.796875 0 
L 37.796875 17.1875 
L 4.890625 17.1875 
L 4.890625 26.703125 
z
" id="DejaVuSans-52"/>
      </defs>
      <g transform="translate(73.83589 329.936875)rotate(-90)scale(0.1 -0.1)">
       <use xlink:href="#DejaVuSans-50"/>
       <use x="63.623047" xlink:href="#DejaVuSans-52"/>
       <use x="127.246094" xlink:href="#DejaVuSans-47"/>
       <use x="160.9375" xlink:href="#DejaVuSans-48"/>
       <use x="224.560547" xlink:href="#DejaVuSans-51"/>
      </g>
     </g>
    </g>
    <g id="xtick_3">
     <g id="line2d_5">
      <path clip-path="url(#p24b7cec156)" d="M 84.496429 294.118125 
L 84.496429 22.318125 
" style="fill:none;stroke:#c0c0c0;stroke-dasharray:0.5,0.825;stroke-dashoffset:0;stroke-width:0.5;"/>
     </g>
     <g id="line2d_6">
      <g>
       <use style="stroke:#000000;stroke-width:0.8;" x="84.496429" xlink:href="#m79750e54f2" y="294.118125"/>
      </g>
     </g>
     <g id="text_3">
      <!-- 25/03 -->
      <defs>
       <path d="M 10.796875 72.90625 
L 49.515625 72.90625 
L 49.515625 64.59375 
L 19.828125 64.59375 
L 19.828125 46.734375 
Q 21.96875 47.46875 24.109375 47.828125 
Q 26.265625 48.1875 28.421875 48.1875 
Q 40.625 48.1875 47.75 41.5 
Q 54.890625 34.8125 54.890625 23.390625 
Q 54.890625 11.625 47.5625 5.09375 
Q 40.234375 -1.421875 26.90625 -1.421875 
Q 22.3125 -1.421875 17.546875 -0.640625 
Q 12.796875 0.140625 7.71875 1.703125 
L 7.71875 11.625 
Q 12.109375 9.234375 16.796875 8.0625 
Q 21.484375 6.890625 26.703125 6.890625 
Q 35.15625 6.890625 40.078125 11.328125 
Q 45.015625 15.765625 45.015625 23.390625 
Q 45.015625 31 40.078125 35.4375 
Q 35.15625 39.890625 26.703125 39.890625 
Q 22.75 39.890625 18.8125 39.015625 
Q 14.890625 38.140625 10.796875 36.28125 
z
" id="DejaVuSans-53"/>
      </defs>
      <g transform="translate(87.255804 329.936875)rotate(-90)scale(0.1 -0.1)">
       <use xlink:href="#DejaVuSans-50"/>
       <use x="63.623047" xlink:href="#DejaVuSans-53"/>
       <use x="127.246094" xlink:href="#DejaVuSans-47"/>
       <use x="160.9375" xlink:href="#DejaVuSans-48"/>
       <use x="224.560547" xlink:href="#DejaVuSans-51"/>
      </g>
     </g>
    </g>
    <g id="xtick_4">
     <g id="line2d_7">
      <path clip-path="url(#p24b7cec156)" d="M 97.916342 294.118125 
L 97.916342 22.318125 
" style="fill:none;stroke:#c0c0c0;stroke-dasharray:0.5,0.825;stroke-dashoffset:0;stroke-width:0.5;"/>
     </g>
     <g id="line2d_8">
      <g>
       <use style="stroke:#000000;stroke-width:0.8;" x="97.916342" xlink:href="#m79750e54f2" y="294.118125"/>
      </g>
     </g>
     <g id="text_4">
      <!-- 26/03 -->
      <defs>
       <path d="M 33.015625 40.375 
Q 26.375 40.375 22.484375 35.828125 
Q 18.609375 31.296875 18.609375 23.390625 
Q 18.609375 15.53125 22.484375 10.953125 
Q 26.375 6.390625 33.015625 6.390625 
Q 39.65625 6.390625 43.53125 10.953125 
Q 47.40625 15.53125 47.40625 23.390625 
Q 47.40625 31.296875 43.53125 35.828125 
Q 39.65625 40.375 33.015625 40.375 
z
M 52.59375 71.296875 
L 52.59375 62.3125 
Q 48.875 64.0625 45.09375 64.984375 
Q 41.3125 65.921875 37.59375 65.921875 
Q 27.828125 65.921875 22.671875 59.328125 
Q 17.53125 52.734375 16.796875 39.40625 
Q 19.671875 43.65625 24.015625 45.921875 
Q 28.375 48.1875 33.59375 48.1875 
Q 44.578125 48.1875 50.953125 41.515625 
Q 57.328125 34.859375 57.328125 23.390625 
Q 57.328125 12.15625 50.6875 5.359375 
Q 44.046875 -1.421875 33.015625 -1.421875 
Q 20.359375 -1.421875 13.671875 8.265625 
Q 6.984375 17.96875 6.984375 36.375 
Q 6.984375 53.65625 15.1875 63.9375 
Q 23.390625 74.21875 37.203125 74.21875 
Q 40.921875 74.21875 44.703125 73.484375 
Q 48.484375 72.75 52.59375 71.296875 
z
" id="DejaVuSans-54"/>
      </defs>
      <g transform="translate(100.675717 329.936875)rotate(-90)scale(0.1 -0.1)">
       <use xlink:href="#DejaVuSans-50"/>
       <use x="63.623047" xlink:href="#DejaVuSans-54"/>
       <use x="127.246094" xlink:href="#DejaVuSans-47"/>
       <use x="160.9375" xlink:href="#DejaVuSans-48"/>
       <use x="224.560547" xlink:href="#DejaVuSans-51"/>
      </g>
     </g>
    </g>
    <g id="xtick_5">
     <g id="line2d_9">
      <path clip-path="url(#p24b7cec156)" d="M 111.336255 294.118125 
L 111.336255 22.318125 
" style="fill:none;stroke:#c0c0c0;stroke-dasharray:0.5,0.825;stroke-dashoffset:0;stroke-width:0.5;"/>
     </g>
     <g id="line2d_10">
      <g>
       <use style="stroke:#000000;stroke-width:0.8;" x="111.336255" xlink:href="#m79750e54f2" y="294.118125"/>
      </g>
     </g>
     <g id="text_5">
      <!-- 27/03 -->
      <defs>
       <path d="M 8.203125 72.90625 
L 55.078125 72.90625 
L 55.078125 68.703125 
L 28.609375 0 
L 18.3125 0 
L 43.21875 64.59375 
L 8.203125 64.59375 
z
" id="DejaVuSans-55"/>
      </defs>
      <g transform="translate(114.09563 329.936875)rotate(-90)scale(0.1 -0.1)">
       <use xlink:href="#DejaVuSans-50"/>
       <use x="63.623047" xlink:href="#DejaVuSans-55"/>
       <use x="127.246094" xlink:href="#DejaVuSans-47"/>
       <use x="160.9375" xlink:href="#DejaVuSans-48"/>
       <use x="224.560547" xlink:href="#DejaVuSans-51"/>
      </g>
     </g>
    </g>
    <g id="xtick_6">
     <g id="line2d_11">
      <path clip-path="url(#p24b7cec156)" d="M 124.756169 294.118125 
L 124.756169 22.318125 
" style="fill:none;stroke:#c0c0c0;stroke-dasharray:0.5,0.825;stroke-dashoffset:0;stroke-width:0.5;"/>
     </g>
     <g id="line2d_12">
      <g>
       <use style="stroke:#000000;stroke-width:0.8;" x="124.756169" xlink:href="#m79750e54f2" y="294.118125"/>
      </g>
     </g>
     <g id="text_6">
      <!-- 28/03 -->
      <defs>
       <path d="M 31.78125 34.625 
Q 24.75 34.625 20.71875 30.859375 
Q 16.703125 27.09375 16.703125 20.515625 
Q 16.703125 13.921875 20.71875 10.15625 
Q 24.75 6.390625 31.78125 6.390625 
Q 38.8125 6.390625 42.859375 10.171875 
Q 46.921875 13.96875 46.921875 20.515625 
Q 46.921875 27.09375 42.890625 30.859375 
Q 38.875 34.625 31.78125 34.625 
z
M 21.921875 38.8125 
Q 15.578125 40.375 12.03125 44.71875 
Q 8.5 49.078125 8.5 55.328125 
Q 8.5 64.0625 14.71875 69.140625 
Q 20.953125 74.21875 31.78125 74.21875 
Q 42.671875 74.21875 48.875 69.140625 
Q 55.078125 64.0625 55.078125 55.328125 
Q 55.078125 49.078125 51.53125 44.71875 
Q 48 40.375 41.703125 38.8125 
Q 48.828125 37.15625 52.796875 32.3125 
Q 56.78125 27.484375 56.78125 20.515625 
Q 56.78125 9.90625 50.3125 4.234375 
Q 43.84375 -1.421875 31.78125 -1.421875 
Q 19.734375 -1.421875 13.25 4.234375 
Q 6.78125 9.90625 6.78125 20.515625 
Q 6.78125 27.484375 10.78125 32.3125 
Q 14.796875 37.15625 21.921875 38.8125 
z
M 18.3125 54.390625 
Q 18.3125 48.734375 21.84375 45.5625 
Q 25.390625 42.390625 31.78125 42.390625 
Q 38.140625 42.390625 41.71875 45.5625 
Q 45.3125 48.734375 45.3125 54.390625 
Q 45.3125 60.0625 41.71875 63.234375 
Q 38.140625 66.40625 31.78125 66.40625 
Q 25.390625 66.40625 21.84375 63.234375 
Q 18.3125 60.0625 18.3125 54.390625 
z
" id="DejaVuSans-56"/>
      </defs>
      <g transform="translate(127.515544 329.936875)rotate(-90)scale(0.1 -0.1)">
       <use xlink:href="#DejaVuSans-50"/>
       <use x="63.623047" xlink:href="#DejaVuSans-56"/>
       <use x="127.246094" xlink:href="#DejaVuSans-47"/>
       <use x="160.9375" xlink:href="#DejaVuSans-48"/>
       <use x="224.560547" xlink:href="#DejaVuSans-51"/>
      </g>
     </g>
    </g>
    <g id="xtick_7">
     <g id="line2d_13">
      <path clip-path="url(#p24b7cec156)" d="M 138.176082 294.118125 
L 138.176082 22.318125 
" style="fill:none;stroke:#c0c0c0;stroke-dasharray:0.5,0.825;stroke-dashoffset:0;stroke-width:0.5;"/>
     </g>
     <g id="line2d_14">
      <g>
       <use style="stroke:#000000;stroke-width:0.8;" x="138.176082" xlink:href="#m79750e54f2" y="294.118125"/>
      </g>
     </g>
     <g id="text_7">
      <!-- 29/03 -->
      <defs>
       <path d="M 10.984375 1.515625 
L 10.984375 10.5 
Q 14.703125 8.734375 18.5 7.8125 
Q 22.3125 6.890625 25.984375 6.890625 
Q 35.75 6.890625 40.890625 13.453125 
Q 46.046875 20.015625 46.78125 33.40625 
Q 43.953125 29.203125 39.59375 26.953125 
Q 35.25 24.703125 29.984375 24.703125 
Q 19.046875 24.703125 12.671875 31.3125 
Q 6.296875 37.9375 6.296875 49.421875 
Q 6.296875 60.640625 12.9375 67.421875 
Q 19.578125 74.21875 30.609375 74.21875 
Q 43.265625 74.21875 49.921875 64.515625 
Q 56.59375 54.828125 56.59375 36.375 
Q 56.59375 19.140625 48.40625 8.859375 
Q 40.234375 -1.421875 26.421875 -1.421875 
Q 22.703125 -1.421875 18.890625 -0.6875 
Q 15.09375 0.046875 10.984375 1.515625 
z
M 30.609375 32.421875 
Q 37.25 32.421875 41.125 36.953125 
Q 45.015625 41.5 45.015625 49.421875 
Q 45.015625 57.28125 41.125 61.84375 
Q 37.25 66.40625 30.609375 66.40625 
Q 23.96875 66.40625 20.09375 61.84375 
Q 16.21875 57.28125 16.21875 49.421875 
Q 16.21875 41.5 20.09375 36.953125 
Q 23.96875 32.421875 30.609375 32.421875 
z
" id="DejaVuSans-57"/>
      </defs>
      <g transform="translate(140.935457 329.936875)rotate(-90)scale(0.1 -0.1)">
       <use xlink:href="#DejaVuSans-50"/>
       <use x="63.623047" xlink:href="#DejaVuSans-57"/>
       <use x="127.246094" xlink:href="#DejaVuSans-47"/>
       <use x="160.9375" xlink:href="#DejaVuSans-48"/>
       <use x="224.560547" xlink:href="#DejaVuSans-51"/>
      </g>
     </g>
    </g>
    <g id="xtick_8">
     <g id="line2d_15">
      <path clip-path="url(#p24b7cec156)" d="M 151.595996 294.118125 
L 151.595996 22.318125 
" style="fill:none;stroke:#c0c0c0;stroke-dasharray:0.5,0.825;stroke-dashoffset:0;stroke-width:0.5;"/>
     </g>
     <g id="line2d_16">
      <g>
       <use style="stroke:#000000;stroke-width:0.8;" x="151.595996" xlink:href="#m79750e54f2" y="294.118125"/>
      </g>
     </g>
     <g id="text_8">
      <!-- 30/03 -->
      <g transform="translate(154.355371 329.936875)rotate(-90)scale(0.1 -0.1)">
       <use xlink:href="#DejaVuSans-51"/>
       <use x="63.623047" xlink:href="#DejaVuSans-48"/>
       <use x="127.246094" xlink:href="#DejaVuSans-47"/>
       <use x="160.9375" xlink:href="#DejaVuSans-48"/>
       <use x="224.560547" xlink:href="#DejaVuSans-51"/>
      </g>
     </g>
    </g>
    <g id="xtick_9">
     <g id="line2d_17">
      <path clip-path="url(#p24b7cec156)" d="M 165.015909 294.118125 
L 165.015909 22.318125 
" style="fill:none;stroke:#c0c0c0;stroke-dasharray:0.5,0.825;stroke-dashoffset:0;stroke-width:0.5;"/>
     </g>
     <g id="line2d_18">
      <g>
       <use style="stroke:#000000;stroke-width:0.8;" x="165.015909" xlink:href="#m79750e54f2" y="294.118125"/>
      </g>
     </g>
     <g id="text_9">
      <!-- 31/03 -->
      <defs>
       <path d="M 12.40625 8.296875 
L 28.515625 8.296875 
L 28.515625 63.921875 
L 10.984375 60.40625 
L 10.984375 69.390625 
L 28.421875 72.90625 
L 38.28125 72.90625 
L 38.28125 8.296875 
L 54.390625 8.296875 
L 54.390625 0 
L 12.40625 0 
z
" id="DejaVuSans-49"/>
      </defs>
      <g transform="translate(167.775284 329.936875)rotate(-90)scale(0.1 -0.1)">
       <use xlink:href="#DejaVuSans-51"/>
       <use x="63.623047" xlink:href="#DejaVuSans-49"/>
       <use x="127.246094" xlink:href="#DejaVuSans-47"/>
       <use x="160.9375" xlink:href="#DejaVuSans-48"/>
       <use x="224.560547" xlink:href="#DejaVuSans-51"/>
      </g>
     </g>
    </g>
    <g id="xtick_10">
     <g id="line2d_19">
      <path clip-path="url(#p24b7cec156)" d="M 178.435823 294.118125 
L 178.435823 22.318125 
" style="fill:none;stroke:#c0c0c0;stroke-dasharray:0.5,0.825;stroke-dashoffset:0;stroke-width:0.5;"/>
     </g>
     <g id="line2d_20">
      <g>
       <use style="stroke:#000000;stroke-width:0.8;" x="178.435823" xlink:href="#m79750e54f2" y="294.118125"/>
      </g>
     </g>
     <g id="text_10">
      <!-- 01/04 -->
      <g transform="translate(181.195198 329.936875)rotate(-90)scale(0.1 -0.1)">
       <use xlink:href="#DejaVuSans-48"/>
       <use x="63.623047" xlink:href="#DejaVuSans-49"/>
       <use x="127.246094" xlink:href="#DejaVuSans-47"/>
       <use x="160.9375" xlink:href="#DejaVuSans-48"/>
       <use x="224.560547" xlink:href="#DejaVuSans-52"/>
      </g>
     </g>
    </g>
    <g id="xtick_11">
     <g id="line2d_21">
      <path clip-path="url(#p24b7cec156)" d="M 191.855736 294.118125 
L 191.855736 22.318125 
" style="fill:none;stroke:#c0c0c0;stroke-dasharray:0.5,0.825;stroke-dashoffset:0;stroke-width:0.5;"/>
     </g>
     <g id="line2d_22">
      <g>
       <use style="stroke:#000000;stroke-width:0.8;" x="191.855736" xlink:href="#m79750e54f2" y="294.118125"/>
      </g>
     </g>
     <g id="text_11">
      <!-- 02/04 -->
      <g transform="translate(194.615111 329.936875)rotate(-90)scale(0.1 -0.1)">
       <use xlink:href="#DejaVuSans-48"/>
       <use x="63.623047" xlink:href="#DejaVuSans-50"/>
       <use x="127.246094" xlink:href="#DejaVuSans-47"/>
       <use x="160.9375" xlink:href="#DejaVuSans-48"/>
       <use x="224.560547" xlink:href="#DejaVuSans-52"/>
      </g>
     </g>
    </g>
    <g id="xtick_12">
     <g id="line2d_23">
      <path clip-path="url(#p24b7cec156)" d="M 205.275649 294.118125 
L 205.275649 22.318125 
" style="fill:none;stroke:#c0c0c0;stroke-dasharray:0.5,0.825;stroke-dashoffset:0;stroke-width:0.5;"/>
     </g>
     <g id="line2d_24">
      <g>
       <use style="stroke:#000000;stroke-width:0.8;" x="205.275649" xlink:href="#m79750e54f2" y="294.118125"/>
      </g>
     </g>
     <g id="text_12">
      <!-- 03/04 -->
      <g transform="translate(208.035024 329.936875)rotate(-90)scale(0.1 -0.1)">
       <use xlink:href="#DejaVuSans-48"/>
       <use x="63.623047" xlink:href="#DejaVuSans-51"/>
       <use x="127.246094" xlink:href="#DejaVuSans-47"/>
       <use x="160.9375" xlink:href="#DejaVuSans-48"/>
       <use x="224.560547" xlink:href="#DejaVuSans-52"/>
      </g>
     </g>
    </g>
    <g id="xtick_13">
     <g id="line2d_25">
      <path clip-path="url(#p24b7cec156)" d="M 218.695563 294.118125 
L 218.695563 22.318125 
" style="fill:none;stroke:#c0c0c0;stroke-dasharray:0.5,0.825;stroke-dashoffset:0;stroke-width:0.5;"/>
     </g>
     <g id="line2d_26">
      <g>
       <use style="stroke:#000000;stroke-width:0.8;" x="218.695563" xlink:href="#m79750e54f2" y="294.118125"/>
      </g>
     </g>
     <g id="text_13">
      <!-- 04/04 -->
      <g transform="translate(221.454938 329.936875)rotate(-90)scale(0.1 -0.1)">
       <use xlink:href="#DejaVuSans-48"/>
       <use x="63.623047" xlink:href="#DejaVuSans-52"/>
       <use x="127.246094" xlink:href="#DejaVuSans-47"/>
       <use x="160.9375" xlink:href="#DejaVuSans-48"/>
       <use x="224.560547" xlink:href="#DejaVuSans-52"/>
      </g>
     </g>
    </g>
    <g id="xtick_14">
     <g id="line2d_27">
      <path clip-path="url(#p24b7cec156)" d="M 232.115476 294.118125 
L 232.115476 22.318125 
" style="fill:none;stroke:#c0c0c0;stroke-dasharray:0.5,0.825;stroke-dashoffset:0;stroke-width:0.5;"/>
     </g>
     <g id="line2d_28">
      <g>
       <use style="stroke:#000000;stroke-width:0.8;" x="232.115476" xlink:href="#m79750e54f2" y="294.118125"/>
      </g>
     </g>
     <g id="text_14">
      <!-- 05/04 -->
      <g transform="translate(234.874851 329.936875)rotate(-90)scale(0.1 -0.1)">
       <use xlink:href="#DejaVuSans-48"/>
       <use x="63.623047" xlink:href="#DejaVuSans-53"/>
       <use x="127.246094" xlink:href="#DejaVuSans-47"/>
       <use x="160.9375" xlink:href="#DejaVuSans-48"/>
       <use x="224.560547" xlink:href="#DejaVuSans-52"/>
      </g>
     </g>
    </g>
    <g id="xtick_15">
     <g id="line2d_29">
      <path clip-path="url(#p24b7cec156)" d="M 245.53539 294.118125 
L 245.53539 22.318125 
" style="fill:none;stroke:#c0c0c0;stroke-dasharray:0.5,0.825;stroke-dashoffset:0;stroke-width:0.5;"/>
     </g>
     <g id="line2d_30">
      <g>
       <use style="stroke:#000000;stroke-width:0.8;" x="245.53539" xlink:href="#m79750e54f2" y="294.118125"/>
      </g>
     </g>
     <g id="text_15">
      <!-- 06/04 -->
      <g transform="translate(248.294765 329.936875)rotate(-90)scale(0.1 -0.1)">
       <use xlink:href="#DejaVuSans-48"/>
       <use x="63.623047" xlink:href="#DejaVuSans-54"/>
       <use x="127.246094" xlink:href="#DejaVuSans-47"/>
       <use x="160.9375" xlink:href="#DejaVuSans-48"/>
       <use x="224.560547" xlink:href="#DejaVuSans-52"/>
      </g>
     </g>
    </g>
    <g id="xtick_16">
     <g id="line2d_31">
      <path clip-path="url(#p24b7cec156)" d="M 258.955303 294.118125 
L 258.955303 22.318125 
" style="fill:none;stroke:#c0c0c0;stroke-dasharray:0.5,0.825;stroke-dashoffset:0;stroke-width:0.5;"/>
     </g>
     <g id="line2d_32">
      <g>
       <use style="stroke:#000000;stroke-width:0.8;" x="258.955303" xlink:href="#m79750e54f2" y="294.118125"/>
      </g>
     </g>
     <g id="text_16">
      <!-- 07/04 -->
      <g transform="translate(261.714678 329.936875)rotate(-90)scale(0.1 -0.1)">
       <use xlink:href="#DejaVuSans-48"/>
       <use x="63.623047" xlink:href="#DejaVuSans-55"/>
       <use x="127.246094" xlink:href="#DejaVuSans-47"/>
       <use x="160.9375" xlink:href="#DejaVuSans-48"/>
       <use x="224.560547" xlink:href="#DejaVuSans-52"/>
      </g>
     </g>
    </g>
    <g id="xtick_17">
     <g id="line2d_33">
      <path clip-path="url(#p24b7cec156)" d="M 272.375216 294.118125 
L 272.375216 22.318125 
" style="fill:none;stroke:#c0c0c0;stroke-dasharray:0.5,0.825;stroke-dashoffset:0;stroke-width:0.5;"/>
     </g>
     <g id="line2d_34">
      <g>
       <use style="stroke:#000000;stroke-width:0.8;" x="272.375216" xlink:href="#m79750e54f2" y="294.118125"/>
      </g>
     </g>
     <g id="text_17">
      <!-- 08/04 -->
      <g transform="translate(275.134591 329.936875)rotate(-90)scale(0.1 -0.1)">
       <use xlink:href="#DejaVuSans-48"/>
       <use x="63.623047" xlink:href="#DejaVuSans-56"/>
       <use x="127.246094" xlink:href="#DejaVuSans-47"/>
       <use x="160.9375" xlink:href="#DejaVuSans-48"/>
       <use x="224.560547" xlink:href="#DejaVuSans-52"/>
      </g>
     </g>
    </g>
    <g id="xtick_18">
     <g id="line2d_35">
      <path clip-path="url(#p24b7cec156)" d="M 285.79513 294.118125 
L 285.79513 22.318125 
" style="fill:none;stroke:#c0c0c0;stroke-dasharray:0.5,0.825;stroke-dashoffset:0;stroke-width:0.5;"/>
     </g>
     <g id="line2d_36">
      <g>
       <use style="stroke:#000000;stroke-width:0.8;" x="285.79513" xlink:href="#m79750e54f2" y="294.118125"/>
      </g>
     </g>
     <g id="text_18">
      <!-- 09/04 -->
      <g transform="translate(288.554505 329.936875)rotate(-90)scale(0.1 -0.1)">
       <use xlink:href="#DejaVuSans-48"/>
       <use x="63.623047" xlink:href="#DejaVuSans-57"/>
       <use x="127.246094" xlink:href="#DejaVuSans-47"/>
       <use x="160.9375" xlink:href="#DejaVuSans-48"/>
       <use x="224.560547" xlink:href="#DejaVuSans-52"/>
      </g>
     </g>
    </g>
    <g id="xtick_19">
     <g id="line2d_37">
      <path clip-path="url(#p24b7cec156)" d="M 299.215043 294.118125 
L 299.215043 22.318125 
" style="fill:none;stroke:#c0c0c0;stroke-dasharray:0.5,0.825;stroke-dashoffset:0;stroke-width:0.5;"/>
     </g>
     <g id="line2d_38">
      <g>
       <use style="stroke:#000000;stroke-width:0.8;" x="299.215043" xlink:href="#m79750e54f2" y="294.118125"/>
      </g>
     </g>
     <g id="text_19">
      <!-- 10/04 -->
      <g transform="translate(301.974418 329.936875)rotate(-90)scale(0.1 -0.1)">
       <use xlink:href="#DejaVuSans-49"/>
       <use x="63.623047" xlink:href="#DejaVuSans-48"/>
       <use x="127.246094" xlink:href="#DejaVuSans-47"/>
       <use x="160.9375" xlink:href="#DejaVuSans-48"/>
       <use x="224.560547" xlink:href="#DejaVuSans-52"/>
      </g>
     </g>
    </g>
    <g id="xtick_20">
     <g id="line2d_39">
      <path clip-path="url(#p24b7cec156)" d="M 312.634957 294.118125 
L 312.634957 22.318125 
" style="fill:none;stroke:#c0c0c0;stroke-dasharray:0.5,0.825;stroke-dashoffset:0;stroke-width:0.5;"/>
     </g>
     <g id="line2d_40">
      <g>
       <use style="stroke:#000000;stroke-width:0.8;" x="312.634957" xlink:href="#m79750e54f2" y="294.118125"/>
      </g>
     </g>
     <g id="text_20">
      <!-- 11/04 -->
      <g transform="translate(315.394332 329.936875)rotate(-90)scale(0.1 -0.1)">
       <use xlink:href="#DejaVuSans-49"/>
       <use x="63.623047" xlink:href="#DejaVuSans-49"/>
       <use x="127.246094" xlink:href="#DejaVuSans-47"/>
       <use x="160.9375" xlink:href="#DejaVuSans-48"/>
       <use x="224.560547" xlink:href="#DejaVuSans-52"/>
      </g>
     </g>
    </g>
    <g id="xtick_21">
     <g id="line2d_41">
      <path clip-path="url(#p24b7cec156)" d="M 326.05487 294.118125 
L 326.05487 22.318125 
" style="fill:none;stroke:#c0c0c0;stroke-dasharray:0.5,0.825;stroke-dashoffset:0;stroke-width:0.5;"/>
     </g>
     <g id="line2d_42">
      <g>
       <use style="stroke:#000000;stroke-width:0.8;" x="326.05487" xlink:href="#m79750e54f2" y="294.118125"/>
      </g>
     </g>
     <g id="text_21">
      <!-- 12/04 -->
      <g transform="translate(328.814245 329.936875)rotate(-90)scale(0.1 -0.1)">
       <use xlink:href="#DejaVuSans-49"/>
       <use x="63.623047" xlink:href="#DejaVuSans-50"/>
       <use x="127.246094" xlink:href="#DejaVuSans-47"/>
       <use x="160.9375" xlink:href="#DejaVuSans-48"/>
       <use x="224.560547" xlink:href="#DejaVuSans-52"/>
      </g>
     </g>
    </g>
    <g id="xtick_22">
     <g id="line2d_43">
      <path clip-path="url(#p24b7cec156)" d="M 339.474784 294.118125 
L 339.474784 22.318125 
" style="fill:none;stroke:#c0c0c0;stroke-dasharray:0.5,0.825;stroke-dashoffset:0;stroke-width:0.5;"/>
     </g>
     <g id="line2d_44">
      <g>
       <use style="stroke:#000000;stroke-width:0.8;" x="339.474784" xlink:href="#m79750e54f2" y="294.118125"/>
      </g>
     </g>
     <g id="text_22">
      <!-- 13/04 -->
      <g transform="translate(342.234159 329.936875)rotate(-90)scale(0.1 -0.1)">
       <use xlink:href="#DejaVuSans-49"/>
       <use x="63.623047" xlink:href="#DejaVuSans-51"/>
       <use x="127.246094" xlink:href="#DejaVuSans-47"/>
       <use x="160.9375" xlink:href="#DejaVuSans-48"/>
       <use x="224.560547" xlink:href="#DejaVuSans-52"/>
      </g>
     </g>
    </g>
    <g id="xtick_23">
     <g id="line2d_45">
      <path clip-path="url(#p24b7cec156)" d="M 352.894697 294.118125 
L 352.894697 22.318125 
" style="fill:none;stroke:#c0c0c0;stroke-dasharray:0.5,0.825;stroke-dashoffset:0;stroke-width:0.5;"/>
     </g>
     <g id="line2d_46">
      <g>
       <use style="stroke:#000000;stroke-width:0.8;" x="352.894697" xlink:href="#m79750e54f2" y="294.118125"/>
      </g>
     </g>
     <g id="text_23">
      <!-- 14/04 -->
      <g transform="translate(355.654072 329.936875)rotate(-90)scale(0.1 -0.1)">
       <use xlink:href="#DejaVuSans-49"/>
       <use x="63.623047" xlink:href="#DejaVuSans-52"/>
       <use x="127.246094" xlink:href="#DejaVuSans-47"/>
       <use x="160.9375" xlink:href="#DejaVuSans-48"/>
       <use x="224.560547" xlink:href="#DejaVuSans-52"/>
      </g>
     </g>
    </g>
    <g id="xtick_24">
     <g id="line2d_47">
      <path clip-path="url(#p24b7cec156)" d="M 366.31461 294.118125 
L 366.31461 22.318125 
" style="fill:none;stroke:#c0c0c0;stroke-dasharray:0.5,0.825;stroke-dashoffset:0;stroke-width:0.5;"/>
     </g>
     <g id="line2d_48">
      <g>
       <use style="stroke:#000000;stroke-width:0.8;" x="366.31461" xlink:href="#m79750e54f2" y="294.118125"/>
      </g>
     </g>
     <g id="text_24">
      <!-- 15/04 -->
      <g transform="translate(369.073985 329.936875)rotate(-90)scale(0.1 -0.1)">
       <use xlink:href="#DejaVuSans-49"/>
       <use x="63.623047" xlink:href="#DejaVuSans-53"/>
       <use x="127.246094" xlink:href="#DejaVuSans-47"/>
       <use x="160.9375" xlink:href="#DejaVuSans-48"/>
       <use x="224.560547" xlink:href="#DejaVuSans-52"/>
      </g>
     </g>
    </g>
    <g id="xtick_25">
     <g id="line2d_49">
      <path clip-path="url(#p24b7cec156)" d="M 379.734524 294.118125 
L 379.734524 22.318125 
" style="fill:none;stroke:#c0c0c0;stroke-dasharray:0.5,0.825;stroke-dashoffset:0;stroke-width:0.5;"/>
     </g>
     <g id="line2d_50">
      <g>
       <use style="stroke:#000000;stroke-width:0.8;" x="379.734524" xlink:href="#m79750e54f2" y="294.118125"/>
      </g>
     </g>
     <g id="text_25">
      <!-- 16/04 -->
      <g transform="translate(382.493899 329.936875)rotate(-90)scale(0.1 -0.1)">
       <use xlink:href="#DejaVuSans-49"/>
       <use x="63.623047" xlink:href="#DejaVuSans-54"/>
       <use x="127.246094" xlink:href="#DejaVuSans-47"/>
       <use x="160.9375" xlink:href="#DejaVuSans-48"/>
       <use x="224.560547" xlink:href="#DejaVuSans-52"/>
      </g>
     </g>
    </g>
    <g id="xtick_26">
     <g id="line2d_51">
      <path clip-path="url(#p24b7cec156)" d="M 393.154437 294.118125 
L 393.154437 22.318125 
" style="fill:none;stroke:#c0c0c0;stroke-dasharray:0.5,0.825;stroke-dashoffset:0;stroke-width:0.5;"/>
     </g>
     <g id="line2d_52">
      <g>
       <use style="stroke:#000000;stroke-width:0.8;" x="393.154437" xlink:href="#m79750e54f2" y="294.118125"/>
      </g>
     </g>
     <g id="text_26">
      <!-- 17/04 -->
      <g transform="translate(395.913812 329.936875)rotate(-90)scale(0.1 -0.1)">
       <use xlink:href="#DejaVuSans-49"/>
       <use x="63.623047" xlink:href="#DejaVuSans-55"/>
       <use x="127.246094" xlink:href="#DejaVuSans-47"/>
       <use x="160.9375" xlink:href="#DejaVuSans-48"/>
       <use x="224.560547" xlink:href="#DejaVuSans-52"/>
      </g>
     </g>
    </g>
    <g id="xtick_27">
     <g id="line2d_53">
      <path clip-path="url(#p24b7cec156)" d="M 406.574351 294.118125 
L 406.574351 22.318125 
" style="fill:none;stroke:#c0c0c0;stroke-dasharray:0.5,0.825;stroke-dashoffset:0;stroke-width:0.5;"/>
     </g>
     <g id="line2d_54">
      <g>
       <use style="stroke:#000000;stroke-width:0.8;" x="406.574351" xlink:href="#m79750e54f2" y="294.118125"/>
      </g>
     </g>
     <g id="text_27">
      <!-- 18/04 -->
      <g transform="translate(409.333726 329.936875)rotate(-90)scale(0.1 -0.1)">
       <use xlink:href="#DejaVuSans-49"/>
       <use x="63.623047" xlink:href="#DejaVuSans-56"/>
       <use x="127.246094" xlink:href="#DejaVuSans-47"/>
       <use x="160.9375" xlink:href="#DejaVuSans-48"/>
       <use x="224.560547" xlink:href="#DejaVuSans-52"/>
      </g>
     </g>
    </g>
    <g id="xtick_28">
     <g id="line2d_55">
      <path clip-path="url(#p24b7cec156)" d="M 419.994264 294.118125 
L 419.994264 22.318125 
" style="fill:none;stroke:#c0c0c0;stroke-dasharray:0.5,0.825;stroke-dashoffset:0;stroke-width:0.5;"/>
     </g>
     <g id="line2d_56">
      <g>
       <use style="stroke:#000000;stroke-width:0.8;" x="419.994264" xlink:href="#m79750e54f2" y="294.118125"/>
      </g>
     </g>
     <g id="text_28">
      <!-- 19/04 -->
      <g transform="translate(422.753639 329.936875)rotate(-90)scale(0.1 -0.1)">
       <use xlink:href="#DejaVuSans-49"/>
       <use x="63.623047" xlink:href="#DejaVuSans-57"/>
       <use x="127.246094" xlink:href="#DejaVuSans-47"/>
       <use x="160.9375" xlink:href="#DejaVuSans-48"/>
       <use x="224.560547" xlink:href="#DejaVuSans-52"/>
      </g>
     </g>
    </g>
    <g id="xtick_29">
     <g id="line2d_57">
      <path clip-path="url(#p24b7cec156)" d="M 433.414177 294.118125 
L 433.414177 22.318125 
" style="fill:none;stroke:#c0c0c0;stroke-dasharray:0.5,0.825;stroke-dashoffset:0;stroke-width:0.5;"/>
     </g>
     <g id="line2d_58">
      <g>
       <use style="stroke:#000000;stroke-width:0.8;" x="433.414177" xlink:href="#m79750e54f2" y="294.118125"/>
      </g>
     </g>
     <g id="text_29">
      <!-- 20/04 -->
      <g transform="translate(436.173552 329.936875)rotate(-90)scale(0.1 -0.1)">
       <use xlink:href="#DejaVuSans-50"/>
       <use x="63.623047" xlink:href="#DejaVuSans-48"/>
       <use x="127.246094" xlink:href="#DejaVuSans-47"/>
       <use x="160.9375" xlink:href="#DejaVuSans-48"/>
       <use x="224.560547" xlink:href="#DejaVuSans-52"/>
      </g>
     </g>
    </g>
    <g id="xtick_30">
     <g id="line2d_59">
      <path clip-path="url(#p24b7cec156)" d="M 446.834091 294.118125 
L 446.834091 22.318125 
" style="fill:none;stroke:#c0c0c0;stroke-dasharray:0.5,0.825;stroke-dashoffset:0;stroke-width:0.5;"/>
     </g>
     <g id="line2d_60">
      <g>
       <use style="stroke:#000000;stroke-width:0.8;" x="446.834091" xlink:href="#m79750e54f2" y="294.118125"/>
      </g>
     </g>
     <g id="text_30">
      <!-- 21/04 -->
      <g transform="translate(449.593466 329.936875)rotate(-90)scale(0.1 -0.1)">
       <use xlink:href="#DejaVuSans-50"/>
       <use x="63.623047" xlink:href="#DejaVuSans-49"/>
       <use x="127.246094" xlink:href="#DejaVuSans-47"/>
       <use x="160.9375" xlink:href="#DejaVuSans-48"/>
       <use x="224.560547" xlink:href="#DejaVuSans-52"/>
      </g>
     </g>
    </g>
    <g id="xtick_31">
     <g id="line2d_61">
      <path clip-path="url(#p24b7cec156)" d="M 460.254004 294.118125 
L 460.254004 22.318125 
" style="fill:none;stroke:#c0c0c0;stroke-dasharray:0.5,0.825;stroke-dashoffset:0;stroke-width:0.5;"/>
     </g>
     <g id="line2d_62">
      <g>
       <use style="stroke:#000000;stroke-width:0.8;" x="460.254004" xlink:href="#m79750e54f2" y="294.118125"/>
      </g>
     </g>
     <g id="text_31">
      <!-- 22/04 -->
      <g transform="translate(463.013379 329.936875)rotate(-90)scale(0.1 -0.1)">
       <use xlink:href="#DejaVuSans-50"/>
       <use x="63.623047" xlink:href="#DejaVuSans-50"/>
       <use x="127.246094" xlink:href="#DejaVuSans-47"/>
       <use x="160.9375" xlink:href="#DejaVuSans-48"/>
       <use x="224.560547" xlink:href="#DejaVuSans-52"/>
      </g>
     </g>
    </g>
    <g id="xtick_32">
     <g id="line2d_63">
      <path clip-path="url(#p24b7cec156)" d="M 473.673918 294.118125 
L 473.673918 22.318125 
" style="fill:none;stroke:#c0c0c0;stroke-dasharray:0.5,0.825;stroke-dashoffset:0;stroke-width:0.5;"/>
     </g>
     <g id="line2d_64">
      <g>
       <use style="stroke:#000000;stroke-width:0.8;" x="473.673918" xlink:href="#m79750e54f2" y="294.118125"/>
      </g>
     </g>
     <g id="text_32">
      <!-- 23/04 -->
      <g transform="translate(476.433293 329.936875)rotate(-90)scale(0.1 -0.1)">
       <use xlink:href="#DejaVuSans-50"/>
       <use x="63.623047" xlink:href="#DejaVuSans-51"/>
       <use x="127.246094" xlink:href="#DejaVuSans-47"/>
       <use x="160.9375" xlink:href="#DejaVuSans-48"/>
       <use x="224.560547" xlink:href="#DejaVuSans-52"/>
      </g>
     </g>
    </g>
    <g id="xtick_33">
     <g id="line2d_65">
      <path clip-path="url(#p24b7cec156)" d="M 487.093831 294.118125 
L 487.093831 22.318125 
" style="fill:none;stroke:#c0c0c0;stroke-dasharray:0.5,0.825;stroke-dashoffset:0;stroke-width:0.5;"/>
     </g>
     <g id="line2d_66">
      <g>
       <use style="stroke:#000000;stroke-width:0.8;" x="487.093831" xlink:href="#m79750e54f2" y="294.118125"/>
      </g>
     </g>
     <g id="text_33">
      <!-- 24/04 -->
      <g transform="translate(489.853206 329.936875)rotate(-90)scale(0.1 -0.1)">
       <use xlink:href="#DejaVuSans-50"/>
       <use x="63.623047" xlink:href="#DejaVuSans-52"/>
       <use x="127.246094" xlink:href="#DejaVuSans-47"/>
       <use x="160.9375" xlink:href="#DejaVuSans-48"/>
       <use x="224.560547" xlink:href="#DejaVuSans-52"/>
      </g>
     </g>
    </g>
    <g id="xtick_34">
     <g id="line2d_67">
      <path clip-path="url(#p24b7cec156)" d="M 500.513745 294.118125 
L 500.513745 22.318125 
" style="fill:none;stroke:#c0c0c0;stroke-dasharray:0.5,0.825;stroke-dashoffset:0;stroke-width:0.5;"/>
     </g>
     <g id="line2d_68">
      <g>
       <use style="stroke:#000000;stroke-width:0.8;" x="500.513745" xlink:href="#m79750e54f2" y="294.118125"/>
      </g>
     </g>
     <g id="text_34">
      <!-- 25/04 -->
      <g transform="translate(503.27312 329.936875)rotate(-90)scale(0.1 -0.1)">
       <use xlink:href="#DejaVuSans-50"/>
       <use x="63.623047" xlink:href="#DejaVuSans-53"/>
       <use x="127.246094" xlink:href="#DejaVuSans-47"/>
       <use x="160.9375" xlink:href="#DejaVuSans-48"/>
       <use x="224.560547" xlink:href="#DejaVuSans-52"/>
      </g>
     </g>
    </g>
    <g id="xtick_35">
     <g id="line2d_69">
      <path clip-path="url(#p24b7cec156)" d="M 513.933658 294.118125 
L 513.933658 22.318125 
" style="fill:none;stroke:#c0c0c0;stroke-dasharray:0.5,0.825;stroke-dashoffset:0;stroke-width:0.5;"/>
     </g>
     <g id="line2d_70">
      <g>
       <use style="stroke:#000000;stroke-width:0.8;" x="513.933658" xlink:href="#m79750e54f2" y="294.118125"/>
      </g>
     </g>
     <g id="text_35">
      <!-- 26/04 -->
      <g transform="translate(516.693033 329.936875)rotate(-90)scale(0.1 -0.1)">
       <use xlink:href="#DejaVuSans-50"/>
       <use x="63.623047" xlink:href="#DejaVuSans-54"/>
       <use x="127.246094" xlink:href="#DejaVuSans-47"/>
       <use x="160.9375" xlink:href="#DejaVuSans-48"/>
       <use x="224.560547" xlink:href="#DejaVuSans-52"/>
      </g>
     </g>
    </g>
    <g id="xtick_36">
     <g id="line2d_71">
      <path clip-path="url(#p24b7cec156)" d="M 527.353571 294.118125 
L 527.353571 22.318125 
" style="fill:none;stroke:#c0c0c0;stroke-dasharray:0.5,0.825;stroke-dashoffset:0;stroke-width:0.5;"/>
     </g>
     <g id="line2d_72">
      <g>
       <use style="stroke:#000000;stroke-width:0.8;" x="527.353571" xlink:href="#m79750e54f2" y="294.118125"/>
      </g>
     </g>
     <g id="text_36">
      <!-- 27/04 -->
      <g transform="translate(530.112946 329.936875)rotate(-90)scale(0.1 -0.1)">
       <use xlink:href="#DejaVuSans-50"/>
       <use x="63.623047" xlink:href="#DejaVuSans-55"/>
       <use x="127.246094" xlink:href="#DejaVuSans-47"/>
       <use x="160.9375" xlink:href="#DejaVuSans-48"/>
       <use x="224.560547" xlink:href="#DejaVuSans-52"/>
      </g>
     </g>
    </g>
    <g id="xtick_37">
     <g id="line2d_73">
      <path clip-path="url(#p24b7cec156)" d="M 540.773485 294.118125 
L 540.773485 22.318125 
" style="fill:none;stroke:#c0c0c0;stroke-dasharray:0.5,0.825;stroke-dashoffset:0;stroke-width:0.5;"/>
     </g>
     <g id="line2d_74">
      <g>
       <use style="stroke:#000000;stroke-width:0.8;" x="540.773485" xlink:href="#m79750e54f2" y="294.118125"/>
      </g>
     </g>
     <g id="text_37">
      <!-- 28/04 -->
      <g transform="translate(543.53286 329.936875)rotate(-90)scale(0.1 -0.1)">
       <use xlink:href="#DejaVuSans-50"/>
       <use x="63.623047" xlink:href="#DejaVuSans-56"/>
       <use x="127.246094" xlink:href="#DejaVuSans-47"/>
       <use x="160.9375" xlink:href="#DejaVuSans-48"/>
       <use x="224.560547" xlink:href="#DejaVuSans-52"/>
      </g>
     </g>
    </g>
    <g id="xtick_38">
     <g id="line2d_75">
      <path clip-path="url(#p24b7cec156)" d="M 554.193398 294.118125 
L 554.193398 22.318125 
" style="fill:none;stroke:#c0c0c0;stroke-dasharray:0.5,0.825;stroke-dashoffset:0;stroke-width:0.5;"/>
     </g>
     <g id="line2d_76">
      <g>
       <use style="stroke:#000000;stroke-width:0.8;" x="554.193398" xlink:href="#m79750e54f2" y="294.118125"/>
      </g>
     </g>
     <g id="text_38">
      <!-- 29/04 -->
      <g transform="translate(556.952773 329.936875)rotate(-90)scale(0.1 -0.1)">
       <use xlink:href="#DejaVuSans-50"/>
       <use x="63.623047" xlink:href="#DejaVuSans-57"/>
       <use x="127.246094" xlink:href="#DejaVuSans-47"/>
       <use x="160.9375" xlink:href="#DejaVuSans-48"/>
       <use x="224.560547" xlink:href="#DejaVuSans-52"/>
      </g>
     </g>
    </g>
   </g>
   <g id="matplotlib.axis_2">
    <g id="ytick_1">
     <g id="line2d_77">
      <path clip-path="url(#p24b7cec156)" d="M 26.925 294.118125 
L 584.925 294.118125 
" style="fill:none;stroke:#c0c0c0;stroke-dasharray:0.5,0.825;stroke-dashoffset:0;stroke-width:0.5;"/>
     </g>
     <g id="line2d_78">
      <defs>
       <path d="M 0 0 
L -3.5 0 
" id="m7c22d2bb0d" style="stroke:#000000;stroke-width:0.8;"/>
      </defs>
      <g>
       <use style="stroke:#000000;stroke-width:0.8;" x="26.925" xlink:href="#m7c22d2bb0d" y="294.118125"/>
      </g>
     </g>
     <g id="text_39">
      <!-- 0 -->
      <g transform="translate(13.5625 297.917344)scale(0.1 -0.1)">
       <use xlink:href="#DejaVuSans-48"/>
      </g>
     </g>
    </g>
    <g id="ytick_2">
     <g id="line2d_79">
      <path clip-path="url(#p24b7cec156)" d="M 26.925 232.345398 
L 584.925 232.345398 
" style="fill:none;stroke:#c0c0c0;stroke-dasharray:0.5,0.825;stroke-dashoffset:0;stroke-width:0.5;"/>
     </g>
     <g id="line2d_80">
      <g>
       <use style="stroke:#000000;stroke-width:0.8;" x="26.925" xlink:href="#m7c22d2bb0d" y="232.345398"/>
      </g>
     </g>
     <g id="text_40">
      <!-- 5 -->
      <g transform="translate(13.5625 236.144616)scale(0.1 -0.1)">
       <use xlink:href="#DejaVuSans-53"/>
      </g>
     </g>
    </g>
    <g id="ytick_3">
     <g id="line2d_81">
      <path clip-path="url(#p24b7cec156)" d="M 26.925 170.57267 
L 584.925 170.57267 
" style="fill:none;stroke:#c0c0c0;stroke-dasharray:0.5,0.825;stroke-dashoffset:0;stroke-width:0.5;"/>
     </g>
     <g id="line2d_82">
      <g>
       <use style="stroke:#000000;stroke-width:0.8;" x="26.925" xlink:href="#m7c22d2bb0d" y="170.57267"/>
      </g>
     </g>
     <g id="text_41">
      <!-- 10 -->
      <g transform="translate(7.2 174.371889)scale(0.1 -0.1)">
       <use xlink:href="#DejaVuSans-49"/>
       <use x="63.623047" xlink:href="#DejaVuSans-48"/>
      </g>
     </g>
    </g>
    <g id="ytick_4">
     <g id="line2d_83">
      <path clip-path="url(#p24b7cec156)" d="M 26.925 108.799943 
L 584.925 108.799943 
" style="fill:none;stroke:#c0c0c0;stroke-dasharray:0.5,0.825;stroke-dashoffset:0;stroke-width:0.5;"/>
     </g>
     <g id="line2d_84">
      <g>
       <use style="stroke:#000000;stroke-width:0.8;" x="26.925" xlink:href="#m7c22d2bb0d" y="108.799943"/>
      </g>
     </g>
     <g id="text_42">
      <!-- 15 -->
      <g transform="translate(7.2 112.599162)scale(0.1 -0.1)">
       <use xlink:href="#DejaVuSans-49"/>
       <use x="63.623047" xlink:href="#DejaVuSans-53"/>
      </g>
     </g>
    </g>
    <g id="ytick_5">
     <g id="line2d_85">
      <path clip-path="url(#p24b7cec156)" d="M 26.925 47.027216 
L 584.925 47.027216 
" style="fill:none;stroke:#c0c0c0;stroke-dasharray:0.5,0.825;stroke-dashoffset:0;stroke-width:0.5;"/>
     </g>
     <g id="line2d_86">
      <g>
       <use style="stroke:#000000;stroke-width:0.8;" x="26.925" xlink:href="#m7c22d2bb0d" y="47.027216"/>
      </g>
     </g>
     <g id="text_43">
      <!-- 20 -->
      <g transform="translate(7.2 50.826435)scale(0.1 -0.1)">
       <use xlink:href="#DejaVuSans-50"/>
       <use x="63.623047" xlink:href="#DejaVuSans-48"/>
      </g>
     </g>
    </g>
   </g>
   <g id="patch_3">
    <path clip-path="url(#p24b7cec156)" d="M 52.288636 294.118125 
L 63.024567 294.118125 
L 63.024567 269.409034 
L 52.288636 269.409034 
z
" style="fill:#6495ed;"/>
   </g>
   <g id="patch_4">
    <path clip-path="url(#p24b7cec156)" d="M 65.70855 294.118125 
L 76.444481 294.118125 
L 76.444481 294.118125 
L 65.70855 294.118125 
z
" style="fill:#6495ed;"/>
   </g>
   <g id="patch_5">
    <path clip-path="url(#p24b7cec156)" d="M 79.128463 294.118125 
L 89.864394 294.118125 
L 89.864394 281.76358 
L 79.128463 281.76358 
z
" style="fill:#6495ed;"/>
   </g>
   <g id="patch_6">
    <path clip-path="url(#p24b7cec156)" d="M 92.548377 294.118125 
L 103.284307 294.118125 
L 103.284307 294.118125 
L 92.548377 294.118125 
z
" style="fill:#6495ed;"/>
   </g>
   <g id="patch_7">
    <path clip-path="url(#p24b7cec156)" d="M 105.96829 294.118125 
L 116.704221 294.118125 
L 116.704221 269.409034 
L 105.96829 269.409034 
z
" style="fill:#6495ed;"/>
   </g>
   <g id="patch_8">
    <path clip-path="url(#p24b7cec156)" d="M 119.388203 294.118125 
L 130.124134 294.118125 
L 130.124134 269.409034 
L 119.388203 269.409034 
z
" style="fill:#6495ed;"/>
   </g>
   <g id="patch_9">
    <path clip-path="url(#p24b7cec156)" d="M 132.808117 294.118125 
L 143.544048 294.118125 
L 143.544048 281.76358 
L 132.808117 281.76358 
z
" style="fill:#6495ed;"/>
   </g>
   <g id="patch_10">
    <path clip-path="url(#p24b7cec156)" d="M 146.22803 294.118125 
L 156.963961 294.118125 
L 156.963961 244.699943 
L 146.22803 244.699943 
z
" style="fill:#6495ed;"/>
   </g>
   <g id="patch_11">
    <path clip-path="url(#p24b7cec156)" d="M 159.647944 294.118125 
L 170.383874 294.118125 
L 170.383874 294.118125 
L 159.647944 294.118125 
z
" style="fill:#6495ed;"/>
   </g>
   <g id="patch_12">
    <path clip-path="url(#p24b7cec156)" d="M 173.067857 294.118125 
L 183.803788 294.118125 
L 183.803788 294.118125 
L 173.067857 294.118125 
z
" style="fill:#6495ed;"/>
   </g>
   <g id="patch_13">
    <path clip-path="url(#p24b7cec156)" d="M 186.487771 294.118125 
L 197.223701 294.118125 
L 197.223701 294.118125 
L 186.487771 294.118125 
z
" style="fill:#6495ed;"/>
   </g>
   <g id="patch_14">
    <path clip-path="url(#p24b7cec156)" d="M 199.907684 294.118125 
L 210.643615 294.118125 
L 210.643615 294.118125 
L 199.907684 294.118125 
z
" style="fill:#6495ed;"/>
   </g>
   <g id="patch_15">
    <path clip-path="url(#p24b7cec156)" d="M 213.327597 294.118125 
L 224.063528 294.118125 
L 224.063528 281.76358 
L 213.327597 281.76358 
z
" style="fill:#6495ed;"/>
   </g>
   <g id="patch_16">
    <path clip-path="url(#p24b7cec156)" d="M 226.747511 294.118125 
L 237.483442 294.118125 
L 237.483442 294.118125 
L 226.747511 294.118125 
z
" style="fill:#6495ed;"/>
   </g>
   <g id="patch_17">
    <path clip-path="url(#p24b7cec156)" d="M 240.167424 294.118125 
L 250.903355 294.118125 
L 250.903355 281.76358 
L 240.167424 281.76358 
z
" style="fill:#6495ed;"/>
   </g>
   <g id="patch_18">
    <path clip-path="url(#p24b7cec156)" d="M 253.587338 294.118125 
L 264.323268 294.118125 
L 264.323268 294.118125 
L 253.587338 294.118125 
z
" style="fill:#6495ed;"/>
   </g>
   <g id="patch_19">
    <path clip-path="url(#p24b7cec156)" d="M 267.007251 294.118125 
L 277.743182 294.118125 
L 277.743182 294.118125 
L 267.007251 294.118125 
z
" style="fill:#6495ed;"/>
   </g>
   <g id="patch_20">
    <path clip-path="url(#p24b7cec156)" d="M 280.427165 294.118125 
L 291.163095 294.118125 
L 291.163095 281.76358 
L 280.427165 281.76358 
z
" style="fill:#6495ed;"/>
   </g>
   <g id="patch_21">
    <path clip-path="url(#p24b7cec156)" d="M 293.847078 294.118125 
L 304.583009 294.118125 
L 304.583009 269.409034 
L 293.847078 269.409034 
z
" style="fill:#6495ed;"/>
   </g>
   <g id="patch_22">
    <path clip-path="url(#p24b7cec156)" d="M 307.266991 294.118125 
L 318.002922 294.118125 
L 318.002922 281.76358 
L 307.266991 281.76358 
z
" style="fill:#6495ed;"/>
   </g>
   <g id="patch_23">
    <path clip-path="url(#p24b7cec156)" d="M 320.686905 294.118125 
L 331.422835 294.118125 
L 331.422835 281.76358 
L 320.686905 281.76358 
z
" style="fill:#6495ed;"/>
   </g>
   <g id="patch_24">
    <path clip-path="url(#p24b7cec156)" d="M 334.106818 294.118125 
L 344.842749 294.118125 
L 344.842749 294.118125 
L 334.106818 294.118125 
z
" style="fill:#6495ed;"/>
   </g>
   <g id="patch_25">
    <path clip-path="url(#p24b7cec156)" d="M 347.526732 294.118125 
L 358.262662 294.118125 
L 358.262662 281.76358 
L 347.526732 281.76358 
z
" style="fill:#6495ed;"/>
   </g>
   <g id="patch_26">
    <path clip-path="url(#p24b7cec156)" d="M 360.946645 294.118125 
L 371.682576 294.118125 
L 371.682576 294.118125 
L 360.946645 294.118125 
z
" style="fill:#6495ed;"/>
   </g>
   <g id="patch_27">
    <path clip-path="url(#p24b7cec156)" d="M 374.366558 294.118125 
L 385.102489 294.118125 
L 385.102489 269.409034 
L 374.366558 269.409034 
z
" style="fill:#6495ed;"/>
   </g>
   <g id="patch_28">
    <path clip-path="url(#p24b7cec156)" d="M 387.786472 294.118125 
L 398.522403 294.118125 
L 398.522403 294.118125 
L 387.786472 294.118125 
z
" style="fill:#6495ed;"/>
   </g>
   <g id="patch_29">
    <path clip-path="url(#p24b7cec156)" d="M 401.206385 294.118125 
L 411.942316 294.118125 
L 411.942316 294.118125 
L 401.206385 294.118125 
z
" style="fill:#6495ed;"/>
   </g>
   <g id="patch_30">
    <path clip-path="url(#p24b7cec156)" d="M 414.626299 294.118125 
L 425.362229 294.118125 
L 425.362229 294.118125 
L 414.626299 294.118125 
z
" style="fill:#6495ed;"/>
   </g>
   <g id="patch_31">
    <path clip-path="url(#p24b7cec156)" d="M 428.046212 294.118125 
L 438.782143 294.118125 
L 438.782143 294.118125 
L 428.046212 294.118125 
z
" style="fill:#6495ed;"/>
   </g>
   <g id="patch_32">
    <path clip-path="url(#p24b7cec156)" d="M 441.466126 294.118125 
L 452.202056 294.118125 
L 452.202056 281.76358 
L 441.466126 281.76358 
z
" style="fill:#6495ed;"/>
   </g>
   <g id="patch_33">
    <path clip-path="url(#p24b7cec156)" d="M 454.886039 294.118125 
L 465.62197 294.118125 
L 465.62197 294.118125 
L 454.886039 294.118125 
z
" style="fill:#6495ed;"/>
   </g>
   <g id="patch_34">
    <path clip-path="url(#p24b7cec156)" d="M 468.305952 294.118125 
L 479.041883 294.118125 
L 479.041883 294.118125 
L 468.305952 294.118125 
z
" style="fill:#6495ed;"/>
   </g>
   <g id="patch_35">
    <path clip-path="url(#p24b7cec156)" d="M 481.725866 294.118125 
L 492.461797 294.118125 
L 492.461797 281.76358 
L 481.725866 281.76358 
z
" style="fill:#6495ed;"/>
   </g>
   <g id="patch_36">
    <path clip-path="url(#p24b7cec156)" d="M 495.145779 294.118125 
L 505.88171 294.118125 
L 505.88171 294.118125 
L 495.145779 294.118125 
z
" style="fill:#6495ed;"/>
   </g>
   <g id="patch_37">
    <path clip-path="url(#p24b7cec156)" d="M 508.565693 294.118125 
L 519.301623 294.118125 
L 519.301623 281.76358 
L 508.565693 281.76358 
z
" style="fill:#6495ed;"/>
   </g>
   <g id="patch_38">
    <path clip-path="url(#p24b7cec156)" d="M 521.985606 294.118125 
L 532.721537 294.118125 
L 532.721537 294.118125 
L 521.985606 294.118125 
z
" style="fill:#6495ed;"/>
   </g>
   <g id="patch_39">
    <path clip-path="url(#p24b7cec156)" d="M 535.405519 294.118125 
L 546.14145 294.118125 
L 546.14145 294.118125 
L 535.405519 294.118125 
z
" style="fill:#6495ed;"/>
   </g>
   <g id="patch_40">
    <path clip-path="url(#p24b7cec156)" d="M 548.825433 294.118125 
L 559.561364 294.118125 
L 559.561364 281.76358 
L 548.825433 281.76358 
z
" style="fill:#6495ed;"/>
   </g>
   <g id="patch_41">
    <path clip-path="url(#p24b7cec156)" d="M 52.288636 269.409034 
L 63.024567 269.409034 
L 63.024567 269.409034 
L 52.288636 269.409034 
z
" style="fill:#bc8f8f;"/>
   </g>
   <g id="patch_42">
    <path clip-path="url(#p24b7cec156)" d="M 65.70855 294.118125 
L 76.444481 294.118125 
L 76.444481 294.118125 
L 65.70855 294.118125 
z
" style="fill:#bc8f8f;"/>
   </g>
   <g id="patch_43">
    <path clip-path="url(#p24b7cec156)" d="M 79.128463 281.76358 
L 89.864394 281.76358 
L 89.864394 281.76358 
L 79.128463 281.76358 
z
" style="fill:#bc8f8f;"/>
   </g>
   <g id="patch_44">
    <path clip-path="url(#p24b7cec156)" d="M 92.548377 294.118125 
L 103.284307 294.118125 
L 103.284307 294.118125 
L 92.548377 294.118125 
z
" style="fill:#bc8f8f;"/>
   </g>
   <g id="patch_45">
    <path clip-path="url(#p24b7cec156)" d="M 105.96829 269.409034 
L 116.704221 269.409034 
L 116.704221 269.409034 
L 105.96829 269.409034 
z
" style="fill:#bc8f8f;"/>
   </g>
   <g id="patch_46">
    <path clip-path="url(#p24b7cec156)" d="M 119.388203 269.409034 
L 130.124134 269.409034 
L 130.124134 257.054489 
L 119.388203 257.054489 
z
" style="fill:#bc8f8f;"/>
   </g>
   <g id="patch_47">
    <path clip-path="url(#p24b7cec156)" d="M 132.808117 281.76358 
L 143.544048 281.76358 
L 143.544048 269.409034 
L 132.808117 269.409034 
z
" style="fill:#bc8f8f;"/>
   </g>
   <g id="patch_48">
    <path clip-path="url(#p24b7cec156)" d="M 146.22803 244.699943 
L 156.963961 244.699943 
L 156.963961 232.345398 
L 146.22803 232.345398 
z
" style="fill:#bc8f8f;"/>
   </g>
   <g id="patch_49">
    <path clip-path="url(#p24b7cec156)" d="M 159.647944 294.118125 
L 170.383874 294.118125 
L 170.383874 294.118125 
L 159.647944 294.118125 
z
" style="fill:#bc8f8f;"/>
   </g>
   <g id="patch_50">
    <path clip-path="url(#p24b7cec156)" d="M 173.067857 294.118125 
L 183.803788 294.118125 
L 183.803788 281.76358 
L 173.067857 281.76358 
z
" style="fill:#bc8f8f;"/>
   </g>
   <g id="patch_51">
    <path clip-path="url(#p24b7cec156)" d="M 186.487771 294.118125 
L 197.223701 294.118125 
L 197.223701 244.699943 
L 186.487771 244.699943 
z
" style="fill:#bc8f8f;"/>
   </g>
   <g id="patch_52">
    <path clip-path="url(#p24b7cec156)" d="M 199.907684 294.118125 
L 210.643615 294.118125 
L 210.643615 294.118125 
L 199.907684 294.118125 
z
" style="fill:#bc8f8f;"/>
   </g>
   <g id="patch_53">
    <path clip-path="url(#p24b7cec156)" d="M 213.327597 281.76358 
L 224.063528 281.76358 
L 224.063528 281.76358 
L 213.327597 281.76358 
z
" style="fill:#bc8f8f;"/>
   </g>
   <g id="patch_54">
    <path clip-path="url(#p24b7cec156)" d="M 226.747511 294.118125 
L 237.483442 294.118125 
L 237.483442 294.118125 
L 226.747511 294.118125 
z
" style="fill:#bc8f8f;"/>
   </g>
   <g id="patch_55">
    <path clip-path="url(#p24b7cec156)" d="M 240.167424 281.76358 
L 250.903355 281.76358 
L 250.903355 281.76358 
L 240.167424 281.76358 
z
" style="fill:#bc8f8f;"/>
   </g>
   <g id="patch_56">
    <path clip-path="url(#p24b7cec156)" d="M 253.587338 294.118125 
L 264.323268 294.118125 
L 264.323268 294.118125 
L 253.587338 294.118125 
z
" style="fill:#bc8f8f;"/>
   </g>
   <g id="patch_57">
    <path clip-path="url(#p24b7cec156)" d="M 267.007251 294.118125 
L 277.743182 294.118125 
L 277.743182 294.118125 
L 267.007251 294.118125 
z
" style="fill:#bc8f8f;"/>
   </g>
   <g id="patch_58">
    <path clip-path="url(#p24b7cec156)" d="M 280.427165 281.76358 
L 291.163095 281.76358 
L 291.163095 281.76358 
L 280.427165 281.76358 
z
" style="fill:#bc8f8f;"/>
   </g>
   <g id="patch_59">
    <path clip-path="url(#p24b7cec156)" d="M 293.847078 269.409034 
L 304.583009 269.409034 
L 304.583009 244.699943 
L 293.847078 244.699943 
z
" style="fill:#bc8f8f;"/>
   </g>
   <g id="patch_60">
    <path clip-path="url(#p24b7cec156)" d="M 307.266991 281.76358 
L 318.002922 281.76358 
L 318.002922 257.054489 
L 307.266991 257.054489 
z
" style="fill:#bc8f8f;"/>
   </g>
   <g id="patch_61">
    <path clip-path="url(#p24b7cec156)" d="M 320.686905 281.76358 
L 331.422835 281.76358 
L 331.422835 232.345398 
L 320.686905 232.345398 
z
" style="fill:#bc8f8f;"/>
   </g>
   <g id="patch_62">
    <path clip-path="url(#p24b7cec156)" d="M 334.106818 294.118125 
L 344.842749 294.118125 
L 344.842749 269.409034 
L 334.106818 269.409034 
z
" style="fill:#bc8f8f;"/>
   </g>
   <g id="patch_63">
    <path clip-path="url(#p24b7cec156)" d="M 347.526732 281.76358 
L 358.262662 281.76358 
L 358.262662 22.318125 
L 347.526732 22.318125 
z
" style="fill:#bc8f8f;"/>
   </g>
   <g id="patch_64">
    <path clip-path="url(#p24b7cec156)" d="M 360.946645 294.118125 
L 371.682576 294.118125 
L 371.682576 158.218125 
L 360.946645 158.218125 
z
" style="fill:#bc8f8f;"/>
   </g>
   <g id="patch_65">
    <path clip-path="url(#p24b7cec156)" d="M 374.366558 269.409034 
L 385.102489 269.409034 
L 385.102489 182.927216 
L 374.366558 182.927216 
z
" style="fill:#bc8f8f;"/>
   </g>
   <g id="patch_66">
    <path clip-path="url(#p24b7cec156)" d="M 387.786472 294.118125 
L 398.522403 294.118125 
L 398.522403 269.409034 
L 387.786472 269.409034 
z
" style="fill:#bc8f8f;"/>
   </g>
   <g id="patch_67">
    <path clip-path="url(#p24b7cec156)" d="M 401.206385 294.118125 
L 411.942316 294.118125 
L 411.942316 170.57267 
L 401.206385 170.57267 
z
" style="fill:#bc8f8f;"/>
   </g>
   <g id="patch_68">
    <path clip-path="url(#p24b7cec156)" d="M 414.626299 294.118125 
L 425.362229 294.118125 
L 425.362229 158.218125 
L 414.626299 158.218125 
z
" style="fill:#bc8f8f;"/>
   </g>
   <g id="patch_69">
    <path clip-path="url(#p24b7cec156)" d="M 428.046212 294.118125 
L 438.782143 294.118125 
L 438.782143 195.281761 
L 428.046212 195.281761 
z
" style="fill:#bc8f8f;"/>
   </g>
   <g id="patch_70">
    <path clip-path="url(#p24b7cec156)" d="M 441.466126 281.76358 
L 452.202056 281.76358 
L 452.202056 281.76358 
L 441.466126 281.76358 
z
" style="fill:#bc8f8f;"/>
   </g>
   <g id="patch_71">
    <path clip-path="url(#p24b7cec156)" d="M 454.886039 294.118125 
L 465.62197 294.118125 
L 465.62197 269.409034 
L 454.886039 269.409034 
z
" style="fill:#bc8f8f;"/>
   </g>
   <g id="patch_72">
    <path clip-path="url(#p24b7cec156)" d="M 468.305952 294.118125 
L 479.041883 294.118125 
L 479.041883 195.281761 
L 468.305952 195.281761 
z
" style="fill:#bc8f8f;"/>
   </g>
   <g id="patch_73">
    <path clip-path="url(#p24b7cec156)" d="M 481.725866 281.76358 
L 492.461797 281.76358 
L 492.461797 158.218125 
L 481.725866 158.218125 
z
" style="fill:#bc8f8f;"/>
   </g>
   <g id="patch_74">
    <path clip-path="url(#p24b7cec156)" d="M 495.145779 294.118125 
L 505.88171 294.118125 
L 505.88171 294.118125 
L 495.145779 294.118125 
z
" style="fill:#bc8f8f;"/>
   </g>
   <g id="patch_75">
    <path clip-path="url(#p24b7cec156)" d="M 508.565693 281.76358 
L 519.301623 281.76358 
L 519.301623 269.409034 
L 508.565693 269.409034 
z
" style="fill:#bc8f8f;"/>
   </g>
   <g id="patch_76">
    <path clip-path="url(#p24b7cec156)" d="M 521.985606 294.118125 
L 532.721537 294.118125 
L 532.721537 294.118125 
L 521.985606 294.118125 
z
" style="fill:#bc8f8f;"/>
   </g>
   <g id="patch_77">
    <path clip-path="url(#p24b7cec156)" d="M 535.405519 294.118125 
L 546.14145 294.118125 
L 546.14145 257.054489 
L 535.405519 257.054489 
z
" style="fill:#bc8f8f;"/>
   </g>
   <g id="patch_78">
    <path clip-path="url(#p24b7cec156)" d="M 548.825433 281.76358 
L 559.561364 281.76358 
L 559.561364 281.76358 
L 548.825433 281.76358 
z
" style="fill:#bc8f8f;"/>
   </g>
   <g id="patch_79">
    <path clip-path="url(#p24b7cec156)" d="M 52.288636 269.409034 
L 63.024567 269.409034 
L 63.024567 269.409034 
L 52.288636 269.409034 
z
" style="fill:#ff7f50;"/>
   </g>
   <g id="patch_80">
    <path clip-path="url(#p24b7cec156)" d="M 65.70855 294.118125 
L 76.444481 294.118125 
L 76.444481 294.118125 
L 65.70855 294.118125 
z
" style="fill:#ff7f50;"/>
   </g>
   <g id="patch_81">
    <path clip-path="url(#p24b7cec156)" d="M 79.128463 281.76358 
L 89.864394 281.76358 
L 89.864394 281.76358 
L 79.128463 281.76358 
z
" style="fill:#ff7f50;"/>
   </g>
   <g id="patch_82">
    <path clip-path="url(#p24b7cec156)" d="M 92.548377 294.118125 
L 103.284307 294.118125 
L 103.284307 294.118125 
L 92.548377 294.118125 
z
" style="fill:#ff7f50;"/>
   </g>
   <g id="patch_83">
    <path clip-path="url(#p24b7cec156)" d="M 105.96829 269.409034 
L 116.704221 269.409034 
L 116.704221 269.409034 
L 105.96829 269.409034 
z
" style="fill:#ff7f50;"/>
   </g>
   <g id="patch_84">
    <path clip-path="url(#p24b7cec156)" d="M 119.388203 257.054489 
L 130.124134 257.054489 
L 130.124134 257.054489 
L 119.388203 257.054489 
z
" style="fill:#ff7f50;"/>
   </g>
   <g id="patch_85">
    <path clip-path="url(#p24b7cec156)" d="M 132.808117 269.409034 
L 143.544048 269.409034 
L 143.544048 269.409034 
L 132.808117 269.409034 
z
" style="fill:#ff7f50;"/>
   </g>
   <g id="patch_86">
    <path clip-path="url(#p24b7cec156)" d="M 146.22803 232.345398 
L 156.963961 232.345398 
L 156.963961 232.345398 
L 146.22803 232.345398 
z
" style="fill:#ff7f50;"/>
   </g>
   <g id="patch_87">
    <path clip-path="url(#p24b7cec156)" d="M 159.647944 294.118125 
L 170.383874 294.118125 
L 170.383874 294.118125 
L 159.647944 294.118125 
z
" style="fill:#ff7f50;"/>
   </g>
   <g id="patch_88">
    <path clip-path="url(#p24b7cec156)" d="M 173.067857 281.76358 
L 183.803788 281.76358 
L 183.803788 281.76358 
L 173.067857 281.76358 
z
" style="fill:#ff7f50;"/>
   </g>
   <g id="patch_89">
    <path clip-path="url(#p24b7cec156)" d="M 186.487771 244.699943 
L 197.223701 244.699943 
L 197.223701 244.699943 
L 186.487771 244.699943 
z
" style="fill:#ff7f50;"/>
   </g>
   <g id="patch_90">
    <path clip-path="url(#p24b7cec156)" d="M 199.907684 294.118125 
L 210.643615 294.118125 
L 210.643615 294.118125 
L 199.907684 294.118125 
z
" style="fill:#ff7f50;"/>
   </g>
   <g id="patch_91">
    <path clip-path="url(#p24b7cec156)" d="M 213.327597 281.76358 
L 224.063528 281.76358 
L 224.063528 281.76358 
L 213.327597 281.76358 
z
" style="fill:#ff7f50;"/>
   </g>
   <g id="patch_92">
    <path clip-path="url(#p24b7cec156)" d="M 226.747511 294.118125 
L 237.483442 294.118125 
L 237.483442 294.118125 
L 226.747511 294.118125 
z
" style="fill:#ff7f50;"/>
   </g>
   <g id="patch_93">
    <path clip-path="url(#p24b7cec156)" d="M 240.167424 281.76358 
L 250.903355 281.76358 
L 250.903355 281.76358 
L 240.167424 281.76358 
z
" style="fill:#ff7f50;"/>
   </g>
   <g id="patch_94">
    <path clip-path="url(#p24b7cec156)" d="M 253.587338 294.118125 
L 264.323268 294.118125 
L 264.323268 294.118125 
L 253.587338 294.118125 
z
" style="fill:#ff7f50;"/>
   </g>
   <g id="patch_95">
    <path clip-path="url(#p24b7cec156)" d="M 267.007251 294.118125 
L 277.743182 294.118125 
L 277.743182 294.118125 
L 267.007251 294.118125 
z
" style="fill:#ff7f50;"/>
   </g>
   <g id="patch_96">
    <path clip-path="url(#p24b7cec156)" d="M 280.427165 281.76358 
L 291.163095 281.76358 
L 291.163095 281.76358 
L 280.427165 281.76358 
z
" style="fill:#ff7f50;"/>
   </g>
   <g id="patch_97">
    <path clip-path="url(#p24b7cec156)" d="M 293.847078 244.699943 
L 304.583009 244.699943 
L 304.583009 244.699943 
L 293.847078 244.699943 
z
" style="fill:#ff7f50;"/>
   </g>
   <g id="patch_98">
    <path clip-path="url(#p24b7cec156)" d="M 307.266991 257.054489 
L 318.002922 257.054489 
L 318.002922 257.054489 
L 307.266991 257.054489 
z
" style="fill:#ff7f50;"/>
   </g>
   <g id="patch_99">
    <path clip-path="url(#p24b7cec156)" d="M 320.686905 232.345398 
L 331.422835 232.345398 
L 331.422835 232.345398 
L 320.686905 232.345398 
z
" style="fill:#ff7f50;"/>
   </g>
   <g id="patch_100">
    <path clip-path="url(#p24b7cec156)" d="M 334.106818 269.409034 
L 344.842749 269.409034 
L 344.842749 269.409034 
L 334.106818 269.409034 
z
" style="fill:#ff7f50;"/>
   </g>
   <g id="patch_101">
    <path clip-path="url(#p24b7cec156)" d="M 347.526732 22.318125 
L 358.262662 22.318125 
L 358.262662 22.318125 
L 347.526732 22.318125 
z
" style="fill:#ff7f50;"/>
   </g>
   <g id="patch_102">
    <path clip-path="url(#p24b7cec156)" d="M 360.946645 158.218125 
L 371.682576 158.218125 
L 371.682576 158.218125 
L 360.946645 158.218125 
z
" style="fill:#ff7f50;"/>
   </g>
   <g id="patch_103">
    <path clip-path="url(#p24b7cec156)" d="M 374.366558 182.927216 
L 385.102489 182.927216 
L 385.102489 182.927216 
L 374.366558 182.927216 
z
" style="fill:#ff7f50;"/>
   </g>
   <g id="patch_104">
    <path clip-path="url(#p24b7cec156)" d="M 387.786472 269.409034 
L 398.522403 269.409034 
L 398.522403 269.409034 
L 387.786472 269.409034 
z
" style="fill:#ff7f50;"/>
   </g>
   <g id="patch_105">
    <path clip-path="url(#p24b7cec156)" d="M 401.206385 170.57267 
L 411.942316 170.57267 
L 411.942316 170.57267 
L 401.206385 170.57267 
z
" style="fill:#ff7f50;"/>
   </g>
   <g id="patch_106">
    <path clip-path="url(#p24b7cec156)" d="M 414.626299 158.218125 
L 425.362229 158.218125 
L 425.362229 158.218125 
L 414.626299 158.218125 
z
" style="fill:#ff7f50;"/>
   </g>
   <g id="patch_107">
    <path clip-path="url(#p24b7cec156)" d="M 428.046212 195.281761 
L 438.782143 195.281761 
L 438.782143 195.281761 
L 428.046212 195.281761 
z
" style="fill:#ff7f50;"/>
   </g>
   <g id="patch_108">
    <path clip-path="url(#p24b7cec156)" d="M 441.466126 281.76358 
L 452.202056 281.76358 
L 452.202056 281.76358 
L 441.466126 281.76358 
z
" style="fill:#ff7f50;"/>
   </g>
   <g id="patch_109">
    <path clip-path="url(#p24b7cec156)" d="M 454.886039 269.409034 
L 465.62197 269.409034 
L 465.62197 269.409034 
L 454.886039 269.409034 
z
" style="fill:#ff7f50;"/>
   </g>
   <g id="patch_110">
    <path clip-path="url(#p24b7cec156)" d="M 468.305952 195.281761 
L 479.041883 195.281761 
L 479.041883 195.281761 
L 468.305952 195.281761 
z
" style="fill:#ff7f50;"/>
   </g>
   <g id="patch_111">
    <path clip-path="url(#p24b7cec156)" d="M 481.725866 158.218125 
L 492.461797 158.218125 
L 492.461797 158.218125 
L 481.725866 158.218125 
z
" style="fill:#ff7f50;"/>
   </g>
   <g id="patch_112">
    <path clip-path="url(#p24b7cec156)" d="M 495.145779 294.118125 
L 505.88171 294.118125 
L 505.88171 294.118125 
L 495.145779 294.118125 
z
" style="fill:#ff7f50;"/>
   </g>
   <g id="patch_113">
    <path clip-path="url(#p24b7cec156)" d="M 508.565693 269.409034 
L 519.301623 269.409034 
L 519.301623 269.409034 
L 508.565693 269.409034 
z
" style="fill:#ff7f50;"/>
   </g>
   <g id="patch_114">
    <path clip-path="url(#p24b7cec156)" d="M 521.985606 294.118125 
L 532.721537 294.118125 
L 532.721537 294.118125 
L 521.985606 294.118125 
z
" style="fill:#ff7f50;"/>
   </g>
   <g id="patch_115">
    <path clip-path="url(#p24b7cec156)" d="M 535.405519 257.054489 
L 546.14145 257.054489 
L 546.14145 257.054489 
L 535.405519 257.054489 
z
" style="fill:#ff7f50;"/>
   </g>
   <g id="patch_116">
    <path clip-path="url(#p24b7cec156)" d="M 548.825433 281.76358 
L 559.561364 281.76358 
L 559.561364 281.76358 
L 548.825433 281.76358 
z
" style="fill:#ff7f50;"/>
   </g>
   <g id="patch_117">
    <path clip-path="url(#p24b7cec156)" d="M 52.288636 269.409034 
L 63.024567 269.409034 
L 63.024567 269.409034 
L 52.288636 269.409034 
z
" style="fill:#b22222;"/>
   </g>
   <g id="patch_118">
    <path clip-path="url(#p24b7cec156)" d="M 65.70855 294.118125 
L 76.444481 294.118125 
L 76.444481 294.118125 
L 65.70855 294.118125 
z
" style="fill:#b22222;"/>
   </g>
   <g id="patch_119">
    <path clip-path="url(#p24b7cec156)" d="M 79.128463 281.76358 
L 89.864394 281.76358 
L 89.864394 281.76358 
L 79.128463 281.76358 
z
" style="fill:#b22222;"/>
   </g>
   <g id="patch_120">
    <path clip-path="url(#p24b7cec156)" d="M 92.548377 294.118125 
L 103.284307 294.118125 
L 103.284307 294.118125 
L 92.548377 294.118125 
z
" style="fill:#b22222;"/>
   </g>
   <g id="patch_121">
    <path clip-path="url(#p24b7cec156)" d="M 105.96829 269.409034 
L 116.704221 269.409034 
L 116.704221 269.409034 
L 105.96829 269.409034 
z
" style="fill:#b22222;"/>
   </g>
   <g id="patch_122">
    <path clip-path="url(#p24b7cec156)" d="M 119.388203 257.054489 
L 130.124134 257.054489 
L 130.124134 257.054489 
L 119.388203 257.054489 
z
" style="fill:#b22222;"/>
   </g>
   <g id="patch_123">
    <path clip-path="url(#p24b7cec156)" d="M 132.808117 269.409034 
L 143.544048 269.409034 
L 143.544048 269.409034 
L 132.808117 269.409034 
z
" style="fill:#b22222;"/>
   </g>
   <g id="patch_124">
    <path clip-path="url(#p24b7cec156)" d="M 146.22803 232.345398 
L 156.963961 232.345398 
L 156.963961 232.345398 
L 146.22803 232.345398 
z
" style="fill:#b22222;"/>
   </g>
   <g id="patch_125">
    <path clip-path="url(#p24b7cec156)" d="M 159.647944 294.118125 
L 170.383874 294.118125 
L 170.383874 294.118125 
L 159.647944 294.118125 
z
" style="fill:#b22222;"/>
   </g>
   <g id="patch_126">
    <path clip-path="url(#p24b7cec156)" d="M 173.067857 281.76358 
L 183.803788 281.76358 
L 183.803788 281.76358 
L 173.067857 281.76358 
z
" style="fill:#b22222;"/>
   </g>
   <g id="patch_127">
    <path clip-path="url(#p24b7cec156)" d="M 186.487771 244.699943 
L 197.223701 244.699943 
L 197.223701 244.699943 
L 186.487771 244.699943 
z
" style="fill:#b22222;"/>
   </g>
   <g id="patch_128">
    <path clip-path="url(#p24b7cec156)" d="M 199.907684 294.118125 
L 210.643615 294.118125 
L 210.643615 294.118125 
L 199.907684 294.118125 
z
" style="fill:#b22222;"/>
   </g>
   <g id="patch_129">
    <path clip-path="url(#p24b7cec156)" d="M 213.327597 281.76358 
L 224.063528 281.76358 
L 224.063528 281.76358 
L 213.327597 281.76358 
z
" style="fill:#b22222;"/>
   </g>
   <g id="patch_130">
    <path clip-path="url(#p24b7cec156)" d="M 226.747511 294.118125 
L 237.483442 294.118125 
L 237.483442 294.118125 
L 226.747511 294.118125 
z
" style="fill:#b22222;"/>
   </g>
   <g id="patch_131">
    <path clip-path="url(#p24b7cec156)" d="M 240.167424 281.76358 
L 250.903355 281.76358 
L 250.903355 281.76358 
L 240.167424 281.76358 
z
" style="fill:#b22222;"/>
   </g>
   <g id="patch_132">
    <path clip-path="url(#p24b7cec156)" d="M 253.587338 294.118125 
L 264.323268 294.118125 
L 264.323268 294.118125 
L 253.587338 294.118125 
z
" style="fill:#b22222;"/>
   </g>
   <g id="patch_133">
    <path clip-path="url(#p24b7cec156)" d="M 267.007251 294.118125 
L 277.743182 294.118125 
L 277.743182 294.118125 
L 267.007251 294.118125 
z
" style="fill:#b22222;"/>
   </g>
   <g id="patch_134">
    <path clip-path="url(#p24b7cec156)" d="M 280.427165 281.76358 
L 291.163095 281.76358 
L 291.163095 281.76358 
L 280.427165 281.76358 
z
" style="fill:#b22222;"/>
   </g>
   <g id="patch_135">
    <path clip-path="url(#p24b7cec156)" d="M 293.847078 244.699943 
L 304.583009 244.699943 
L 304.583009 232.345398 
L 293.847078 232.345398 
z
" style="fill:#b22222;"/>
   </g>
   <g id="patch_136">
    <path clip-path="url(#p24b7cec156)" d="M 307.266991 257.054489 
L 318.002922 257.054489 
L 318.002922 257.054489 
L 307.266991 257.054489 
z
" style="fill:#b22222;"/>
   </g>
   <g id="patch_137">
    <path clip-path="url(#p24b7cec156)" d="M 320.686905 232.345398 
L 331.422835 232.345398 
L 331.422835 195.281761 
L 320.686905 195.281761 
z
" style="fill:#b22222;"/>
   </g>
   <g id="patch_138">
    <path clip-path="url(#p24b7cec156)" d="M 334.106818 269.409034 
L 344.842749 269.409034 
L 344.842749 269.409034 
L 334.106818 269.409034 
z
" style="fill:#b22222;"/>
   </g>
   <g id="patch_139">
    <path clip-path="url(#p24b7cec156)" d="M 347.526732 22.318125 
L 358.262662 22.318125 
L 358.262662 22.318125 
L 347.526732 22.318125 
z
" style="fill:#b22222;"/>
   </g>
   <g id="patch_140">
    <path clip-path="url(#p24b7cec156)" d="M 360.946645 158.218125 
L 371.682576 158.218125 
L 371.682576 158.218125 
L 360.946645 158.218125 
z
" style="fill:#b22222;"/>
   </g>
   <g id="patch_141">
    <path clip-path="url(#p24b7cec156)" d="M 374.366558 182.927216 
L 385.102489 182.927216 
L 385.102489 158.218125 
L 374.366558 158.218125 
z
" style="fill:#b22222;"/>
   </g>
   <g id="patch_142">
    <path clip-path="url(#p24b7cec156)" d="M 387.786472 269.409034 
L 398.522403 269.409034 
L 398.522403 257.054489 
L 387.786472 257.054489 
z
" style="fill:#b22222;"/>
   </g>
   <g id="patch_143">
    <path clip-path="url(#p24b7cec156)" d="M 401.206385 170.57267 
L 411.942316 170.57267 
L 411.942316 170.57267 
L 401.206385 170.57267 
z
" style="fill:#b22222;"/>
   </g>
   <g id="patch_144">
    <path clip-path="url(#p24b7cec156)" d="M 414.626299 158.218125 
L 425.362229 158.218125 
L 425.362229 133.509034 
L 414.626299 133.509034 
z
" style="fill:#b22222;"/>
   </g>
   <g id="patch_145">
    <path clip-path="url(#p24b7cec156)" d="M 428.046212 195.281761 
L 438.782143 195.281761 
L 438.782143 195.281761 
L 428.046212 195.281761 
z
" style="fill:#b22222;"/>
   </g>
   <g id="patch_146">
    <path clip-path="url(#p24b7cec156)" d="M 441.466126 281.76358 
L 452.202056 281.76358 
L 452.202056 269.409034 
L 441.466126 269.409034 
z
" style="fill:#b22222;"/>
   </g>
   <g id="patch_147">
    <path clip-path="url(#p24b7cec156)" d="M 454.886039 269.409034 
L 465.62197 269.409034 
L 465.62197 269.409034 
L 454.886039 269.409034 
z
" style="fill:#b22222;"/>
   </g>
   <g id="patch_148">
    <path clip-path="url(#p24b7cec156)" d="M 468.305952 195.281761 
L 479.041883 195.281761 
L 479.041883 182.927216 
L 468.305952 182.927216 
z
" style="fill:#b22222;"/>
   </g>
   <g id="patch_149">
    <path clip-path="url(#p24b7cec156)" d="M 481.725866 158.218125 
L 492.461797 158.218125 
L 492.461797 145.86358 
L 481.725866 145.86358 
z
" style="fill:#b22222;"/>
   </g>
   <g id="patch_150">
    <path clip-path="url(#p24b7cec156)" d="M 495.145779 294.118125 
L 505.88171 294.118125 
L 505.88171 294.118125 
L 495.145779 294.118125 
z
" style="fill:#b22222;"/>
   </g>
   <g id="patch_151">
    <path clip-path="url(#p24b7cec156)" d="M 508.565693 269.409034 
L 519.301623 269.409034 
L 519.301623 269.409034 
L 508.565693 269.409034 
z
" style="fill:#b22222;"/>
   </g>
   <g id="patch_152">
    <path clip-path="url(#p24b7cec156)" d="M 521.985606 294.118125 
L 532.721537 294.118125 
L 532.721537 294.118125 
L 521.985606 294.118125 
z
" style="fill:#b22222;"/>
   </g>
   <g id="patch_153">
    <path clip-path="url(#p24b7cec156)" d="M 535.405519 257.054489 
L 546.14145 257.054489 
L 546.14145 257.054489 
L 535.405519 257.054489 
z
" style="fill:#b22222;"/>
   </g>
   <g id="patch_154">
    <path clip-path="url(#p24b7cec156)" d="M 548.825433 281.76358 
L 559.561364 281.76358 
L 559.561364 281.76358 
L 548.825433 281.76358 
z
" style="fill:#b22222;"/>
   </g>
   <g id="patch_155">
    <path d="M 26.925 294.118125 
L 26.925 22.318125 
" style="fill:none;stroke:#000000;stroke-linecap:square;stroke-linejoin:miter;stroke-width:0.8;"/>
   </g>
   <g id="patch_156">
    <path d="M 584.925 294.118125 
L 584.925 22.318125 
" style="fill:none;stroke:#000000;stroke-linecap:square;stroke-linejoin:miter;stroke-width:0.8;"/>
   </g>
   <g id="patch_157">
    <path d="M 26.925 294.118125 
L 584.925 294.118125 
" style="fill:none;stroke:#000000;stroke-linecap:square;stroke-linejoin:miter;stroke-width:0.8;"/>
   </g>
   <g id="patch_158">
    <path d="M 26.925 22.318125 
L 584.925 22.318125 
" style="fill:none;stroke:#000000;stroke-linecap:square;stroke-linejoin:miter;stroke-width:0.8;"/>
   </g>
   <g id="text_44">
    <!-- Daily new cases as of 29/04/2020 -->
    <defs>
     <path d="M 19.671875 64.796875 
L 19.671875 8.109375 
L 31.59375 8.109375 
Q 46.6875 8.109375 53.6875 14.9375 
Q 60.6875 21.78125 60.6875 36.53125 
Q 60.6875 51.171875 53.6875 57.984375 
Q 46.6875 64.796875 31.59375 64.796875 
z
M 9.8125 72.90625 
L 30.078125 72.90625 
Q 51.265625 72.90625 61.171875 64.09375 
Q 71.09375 55.28125 71.09375 36.53125 
Q 71.09375 17.671875 61.125 8.828125 
Q 51.171875 0 30.078125 0 
L 9.8125 0 
z
" id="DejaVuSans-68"/>
     <path d="M 34.28125 27.484375 
Q 23.390625 27.484375 19.1875 25 
Q 14.984375 22.515625 14.984375 16.5 
Q 14.984375 11.71875 18.140625 8.90625 
Q 21.296875 6.109375 26.703125 6.109375 
Q 34.1875 6.109375 38.703125 11.40625 
Q 43.21875 16.703125 43.21875 25.484375 
L 43.21875 27.484375 
z
M 52.203125 31.203125 
L 52.203125 0 
L 43.21875 0 
L 43.21875 8.296875 
Q 40.140625 3.328125 35.546875 0.953125 
Q 30.953125 -1.421875 24.3125 -1.421875 
Q 15.921875 -1.421875 10.953125 3.296875 
Q 6 8.015625 6 15.921875 
Q 6 25.140625 12.171875 29.828125 
Q 18.359375 34.515625 30.609375 34.515625 
L 43.21875 34.515625 
L 43.21875 35.40625 
Q 43.21875 41.609375 39.140625 45 
Q 35.0625 48.390625 27.6875 48.390625 
Q 23 48.390625 18.546875 47.265625 
Q 14.109375 46.140625 10.015625 43.890625 
L 10.015625 52.203125 
Q 14.9375 54.109375 19.578125 55.046875 
Q 24.21875 56 28.609375 56 
Q 40.484375 56 46.34375 49.84375 
Q 52.203125 43.703125 52.203125 31.203125 
z
" id="DejaVuSans-97"/>
     <path d="M 9.421875 54.6875 
L 18.40625 54.6875 
L 18.40625 0 
L 9.421875 0 
z
M 9.421875 75.984375 
L 18.40625 75.984375 
L 18.40625 64.59375 
L 9.421875 64.59375 
z
" id="DejaVuSans-105"/>
     <path d="M 9.421875 75.984375 
L 18.40625 75.984375 
L 18.40625 0 
L 9.421875 0 
z
" id="DejaVuSans-108"/>
     <path d="M 32.171875 -5.078125 
Q 28.375 -14.84375 24.75 -17.8125 
Q 21.140625 -20.796875 15.09375 -20.796875 
L 7.90625 -20.796875 
L 7.90625 -13.28125 
L 13.1875 -13.28125 
Q 16.890625 -13.28125 18.9375 -11.515625 
Q 21 -9.765625 23.484375 -3.21875 
L 25.09375 0.875 
L 2.984375 54.6875 
L 12.5 54.6875 
L 29.59375 11.921875 
L 46.6875 54.6875 
L 56.203125 54.6875 
z
" id="DejaVuSans-121"/>
     <path id="DejaVuSans-32"/>
     <path d="M 54.890625 33.015625 
L 54.890625 0 
L 45.90625 0 
L 45.90625 32.71875 
Q 45.90625 40.484375 42.875 44.328125 
Q 39.84375 48.1875 33.796875 48.1875 
Q 26.515625 48.1875 22.3125 43.546875 
Q 18.109375 38.921875 18.109375 30.90625 
L 18.109375 0 
L 9.078125 0 
L 9.078125 54.6875 
L 18.109375 54.6875 
L 18.109375 46.1875 
Q 21.34375 51.125 25.703125 53.5625 
Q 30.078125 56 35.796875 56 
Q 45.21875 56 50.046875 50.171875 
Q 54.890625 44.34375 54.890625 33.015625 
z
" id="DejaVuSans-110"/>
     <path d="M 56.203125 29.59375 
L 56.203125 25.203125 
L 14.890625 25.203125 
Q 15.484375 15.921875 20.484375 11.0625 
Q 25.484375 6.203125 34.421875 6.203125 
Q 39.59375 6.203125 44.453125 7.46875 
Q 49.3125 8.734375 54.109375 11.28125 
L 54.109375 2.78125 
Q 49.265625 0.734375 44.1875 -0.34375 
Q 39.109375 -1.421875 33.890625 -1.421875 
Q 20.796875 -1.421875 13.15625 6.1875 
Q 5.515625 13.8125 5.515625 26.8125 
Q 5.515625 40.234375 12.765625 48.109375 
Q 20.015625 56 32.328125 56 
Q 43.359375 56 49.78125 48.890625 
Q 56.203125 41.796875 56.203125 29.59375 
z
M 47.21875 32.234375 
Q 47.125 39.59375 43.09375 43.984375 
Q 39.0625 48.390625 32.421875 48.390625 
Q 24.90625 48.390625 20.390625 44.140625 
Q 15.875 39.890625 15.1875 32.171875 
z
" id="DejaVuSans-101"/>
     <path d="M 4.203125 54.6875 
L 13.1875 54.6875 
L 24.421875 12.015625 
L 35.59375 54.6875 
L 46.1875 54.6875 
L 57.421875 12.015625 
L 68.609375 54.6875 
L 77.59375 54.6875 
L 63.28125 0 
L 52.6875 0 
L 40.921875 44.828125 
L 29.109375 0 
L 18.5 0 
z
" id="DejaVuSans-119"/>
     <path d="M 48.78125 52.59375 
L 48.78125 44.1875 
Q 44.96875 46.296875 41.140625 47.34375 
Q 37.3125 48.390625 33.40625 48.390625 
Q 24.65625 48.390625 19.8125 42.84375 
Q 14.984375 37.3125 14.984375 27.296875 
Q 14.984375 17.28125 19.8125 11.734375 
Q 24.65625 6.203125 33.40625 6.203125 
Q 37.3125 6.203125 41.140625 7.25 
Q 44.96875 8.296875 48.78125 10.40625 
L 48.78125 2.09375 
Q 45.015625 0.34375 40.984375 -0.53125 
Q 36.96875 -1.421875 32.421875 -1.421875 
Q 20.0625 -1.421875 12.78125 6.34375 
Q 5.515625 14.109375 5.515625 27.296875 
Q 5.515625 40.671875 12.859375 48.328125 
Q 20.21875 56 33.015625 56 
Q 37.15625 56 41.109375 55.140625 
Q 45.0625 54.296875 48.78125 52.59375 
z
" id="DejaVuSans-99"/>
     <path d="M 44.28125 53.078125 
L 44.28125 44.578125 
Q 40.484375 46.53125 36.375 47.5 
Q 32.28125 48.484375 27.875 48.484375 
Q 21.1875 48.484375 17.84375 46.4375 
Q 14.5 44.390625 14.5 40.28125 
Q 14.5 37.15625 16.890625 35.375 
Q 19.28125 33.59375 26.515625 31.984375 
L 29.59375 31.296875 
Q 39.15625 29.25 43.1875 25.515625 
Q 47.21875 21.78125 47.21875 15.09375 
Q 47.21875 7.46875 41.1875 3.015625 
Q 35.15625 -1.421875 24.609375 -1.421875 
Q 20.21875 -1.421875 15.453125 -0.5625 
Q 10.6875 0.296875 5.421875 2 
L 5.421875 11.28125 
Q 10.40625 8.6875 15.234375 7.390625 
Q 20.0625 6.109375 24.8125 6.109375 
Q 31.15625 6.109375 34.5625 8.28125 
Q 37.984375 10.453125 37.984375 14.40625 
Q 37.984375 18.0625 35.515625 20.015625 
Q 33.0625 21.96875 24.703125 23.78125 
L 21.578125 24.515625 
Q 13.234375 26.265625 9.515625 29.90625 
Q 5.8125 33.546875 5.8125 39.890625 
Q 5.8125 47.609375 11.28125 51.796875 
Q 16.75 56 26.8125 56 
Q 31.78125 56 36.171875 55.265625 
Q 40.578125 54.546875 44.28125 53.078125 
z
" id="DejaVuSans-115"/>
     <path d="M 30.609375 48.390625 
Q 23.390625 48.390625 19.1875 42.75 
Q 14.984375 37.109375 14.984375 27.296875 
Q 14.984375 17.484375 19.15625 11.84375 
Q 23.34375 6.203125 30.609375 6.203125 
Q 37.796875 6.203125 41.984375 11.859375 
Q 46.1875 17.53125 46.1875 27.296875 
Q 46.1875 37.015625 41.984375 42.703125 
Q 37.796875 48.390625 30.609375 48.390625 
z
M 30.609375 56 
Q 42.328125 56 49.015625 48.375 
Q 55.71875 40.765625 55.71875 27.296875 
Q 55.71875 13.875 49.015625 6.21875 
Q 42.328125 -1.421875 30.609375 -1.421875 
Q 18.84375 -1.421875 12.171875 6.21875 
Q 5.515625 13.875 5.515625 27.296875 
Q 5.515625 40.765625 12.171875 48.375 
Q 18.84375 56 30.609375 56 
z
" id="DejaVuSans-111"/>
     <path d="M 37.109375 75.984375 
L 37.109375 68.5 
L 28.515625 68.5 
Q 23.6875 68.5 21.796875 66.546875 
Q 19.921875 64.59375 19.921875 59.515625 
L 19.921875 54.6875 
L 34.71875 54.6875 
L 34.71875 47.703125 
L 19.921875 47.703125 
L 19.921875 0 
L 10.890625 0 
L 10.890625 47.703125 
L 2.296875 47.703125 
L 2.296875 54.6875 
L 10.890625 54.6875 
L 10.890625 58.5 
Q 10.890625 67.625 15.140625 71.796875 
Q 19.390625 75.984375 28.609375 75.984375 
z
" id="DejaVuSans-102"/>
    </defs>
    <g transform="translate(204.72 16.318125)scale(0.12 -0.12)">
     <use xlink:href="#DejaVuSans-68"/>
     <use x="77.001953" xlink:href="#DejaVuSans-97"/>
     <use x="138.28125" xlink:href="#DejaVuSans-105"/>
     <use x="166.064453" xlink:href="#DejaVuSans-108"/>
     <use x="193.847656" xlink:href="#DejaVuSans-121"/>
     <use x="253.027344" xlink:href="#DejaVuSans-32"/>
     <use x="284.814453" xlink:href="#DejaVuSans-110"/>
     <use x="348.193359" xlink:href="#DejaVuSans-101"/>
     <use x="409.716797" xlink:href="#DejaVuSans-119"/>
     <use x="491.503906" xlink:href="#DejaVuSans-32"/>
     <use x="523.291016" xlink:href="#DejaVuSans-99"/>
     <use x="578.271484" xlink:href="#DejaVuSans-97"/>
     <use x="639.550781" xlink:href="#DejaVuSans-115"/>
     <use x="691.650391" xlink:href="#DejaVuSans-101"/>
     <use x="753.173828" xlink:href="#DejaVuSans-115"/>
     <use x="805.273438" xlink:href="#DejaVuSans-32"/>
     <use x="837.060547" xlink:href="#DejaVuSans-97"/>
     <use x="898.339844" xlink:href="#DejaVuSans-115"/>
     <use x="950.439453" xlink:href="#DejaVuSans-32"/>
     <use x="982.226562" xlink:href="#DejaVuSans-111"/>
     <use x="1043.408203" xlink:href="#DejaVuSans-102"/>
     <use x="1078.613281" xlink:href="#DejaVuSans-32"/>
     <use x="1110.400391" xlink:href="#DejaVuSans-50"/>
     <use x="1174.023438" xlink:href="#DejaVuSans-57"/>
     <use x="1237.646484" xlink:href="#DejaVuSans-47"/>
     <use x="1271.337891" xlink:href="#DejaVuSans-48"/>
     <use x="1334.960938" xlink:href="#DejaVuSans-52"/>
     <use x="1398.583984" xlink:href="#DejaVuSans-47"/>
     <use x="1432.275391" xlink:href="#DejaVuSans-50"/>
     <use x="1495.898438" xlink:href="#DejaVuSans-48"/>
     <use x="1559.521484" xlink:href="#DejaVuSans-50"/>
     <use x="1623.144531" xlink:href="#DejaVuSans-48"/>
    </g>
   </g>
   <g id="legend_1">
    <g id="patch_159">
     <path d="M 33.925 397.838125 
L 236.076563 397.838125 
Q 238.076563 397.838125 238.076563 395.838125 
L 238.076563 338.125625 
Q 238.076563 336.125625 236.076563 336.125625 
L 33.925 336.125625 
Q 31.925 336.125625 31.925 338.125625 
L 31.925 395.838125 
Q 31.925 397.838125 33.925 397.838125 
z
" style="fill:#ffffff;opacity:0.8;stroke:#cccccc;stroke-linejoin:miter;"/>
    </g>
    <g id="patch_160">
     <path d="M 35.925 347.724063 
L 55.925 347.724063 
L 55.925 340.724063 
L 35.925 340.724063 
z
" style="fill:#6495ed;"/>
    </g>
    <g id="text_45">
     <!-- Overseas Inflow -->
     <defs>
      <path d="M 39.40625 66.21875 
Q 28.65625 66.21875 22.328125 58.203125 
Q 16.015625 50.203125 16.015625 36.375 
Q 16.015625 22.609375 22.328125 14.59375 
Q 28.65625 6.59375 39.40625 6.59375 
Q 50.140625 6.59375 56.421875 14.59375 
Q 62.703125 22.609375 62.703125 36.375 
Q 62.703125 50.203125 56.421875 58.203125 
Q 50.140625 66.21875 39.40625 66.21875 
z
M 39.40625 74.21875 
Q 54.734375 74.21875 63.90625 63.9375 
Q 73.09375 53.65625 73.09375 36.375 
Q 73.09375 19.140625 63.90625 8.859375 
Q 54.734375 -1.421875 39.40625 -1.421875 
Q 24.03125 -1.421875 14.8125 8.828125 
Q 5.609375 19.09375 5.609375 36.375 
Q 5.609375 53.65625 14.8125 63.9375 
Q 24.03125 74.21875 39.40625 74.21875 
z
" id="DejaVuSans-79"/>
      <path d="M 2.984375 54.6875 
L 12.5 54.6875 
L 29.59375 8.796875 
L 46.6875 54.6875 
L 56.203125 54.6875 
L 35.6875 0 
L 23.484375 0 
z
" id="DejaVuSans-118"/>
      <path d="M 41.109375 46.296875 
Q 39.59375 47.171875 37.8125 47.578125 
Q 36.03125 48 33.890625 48 
Q 26.265625 48 22.1875 43.046875 
Q 18.109375 38.09375 18.109375 28.8125 
L 18.109375 0 
L 9.078125 0 
L 9.078125 54.6875 
L 18.109375 54.6875 
L 18.109375 46.1875 
Q 20.953125 51.171875 25.484375 53.578125 
Q 30.03125 56 36.53125 56 
Q 37.453125 56 38.578125 55.875 
Q 39.703125 55.765625 41.0625 55.515625 
z
" id="DejaVuSans-114"/>
      <path d="M 9.8125 72.90625 
L 19.671875 72.90625 
L 19.671875 0 
L 9.8125 0 
z
" id="DejaVuSans-73"/>
     </defs>
     <g transform="translate(63.925 347.724063)scale(0.1 -0.1)">
      <use xlink:href="#DejaVuSans-79"/>
      <use x="78.710938" xlink:href="#DejaVuSans-118"/>
      <use x="137.890625" xlink:href="#DejaVuSans-101"/>
      <use x="199.414062" xlink:href="#DejaVuSans-114"/>
      <use x="240.527344" xlink:href="#DejaVuSans-115"/>
      <use x="292.626953" xlink:href="#DejaVuSans-101"/>
      <use x="354.150391" xlink:href="#DejaVuSans-97"/>
      <use x="415.429688" xlink:href="#DejaVuSans-115"/>
      <use x="467.529297" xlink:href="#DejaVuSans-32"/>
      <use x="499.316406" xlink:href="#DejaVuSans-73"/>
      <use x="528.808594" xlink:href="#DejaVuSans-110"/>
      <use x="592.1875" xlink:href="#DejaVuSans-102"/>
      <use x="627.392578" xlink:href="#DejaVuSans-108"/>
      <use x="655.175781" xlink:href="#DejaVuSans-111"/>
      <use x="716.357422" xlink:href="#DejaVuSans-119"/>
     </g>
    </g>
    <g id="patch_161">
     <path d="M 35.925 362.402188 
L 55.925 362.402188 
L 55.925 355.402188 
L 35.925 355.402188 
z
" style="fill:#bc8f8f;"/>
    </g>
    <g id="text_46">
     <!-- Local Spread ( Known Contact ) -->
     <defs>
      <path d="M 9.8125 72.90625 
L 19.671875 72.90625 
L 19.671875 8.296875 
L 55.171875 8.296875 
L 55.171875 0 
L 9.8125 0 
z
" id="DejaVuSans-76"/>
      <path d="M 53.515625 70.515625 
L 53.515625 60.890625 
Q 47.90625 63.578125 42.921875 64.890625 
Q 37.9375 66.21875 33.296875 66.21875 
Q 25.25 66.21875 20.875 63.09375 
Q 16.5 59.96875 16.5 54.203125 
Q 16.5 49.359375 19.40625 46.890625 
Q 22.3125 44.4375 30.421875 42.921875 
L 36.375 41.703125 
Q 47.40625 39.59375 52.65625 34.296875 
Q 57.90625 29 57.90625 20.125 
Q 57.90625 9.515625 50.796875 4.046875 
Q 43.703125 -1.421875 29.984375 -1.421875 
Q 24.8125 -1.421875 18.96875 -0.25 
Q 13.140625 0.921875 6.890625 3.21875 
L 6.890625 13.375 
Q 12.890625 10.015625 18.65625 8.296875 
Q 24.421875 6.59375 29.984375 6.59375 
Q 38.421875 6.59375 43.015625 9.90625 
Q 47.609375 13.234375 47.609375 19.390625 
Q 47.609375 24.75 44.3125 27.78125 
Q 41.015625 30.8125 33.5 32.328125 
L 27.484375 33.5 
Q 16.453125 35.6875 11.515625 40.375 
Q 6.59375 45.0625 6.59375 53.421875 
Q 6.59375 63.09375 13.40625 68.65625 
Q 20.21875 74.21875 32.171875 74.21875 
Q 37.3125 74.21875 42.625 73.28125 
Q 47.953125 72.359375 53.515625 70.515625 
z
" id="DejaVuSans-83"/>
      <path d="M 18.109375 8.203125 
L 18.109375 -20.796875 
L 9.078125 -20.796875 
L 9.078125 54.6875 
L 18.109375 54.6875 
L 18.109375 46.390625 
Q 20.953125 51.265625 25.265625 53.625 
Q 29.59375 56 35.59375 56 
Q 45.5625 56 51.78125 48.09375 
Q 58.015625 40.1875 58.015625 27.296875 
Q 58.015625 14.40625 51.78125 6.484375 
Q 45.5625 -1.421875 35.59375 -1.421875 
Q 29.59375 -1.421875 25.265625 0.953125 
Q 20.953125 3.328125 18.109375 8.203125 
z
M 48.6875 27.296875 
Q 48.6875 37.203125 44.609375 42.84375 
Q 40.53125 48.484375 33.40625 48.484375 
Q 26.265625 48.484375 22.1875 42.84375 
Q 18.109375 37.203125 18.109375 27.296875 
Q 18.109375 17.390625 22.1875 11.75 
Q 26.265625 6.109375 33.40625 6.109375 
Q 40.53125 6.109375 44.609375 11.75 
Q 48.6875 17.390625 48.6875 27.296875 
z
" id="DejaVuSans-112"/>
      <path d="M 45.40625 46.390625 
L 45.40625 75.984375 
L 54.390625 75.984375 
L 54.390625 0 
L 45.40625 0 
L 45.40625 8.203125 
Q 42.578125 3.328125 38.25 0.953125 
Q 33.9375 -1.421875 27.875 -1.421875 
Q 17.96875 -1.421875 11.734375 6.484375 
Q 5.515625 14.40625 5.515625 27.296875 
Q 5.515625 40.1875 11.734375 48.09375 
Q 17.96875 56 27.875 56 
Q 33.9375 56 38.25 53.625 
Q 42.578125 51.265625 45.40625 46.390625 
z
M 14.796875 27.296875 
Q 14.796875 17.390625 18.875 11.75 
Q 22.953125 6.109375 30.078125 6.109375 
Q 37.203125 6.109375 41.296875 11.75 
Q 45.40625 17.390625 45.40625 27.296875 
Q 45.40625 37.203125 41.296875 42.84375 
Q 37.203125 48.484375 30.078125 48.484375 
Q 22.953125 48.484375 18.875 42.84375 
Q 14.796875 37.203125 14.796875 27.296875 
z
" id="DejaVuSans-100"/>
      <path d="M 31 75.875 
Q 24.46875 64.65625 21.28125 53.65625 
Q 18.109375 42.671875 18.109375 31.390625 
Q 18.109375 20.125 21.3125 9.0625 
Q 24.515625 -2 31 -13.1875 
L 23.1875 -13.1875 
Q 15.875 -1.703125 12.234375 9.375 
Q 8.59375 20.453125 8.59375 31.390625 
Q 8.59375 42.28125 12.203125 53.3125 
Q 15.828125 64.359375 23.1875 75.875 
z
" id="DejaVuSans-40"/>
      <path d="M 9.8125 72.90625 
L 19.671875 72.90625 
L 19.671875 42.09375 
L 52.390625 72.90625 
L 65.09375 72.90625 
L 28.90625 38.921875 
L 67.671875 0 
L 54.6875 0 
L 19.671875 35.109375 
L 19.671875 0 
L 9.8125 0 
z
" id="DejaVuSans-75"/>
      <path d="M 64.40625 67.28125 
L 64.40625 56.890625 
Q 59.421875 61.53125 53.78125 63.8125 
Q 48.140625 66.109375 41.796875 66.109375 
Q 29.296875 66.109375 22.65625 58.46875 
Q 16.015625 50.828125 16.015625 36.375 
Q 16.015625 21.96875 22.65625 14.328125 
Q 29.296875 6.6875 41.796875 6.6875 
Q 48.140625 6.6875 53.78125 8.984375 
Q 59.421875 11.28125 64.40625 15.921875 
L 64.40625 5.609375 
Q 59.234375 2.09375 53.4375 0.328125 
Q 47.65625 -1.421875 41.21875 -1.421875 
Q 24.65625 -1.421875 15.125 8.703125 
Q 5.609375 18.84375 5.609375 36.375 
Q 5.609375 53.953125 15.125 64.078125 
Q 24.65625 74.21875 41.21875 74.21875 
Q 47.75 74.21875 53.53125 72.484375 
Q 59.328125 70.75 64.40625 67.28125 
z
" id="DejaVuSans-67"/>
      <path d="M 18.3125 70.21875 
L 18.3125 54.6875 
L 36.8125 54.6875 
L 36.8125 47.703125 
L 18.3125 47.703125 
L 18.3125 18.015625 
Q 18.3125 11.328125 20.140625 9.421875 
Q 21.96875 7.515625 27.59375 7.515625 
L 36.8125 7.515625 
L 36.8125 0 
L 27.59375 0 
Q 17.1875 0 13.234375 3.875 
Q 9.28125 7.765625 9.28125 18.015625 
L 9.28125 47.703125 
L 2.6875 47.703125 
L 2.6875 54.6875 
L 9.28125 54.6875 
L 9.28125 70.21875 
z
" id="DejaVuSans-116"/>
      <path d="M 8.015625 75.875 
L 15.828125 75.875 
Q 23.140625 64.359375 26.78125 53.3125 
Q 30.421875 42.28125 30.421875 31.390625 
Q 30.421875 20.453125 26.78125 9.375 
Q 23.140625 -1.703125 15.828125 -13.1875 
L 8.015625 -13.1875 
Q 14.5 -2 17.703125 9.0625 
Q 20.90625 20.125 20.90625 31.390625 
Q 20.90625 42.671875 17.703125 53.65625 
Q 14.5 64.65625 8.015625 75.875 
z
" id="DejaVuSans-41"/>
     </defs>
     <g transform="translate(63.925 362.402188)scale(0.1 -0.1)">
      <use xlink:href="#DejaVuSans-76"/>
      <use x="53.962891" xlink:href="#DejaVuSans-111"/>
      <use x="115.144531" xlink:href="#DejaVuSans-99"/>
      <use x="170.125" xlink:href="#DejaVuSans-97"/>
      <use x="231.404297" xlink:href="#DejaVuSans-108"/>
      <use x="259.1875" xlink:href="#DejaVuSans-32"/>
      <use x="290.974609" xlink:href="#DejaVuSans-83"/>
      <use x="354.451172" xlink:href="#DejaVuSans-112"/>
      <use x="417.927734" xlink:href="#DejaVuSans-114"/>
      <use x="456.791016" xlink:href="#DejaVuSans-101"/>
      <use x="518.314453" xlink:href="#DejaVuSans-97"/>
      <use x="579.59375" xlink:href="#DejaVuSans-100"/>
      <use x="643.070312" xlink:href="#DejaVuSans-32"/>
      <use x="674.857422" xlink:href="#DejaVuSans-40"/>
      <use x="713.871094" xlink:href="#DejaVuSans-32"/>
      <use x="745.658203" xlink:href="#DejaVuSans-75"/>
      <use x="811.234375" xlink:href="#DejaVuSans-110"/>
      <use x="874.613281" xlink:href="#DejaVuSans-111"/>
      <use x="935.794922" xlink:href="#DejaVuSans-119"/>
      <use x="1017.582031" xlink:href="#DejaVuSans-110"/>
      <use x="1080.960938" xlink:href="#DejaVuSans-32"/>
      <use x="1112.748047" xlink:href="#DejaVuSans-67"/>
      <use x="1182.572266" xlink:href="#DejaVuSans-111"/>
      <use x="1243.753906" xlink:href="#DejaVuSans-110"/>
      <use x="1307.132812" xlink:href="#DejaVuSans-116"/>
      <use x="1346.341797" xlink:href="#DejaVuSans-97"/>
      <use x="1407.621094" xlink:href="#DejaVuSans-99"/>
      <use x="1462.601562" xlink:href="#DejaVuSans-116"/>
      <use x="1501.810547" xlink:href="#DejaVuSans-32"/>
      <use x="1533.597656" xlink:href="#DejaVuSans-41"/>
     </g>
    </g>
    <g id="patch_162">
     <path d="M 35.925 377.080313 
L 55.925 377.080313 
L 55.925 370.080313 
L 35.925 370.080313 
z
" style="fill:#ff7f50;"/>
    </g>
    <g id="text_47">
     <!-- Local Spread ( Contact Blinded ) -->
     <defs>
      <path d="M 19.671875 34.8125 
L 19.671875 8.109375 
L 35.5 8.109375 
Q 43.453125 8.109375 47.28125 11.40625 
Q 51.125 14.703125 51.125 21.484375 
Q 51.125 28.328125 47.28125 31.5625 
Q 43.453125 34.8125 35.5 34.8125 
z
M 19.671875 64.796875 
L 19.671875 42.828125 
L 34.28125 42.828125 
Q 41.5 42.828125 45.03125 45.53125 
Q 48.578125 48.25 48.578125 53.8125 
Q 48.578125 59.328125 45.03125 62.0625 
Q 41.5 64.796875 34.28125 64.796875 
z
M 9.8125 72.90625 
L 35.015625 72.90625 
Q 46.296875 72.90625 52.390625 68.21875 
Q 58.5 63.53125 58.5 54.890625 
Q 58.5 48.1875 55.375 44.234375 
Q 52.25 40.28125 46.1875 39.3125 
Q 53.46875 37.75 57.5 32.78125 
Q 61.53125 27.828125 61.53125 20.40625 
Q 61.53125 10.640625 54.890625 5.3125 
Q 48.25 0 35.984375 0 
L 9.8125 0 
z
" id="DejaVuSans-66"/>
     </defs>
     <g transform="translate(63.925 377.080313)scale(0.1 -0.1)">
      <use xlink:href="#DejaVuSans-76"/>
      <use x="53.962891" xlink:href="#DejaVuSans-111"/>
      <use x="115.144531" xlink:href="#DejaVuSans-99"/>
      <use x="170.125" xlink:href="#DejaVuSans-97"/>
      <use x="231.404297" xlink:href="#DejaVuSans-108"/>
      <use x="259.1875" xlink:href="#DejaVuSans-32"/>
      <use x="290.974609" xlink:href="#DejaVuSans-83"/>
      <use x="354.451172" xlink:href="#DejaVuSans-112"/>
      <use x="417.927734" xlink:href="#DejaVuSans-114"/>
      <use x="456.791016" xlink:href="#DejaVuSans-101"/>
      <use x="518.314453" xlink:href="#DejaVuSans-97"/>
      <use x="579.59375" xlink:href="#DejaVuSans-100"/>
      <use x="643.070312" xlink:href="#DejaVuSans-32"/>
      <use x="674.857422" xlink:href="#DejaVuSans-40"/>
      <use x="713.871094" xlink:href="#DejaVuSans-32"/>
      <use x="745.658203" xlink:href="#DejaVuSans-67"/>
      <use x="815.482422" xlink:href="#DejaVuSans-111"/>
      <use x="876.664062" xlink:href="#DejaVuSans-110"/>
      <use x="940.042969" xlink:href="#DejaVuSans-116"/>
      <use x="979.251953" xlink:href="#DejaVuSans-97"/>
      <use x="1040.53125" xlink:href="#DejaVuSans-99"/>
      <use x="1095.511719" xlink:href="#DejaVuSans-116"/>
      <use x="1134.720703" xlink:href="#DejaVuSans-32"/>
      <use x="1166.507812" xlink:href="#DejaVuSans-66"/>
      <use x="1235.111328" xlink:href="#DejaVuSans-108"/>
      <use x="1262.894531" xlink:href="#DejaVuSans-105"/>
      <use x="1290.677734" xlink:href="#DejaVuSans-110"/>
      <use x="1354.056641" xlink:href="#DejaVuSans-100"/>
      <use x="1417.533203" xlink:href="#DejaVuSans-101"/>
      <use x="1479.056641" xlink:href="#DejaVuSans-100"/>
      <use x="1542.533203" xlink:href="#DejaVuSans-32"/>
      <use x="1574.320312" xlink:href="#DejaVuSans-41"/>
     </g>
    </g>
    <g id="patch_163">
     <path d="M 35.925 391.758438 
L 55.925 391.758438 
L 55.925 384.758438 
L 35.925 384.758438 
z
" style="fill:#b22222;"/>
    </g>
    <g id="text_48">
     <!-- Local Spread ( Unknown Contact ) -->
     <defs>
      <path d="M 8.6875 72.90625 
L 18.609375 72.90625 
L 18.609375 28.609375 
Q 18.609375 16.890625 22.84375 11.734375 
Q 27.09375 6.59375 36.625 6.59375 
Q 46.09375 6.59375 50.34375 11.734375 
Q 54.59375 16.890625 54.59375 28.609375 
L 54.59375 72.90625 
L 64.5 72.90625 
L 64.5 27.390625 
Q 64.5 13.140625 57.4375 5.859375 
Q 50.390625 -1.421875 36.625 -1.421875 
Q 22.796875 -1.421875 15.734375 5.859375 
Q 8.6875 13.140625 8.6875 27.390625 
z
" id="DejaVuSans-85"/>
      <path d="M 9.078125 75.984375 
L 18.109375 75.984375 
L 18.109375 31.109375 
L 44.921875 54.6875 
L 56.390625 54.6875 
L 27.390625 29.109375 
L 57.625 0 
L 45.90625 0 
L 18.109375 26.703125 
L 18.109375 0 
L 9.078125 0 
z
" id="DejaVuSans-107"/>
     </defs>
     <g transform="translate(63.925 391.758438)scale(0.1 -0.1)">
      <use xlink:href="#DejaVuSans-76"/>
      <use x="53.962891" xlink:href="#DejaVuSans-111"/>
      <use x="115.144531" xlink:href="#DejaVuSans-99"/>
      <use x="170.125" xlink:href="#DejaVuSans-97"/>
      <use x="231.404297" xlink:href="#DejaVuSans-108"/>
      <use x="259.1875" xlink:href="#DejaVuSans-32"/>
      <use x="290.974609" xlink:href="#DejaVuSans-83"/>
      <use x="354.451172" xlink:href="#DejaVuSans-112"/>
      <use x="417.927734" xlink:href="#DejaVuSans-114"/>
      <use x="456.791016" xlink:href="#DejaVuSans-101"/>
      <use x="518.314453" xlink:href="#DejaVuSans-97"/>
      <use x="579.59375" xlink:href="#DejaVuSans-100"/>
      <use x="643.070312" xlink:href="#DejaVuSans-32"/>
      <use x="674.857422" xlink:href="#DejaVuSans-40"/>
      <use x="713.871094" xlink:href="#DejaVuSans-32"/>
      <use x="745.658203" xlink:href="#DejaVuSans-85"/>
      <use x="818.851562" xlink:href="#DejaVuSans-110"/>
      <use x="882.230469" xlink:href="#DejaVuSans-107"/>
      <use x="940.140625" xlink:href="#DejaVuSans-110"/>
      <use x="1003.519531" xlink:href="#DejaVuSans-111"/>
      <use x="1064.701172" xlink:href="#DejaVuSans-119"/>
      <use x="1146.488281" xlink:href="#DejaVuSans-110"/>
      <use x="1209.867188" xlink:href="#DejaVuSans-32"/>
      <use x="1241.654297" xlink:href="#DejaVuSans-67"/>
      <use x="1311.478516" xlink:href="#DejaVuSans-111"/>
      <use x="1372.660156" xlink:href="#DejaVuSans-110"/>
      <use x="1436.039062" xlink:href="#DejaVuSans-116"/>
      <use x="1475.248047" xlink:href="#DejaVuSans-97"/>
      <use x="1536.527344" xlink:href="#DejaVuSans-99"/>
      <use x="1591.507812" xlink:href="#DejaVuSans-116"/>
      <use x="1630.716797" xlink:href="#DejaVuSans-32"/>
      <use x="1662.503906" xlink:href="#DejaVuSans-41"/>
     </g>
    </g>
   </g>
  </g>
 </g>
 <defs>
  <clipPath id="p24b7cec156">
   <rect height="271.8" width="558" x="26.925" y="22.318125"/>
  </clipPath>
 </defs>
</svg>
