<?xml version="1.0" encoding="utf-8" standalone="no"?>
<!DOCTYPE svg PUBLIC "-//W3C//DTD SVG 1.1//EN"
  "http://www.w3.org/Graphics/SVG/1.1/DTD/svg11.dtd">
<!-- Created with matplotlib (https://matplotlib.org/) -->
<svg height="349.032188pt" version="1.1" viewBox="0 0 962.465625 349.032188" width="962.465625pt" xmlns="http://www.w3.org/2000/svg" xmlns:xlink="http://www.w3.org/1999/xlink">
 <defs>
  <style type="text/css">
*{stroke-linecap:butt;stroke-linejoin:round;}
  </style>
 </defs>
 <g id="figure_1">
  <g id="patch_1">
   <path d="M 0 349.032188 
L 962.465625 349.032188 
L 962.465625 0 
L 0 0 
z
" style="fill:#ffffff;"/>
  </g>
  <g id="axes_1">
   <g id="patch_2">
    <path d="M 40.603125 294.118125 
L 598.603125 294.118125 
L 598.603125 22.318125 
L 40.603125 22.318125 
z
" style="fill:#ffffff;"/>
   </g>
   <g id="matplotlib.axis_1">
    <g id="xtick_1">
     <g id="line2d_1">
      <path clip-path="url(#pa04fee2c21)" d="M 72.554719 294.118125 
L 72.554719 22.318125 
" style="fill:none;stroke:#c0c0c0;stroke-dasharray:0.5,0.825;stroke-dashoffset:0;stroke-width:0.5;"/>
     </g>
     <g id="line2d_2">
      <defs>
       <path d="M 0 0 
L 0 3.5 
" id="md84b6fbd8b" style="stroke:#000000;stroke-width:0.8;"/>
      </defs>
      <g>
       <use style="stroke:#000000;stroke-width:0.8;" x="72.554719" xlink:href="#md84b6fbd8b" y="294.118125"/>
      </g>
     </g>
     <g id="text_1">
      <!-- case_1 -->
      <defs>
       <path d="M 48.78125 52.59375 
L 48.78125 44.1875 
Q 44.96875 46.296875 41.140625 47.34375 
Q 37.3125 48.390625 33.40625 48.390625 
Q 24.65625 48.390625 19.8125 42.84375 
Q 14.984375 37.3125 14.984375 27.296875 
Q 14.984375 17.28125 19.8125 11.734375 
Q 24.65625 6.203125 33.40625 6.203125 
Q 37.3125 6.203125 41.140625 7.25 
Q 44.96875 8.296875 48.78125 10.40625 
L 48.78125 2.09375 
Q 45.015625 0.34375 40.984375 -0.53125 
Q 36.96875 -1.421875 32.421875 -1.421875 
Q 20.0625 -1.421875 12.78125 6.34375 
Q 5.515625 14.109375 5.515625 27.296875 
Q 5.515625 40.671875 12.859375 48.328125 
Q 20.21875 56 33.015625 56 
Q 37.15625 56 41.109375 55.140625 
Q 45.0625 54.296875 48.78125 52.59375 
z
" id="DejaVuSans-99"/>
       <path d="M 34.28125 27.484375 
Q 23.390625 27.484375 19.1875 25 
Q 14.984375 22.515625 14.984375 16.5 
Q 14.984375 11.71875 18.140625 8.90625 
Q 21.296875 6.109375 26.703125 6.109375 
Q 34.1875 6.109375 38.703125 11.40625 
Q 43.21875 16.703125 43.21875 25.484375 
L 43.21875 27.484375 
z
M 52.203125 31.203125 
L 52.203125 0 
L 43.21875 0 
L 43.21875 8.296875 
Q 40.140625 3.328125 35.546875 0.953125 
Q 30.953125 -1.421875 24.3125 -1.421875 
Q 15.921875 -1.421875 10.953125 3.296875 
Q 6 8.015625 6 15.921875 
Q 6 25.140625 12.171875 29.828125 
Q 18.359375 34.515625 30.609375 34.515625 
L 43.21875 34.515625 
L 43.21875 35.40625 
Q 43.21875 41.609375 39.140625 45 
Q 35.0625 48.390625 27.6875 48.390625 
Q 23 48.390625 18.546875 47.265625 
Q 14.109375 46.140625 10.015625 43.890625 
L 10.015625 52.203125 
Q 14.9375 54.109375 19.578125 55.046875 
Q 24.21875 56 28.609375 56 
Q 40.484375 56 46.34375 49.84375 
Q 52.203125 43.703125 52.203125 31.203125 
z
" id="DejaVuSans-97"/>
       <path d="M 44.28125 53.078125 
L 44.28125 44.578125 
Q 40.484375 46.53125 36.375 47.5 
Q 32.28125 48.484375 27.875 48.484375 
Q 21.1875 48.484375 17.84375 46.4375 
Q 14.5 44.390625 14.5 40.28125 
Q 14.5 37.15625 16.890625 35.375 
Q 19.28125 33.59375 26.515625 31.984375 
L 29.59375 31.296875 
Q 39.15625 29.25 43.1875 25.515625 
Q 47.21875 21.78125 47.21875 15.09375 
Q 47.21875 7.46875 41.1875 3.015625 
Q 35.15625 -1.421875 24.609375 -1.421875 
Q 20.21875 -1.421875 15.453125 -0.5625 
Q 10.6875 0.296875 5.421875 2 
L 5.421875 11.28125 
Q 10.40625 8.6875 15.234375 7.390625 
Q 20.0625 6.109375 24.8125 6.109375 
Q 31.15625 6.109375 34.5625 8.28125 
Q 37.984375 10.453125 37.984375 14.40625 
Q 37.984375 18.0625 35.515625 20.015625 
Q 33.0625 21.96875 24.703125 23.78125 
L 21.578125 24.515625 
Q 13.234375 26.265625 9.515625 29.90625 
Q 5.8125 33.546875 5.8125 39.890625 
Q 5.8125 47.609375 11.28125 51.796875 
Q 16.75 56 26.8125 56 
Q 31.78125 56 36.171875 55.265625 
Q 40.578125 54.546875 44.28125 53.078125 
z
" id="DejaVuSans-115"/>
       <path d="M 56.203125 29.59375 
L 56.203125 25.203125 
L 14.890625 25.203125 
Q 15.484375 15.921875 20.484375 11.0625 
Q 25.484375 6.203125 34.421875 6.203125 
Q 39.59375 6.203125 44.453125 7.46875 
Q 49.3125 8.734375 54.109375 11.28125 
L 54.109375 2.78125 
Q 49.265625 0.734375 44.1875 -0.34375 
Q 39.109375 -1.421875 33.890625 -1.421875 
Q 20.796875 -1.421875 13.15625 6.1875 
Q 5.515625 13.8125 5.515625 26.8125 
Q 5.515625 40.234375 12.765625 48.109375 
Q 20.015625 56 32.328125 56 
Q 43.359375 56 49.78125 48.890625 
Q 56.203125 41.796875 56.203125 29.59375 
z
M 47.21875 32.234375 
Q 47.125 39.59375 43.09375 43.984375 
Q 39.0625 48.390625 32.421875 48.390625 
Q 24.90625 48.390625 20.390625 44.140625 
Q 15.875 39.890625 15.1875 32.171875 
z
" id="DejaVuSans-101"/>
       <path d="M 50.984375 -16.609375 
L 50.984375 -23.578125 
L -0.984375 -23.578125 
L -0.984375 -16.609375 
z
" id="DejaVuSans-95"/>
       <path d="M 12.40625 8.296875 
L 28.515625 8.296875 
L 28.515625 63.921875 
L 10.984375 60.40625 
L 10.984375 69.390625 
L 28.421875 72.90625 
L 38.28125 72.90625 
L 38.28125 8.296875 
L 54.390625 8.296875 
L 54.390625 0 
L 12.40625 0 
z
" id="DejaVuSans-49"/>
      </defs>
      <g transform="translate(75.035969 335.469688)rotate(-90)scale(0.1 -0.1)">
       <use xlink:href="#DejaVuSans-99"/>
       <use x="54.980469" xlink:href="#DejaVuSans-97"/>
       <use x="116.259766" xlink:href="#DejaVuSans-115"/>
       <use x="168.359375" xlink:href="#DejaVuSans-101"/>
       <use x="229.882812" xlink:href="#DejaVuSans-95"/>
       <use x="279.882812" xlink:href="#DejaVuSans-49"/>
      </g>
     </g>
    </g>
    <g id="xtick_2">
     <g id="line2d_3">
      <path clip-path="url(#pa04fee2c21)" d="M 89.024613 294.118125 
L 89.024613 22.318125 
" style="fill:none;stroke:#c0c0c0;stroke-dasharray:0.5,0.825;stroke-dashoffset:0;stroke-width:0.5;"/>
     </g>
     <g id="line2d_4">
      <g>
       <use style="stroke:#000000;stroke-width:0.8;" x="89.024613" xlink:href="#md84b6fbd8b" y="294.118125"/>
      </g>
     </g>
     <g id="text_2">
      <!-- case_2 -->
      <defs>
       <path d="M 19.1875 8.296875 
L 53.609375 8.296875 
L 53.609375 0 
L 7.328125 0 
L 7.328125 8.296875 
Q 12.9375 14.109375 22.625 23.890625 
Q 32.328125 33.6875 34.8125 36.53125 
Q 39.546875 41.84375 41.421875 45.53125 
Q 43.3125 49.21875 43.3125 52.78125 
Q 43.3125 58.59375 39.234375 62.25 
Q 35.15625 65.921875 28.609375 65.921875 
Q 23.96875 65.921875 18.8125 64.3125 
Q 13.671875 62.703125 7.8125 59.421875 
L 7.8125 69.390625 
Q 13.765625 71.78125 18.9375 73 
Q 24.125 74.21875 28.421875 74.21875 
Q 39.75 74.21875 46.484375 68.546875 
Q 53.21875 62.890625 53.21875 53.421875 
Q 53.21875 48.921875 51.53125 44.890625 
Q 49.859375 40.875 45.40625 35.40625 
Q 44.1875 33.984375 37.640625 27.21875 
Q 31.109375 20.453125 19.1875 8.296875 
z
" id="DejaVuSans-50"/>
      </defs>
      <g transform="translate(91.556644 335.469688)rotate(-90)scale(0.1 -0.1)">
       <use xlink:href="#DejaVuSans-99"/>
       <use x="54.980469" xlink:href="#DejaVuSans-97"/>
       <use x="116.259766" xlink:href="#DejaVuSans-115"/>
       <use x="168.359375" xlink:href="#DejaVuSans-101"/>
       <use x="229.882812" xlink:href="#DejaVuSans-95"/>
       <use x="279.882812" xlink:href="#DejaVuSans-50"/>
      </g>
     </g>
    </g>
    <g id="xtick_3">
     <g id="line2d_5">
      <path clip-path="url(#pa04fee2c21)" d="M 105.494506 294.118125 
L 105.494506 22.318125 
" style="fill:none;stroke:#c0c0c0;stroke-dasharray:0.5,0.825;stroke-dashoffset:0;stroke-width:0.5;"/>
     </g>
     <g id="line2d_6">
      <g>
       <use style="stroke:#000000;stroke-width:0.8;" x="105.494506" xlink:href="#md84b6fbd8b" y="294.118125"/>
      </g>
     </g>
     <g id="text_3">
      <!-- case_3 -->
      <defs>
       <path d="M 40.578125 39.3125 
Q 47.65625 37.796875 51.625 33 
Q 55.609375 28.21875 55.609375 21.1875 
Q 55.609375 10.40625 48.1875 4.484375 
Q 40.765625 -1.421875 27.09375 -1.421875 
Q 22.515625 -1.421875 17.65625 -0.515625 
Q 12.796875 0.390625 7.625 2.203125 
L 7.625 11.71875 
Q 11.71875 9.328125 16.59375 8.109375 
Q 21.484375 6.890625 26.8125 6.890625 
Q 36.078125 6.890625 40.9375 10.546875 
Q 45.796875 14.203125 45.796875 21.1875 
Q 45.796875 27.640625 41.28125 31.265625 
Q 36.765625 34.90625 28.71875 34.90625 
L 20.21875 34.90625 
L 20.21875 43.015625 
L 29.109375 43.015625 
Q 36.375 43.015625 40.234375 45.921875 
Q 44.09375 48.828125 44.09375 54.296875 
Q 44.09375 59.90625 40.109375 62.90625 
Q 36.140625 65.921875 28.71875 65.921875 
Q 24.65625 65.921875 20.015625 65.03125 
Q 15.375 64.15625 9.8125 62.3125 
L 9.8125 71.09375 
Q 15.4375 72.65625 20.34375 73.4375 
Q 25.25 74.21875 29.59375 74.21875 
Q 40.828125 74.21875 47.359375 69.109375 
Q 53.90625 64.015625 53.90625 55.328125 
Q 53.90625 49.265625 50.4375 45.09375 
Q 46.96875 40.921875 40.578125 39.3125 
z
" id="DejaVuSans-51"/>
      </defs>
      <g transform="translate(108.026538 335.469688)rotate(-90)scale(0.1 -0.1)">
       <use xlink:href="#DejaVuSans-99"/>
       <use x="54.980469" xlink:href="#DejaVuSans-97"/>
       <use x="116.259766" xlink:href="#DejaVuSans-115"/>
       <use x="168.359375" xlink:href="#DejaVuSans-101"/>
       <use x="229.882812" xlink:href="#DejaVuSans-95"/>
       <use x="279.882812" xlink:href="#DejaVuSans-51"/>
      </g>
     </g>
    </g>
    <g id="xtick_4">
     <g id="line2d_7">
      <path clip-path="url(#pa04fee2c21)" d="M 121.9644 294.118125 
L 121.9644 22.318125 
" style="fill:none;stroke:#c0c0c0;stroke-dasharray:0.5,0.825;stroke-dashoffset:0;stroke-width:0.5;"/>
     </g>
     <g id="line2d_8">
      <g>
       <use style="stroke:#000000;stroke-width:0.8;" x="121.9644" xlink:href="#md84b6fbd8b" y="294.118125"/>
      </g>
     </g>
     <g id="text_4">
      <!-- case_4 -->
      <defs>
       <path d="M 37.796875 64.3125 
L 12.890625 25.390625 
L 37.796875 25.390625 
z
M 35.203125 72.90625 
L 47.609375 72.90625 
L 47.609375 25.390625 
L 58.015625 25.390625 
L 58.015625 17.1875 
L 47.609375 17.1875 
L 47.609375 0 
L 37.796875 0 
L 37.796875 17.1875 
L 4.890625 17.1875 
L 4.890625 26.703125 
z
" id="DejaVuSans-52"/>
      </defs>
      <g transform="translate(124.44565 335.469688)rotate(-90)scale(0.1 -0.1)">
       <use xlink:href="#DejaVuSans-99"/>
       <use x="54.980469" xlink:href="#DejaVuSans-97"/>
       <use x="116.259766" xlink:href="#DejaVuSans-115"/>
       <use x="168.359375" xlink:href="#DejaVuSans-101"/>
       <use x="229.882812" xlink:href="#DejaVuSans-95"/>
       <use x="279.882812" xlink:href="#DejaVuSans-52"/>
      </g>
     </g>
    </g>
    <g id="xtick_5">
     <g id="line2d_9">
      <path clip-path="url(#pa04fee2c21)" d="M 138.434294 294.118125 
L 138.434294 22.318125 
" style="fill:none;stroke:#c0c0c0;stroke-dasharray:0.5,0.825;stroke-dashoffset:0;stroke-width:0.5;"/>
     </g>
     <g id="line2d_10">
      <g>
       <use style="stroke:#000000;stroke-width:0.8;" x="138.434294" xlink:href="#md84b6fbd8b" y="294.118125"/>
      </g>
     </g>
     <g id="text_5">
      <!-- case_5 -->
      <defs>
       <path d="M 10.796875 72.90625 
L 49.515625 72.90625 
L 49.515625 64.59375 
L 19.828125 64.59375 
L 19.828125 46.734375 
Q 21.96875 47.46875 24.109375 47.828125 
Q 26.265625 48.1875 28.421875 48.1875 
Q 40.625 48.1875 47.75 41.5 
Q 54.890625 34.8125 54.890625 23.390625 
Q 54.890625 11.625 47.5625 5.09375 
Q 40.234375 -1.421875 26.90625 -1.421875 
Q 22.3125 -1.421875 17.546875 -0.640625 
Q 12.796875 0.140625 7.71875 1.703125 
L 7.71875 11.625 
Q 12.109375 9.234375 16.796875 8.0625 
Q 21.484375 6.890625 26.703125 6.890625 
Q 35.15625 6.890625 40.078125 11.328125 
Q 45.015625 15.765625 45.015625 23.390625 
Q 45.015625 31 40.078125 35.4375 
Q 35.15625 39.890625 26.703125 39.890625 
Q 22.75 39.890625 18.8125 39.015625 
Q 14.890625 38.140625 10.796875 36.28125 
z
" id="DejaVuSans-53"/>
      </defs>
      <g transform="translate(140.915544 335.469688)rotate(-90)scale(0.1 -0.1)">
       <use xlink:href="#DejaVuSans-99"/>
       <use x="54.980469" xlink:href="#DejaVuSans-97"/>
       <use x="116.259766" xlink:href="#DejaVuSans-115"/>
       <use x="168.359375" xlink:href="#DejaVuSans-101"/>
       <use x="229.882812" xlink:href="#DejaVuSans-95"/>
       <use x="279.882812" xlink:href="#DejaVuSans-53"/>
      </g>
     </g>
    </g>
    <g id="xtick_6">
     <g id="line2d_11">
      <path clip-path="url(#pa04fee2c21)" d="M 154.904188 294.118125 
L 154.904188 22.318125 
" style="fill:none;stroke:#c0c0c0;stroke-dasharray:0.5,0.825;stroke-dashoffset:0;stroke-width:0.5;"/>
     </g>
     <g id="line2d_12">
      <g>
       <use style="stroke:#000000;stroke-width:0.8;" x="154.904188" xlink:href="#md84b6fbd8b" y="294.118125"/>
      </g>
     </g>
     <g id="text_6">
      <!-- case_6 -->
      <defs>
       <path d="M 33.015625 40.375 
Q 26.375 40.375 22.484375 35.828125 
Q 18.609375 31.296875 18.609375 23.390625 
Q 18.609375 15.53125 22.484375 10.953125 
Q 26.375 6.390625 33.015625 6.390625 
Q 39.65625 6.390625 43.53125 10.953125 
Q 47.40625 15.53125 47.40625 23.390625 
Q 47.40625 31.296875 43.53125 35.828125 
Q 39.65625 40.375 33.015625 40.375 
z
M 52.59375 71.296875 
L 52.59375 62.3125 
Q 48.875 64.0625 45.09375 64.984375 
Q 41.3125 65.921875 37.59375 65.921875 
Q 27.828125 65.921875 22.671875 59.328125 
Q 17.53125 52.734375 16.796875 39.40625 
Q 19.671875 43.65625 24.015625 45.921875 
Q 28.375 48.1875 33.59375 48.1875 
Q 44.578125 48.1875 50.953125 41.515625 
Q 57.328125 34.859375 57.328125 23.390625 
Q 57.328125 12.15625 50.6875 5.359375 
Q 44.046875 -1.421875 33.015625 -1.421875 
Q 20.359375 -1.421875 13.671875 8.265625 
Q 6.984375 17.96875 6.984375 36.375 
Q 6.984375 53.65625 15.1875 63.9375 
Q 23.390625 74.21875 37.203125 74.21875 
Q 40.921875 74.21875 44.703125 73.484375 
Q 48.484375 72.75 52.59375 71.296875 
z
" id="DejaVuSans-54"/>
      </defs>
      <g transform="translate(157.436219 335.469688)rotate(-90)scale(0.1 -0.1)">
       <use xlink:href="#DejaVuSans-99"/>
       <use x="54.980469" xlink:href="#DejaVuSans-97"/>
       <use x="116.259766" xlink:href="#DejaVuSans-115"/>
       <use x="168.359375" xlink:href="#DejaVuSans-101"/>
       <use x="229.882812" xlink:href="#DejaVuSans-95"/>
       <use x="279.882812" xlink:href="#DejaVuSans-54"/>
      </g>
     </g>
    </g>
    <g id="xtick_7">
     <g id="line2d_13">
      <path clip-path="url(#pa04fee2c21)" d="M 171.374081 294.118125 
L 171.374081 22.318125 
" style="fill:none;stroke:#c0c0c0;stroke-dasharray:0.5,0.825;stroke-dashoffset:0;stroke-width:0.5;"/>
     </g>
     <g id="line2d_14">
      <g>
       <use style="stroke:#000000;stroke-width:0.8;" x="171.374081" xlink:href="#md84b6fbd8b" y="294.118125"/>
      </g>
     </g>
     <g id="text_7">
      <!-- case_7 -->
      <defs>
       <path d="M 8.203125 72.90625 
L 55.078125 72.90625 
L 55.078125 68.703125 
L 28.609375 0 
L 18.3125 0 
L 43.21875 64.59375 
L 8.203125 64.59375 
z
" id="DejaVuSans-55"/>
      </defs>
      <g transform="translate(173.855331 335.469688)rotate(-90)scale(0.1 -0.1)">
       <use xlink:href="#DejaVuSans-99"/>
       <use x="54.980469" xlink:href="#DejaVuSans-97"/>
       <use x="116.259766" xlink:href="#DejaVuSans-115"/>
       <use x="168.359375" xlink:href="#DejaVuSans-101"/>
       <use x="229.882812" xlink:href="#DejaVuSans-95"/>
       <use x="279.882812" xlink:href="#DejaVuSans-55"/>
      </g>
     </g>
    </g>
    <g id="xtick_8">
     <g id="line2d_15">
      <path clip-path="url(#pa04fee2c21)" d="M 187.843975 294.118125 
L 187.843975 22.318125 
" style="fill:none;stroke:#c0c0c0;stroke-dasharray:0.5,0.825;stroke-dashoffset:0;stroke-width:0.5;"/>
     </g>
     <g id="line2d_16">
      <g>
       <use style="stroke:#000000;stroke-width:0.8;" x="187.843975" xlink:href="#md84b6fbd8b" y="294.118125"/>
      </g>
     </g>
     <g id="text_8">
      <!-- case_8 -->
      <defs>
       <path d="M 31.78125 34.625 
Q 24.75 34.625 20.71875 30.859375 
Q 16.703125 27.09375 16.703125 20.515625 
Q 16.703125 13.921875 20.71875 10.15625 
Q 24.75 6.390625 31.78125 6.390625 
Q 38.8125 6.390625 42.859375 10.171875 
Q 46.921875 13.96875 46.921875 20.515625 
Q 46.921875 27.09375 42.890625 30.859375 
Q 38.875 34.625 31.78125 34.625 
z
M 21.921875 38.8125 
Q 15.578125 40.375 12.03125 44.71875 
Q 8.5 49.078125 8.5 55.328125 
Q 8.5 64.0625 14.71875 69.140625 
Q 20.953125 74.21875 31.78125 74.21875 
Q 42.671875 74.21875 48.875 69.140625 
Q 55.078125 64.0625 55.078125 55.328125 
Q 55.078125 49.078125 51.53125 44.71875 
Q 48 40.375 41.703125 38.8125 
Q 48.828125 37.15625 52.796875 32.3125 
Q 56.78125 27.484375 56.78125 20.515625 
Q 56.78125 9.90625 50.3125 4.234375 
Q 43.84375 -1.421875 31.78125 -1.421875 
Q 19.734375 -1.421875 13.25 4.234375 
Q 6.78125 9.90625 6.78125 20.515625 
Q 6.78125 27.484375 10.78125 32.3125 
Q 14.796875 37.15625 21.921875 38.8125 
z
M 18.3125 54.390625 
Q 18.3125 48.734375 21.84375 45.5625 
Q 25.390625 42.390625 31.78125 42.390625 
Q 38.140625 42.390625 41.71875 45.5625 
Q 45.3125 48.734375 45.3125 54.390625 
Q 45.3125 60.0625 41.71875 63.234375 
Q 38.140625 66.40625 31.78125 66.40625 
Q 25.390625 66.40625 21.84375 63.234375 
Q 18.3125 60.0625 18.3125 54.390625 
z
" id="DejaVuSans-56"/>
      </defs>
      <g transform="translate(190.376006 335.469688)rotate(-90)scale(0.1 -0.1)">
       <use xlink:href="#DejaVuSans-99"/>
       <use x="54.980469" xlink:href="#DejaVuSans-97"/>
       <use x="116.259766" xlink:href="#DejaVuSans-115"/>
       <use x="168.359375" xlink:href="#DejaVuSans-101"/>
       <use x="229.882812" xlink:href="#DejaVuSans-95"/>
       <use x="279.882812" xlink:href="#DejaVuSans-56"/>
      </g>
     </g>
    </g>
    <g id="xtick_9">
     <g id="line2d_17">
      <path clip-path="url(#pa04fee2c21)" d="M 204.313869 294.118125 
L 204.313869 22.318125 
" style="fill:none;stroke:#c0c0c0;stroke-dasharray:0.5,0.825;stroke-dashoffset:0;stroke-width:0.5;"/>
     </g>
     <g id="line2d_18">
      <g>
       <use style="stroke:#000000;stroke-width:0.8;" x="204.313869" xlink:href="#md84b6fbd8b" y="294.118125"/>
      </g>
     </g>
     <g id="text_9">
      <!-- case_9 -->
      <defs>
       <path d="M 10.984375 1.515625 
L 10.984375 10.5 
Q 14.703125 8.734375 18.5 7.8125 
Q 22.3125 6.890625 25.984375 6.890625 
Q 35.75 6.890625 40.890625 13.453125 
Q 46.046875 20.015625 46.78125 33.40625 
Q 43.953125 29.203125 39.59375 26.953125 
Q 35.25 24.703125 29.984375 24.703125 
Q 19.046875 24.703125 12.671875 31.3125 
Q 6.296875 37.9375 6.296875 49.421875 
Q 6.296875 60.640625 12.9375 67.421875 
Q 19.578125 74.21875 30.609375 74.21875 
Q 43.265625 74.21875 49.921875 64.515625 
Q 56.59375 54.828125 56.59375 36.375 
Q 56.59375 19.140625 48.40625 8.859375 
Q 40.234375 -1.421875 26.421875 -1.421875 
Q 22.703125 -1.421875 18.890625 -0.6875 
Q 15.09375 0.046875 10.984375 1.515625 
z
M 30.609375 32.421875 
Q 37.25 32.421875 41.125 36.953125 
Q 45.015625 41.5 45.015625 49.421875 
Q 45.015625 57.28125 41.125 61.84375 
Q 37.25 66.40625 30.609375 66.40625 
Q 23.96875 66.40625 20.09375 61.84375 
Q 16.21875 57.28125 16.21875 49.421875 
Q 16.21875 41.5 20.09375 36.953125 
Q 23.96875 32.421875 30.609375 32.421875 
z
" id="DejaVuSans-57"/>
      </defs>
      <g transform="translate(206.8459 335.469688)rotate(-90)scale(0.1 -0.1)">
       <use xlink:href="#DejaVuSans-99"/>
       <use x="54.980469" xlink:href="#DejaVuSans-97"/>
       <use x="116.259766" xlink:href="#DejaVuSans-115"/>
       <use x="168.359375" xlink:href="#DejaVuSans-101"/>
       <use x="229.882812" xlink:href="#DejaVuSans-95"/>
       <use x="279.882812" xlink:href="#DejaVuSans-57"/>
      </g>
     </g>
    </g>
    <g id="xtick_10">
     <g id="line2d_19">
      <path clip-path="url(#pa04fee2c21)" d="M 220.783763 294.118125 
L 220.783763 22.318125 
" style="fill:none;stroke:#c0c0c0;stroke-dasharray:0.5,0.825;stroke-dashoffset:0;stroke-width:0.5;"/>
     </g>
     <g id="line2d_20">
      <g>
       <use style="stroke:#000000;stroke-width:0.8;" x="220.783763" xlink:href="#md84b6fbd8b" y="294.118125"/>
      </g>
     </g>
     <g id="text_10">
      <!-- case_10 -->
      <defs>
       <path d="M 31.78125 66.40625 
Q 24.171875 66.40625 20.328125 58.90625 
Q 16.5 51.421875 16.5 36.375 
Q 16.5 21.390625 20.328125 13.890625 
Q 24.171875 6.390625 31.78125 6.390625 
Q 39.453125 6.390625 43.28125 13.890625 
Q 47.125 21.390625 47.125 36.375 
Q 47.125 51.421875 43.28125 58.90625 
Q 39.453125 66.40625 31.78125 66.40625 
z
M 31.78125 74.21875 
Q 44.046875 74.21875 50.515625 64.515625 
Q 56.984375 54.828125 56.984375 36.375 
Q 56.984375 17.96875 50.515625 8.265625 
Q 44.046875 -1.421875 31.78125 -1.421875 
Q 19.53125 -1.421875 13.0625 8.265625 
Q 6.59375 17.96875 6.59375 36.375 
Q 6.59375 54.828125 13.0625 64.515625 
Q 19.53125 74.21875 31.78125 74.21875 
z
" id="DejaVuSans-48"/>
      </defs>
      <g transform="translate(223.315794 341.832188)rotate(-90)scale(0.1 -0.1)">
       <use xlink:href="#DejaVuSans-99"/>
       <use x="54.980469" xlink:href="#DejaVuSans-97"/>
       <use x="116.259766" xlink:href="#DejaVuSans-115"/>
       <use x="168.359375" xlink:href="#DejaVuSans-101"/>
       <use x="229.882812" xlink:href="#DejaVuSans-95"/>
       <use x="279.882812" xlink:href="#DejaVuSans-49"/>
       <use x="343.505859" xlink:href="#DejaVuSans-48"/>
      </g>
     </g>
    </g>
    <g id="xtick_11">
     <g id="line2d_21">
      <path clip-path="url(#pa04fee2c21)" d="M 237.253656 294.118125 
L 237.253656 22.318125 
" style="fill:none;stroke:#c0c0c0;stroke-dasharray:0.5,0.825;stroke-dashoffset:0;stroke-width:0.5;"/>
     </g>
     <g id="line2d_22">
      <g>
       <use style="stroke:#000000;stroke-width:0.8;" x="237.253656" xlink:href="#md84b6fbd8b" y="294.118125"/>
      </g>
     </g>
     <g id="text_11">
      <!-- case_11 -->
      <g transform="translate(239.734906 341.832188)rotate(-90)scale(0.1 -0.1)">
       <use xlink:href="#DejaVuSans-99"/>
       <use x="54.980469" xlink:href="#DejaVuSans-97"/>
       <use x="116.259766" xlink:href="#DejaVuSans-115"/>
       <use x="168.359375" xlink:href="#DejaVuSans-101"/>
       <use x="229.882812" xlink:href="#DejaVuSans-95"/>
       <use x="279.882812" xlink:href="#DejaVuSans-49"/>
       <use x="343.505859" xlink:href="#DejaVuSans-49"/>
      </g>
     </g>
    </g>
    <g id="xtick_12">
     <g id="line2d_23">
      <path clip-path="url(#pa04fee2c21)" d="M 253.72355 294.118125 
L 253.72355 22.318125 
" style="fill:none;stroke:#c0c0c0;stroke-dasharray:0.5,0.825;stroke-dashoffset:0;stroke-width:0.5;"/>
     </g>
     <g id="line2d_24">
      <g>
       <use style="stroke:#000000;stroke-width:0.8;" x="253.72355" xlink:href="#md84b6fbd8b" y="294.118125"/>
      </g>
     </g>
     <g id="text_12">
      <!-- case_12 -->
      <g transform="translate(256.255581 341.832188)rotate(-90)scale(0.1 -0.1)">
       <use xlink:href="#DejaVuSans-99"/>
       <use x="54.980469" xlink:href="#DejaVuSans-97"/>
       <use x="116.259766" xlink:href="#DejaVuSans-115"/>
       <use x="168.359375" xlink:href="#DejaVuSans-101"/>
       <use x="229.882812" xlink:href="#DejaVuSans-95"/>
       <use x="279.882812" xlink:href="#DejaVuSans-49"/>
       <use x="343.505859" xlink:href="#DejaVuSans-50"/>
      </g>
     </g>
    </g>
    <g id="xtick_13">
     <g id="line2d_25">
      <path clip-path="url(#pa04fee2c21)" d="M 270.193444 294.118125 
L 270.193444 22.318125 
" style="fill:none;stroke:#c0c0c0;stroke-dasharray:0.5,0.825;stroke-dashoffset:0;stroke-width:0.5;"/>
     </g>
     <g id="line2d_26">
      <g>
       <use style="stroke:#000000;stroke-width:0.8;" x="270.193444" xlink:href="#md84b6fbd8b" y="294.118125"/>
      </g>
     </g>
     <g id="text_13">
      <!-- case_13 -->
      <g transform="translate(272.725475 341.832188)rotate(-90)scale(0.1 -0.1)">
       <use xlink:href="#DejaVuSans-99"/>
       <use x="54.980469" xlink:href="#DejaVuSans-97"/>
       <use x="116.259766" xlink:href="#DejaVuSans-115"/>
       <use x="168.359375" xlink:href="#DejaVuSans-101"/>
       <use x="229.882812" xlink:href="#DejaVuSans-95"/>
       <use x="279.882812" xlink:href="#DejaVuSans-49"/>
       <use x="343.505859" xlink:href="#DejaVuSans-51"/>
      </g>
     </g>
    </g>
    <g id="xtick_14">
     <g id="line2d_27">
      <path clip-path="url(#pa04fee2c21)" d="M 286.663338 294.118125 
L 286.663338 22.318125 
" style="fill:none;stroke:#c0c0c0;stroke-dasharray:0.5,0.825;stroke-dashoffset:0;stroke-width:0.5;"/>
     </g>
     <g id="line2d_28">
      <g>
       <use style="stroke:#000000;stroke-width:0.8;" x="286.663338" xlink:href="#md84b6fbd8b" y="294.118125"/>
      </g>
     </g>
     <g id="text_14">
      <!-- case_14 -->
      <g transform="translate(289.144588 341.832188)rotate(-90)scale(0.1 -0.1)">
       <use xlink:href="#DejaVuSans-99"/>
       <use x="54.980469" xlink:href="#DejaVuSans-97"/>
       <use x="116.259766" xlink:href="#DejaVuSans-115"/>
       <use x="168.359375" xlink:href="#DejaVuSans-101"/>
       <use x="229.882812" xlink:href="#DejaVuSans-95"/>
       <use x="279.882812" xlink:href="#DejaVuSans-49"/>
       <use x="343.505859" xlink:href="#DejaVuSans-52"/>
      </g>
     </g>
    </g>
    <g id="xtick_15">
     <g id="line2d_29">
      <path clip-path="url(#pa04fee2c21)" d="M 303.133231 294.118125 
L 303.133231 22.318125 
" style="fill:none;stroke:#c0c0c0;stroke-dasharray:0.5,0.825;stroke-dashoffset:0;stroke-width:0.5;"/>
     </g>
     <g id="line2d_30">
      <g>
       <use style="stroke:#000000;stroke-width:0.8;" x="303.133231" xlink:href="#md84b6fbd8b" y="294.118125"/>
      </g>
     </g>
     <g id="text_15">
      <!-- case_15 -->
      <g transform="translate(305.614481 341.832188)rotate(-90)scale(0.1 -0.1)">
       <use xlink:href="#DejaVuSans-99"/>
       <use x="54.980469" xlink:href="#DejaVuSans-97"/>
       <use x="116.259766" xlink:href="#DejaVuSans-115"/>
       <use x="168.359375" xlink:href="#DejaVuSans-101"/>
       <use x="229.882812" xlink:href="#DejaVuSans-95"/>
       <use x="279.882812" xlink:href="#DejaVuSans-49"/>
       <use x="343.505859" xlink:href="#DejaVuSans-53"/>
      </g>
     </g>
    </g>
    <g id="xtick_16">
     <g id="line2d_31">
      <path clip-path="url(#pa04fee2c21)" d="M 319.603125 294.118125 
L 319.603125 22.318125 
" style="fill:none;stroke:#c0c0c0;stroke-dasharray:0.5,0.825;stroke-dashoffset:0;stroke-width:0.5;"/>
     </g>
     <g id="line2d_32">
      <g>
       <use style="stroke:#000000;stroke-width:0.8;" x="319.603125" xlink:href="#md84b6fbd8b" y="294.118125"/>
      </g>
     </g>
     <g id="text_16">
      <!-- case_16 -->
      <g transform="translate(322.135156 341.832188)rotate(-90)scale(0.1 -0.1)">
       <use xlink:href="#DejaVuSans-99"/>
       <use x="54.980469" xlink:href="#DejaVuSans-97"/>
       <use x="116.259766" xlink:href="#DejaVuSans-115"/>
       <use x="168.359375" xlink:href="#DejaVuSans-101"/>
       <use x="229.882812" xlink:href="#DejaVuSans-95"/>
       <use x="279.882812" xlink:href="#DejaVuSans-49"/>
       <use x="343.505859" xlink:href="#DejaVuSans-54"/>
      </g>
     </g>
    </g>
    <g id="xtick_17">
     <g id="line2d_33">
      <path clip-path="url(#pa04fee2c21)" d="M 336.073019 294.118125 
L 336.073019 22.318125 
" style="fill:none;stroke:#c0c0c0;stroke-dasharray:0.5,0.825;stroke-dashoffset:0;stroke-width:0.5;"/>
     </g>
     <g id="line2d_34">
      <g>
       <use style="stroke:#000000;stroke-width:0.8;" x="336.073019" xlink:href="#md84b6fbd8b" y="294.118125"/>
      </g>
     </g>
     <g id="text_17">
      <!-- case_17 -->
      <g transform="translate(338.554269 341.832188)rotate(-90)scale(0.1 -0.1)">
       <use xlink:href="#DejaVuSans-99"/>
       <use x="54.980469" xlink:href="#DejaVuSans-97"/>
       <use x="116.259766" xlink:href="#DejaVuSans-115"/>
       <use x="168.359375" xlink:href="#DejaVuSans-101"/>
       <use x="229.882812" xlink:href="#DejaVuSans-95"/>
       <use x="279.882812" xlink:href="#DejaVuSans-49"/>
       <use x="343.505859" xlink:href="#DejaVuSans-55"/>
      </g>
     </g>
    </g>
    <g id="xtick_18">
     <g id="line2d_35">
      <path clip-path="url(#pa04fee2c21)" d="M 352.542912 294.118125 
L 352.542912 22.318125 
" style="fill:none;stroke:#c0c0c0;stroke-dasharray:0.5,0.825;stroke-dashoffset:0;stroke-width:0.5;"/>
     </g>
     <g id="line2d_36">
      <g>
       <use style="stroke:#000000;stroke-width:0.8;" x="352.542912" xlink:href="#md84b6fbd8b" y="294.118125"/>
      </g>
     </g>
     <g id="text_18">
      <!-- case_18 -->
      <g transform="translate(355.074944 341.832188)rotate(-90)scale(0.1 -0.1)">
       <use xlink:href="#DejaVuSans-99"/>
       <use x="54.980469" xlink:href="#DejaVuSans-97"/>
       <use x="116.259766" xlink:href="#DejaVuSans-115"/>
       <use x="168.359375" xlink:href="#DejaVuSans-101"/>
       <use x="229.882812" xlink:href="#DejaVuSans-95"/>
       <use x="279.882812" xlink:href="#DejaVuSans-49"/>
       <use x="343.505859" xlink:href="#DejaVuSans-56"/>
      </g>
     </g>
    </g>
    <g id="xtick_19">
     <g id="line2d_37">
      <path clip-path="url(#pa04fee2c21)" d="M 369.012806 294.118125 
L 369.012806 22.318125 
" style="fill:none;stroke:#c0c0c0;stroke-dasharray:0.5,0.825;stroke-dashoffset:0;stroke-width:0.5;"/>
     </g>
     <g id="line2d_38">
      <g>
       <use style="stroke:#000000;stroke-width:0.8;" x="369.012806" xlink:href="#md84b6fbd8b" y="294.118125"/>
      </g>
     </g>
     <g id="text_19">
      <!-- case_19 -->
      <g transform="translate(371.544837 341.832188)rotate(-90)scale(0.1 -0.1)">
       <use xlink:href="#DejaVuSans-99"/>
       <use x="54.980469" xlink:href="#DejaVuSans-97"/>
       <use x="116.259766" xlink:href="#DejaVuSans-115"/>
       <use x="168.359375" xlink:href="#DejaVuSans-101"/>
       <use x="229.882812" xlink:href="#DejaVuSans-95"/>
       <use x="279.882812" xlink:href="#DejaVuSans-49"/>
       <use x="343.505859" xlink:href="#DejaVuSans-57"/>
      </g>
     </g>
    </g>
    <g id="xtick_20">
     <g id="line2d_39">
      <path clip-path="url(#pa04fee2c21)" d="M 385.4827 294.118125 
L 385.4827 22.318125 
" style="fill:none;stroke:#c0c0c0;stroke-dasharray:0.5,0.825;stroke-dashoffset:0;stroke-width:0.5;"/>
     </g>
     <g id="line2d_40">
      <g>
       <use style="stroke:#000000;stroke-width:0.8;" x="385.4827" xlink:href="#md84b6fbd8b" y="294.118125"/>
      </g>
     </g>
     <g id="text_20">
      <!-- case_20 -->
      <g transform="translate(388.014731 341.832188)rotate(-90)scale(0.1 -0.1)">
       <use xlink:href="#DejaVuSans-99"/>
       <use x="54.980469" xlink:href="#DejaVuSans-97"/>
       <use x="116.259766" xlink:href="#DejaVuSans-115"/>
       <use x="168.359375" xlink:href="#DejaVuSans-101"/>
       <use x="229.882812" xlink:href="#DejaVuSans-95"/>
       <use x="279.882812" xlink:href="#DejaVuSans-50"/>
       <use x="343.505859" xlink:href="#DejaVuSans-48"/>
      </g>
     </g>
    </g>
    <g id="xtick_21">
     <g id="line2d_41">
      <path clip-path="url(#pa04fee2c21)" d="M 401.952594 294.118125 
L 401.952594 22.318125 
" style="fill:none;stroke:#c0c0c0;stroke-dasharray:0.5,0.825;stroke-dashoffset:0;stroke-width:0.5;"/>
     </g>
     <g id="line2d_42">
      <g>
       <use style="stroke:#000000;stroke-width:0.8;" x="401.952594" xlink:href="#md84b6fbd8b" y="294.118125"/>
      </g>
     </g>
     <g id="text_21">
      <!-- case_21 -->
      <g transform="translate(404.484625 341.832188)rotate(-90)scale(0.1 -0.1)">
       <use xlink:href="#DejaVuSans-99"/>
       <use x="54.980469" xlink:href="#DejaVuSans-97"/>
       <use x="116.259766" xlink:href="#DejaVuSans-115"/>
       <use x="168.359375" xlink:href="#DejaVuSans-101"/>
       <use x="229.882812" xlink:href="#DejaVuSans-95"/>
       <use x="279.882812" xlink:href="#DejaVuSans-50"/>
       <use x="343.505859" xlink:href="#DejaVuSans-49"/>
      </g>
     </g>
    </g>
    <g id="xtick_22">
     <g id="line2d_43">
      <path clip-path="url(#pa04fee2c21)" d="M 418.422487 294.118125 
L 418.422487 22.318125 
" style="fill:none;stroke:#c0c0c0;stroke-dasharray:0.5,0.825;stroke-dashoffset:0;stroke-width:0.5;"/>
     </g>
     <g id="line2d_44">
      <g>
       <use style="stroke:#000000;stroke-width:0.8;" x="418.422487" xlink:href="#md84b6fbd8b" y="294.118125"/>
      </g>
     </g>
     <g id="text_22">
      <!-- case_22 -->
      <g transform="translate(420.954519 341.832188)rotate(-90)scale(0.1 -0.1)">
       <use xlink:href="#DejaVuSans-99"/>
       <use x="54.980469" xlink:href="#DejaVuSans-97"/>
       <use x="116.259766" xlink:href="#DejaVuSans-115"/>
       <use x="168.359375" xlink:href="#DejaVuSans-101"/>
       <use x="229.882812" xlink:href="#DejaVuSans-95"/>
       <use x="279.882812" xlink:href="#DejaVuSans-50"/>
       <use x="343.505859" xlink:href="#DejaVuSans-50"/>
      </g>
     </g>
    </g>
    <g id="xtick_23">
     <g id="line2d_45">
      <path clip-path="url(#pa04fee2c21)" d="M 434.892381 294.118125 
L 434.892381 22.318125 
" style="fill:none;stroke:#c0c0c0;stroke-dasharray:0.5,0.825;stroke-dashoffset:0;stroke-width:0.5;"/>
     </g>
     <g id="line2d_46">
      <g>
       <use style="stroke:#000000;stroke-width:0.8;" x="434.892381" xlink:href="#md84b6fbd8b" y="294.118125"/>
      </g>
     </g>
     <g id="text_23">
      <!-- case_23 -->
      <g transform="translate(437.424412 341.832188)rotate(-90)scale(0.1 -0.1)">
       <use xlink:href="#DejaVuSans-99"/>
       <use x="54.980469" xlink:href="#DejaVuSans-97"/>
       <use x="116.259766" xlink:href="#DejaVuSans-115"/>
       <use x="168.359375" xlink:href="#DejaVuSans-101"/>
       <use x="229.882812" xlink:href="#DejaVuSans-95"/>
       <use x="279.882812" xlink:href="#DejaVuSans-50"/>
       <use x="343.505859" xlink:href="#DejaVuSans-51"/>
      </g>
     </g>
    </g>
    <g id="xtick_24">
     <g id="line2d_47">
      <path clip-path="url(#pa04fee2c21)" d="M 451.362275 294.118125 
L 451.362275 22.318125 
" style="fill:none;stroke:#c0c0c0;stroke-dasharray:0.5,0.825;stroke-dashoffset:0;stroke-width:0.5;"/>
     </g>
     <g id="line2d_48">
      <g>
       <use style="stroke:#000000;stroke-width:0.8;" x="451.362275" xlink:href="#md84b6fbd8b" y="294.118125"/>
      </g>
     </g>
     <g id="text_24">
      <!-- case_24 -->
      <g transform="translate(453.894306 341.832188)rotate(-90)scale(0.1 -0.1)">
       <use xlink:href="#DejaVuSans-99"/>
       <use x="54.980469" xlink:href="#DejaVuSans-97"/>
       <use x="116.259766" xlink:href="#DejaVuSans-115"/>
       <use x="168.359375" xlink:href="#DejaVuSans-101"/>
       <use x="229.882812" xlink:href="#DejaVuSans-95"/>
       <use x="279.882812" xlink:href="#DejaVuSans-50"/>
       <use x="343.505859" xlink:href="#DejaVuSans-52"/>
      </g>
     </g>
    </g>
    <g id="xtick_25">
     <g id="line2d_49">
      <path clip-path="url(#pa04fee2c21)" d="M 467.832169 294.118125 
L 467.832169 22.318125 
" style="fill:none;stroke:#c0c0c0;stroke-dasharray:0.5,0.825;stroke-dashoffset:0;stroke-width:0.5;"/>
     </g>
     <g id="line2d_50">
      <g>
       <use style="stroke:#000000;stroke-width:0.8;" x="467.832169" xlink:href="#md84b6fbd8b" y="294.118125"/>
      </g>
     </g>
     <g id="text_25">
      <!-- case_25 -->
      <g transform="translate(470.3642 341.832188)rotate(-90)scale(0.1 -0.1)">
       <use xlink:href="#DejaVuSans-99"/>
       <use x="54.980469" xlink:href="#DejaVuSans-97"/>
       <use x="116.259766" xlink:href="#DejaVuSans-115"/>
       <use x="168.359375" xlink:href="#DejaVuSans-101"/>
       <use x="229.882812" xlink:href="#DejaVuSans-95"/>
       <use x="279.882812" xlink:href="#DejaVuSans-50"/>
       <use x="343.505859" xlink:href="#DejaVuSans-53"/>
      </g>
     </g>
    </g>
    <g id="xtick_26">
     <g id="line2d_51">
      <path clip-path="url(#pa04fee2c21)" d="M 484.302062 294.118125 
L 484.302062 22.318125 
" style="fill:none;stroke:#c0c0c0;stroke-dasharray:0.5,0.825;stroke-dashoffset:0;stroke-width:0.5;"/>
     </g>
     <g id="line2d_52">
      <g>
       <use style="stroke:#000000;stroke-width:0.8;" x="484.302062" xlink:href="#md84b6fbd8b" y="294.118125"/>
      </g>
     </g>
     <g id="text_26">
      <!-- case_26 -->
      <g transform="translate(486.834094 341.832188)rotate(-90)scale(0.1 -0.1)">
       <use xlink:href="#DejaVuSans-99"/>
       <use x="54.980469" xlink:href="#DejaVuSans-97"/>
       <use x="116.259766" xlink:href="#DejaVuSans-115"/>
       <use x="168.359375" xlink:href="#DejaVuSans-101"/>
       <use x="229.882812" xlink:href="#DejaVuSans-95"/>
       <use x="279.882812" xlink:href="#DejaVuSans-50"/>
       <use x="343.505859" xlink:href="#DejaVuSans-54"/>
      </g>
     </g>
    </g>
    <g id="xtick_27">
     <g id="line2d_53">
      <path clip-path="url(#pa04fee2c21)" d="M 500.771956 294.118125 
L 500.771956 22.318125 
" style="fill:none;stroke:#c0c0c0;stroke-dasharray:0.5,0.825;stroke-dashoffset:0;stroke-width:0.5;"/>
     </g>
     <g id="line2d_54">
      <g>
       <use style="stroke:#000000;stroke-width:0.8;" x="500.771956" xlink:href="#md84b6fbd8b" y="294.118125"/>
      </g>
     </g>
     <g id="text_27">
      <!-- case_27 -->
      <g transform="translate(503.303987 341.832188)rotate(-90)scale(0.1 -0.1)">
       <use xlink:href="#DejaVuSans-99"/>
       <use x="54.980469" xlink:href="#DejaVuSans-97"/>
       <use x="116.259766" xlink:href="#DejaVuSans-115"/>
       <use x="168.359375" xlink:href="#DejaVuSans-101"/>
       <use x="229.882812" xlink:href="#DejaVuSans-95"/>
       <use x="279.882812" xlink:href="#DejaVuSans-50"/>
       <use x="343.505859" xlink:href="#DejaVuSans-55"/>
      </g>
     </g>
    </g>
    <g id="xtick_28">
     <g id="line2d_55">
      <path clip-path="url(#pa04fee2c21)" d="M 517.24185 294.118125 
L 517.24185 22.318125 
" style="fill:none;stroke:#c0c0c0;stroke-dasharray:0.5,0.825;stroke-dashoffset:0;stroke-width:0.5;"/>
     </g>
     <g id="line2d_56">
      <g>
       <use style="stroke:#000000;stroke-width:0.8;" x="517.24185" xlink:href="#md84b6fbd8b" y="294.118125"/>
      </g>
     </g>
     <g id="text_28">
      <!-- case_28 -->
      <g transform="translate(519.773881 341.832188)rotate(-90)scale(0.1 -0.1)">
       <use xlink:href="#DejaVuSans-99"/>
       <use x="54.980469" xlink:href="#DejaVuSans-97"/>
       <use x="116.259766" xlink:href="#DejaVuSans-115"/>
       <use x="168.359375" xlink:href="#DejaVuSans-101"/>
       <use x="229.882812" xlink:href="#DejaVuSans-95"/>
       <use x="279.882812" xlink:href="#DejaVuSans-50"/>
       <use x="343.505859" xlink:href="#DejaVuSans-56"/>
      </g>
     </g>
    </g>
    <g id="xtick_29">
     <g id="line2d_57">
      <path clip-path="url(#pa04fee2c21)" d="M 533.711744 294.118125 
L 533.711744 22.318125 
" style="fill:none;stroke:#c0c0c0;stroke-dasharray:0.5,0.825;stroke-dashoffset:0;stroke-width:0.5;"/>
     </g>
     <g id="line2d_58">
      <g>
       <use style="stroke:#000000;stroke-width:0.8;" x="533.711744" xlink:href="#md84b6fbd8b" y="294.118125"/>
      </g>
     </g>
     <g id="text_29">
      <!-- case_29 -->
      <g transform="translate(536.243775 341.832188)rotate(-90)scale(0.1 -0.1)">
       <use xlink:href="#DejaVuSans-99"/>
       <use x="54.980469" xlink:href="#DejaVuSans-97"/>
       <use x="116.259766" xlink:href="#DejaVuSans-115"/>
       <use x="168.359375" xlink:href="#DejaVuSans-101"/>
       <use x="229.882812" xlink:href="#DejaVuSans-95"/>
       <use x="279.882812" xlink:href="#DejaVuSans-50"/>
       <use x="343.505859" xlink:href="#DejaVuSans-57"/>
      </g>
     </g>
    </g>
    <g id="xtick_30">
     <g id="line2d_59">
      <path clip-path="url(#pa04fee2c21)" d="M 550.181637 294.118125 
L 550.181637 22.318125 
" style="fill:none;stroke:#c0c0c0;stroke-dasharray:0.5,0.825;stroke-dashoffset:0;stroke-width:0.5;"/>
     </g>
     <g id="line2d_60">
      <g>
       <use style="stroke:#000000;stroke-width:0.8;" x="550.181637" xlink:href="#md84b6fbd8b" y="294.118125"/>
      </g>
     </g>
     <g id="text_30">
      <!-- case_30 -->
      <g transform="translate(552.713669 341.832188)rotate(-90)scale(0.1 -0.1)">
       <use xlink:href="#DejaVuSans-99"/>
       <use x="54.980469" xlink:href="#DejaVuSans-97"/>
       <use x="116.259766" xlink:href="#DejaVuSans-115"/>
       <use x="168.359375" xlink:href="#DejaVuSans-101"/>
       <use x="229.882812" xlink:href="#DejaVuSans-95"/>
       <use x="279.882812" xlink:href="#DejaVuSans-51"/>
       <use x="343.505859" xlink:href="#DejaVuSans-48"/>
      </g>
     </g>
    </g>
    <g id="xtick_31">
     <g id="line2d_61">
      <path clip-path="url(#pa04fee2c21)" d="M 566.651531 294.118125 
L 566.651531 22.318125 
" style="fill:none;stroke:#c0c0c0;stroke-dasharray:0.5,0.825;stroke-dashoffset:0;stroke-width:0.5;"/>
     </g>
     <g id="line2d_62">
      <g>
       <use style="stroke:#000000;stroke-width:0.8;" x="566.651531" xlink:href="#md84b6fbd8b" y="294.118125"/>
      </g>
     </g>
     <g id="text_31">
      <!-- case_31 -->
      <g transform="translate(569.183562 341.832188)rotate(-90)scale(0.1 -0.1)">
       <use xlink:href="#DejaVuSans-99"/>
       <use x="54.980469" xlink:href="#DejaVuSans-97"/>
       <use x="116.259766" xlink:href="#DejaVuSans-115"/>
       <use x="168.359375" xlink:href="#DejaVuSans-101"/>
       <use x="229.882812" xlink:href="#DejaVuSans-95"/>
       <use x="279.882812" xlink:href="#DejaVuSans-51"/>
       <use x="343.505859" xlink:href="#DejaVuSans-49"/>
      </g>
     </g>
    </g>
   </g>
   <g id="matplotlib.axis_2">
    <g id="ytick_1">
     <g id="line2d_63">
      <path clip-path="url(#pa04fee2c21)" d="M 40.603125 294.118125 
L 598.603125 294.118125 
" style="fill:none;stroke:#c0c0c0;stroke-dasharray:0.5,0.825;stroke-dashoffset:0;stroke-width:0.5;"/>
     </g>
     <g id="line2d_64">
      <defs>
       <path d="M 0 0 
L -3.5 0 
" id="m33d48bda84" style="stroke:#000000;stroke-width:0.8;"/>
      </defs>
      <g>
       <use style="stroke:#000000;stroke-width:0.8;" x="40.603125" xlink:href="#m33d48bda84" y="294.118125"/>
      </g>
     </g>
     <g id="text_32">
      <!-- 0 -->
      <g transform="translate(27.240625 297.917344)scale(0.1 -0.1)">
       <use xlink:href="#DejaVuSans-48"/>
      </g>
     </g>
    </g>
    <g id="ytick_2">
     <g id="line2d_65">
      <path clip-path="url(#pa04fee2c21)" d="M 40.603125 247.893635 
L 598.603125 247.893635 
" style="fill:none;stroke:#c0c0c0;stroke-dasharray:0.5,0.825;stroke-dashoffset:0;stroke-width:0.5;"/>
     </g>
     <g id="line2d_66">
      <g>
       <use style="stroke:#000000;stroke-width:0.8;" x="40.603125" xlink:href="#m33d48bda84" y="247.893635"/>
      </g>
     </g>
     <g id="text_33">
      <!-- 5 -->
      <g transform="translate(27.240625 251.692854)scale(0.1 -0.1)">
       <use xlink:href="#DejaVuSans-53"/>
      </g>
     </g>
    </g>
    <g id="ytick_3">
     <g id="line2d_67">
      <path clip-path="url(#pa04fee2c21)" d="M 40.603125 201.669145 
L 598.603125 201.669145 
" style="fill:none;stroke:#c0c0c0;stroke-dasharray:0.5,0.825;stroke-dashoffset:0;stroke-width:0.5;"/>
     </g>
     <g id="line2d_68">
      <g>
       <use style="stroke:#000000;stroke-width:0.8;" x="40.603125" xlink:href="#m33d48bda84" y="201.669145"/>
      </g>
     </g>
     <g id="text_34">
      <!-- 10 -->
      <g transform="translate(20.878125 205.468364)scale(0.1 -0.1)">
       <use xlink:href="#DejaVuSans-49"/>
       <use x="63.623047" xlink:href="#DejaVuSans-48"/>
      </g>
     </g>
    </g>
    <g id="ytick_4">
     <g id="line2d_69">
      <path clip-path="url(#pa04fee2c21)" d="M 40.603125 155.444656 
L 598.603125 155.444656 
" style="fill:none;stroke:#c0c0c0;stroke-dasharray:0.5,0.825;stroke-dashoffset:0;stroke-width:0.5;"/>
     </g>
     <g id="line2d_70">
      <g>
       <use style="stroke:#000000;stroke-width:0.8;" x="40.603125" xlink:href="#m33d48bda84" y="155.444656"/>
      </g>
     </g>
     <g id="text_35">
      <!-- 15 -->
      <g transform="translate(20.878125 159.243874)scale(0.1 -0.1)">
       <use xlink:href="#DejaVuSans-49"/>
       <use x="63.623047" xlink:href="#DejaVuSans-53"/>
      </g>
     </g>
    </g>
    <g id="ytick_5">
     <g id="line2d_71">
      <path clip-path="url(#pa04fee2c21)" d="M 40.603125 109.220166 
L 598.603125 109.220166 
" style="fill:none;stroke:#c0c0c0;stroke-dasharray:0.5,0.825;stroke-dashoffset:0;stroke-width:0.5;"/>
     </g>
     <g id="line2d_72">
      <g>
       <use style="stroke:#000000;stroke-width:0.8;" x="40.603125" xlink:href="#m33d48bda84" y="109.220166"/>
      </g>
     </g>
     <g id="text_36">
      <!-- 20 -->
      <g transform="translate(20.878125 113.019385)scale(0.1 -0.1)">
       <use xlink:href="#DejaVuSans-50"/>
       <use x="63.623047" xlink:href="#DejaVuSans-48"/>
      </g>
     </g>
    </g>
    <g id="ytick_6">
     <g id="line2d_73">
      <path clip-path="url(#pa04fee2c21)" d="M 40.603125 62.995676 
L 598.603125 62.995676 
" style="fill:none;stroke:#c0c0c0;stroke-dasharray:0.5,0.825;stroke-dashoffset:0;stroke-width:0.5;"/>
     </g>
     <g id="line2d_74">
      <g>
       <use style="stroke:#000000;stroke-width:0.8;" x="40.603125" xlink:href="#m33d48bda84" y="62.995676"/>
      </g>
     </g>
     <g id="text_37">
      <!-- 25 -->
      <g transform="translate(20.878125 66.794895)scale(0.1 -0.1)">
       <use xlink:href="#DejaVuSans-50"/>
       <use x="63.623047" xlink:href="#DejaVuSans-53"/>
      </g>
     </g>
    </g>
    <g id="text_38">
     <!-- Days -->
     <defs>
      <path d="M 19.671875 64.796875 
L 19.671875 8.109375 
L 31.59375 8.109375 
Q 46.6875 8.109375 53.6875 14.9375 
Q 60.6875 21.78125 60.6875 36.53125 
Q 60.6875 51.171875 53.6875 57.984375 
Q 46.6875 64.796875 31.59375 64.796875 
z
M 9.8125 72.90625 
L 30.078125 72.90625 
Q 51.265625 72.90625 61.171875 64.09375 
Q 71.09375 55.28125 71.09375 36.53125 
Q 71.09375 17.671875 61.125 8.828125 
Q 51.171875 0 30.078125 0 
L 9.8125 0 
z
" id="DejaVuSans-68"/>
      <path d="M 32.171875 -5.078125 
Q 28.375 -14.84375 24.75 -17.8125 
Q 21.140625 -20.796875 15.09375 -20.796875 
L 7.90625 -20.796875 
L 7.90625 -13.28125 
L 13.1875 -13.28125 
Q 16.890625 -13.28125 18.9375 -11.515625 
Q 21 -9.765625 23.484375 -3.21875 
L 25.09375 0.875 
L 2.984375 54.6875 
L 12.5 54.6875 
L 29.59375 11.921875 
L 46.6875 54.6875 
L 56.203125 54.6875 
z
" id="DejaVuSans-121"/>
     </defs>
     <g transform="translate(14.798437 170.69625)rotate(-90)scale(0.1 -0.1)">
      <use xlink:href="#DejaVuSans-68"/>
      <use x="77.001953" xlink:href="#DejaVuSans-97"/>
      <use x="138.28125" xlink:href="#DejaVuSans-121"/>
      <use x="197.460938" xlink:href="#DejaVuSans-115"/>
     </g>
    </g>
   </g>
   <g id="patch_3">
    <path clip-path="url(#pa04fee2c21)" d="M 65.966761 294.118125 
L 79.142676 294.118125 
L 79.142676 238.648737 
L 65.966761 238.648737 
z
" style="fill:#ff6347;"/>
   </g>
   <g id="patch_4">
    <path clip-path="url(#pa04fee2c21)" d="M 82.436655 294.118125 
L 95.61257 294.118125 
L 95.61257 284.873227 
L 82.436655 284.873227 
z
" style="fill:#ff6347;"/>
   </g>
   <g id="patch_5">
    <path clip-path="url(#pa04fee2c21)" d="M 98.906549 294.118125 
L 112.082464 294.118125 
L 112.082464 275.628329 
L 98.906549 275.628329 
z
" style="fill:#ff6347;"/>
   </g>
   <g id="patch_6">
    <path clip-path="url(#pa04fee2c21)" d="M 115.376443 294.118125 
L 128.552358 294.118125 
L 128.552358 238.648737 
L 115.376443 238.648737 
z
" style="fill:#ff6347;"/>
   </g>
   <g id="patch_7">
    <path clip-path="url(#pa04fee2c21)" d="M 131.846336 294.118125 
L 145.022251 294.118125 
L 145.022251 192.424247 
L 131.846336 192.424247 
z
" style="fill:#ff6347;"/>
   </g>
   <g id="patch_8">
    <path clip-path="url(#pa04fee2c21)" d="M 148.31623 294.118125 
L 161.492145 294.118125 
L 161.492145 247.893635 
L 148.31623 247.893635 
z
" style="fill:#ff6347;"/>
   </g>
   <g id="patch_9">
    <path clip-path="url(#pa04fee2c21)" d="M 164.786124 294.118125 
L 177.962039 294.118125 
L 177.962039 220.158941 
L 164.786124 220.158941 
z
" style="fill:#ff6347;"/>
   </g>
   <g id="patch_10">
    <path clip-path="url(#pa04fee2c21)" d="M 181.256018 294.118125 
L 194.431933 294.118125 
L 194.431933 284.873227 
L 181.256018 284.873227 
z
" style="fill:#ff6347;"/>
   </g>
   <g id="patch_11">
    <path clip-path="url(#pa04fee2c21)" d="M 197.725911 294.118125 
L 210.901826 294.118125 
L 210.901826 266.383431 
L 197.725911 266.383431 
z
" style="fill:#ff6347;"/>
   </g>
   <g id="patch_12">
    <path clip-path="url(#pa04fee2c21)" d="M 214.195805 294.118125 
L 227.37172 294.118125 
L 227.37172 294.118125 
L 214.195805 294.118125 
z
" style="fill:#ff6347;"/>
   </g>
   <g id="patch_13">
    <path clip-path="url(#pa04fee2c21)" d="M 230.665699 294.118125 
L 243.841614 294.118125 
L 243.841614 294.118125 
L 230.665699 294.118125 
z
" style="fill:#ff6347;"/>
   </g>
   <g id="patch_14">
    <path clip-path="url(#pa04fee2c21)" d="M 247.135593 294.118125 
L 260.311508 294.118125 
L 260.311508 294.118125 
L 247.135593 294.118125 
z
" style="fill:#ff6347;"/>
   </g>
   <g id="patch_15">
    <path clip-path="url(#pa04fee2c21)" d="M 263.605486 294.118125 
L 276.781401 294.118125 
L 276.781401 294.118125 
L 263.605486 294.118125 
z
" style="fill:#ff6347;"/>
   </g>
   <g id="patch_16">
    <path clip-path="url(#pa04fee2c21)" d="M 280.07538 294.118125 
L 293.251295 294.118125 
L 293.251295 266.383431 
L 280.07538 266.383431 
z
" style="fill:#ff6347;"/>
   </g>
   <g id="patch_17">
    <path clip-path="url(#pa04fee2c21)" d="M 296.545274 294.118125 
L 309.721189 294.118125 
L 309.721189 266.383431 
L 296.545274 266.383431 
z
" style="fill:#ff6347;"/>
   </g>
   <g id="patch_18">
    <path clip-path="url(#pa04fee2c21)" d="M 313.015168 294.118125 
L 326.191082 294.118125 
L 326.191082 146.199758 
L 313.015168 146.199758 
z
" style="fill:#ff6347;"/>
   </g>
   <g id="patch_19">
    <path clip-path="url(#pa04fee2c21)" d="M 329.485061 294.118125 
L 342.660976 294.118125 
L 342.660976 284.873227 
L 329.485061 284.873227 
z
" style="fill:#ff6347;"/>
   </g>
   <g id="patch_20">
    <path clip-path="url(#pa04fee2c21)" d="M 345.954955 294.118125 
L 359.13087 294.118125 
L 359.13087 284.873227 
L 345.954955 284.873227 
z
" style="fill:#ff6347;"/>
   </g>
   <g id="patch_21">
    <path clip-path="url(#pa04fee2c21)" d="M 362.424849 294.118125 
L 375.600764 294.118125 
L 375.600764 284.873227 
L 362.424849 284.873227 
z
" style="fill:#ff6347;"/>
   </g>
   <g id="patch_22">
    <path clip-path="url(#pa04fee2c21)" d="M 378.894742 294.118125 
L 392.070657 294.118125 
L 392.070657 284.873227 
L 378.894742 284.873227 
z
" style="fill:#ff6347;"/>
   </g>
   <g id="patch_23">
    <path clip-path="url(#pa04fee2c21)" d="M 395.364636 294.118125 
L 408.540551 294.118125 
L 408.540551 294.118125 
L 395.364636 294.118125 
z
" style="fill:#ff6347;"/>
   </g>
   <g id="patch_24">
    <path clip-path="url(#pa04fee2c21)" d="M 411.83453 294.118125 
L 425.010445 294.118125 
L 425.010445 201.669145 
L 411.83453 201.669145 
z
" style="fill:#ff6347;"/>
   </g>
   <g id="patch_25">
    <path clip-path="url(#pa04fee2c21)" d="M 428.304424 294.118125 
L 441.480339 294.118125 
L 441.480339 220.158941 
L 428.304424 220.158941 
z
" style="fill:#ff6347;"/>
   </g>
   <g id="patch_26">
    <path clip-path="url(#pa04fee2c21)" d="M 444.774317 294.118125 
L 457.950232 294.118125 
L 457.950232 109.220166 
L 444.774317 109.220166 
z
" style="fill:#ff6347;"/>
   </g>
   <g id="patch_27">
    <path clip-path="url(#pa04fee2c21)" d="M 461.244211 294.118125 
L 474.420126 294.118125 
L 474.420126 294.118125 
L 461.244211 294.118125 
z
" style="fill:#ff6347;"/>
   </g>
   <g id="patch_28">
    <path clip-path="url(#pa04fee2c21)" d="M 477.714105 294.118125 
L 490.89002 294.118125 
L 490.89002 294.118125 
L 477.714105 294.118125 
z
" style="fill:#ff6347;"/>
   </g>
   <g id="patch_29">
    <path clip-path="url(#pa04fee2c21)" d="M 494.183999 294.118125 
L 507.359914 294.118125 
L 507.359914 201.669145 
L 494.183999 201.669145 
z
" style="fill:#ff6347;"/>
   </g>
   <g id="patch_30">
    <path clip-path="url(#pa04fee2c21)" d="M 510.653892 294.118125 
L 523.829807 294.118125 
L 523.829807 294.118125 
L 510.653892 294.118125 
z
" style="fill:#ff6347;"/>
   </g>
   <g id="patch_31">
    <path clip-path="url(#pa04fee2c21)" d="M 527.123786 294.118125 
L 540.299701 294.118125 
L 540.299701 294.118125 
L 527.123786 294.118125 
z
" style="fill:#ff6347;"/>
   </g>
   <g id="patch_32">
    <path clip-path="url(#pa04fee2c21)" d="M 543.59368 294.118125 
L 556.769595 294.118125 
L 556.769595 294.118125 
L 543.59368 294.118125 
z
" style="fill:#ff6347;"/>
   </g>
   <g id="patch_33">
    <path clip-path="url(#pa04fee2c21)" d="M 560.063574 294.118125 
L 573.239489 294.118125 
L 573.239489 294.118125 
L 560.063574 294.118125 
z
" style="fill:#ff6347;"/>
   </g>
   <g id="patch_34">
    <path clip-path="url(#pa04fee2c21)" d="M 65.966761 238.648737 
L 79.142676 238.648737 
L 79.142676 220.158941 
L 65.966761 220.158941 
z
" style="fill:#ffa07a;"/>
   </g>
   <g id="patch_35">
    <path clip-path="url(#pa04fee2c21)" d="M 82.436655 284.873227 
L 95.61257 284.873227 
L 95.61257 284.873227 
L 82.436655 284.873227 
z
" style="fill:#ffa07a;"/>
   </g>
   <g id="patch_36">
    <path clip-path="url(#pa04fee2c21)" d="M 98.906549 275.628329 
L 112.082464 275.628329 
L 112.082464 257.138533 
L 98.906549 257.138533 
z
" style="fill:#ffa07a;"/>
   </g>
   <g id="patch_37">
    <path clip-path="url(#pa04fee2c21)" d="M 115.376443 238.648737 
L 128.552358 238.648737 
L 128.552358 220.158941 
L 115.376443 220.158941 
z
" style="fill:#ffa07a;"/>
   </g>
   <g id="patch_38">
    <path clip-path="url(#pa04fee2c21)" d="M 131.846336 192.424247 
L 145.022251 192.424247 
L 145.022251 173.934452 
L 131.846336 173.934452 
z
" style="fill:#ffa07a;"/>
   </g>
   <g id="patch_39">
    <path clip-path="url(#pa04fee2c21)" d="M 148.31623 247.893635 
L 161.492145 247.893635 
L 161.492145 229.403839 
L 148.31623 229.403839 
z
" style="fill:#ffa07a;"/>
   </g>
   <g id="patch_40">
    <path clip-path="url(#pa04fee2c21)" d="M 164.786124 220.158941 
L 177.962039 220.158941 
L 177.962039 201.669145 
L 164.786124 201.669145 
z
" style="fill:#ffa07a;"/>
   </g>
   <g id="patch_41">
    <path clip-path="url(#pa04fee2c21)" d="M 181.256018 284.873227 
L 194.431933 284.873227 
L 194.431933 266.383431 
L 181.256018 266.383431 
z
" style="fill:#ffa07a;"/>
   </g>
   <g id="patch_42">
    <path clip-path="url(#pa04fee2c21)" d="M 197.725911 266.383431 
L 210.901826 266.383431 
L 210.901826 238.648737 
L 197.725911 238.648737 
z
" style="fill:#ffa07a;"/>
   </g>
   <g id="patch_43">
    <path clip-path="url(#pa04fee2c21)" d="M 214.195805 294.118125 
L 227.37172 294.118125 
L 227.37172 284.873227 
L 214.195805 284.873227 
z
" style="fill:#ffa07a;"/>
   </g>
   <g id="patch_44">
    <path clip-path="url(#pa04fee2c21)" d="M 230.665699 294.118125 
L 243.841614 294.118125 
L 243.841614 275.628329 
L 230.665699 275.628329 
z
" style="fill:#ffa07a;"/>
   </g>
   <g id="patch_45">
    <path clip-path="url(#pa04fee2c21)" d="M 247.135593 294.118125 
L 260.311508 294.118125 
L 260.311508 275.628329 
L 247.135593 275.628329 
z
" style="fill:#ffa07a;"/>
   </g>
   <g id="patch_46">
    <path clip-path="url(#pa04fee2c21)" d="M 263.605486 294.118125 
L 276.781401 294.118125 
L 276.781401 275.628329 
L 263.605486 275.628329 
z
" style="fill:#ffa07a;"/>
   </g>
   <g id="patch_47">
    <path clip-path="url(#pa04fee2c21)" d="M 280.07538 266.383431 
L 293.251295 266.383431 
L 293.251295 247.893635 
L 280.07538 247.893635 
z
" style="fill:#ffa07a;"/>
   </g>
   <g id="patch_48">
    <path clip-path="url(#pa04fee2c21)" d="M 296.545274 266.383431 
L 309.721189 266.383431 
L 309.721189 266.383431 
L 296.545274 266.383431 
z
" style="fill:#ffa07a;"/>
   </g>
   <g id="patch_49">
    <path clip-path="url(#pa04fee2c21)" d="M 313.015168 146.199758 
L 326.191082 146.199758 
L 326.191082 136.95486 
L 313.015168 136.95486 
z
" style="fill:#ffa07a;"/>
   </g>
   <g id="patch_50">
    <path clip-path="url(#pa04fee2c21)" d="M 329.485061 284.873227 
L 342.660976 284.873227 
L 342.660976 266.383431 
L 329.485061 266.383431 
z
" style="fill:#ffa07a;"/>
   </g>
   <g id="patch_51">
    <path clip-path="url(#pa04fee2c21)" d="M 345.954955 284.873227 
L 359.13087 284.873227 
L 359.13087 266.383431 
L 345.954955 266.383431 
z
" style="fill:#ffa07a;"/>
   </g>
   <g id="patch_52">
    <path clip-path="url(#pa04fee2c21)" d="M 362.424849 284.873227 
L 375.600764 284.873227 
L 375.600764 266.383431 
L 362.424849 266.383431 
z
" style="fill:#ffa07a;"/>
   </g>
   <g id="patch_53">
    <path clip-path="url(#pa04fee2c21)" d="M 378.894742 284.873227 
L 392.070657 284.873227 
L 392.070657 266.383431 
L 378.894742 266.383431 
z
" style="fill:#ffa07a;"/>
   </g>
   <g id="patch_54">
    <path clip-path="url(#pa04fee2c21)" d="M 395.364636 294.118125 
L 408.540551 294.118125 
L 408.540551 210.914043 
L 395.364636 210.914043 
z
" style="fill:#ffa07a;"/>
   </g>
   <g id="patch_55">
    <path clip-path="url(#pa04fee2c21)" d="M 411.83453 201.669145 
L 425.010445 201.669145 
L 425.010445 192.424247 
L 411.83453 192.424247 
z
" style="fill:#ffa07a;"/>
   </g>
   <g id="patch_56">
    <path clip-path="url(#pa04fee2c21)" d="M 428.304424 220.158941 
L 441.480339 220.158941 
L 441.480339 62.995676 
L 428.304424 62.995676 
z
" style="fill:#ffa07a;"/>
   </g>
   <g id="patch_57">
    <path clip-path="url(#pa04fee2c21)" d="M 444.774317 109.220166 
L 457.950232 109.220166 
L 457.950232 90.73037 
L 444.774317 90.73037 
z
" style="fill:#ffa07a;"/>
   </g>
   <g id="patch_58">
    <path clip-path="url(#pa04fee2c21)" d="M 461.244211 294.118125 
L 474.420126 294.118125 
L 474.420126 284.873227 
L 461.244211 284.873227 
z
" style="fill:#ffa07a;"/>
   </g>
   <g id="patch_59">
    <path clip-path="url(#pa04fee2c21)" d="M 477.714105 294.118125 
L 490.89002 294.118125 
L 490.89002 275.628329 
L 477.714105 275.628329 
z
" style="fill:#ffa07a;"/>
   </g>
   <g id="patch_60">
    <path clip-path="url(#pa04fee2c21)" d="M 494.183999 201.669145 
L 507.359914 201.669145 
L 507.359914 99.975268 
L 494.183999 99.975268 
z
" style="fill:#ffa07a;"/>
   </g>
   <g id="patch_61">
    <path clip-path="url(#pa04fee2c21)" d="M 510.653892 294.118125 
L 523.829807 294.118125 
L 523.829807 173.934452 
L 510.653892 173.934452 
z
" style="fill:#ffa07a;"/>
   </g>
   <g id="patch_62">
    <path clip-path="url(#pa04fee2c21)" d="M 527.123786 294.118125 
L 540.299701 294.118125 
L 540.299701 164.689554 
L 527.123786 164.689554 
z
" style="fill:#ffa07a;"/>
   </g>
   <g id="patch_63">
    <path clip-path="url(#pa04fee2c21)" d="M 543.59368 294.118125 
L 556.769595 294.118125 
L 556.769595 266.383431 
L 543.59368 266.383431 
z
" style="fill:#ffa07a;"/>
   </g>
   <g id="patch_64">
    <path clip-path="url(#pa04fee2c21)" d="M 560.063574 294.118125 
L 573.239489 294.118125 
L 573.239489 136.95486 
L 560.063574 136.95486 
z
" style="fill:#ffa07a;"/>
   </g>
   <g id="line2d_75">
    <path clip-path="url(#pa04fee2c21)" d="M 40.603125 164.689554 
L 598.603125 164.689554 
" style="fill:none;stroke:#008080;stroke-dasharray:5.55,2.4;stroke-dashoffset:0;stroke-width:1.5;"/>
   </g>
   <g id="line2d_76">
    <path clip-path="url(#pa04fee2c21)" d="M 40.603125 35.260982 
L 598.603125 35.260982 
" style="fill:none;stroke:#00ffff;stroke-dasharray:5.55,2.4;stroke-dashoffset:0;stroke-width:1.5;"/>
   </g>
   <g id="patch_65">
    <path d="M 40.603125 294.118125 
L 40.603125 22.318125 
" style="fill:none;stroke:#000000;stroke-linecap:square;stroke-linejoin:miter;stroke-width:0.8;"/>
   </g>
   <g id="patch_66">
    <path d="M 598.603125 294.118125 
L 598.603125 22.318125 
" style="fill:none;stroke:#000000;stroke-linecap:square;stroke-linejoin:miter;stroke-width:0.8;"/>
   </g>
   <g id="patch_67">
    <path d="M 40.603125 294.118125 
L 598.603125 294.118125 
" style="fill:none;stroke:#000000;stroke-linecap:square;stroke-linejoin:miter;stroke-width:0.8;"/>
   </g>
   <g id="patch_68">
    <path d="M 40.603125 22.318125 
L 598.603125 22.318125 
" style="fill:none;stroke:#000000;stroke-linecap:square;stroke-linejoin:miter;stroke-width:0.8;"/>
   </g>
   <g id="text_39">
    <!-- Days until being announced positive as of 12/04/2020 -->
    <defs>
     <path id="DejaVuSans-32"/>
     <path d="M 8.5 21.578125 
L 8.5 54.6875 
L 17.484375 54.6875 
L 17.484375 21.921875 
Q 17.484375 14.15625 20.5 10.265625 
Q 23.53125 6.390625 29.59375 6.390625 
Q 36.859375 6.390625 41.078125 11.03125 
Q 45.3125 15.671875 45.3125 23.6875 
L 45.3125 54.6875 
L 54.296875 54.6875 
L 54.296875 0 
L 45.3125 0 
L 45.3125 8.40625 
Q 42.046875 3.421875 37.71875 1 
Q 33.40625 -1.421875 27.6875 -1.421875 
Q 18.265625 -1.421875 13.375 4.4375 
Q 8.5 10.296875 8.5 21.578125 
z
M 31.109375 56 
z
" id="DejaVuSans-117"/>
     <path d="M 54.890625 33.015625 
L 54.890625 0 
L 45.90625 0 
L 45.90625 32.71875 
Q 45.90625 40.484375 42.875 44.328125 
Q 39.84375 48.1875 33.796875 48.1875 
Q 26.515625 48.1875 22.3125 43.546875 
Q 18.109375 38.921875 18.109375 30.90625 
L 18.109375 0 
L 9.078125 0 
L 9.078125 54.6875 
L 18.109375 54.6875 
L 18.109375 46.1875 
Q 21.34375 51.125 25.703125 53.5625 
Q 30.078125 56 35.796875 56 
Q 45.21875 56 50.046875 50.171875 
Q 54.890625 44.34375 54.890625 33.015625 
z
" id="DejaVuSans-110"/>
     <path d="M 18.3125 70.21875 
L 18.3125 54.6875 
L 36.8125 54.6875 
L 36.8125 47.703125 
L 18.3125 47.703125 
L 18.3125 18.015625 
Q 18.3125 11.328125 20.140625 9.421875 
Q 21.96875 7.515625 27.59375 7.515625 
L 36.8125 7.515625 
L 36.8125 0 
L 27.59375 0 
Q 17.1875 0 13.234375 3.875 
Q 9.28125 7.765625 9.28125 18.015625 
L 9.28125 47.703125 
L 2.6875 47.703125 
L 2.6875 54.6875 
L 9.28125 54.6875 
L 9.28125 70.21875 
z
" id="DejaVuSans-116"/>
     <path d="M 9.421875 54.6875 
L 18.40625 54.6875 
L 18.40625 0 
L 9.421875 0 
z
M 9.421875 75.984375 
L 18.40625 75.984375 
L 18.40625 64.59375 
L 9.421875 64.59375 
z
" id="DejaVuSans-105"/>
     <path d="M 9.421875 75.984375 
L 18.40625 75.984375 
L 18.40625 0 
L 9.421875 0 
z
" id="DejaVuSans-108"/>
     <path d="M 48.6875 27.296875 
Q 48.6875 37.203125 44.609375 42.84375 
Q 40.53125 48.484375 33.40625 48.484375 
Q 26.265625 48.484375 22.1875 42.84375 
Q 18.109375 37.203125 18.109375 27.296875 
Q 18.109375 17.390625 22.1875 11.75 
Q 26.265625 6.109375 33.40625 6.109375 
Q 40.53125 6.109375 44.609375 11.75 
Q 48.6875 17.390625 48.6875 27.296875 
z
M 18.109375 46.390625 
Q 20.953125 51.265625 25.265625 53.625 
Q 29.59375 56 35.59375 56 
Q 45.5625 56 51.78125 48.09375 
Q 58.015625 40.1875 58.015625 27.296875 
Q 58.015625 14.40625 51.78125 6.484375 
Q 45.5625 -1.421875 35.59375 -1.421875 
Q 29.59375 -1.421875 25.265625 0.953125 
Q 20.953125 3.328125 18.109375 8.203125 
L 18.109375 0 
L 9.078125 0 
L 9.078125 75.984375 
L 18.109375 75.984375 
z
" id="DejaVuSans-98"/>
     <path d="M 45.40625 27.984375 
Q 45.40625 37.75 41.375 43.109375 
Q 37.359375 48.484375 30.078125 48.484375 
Q 22.859375 48.484375 18.828125 43.109375 
Q 14.796875 37.75 14.796875 27.984375 
Q 14.796875 18.265625 18.828125 12.890625 
Q 22.859375 7.515625 30.078125 7.515625 
Q 37.359375 7.515625 41.375 12.890625 
Q 45.40625 18.265625 45.40625 27.984375 
z
M 54.390625 6.78125 
Q 54.390625 -7.171875 48.1875 -13.984375 
Q 42 -20.796875 29.203125 -20.796875 
Q 24.46875 -20.796875 20.265625 -20.09375 
Q 16.0625 -19.390625 12.109375 -17.921875 
L 12.109375 -9.1875 
Q 16.0625 -11.328125 19.921875 -12.34375 
Q 23.78125 -13.375 27.78125 -13.375 
Q 36.625 -13.375 41.015625 -8.765625 
Q 45.40625 -4.15625 45.40625 5.171875 
L 45.40625 9.625 
Q 42.625 4.78125 38.28125 2.390625 
Q 33.9375 0 27.875 0 
Q 17.828125 0 11.671875 7.65625 
Q 5.515625 15.328125 5.515625 27.984375 
Q 5.515625 40.671875 11.671875 48.328125 
Q 17.828125 56 27.875 56 
Q 33.9375 56 38.28125 53.609375 
Q 42.625 51.21875 45.40625 46.390625 
L 45.40625 54.6875 
L 54.390625 54.6875 
z
" id="DejaVuSans-103"/>
     <path d="M 30.609375 48.390625 
Q 23.390625 48.390625 19.1875 42.75 
Q 14.984375 37.109375 14.984375 27.296875 
Q 14.984375 17.484375 19.15625 11.84375 
Q 23.34375 6.203125 30.609375 6.203125 
Q 37.796875 6.203125 41.984375 11.859375 
Q 46.1875 17.53125 46.1875 27.296875 
Q 46.1875 37.015625 41.984375 42.703125 
Q 37.796875 48.390625 30.609375 48.390625 
z
M 30.609375 56 
Q 42.328125 56 49.015625 48.375 
Q 55.71875 40.765625 55.71875 27.296875 
Q 55.71875 13.875 49.015625 6.21875 
Q 42.328125 -1.421875 30.609375 -1.421875 
Q 18.84375 -1.421875 12.171875 6.21875 
Q 5.515625 13.875 5.515625 27.296875 
Q 5.515625 40.765625 12.171875 48.375 
Q 18.84375 56 30.609375 56 
z
" id="DejaVuSans-111"/>
     <path d="M 45.40625 46.390625 
L 45.40625 75.984375 
L 54.390625 75.984375 
L 54.390625 0 
L 45.40625 0 
L 45.40625 8.203125 
Q 42.578125 3.328125 38.25 0.953125 
Q 33.9375 -1.421875 27.875 -1.421875 
Q 17.96875 -1.421875 11.734375 6.484375 
Q 5.515625 14.40625 5.515625 27.296875 
Q 5.515625 40.1875 11.734375 48.09375 
Q 17.96875 56 27.875 56 
Q 33.9375 56 38.25 53.625 
Q 42.578125 51.265625 45.40625 46.390625 
z
M 14.796875 27.296875 
Q 14.796875 17.390625 18.875 11.75 
Q 22.953125 6.109375 30.078125 6.109375 
Q 37.203125 6.109375 41.296875 11.75 
Q 45.40625 17.390625 45.40625 27.296875 
Q 45.40625 37.203125 41.296875 42.84375 
Q 37.203125 48.484375 30.078125 48.484375 
Q 22.953125 48.484375 18.875 42.84375 
Q 14.796875 37.203125 14.796875 27.296875 
z
" id="DejaVuSans-100"/>
     <path d="M 18.109375 8.203125 
L 18.109375 -20.796875 
L 9.078125 -20.796875 
L 9.078125 54.6875 
L 18.109375 54.6875 
L 18.109375 46.390625 
Q 20.953125 51.265625 25.265625 53.625 
Q 29.59375 56 35.59375 56 
Q 45.5625 56 51.78125 48.09375 
Q 58.015625 40.1875 58.015625 27.296875 
Q 58.015625 14.40625 51.78125 6.484375 
Q 45.5625 -1.421875 35.59375 -1.421875 
Q 29.59375 -1.421875 25.265625 0.953125 
Q 20.953125 3.328125 18.109375 8.203125 
z
M 48.6875 27.296875 
Q 48.6875 37.203125 44.609375 42.84375 
Q 40.53125 48.484375 33.40625 48.484375 
Q 26.265625 48.484375 22.1875 42.84375 
Q 18.109375 37.203125 18.109375 27.296875 
Q 18.109375 17.390625 22.1875 11.75 
Q 26.265625 6.109375 33.40625 6.109375 
Q 40.53125 6.109375 44.609375 11.75 
Q 48.6875 17.390625 48.6875 27.296875 
z
" id="DejaVuSans-112"/>
     <path d="M 2.984375 54.6875 
L 12.5 54.6875 
L 29.59375 8.796875 
L 46.6875 54.6875 
L 56.203125 54.6875 
L 35.6875 0 
L 23.484375 0 
z
" id="DejaVuSans-118"/>
     <path d="M 37.109375 75.984375 
L 37.109375 68.5 
L 28.515625 68.5 
Q 23.6875 68.5 21.796875 66.546875 
Q 19.921875 64.59375 19.921875 59.515625 
L 19.921875 54.6875 
L 34.71875 54.6875 
L 34.71875 47.703125 
L 19.921875 47.703125 
L 19.921875 0 
L 10.890625 0 
L 10.890625 47.703125 
L 2.296875 47.703125 
L 2.296875 54.6875 
L 10.890625 54.6875 
L 10.890625 58.5 
Q 10.890625 67.625 15.140625 71.796875 
Q 19.390625 75.984375 28.609375 75.984375 
z
" id="DejaVuSans-102"/>
     <path d="M 25.390625 72.90625 
L 33.6875 72.90625 
L 8.296875 -9.28125 
L 0 -9.28125 
z
" id="DejaVuSans-47"/>
    </defs>
    <g transform="translate(157.149375 16.318125)scale(0.12 -0.12)">
     <use xlink:href="#DejaVuSans-68"/>
     <use x="77.001953" xlink:href="#DejaVuSans-97"/>
     <use x="138.28125" xlink:href="#DejaVuSans-121"/>
     <use x="197.460938" xlink:href="#DejaVuSans-115"/>
     <use x="249.560547" xlink:href="#DejaVuSans-32"/>
     <use x="281.347656" xlink:href="#DejaVuSans-117"/>
     <use x="344.726562" xlink:href="#DejaVuSans-110"/>
     <use x="408.105469" xlink:href="#DejaVuSans-116"/>
     <use x="447.314453" xlink:href="#DejaVuSans-105"/>
     <use x="475.097656" xlink:href="#DejaVuSans-108"/>
     <use x="502.880859" xlink:href="#DejaVuSans-32"/>
     <use x="534.667969" xlink:href="#DejaVuSans-98"/>
     <use x="598.144531" xlink:href="#DejaVuSans-101"/>
     <use x="659.667969" xlink:href="#DejaVuSans-105"/>
     <use x="687.451172" xlink:href="#DejaVuSans-110"/>
     <use x="750.830078" xlink:href="#DejaVuSans-103"/>
     <use x="814.306641" xlink:href="#DejaVuSans-32"/>
     <use x="846.09375" xlink:href="#DejaVuSans-97"/>
     <use x="907.373047" xlink:href="#DejaVuSans-110"/>
     <use x="970.751953" xlink:href="#DejaVuSans-110"/>
     <use x="1034.130859" xlink:href="#DejaVuSans-111"/>
     <use x="1095.3125" xlink:href="#DejaVuSans-117"/>
     <use x="1158.691406" xlink:href="#DejaVuSans-110"/>
     <use x="1222.070312" xlink:href="#DejaVuSans-99"/>
     <use x="1277.050781" xlink:href="#DejaVuSans-101"/>
     <use x="1338.574219" xlink:href="#DejaVuSans-100"/>
     <use x="1402.050781" xlink:href="#DejaVuSans-32"/>
     <use x="1433.837891" xlink:href="#DejaVuSans-112"/>
     <use x="1497.314453" xlink:href="#DejaVuSans-111"/>
     <use x="1558.496094" xlink:href="#DejaVuSans-115"/>
     <use x="1610.595703" xlink:href="#DejaVuSans-105"/>
     <use x="1638.378906" xlink:href="#DejaVuSans-116"/>
     <use x="1677.587891" xlink:href="#DejaVuSans-105"/>
     <use x="1705.371094" xlink:href="#DejaVuSans-118"/>
     <use x="1764.550781" xlink:href="#DejaVuSans-101"/>
     <use x="1826.074219" xlink:href="#DejaVuSans-32"/>
     <use x="1857.861328" xlink:href="#DejaVuSans-97"/>
     <use x="1919.140625" xlink:href="#DejaVuSans-115"/>
     <use x="1971.240234" xlink:href="#DejaVuSans-32"/>
     <use x="2003.027344" xlink:href="#DejaVuSans-111"/>
     <use x="2064.208984" xlink:href="#DejaVuSans-102"/>
     <use x="2099.414062" xlink:href="#DejaVuSans-32"/>
     <use x="2131.201172" xlink:href="#DejaVuSans-49"/>
     <use x="2194.824219" xlink:href="#DejaVuSans-50"/>
     <use x="2258.447266" xlink:href="#DejaVuSans-47"/>
     <use x="2292.138672" xlink:href="#DejaVuSans-48"/>
     <use x="2355.761719" xlink:href="#DejaVuSans-52"/>
     <use x="2419.384766" xlink:href="#DejaVuSans-47"/>
     <use x="2453.076172" xlink:href="#DejaVuSans-50"/>
     <use x="2516.699219" xlink:href="#DejaVuSans-48"/>
     <use x="2580.322266" xlink:href="#DejaVuSans-50"/>
     <use x="2643.945312" xlink:href="#DejaVuSans-48"/>
    </g>
   </g>
   <g id="legend_1">
    <g id="patch_69">
     <path d="M 605.603125 89.030625 
L 953.265625 89.030625 
Q 955.265625 89.030625 955.265625 87.030625 
L 955.265625 29.318125 
Q 955.265625 27.318125 953.265625 27.318125 
L 605.603125 27.318125 
Q 603.603125 27.318125 603.603125 29.318125 
L 603.603125 87.030625 
Q 603.603125 89.030625 605.603125 89.030625 
z
" style="fill:#ffffff;opacity:0.8;stroke:#cccccc;stroke-linejoin:miter;"/>
    </g>
    <g id="patch_70">
     <path d="M 607.603125 38.916563 
L 627.603125 38.916563 
L 627.603125 31.916563 
L 607.603125 31.916563 
z
" style="fill:#ff6347;"/>
    </g>
    <g id="text_40">
     <!-- Days until hospital quarantine -->
     <defs>
      <path d="M 54.890625 33.015625 
L 54.890625 0 
L 45.90625 0 
L 45.90625 32.71875 
Q 45.90625 40.484375 42.875 44.328125 
Q 39.84375 48.1875 33.796875 48.1875 
Q 26.515625 48.1875 22.3125 43.546875 
Q 18.109375 38.921875 18.109375 30.90625 
L 18.109375 0 
L 9.078125 0 
L 9.078125 75.984375 
L 18.109375 75.984375 
L 18.109375 46.1875 
Q 21.34375 51.125 25.703125 53.5625 
Q 30.078125 56 35.796875 56 
Q 45.21875 56 50.046875 50.171875 
Q 54.890625 44.34375 54.890625 33.015625 
z
" id="DejaVuSans-104"/>
      <path d="M 14.796875 27.296875 
Q 14.796875 17.390625 18.875 11.75 
Q 22.953125 6.109375 30.078125 6.109375 
Q 37.203125 6.109375 41.296875 11.75 
Q 45.40625 17.390625 45.40625 27.296875 
Q 45.40625 37.203125 41.296875 42.84375 
Q 37.203125 48.484375 30.078125 48.484375 
Q 22.953125 48.484375 18.875 42.84375 
Q 14.796875 37.203125 14.796875 27.296875 
z
M 45.40625 8.203125 
Q 42.578125 3.328125 38.25 0.953125 
Q 33.9375 -1.421875 27.875 -1.421875 
Q 17.96875 -1.421875 11.734375 6.484375 
Q 5.515625 14.40625 5.515625 27.296875 
Q 5.515625 40.1875 11.734375 48.09375 
Q 17.96875 56 27.875 56 
Q 33.9375 56 38.25 53.625 
Q 42.578125 51.265625 45.40625 46.390625 
L 45.40625 54.6875 
L 54.390625 54.6875 
L 54.390625 -20.796875 
L 45.40625 -20.796875 
z
" id="DejaVuSans-113"/>
      <path d="M 41.109375 46.296875 
Q 39.59375 47.171875 37.8125 47.578125 
Q 36.03125 48 33.890625 48 
Q 26.265625 48 22.1875 43.046875 
Q 18.109375 38.09375 18.109375 28.8125 
L 18.109375 0 
L 9.078125 0 
L 9.078125 54.6875 
L 18.109375 54.6875 
L 18.109375 46.1875 
Q 20.953125 51.171875 25.484375 53.578125 
Q 30.03125 56 36.53125 56 
Q 37.453125 56 38.578125 55.875 
Q 39.703125 55.765625 41.0625 55.515625 
z
" id="DejaVuSans-114"/>
     </defs>
     <g transform="translate(635.603125 38.916563)scale(0.1 -0.1)">
      <use xlink:href="#DejaVuSans-68"/>
      <use x="77.001953" xlink:href="#DejaVuSans-97"/>
      <use x="138.28125" xlink:href="#DejaVuSans-121"/>
      <use x="197.460938" xlink:href="#DejaVuSans-115"/>
      <use x="249.560547" xlink:href="#DejaVuSans-32"/>
      <use x="281.347656" xlink:href="#DejaVuSans-117"/>
      <use x="344.726562" xlink:href="#DejaVuSans-110"/>
      <use x="408.105469" xlink:href="#DejaVuSans-116"/>
      <use x="447.314453" xlink:href="#DejaVuSans-105"/>
      <use x="475.097656" xlink:href="#DejaVuSans-108"/>
      <use x="502.880859" xlink:href="#DejaVuSans-32"/>
      <use x="534.667969" xlink:href="#DejaVuSans-104"/>
      <use x="598.046875" xlink:href="#DejaVuSans-111"/>
      <use x="659.228516" xlink:href="#DejaVuSans-115"/>
      <use x="711.328125" xlink:href="#DejaVuSans-112"/>
      <use x="774.804688" xlink:href="#DejaVuSans-105"/>
      <use x="802.587891" xlink:href="#DejaVuSans-116"/>
      <use x="841.796875" xlink:href="#DejaVuSans-97"/>
      <use x="903.076172" xlink:href="#DejaVuSans-108"/>
      <use x="930.859375" xlink:href="#DejaVuSans-32"/>
      <use x="962.646484" xlink:href="#DejaVuSans-113"/>
      <use x="1026.123047" xlink:href="#DejaVuSans-117"/>
      <use x="1089.501953" xlink:href="#DejaVuSans-97"/>
      <use x="1150.78125" xlink:href="#DejaVuSans-114"/>
      <use x="1191.894531" xlink:href="#DejaVuSans-97"/>
      <use x="1253.173828" xlink:href="#DejaVuSans-110"/>
      <use x="1316.552734" xlink:href="#DejaVuSans-116"/>
      <use x="1355.761719" xlink:href="#DejaVuSans-105"/>
      <use x="1383.544922" xlink:href="#DejaVuSans-110"/>
      <use x="1446.923828" xlink:href="#DejaVuSans-101"/>
     </g>
    </g>
    <g id="patch_71">
     <path d="M 607.603125 53.594688 
L 627.603125 53.594688 
L 627.603125 46.594688 
L 607.603125 46.594688 
z
" style="fill:#ffa07a;"/>
    </g>
    <g id="text_41">
     <!-- Days until announcement -->
     <defs>
      <path d="M 52 44.1875 
Q 55.375 50.25 60.0625 53.125 
Q 64.75 56 71.09375 56 
Q 79.640625 56 84.28125 50.015625 
Q 88.921875 44.046875 88.921875 33.015625 
L 88.921875 0 
L 79.890625 0 
L 79.890625 32.71875 
Q 79.890625 40.578125 77.09375 44.375 
Q 74.3125 48.1875 68.609375 48.1875 
Q 61.625 48.1875 57.5625 43.546875 
Q 53.515625 38.921875 53.515625 30.90625 
L 53.515625 0 
L 44.484375 0 
L 44.484375 32.71875 
Q 44.484375 40.625 41.703125 44.40625 
Q 38.921875 48.1875 33.109375 48.1875 
Q 26.21875 48.1875 22.15625 43.53125 
Q 18.109375 38.875 18.109375 30.90625 
L 18.109375 0 
L 9.078125 0 
L 9.078125 54.6875 
L 18.109375 54.6875 
L 18.109375 46.1875 
Q 21.1875 51.21875 25.484375 53.609375 
Q 29.78125 56 35.6875 56 
Q 41.65625 56 45.828125 52.96875 
Q 50 49.953125 52 44.1875 
z
" id="DejaVuSans-109"/>
     </defs>
     <g transform="translate(635.603125 53.594688)scale(0.1 -0.1)">
      <use xlink:href="#DejaVuSans-68"/>
      <use x="77.001953" xlink:href="#DejaVuSans-97"/>
      <use x="138.28125" xlink:href="#DejaVuSans-121"/>
      <use x="197.460938" xlink:href="#DejaVuSans-115"/>
      <use x="249.560547" xlink:href="#DejaVuSans-32"/>
      <use x="281.347656" xlink:href="#DejaVuSans-117"/>
      <use x="344.726562" xlink:href="#DejaVuSans-110"/>
      <use x="408.105469" xlink:href="#DejaVuSans-116"/>
      <use x="447.314453" xlink:href="#DejaVuSans-105"/>
      <use x="475.097656" xlink:href="#DejaVuSans-108"/>
      <use x="502.880859" xlink:href="#DejaVuSans-32"/>
      <use x="534.667969" xlink:href="#DejaVuSans-97"/>
      <use x="595.947266" xlink:href="#DejaVuSans-110"/>
      <use x="659.326172" xlink:href="#DejaVuSans-110"/>
      <use x="722.705078" xlink:href="#DejaVuSans-111"/>
      <use x="783.886719" xlink:href="#DejaVuSans-117"/>
      <use x="847.265625" xlink:href="#DejaVuSans-110"/>
      <use x="910.644531" xlink:href="#DejaVuSans-99"/>
      <use x="965.625" xlink:href="#DejaVuSans-101"/>
      <use x="1027.148438" xlink:href="#DejaVuSans-109"/>
      <use x="1124.560547" xlink:href="#DejaVuSans-101"/>
      <use x="1186.083984" xlink:href="#DejaVuSans-110"/>
      <use x="1249.462891" xlink:href="#DejaVuSans-116"/>
     </g>
    </g>
    <g id="line2d_77">
     <path d="M 607.603125 64.772813 
L 627.603125 64.772813 
" style="fill:none;stroke:#008080;stroke-dasharray:5.55,2.4;stroke-dashoffset:0;stroke-width:1.5;"/>
    </g>
    <g id="line2d_78"/>
    <g id="text_42">
     <!-- Incubation period was assumed to be 14 days -->
     <defs>
      <path d="M 9.8125 72.90625 
L 19.671875 72.90625 
L 19.671875 0 
L 9.8125 0 
z
" id="DejaVuSans-73"/>
      <path d="M 4.203125 54.6875 
L 13.1875 54.6875 
L 24.421875 12.015625 
L 35.59375 54.6875 
L 46.1875 54.6875 
L 57.421875 12.015625 
L 68.609375 54.6875 
L 77.59375 54.6875 
L 63.28125 0 
L 52.6875 0 
L 40.921875 44.828125 
L 29.109375 0 
L 18.5 0 
z
" id="DejaVuSans-119"/>
     </defs>
     <g transform="translate(635.603125 68.272813)scale(0.1 -0.1)">
      <use xlink:href="#DejaVuSans-73"/>
      <use x="29.492188" xlink:href="#DejaVuSans-110"/>
      <use x="92.871094" xlink:href="#DejaVuSans-99"/>
      <use x="147.851562" xlink:href="#DejaVuSans-117"/>
      <use x="211.230469" xlink:href="#DejaVuSans-98"/>
      <use x="274.707031" xlink:href="#DejaVuSans-97"/>
      <use x="335.986328" xlink:href="#DejaVuSans-116"/>
      <use x="375.195312" xlink:href="#DejaVuSans-105"/>
      <use x="402.978516" xlink:href="#DejaVuSans-111"/>
      <use x="464.160156" xlink:href="#DejaVuSans-110"/>
      <use x="527.539062" xlink:href="#DejaVuSans-32"/>
      <use x="559.326172" xlink:href="#DejaVuSans-112"/>
      <use x="622.802734" xlink:href="#DejaVuSans-101"/>
      <use x="684.326172" xlink:href="#DejaVuSans-114"/>
      <use x="725.439453" xlink:href="#DejaVuSans-105"/>
      <use x="753.222656" xlink:href="#DejaVuSans-111"/>
      <use x="814.404297" xlink:href="#DejaVuSans-100"/>
      <use x="877.880859" xlink:href="#DejaVuSans-32"/>
      <use x="909.667969" xlink:href="#DejaVuSans-119"/>
      <use x="991.455078" xlink:href="#DejaVuSans-97"/>
      <use x="1052.734375" xlink:href="#DejaVuSans-115"/>
      <use x="1104.833984" xlink:href="#DejaVuSans-32"/>
      <use x="1136.621094" xlink:href="#DejaVuSans-97"/>
      <use x="1197.900391" xlink:href="#DejaVuSans-115"/>
      <use x="1250" xlink:href="#DejaVuSans-115"/>
      <use x="1302.099609" xlink:href="#DejaVuSans-117"/>
      <use x="1365.478516" xlink:href="#DejaVuSans-109"/>
      <use x="1462.890625" xlink:href="#DejaVuSans-101"/>
      <use x="1524.414062" xlink:href="#DejaVuSans-100"/>
      <use x="1587.890625" xlink:href="#DejaVuSans-32"/>
      <use x="1619.677734" xlink:href="#DejaVuSans-116"/>
      <use x="1658.886719" xlink:href="#DejaVuSans-111"/>
      <use x="1720.068359" xlink:href="#DejaVuSans-32"/>
      <use x="1751.855469" xlink:href="#DejaVuSans-98"/>
      <use x="1815.332031" xlink:href="#DejaVuSans-101"/>
      <use x="1876.855469" xlink:href="#DejaVuSans-32"/>
      <use x="1908.642578" xlink:href="#DejaVuSans-49"/>
      <use x="1972.265625" xlink:href="#DejaVuSans-52"/>
      <use x="2035.888672" xlink:href="#DejaVuSans-32"/>
      <use x="2067.675781" xlink:href="#DejaVuSans-100"/>
      <use x="2131.152344" xlink:href="#DejaVuSans-97"/>
      <use x="2192.431641" xlink:href="#DejaVuSans-121"/>
      <use x="2251.611328" xlink:href="#DejaVuSans-115"/>
     </g>
    </g>
    <g id="line2d_79">
     <path d="M 607.603125 79.450938 
L 627.603125 79.450938 
" style="fill:none;stroke:#00ffff;stroke-dasharray:5.55,2.4;stroke-dashoffset:0;stroke-width:1.5;"/>
    </g>
    <g id="line2d_80"/>
    <g id="text_43">
     <!-- As of 11/4/2020, incubation period is readjusted to be 28 days  -->
     <defs>
      <path d="M 34.1875 63.1875 
L 20.796875 26.90625 
L 47.609375 26.90625 
z
M 28.609375 72.90625 
L 39.796875 72.90625 
L 67.578125 0 
L 57.328125 0 
L 50.6875 18.703125 
L 17.828125 18.703125 
L 11.1875 0 
L 0.78125 0 
z
" id="DejaVuSans-65"/>
      <path d="M 11.71875 12.40625 
L 22.015625 12.40625 
L 22.015625 4 
L 14.015625 -11.625 
L 7.71875 -11.625 
L 11.71875 4 
z
" id="DejaVuSans-44"/>
      <path d="M 9.421875 54.6875 
L 18.40625 54.6875 
L 18.40625 -0.984375 
Q 18.40625 -11.421875 14.421875 -16.109375 
Q 10.453125 -20.796875 1.609375 -20.796875 
L -1.8125 -20.796875 
L -1.8125 -13.1875 
L 0.59375 -13.1875 
Q 5.71875 -13.1875 7.5625 -10.8125 
Q 9.421875 -8.453125 9.421875 -0.984375 
z
M 9.421875 75.984375 
L 18.40625 75.984375 
L 18.40625 64.59375 
L 9.421875 64.59375 
z
" id="DejaVuSans-106"/>
     </defs>
     <g transform="translate(635.603125 82.950938)scale(0.1 -0.1)">
      <use xlink:href="#DejaVuSans-65"/>
      <use x="68.408203" xlink:href="#DejaVuSans-115"/>
      <use x="120.507812" xlink:href="#DejaVuSans-32"/>
      <use x="152.294922" xlink:href="#DejaVuSans-111"/>
      <use x="213.476562" xlink:href="#DejaVuSans-102"/>
      <use x="248.681641" xlink:href="#DejaVuSans-32"/>
      <use x="280.46875" xlink:href="#DejaVuSans-49"/>
      <use x="344.091797" xlink:href="#DejaVuSans-49"/>
      <use x="407.714844" xlink:href="#DejaVuSans-47"/>
      <use x="441.40625" xlink:href="#DejaVuSans-52"/>
      <use x="505.029297" xlink:href="#DejaVuSans-47"/>
      <use x="538.720703" xlink:href="#DejaVuSans-50"/>
      <use x="602.34375" xlink:href="#DejaVuSans-48"/>
      <use x="665.966797" xlink:href="#DejaVuSans-50"/>
      <use x="729.589844" xlink:href="#DejaVuSans-48"/>
      <use x="793.212891" xlink:href="#DejaVuSans-44"/>
      <use x="825" xlink:href="#DejaVuSans-32"/>
      <use x="856.787109" xlink:href="#DejaVuSans-105"/>
      <use x="884.570312" xlink:href="#DejaVuSans-110"/>
      <use x="947.949219" xlink:href="#DejaVuSans-99"/>
      <use x="1002.929688" xlink:href="#DejaVuSans-117"/>
      <use x="1066.308594" xlink:href="#DejaVuSans-98"/>
      <use x="1129.785156" xlink:href="#DejaVuSans-97"/>
      <use x="1191.064453" xlink:href="#DejaVuSans-116"/>
      <use x="1230.273438" xlink:href="#DejaVuSans-105"/>
      <use x="1258.056641" xlink:href="#DejaVuSans-111"/>
      <use x="1319.238281" xlink:href="#DejaVuSans-110"/>
      <use x="1382.617188" xlink:href="#DejaVuSans-32"/>
      <use x="1414.404297" xlink:href="#DejaVuSans-112"/>
      <use x="1477.880859" xlink:href="#DejaVuSans-101"/>
      <use x="1539.404297" xlink:href="#DejaVuSans-114"/>
      <use x="1580.517578" xlink:href="#DejaVuSans-105"/>
      <use x="1608.300781" xlink:href="#DejaVuSans-111"/>
      <use x="1669.482422" xlink:href="#DejaVuSans-100"/>
      <use x="1732.958984" xlink:href="#DejaVuSans-32"/>
      <use x="1764.746094" xlink:href="#DejaVuSans-105"/>
      <use x="1792.529297" xlink:href="#DejaVuSans-115"/>
      <use x="1844.628906" xlink:href="#DejaVuSans-32"/>
      <use x="1876.416016" xlink:href="#DejaVuSans-114"/>
      <use x="1915.279297" xlink:href="#DejaVuSans-101"/>
      <use x="1976.802734" xlink:href="#DejaVuSans-97"/>
      <use x="2038.082031" xlink:href="#DejaVuSans-100"/>
      <use x="2101.558594" xlink:href="#DejaVuSans-106"/>
      <use x="2129.341797" xlink:href="#DejaVuSans-117"/>
      <use x="2192.720703" xlink:href="#DejaVuSans-115"/>
      <use x="2244.820312" xlink:href="#DejaVuSans-116"/>
      <use x="2284.029297" xlink:href="#DejaVuSans-101"/>
      <use x="2345.552734" xlink:href="#DejaVuSans-100"/>
      <use x="2409.029297" xlink:href="#DejaVuSans-32"/>
      <use x="2440.816406" xlink:href="#DejaVuSans-116"/>
      <use x="2480.025391" xlink:href="#DejaVuSans-111"/>
      <use x="2541.207031" xlink:href="#DejaVuSans-32"/>
      <use x="2572.994141" xlink:href="#DejaVuSans-98"/>
      <use x="2636.470703" xlink:href="#DejaVuSans-101"/>
      <use x="2697.994141" xlink:href="#DejaVuSans-32"/>
      <use x="2729.78125" xlink:href="#DejaVuSans-50"/>
      <use x="2793.404297" xlink:href="#DejaVuSans-56"/>
      <use x="2857.027344" xlink:href="#DejaVuSans-32"/>
      <use x="2888.814453" xlink:href="#DejaVuSans-100"/>
      <use x="2952.291016" xlink:href="#DejaVuSans-97"/>
      <use x="3013.570312" xlink:href="#DejaVuSans-121"/>
      <use x="3072.75" xlink:href="#DejaVuSans-115"/>
      <use x="3124.849609" xlink:href="#DejaVuSans-32"/>
     </g>
    </g>
   </g>
  </g>
 </g>
 <defs>
  <clipPath id="pa04fee2c21">
   <rect height="271.8" width="558" x="40.603125" y="22.318125"/>
  </clipPath>
 </defs>
</svg>
