<?xml version="1.0" encoding="utf-8" standalone="no"?>
<!DOCTYPE svg PUBLIC "-//W3C//DTD SVG 1.1//EN"
  "http://www.w3.org/Graphics/SVG/1.1/DTD/svg11.dtd">
<!-- Created with matplotlib (https://matplotlib.org/) -->
<svg height="294.672188pt" version="1.1" viewBox="0 0 552.467188 294.672188" width="552.467188pt" xmlns="http://www.w3.org/2000/svg" xmlns:xlink="http://www.w3.org/1999/xlink">
 <defs>
  <style type="text/css">
*{stroke-linecap:butt;stroke-linejoin:round;}
  </style>
 </defs>
 <g id="figure_1">
  <g id="patch_1">
   <path d="M 0 294.672188 
L 552.467188 294.672188 
L 552.467188 0 
L 0 0 
z
" style="fill:#ffffff;"/>
  </g>
  <g id="axes_1">
   <g id="patch_2">
    <path d="M 40.603125 239.758125 
L 375.403125 239.758125 
L 375.403125 22.318125 
L 40.603125 22.318125 
z
" style="fill:#ffffff;"/>
   </g>
   <g id="patch_3">
    <path clip-path="url(#p156cbcba23)" d="M 55.821307 239.758125 
L 68.118827 239.758125 
L 68.118827 142.306024 
L 55.821307 142.306024 
z
" style="fill:#ff6347;"/>
   </g>
   <g id="patch_4">
    <path clip-path="url(#p156cbcba23)" d="M 71.193208 239.758125 
L 83.490728 239.758125 
L 83.490728 227.576612 
L 71.193208 227.576612 
z
" style="fill:#ff6347;"/>
   </g>
   <g id="patch_5">
    <path clip-path="url(#p156cbcba23)" d="M 86.565108 239.758125 
L 98.862629 239.758125 
L 98.862629 215.3951 
L 86.565108 215.3951 
z
" style="fill:#ff6347;"/>
   </g>
   <g id="patch_6">
    <path clip-path="url(#p156cbcba23)" d="M 101.937009 239.758125 
L 114.23453 239.758125 
L 114.23453 166.669049 
L 101.937009 166.669049 
z
" style="fill:#ff6347;"/>
   </g>
   <g id="patch_7">
    <path clip-path="url(#p156cbcba23)" d="M 117.30891 239.758125 
L 129.606431 239.758125 
L 129.606431 105.761486 
L 117.30891 105.761486 
z
" style="fill:#ff6347;"/>
   </g>
   <g id="patch_8">
    <path clip-path="url(#p156cbcba23)" d="M 132.680811 239.758125 
L 144.978332 239.758125 
L 144.978332 178.850562 
L 132.680811 178.850562 
z
" style="fill:#ff6347;"/>
   </g>
   <g id="patch_9">
    <path clip-path="url(#p156cbcba23)" d="M 148.052712 239.758125 
L 160.350232 239.758125 
L 160.350232 142.306024 
L 148.052712 142.306024 
z
" style="fill:#ff6347;"/>
   </g>
   <g id="patch_10">
    <path clip-path="url(#p156cbcba23)" d="M 163.424613 239.758125 
L 175.722133 239.758125 
L 175.722133 227.576612 
L 163.424613 227.576612 
z
" style="fill:#ff6347;"/>
   </g>
   <g id="patch_11">
    <path clip-path="url(#p156cbcba23)" d="M 178.796513 239.758125 
L 191.094034 239.758125 
L 191.094034 203.213587 
L 178.796513 203.213587 
z
" style="fill:#ff6347;"/>
   </g>
   <g id="patch_12">
    <path clip-path="url(#p156cbcba23)" d="M 194.168414 239.758125 
L 206.465935 239.758125 
L 206.465935 239.758125 
L 194.168414 239.758125 
z
" style="fill:#ff6347;"/>
   </g>
   <g id="patch_13">
    <path clip-path="url(#p156cbcba23)" d="M 209.540315 239.758125 
L 221.837836 239.758125 
L 221.837836 239.758125 
L 209.540315 239.758125 
z
" style="fill:#ff6347;"/>
   </g>
   <g id="patch_14">
    <path clip-path="url(#p156cbcba23)" d="M 224.912216 239.758125 
L 237.209737 239.758125 
L 237.209737 239.758125 
L 224.912216 239.758125 
z
" style="fill:#ff6347;"/>
   </g>
   <g id="patch_15">
    <path clip-path="url(#p156cbcba23)" d="M 240.284117 239.758125 
L 252.581637 239.758125 
L 252.581637 239.758125 
L 240.284117 239.758125 
z
" style="fill:#ff6347;"/>
   </g>
   <g id="patch_16">
    <path clip-path="url(#p156cbcba23)" d="M 255.656018 239.758125 
L 267.953538 239.758125 
L 267.953538 203.213587 
L 255.656018 203.213587 
z
" style="fill:#ff6347;"/>
   </g>
   <g id="patch_17">
    <path clip-path="url(#p156cbcba23)" d="M 271.027918 239.758125 
L 283.325439 239.758125 
L 283.325439 203.213587 
L 271.027918 203.213587 
z
" style="fill:#ff6347;"/>
   </g>
   <g id="patch_18">
    <path clip-path="url(#p156cbcba23)" d="M 286.399819 239.758125 
L 298.69734 239.758125 
L 298.69734 44.853923 
L 286.399819 44.853923 
z
" style="fill:#ff6347;"/>
   </g>
   <g id="patch_19">
    <path clip-path="url(#p156cbcba23)" d="M 301.77172 239.758125 
L 314.069241 239.758125 
L 314.069241 227.576612 
L 301.77172 227.576612 
z
" style="fill:#ff6347;"/>
   </g>
   <g id="patch_20">
    <path clip-path="url(#p156cbcba23)" d="M 317.143621 239.758125 
L 329.441142 239.758125 
L 329.441142 227.576612 
L 317.143621 227.576612 
z
" style="fill:#ff6347;"/>
   </g>
   <g id="patch_21">
    <path clip-path="url(#p156cbcba23)" d="M 332.515522 239.758125 
L 344.813042 239.758125 
L 344.813042 227.576612 
L 332.515522 227.576612 
z
" style="fill:#ff6347;"/>
   </g>
   <g id="patch_22">
    <path clip-path="url(#p156cbcba23)" d="M 347.887423 239.758125 
L 360.184943 239.758125 
L 360.184943 227.576612 
L 347.887423 227.576612 
z
" style="fill:#ff6347;"/>
   </g>
   <g id="patch_23">
    <path clip-path="url(#p156cbcba23)" d="M 55.821307 142.306024 
L 68.118827 142.306024 
L 68.118827 117.942999 
L 55.821307 117.942999 
z
" style="fill:#ffa07a;"/>
   </g>
   <g id="patch_24">
    <path clip-path="url(#p156cbcba23)" d="M 71.193208 227.576612 
L 83.490728 227.576612 
L 83.490728 227.576612 
L 71.193208 227.576612 
z
" style="fill:#ffa07a;"/>
   </g>
   <g id="patch_25">
    <path clip-path="url(#p156cbcba23)" d="M 86.565108 215.3951 
L 98.862629 215.3951 
L 98.862629 191.032075 
L 86.565108 191.032075 
z
" style="fill:#ffa07a;"/>
   </g>
   <g id="patch_26">
    <path clip-path="url(#p156cbcba23)" d="M 101.937009 166.669049 
L 114.23453 166.669049 
L 114.23453 142.306024 
L 101.937009 142.306024 
z
" style="fill:#ffa07a;"/>
   </g>
   <g id="patch_27">
    <path clip-path="url(#p156cbcba23)" d="M 117.30891 105.761486 
L 129.606431 105.761486 
L 129.606431 81.398461 
L 117.30891 81.398461 
z
" style="fill:#ffa07a;"/>
   </g>
   <g id="patch_28">
    <path clip-path="url(#p156cbcba23)" d="M 132.680811 178.850562 
L 144.978332 178.850562 
L 144.978332 154.487537 
L 132.680811 154.487537 
z
" style="fill:#ffa07a;"/>
   </g>
   <g id="patch_29">
    <path clip-path="url(#p156cbcba23)" d="M 148.052712 142.306024 
L 160.350232 142.306024 
L 160.350232 117.942999 
L 148.052712 117.942999 
z
" style="fill:#ffa07a;"/>
   </g>
   <g id="patch_30">
    <path clip-path="url(#p156cbcba23)" d="M 163.424613 227.576612 
L 175.722133 227.576612 
L 175.722133 203.213587 
L 163.424613 203.213587 
z
" style="fill:#ffa07a;"/>
   </g>
   <g id="patch_31">
    <path clip-path="url(#p156cbcba23)" d="M 178.796513 203.213587 
L 191.094034 203.213587 
L 191.094034 166.669049 
L 178.796513 166.669049 
z
" style="fill:#ffa07a;"/>
   </g>
   <g id="patch_32">
    <path clip-path="url(#p156cbcba23)" d="M 194.168414 239.758125 
L 206.465935 239.758125 
L 206.465935 227.576612 
L 194.168414 227.576612 
z
" style="fill:#ffa07a;"/>
   </g>
   <g id="patch_33">
    <path clip-path="url(#p156cbcba23)" d="M 209.540315 239.758125 
L 221.837836 239.758125 
L 221.837836 215.3951 
L 209.540315 215.3951 
z
" style="fill:#ffa07a;"/>
   </g>
   <g id="patch_34">
    <path clip-path="url(#p156cbcba23)" d="M 224.912216 239.758125 
L 237.209737 239.758125 
L 237.209737 215.3951 
L 224.912216 215.3951 
z
" style="fill:#ffa07a;"/>
   </g>
   <g id="patch_35">
    <path clip-path="url(#p156cbcba23)" d="M 240.284117 239.758125 
L 252.581637 239.758125 
L 252.581637 215.3951 
L 240.284117 215.3951 
z
" style="fill:#ffa07a;"/>
   </g>
   <g id="patch_36">
    <path clip-path="url(#p156cbcba23)" d="M 255.656018 203.213587 
L 267.953538 203.213587 
L 267.953538 178.850562 
L 255.656018 178.850562 
z
" style="fill:#ffa07a;"/>
   </g>
   <g id="patch_37">
    <path clip-path="url(#p156cbcba23)" d="M 271.027918 203.213587 
L 283.325439 203.213587 
L 283.325439 203.213587 
L 271.027918 203.213587 
z
" style="fill:#ffa07a;"/>
   </g>
   <g id="patch_38">
    <path clip-path="url(#p156cbcba23)" d="M 286.399819 44.853923 
L 298.69734 44.853923 
L 298.69734 32.672411 
L 286.399819 32.672411 
z
" style="fill:#ffa07a;"/>
   </g>
   <g id="patch_39">
    <path clip-path="url(#p156cbcba23)" d="M 301.77172 227.576612 
L 314.069241 227.576612 
L 314.069241 203.213587 
L 301.77172 203.213587 
z
" style="fill:#ffa07a;"/>
   </g>
   <g id="patch_40">
    <path clip-path="url(#p156cbcba23)" d="M 317.143621 227.576612 
L 329.441142 227.576612 
L 329.441142 203.213587 
L 317.143621 203.213587 
z
" style="fill:#ffa07a;"/>
   </g>
   <g id="patch_41">
    <path clip-path="url(#p156cbcba23)" d="M 332.515522 227.576612 
L 344.813042 227.576612 
L 344.813042 203.213587 
L 332.515522 203.213587 
z
" style="fill:#ffa07a;"/>
   </g>
   <g id="patch_42">
    <path clip-path="url(#p156cbcba23)" d="M 347.887423 227.576612 
L 360.184943 227.576612 
L 360.184943 203.213587 
L 347.887423 203.213587 
z
" style="fill:#ffa07a;"/>
   </g>
   <g id="matplotlib.axis_1">
    <g id="xtick_1">
     <g id="line2d_1">
      <defs>
       <path d="M 0 0 
L 0 3.5 
" id="ma6a91f1a44" style="stroke:#000000;stroke-width:0.8;"/>
      </defs>
      <g>
       <use style="stroke:#000000;stroke-width:0.8;" x="61.970067" xlink:href="#ma6a91f1a44" y="239.758125"/>
      </g>
     </g>
     <g id="text_1">
      <!-- case_1 -->
      <defs>
       <path d="M 48.78125 52.59375 
L 48.78125 44.1875 
Q 44.96875 46.296875 41.140625 47.34375 
Q 37.3125 48.390625 33.40625 48.390625 
Q 24.65625 48.390625 19.8125 42.84375 
Q 14.984375 37.3125 14.984375 27.296875 
Q 14.984375 17.28125 19.8125 11.734375 
Q 24.65625 6.203125 33.40625 6.203125 
Q 37.3125 6.203125 41.140625 7.25 
Q 44.96875 8.296875 48.78125 10.40625 
L 48.78125 2.09375 
Q 45.015625 0.34375 40.984375 -0.53125 
Q 36.96875 -1.421875 32.421875 -1.421875 
Q 20.0625 -1.421875 12.78125 6.34375 
Q 5.515625 14.109375 5.515625 27.296875 
Q 5.515625 40.671875 12.859375 48.328125 
Q 20.21875 56 33.015625 56 
Q 37.15625 56 41.109375 55.140625 
Q 45.0625 54.296875 48.78125 52.59375 
z
" id="DejaVuSans-99"/>
       <path d="M 34.28125 27.484375 
Q 23.390625 27.484375 19.1875 25 
Q 14.984375 22.515625 14.984375 16.5 
Q 14.984375 11.71875 18.140625 8.90625 
Q 21.296875 6.109375 26.703125 6.109375 
Q 34.1875 6.109375 38.703125 11.40625 
Q 43.21875 16.703125 43.21875 25.484375 
L 43.21875 27.484375 
z
M 52.203125 31.203125 
L 52.203125 0 
L 43.21875 0 
L 43.21875 8.296875 
Q 40.140625 3.328125 35.546875 0.953125 
Q 30.953125 -1.421875 24.3125 -1.421875 
Q 15.921875 -1.421875 10.953125 3.296875 
Q 6 8.015625 6 15.921875 
Q 6 25.140625 12.171875 29.828125 
Q 18.359375 34.515625 30.609375 34.515625 
L 43.21875 34.515625 
L 43.21875 35.40625 
Q 43.21875 41.609375 39.140625 45 
Q 35.0625 48.390625 27.6875 48.390625 
Q 23 48.390625 18.546875 47.265625 
Q 14.109375 46.140625 10.015625 43.890625 
L 10.015625 52.203125 
Q 14.9375 54.109375 19.578125 55.046875 
Q 24.21875 56 28.609375 56 
Q 40.484375 56 46.34375 49.84375 
Q 52.203125 43.703125 52.203125 31.203125 
z
" id="DejaVuSans-97"/>
       <path d="M 44.28125 53.078125 
L 44.28125 44.578125 
Q 40.484375 46.53125 36.375 47.5 
Q 32.28125 48.484375 27.875 48.484375 
Q 21.1875 48.484375 17.84375 46.4375 
Q 14.5 44.390625 14.5 40.28125 
Q 14.5 37.15625 16.890625 35.375 
Q 19.28125 33.59375 26.515625 31.984375 
L 29.59375 31.296875 
Q 39.15625 29.25 43.1875 25.515625 
Q 47.21875 21.78125 47.21875 15.09375 
Q 47.21875 7.46875 41.1875 3.015625 
Q 35.15625 -1.421875 24.609375 -1.421875 
Q 20.21875 -1.421875 15.453125 -0.5625 
Q 10.6875 0.296875 5.421875 2 
L 5.421875 11.28125 
Q 10.40625 8.6875 15.234375 7.390625 
Q 20.0625 6.109375 24.8125 6.109375 
Q 31.15625 6.109375 34.5625 8.28125 
Q 37.984375 10.453125 37.984375 14.40625 
Q 37.984375 18.0625 35.515625 20.015625 
Q 33.0625 21.96875 24.703125 23.78125 
L 21.578125 24.515625 
Q 13.234375 26.265625 9.515625 29.90625 
Q 5.8125 33.546875 5.8125 39.890625 
Q 5.8125 47.609375 11.28125 51.796875 
Q 16.75 56 26.8125 56 
Q 31.78125 56 36.171875 55.265625 
Q 40.578125 54.546875 44.28125 53.078125 
z
" id="DejaVuSans-115"/>
       <path d="M 56.203125 29.59375 
L 56.203125 25.203125 
L 14.890625 25.203125 
Q 15.484375 15.921875 20.484375 11.0625 
Q 25.484375 6.203125 34.421875 6.203125 
Q 39.59375 6.203125 44.453125 7.46875 
Q 49.3125 8.734375 54.109375 11.28125 
L 54.109375 2.78125 
Q 49.265625 0.734375 44.1875 -0.34375 
Q 39.109375 -1.421875 33.890625 -1.421875 
Q 20.796875 -1.421875 13.15625 6.1875 
Q 5.515625 13.8125 5.515625 26.8125 
Q 5.515625 40.234375 12.765625 48.109375 
Q 20.015625 56 32.328125 56 
Q 43.359375 56 49.78125 48.890625 
Q 56.203125 41.796875 56.203125 29.59375 
z
M 47.21875 32.234375 
Q 47.125 39.59375 43.09375 43.984375 
Q 39.0625 48.390625 32.421875 48.390625 
Q 24.90625 48.390625 20.390625 44.140625 
Q 15.875 39.890625 15.1875 32.171875 
z
" id="DejaVuSans-101"/>
       <path d="M 50.984375 -16.609375 
L 50.984375 -23.578125 
L -0.984375 -23.578125 
L -0.984375 -16.609375 
z
" id="DejaVuSans-95"/>
       <path d="M 12.40625 8.296875 
L 28.515625 8.296875 
L 28.515625 63.921875 
L 10.984375 60.40625 
L 10.984375 69.390625 
L 28.421875 72.90625 
L 38.28125 72.90625 
L 38.28125 8.296875 
L 54.390625 8.296875 
L 54.390625 0 
L 12.40625 0 
z
" id="DejaVuSans-49"/>
      </defs>
      <g transform="translate(64.451317 281.109688)rotate(-90)scale(0.1 -0.1)">
       <use xlink:href="#DejaVuSans-99"/>
       <use x="54.980469" xlink:href="#DejaVuSans-97"/>
       <use x="116.259766" xlink:href="#DejaVuSans-115"/>
       <use x="168.359375" xlink:href="#DejaVuSans-101"/>
       <use x="229.882812" xlink:href="#DejaVuSans-95"/>
       <use x="279.882812" xlink:href="#DejaVuSans-49"/>
      </g>
     </g>
    </g>
    <g id="xtick_2">
     <g id="line2d_2">
      <g>
       <use style="stroke:#000000;stroke-width:0.8;" x="77.341968" xlink:href="#ma6a91f1a44" y="239.758125"/>
      </g>
     </g>
     <g id="text_2">
      <!-- case_2 -->
      <defs>
       <path d="M 19.1875 8.296875 
L 53.609375 8.296875 
L 53.609375 0 
L 7.328125 0 
L 7.328125 8.296875 
Q 12.9375 14.109375 22.625 23.890625 
Q 32.328125 33.6875 34.8125 36.53125 
Q 39.546875 41.84375 41.421875 45.53125 
Q 43.3125 49.21875 43.3125 52.78125 
Q 43.3125 58.59375 39.234375 62.25 
Q 35.15625 65.921875 28.609375 65.921875 
Q 23.96875 65.921875 18.8125 64.3125 
Q 13.671875 62.703125 7.8125 59.421875 
L 7.8125 69.390625 
Q 13.765625 71.78125 18.9375 73 
Q 24.125 74.21875 28.421875 74.21875 
Q 39.75 74.21875 46.484375 68.546875 
Q 53.21875 62.890625 53.21875 53.421875 
Q 53.21875 48.921875 51.53125 44.890625 
Q 49.859375 40.875 45.40625 35.40625 
Q 44.1875 33.984375 37.640625 27.21875 
Q 31.109375 20.453125 19.1875 8.296875 
z
" id="DejaVuSans-50"/>
      </defs>
      <g transform="translate(79.873999 281.109688)rotate(-90)scale(0.1 -0.1)">
       <use xlink:href="#DejaVuSans-99"/>
       <use x="54.980469" xlink:href="#DejaVuSans-97"/>
       <use x="116.259766" xlink:href="#DejaVuSans-115"/>
       <use x="168.359375" xlink:href="#DejaVuSans-101"/>
       <use x="229.882812" xlink:href="#DejaVuSans-95"/>
       <use x="279.882812" xlink:href="#DejaVuSans-50"/>
      </g>
     </g>
    </g>
    <g id="xtick_3">
     <g id="line2d_3">
      <g>
       <use style="stroke:#000000;stroke-width:0.8;" x="92.713869" xlink:href="#ma6a91f1a44" y="239.758125"/>
      </g>
     </g>
     <g id="text_3">
      <!-- case_3 -->
      <defs>
       <path d="M 40.578125 39.3125 
Q 47.65625 37.796875 51.625 33 
Q 55.609375 28.21875 55.609375 21.1875 
Q 55.609375 10.40625 48.1875 4.484375 
Q 40.765625 -1.421875 27.09375 -1.421875 
Q 22.515625 -1.421875 17.65625 -0.515625 
Q 12.796875 0.390625 7.625 2.203125 
L 7.625 11.71875 
Q 11.71875 9.328125 16.59375 8.109375 
Q 21.484375 6.890625 26.8125 6.890625 
Q 36.078125 6.890625 40.9375 10.546875 
Q 45.796875 14.203125 45.796875 21.1875 
Q 45.796875 27.640625 41.28125 31.265625 
Q 36.765625 34.90625 28.71875 34.90625 
L 20.21875 34.90625 
L 20.21875 43.015625 
L 29.109375 43.015625 
Q 36.375 43.015625 40.234375 45.921875 
Q 44.09375 48.828125 44.09375 54.296875 
Q 44.09375 59.90625 40.109375 62.90625 
Q 36.140625 65.921875 28.71875 65.921875 
Q 24.65625 65.921875 20.015625 65.03125 
Q 15.375 64.15625 9.8125 62.3125 
L 9.8125 71.09375 
Q 15.4375 72.65625 20.34375 73.4375 
Q 25.25 74.21875 29.59375 74.21875 
Q 40.828125 74.21875 47.359375 69.109375 
Q 53.90625 64.015625 53.90625 55.328125 
Q 53.90625 49.265625 50.4375 45.09375 
Q 46.96875 40.921875 40.578125 39.3125 
z
" id="DejaVuSans-51"/>
      </defs>
      <g transform="translate(95.2459 281.109688)rotate(-90)scale(0.1 -0.1)">
       <use xlink:href="#DejaVuSans-99"/>
       <use x="54.980469" xlink:href="#DejaVuSans-97"/>
       <use x="116.259766" xlink:href="#DejaVuSans-115"/>
       <use x="168.359375" xlink:href="#DejaVuSans-101"/>
       <use x="229.882812" xlink:href="#DejaVuSans-95"/>
       <use x="279.882812" xlink:href="#DejaVuSans-51"/>
      </g>
     </g>
    </g>
    <g id="xtick_4">
     <g id="line2d_4">
      <g>
       <use style="stroke:#000000;stroke-width:0.8;" x="108.08577" xlink:href="#ma6a91f1a44" y="239.758125"/>
      </g>
     </g>
     <g id="text_4">
      <!-- case_4 -->
      <defs>
       <path d="M 37.796875 64.3125 
L 12.890625 25.390625 
L 37.796875 25.390625 
z
M 35.203125 72.90625 
L 47.609375 72.90625 
L 47.609375 25.390625 
L 58.015625 25.390625 
L 58.015625 17.1875 
L 47.609375 17.1875 
L 47.609375 0 
L 37.796875 0 
L 37.796875 17.1875 
L 4.890625 17.1875 
L 4.890625 26.703125 
z
" id="DejaVuSans-52"/>
      </defs>
      <g transform="translate(110.56702 281.109688)rotate(-90)scale(0.1 -0.1)">
       <use xlink:href="#DejaVuSans-99"/>
       <use x="54.980469" xlink:href="#DejaVuSans-97"/>
       <use x="116.259766" xlink:href="#DejaVuSans-115"/>
       <use x="168.359375" xlink:href="#DejaVuSans-101"/>
       <use x="229.882812" xlink:href="#DejaVuSans-95"/>
       <use x="279.882812" xlink:href="#DejaVuSans-52"/>
      </g>
     </g>
    </g>
    <g id="xtick_5">
     <g id="line2d_5">
      <g>
       <use style="stroke:#000000;stroke-width:0.8;" x="123.45767" xlink:href="#ma6a91f1a44" y="239.758125"/>
      </g>
     </g>
     <g id="text_5">
      <!-- case_5 -->
      <defs>
       <path d="M 10.796875 72.90625 
L 49.515625 72.90625 
L 49.515625 64.59375 
L 19.828125 64.59375 
L 19.828125 46.734375 
Q 21.96875 47.46875 24.109375 47.828125 
Q 26.265625 48.1875 28.421875 48.1875 
Q 40.625 48.1875 47.75 41.5 
Q 54.890625 34.8125 54.890625 23.390625 
Q 54.890625 11.625 47.5625 5.09375 
Q 40.234375 -1.421875 26.90625 -1.421875 
Q 22.3125 -1.421875 17.546875 -0.640625 
Q 12.796875 0.140625 7.71875 1.703125 
L 7.71875 11.625 
Q 12.109375 9.234375 16.796875 8.0625 
Q 21.484375 6.890625 26.703125 6.890625 
Q 35.15625 6.890625 40.078125 11.328125 
Q 45.015625 15.765625 45.015625 23.390625 
Q 45.015625 31 40.078125 35.4375 
Q 35.15625 39.890625 26.703125 39.890625 
Q 22.75 39.890625 18.8125 39.015625 
Q 14.890625 38.140625 10.796875 36.28125 
z
" id="DejaVuSans-53"/>
      </defs>
      <g transform="translate(125.93892 281.109688)rotate(-90)scale(0.1 -0.1)">
       <use xlink:href="#DejaVuSans-99"/>
       <use x="54.980469" xlink:href="#DejaVuSans-97"/>
       <use x="116.259766" xlink:href="#DejaVuSans-115"/>
       <use x="168.359375" xlink:href="#DejaVuSans-101"/>
       <use x="229.882812" xlink:href="#DejaVuSans-95"/>
       <use x="279.882812" xlink:href="#DejaVuSans-53"/>
      </g>
     </g>
    </g>
    <g id="xtick_6">
     <g id="line2d_6">
      <g>
       <use style="stroke:#000000;stroke-width:0.8;" x="138.829571" xlink:href="#ma6a91f1a44" y="239.758125"/>
      </g>
     </g>
     <g id="text_6">
      <!-- case_6 -->
      <defs>
       <path d="M 33.015625 40.375 
Q 26.375 40.375 22.484375 35.828125 
Q 18.609375 31.296875 18.609375 23.390625 
Q 18.609375 15.53125 22.484375 10.953125 
Q 26.375 6.390625 33.015625 6.390625 
Q 39.65625 6.390625 43.53125 10.953125 
Q 47.40625 15.53125 47.40625 23.390625 
Q 47.40625 31.296875 43.53125 35.828125 
Q 39.65625 40.375 33.015625 40.375 
z
M 52.59375 71.296875 
L 52.59375 62.3125 
Q 48.875 64.0625 45.09375 64.984375 
Q 41.3125 65.921875 37.59375 65.921875 
Q 27.828125 65.921875 22.671875 59.328125 
Q 17.53125 52.734375 16.796875 39.40625 
Q 19.671875 43.65625 24.015625 45.921875 
Q 28.375 48.1875 33.59375 48.1875 
Q 44.578125 48.1875 50.953125 41.515625 
Q 57.328125 34.859375 57.328125 23.390625 
Q 57.328125 12.15625 50.6875 5.359375 
Q 44.046875 -1.421875 33.015625 -1.421875 
Q 20.359375 -1.421875 13.671875 8.265625 
Q 6.984375 17.96875 6.984375 36.375 
Q 6.984375 53.65625 15.1875 63.9375 
Q 23.390625 74.21875 37.203125 74.21875 
Q 40.921875 74.21875 44.703125 73.484375 
Q 48.484375 72.75 52.59375 71.296875 
z
" id="DejaVuSans-54"/>
      </defs>
      <g transform="translate(141.361603 281.109688)rotate(-90)scale(0.1 -0.1)">
       <use xlink:href="#DejaVuSans-99"/>
       <use x="54.980469" xlink:href="#DejaVuSans-97"/>
       <use x="116.259766" xlink:href="#DejaVuSans-115"/>
       <use x="168.359375" xlink:href="#DejaVuSans-101"/>
       <use x="229.882812" xlink:href="#DejaVuSans-95"/>
       <use x="279.882812" xlink:href="#DejaVuSans-54"/>
      </g>
     </g>
    </g>
    <g id="xtick_7">
     <g id="line2d_7">
      <g>
       <use style="stroke:#000000;stroke-width:0.8;" x="154.201472" xlink:href="#ma6a91f1a44" y="239.758125"/>
      </g>
     </g>
     <g id="text_7">
      <!-- case_7 -->
      <defs>
       <path d="M 8.203125 72.90625 
L 55.078125 72.90625 
L 55.078125 68.703125 
L 28.609375 0 
L 18.3125 0 
L 43.21875 64.59375 
L 8.203125 64.59375 
z
" id="DejaVuSans-55"/>
      </defs>
      <g transform="translate(156.682722 281.109688)rotate(-90)scale(0.1 -0.1)">
       <use xlink:href="#DejaVuSans-99"/>
       <use x="54.980469" xlink:href="#DejaVuSans-97"/>
       <use x="116.259766" xlink:href="#DejaVuSans-115"/>
       <use x="168.359375" xlink:href="#DejaVuSans-101"/>
       <use x="229.882812" xlink:href="#DejaVuSans-95"/>
       <use x="279.882812" xlink:href="#DejaVuSans-55"/>
      </g>
     </g>
    </g>
    <g id="xtick_8">
     <g id="line2d_8">
      <g>
       <use style="stroke:#000000;stroke-width:0.8;" x="169.573373" xlink:href="#ma6a91f1a44" y="239.758125"/>
      </g>
     </g>
     <g id="text_8">
      <!-- case_8 -->
      <defs>
       <path d="M 31.78125 34.625 
Q 24.75 34.625 20.71875 30.859375 
Q 16.703125 27.09375 16.703125 20.515625 
Q 16.703125 13.921875 20.71875 10.15625 
Q 24.75 6.390625 31.78125 6.390625 
Q 38.8125 6.390625 42.859375 10.171875 
Q 46.921875 13.96875 46.921875 20.515625 
Q 46.921875 27.09375 42.890625 30.859375 
Q 38.875 34.625 31.78125 34.625 
z
M 21.921875 38.8125 
Q 15.578125 40.375 12.03125 44.71875 
Q 8.5 49.078125 8.5 55.328125 
Q 8.5 64.0625 14.71875 69.140625 
Q 20.953125 74.21875 31.78125 74.21875 
Q 42.671875 74.21875 48.875 69.140625 
Q 55.078125 64.0625 55.078125 55.328125 
Q 55.078125 49.078125 51.53125 44.71875 
Q 48 40.375 41.703125 38.8125 
Q 48.828125 37.15625 52.796875 32.3125 
Q 56.78125 27.484375 56.78125 20.515625 
Q 56.78125 9.90625 50.3125 4.234375 
Q 43.84375 -1.421875 31.78125 -1.421875 
Q 19.734375 -1.421875 13.25 4.234375 
Q 6.78125 9.90625 6.78125 20.515625 
Q 6.78125 27.484375 10.78125 32.3125 
Q 14.796875 37.15625 21.921875 38.8125 
z
M 18.3125 54.390625 
Q 18.3125 48.734375 21.84375 45.5625 
Q 25.390625 42.390625 31.78125 42.390625 
Q 38.140625 42.390625 41.71875 45.5625 
Q 45.3125 48.734375 45.3125 54.390625 
Q 45.3125 60.0625 41.71875 63.234375 
Q 38.140625 66.40625 31.78125 66.40625 
Q 25.390625 66.40625 21.84375 63.234375 
Q 18.3125 60.0625 18.3125 54.390625 
z
" id="DejaVuSans-56"/>
      </defs>
      <g transform="translate(172.105404 281.109688)rotate(-90)scale(0.1 -0.1)">
       <use xlink:href="#DejaVuSans-99"/>
       <use x="54.980469" xlink:href="#DejaVuSans-97"/>
       <use x="116.259766" xlink:href="#DejaVuSans-115"/>
       <use x="168.359375" xlink:href="#DejaVuSans-101"/>
       <use x="229.882812" xlink:href="#DejaVuSans-95"/>
       <use x="279.882812" xlink:href="#DejaVuSans-56"/>
      </g>
     </g>
    </g>
    <g id="xtick_9">
     <g id="line2d_9">
      <g>
       <use style="stroke:#000000;stroke-width:0.8;" x="184.945274" xlink:href="#ma6a91f1a44" y="239.758125"/>
      </g>
     </g>
     <g id="text_9">
      <!-- case_9 -->
      <defs>
       <path d="M 10.984375 1.515625 
L 10.984375 10.5 
Q 14.703125 8.734375 18.5 7.8125 
Q 22.3125 6.890625 25.984375 6.890625 
Q 35.75 6.890625 40.890625 13.453125 
Q 46.046875 20.015625 46.78125 33.40625 
Q 43.953125 29.203125 39.59375 26.953125 
Q 35.25 24.703125 29.984375 24.703125 
Q 19.046875 24.703125 12.671875 31.3125 
Q 6.296875 37.9375 6.296875 49.421875 
Q 6.296875 60.640625 12.9375 67.421875 
Q 19.578125 74.21875 30.609375 74.21875 
Q 43.265625 74.21875 49.921875 64.515625 
Q 56.59375 54.828125 56.59375 36.375 
Q 56.59375 19.140625 48.40625 8.859375 
Q 40.234375 -1.421875 26.421875 -1.421875 
Q 22.703125 -1.421875 18.890625 -0.6875 
Q 15.09375 0.046875 10.984375 1.515625 
z
M 30.609375 32.421875 
Q 37.25 32.421875 41.125 36.953125 
Q 45.015625 41.5 45.015625 49.421875 
Q 45.015625 57.28125 41.125 61.84375 
Q 37.25 66.40625 30.609375 66.40625 
Q 23.96875 66.40625 20.09375 61.84375 
Q 16.21875 57.28125 16.21875 49.421875 
Q 16.21875 41.5 20.09375 36.953125 
Q 23.96875 32.421875 30.609375 32.421875 
z
" id="DejaVuSans-57"/>
      </defs>
      <g transform="translate(187.477305 281.109688)rotate(-90)scale(0.1 -0.1)">
       <use xlink:href="#DejaVuSans-99"/>
       <use x="54.980469" xlink:href="#DejaVuSans-97"/>
       <use x="116.259766" xlink:href="#DejaVuSans-115"/>
       <use x="168.359375" xlink:href="#DejaVuSans-101"/>
       <use x="229.882812" xlink:href="#DejaVuSans-95"/>
       <use x="279.882812" xlink:href="#DejaVuSans-57"/>
      </g>
     </g>
    </g>
    <g id="xtick_10">
     <g id="line2d_10">
      <g>
       <use style="stroke:#000000;stroke-width:0.8;" x="200.317175" xlink:href="#ma6a91f1a44" y="239.758125"/>
      </g>
     </g>
     <g id="text_10">
      <!-- case_10 -->
      <defs>
       <path d="M 31.78125 66.40625 
Q 24.171875 66.40625 20.328125 58.90625 
Q 16.5 51.421875 16.5 36.375 
Q 16.5 21.390625 20.328125 13.890625 
Q 24.171875 6.390625 31.78125 6.390625 
Q 39.453125 6.390625 43.28125 13.890625 
Q 47.125 21.390625 47.125 36.375 
Q 47.125 51.421875 43.28125 58.90625 
Q 39.453125 66.40625 31.78125 66.40625 
z
M 31.78125 74.21875 
Q 44.046875 74.21875 50.515625 64.515625 
Q 56.984375 54.828125 56.984375 36.375 
Q 56.984375 17.96875 50.515625 8.265625 
Q 44.046875 -1.421875 31.78125 -1.421875 
Q 19.53125 -1.421875 13.0625 8.265625 
Q 6.59375 17.96875 6.59375 36.375 
Q 6.59375 54.828125 13.0625 64.515625 
Q 19.53125 74.21875 31.78125 74.21875 
z
" id="DejaVuSans-48"/>
      </defs>
      <g transform="translate(202.849206 287.472188)rotate(-90)scale(0.1 -0.1)">
       <use xlink:href="#DejaVuSans-99"/>
       <use x="54.980469" xlink:href="#DejaVuSans-97"/>
       <use x="116.259766" xlink:href="#DejaVuSans-115"/>
       <use x="168.359375" xlink:href="#DejaVuSans-101"/>
       <use x="229.882812" xlink:href="#DejaVuSans-95"/>
       <use x="279.882812" xlink:href="#DejaVuSans-49"/>
       <use x="343.505859" xlink:href="#DejaVuSans-48"/>
      </g>
     </g>
    </g>
    <g id="xtick_11">
     <g id="line2d_11">
      <g>
       <use style="stroke:#000000;stroke-width:0.8;" x="215.689075" xlink:href="#ma6a91f1a44" y="239.758125"/>
      </g>
     </g>
     <g id="text_11">
      <!-- case_11 -->
      <g transform="translate(218.170325 287.472188)rotate(-90)scale(0.1 -0.1)">
       <use xlink:href="#DejaVuSans-99"/>
       <use x="54.980469" xlink:href="#DejaVuSans-97"/>
       <use x="116.259766" xlink:href="#DejaVuSans-115"/>
       <use x="168.359375" xlink:href="#DejaVuSans-101"/>
       <use x="229.882812" xlink:href="#DejaVuSans-95"/>
       <use x="279.882812" xlink:href="#DejaVuSans-49"/>
       <use x="343.505859" xlink:href="#DejaVuSans-49"/>
      </g>
     </g>
    </g>
    <g id="xtick_12">
     <g id="line2d_12">
      <g>
       <use style="stroke:#000000;stroke-width:0.8;" x="231.060976" xlink:href="#ma6a91f1a44" y="239.758125"/>
      </g>
     </g>
     <g id="text_12">
      <!-- case_12 -->
      <g transform="translate(233.593007 287.472188)rotate(-90)scale(0.1 -0.1)">
       <use xlink:href="#DejaVuSans-99"/>
       <use x="54.980469" xlink:href="#DejaVuSans-97"/>
       <use x="116.259766" xlink:href="#DejaVuSans-115"/>
       <use x="168.359375" xlink:href="#DejaVuSans-101"/>
       <use x="229.882812" xlink:href="#DejaVuSans-95"/>
       <use x="279.882812" xlink:href="#DejaVuSans-49"/>
       <use x="343.505859" xlink:href="#DejaVuSans-50"/>
      </g>
     </g>
    </g>
    <g id="xtick_13">
     <g id="line2d_13">
      <g>
       <use style="stroke:#000000;stroke-width:0.8;" x="246.432877" xlink:href="#ma6a91f1a44" y="239.758125"/>
      </g>
     </g>
     <g id="text_13">
      <!-- case_13 -->
      <g transform="translate(248.964908 287.472188)rotate(-90)scale(0.1 -0.1)">
       <use xlink:href="#DejaVuSans-99"/>
       <use x="54.980469" xlink:href="#DejaVuSans-97"/>
       <use x="116.259766" xlink:href="#DejaVuSans-115"/>
       <use x="168.359375" xlink:href="#DejaVuSans-101"/>
       <use x="229.882812" xlink:href="#DejaVuSans-95"/>
       <use x="279.882812" xlink:href="#DejaVuSans-49"/>
       <use x="343.505859" xlink:href="#DejaVuSans-51"/>
      </g>
     </g>
    </g>
    <g id="xtick_14">
     <g id="line2d_14">
      <g>
       <use style="stroke:#000000;stroke-width:0.8;" x="261.804778" xlink:href="#ma6a91f1a44" y="239.758125"/>
      </g>
     </g>
     <g id="text_14">
      <!-- case_14 -->
      <g transform="translate(264.286028 287.472188)rotate(-90)scale(0.1 -0.1)">
       <use xlink:href="#DejaVuSans-99"/>
       <use x="54.980469" xlink:href="#DejaVuSans-97"/>
       <use x="116.259766" xlink:href="#DejaVuSans-115"/>
       <use x="168.359375" xlink:href="#DejaVuSans-101"/>
       <use x="229.882812" xlink:href="#DejaVuSans-95"/>
       <use x="279.882812" xlink:href="#DejaVuSans-49"/>
       <use x="343.505859" xlink:href="#DejaVuSans-52"/>
      </g>
     </g>
    </g>
    <g id="xtick_15">
     <g id="line2d_15">
      <g>
       <use style="stroke:#000000;stroke-width:0.8;" x="277.176679" xlink:href="#ma6a91f1a44" y="239.758125"/>
      </g>
     </g>
     <g id="text_15">
      <!-- case_15 -->
      <g transform="translate(279.657929 287.472188)rotate(-90)scale(0.1 -0.1)">
       <use xlink:href="#DejaVuSans-99"/>
       <use x="54.980469" xlink:href="#DejaVuSans-97"/>
       <use x="116.259766" xlink:href="#DejaVuSans-115"/>
       <use x="168.359375" xlink:href="#DejaVuSans-101"/>
       <use x="229.882812" xlink:href="#DejaVuSans-95"/>
       <use x="279.882812" xlink:href="#DejaVuSans-49"/>
       <use x="343.505859" xlink:href="#DejaVuSans-53"/>
      </g>
     </g>
    </g>
    <g id="xtick_16">
     <g id="line2d_16">
      <g>
       <use style="stroke:#000000;stroke-width:0.8;" x="292.54858" xlink:href="#ma6a91f1a44" y="239.758125"/>
      </g>
     </g>
     <g id="text_16">
      <!-- case_16 -->
      <g transform="translate(295.080611 287.472188)rotate(-90)scale(0.1 -0.1)">
       <use xlink:href="#DejaVuSans-99"/>
       <use x="54.980469" xlink:href="#DejaVuSans-97"/>
       <use x="116.259766" xlink:href="#DejaVuSans-115"/>
       <use x="168.359375" xlink:href="#DejaVuSans-101"/>
       <use x="229.882812" xlink:href="#DejaVuSans-95"/>
       <use x="279.882812" xlink:href="#DejaVuSans-49"/>
       <use x="343.505859" xlink:href="#DejaVuSans-54"/>
      </g>
     </g>
    </g>
    <g id="xtick_17">
     <g id="line2d_17">
      <g>
       <use style="stroke:#000000;stroke-width:0.8;" x="307.92048" xlink:href="#ma6a91f1a44" y="239.758125"/>
      </g>
     </g>
     <g id="text_17">
      <!-- case_17 -->
      <g transform="translate(310.40173 287.472188)rotate(-90)scale(0.1 -0.1)">
       <use xlink:href="#DejaVuSans-99"/>
       <use x="54.980469" xlink:href="#DejaVuSans-97"/>
       <use x="116.259766" xlink:href="#DejaVuSans-115"/>
       <use x="168.359375" xlink:href="#DejaVuSans-101"/>
       <use x="229.882812" xlink:href="#DejaVuSans-95"/>
       <use x="279.882812" xlink:href="#DejaVuSans-49"/>
       <use x="343.505859" xlink:href="#DejaVuSans-55"/>
      </g>
     </g>
    </g>
    <g id="xtick_18">
     <g id="line2d_18">
      <g>
       <use style="stroke:#000000;stroke-width:0.8;" x="323.292381" xlink:href="#ma6a91f1a44" y="239.758125"/>
      </g>
     </g>
     <g id="text_18">
      <!-- case_18 -->
      <g transform="translate(325.824412 287.472188)rotate(-90)scale(0.1 -0.1)">
       <use xlink:href="#DejaVuSans-99"/>
       <use x="54.980469" xlink:href="#DejaVuSans-97"/>
       <use x="116.259766" xlink:href="#DejaVuSans-115"/>
       <use x="168.359375" xlink:href="#DejaVuSans-101"/>
       <use x="229.882812" xlink:href="#DejaVuSans-95"/>
       <use x="279.882812" xlink:href="#DejaVuSans-49"/>
       <use x="343.505859" xlink:href="#DejaVuSans-56"/>
      </g>
     </g>
    </g>
    <g id="xtick_19">
     <g id="line2d_19">
      <g>
       <use style="stroke:#000000;stroke-width:0.8;" x="338.664282" xlink:href="#ma6a91f1a44" y="239.758125"/>
      </g>
     </g>
     <g id="text_19">
      <!-- case_19 -->
      <g transform="translate(341.196313 287.472188)rotate(-90)scale(0.1 -0.1)">
       <use xlink:href="#DejaVuSans-99"/>
       <use x="54.980469" xlink:href="#DejaVuSans-97"/>
       <use x="116.259766" xlink:href="#DejaVuSans-115"/>
       <use x="168.359375" xlink:href="#DejaVuSans-101"/>
       <use x="229.882812" xlink:href="#DejaVuSans-95"/>
       <use x="279.882812" xlink:href="#DejaVuSans-49"/>
       <use x="343.505859" xlink:href="#DejaVuSans-57"/>
      </g>
     </g>
    </g>
    <g id="xtick_20">
     <g id="line2d_20">
      <g>
       <use style="stroke:#000000;stroke-width:0.8;" x="354.036183" xlink:href="#ma6a91f1a44" y="239.758125"/>
      </g>
     </g>
     <g id="text_20">
      <!-- case_20 -->
      <g transform="translate(356.568214 287.472188)rotate(-90)scale(0.1 -0.1)">
       <use xlink:href="#DejaVuSans-99"/>
       <use x="54.980469" xlink:href="#DejaVuSans-97"/>
       <use x="116.259766" xlink:href="#DejaVuSans-115"/>
       <use x="168.359375" xlink:href="#DejaVuSans-101"/>
       <use x="229.882812" xlink:href="#DejaVuSans-95"/>
       <use x="279.882812" xlink:href="#DejaVuSans-50"/>
       <use x="343.505859" xlink:href="#DejaVuSans-48"/>
      </g>
     </g>
    </g>
   </g>
   <g id="matplotlib.axis_2">
    <g id="ytick_1">
     <g id="line2d_21">
      <defs>
       <path d="M 0 0 
L -3.5 0 
" id="mddd3c76cdb" style="stroke:#000000;stroke-width:0.8;"/>
      </defs>
      <g>
       <use style="stroke:#000000;stroke-width:0.8;" x="40.603125" xlink:href="#mddd3c76cdb" y="239.758125"/>
      </g>
     </g>
     <g id="text_21">
      <!-- 0 -->
      <g transform="translate(27.240625 243.557344)scale(0.1 -0.1)">
       <use xlink:href="#DejaVuSans-48"/>
      </g>
     </g>
    </g>
    <g id="ytick_2">
     <g id="line2d_22">
      <g>
       <use style="stroke:#000000;stroke-width:0.8;" x="40.603125" xlink:href="#mddd3c76cdb" y="215.3951"/>
      </g>
     </g>
     <g id="text_22">
      <!-- 2 -->
      <g transform="translate(27.240625 219.194319)scale(0.1 -0.1)">
       <use xlink:href="#DejaVuSans-50"/>
      </g>
     </g>
    </g>
    <g id="ytick_3">
     <g id="line2d_23">
      <g>
       <use style="stroke:#000000;stroke-width:0.8;" x="40.603125" xlink:href="#mddd3c76cdb" y="191.032075"/>
      </g>
     </g>
     <g id="text_23">
      <!-- 4 -->
      <g transform="translate(27.240625 194.831293)scale(0.1 -0.1)">
       <use xlink:href="#DejaVuSans-52"/>
      </g>
     </g>
    </g>
    <g id="ytick_4">
     <g id="line2d_24">
      <g>
       <use style="stroke:#000000;stroke-width:0.8;" x="40.603125" xlink:href="#mddd3c76cdb" y="166.669049"/>
      </g>
     </g>
     <g id="text_24">
      <!-- 6 -->
      <g transform="translate(27.240625 170.468268)scale(0.1 -0.1)">
       <use xlink:href="#DejaVuSans-54"/>
      </g>
     </g>
    </g>
    <g id="ytick_5">
     <g id="line2d_25">
      <g>
       <use style="stroke:#000000;stroke-width:0.8;" x="40.603125" xlink:href="#mddd3c76cdb" y="142.306024"/>
      </g>
     </g>
     <g id="text_25">
      <!-- 8 -->
      <g transform="translate(27.240625 146.105243)scale(0.1 -0.1)">
       <use xlink:href="#DejaVuSans-56"/>
      </g>
     </g>
    </g>
    <g id="ytick_6">
     <g id="line2d_26">
      <g>
       <use style="stroke:#000000;stroke-width:0.8;" x="40.603125" xlink:href="#mddd3c76cdb" y="117.942999"/>
      </g>
     </g>
     <g id="text_26">
      <!-- 10 -->
      <g transform="translate(20.878125 121.742218)scale(0.1 -0.1)">
       <use xlink:href="#DejaVuSans-49"/>
       <use x="63.623047" xlink:href="#DejaVuSans-48"/>
      </g>
     </g>
    </g>
    <g id="ytick_7">
     <g id="line2d_27">
      <g>
       <use style="stroke:#000000;stroke-width:0.8;" x="40.603125" xlink:href="#mddd3c76cdb" y="93.579974"/>
      </g>
     </g>
     <g id="text_27">
      <!-- 12 -->
      <g transform="translate(20.878125 97.379192)scale(0.1 -0.1)">
       <use xlink:href="#DejaVuSans-49"/>
       <use x="63.623047" xlink:href="#DejaVuSans-50"/>
      </g>
     </g>
    </g>
    <g id="ytick_8">
     <g id="line2d_28">
      <g>
       <use style="stroke:#000000;stroke-width:0.8;" x="40.603125" xlink:href="#mddd3c76cdb" y="69.216949"/>
      </g>
     </g>
     <g id="text_28">
      <!-- 14 -->
      <g transform="translate(20.878125 73.016167)scale(0.1 -0.1)">
       <use xlink:href="#DejaVuSans-49"/>
       <use x="63.623047" xlink:href="#DejaVuSans-52"/>
      </g>
     </g>
    </g>
    <g id="ytick_9">
     <g id="line2d_29">
      <g>
       <use style="stroke:#000000;stroke-width:0.8;" x="40.603125" xlink:href="#mddd3c76cdb" y="44.853923"/>
      </g>
     </g>
     <g id="text_29">
      <!-- 16 -->
      <g transform="translate(20.878125 48.653142)scale(0.1 -0.1)">
       <use xlink:href="#DejaVuSans-49"/>
       <use x="63.623047" xlink:href="#DejaVuSans-54"/>
      </g>
     </g>
    </g>
    <g id="text_30">
     <!-- Days -->
     <defs>
      <path d="M 19.671875 64.796875 
L 19.671875 8.109375 
L 31.59375 8.109375 
Q 46.6875 8.109375 53.6875 14.9375 
Q 60.6875 21.78125 60.6875 36.53125 
Q 60.6875 51.171875 53.6875 57.984375 
Q 46.6875 64.796875 31.59375 64.796875 
z
M 9.8125 72.90625 
L 30.078125 72.90625 
Q 51.265625 72.90625 61.171875 64.09375 
Q 71.09375 55.28125 71.09375 36.53125 
Q 71.09375 17.671875 61.125 8.828125 
Q 51.171875 0 30.078125 0 
L 9.8125 0 
z
" id="DejaVuSans-68"/>
      <path d="M 32.171875 -5.078125 
Q 28.375 -14.84375 24.75 -17.8125 
Q 21.140625 -20.796875 15.09375 -20.796875 
L 7.90625 -20.796875 
L 7.90625 -13.28125 
L 13.1875 -13.28125 
Q 16.890625 -13.28125 18.9375 -11.515625 
Q 21 -9.765625 23.484375 -3.21875 
L 25.09375 0.875 
L 2.984375 54.6875 
L 12.5 54.6875 
L 29.59375 11.921875 
L 46.6875 54.6875 
L 56.203125 54.6875 
z
" id="DejaVuSans-121"/>
     </defs>
     <g transform="translate(14.798438 143.51625)rotate(-90)scale(0.1 -0.1)">
      <use xlink:href="#DejaVuSans-68"/>
      <use x="77.001953" xlink:href="#DejaVuSans-97"/>
      <use x="138.28125" xlink:href="#DejaVuSans-121"/>
      <use x="197.460938" xlink:href="#DejaVuSans-115"/>
     </g>
    </g>
   </g>
   <g id="patch_43">
    <path d="M 40.603125 239.758125 
L 40.603125 22.318125 
" style="fill:none;stroke:#000000;stroke-linecap:square;stroke-linejoin:miter;stroke-width:0.8;"/>
   </g>
   <g id="patch_44">
    <path d="M 375.403125 239.758125 
L 375.403125 22.318125 
" style="fill:none;stroke:#000000;stroke-linecap:square;stroke-linejoin:miter;stroke-width:0.8;"/>
   </g>
   <g id="patch_45">
    <path d="M 40.603125 239.758125 
L 375.403125 239.758125 
" style="fill:none;stroke:#000000;stroke-linecap:square;stroke-linejoin:miter;stroke-width:0.8;"/>
   </g>
   <g id="patch_46">
    <path d="M 40.603125 22.318125 
L 375.403125 22.318125 
" style="fill:none;stroke:#000000;stroke-linecap:square;stroke-linejoin:miter;stroke-width:0.8;"/>
   </g>
   <g id="text_31">
    <!-- Days until announcement -->
    <defs>
     <path id="DejaVuSans-32"/>
     <path d="M 8.5 21.578125 
L 8.5 54.6875 
L 17.484375 54.6875 
L 17.484375 21.921875 
Q 17.484375 14.15625 20.5 10.265625 
Q 23.53125 6.390625 29.59375 6.390625 
Q 36.859375 6.390625 41.078125 11.03125 
Q 45.3125 15.671875 45.3125 23.6875 
L 45.3125 54.6875 
L 54.296875 54.6875 
L 54.296875 0 
L 45.3125 0 
L 45.3125 8.40625 
Q 42.046875 3.421875 37.71875 1 
Q 33.40625 -1.421875 27.6875 -1.421875 
Q 18.265625 -1.421875 13.375 4.4375 
Q 8.5 10.296875 8.5 21.578125 
z
M 31.109375 56 
z
" id="DejaVuSans-117"/>
     <path d="M 54.890625 33.015625 
L 54.890625 0 
L 45.90625 0 
L 45.90625 32.71875 
Q 45.90625 40.484375 42.875 44.328125 
Q 39.84375 48.1875 33.796875 48.1875 
Q 26.515625 48.1875 22.3125 43.546875 
Q 18.109375 38.921875 18.109375 30.90625 
L 18.109375 0 
L 9.078125 0 
L 9.078125 54.6875 
L 18.109375 54.6875 
L 18.109375 46.1875 
Q 21.34375 51.125 25.703125 53.5625 
Q 30.078125 56 35.796875 56 
Q 45.21875 56 50.046875 50.171875 
Q 54.890625 44.34375 54.890625 33.015625 
z
" id="DejaVuSans-110"/>
     <path d="M 18.3125 70.21875 
L 18.3125 54.6875 
L 36.8125 54.6875 
L 36.8125 47.703125 
L 18.3125 47.703125 
L 18.3125 18.015625 
Q 18.3125 11.328125 20.140625 9.421875 
Q 21.96875 7.515625 27.59375 7.515625 
L 36.8125 7.515625 
L 36.8125 0 
L 27.59375 0 
Q 17.1875 0 13.234375 3.875 
Q 9.28125 7.765625 9.28125 18.015625 
L 9.28125 47.703125 
L 2.6875 47.703125 
L 2.6875 54.6875 
L 9.28125 54.6875 
L 9.28125 70.21875 
z
" id="DejaVuSans-116"/>
     <path d="M 9.421875 54.6875 
L 18.40625 54.6875 
L 18.40625 0 
L 9.421875 0 
z
M 9.421875 75.984375 
L 18.40625 75.984375 
L 18.40625 64.59375 
L 9.421875 64.59375 
z
" id="DejaVuSans-105"/>
     <path d="M 9.421875 75.984375 
L 18.40625 75.984375 
L 18.40625 0 
L 9.421875 0 
z
" id="DejaVuSans-108"/>
     <path d="M 30.609375 48.390625 
Q 23.390625 48.390625 19.1875 42.75 
Q 14.984375 37.109375 14.984375 27.296875 
Q 14.984375 17.484375 19.15625 11.84375 
Q 23.34375 6.203125 30.609375 6.203125 
Q 37.796875 6.203125 41.984375 11.859375 
Q 46.1875 17.53125 46.1875 27.296875 
Q 46.1875 37.015625 41.984375 42.703125 
Q 37.796875 48.390625 30.609375 48.390625 
z
M 30.609375 56 
Q 42.328125 56 49.015625 48.375 
Q 55.71875 40.765625 55.71875 27.296875 
Q 55.71875 13.875 49.015625 6.21875 
Q 42.328125 -1.421875 30.609375 -1.421875 
Q 18.84375 -1.421875 12.171875 6.21875 
Q 5.515625 13.875 5.515625 27.296875 
Q 5.515625 40.765625 12.171875 48.375 
Q 18.84375 56 30.609375 56 
z
" id="DejaVuSans-111"/>
     <path d="M 52 44.1875 
Q 55.375 50.25 60.0625 53.125 
Q 64.75 56 71.09375 56 
Q 79.640625 56 84.28125 50.015625 
Q 88.921875 44.046875 88.921875 33.015625 
L 88.921875 0 
L 79.890625 0 
L 79.890625 32.71875 
Q 79.890625 40.578125 77.09375 44.375 
Q 74.3125 48.1875 68.609375 48.1875 
Q 61.625 48.1875 57.5625 43.546875 
Q 53.515625 38.921875 53.515625 30.90625 
L 53.515625 0 
L 44.484375 0 
L 44.484375 32.71875 
Q 44.484375 40.625 41.703125 44.40625 
Q 38.921875 48.1875 33.109375 48.1875 
Q 26.21875 48.1875 22.15625 43.53125 
Q 18.109375 38.875 18.109375 30.90625 
L 18.109375 0 
L 9.078125 0 
L 9.078125 54.6875 
L 18.109375 54.6875 
L 18.109375 46.1875 
Q 21.1875 51.21875 25.484375 53.609375 
Q 29.78125 56 35.6875 56 
Q 41.65625 56 45.828125 52.96875 
Q 50 49.953125 52 44.1875 
z
" id="DejaVuSans-109"/>
    </defs>
    <g transform="translate(130.684687 16.318125)scale(0.12 -0.12)">
     <use xlink:href="#DejaVuSans-68"/>
     <use x="77.001953" xlink:href="#DejaVuSans-97"/>
     <use x="138.28125" xlink:href="#DejaVuSans-121"/>
     <use x="197.460938" xlink:href="#DejaVuSans-115"/>
     <use x="249.560547" xlink:href="#DejaVuSans-32"/>
     <use x="281.347656" xlink:href="#DejaVuSans-117"/>
     <use x="344.726562" xlink:href="#DejaVuSans-110"/>
     <use x="408.105469" xlink:href="#DejaVuSans-116"/>
     <use x="447.314453" xlink:href="#DejaVuSans-105"/>
     <use x="475.097656" xlink:href="#DejaVuSans-108"/>
     <use x="502.880859" xlink:href="#DejaVuSans-32"/>
     <use x="534.667969" xlink:href="#DejaVuSans-97"/>
     <use x="595.947266" xlink:href="#DejaVuSans-110"/>
     <use x="659.326172" xlink:href="#DejaVuSans-110"/>
     <use x="722.705078" xlink:href="#DejaVuSans-111"/>
     <use x="783.886719" xlink:href="#DejaVuSans-117"/>
     <use x="847.265625" xlink:href="#DejaVuSans-110"/>
     <use x="910.644531" xlink:href="#DejaVuSans-99"/>
     <use x="965.625" xlink:href="#DejaVuSans-101"/>
     <use x="1027.148438" xlink:href="#DejaVuSans-109"/>
     <use x="1124.560547" xlink:href="#DejaVuSans-101"/>
     <use x="1186.083984" xlink:href="#DejaVuSans-110"/>
     <use x="1249.462891" xlink:href="#DejaVuSans-116"/>
    </g>
   </g>
   <g id="legend_1">
    <g id="patch_47">
     <path d="M 382.403125 59.674375 
L 543.267187 59.674375 
Q 545.267187 59.674375 545.267187 57.674375 
L 545.267187 29.318125 
Q 545.267187 27.318125 543.267187 27.318125 
L 382.403125 27.318125 
Q 380.403125 27.318125 380.403125 29.318125 
L 380.403125 57.674375 
Q 380.403125 59.674375 382.403125 59.674375 
z
" style="fill:#ffffff;opacity:0.8;stroke:#cccccc;stroke-linejoin:miter;"/>
    </g>
    <g id="patch_48">
     <path d="M 384.403125 38.916562 
L 404.403125 38.916562 
L 404.403125 31.916562 
L 384.403125 31.916562 
z
" style="fill:#ff6347;"/>
    </g>
    <g id="text_32">
     <!-- Days until quarantine -->
     <defs>
      <path d="M 14.796875 27.296875 
Q 14.796875 17.390625 18.875 11.75 
Q 22.953125 6.109375 30.078125 6.109375 
Q 37.203125 6.109375 41.296875 11.75 
Q 45.40625 17.390625 45.40625 27.296875 
Q 45.40625 37.203125 41.296875 42.84375 
Q 37.203125 48.484375 30.078125 48.484375 
Q 22.953125 48.484375 18.875 42.84375 
Q 14.796875 37.203125 14.796875 27.296875 
z
M 45.40625 8.203125 
Q 42.578125 3.328125 38.25 0.953125 
Q 33.9375 -1.421875 27.875 -1.421875 
Q 17.96875 -1.421875 11.734375 6.484375 
Q 5.515625 14.40625 5.515625 27.296875 
Q 5.515625 40.1875 11.734375 48.09375 
Q 17.96875 56 27.875 56 
Q 33.9375 56 38.25 53.625 
Q 42.578125 51.265625 45.40625 46.390625 
L 45.40625 54.6875 
L 54.390625 54.6875 
L 54.390625 -20.796875 
L 45.40625 -20.796875 
z
" id="DejaVuSans-113"/>
      <path d="M 41.109375 46.296875 
Q 39.59375 47.171875 37.8125 47.578125 
Q 36.03125 48 33.890625 48 
Q 26.265625 48 22.1875 43.046875 
Q 18.109375 38.09375 18.109375 28.8125 
L 18.109375 0 
L 9.078125 0 
L 9.078125 54.6875 
L 18.109375 54.6875 
L 18.109375 46.1875 
Q 20.953125 51.171875 25.484375 53.578125 
Q 30.03125 56 36.53125 56 
Q 37.453125 56 38.578125 55.875 
Q 39.703125 55.765625 41.0625 55.515625 
z
" id="DejaVuSans-114"/>
     </defs>
     <g transform="translate(412.403125 38.916562)scale(0.1 -0.1)">
      <use xlink:href="#DejaVuSans-68"/>
      <use x="77.001953" xlink:href="#DejaVuSans-97"/>
      <use x="138.28125" xlink:href="#DejaVuSans-121"/>
      <use x="197.460938" xlink:href="#DejaVuSans-115"/>
      <use x="249.560547" xlink:href="#DejaVuSans-32"/>
      <use x="281.347656" xlink:href="#DejaVuSans-117"/>
      <use x="344.726562" xlink:href="#DejaVuSans-110"/>
      <use x="408.105469" xlink:href="#DejaVuSans-116"/>
      <use x="447.314453" xlink:href="#DejaVuSans-105"/>
      <use x="475.097656" xlink:href="#DejaVuSans-108"/>
      <use x="502.880859" xlink:href="#DejaVuSans-32"/>
      <use x="534.667969" xlink:href="#DejaVuSans-113"/>
      <use x="598.144531" xlink:href="#DejaVuSans-117"/>
      <use x="661.523438" xlink:href="#DejaVuSans-97"/>
      <use x="722.802734" xlink:href="#DejaVuSans-114"/>
      <use x="763.916016" xlink:href="#DejaVuSans-97"/>
      <use x="825.195312" xlink:href="#DejaVuSans-110"/>
      <use x="888.574219" xlink:href="#DejaVuSans-116"/>
      <use x="927.783203" xlink:href="#DejaVuSans-105"/>
      <use x="955.566406" xlink:href="#DejaVuSans-110"/>
      <use x="1018.945312" xlink:href="#DejaVuSans-101"/>
     </g>
    </g>
    <g id="patch_49">
     <path d="M 384.403125 53.594687 
L 404.403125 53.594687 
L 404.403125 46.594687 
L 384.403125 46.594687 
z
" style="fill:#ffa07a;"/>
    </g>
    <g id="text_33">
     <!-- Days until announcement -->
     <g transform="translate(412.403125 53.594687)scale(0.1 -0.1)">
      <use xlink:href="#DejaVuSans-68"/>
      <use x="77.001953" xlink:href="#DejaVuSans-97"/>
      <use x="138.28125" xlink:href="#DejaVuSans-121"/>
      <use x="197.460938" xlink:href="#DejaVuSans-115"/>
      <use x="249.560547" xlink:href="#DejaVuSans-32"/>
      <use x="281.347656" xlink:href="#DejaVuSans-117"/>
      <use x="344.726562" xlink:href="#DejaVuSans-110"/>
      <use x="408.105469" xlink:href="#DejaVuSans-116"/>
      <use x="447.314453" xlink:href="#DejaVuSans-105"/>
      <use x="475.097656" xlink:href="#DejaVuSans-108"/>
      <use x="502.880859" xlink:href="#DejaVuSans-32"/>
      <use x="534.667969" xlink:href="#DejaVuSans-97"/>
      <use x="595.947266" xlink:href="#DejaVuSans-110"/>
      <use x="659.326172" xlink:href="#DejaVuSans-110"/>
      <use x="722.705078" xlink:href="#DejaVuSans-111"/>
      <use x="783.886719" xlink:href="#DejaVuSans-117"/>
      <use x="847.265625" xlink:href="#DejaVuSans-110"/>
      <use x="910.644531" xlink:href="#DejaVuSans-99"/>
      <use x="965.625" xlink:href="#DejaVuSans-101"/>
      <use x="1027.148438" xlink:href="#DejaVuSans-109"/>
      <use x="1124.560547" xlink:href="#DejaVuSans-101"/>
      <use x="1186.083984" xlink:href="#DejaVuSans-110"/>
      <use x="1249.462891" xlink:href="#DejaVuSans-116"/>
     </g>
    </g>
   </g>
  </g>
 </g>
 <defs>
  <clipPath id="p156cbcba23">
   <rect height="217.44" width="334.8" x="40.603125" y="22.318125"/>
  </clipPath>
 </defs>
</svg>
