<?xml version="1.0" encoding="utf-8" standalone="no"?>
<!DOCTYPE svg PUBLIC "-//W3C//DTD SVG 1.1//EN"
  "http://www.w3.org/Graphics/SVG/1.1/DTD/svg11.dtd">
<!-- Created with matplotlib (https://matplotlib.org/) -->
<svg height="681.838125pt" version="1.1" viewBox="0 0 462.882812 681.838125" width="462.882812pt" xmlns="http://www.w3.org/2000/svg" xmlns:xlink="http://www.w3.org/1999/xlink">
 <defs>
  <style type="text/css">
*{stroke-linecap:butt;stroke-linejoin:round;}
  </style>
 </defs>
 <g id="figure_1">
  <g id="patch_1">
   <path d="M 0 681.838125 
L 462.882812 681.838125 
L 462.882812 0 
L 0 0 
z
" style="fill:#ffffff;"/>
  </g>
  <g id="axes_1">
   <g id="patch_2">
    <path d="M 35.304688 565.918125 
L 314.304688 565.918125 
L 314.304688 22.318125 
L 35.304688 22.318125 
z
" style="fill:#ffffff;"/>
   </g>
   <g id="matplotlib.axis_1">
    <g id="xtick_1">
     <g id="line2d_1">
      <path clip-path="url(#p4c0aac8e2f)" d="M 63.838778 565.918125 
L 63.838778 22.318125 
" style="fill:none;stroke:#808080;stroke-dasharray:1.85,0.8;stroke-dashoffset:0;stroke-width:0.5;"/>
     </g>
     <g id="line2d_2">
      <defs>
       <path d="M 0 0 
L 0 3.5 
" id="mdf6ee7342c" style="stroke:#000000;stroke-width:0.8;"/>
      </defs>
      <g>
       <use style="stroke:#000000;stroke-width:0.8;" x="63.838778" xlink:href="#mdf6ee7342c" y="565.918125"/>
      </g>
     </g>
     <g id="text_1">
      <!-- 2020-04-05 -->
      <defs>
       <path d="M 19.1875 8.296875 
L 53.609375 8.296875 
L 53.609375 0 
L 7.328125 0 
L 7.328125 8.296875 
Q 12.9375 14.109375 22.625 23.890625 
Q 32.328125 33.6875 34.8125 36.53125 
Q 39.546875 41.84375 41.421875 45.53125 
Q 43.3125 49.21875 43.3125 52.78125 
Q 43.3125 58.59375 39.234375 62.25 
Q 35.15625 65.921875 28.609375 65.921875 
Q 23.96875 65.921875 18.8125 64.3125 
Q 13.671875 62.703125 7.8125 59.421875 
L 7.8125 69.390625 
Q 13.765625 71.78125 18.9375 73 
Q 24.125 74.21875 28.421875 74.21875 
Q 39.75 74.21875 46.484375 68.546875 
Q 53.21875 62.890625 53.21875 53.421875 
Q 53.21875 48.921875 51.53125 44.890625 
Q 49.859375 40.875 45.40625 35.40625 
Q 44.1875 33.984375 37.640625 27.21875 
Q 31.109375 20.453125 19.1875 8.296875 
z
" id="DejaVuSans-50"/>
       <path d="M 31.78125 66.40625 
Q 24.171875 66.40625 20.328125 58.90625 
Q 16.5 51.421875 16.5 36.375 
Q 16.5 21.390625 20.328125 13.890625 
Q 24.171875 6.390625 31.78125 6.390625 
Q 39.453125 6.390625 43.28125 13.890625 
Q 47.125 21.390625 47.125 36.375 
Q 47.125 51.421875 43.28125 58.90625 
Q 39.453125 66.40625 31.78125 66.40625 
z
M 31.78125 74.21875 
Q 44.046875 74.21875 50.515625 64.515625 
Q 56.984375 54.828125 56.984375 36.375 
Q 56.984375 17.96875 50.515625 8.265625 
Q 44.046875 -1.421875 31.78125 -1.421875 
Q 19.53125 -1.421875 13.0625 8.265625 
Q 6.59375 17.96875 6.59375 36.375 
Q 6.59375 54.828125 13.0625 64.515625 
Q 19.53125 74.21875 31.78125 74.21875 
z
" id="DejaVuSans-48"/>
       <path d="M 4.890625 31.390625 
L 31.203125 31.390625 
L 31.203125 23.390625 
L 4.890625 23.390625 
z
" id="DejaVuSans-45"/>
       <path d="M 37.796875 64.3125 
L 12.890625 25.390625 
L 37.796875 25.390625 
z
M 35.203125 72.90625 
L 47.609375 72.90625 
L 47.609375 25.390625 
L 58.015625 25.390625 
L 58.015625 17.1875 
L 47.609375 17.1875 
L 47.609375 0 
L 37.796875 0 
L 37.796875 17.1875 
L 4.890625 17.1875 
L 4.890625 26.703125 
z
" id="DejaVuSans-52"/>
       <path d="M 10.796875 72.90625 
L 49.515625 72.90625 
L 49.515625 64.59375 
L 19.828125 64.59375 
L 19.828125 46.734375 
Q 21.96875 47.46875 24.109375 47.828125 
Q 26.265625 48.1875 28.421875 48.1875 
Q 40.625 48.1875 47.75 41.5 
Q 54.890625 34.8125 54.890625 23.390625 
Q 54.890625 11.625 47.5625 5.09375 
Q 40.234375 -1.421875 26.90625 -1.421875 
Q 22.3125 -1.421875 17.546875 -0.640625 
Q 12.796875 0.140625 7.71875 1.703125 
L 7.71875 11.625 
Q 12.109375 9.234375 16.796875 8.0625 
Q 21.484375 6.890625 26.703125 6.890625 
Q 35.15625 6.890625 40.078125 11.328125 
Q 45.015625 15.765625 45.015625 23.390625 
Q 45.015625 31 40.078125 35.4375 
Q 35.15625 39.890625 26.703125 39.890625 
Q 22.75 39.890625 18.8125 39.015625 
Q 14.890625 38.140625 10.796875 36.28125 
z
" id="DejaVuSans-53"/>
      </defs>
      <g transform="translate(66.598153 631.03375)rotate(-90)scale(0.1 -0.1)">
       <use xlink:href="#DejaVuSans-50"/>
       <use x="63.623047" xlink:href="#DejaVuSans-48"/>
       <use x="127.246094" xlink:href="#DejaVuSans-50"/>
       <use x="190.869141" xlink:href="#DejaVuSans-48"/>
       <use x="254.492188" xlink:href="#DejaVuSans-45"/>
       <use x="290.576172" xlink:href="#DejaVuSans-48"/>
       <use x="354.199219" xlink:href="#DejaVuSans-52"/>
       <use x="417.822266" xlink:href="#DejaVuSans-45"/>
       <use x="453.90625" xlink:href="#DejaVuSans-48"/>
       <use x="517.529297" xlink:href="#DejaVuSans-53"/>
      </g>
     </g>
    </g>
    <g id="xtick_2">
     <g id="line2d_3">
      <path clip-path="url(#p4c0aac8e2f)" d="M 95.543324 565.918125 
L 95.543324 22.318125 
" style="fill:none;stroke:#808080;stroke-dasharray:1.85,0.8;stroke-dashoffset:0;stroke-width:0.5;"/>
     </g>
     <g id="line2d_4">
      <g>
       <use style="stroke:#000000;stroke-width:0.8;" x="95.543324" xlink:href="#mdf6ee7342c" y="565.918125"/>
      </g>
     </g>
     <g id="text_2">
      <!-- 2020-04-07 -->
      <defs>
       <path d="M 8.203125 72.90625 
L 55.078125 72.90625 
L 55.078125 68.703125 
L 28.609375 0 
L 18.3125 0 
L 43.21875 64.59375 
L 8.203125 64.59375 
z
" id="DejaVuSans-55"/>
      </defs>
      <g transform="translate(98.302699 631.03375)rotate(-90)scale(0.1 -0.1)">
       <use xlink:href="#DejaVuSans-50"/>
       <use x="63.623047" xlink:href="#DejaVuSans-48"/>
       <use x="127.246094" xlink:href="#DejaVuSans-50"/>
       <use x="190.869141" xlink:href="#DejaVuSans-48"/>
       <use x="254.492188" xlink:href="#DejaVuSans-45"/>
       <use x="290.576172" xlink:href="#DejaVuSans-48"/>
       <use x="354.199219" xlink:href="#DejaVuSans-52"/>
       <use x="417.822266" xlink:href="#DejaVuSans-45"/>
       <use x="453.90625" xlink:href="#DejaVuSans-48"/>
       <use x="517.529297" xlink:href="#DejaVuSans-55"/>
      </g>
     </g>
    </g>
    <g id="xtick_3">
     <g id="line2d_5">
      <path clip-path="url(#p4c0aac8e2f)" d="M 127.247869 565.918125 
L 127.247869 22.318125 
" style="fill:none;stroke:#808080;stroke-dasharray:1.85,0.8;stroke-dashoffset:0;stroke-width:0.5;"/>
     </g>
     <g id="line2d_6">
      <g>
       <use style="stroke:#000000;stroke-width:0.8;" x="127.247869" xlink:href="#mdf6ee7342c" y="565.918125"/>
      </g>
     </g>
     <g id="text_3">
      <!-- 2020-04-09 -->
      <defs>
       <path d="M 10.984375 1.515625 
L 10.984375 10.5 
Q 14.703125 8.734375 18.5 7.8125 
Q 22.3125 6.890625 25.984375 6.890625 
Q 35.75 6.890625 40.890625 13.453125 
Q 46.046875 20.015625 46.78125 33.40625 
Q 43.953125 29.203125 39.59375 26.953125 
Q 35.25 24.703125 29.984375 24.703125 
Q 19.046875 24.703125 12.671875 31.3125 
Q 6.296875 37.9375 6.296875 49.421875 
Q 6.296875 60.640625 12.9375 67.421875 
Q 19.578125 74.21875 30.609375 74.21875 
Q 43.265625 74.21875 49.921875 64.515625 
Q 56.59375 54.828125 56.59375 36.375 
Q 56.59375 19.140625 48.40625 8.859375 
Q 40.234375 -1.421875 26.421875 -1.421875 
Q 22.703125 -1.421875 18.890625 -0.6875 
Q 15.09375 0.046875 10.984375 1.515625 
z
M 30.609375 32.421875 
Q 37.25 32.421875 41.125 36.953125 
Q 45.015625 41.5 45.015625 49.421875 
Q 45.015625 57.28125 41.125 61.84375 
Q 37.25 66.40625 30.609375 66.40625 
Q 23.96875 66.40625 20.09375 61.84375 
Q 16.21875 57.28125 16.21875 49.421875 
Q 16.21875 41.5 20.09375 36.953125 
Q 23.96875 32.421875 30.609375 32.421875 
z
" id="DejaVuSans-57"/>
      </defs>
      <g transform="translate(130.007244 631.03375)rotate(-90)scale(0.1 -0.1)">
       <use xlink:href="#DejaVuSans-50"/>
       <use x="63.623047" xlink:href="#DejaVuSans-48"/>
       <use x="127.246094" xlink:href="#DejaVuSans-50"/>
       <use x="190.869141" xlink:href="#DejaVuSans-48"/>
       <use x="254.492188" xlink:href="#DejaVuSans-45"/>
       <use x="290.576172" xlink:href="#DejaVuSans-48"/>
       <use x="354.199219" xlink:href="#DejaVuSans-52"/>
       <use x="417.822266" xlink:href="#DejaVuSans-45"/>
       <use x="453.90625" xlink:href="#DejaVuSans-48"/>
       <use x="517.529297" xlink:href="#DejaVuSans-57"/>
      </g>
     </g>
    </g>
    <g id="xtick_4">
     <g id="line2d_7">
      <path clip-path="url(#p4c0aac8e2f)" d="M 158.952415 565.918125 
L 158.952415 22.318125 
" style="fill:none;stroke:#808080;stroke-dasharray:1.85,0.8;stroke-dashoffset:0;stroke-width:0.5;"/>
     </g>
     <g id="line2d_8">
      <g>
       <use style="stroke:#000000;stroke-width:0.8;" x="158.952415" xlink:href="#mdf6ee7342c" y="565.918125"/>
      </g>
     </g>
     <g id="text_4">
      <!-- 2020-04-11 -->
      <defs>
       <path d="M 12.40625 8.296875 
L 28.515625 8.296875 
L 28.515625 63.921875 
L 10.984375 60.40625 
L 10.984375 69.390625 
L 28.421875 72.90625 
L 38.28125 72.90625 
L 38.28125 8.296875 
L 54.390625 8.296875 
L 54.390625 0 
L 12.40625 0 
z
" id="DejaVuSans-49"/>
      </defs>
      <g transform="translate(161.71179 631.03375)rotate(-90)scale(0.1 -0.1)">
       <use xlink:href="#DejaVuSans-50"/>
       <use x="63.623047" xlink:href="#DejaVuSans-48"/>
       <use x="127.246094" xlink:href="#DejaVuSans-50"/>
       <use x="190.869141" xlink:href="#DejaVuSans-48"/>
       <use x="254.492188" xlink:href="#DejaVuSans-45"/>
       <use x="290.576172" xlink:href="#DejaVuSans-48"/>
       <use x="354.199219" xlink:href="#DejaVuSans-52"/>
       <use x="417.822266" xlink:href="#DejaVuSans-45"/>
       <use x="453.90625" xlink:href="#DejaVuSans-49"/>
       <use x="517.529297" xlink:href="#DejaVuSans-49"/>
      </g>
     </g>
    </g>
    <g id="xtick_5">
     <g id="line2d_9">
      <path clip-path="url(#p4c0aac8e2f)" d="M 190.65696 565.918125 
L 190.65696 22.318125 
" style="fill:none;stroke:#808080;stroke-dasharray:1.85,0.8;stroke-dashoffset:0;stroke-width:0.5;"/>
     </g>
     <g id="line2d_10">
      <g>
       <use style="stroke:#000000;stroke-width:0.8;" x="190.65696" xlink:href="#mdf6ee7342c" y="565.918125"/>
      </g>
     </g>
     <g id="text_5">
      <!-- 2020-04-13 -->
      <defs>
       <path d="M 40.578125 39.3125 
Q 47.65625 37.796875 51.625 33 
Q 55.609375 28.21875 55.609375 21.1875 
Q 55.609375 10.40625 48.1875 4.484375 
Q 40.765625 -1.421875 27.09375 -1.421875 
Q 22.515625 -1.421875 17.65625 -0.515625 
Q 12.796875 0.390625 7.625 2.203125 
L 7.625 11.71875 
Q 11.71875 9.328125 16.59375 8.109375 
Q 21.484375 6.890625 26.8125 6.890625 
Q 36.078125 6.890625 40.9375 10.546875 
Q 45.796875 14.203125 45.796875 21.1875 
Q 45.796875 27.640625 41.28125 31.265625 
Q 36.765625 34.90625 28.71875 34.90625 
L 20.21875 34.90625 
L 20.21875 43.015625 
L 29.109375 43.015625 
Q 36.375 43.015625 40.234375 45.921875 
Q 44.09375 48.828125 44.09375 54.296875 
Q 44.09375 59.90625 40.109375 62.90625 
Q 36.140625 65.921875 28.71875 65.921875 
Q 24.65625 65.921875 20.015625 65.03125 
Q 15.375 64.15625 9.8125 62.3125 
L 9.8125 71.09375 
Q 15.4375 72.65625 20.34375 73.4375 
Q 25.25 74.21875 29.59375 74.21875 
Q 40.828125 74.21875 47.359375 69.109375 
Q 53.90625 64.015625 53.90625 55.328125 
Q 53.90625 49.265625 50.4375 45.09375 
Q 46.96875 40.921875 40.578125 39.3125 
z
" id="DejaVuSans-51"/>
      </defs>
      <g transform="translate(193.416335 631.03375)rotate(-90)scale(0.1 -0.1)">
       <use xlink:href="#DejaVuSans-50"/>
       <use x="63.623047" xlink:href="#DejaVuSans-48"/>
       <use x="127.246094" xlink:href="#DejaVuSans-50"/>
       <use x="190.869141" xlink:href="#DejaVuSans-48"/>
       <use x="254.492188" xlink:href="#DejaVuSans-45"/>
       <use x="290.576172" xlink:href="#DejaVuSans-48"/>
       <use x="354.199219" xlink:href="#DejaVuSans-52"/>
       <use x="417.822266" xlink:href="#DejaVuSans-45"/>
       <use x="453.90625" xlink:href="#DejaVuSans-49"/>
       <use x="517.529297" xlink:href="#DejaVuSans-51"/>
      </g>
     </g>
    </g>
    <g id="xtick_6">
     <g id="line2d_11">
      <path clip-path="url(#p4c0aac8e2f)" d="M 222.361506 565.918125 
L 222.361506 22.318125 
" style="fill:none;stroke:#808080;stroke-dasharray:1.85,0.8;stroke-dashoffset:0;stroke-width:0.5;"/>
     </g>
     <g id="line2d_12">
      <g>
       <use style="stroke:#000000;stroke-width:0.8;" x="222.361506" xlink:href="#mdf6ee7342c" y="565.918125"/>
      </g>
     </g>
     <g id="text_6">
      <!-- 2020-04-15 -->
      <g transform="translate(225.120881 631.03375)rotate(-90)scale(0.1 -0.1)">
       <use xlink:href="#DejaVuSans-50"/>
       <use x="63.623047" xlink:href="#DejaVuSans-48"/>
       <use x="127.246094" xlink:href="#DejaVuSans-50"/>
       <use x="190.869141" xlink:href="#DejaVuSans-48"/>
       <use x="254.492188" xlink:href="#DejaVuSans-45"/>
       <use x="290.576172" xlink:href="#DejaVuSans-48"/>
       <use x="354.199219" xlink:href="#DejaVuSans-52"/>
       <use x="417.822266" xlink:href="#DejaVuSans-45"/>
       <use x="453.90625" xlink:href="#DejaVuSans-49"/>
       <use x="517.529297" xlink:href="#DejaVuSans-53"/>
      </g>
     </g>
    </g>
    <g id="xtick_7">
     <g id="line2d_13">
      <path clip-path="url(#p4c0aac8e2f)" d="M 254.066051 565.918125 
L 254.066051 22.318125 
" style="fill:none;stroke:#808080;stroke-dasharray:1.85,0.8;stroke-dashoffset:0;stroke-width:0.5;"/>
     </g>
     <g id="line2d_14">
      <g>
       <use style="stroke:#000000;stroke-width:0.8;" x="254.066051" xlink:href="#mdf6ee7342c" y="565.918125"/>
      </g>
     </g>
     <g id="text_7">
      <!-- 2020-04-17 -->
      <g transform="translate(256.825426 631.03375)rotate(-90)scale(0.1 -0.1)">
       <use xlink:href="#DejaVuSans-50"/>
       <use x="63.623047" xlink:href="#DejaVuSans-48"/>
       <use x="127.246094" xlink:href="#DejaVuSans-50"/>
       <use x="190.869141" xlink:href="#DejaVuSans-48"/>
       <use x="254.492188" xlink:href="#DejaVuSans-45"/>
       <use x="290.576172" xlink:href="#DejaVuSans-48"/>
       <use x="354.199219" xlink:href="#DejaVuSans-52"/>
       <use x="417.822266" xlink:href="#DejaVuSans-45"/>
       <use x="453.90625" xlink:href="#DejaVuSans-49"/>
       <use x="517.529297" xlink:href="#DejaVuSans-55"/>
      </g>
     </g>
    </g>
    <g id="xtick_8">
     <g id="line2d_15">
      <path clip-path="url(#p4c0aac8e2f)" d="M 285.770597 565.918125 
L 285.770597 22.318125 
" style="fill:none;stroke:#808080;stroke-dasharray:1.85,0.8;stroke-dashoffset:0;stroke-width:0.5;"/>
     </g>
     <g id="line2d_16">
      <g>
       <use style="stroke:#000000;stroke-width:0.8;" x="285.770597" xlink:href="#mdf6ee7342c" y="565.918125"/>
      </g>
     </g>
     <g id="text_8">
      <!-- 2020-04-19 -->
      <g transform="translate(288.529972 631.03375)rotate(-90)scale(0.1 -0.1)">
       <use xlink:href="#DejaVuSans-50"/>
       <use x="63.623047" xlink:href="#DejaVuSans-48"/>
       <use x="127.246094" xlink:href="#DejaVuSans-50"/>
       <use x="190.869141" xlink:href="#DejaVuSans-48"/>
       <use x="254.492188" xlink:href="#DejaVuSans-45"/>
       <use x="290.576172" xlink:href="#DejaVuSans-48"/>
       <use x="354.199219" xlink:href="#DejaVuSans-52"/>
       <use x="417.822266" xlink:href="#DejaVuSans-45"/>
       <use x="453.90625" xlink:href="#DejaVuSans-49"/>
       <use x="517.529297" xlink:href="#DejaVuSans-57"/>
      </g>
     </g>
    </g>
   </g>
   <g id="matplotlib.axis_2">
    <g id="ytick_1">
     <g id="line2d_17">
      <path clip-path="url(#p4c0aac8e2f)" d="M 35.304688 558.210702 
L 314.304688 558.210702 
" style="fill:none;stroke:#808080;stroke-dasharray:1.85,0.8;stroke-dashoffset:0;stroke-width:0.5;"/>
     </g>
     <g id="line2d_18">
      <defs>
       <path d="M 0 0 
L -3.5 0 
" id="m8ccd9237bd" style="stroke:#000000;stroke-width:0.8;"/>
      </defs>
      <g>
       <use style="stroke:#000000;stroke-width:0.8;" x="35.304688" xlink:href="#m8ccd9237bd" y="558.210702"/>
      </g>
     </g>
     <g id="text_9">
      <!-- −25 -->
      <defs>
       <path d="M 10.59375 35.5 
L 73.1875 35.5 
L 73.1875 27.203125 
L 10.59375 27.203125 
z
" id="DejaVuSans-8722"/>
      </defs>
      <g transform="translate(7.2 562.009921)scale(0.1 -0.1)">
       <use xlink:href="#DejaVuSans-8722"/>
       <use x="83.789062" xlink:href="#DejaVuSans-50"/>
       <use x="147.412109" xlink:href="#DejaVuSans-53"/>
      </g>
     </g>
    </g>
    <g id="ytick_2">
     <g id="line2d_19">
      <path clip-path="url(#p4c0aac8e2f)" d="M 35.304688 544.042645 
L 314.304688 544.042645 
" style="fill:none;stroke:#808080;stroke-dasharray:1.85,0.8;stroke-dashoffset:0;stroke-width:0.5;"/>
     </g>
     <g id="line2d_20">
      <g>
       <use style="stroke:#000000;stroke-width:0.8;" x="35.304688" xlink:href="#m8ccd9237bd" y="544.042645"/>
      </g>
     </g>
     <g id="text_10">
      <!-- 0 -->
      <g transform="translate(21.942187 547.841864)scale(0.1 -0.1)">
       <use xlink:href="#DejaVuSans-48"/>
      </g>
     </g>
    </g>
    <g id="ytick_3">
     <g id="line2d_21">
      <path clip-path="url(#p4c0aac8e2f)" d="M 35.304688 529.874589 
L 314.304688 529.874589 
" style="fill:none;stroke:#808080;stroke-dasharray:1.85,0.8;stroke-dashoffset:0;stroke-width:0.5;"/>
     </g>
     <g id="line2d_22">
      <g>
       <use style="stroke:#000000;stroke-width:0.8;" x="35.304688" xlink:href="#m8ccd9237bd" y="529.874589"/>
      </g>
     </g>
     <g id="text_11">
      <!-- 25 -->
      <g transform="translate(15.579687 533.673807)scale(0.1 -0.1)">
       <use xlink:href="#DejaVuSans-50"/>
       <use x="63.623047" xlink:href="#DejaVuSans-53"/>
      </g>
     </g>
    </g>
    <g id="ytick_4">
     <g id="line2d_23">
      <path clip-path="url(#p4c0aac8e2f)" d="M 35.304688 515.706532 
L 314.304688 515.706532 
" style="fill:none;stroke:#808080;stroke-dasharray:1.85,0.8;stroke-dashoffset:0;stroke-width:0.5;"/>
     </g>
     <g id="line2d_24">
      <g>
       <use style="stroke:#000000;stroke-width:0.8;" x="35.304688" xlink:href="#m8ccd9237bd" y="515.706532"/>
      </g>
     </g>
     <g id="text_12">
      <!-- 50 -->
      <g transform="translate(15.579687 519.505751)scale(0.1 -0.1)">
       <use xlink:href="#DejaVuSans-53"/>
       <use x="63.623047" xlink:href="#DejaVuSans-48"/>
      </g>
     </g>
    </g>
    <g id="ytick_5">
     <g id="line2d_25">
      <path clip-path="url(#p4c0aac8e2f)" d="M 35.304688 501.538475 
L 314.304688 501.538475 
" style="fill:none;stroke:#808080;stroke-dasharray:1.85,0.8;stroke-dashoffset:0;stroke-width:0.5;"/>
     </g>
     <g id="line2d_26">
      <g>
       <use style="stroke:#000000;stroke-width:0.8;" x="35.304688" xlink:href="#m8ccd9237bd" y="501.538475"/>
      </g>
     </g>
     <g id="text_13">
      <!-- 75 -->
      <g transform="translate(15.579687 505.337694)scale(0.1 -0.1)">
       <use xlink:href="#DejaVuSans-55"/>
       <use x="63.623047" xlink:href="#DejaVuSans-53"/>
      </g>
     </g>
    </g>
    <g id="ytick_6">
     <g id="line2d_27">
      <path clip-path="url(#p4c0aac8e2f)" d="M 35.304688 487.370419 
L 314.304688 487.370419 
" style="fill:none;stroke:#808080;stroke-dasharray:1.85,0.8;stroke-dashoffset:0;stroke-width:0.5;"/>
     </g>
     <g id="line2d_28">
      <g>
       <use style="stroke:#000000;stroke-width:0.8;" x="35.304688" xlink:href="#m8ccd9237bd" y="487.370419"/>
      </g>
     </g>
     <g id="text_14">
      <!-- 100 -->
      <g transform="translate(9.217187 491.169637)scale(0.1 -0.1)">
       <use xlink:href="#DejaVuSans-49"/>
       <use x="63.623047" xlink:href="#DejaVuSans-48"/>
       <use x="127.246094" xlink:href="#DejaVuSans-48"/>
      </g>
     </g>
    </g>
    <g id="ytick_7">
     <g id="line2d_29">
      <path clip-path="url(#p4c0aac8e2f)" d="M 35.304688 473.202362 
L 314.304688 473.202362 
" style="fill:none;stroke:#808080;stroke-dasharray:1.85,0.8;stroke-dashoffset:0;stroke-width:0.5;"/>
     </g>
     <g id="line2d_30">
      <g>
       <use style="stroke:#000000;stroke-width:0.8;" x="35.304688" xlink:href="#m8ccd9237bd" y="473.202362"/>
      </g>
     </g>
     <g id="text_15">
      <!-- 125 -->
      <g transform="translate(9.217187 477.001581)scale(0.1 -0.1)">
       <use xlink:href="#DejaVuSans-49"/>
       <use x="63.623047" xlink:href="#DejaVuSans-50"/>
       <use x="127.246094" xlink:href="#DejaVuSans-53"/>
      </g>
     </g>
    </g>
    <g id="ytick_8">
     <g id="line2d_31">
      <path clip-path="url(#p4c0aac8e2f)" d="M 35.304688 459.034305 
L 314.304688 459.034305 
" style="fill:none;stroke:#808080;stroke-dasharray:1.85,0.8;stroke-dashoffset:0;stroke-width:0.5;"/>
     </g>
     <g id="line2d_32">
      <g>
       <use style="stroke:#000000;stroke-width:0.8;" x="35.304688" xlink:href="#m8ccd9237bd" y="459.034305"/>
      </g>
     </g>
     <g id="text_16">
      <!-- 150 -->
      <g transform="translate(9.217187 462.833524)scale(0.1 -0.1)">
       <use xlink:href="#DejaVuSans-49"/>
       <use x="63.623047" xlink:href="#DejaVuSans-53"/>
       <use x="127.246094" xlink:href="#DejaVuSans-48"/>
      </g>
     </g>
    </g>
    <g id="ytick_9">
     <g id="line2d_33">
      <path clip-path="url(#p4c0aac8e2f)" d="M 35.304688 444.866248 
L 314.304688 444.866248 
" style="fill:none;stroke:#808080;stroke-dasharray:1.85,0.8;stroke-dashoffset:0;stroke-width:0.5;"/>
     </g>
     <g id="line2d_34">
      <g>
       <use style="stroke:#000000;stroke-width:0.8;" x="35.304688" xlink:href="#m8ccd9237bd" y="444.866248"/>
      </g>
     </g>
     <g id="text_17">
      <!-- 175 -->
      <g transform="translate(9.217187 448.665467)scale(0.1 -0.1)">
       <use xlink:href="#DejaVuSans-49"/>
       <use x="63.623047" xlink:href="#DejaVuSans-55"/>
       <use x="127.246094" xlink:href="#DejaVuSans-53"/>
      </g>
     </g>
    </g>
    <g id="ytick_10">
     <g id="line2d_35">
      <path clip-path="url(#p4c0aac8e2f)" d="M 35.304688 430.698192 
L 314.304688 430.698192 
" style="fill:none;stroke:#808080;stroke-dasharray:1.85,0.8;stroke-dashoffset:0;stroke-width:0.5;"/>
     </g>
     <g id="line2d_36">
      <g>
       <use style="stroke:#000000;stroke-width:0.8;" x="35.304688" xlink:href="#m8ccd9237bd" y="430.698192"/>
      </g>
     </g>
     <g id="text_18">
      <!-- 200 -->
      <g transform="translate(9.217187 434.49741)scale(0.1 -0.1)">
       <use xlink:href="#DejaVuSans-50"/>
       <use x="63.623047" xlink:href="#DejaVuSans-48"/>
       <use x="127.246094" xlink:href="#DejaVuSans-48"/>
      </g>
     </g>
    </g>
    <g id="ytick_11">
     <g id="line2d_37">
      <path clip-path="url(#p4c0aac8e2f)" d="M 35.304688 416.530135 
L 314.304688 416.530135 
" style="fill:none;stroke:#808080;stroke-dasharray:1.85,0.8;stroke-dashoffset:0;stroke-width:0.5;"/>
     </g>
     <g id="line2d_38">
      <g>
       <use style="stroke:#000000;stroke-width:0.8;" x="35.304688" xlink:href="#m8ccd9237bd" y="416.530135"/>
      </g>
     </g>
     <g id="text_19">
      <!-- 225 -->
      <g transform="translate(9.217187 420.329354)scale(0.1 -0.1)">
       <use xlink:href="#DejaVuSans-50"/>
       <use x="63.623047" xlink:href="#DejaVuSans-50"/>
       <use x="127.246094" xlink:href="#DejaVuSans-53"/>
      </g>
     </g>
    </g>
    <g id="ytick_12">
     <g id="line2d_39">
      <path clip-path="url(#p4c0aac8e2f)" d="M 35.304688 402.362078 
L 314.304688 402.362078 
" style="fill:none;stroke:#808080;stroke-dasharray:1.85,0.8;stroke-dashoffset:0;stroke-width:0.5;"/>
     </g>
     <g id="line2d_40">
      <g>
       <use style="stroke:#000000;stroke-width:0.8;" x="35.304688" xlink:href="#m8ccd9237bd" y="402.362078"/>
      </g>
     </g>
     <g id="text_20">
      <!-- 250 -->
      <g transform="translate(9.217187 406.161297)scale(0.1 -0.1)">
       <use xlink:href="#DejaVuSans-50"/>
       <use x="63.623047" xlink:href="#DejaVuSans-53"/>
       <use x="127.246094" xlink:href="#DejaVuSans-48"/>
      </g>
     </g>
    </g>
    <g id="ytick_13">
     <g id="line2d_41">
      <path clip-path="url(#p4c0aac8e2f)" d="M 35.304688 388.194022 
L 314.304688 388.194022 
" style="fill:none;stroke:#808080;stroke-dasharray:1.85,0.8;stroke-dashoffset:0;stroke-width:0.5;"/>
     </g>
     <g id="line2d_42">
      <g>
       <use style="stroke:#000000;stroke-width:0.8;" x="35.304688" xlink:href="#m8ccd9237bd" y="388.194022"/>
      </g>
     </g>
     <g id="text_21">
      <!-- 275 -->
      <g transform="translate(9.217187 391.99324)scale(0.1 -0.1)">
       <use xlink:href="#DejaVuSans-50"/>
       <use x="63.623047" xlink:href="#DejaVuSans-55"/>
       <use x="127.246094" xlink:href="#DejaVuSans-53"/>
      </g>
     </g>
    </g>
    <g id="ytick_14">
     <g id="line2d_43">
      <path clip-path="url(#p4c0aac8e2f)" d="M 35.304688 374.025965 
L 314.304688 374.025965 
" style="fill:none;stroke:#808080;stroke-dasharray:1.85,0.8;stroke-dashoffset:0;stroke-width:0.5;"/>
     </g>
     <g id="line2d_44">
      <g>
       <use style="stroke:#000000;stroke-width:0.8;" x="35.304688" xlink:href="#m8ccd9237bd" y="374.025965"/>
      </g>
     </g>
     <g id="text_22">
      <!-- 300 -->
      <g transform="translate(9.217187 377.825184)scale(0.1 -0.1)">
       <use xlink:href="#DejaVuSans-51"/>
       <use x="63.623047" xlink:href="#DejaVuSans-48"/>
       <use x="127.246094" xlink:href="#DejaVuSans-48"/>
      </g>
     </g>
    </g>
    <g id="ytick_15">
     <g id="line2d_45">
      <path clip-path="url(#p4c0aac8e2f)" d="M 35.304688 359.857908 
L 314.304688 359.857908 
" style="fill:none;stroke:#808080;stroke-dasharray:1.85,0.8;stroke-dashoffset:0;stroke-width:0.5;"/>
     </g>
     <g id="line2d_46">
      <g>
       <use style="stroke:#000000;stroke-width:0.8;" x="35.304688" xlink:href="#m8ccd9237bd" y="359.857908"/>
      </g>
     </g>
     <g id="text_23">
      <!-- 325 -->
      <g transform="translate(9.217187 363.657127)scale(0.1 -0.1)">
       <use xlink:href="#DejaVuSans-51"/>
       <use x="63.623047" xlink:href="#DejaVuSans-50"/>
       <use x="127.246094" xlink:href="#DejaVuSans-53"/>
      </g>
     </g>
    </g>
    <g id="ytick_16">
     <g id="line2d_47">
      <path clip-path="url(#p4c0aac8e2f)" d="M 35.304688 345.689851 
L 314.304688 345.689851 
" style="fill:none;stroke:#808080;stroke-dasharray:1.85,0.8;stroke-dashoffset:0;stroke-width:0.5;"/>
     </g>
     <g id="line2d_48">
      <g>
       <use style="stroke:#000000;stroke-width:0.8;" x="35.304688" xlink:href="#m8ccd9237bd" y="345.689851"/>
      </g>
     </g>
     <g id="text_24">
      <!-- 350 -->
      <g transform="translate(9.217187 349.48907)scale(0.1 -0.1)">
       <use xlink:href="#DejaVuSans-51"/>
       <use x="63.623047" xlink:href="#DejaVuSans-53"/>
       <use x="127.246094" xlink:href="#DejaVuSans-48"/>
      </g>
     </g>
    </g>
    <g id="ytick_17">
     <g id="line2d_49">
      <path clip-path="url(#p4c0aac8e2f)" d="M 35.304688 331.521795 
L 314.304688 331.521795 
" style="fill:none;stroke:#808080;stroke-dasharray:1.85,0.8;stroke-dashoffset:0;stroke-width:0.5;"/>
     </g>
     <g id="line2d_50">
      <g>
       <use style="stroke:#000000;stroke-width:0.8;" x="35.304688" xlink:href="#m8ccd9237bd" y="331.521795"/>
      </g>
     </g>
     <g id="text_25">
      <!-- 375 -->
      <g transform="translate(9.217187 335.321013)scale(0.1 -0.1)">
       <use xlink:href="#DejaVuSans-51"/>
       <use x="63.623047" xlink:href="#DejaVuSans-55"/>
       <use x="127.246094" xlink:href="#DejaVuSans-53"/>
      </g>
     </g>
    </g>
    <g id="ytick_18">
     <g id="line2d_51">
      <path clip-path="url(#p4c0aac8e2f)" d="M 35.304688 317.353738 
L 314.304688 317.353738 
" style="fill:none;stroke:#808080;stroke-dasharray:1.85,0.8;stroke-dashoffset:0;stroke-width:0.5;"/>
     </g>
     <g id="line2d_52">
      <g>
       <use style="stroke:#000000;stroke-width:0.8;" x="35.304688" xlink:href="#m8ccd9237bd" y="317.353738"/>
      </g>
     </g>
     <g id="text_26">
      <!-- 400 -->
      <g transform="translate(9.217187 321.152957)scale(0.1 -0.1)">
       <use xlink:href="#DejaVuSans-52"/>
       <use x="63.623047" xlink:href="#DejaVuSans-48"/>
       <use x="127.246094" xlink:href="#DejaVuSans-48"/>
      </g>
     </g>
    </g>
    <g id="ytick_19">
     <g id="line2d_53">
      <path clip-path="url(#p4c0aac8e2f)" d="M 35.304688 303.185681 
L 314.304688 303.185681 
" style="fill:none;stroke:#808080;stroke-dasharray:1.85,0.8;stroke-dashoffset:0;stroke-width:0.5;"/>
     </g>
     <g id="line2d_54">
      <g>
       <use style="stroke:#000000;stroke-width:0.8;" x="35.304688" xlink:href="#m8ccd9237bd" y="303.185681"/>
      </g>
     </g>
     <g id="text_27">
      <!-- 425 -->
      <g transform="translate(9.217187 306.9849)scale(0.1 -0.1)">
       <use xlink:href="#DejaVuSans-52"/>
       <use x="63.623047" xlink:href="#DejaVuSans-50"/>
       <use x="127.246094" xlink:href="#DejaVuSans-53"/>
      </g>
     </g>
    </g>
    <g id="ytick_20">
     <g id="line2d_55">
      <path clip-path="url(#p4c0aac8e2f)" d="M 35.304688 289.017625 
L 314.304688 289.017625 
" style="fill:none;stroke:#808080;stroke-dasharray:1.85,0.8;stroke-dashoffset:0;stroke-width:0.5;"/>
     </g>
     <g id="line2d_56">
      <g>
       <use style="stroke:#000000;stroke-width:0.8;" x="35.304688" xlink:href="#m8ccd9237bd" y="289.017625"/>
      </g>
     </g>
     <g id="text_28">
      <!-- 450 -->
      <g transform="translate(9.217187 292.816843)scale(0.1 -0.1)">
       <use xlink:href="#DejaVuSans-52"/>
       <use x="63.623047" xlink:href="#DejaVuSans-53"/>
       <use x="127.246094" xlink:href="#DejaVuSans-48"/>
      </g>
     </g>
    </g>
    <g id="ytick_21">
     <g id="line2d_57">
      <path clip-path="url(#p4c0aac8e2f)" d="M 35.304688 274.849568 
L 314.304688 274.849568 
" style="fill:none;stroke:#808080;stroke-dasharray:1.85,0.8;stroke-dashoffset:0;stroke-width:0.5;"/>
     </g>
     <g id="line2d_58">
      <g>
       <use style="stroke:#000000;stroke-width:0.8;" x="35.304688" xlink:href="#m8ccd9237bd" y="274.849568"/>
      </g>
     </g>
     <g id="text_29">
      <!-- 475 -->
      <g transform="translate(9.217187 278.648787)scale(0.1 -0.1)">
       <use xlink:href="#DejaVuSans-52"/>
       <use x="63.623047" xlink:href="#DejaVuSans-55"/>
       <use x="127.246094" xlink:href="#DejaVuSans-53"/>
      </g>
     </g>
    </g>
    <g id="ytick_22">
     <g id="line2d_59">
      <path clip-path="url(#p4c0aac8e2f)" d="M 35.304688 260.681511 
L 314.304688 260.681511 
" style="fill:none;stroke:#808080;stroke-dasharray:1.85,0.8;stroke-dashoffset:0;stroke-width:0.5;"/>
     </g>
     <g id="line2d_60">
      <g>
       <use style="stroke:#000000;stroke-width:0.8;" x="35.304688" xlink:href="#m8ccd9237bd" y="260.681511"/>
      </g>
     </g>
     <g id="text_30">
      <!-- 500 -->
      <g transform="translate(9.217187 264.48073)scale(0.1 -0.1)">
       <use xlink:href="#DejaVuSans-53"/>
       <use x="63.623047" xlink:href="#DejaVuSans-48"/>
       <use x="127.246094" xlink:href="#DejaVuSans-48"/>
      </g>
     </g>
    </g>
    <g id="ytick_23">
     <g id="line2d_61">
      <path clip-path="url(#p4c0aac8e2f)" d="M 35.304688 246.513454 
L 314.304688 246.513454 
" style="fill:none;stroke:#808080;stroke-dasharray:1.85,0.8;stroke-dashoffset:0;stroke-width:0.5;"/>
     </g>
     <g id="line2d_62">
      <g>
       <use style="stroke:#000000;stroke-width:0.8;" x="35.304688" xlink:href="#m8ccd9237bd" y="246.513454"/>
      </g>
     </g>
     <g id="text_31">
      <!-- 525 -->
      <g transform="translate(9.217187 250.312673)scale(0.1 -0.1)">
       <use xlink:href="#DejaVuSans-53"/>
       <use x="63.623047" xlink:href="#DejaVuSans-50"/>
       <use x="127.246094" xlink:href="#DejaVuSans-53"/>
      </g>
     </g>
    </g>
    <g id="ytick_24">
     <g id="line2d_63">
      <path clip-path="url(#p4c0aac8e2f)" d="M 35.304688 232.345398 
L 314.304688 232.345398 
" style="fill:none;stroke:#808080;stroke-dasharray:1.85,0.8;stroke-dashoffset:0;stroke-width:0.5;"/>
     </g>
     <g id="line2d_64">
      <g>
       <use style="stroke:#000000;stroke-width:0.8;" x="35.304688" xlink:href="#m8ccd9237bd" y="232.345398"/>
      </g>
     </g>
     <g id="text_32">
      <!-- 550 -->
      <g transform="translate(9.217187 236.144616)scale(0.1 -0.1)">
       <use xlink:href="#DejaVuSans-53"/>
       <use x="63.623047" xlink:href="#DejaVuSans-53"/>
       <use x="127.246094" xlink:href="#DejaVuSans-48"/>
      </g>
     </g>
    </g>
    <g id="ytick_25">
     <g id="line2d_65">
      <path clip-path="url(#p4c0aac8e2f)" d="M 35.304688 218.177341 
L 314.304688 218.177341 
" style="fill:none;stroke:#808080;stroke-dasharray:1.85,0.8;stroke-dashoffset:0;stroke-width:0.5;"/>
     </g>
     <g id="line2d_66">
      <g>
       <use style="stroke:#000000;stroke-width:0.8;" x="35.304688" xlink:href="#m8ccd9237bd" y="218.177341"/>
      </g>
     </g>
     <g id="text_33">
      <!-- 575 -->
      <g transform="translate(9.217187 221.97656)scale(0.1 -0.1)">
       <use xlink:href="#DejaVuSans-53"/>
       <use x="63.623047" xlink:href="#DejaVuSans-55"/>
       <use x="127.246094" xlink:href="#DejaVuSans-53"/>
      </g>
     </g>
    </g>
    <g id="ytick_26">
     <g id="line2d_67">
      <path clip-path="url(#p4c0aac8e2f)" d="M 35.304688 204.009284 
L 314.304688 204.009284 
" style="fill:none;stroke:#808080;stroke-dasharray:1.85,0.8;stroke-dashoffset:0;stroke-width:0.5;"/>
     </g>
     <g id="line2d_68">
      <g>
       <use style="stroke:#000000;stroke-width:0.8;" x="35.304688" xlink:href="#m8ccd9237bd" y="204.009284"/>
      </g>
     </g>
     <g id="text_34">
      <!-- 600 -->
      <defs>
       <path d="M 33.015625 40.375 
Q 26.375 40.375 22.484375 35.828125 
Q 18.609375 31.296875 18.609375 23.390625 
Q 18.609375 15.53125 22.484375 10.953125 
Q 26.375 6.390625 33.015625 6.390625 
Q 39.65625 6.390625 43.53125 10.953125 
Q 47.40625 15.53125 47.40625 23.390625 
Q 47.40625 31.296875 43.53125 35.828125 
Q 39.65625 40.375 33.015625 40.375 
z
M 52.59375 71.296875 
L 52.59375 62.3125 
Q 48.875 64.0625 45.09375 64.984375 
Q 41.3125 65.921875 37.59375 65.921875 
Q 27.828125 65.921875 22.671875 59.328125 
Q 17.53125 52.734375 16.796875 39.40625 
Q 19.671875 43.65625 24.015625 45.921875 
Q 28.375 48.1875 33.59375 48.1875 
Q 44.578125 48.1875 50.953125 41.515625 
Q 57.328125 34.859375 57.328125 23.390625 
Q 57.328125 12.15625 50.6875 5.359375 
Q 44.046875 -1.421875 33.015625 -1.421875 
Q 20.359375 -1.421875 13.671875 8.265625 
Q 6.984375 17.96875 6.984375 36.375 
Q 6.984375 53.65625 15.1875 63.9375 
Q 23.390625 74.21875 37.203125 74.21875 
Q 40.921875 74.21875 44.703125 73.484375 
Q 48.484375 72.75 52.59375 71.296875 
z
" id="DejaVuSans-54"/>
      </defs>
      <g transform="translate(9.217187 207.808503)scale(0.1 -0.1)">
       <use xlink:href="#DejaVuSans-54"/>
       <use x="63.623047" xlink:href="#DejaVuSans-48"/>
       <use x="127.246094" xlink:href="#DejaVuSans-48"/>
      </g>
     </g>
    </g>
    <g id="ytick_27">
     <g id="line2d_69">
      <path clip-path="url(#p4c0aac8e2f)" d="M 35.304688 189.841228 
L 314.304688 189.841228 
" style="fill:none;stroke:#808080;stroke-dasharray:1.85,0.8;stroke-dashoffset:0;stroke-width:0.5;"/>
     </g>
     <g id="line2d_70">
      <g>
       <use style="stroke:#000000;stroke-width:0.8;" x="35.304688" xlink:href="#m8ccd9237bd" y="189.841228"/>
      </g>
     </g>
     <g id="text_35">
      <!-- 625 -->
      <g transform="translate(9.217187 193.640446)scale(0.1 -0.1)">
       <use xlink:href="#DejaVuSans-54"/>
       <use x="63.623047" xlink:href="#DejaVuSans-50"/>
       <use x="127.246094" xlink:href="#DejaVuSans-53"/>
      </g>
     </g>
    </g>
    <g id="ytick_28">
     <g id="line2d_71">
      <path clip-path="url(#p4c0aac8e2f)" d="M 35.304688 175.673171 
L 314.304688 175.673171 
" style="fill:none;stroke:#808080;stroke-dasharray:1.85,0.8;stroke-dashoffset:0;stroke-width:0.5;"/>
     </g>
     <g id="line2d_72">
      <g>
       <use style="stroke:#000000;stroke-width:0.8;" x="35.304688" xlink:href="#m8ccd9237bd" y="175.673171"/>
      </g>
     </g>
     <g id="text_36">
      <!-- 650 -->
      <g transform="translate(9.217187 179.47239)scale(0.1 -0.1)">
       <use xlink:href="#DejaVuSans-54"/>
       <use x="63.623047" xlink:href="#DejaVuSans-53"/>
       <use x="127.246094" xlink:href="#DejaVuSans-48"/>
      </g>
     </g>
    </g>
    <g id="ytick_29">
     <g id="line2d_73">
      <path clip-path="url(#p4c0aac8e2f)" d="M 35.304688 161.505114 
L 314.304688 161.505114 
" style="fill:none;stroke:#808080;stroke-dasharray:1.85,0.8;stroke-dashoffset:0;stroke-width:0.5;"/>
     </g>
     <g id="line2d_74">
      <g>
       <use style="stroke:#000000;stroke-width:0.8;" x="35.304688" xlink:href="#m8ccd9237bd" y="161.505114"/>
      </g>
     </g>
     <g id="text_37">
      <!-- 675 -->
      <g transform="translate(9.217187 165.304333)scale(0.1 -0.1)">
       <use xlink:href="#DejaVuSans-54"/>
       <use x="63.623047" xlink:href="#DejaVuSans-55"/>
       <use x="127.246094" xlink:href="#DejaVuSans-53"/>
      </g>
     </g>
    </g>
    <g id="ytick_30">
     <g id="line2d_75">
      <path clip-path="url(#p4c0aac8e2f)" d="M 35.304688 147.337057 
L 314.304688 147.337057 
" style="fill:none;stroke:#808080;stroke-dasharray:1.85,0.8;stroke-dashoffset:0;stroke-width:0.5;"/>
     </g>
     <g id="line2d_76">
      <g>
       <use style="stroke:#000000;stroke-width:0.8;" x="35.304688" xlink:href="#m8ccd9237bd" y="147.337057"/>
      </g>
     </g>
     <g id="text_38">
      <!-- 700 -->
      <g transform="translate(9.217187 151.136276)scale(0.1 -0.1)">
       <use xlink:href="#DejaVuSans-55"/>
       <use x="63.623047" xlink:href="#DejaVuSans-48"/>
       <use x="127.246094" xlink:href="#DejaVuSans-48"/>
      </g>
     </g>
    </g>
    <g id="ytick_31">
     <g id="line2d_77">
      <path clip-path="url(#p4c0aac8e2f)" d="M 35.304688 133.169001 
L 314.304688 133.169001 
" style="fill:none;stroke:#808080;stroke-dasharray:1.85,0.8;stroke-dashoffset:0;stroke-width:0.5;"/>
     </g>
     <g id="line2d_78">
      <g>
       <use style="stroke:#000000;stroke-width:0.8;" x="35.304688" xlink:href="#m8ccd9237bd" y="133.169001"/>
      </g>
     </g>
     <g id="text_39">
      <!-- 725 -->
      <g transform="translate(9.217187 136.968219)scale(0.1 -0.1)">
       <use xlink:href="#DejaVuSans-55"/>
       <use x="63.623047" xlink:href="#DejaVuSans-50"/>
       <use x="127.246094" xlink:href="#DejaVuSans-53"/>
      </g>
     </g>
    </g>
    <g id="ytick_32">
     <g id="line2d_79">
      <path clip-path="url(#p4c0aac8e2f)" d="M 35.304688 119.000944 
L 314.304688 119.000944 
" style="fill:none;stroke:#808080;stroke-dasharray:1.85,0.8;stroke-dashoffset:0;stroke-width:0.5;"/>
     </g>
     <g id="line2d_80">
      <g>
       <use style="stroke:#000000;stroke-width:0.8;" x="35.304688" xlink:href="#m8ccd9237bd" y="119.000944"/>
      </g>
     </g>
     <g id="text_40">
      <!-- 750 -->
      <g transform="translate(9.217187 122.800163)scale(0.1 -0.1)">
       <use xlink:href="#DejaVuSans-55"/>
       <use x="63.623047" xlink:href="#DejaVuSans-53"/>
       <use x="127.246094" xlink:href="#DejaVuSans-48"/>
      </g>
     </g>
    </g>
    <g id="ytick_33">
     <g id="line2d_81">
      <path clip-path="url(#p4c0aac8e2f)" d="M 35.304688 104.832887 
L 314.304688 104.832887 
" style="fill:none;stroke:#808080;stroke-dasharray:1.85,0.8;stroke-dashoffset:0;stroke-width:0.5;"/>
     </g>
     <g id="line2d_82">
      <g>
       <use style="stroke:#000000;stroke-width:0.8;" x="35.304688" xlink:href="#m8ccd9237bd" y="104.832887"/>
      </g>
     </g>
     <g id="text_41">
      <!-- 775 -->
      <g transform="translate(9.217187 108.632106)scale(0.1 -0.1)">
       <use xlink:href="#DejaVuSans-55"/>
       <use x="63.623047" xlink:href="#DejaVuSans-55"/>
       <use x="127.246094" xlink:href="#DejaVuSans-53"/>
      </g>
     </g>
    </g>
    <g id="ytick_34">
     <g id="line2d_83">
      <path clip-path="url(#p4c0aac8e2f)" d="M 35.304688 90.664831 
L 314.304688 90.664831 
" style="fill:none;stroke:#808080;stroke-dasharray:1.85,0.8;stroke-dashoffset:0;stroke-width:0.5;"/>
     </g>
     <g id="line2d_84">
      <g>
       <use style="stroke:#000000;stroke-width:0.8;" x="35.304688" xlink:href="#m8ccd9237bd" y="90.664831"/>
      </g>
     </g>
     <g id="text_42">
      <!-- 800 -->
      <defs>
       <path d="M 31.78125 34.625 
Q 24.75 34.625 20.71875 30.859375 
Q 16.703125 27.09375 16.703125 20.515625 
Q 16.703125 13.921875 20.71875 10.15625 
Q 24.75 6.390625 31.78125 6.390625 
Q 38.8125 6.390625 42.859375 10.171875 
Q 46.921875 13.96875 46.921875 20.515625 
Q 46.921875 27.09375 42.890625 30.859375 
Q 38.875 34.625 31.78125 34.625 
z
M 21.921875 38.8125 
Q 15.578125 40.375 12.03125 44.71875 
Q 8.5 49.078125 8.5 55.328125 
Q 8.5 64.0625 14.71875 69.140625 
Q 20.953125 74.21875 31.78125 74.21875 
Q 42.671875 74.21875 48.875 69.140625 
Q 55.078125 64.0625 55.078125 55.328125 
Q 55.078125 49.078125 51.53125 44.71875 
Q 48 40.375 41.703125 38.8125 
Q 48.828125 37.15625 52.796875 32.3125 
Q 56.78125 27.484375 56.78125 20.515625 
Q 56.78125 9.90625 50.3125 4.234375 
Q 43.84375 -1.421875 31.78125 -1.421875 
Q 19.734375 -1.421875 13.25 4.234375 
Q 6.78125 9.90625 6.78125 20.515625 
Q 6.78125 27.484375 10.78125 32.3125 
Q 14.796875 37.15625 21.921875 38.8125 
z
M 18.3125 54.390625 
Q 18.3125 48.734375 21.84375 45.5625 
Q 25.390625 42.390625 31.78125 42.390625 
Q 38.140625 42.390625 41.71875 45.5625 
Q 45.3125 48.734375 45.3125 54.390625 
Q 45.3125 60.0625 41.71875 63.234375 
Q 38.140625 66.40625 31.78125 66.40625 
Q 25.390625 66.40625 21.84375 63.234375 
Q 18.3125 60.0625 18.3125 54.390625 
z
" id="DejaVuSans-56"/>
      </defs>
      <g transform="translate(9.217187 94.464049)scale(0.1 -0.1)">
       <use xlink:href="#DejaVuSans-56"/>
       <use x="63.623047" xlink:href="#DejaVuSans-48"/>
       <use x="127.246094" xlink:href="#DejaVuSans-48"/>
      </g>
     </g>
    </g>
    <g id="ytick_35">
     <g id="line2d_85">
      <path clip-path="url(#p4c0aac8e2f)" d="M 35.304688 76.496774 
L 314.304688 76.496774 
" style="fill:none;stroke:#808080;stroke-dasharray:1.85,0.8;stroke-dashoffset:0;stroke-width:0.5;"/>
     </g>
     <g id="line2d_86">
      <g>
       <use style="stroke:#000000;stroke-width:0.8;" x="35.304688" xlink:href="#m8ccd9237bd" y="76.496774"/>
      </g>
     </g>
     <g id="text_43">
      <!-- 825 -->
      <g transform="translate(9.217187 80.295993)scale(0.1 -0.1)">
       <use xlink:href="#DejaVuSans-56"/>
       <use x="63.623047" xlink:href="#DejaVuSans-50"/>
       <use x="127.246094" xlink:href="#DejaVuSans-53"/>
      </g>
     </g>
    </g>
    <g id="ytick_36">
     <g id="line2d_87">
      <path clip-path="url(#p4c0aac8e2f)" d="M 35.304688 62.328717 
L 314.304688 62.328717 
" style="fill:none;stroke:#808080;stroke-dasharray:1.85,0.8;stroke-dashoffset:0;stroke-width:0.5;"/>
     </g>
     <g id="line2d_88">
      <g>
       <use style="stroke:#000000;stroke-width:0.8;" x="35.304688" xlink:href="#m8ccd9237bd" y="62.328717"/>
      </g>
     </g>
     <g id="text_44">
      <!-- 850 -->
      <g transform="translate(9.217187 66.127936)scale(0.1 -0.1)">
       <use xlink:href="#DejaVuSans-56"/>
       <use x="63.623047" xlink:href="#DejaVuSans-53"/>
       <use x="127.246094" xlink:href="#DejaVuSans-48"/>
      </g>
     </g>
    </g>
    <g id="ytick_37">
     <g id="line2d_89">
      <path clip-path="url(#p4c0aac8e2f)" d="M 35.304688 48.16066 
L 314.304688 48.16066 
" style="fill:none;stroke:#808080;stroke-dasharray:1.85,0.8;stroke-dashoffset:0;stroke-width:0.5;"/>
     </g>
     <g id="line2d_90">
      <g>
       <use style="stroke:#000000;stroke-width:0.8;" x="35.304688" xlink:href="#m8ccd9237bd" y="48.16066"/>
      </g>
     </g>
     <g id="text_45">
      <!-- 875 -->
      <g transform="translate(9.217187 51.959879)scale(0.1 -0.1)">
       <use xlink:href="#DejaVuSans-56"/>
       <use x="63.623047" xlink:href="#DejaVuSans-55"/>
       <use x="127.246094" xlink:href="#DejaVuSans-53"/>
      </g>
     </g>
    </g>
    <g id="ytick_38">
     <g id="line2d_91">
      <path clip-path="url(#p4c0aac8e2f)" d="M 35.304688 33.992604 
L 314.304688 33.992604 
" style="fill:none;stroke:#808080;stroke-dasharray:1.85,0.8;stroke-dashoffset:0;stroke-width:0.5;"/>
     </g>
     <g id="line2d_92">
      <g>
       <use style="stroke:#000000;stroke-width:0.8;" x="35.304688" xlink:href="#m8ccd9237bd" y="33.992604"/>
      </g>
     </g>
     <g id="text_46">
      <!-- 900 -->
      <g transform="translate(9.217187 37.791822)scale(0.1 -0.1)">
       <use xlink:href="#DejaVuSans-57"/>
       <use x="63.623047" xlink:href="#DejaVuSans-48"/>
       <use x="127.246094" xlink:href="#DejaVuSans-48"/>
      </g>
     </g>
    </g>
   </g>
   <g id="line2d_93">
    <path clip-path="url(#p4c0aac8e2f)" d="M 47.986506 536.108534 
L 63.838778 536.108534 
L 79.691051 536.108534 
L 95.543324 536.108534 
L 111.395597 536.108534 
L 127.247869 536.108534 
L 143.100142 536.108534 
L 158.952415 536.108534 
L 174.804688 536.108534 
L 190.65696 535.541811 
L 206.509233 535.541811 
L 222.361506 535.541811 
L 238.213778 535.541811 
L 254.066051 535.541811 
L 269.918324 534.408367 
L 285.770597 534.408367 
L 301.622869 534.408367 
" style="fill:none;stroke:#f08080;stroke-linecap:square;stroke-width:1.5;"/>
   </g>
   <g id="line2d_94">
    <path clip-path="url(#p4c0aac8e2f)" d="M 47.986506 525.907533 
L 63.838778 525.340811 
L 79.691051 525.340811 
L 95.543324 525.340811 
L 111.395597 525.340811 
L 127.247869 524.207366 
L 143.100142 524.207366 
L 158.952415 524.207366 
L 174.804688 523.073921 
L 190.65696 523.073921 
L 206.509233 523.073921 
L 222.361506 519.106866 
L 238.213778 519.106866 
L 254.066051 519.106866 
L 269.918324 516.273254 
L 285.770597 516.273254 
L 301.622869 516.273254 
" style="fill:none;stroke:#ff8c00;stroke-linecap:square;stroke-width:1.5;"/>
   </g>
   <g id="line2d_95">
    <path clip-path="url(#p4c0aac8e2f)" d="M 47.986506 529.307866 
L 63.838778 528.174422 
L 79.691051 528.174422 
L 95.543324 528.174422 
L 111.395597 528.174422 
L 127.247869 527.040977 
L 143.100142 527.040977 
L 158.952415 525.907533 
L 174.804688 519.106866 
L 190.65696 519.106866 
L 206.509233 516.273254 
L 222.361506 515.13981 
L 238.213778 514.006365 
L 254.066051 514.006365 
L 269.918324 510.606032 
L 285.770597 508.905865 
L 301.622869 508.905865 
" style="fill:none;stroke:#fafad2;stroke-linecap:square;stroke-width:1.5;"/>
   </g>
   <g id="line2d_96">
    <path clip-path="url(#p4c0aac8e2f)" d="M 47.986506 539.508867 
L 63.838778 539.508867 
L 79.691051 539.508867 
L 95.543324 539.508867 
L 111.395597 539.508867 
L 127.247869 539.508867 
L 143.100142 539.508867 
L 158.952415 539.508867 
L 174.804688 538.942145 
L 190.65696 538.942145 
L 206.509233 538.375423 
L 222.361506 538.375423 
L 238.213778 537.241978 
L 254.066051 537.241978 
L 269.918324 537.241978 
L 285.770597 537.241978 
L 301.622869 537.241978 
" style="fill:none;stroke:#ffdab9;stroke-linecap:square;stroke-width:1.5;"/>
   </g>
   <g id="line2d_97">
    <path clip-path="url(#p4c0aac8e2f)" d="M 47.986506 540.07559 
L 63.838778 539.508867 
L 79.691051 539.508867 
L 95.543324 538.375423 
L 111.395597 538.375423 
L 127.247869 536.108534 
L 143.100142 533.841645 
L 158.952415 533.841645 
L 174.804688 529.307866 
L 190.65696 527.040977 
L 206.509233 525.907533 
L 222.361506 523.073921 
L 238.213778 520.807032 
L 254.066051 520.807032 
L 269.918324 512.306198 
L 285.770597 508.905865 
L 301.622869 508.905865 
" style="fill:none;stroke:#dda0dd;stroke-linecap:square;stroke-width:1.5;"/>
   </g>
   <g id="line2d_98">
    <path clip-path="url(#p4c0aac8e2f)" d="M 47.986506 534.975089 
L 63.838778 534.975089 
L 79.691051 534.975089 
L 95.543324 532.7082 
L 111.395597 532.7082 
L 127.247869 532.7082 
L 143.100142 532.141478 
L 158.952415 532.141478 
L 174.804688 529.874589 
L 190.65696 528.741144 
L 206.509233 528.174422 
L 222.361506 528.174422 
L 238.213778 528.174422 
L 254.066051 528.174422 
L 269.918324 527.040977 
L 285.770597 525.907533 
L 301.622869 525.907533 
" style="fill:none;stroke:#9370db;stroke-linecap:square;stroke-width:1.5;"/>
   </g>
   <g id="line2d_99">
    <path clip-path="url(#p4c0aac8e2f)" d="M 47.986506 525.340811 
L 63.838778 525.340811 
L 79.691051 525.340811 
L 95.543324 525.340811 
L 111.395597 525.340811 
L 127.247869 525.340811 
L 143.100142 525.340811 
L 158.952415 525.340811 
L 174.804688 525.340811 
L 190.65696 524.774088 
L 206.509233 523.073921 
L 222.361506 523.073921 
L 238.213778 523.073921 
L 254.066051 523.073921 
L 269.918324 519.673588 
L 285.770597 516.839977 
L 301.622869 516.839977 
" style="fill:none;stroke:#800080;stroke-linecap:square;stroke-width:1.5;"/>
   </g>
   <g id="line2d_100">
    <path clip-path="url(#p4c0aac8e2f)" d="M 47.986506 516.273254 
L 63.838778 514.573087 
L 79.691051 514.573087 
L 95.543324 512.872921 
L 111.395597 512.872921 
L 127.247869 512.872921 
L 143.100142 511.739476 
L 158.952415 510.606032 
L 174.804688 508.339143 
L 190.65696 507.77242 
L 206.509233 506.072253 
L 222.361506 503.238642 
L 238.213778 503.238642 
L 254.066051 503.238642 
L 269.918324 493.604364 
L 285.770597 491.337474 
L 301.622869 491.337474 
" style="fill:none;stroke:#7fff00;stroke-linecap:square;stroke-width:1.5;"/>
   </g>
   <g id="line2d_101">
    <path clip-path="url(#p4c0aac8e2f)" d="M 47.986506 524.774088 
L 63.838778 523.073921 
L 79.691051 523.073921 
L 95.543324 520.807032 
L 111.395597 520.807032 
L 127.247869 519.106866 
L 143.100142 517.973421 
L 158.952415 517.973421 
L 174.804688 517.973421 
L 190.65696 517.973421 
L 206.509233 515.13981 
L 222.361506 513.439643 
L 238.213778 511.172754 
L 254.066051 511.172754 
L 269.918324 511.172754 
L 285.770597 511.172754 
L 301.622869 511.172754 
" style="fill:none;stroke:#00fa9a;stroke-linecap:square;stroke-width:1.5;"/>
   </g>
   <g id="line2d_102">
    <path clip-path="url(#p4c0aac8e2f)" d="M 47.986506 529.307866 
L 63.838778 527.6077 
L 79.691051 527.6077 
L 95.543324 527.6077 
L 111.395597 527.6077 
L 127.247869 527.040977 
L 143.100142 527.040977 
L 158.952415 527.040977 
L 174.804688 526.474255 
L 190.65696 525.907533 
L 206.509233 523.073921 
L 222.361506 521.940477 
L 238.213778 521.373755 
L 254.066051 521.373755 
L 269.918324 520.807032 
L 285.770597 520.807032 
L 301.622869 520.807032 
" style="fill:none;stroke:#008000;stroke-linecap:square;stroke-width:1.5;"/>
   </g>
   <g id="line2d_103">
    <path clip-path="url(#p4c0aac8e2f)" d="M 47.986506 494.171086 
L 63.838778 491.904197 
L 79.691051 491.904197 
L 95.543324 488.503863 
L 111.395597 488.503863 
L 127.247869 484.536807 
L 143.100142 483.403363 
L 158.952415 480.569751 
L 174.804688 473.202362 
L 190.65696 469.802028 
L 206.509233 463.568083 
L 222.361506 456.767416 
L 238.213778 449.966749 
L 254.066051 449.966749 
L 269.918324 424.464247 
L 285.770597 418.230302 
L 301.622869 418.230302 
" style="fill:none;stroke:#00ffff;stroke-linecap:square;stroke-width:1.5;"/>
   </g>
   <g id="line2d_104">
    <path clip-path="url(#p4c0aac8e2f)" d="M 47.986506 528.174422 
L 63.838778 526.474255 
L 79.691051 526.474255 
L 95.543324 524.774088 
L 111.395597 524.774088 
L 127.247869 524.207366 
L 143.100142 523.073921 
L 158.952415 521.940477 
L 174.804688 518.540143 
L 190.65696 518.540143 
L 206.509233 516.273254 
L 222.361506 514.573087 
L 238.213778 513.439643 
L 254.066051 513.439643 
L 269.918324 507.77242 
L 285.770597 505.505531 
L 301.622869 505.505531 
" style="fill:none;stroke:#48d1cc;stroke-linecap:square;stroke-width:1.5;"/>
   </g>
   <g id="line2d_105">
    <path clip-path="url(#p4c0aac8e2f)" d="M 47.986506 514.573087 
L 63.838778 512.872921 
L 79.691051 512.872921 
L 95.543324 510.039309 
L 111.395597 510.039309 
L 127.247869 508.339143 
L 143.100142 499.838308 
L 158.952415 499.271586 
L 174.804688 498.138142 
L 190.65696 496.437975 
L 206.509233 492.470919 
L 222.361506 490.20403 
L 238.213778 486.236974 
L 254.066051 486.236974 
L 269.918324 476.602695 
L 285.770597 474.335806 
L 301.622869 474.335806 
" style="fill:none;stroke:#b0e0e6;stroke-linecap:square;stroke-width:1.5;"/>
   </g>
   <g id="line2d_106">
    <path clip-path="url(#p4c0aac8e2f)" d="M 47.986506 414.829968 
L 63.838778 397.8283 
L 79.691051 397.8283 
L 95.543324 375.159409 
L 111.395597 375.159409 
L 127.247869 354.190685 
L 143.100142 332.655239 
L 158.952415 313.953404 
L 174.804688 287.88418 
L 190.65696 265.215289 
L 206.509233 227.81162 
L 222.361506 190.974672 
L 238.213778 153.571002 
L 254.066051 153.571002 
L 269.918324 89.531386 
L 285.770597 47.027216 
L 301.622869 47.027216 
" style="fill:none;stroke:#6495ed;stroke-linecap:square;stroke-width:1.5;"/>
   </g>
   <g id="line2d_107">
    <path clip-path="url(#p4c0aac8e2f)" d="M 47.986506 533.841645 
L 63.838778 532.7082 
L 79.691051 532.7082 
L 95.543324 532.7082 
L 111.395597 532.7082 
L 127.247869 531.574756 
L 143.100142 531.574756 
L 158.952415 529.307866 
L 174.804688 528.741144 
L 190.65696 527.040977 
L 206.509233 526.474255 
L 222.361506 524.774088 
L 238.213778 522.507199 
L 254.066051 522.507199 
L 269.918324 519.106866 
L 285.770597 517.406699 
L 301.622869 517.406699 
" style="fill:none;stroke:#000080;stroke-linecap:square;stroke-width:1.5;"/>
   </g>
   <g id="line2d_108">
    <path clip-path="url(#p4c0aac8e2f)" d="M 47.986506 541.209034 
L 63.838778 540.642312 
L 79.691051 540.642312 
L 95.543324 540.07559 
L 111.395597 540.07559 
L 127.247869 540.07559 
L 143.100142 540.07559 
L 158.952415 540.07559 
L 174.804688 539.508867 
L 190.65696 536.675256 
L 206.509233 536.108534 
L 222.361506 534.408367 
L 238.213778 532.7082 
L 254.066051 532.7082 
L 269.918324 531.574756 
L 285.770597 531.574756 
L 301.622869 531.574756 
" style="fill:none;stroke:#f5deb3;stroke-linecap:square;stroke-width:1.5;"/>
   </g>
   <g id="line2d_109">
    <path clip-path="url(#p4c0aac8e2f)" d="M 47.986506 534.975089 
L 63.838778 533.841645 
L 79.691051 533.841645 
L 95.543324 533.274922 
L 111.395597 533.274922 
L 127.247869 532.7082 
L 143.100142 532.7082 
L 158.952415 532.141478 
L 174.804688 531.008033 
L 190.65696 531.008033 
L 206.509233 529.874589 
L 222.361506 524.774088 
L 238.213778 524.774088 
L 254.066051 524.774088 
L 269.918324 522.507199 
L 285.770597 516.839977 
L 301.622869 516.839977 
" style="fill:none;stroke:#b8860b;stroke-linecap:square;stroke-width:1.5;"/>
   </g>
   <g id="line2d_110">
    <path clip-path="url(#p4c0aac8e2f)" d="M 47.986506 521.373755 
L 63.838778 519.440232 
L 79.691051 519.440232 
L 95.543324 517.140006 
L 111.395597 517.140006 
L 127.247869 515.0398 
L 143.100142 512.839584 
L 158.952415 511.172754 
L 174.804688 507.739084 
L 190.65696 505.505531 
L 206.509233 501.605148 
L 222.361506 497.504746 
L 238.213778 493.93773 
L 254.066051 493.93773 
L 269.918324 485.570242 
L 285.770597 481.336493 
L 301.622869 481.336493 
" style="fill:none;stroke:#ff6347;stroke-dasharray:4.5,1.5,1.5,1.5,1.5,1.5;stroke-dashoffset:0;stroke-width:1.5;"/>
   </g>
   <g id="patch_3">
    <path d="M 35.304688 565.918125 
L 35.304688 22.318125 
" style="fill:none;stroke:#000000;stroke-linecap:square;stroke-linejoin:miter;stroke-width:0.8;"/>
   </g>
   <g id="patch_4">
    <path d="M 314.304688 565.918125 
L 314.304688 22.318125 
" style="fill:none;stroke:#000000;stroke-linecap:square;stroke-linejoin:miter;stroke-width:0.8;"/>
   </g>
   <g id="patch_5">
    <path d="M 35.304688 565.918125 
L 314.304688 565.918125 
" style="fill:none;stroke:#000000;stroke-linecap:square;stroke-linejoin:miter;stroke-width:0.8;"/>
   </g>
   <g id="patch_6">
    <path d="M 35.304688 22.318125 
L 314.304688 22.318125 
" style="fill:none;stroke:#000000;stroke-linecap:square;stroke-linejoin:miter;stroke-width:0.8;"/>
   </g>
   <g id="text_47">
    <!-- Average people under investigation per region is 110.65 , people as of 20/04/2020 . -->
    <defs>
     <path d="M 34.1875 63.1875 
L 20.796875 26.90625 
L 47.609375 26.90625 
z
M 28.609375 72.90625 
L 39.796875 72.90625 
L 67.578125 0 
L 57.328125 0 
L 50.6875 18.703125 
L 17.828125 18.703125 
L 11.1875 0 
L 0.78125 0 
z
" id="DejaVuSans-65"/>
     <path d="M 2.984375 54.6875 
L 12.5 54.6875 
L 29.59375 8.796875 
L 46.6875 54.6875 
L 56.203125 54.6875 
L 35.6875 0 
L 23.484375 0 
z
" id="DejaVuSans-118"/>
     <path d="M 56.203125 29.59375 
L 56.203125 25.203125 
L 14.890625 25.203125 
Q 15.484375 15.921875 20.484375 11.0625 
Q 25.484375 6.203125 34.421875 6.203125 
Q 39.59375 6.203125 44.453125 7.46875 
Q 49.3125 8.734375 54.109375 11.28125 
L 54.109375 2.78125 
Q 49.265625 0.734375 44.1875 -0.34375 
Q 39.109375 -1.421875 33.890625 -1.421875 
Q 20.796875 -1.421875 13.15625 6.1875 
Q 5.515625 13.8125 5.515625 26.8125 
Q 5.515625 40.234375 12.765625 48.109375 
Q 20.015625 56 32.328125 56 
Q 43.359375 56 49.78125 48.890625 
Q 56.203125 41.796875 56.203125 29.59375 
z
M 47.21875 32.234375 
Q 47.125 39.59375 43.09375 43.984375 
Q 39.0625 48.390625 32.421875 48.390625 
Q 24.90625 48.390625 20.390625 44.140625 
Q 15.875 39.890625 15.1875 32.171875 
z
" id="DejaVuSans-101"/>
     <path d="M 41.109375 46.296875 
Q 39.59375 47.171875 37.8125 47.578125 
Q 36.03125 48 33.890625 48 
Q 26.265625 48 22.1875 43.046875 
Q 18.109375 38.09375 18.109375 28.8125 
L 18.109375 0 
L 9.078125 0 
L 9.078125 54.6875 
L 18.109375 54.6875 
L 18.109375 46.1875 
Q 20.953125 51.171875 25.484375 53.578125 
Q 30.03125 56 36.53125 56 
Q 37.453125 56 38.578125 55.875 
Q 39.703125 55.765625 41.0625 55.515625 
z
" id="DejaVuSans-114"/>
     <path d="M 34.28125 27.484375 
Q 23.390625 27.484375 19.1875 25 
Q 14.984375 22.515625 14.984375 16.5 
Q 14.984375 11.71875 18.140625 8.90625 
Q 21.296875 6.109375 26.703125 6.109375 
Q 34.1875 6.109375 38.703125 11.40625 
Q 43.21875 16.703125 43.21875 25.484375 
L 43.21875 27.484375 
z
M 52.203125 31.203125 
L 52.203125 0 
L 43.21875 0 
L 43.21875 8.296875 
Q 40.140625 3.328125 35.546875 0.953125 
Q 30.953125 -1.421875 24.3125 -1.421875 
Q 15.921875 -1.421875 10.953125 3.296875 
Q 6 8.015625 6 15.921875 
Q 6 25.140625 12.171875 29.828125 
Q 18.359375 34.515625 30.609375 34.515625 
L 43.21875 34.515625 
L 43.21875 35.40625 
Q 43.21875 41.609375 39.140625 45 
Q 35.0625 48.390625 27.6875 48.390625 
Q 23 48.390625 18.546875 47.265625 
Q 14.109375 46.140625 10.015625 43.890625 
L 10.015625 52.203125 
Q 14.9375 54.109375 19.578125 55.046875 
Q 24.21875 56 28.609375 56 
Q 40.484375 56 46.34375 49.84375 
Q 52.203125 43.703125 52.203125 31.203125 
z
" id="DejaVuSans-97"/>
     <path d="M 45.40625 27.984375 
Q 45.40625 37.75 41.375 43.109375 
Q 37.359375 48.484375 30.078125 48.484375 
Q 22.859375 48.484375 18.828125 43.109375 
Q 14.796875 37.75 14.796875 27.984375 
Q 14.796875 18.265625 18.828125 12.890625 
Q 22.859375 7.515625 30.078125 7.515625 
Q 37.359375 7.515625 41.375 12.890625 
Q 45.40625 18.265625 45.40625 27.984375 
z
M 54.390625 6.78125 
Q 54.390625 -7.171875 48.1875 -13.984375 
Q 42 -20.796875 29.203125 -20.796875 
Q 24.46875 -20.796875 20.265625 -20.09375 
Q 16.0625 -19.390625 12.109375 -17.921875 
L 12.109375 -9.1875 
Q 16.0625 -11.328125 19.921875 -12.34375 
Q 23.78125 -13.375 27.78125 -13.375 
Q 36.625 -13.375 41.015625 -8.765625 
Q 45.40625 -4.15625 45.40625 5.171875 
L 45.40625 9.625 
Q 42.625 4.78125 38.28125 2.390625 
Q 33.9375 0 27.875 0 
Q 17.828125 0 11.671875 7.65625 
Q 5.515625 15.328125 5.515625 27.984375 
Q 5.515625 40.671875 11.671875 48.328125 
Q 17.828125 56 27.875 56 
Q 33.9375 56 38.28125 53.609375 
Q 42.625 51.21875 45.40625 46.390625 
L 45.40625 54.6875 
L 54.390625 54.6875 
z
" id="DejaVuSans-103"/>
     <path id="DejaVuSans-32"/>
     <path d="M 18.109375 8.203125 
L 18.109375 -20.796875 
L 9.078125 -20.796875 
L 9.078125 54.6875 
L 18.109375 54.6875 
L 18.109375 46.390625 
Q 20.953125 51.265625 25.265625 53.625 
Q 29.59375 56 35.59375 56 
Q 45.5625 56 51.78125 48.09375 
Q 58.015625 40.1875 58.015625 27.296875 
Q 58.015625 14.40625 51.78125 6.484375 
Q 45.5625 -1.421875 35.59375 -1.421875 
Q 29.59375 -1.421875 25.265625 0.953125 
Q 20.953125 3.328125 18.109375 8.203125 
z
M 48.6875 27.296875 
Q 48.6875 37.203125 44.609375 42.84375 
Q 40.53125 48.484375 33.40625 48.484375 
Q 26.265625 48.484375 22.1875 42.84375 
Q 18.109375 37.203125 18.109375 27.296875 
Q 18.109375 17.390625 22.1875 11.75 
Q 26.265625 6.109375 33.40625 6.109375 
Q 40.53125 6.109375 44.609375 11.75 
Q 48.6875 17.390625 48.6875 27.296875 
z
" id="DejaVuSans-112"/>
     <path d="M 30.609375 48.390625 
Q 23.390625 48.390625 19.1875 42.75 
Q 14.984375 37.109375 14.984375 27.296875 
Q 14.984375 17.484375 19.15625 11.84375 
Q 23.34375 6.203125 30.609375 6.203125 
Q 37.796875 6.203125 41.984375 11.859375 
Q 46.1875 17.53125 46.1875 27.296875 
Q 46.1875 37.015625 41.984375 42.703125 
Q 37.796875 48.390625 30.609375 48.390625 
z
M 30.609375 56 
Q 42.328125 56 49.015625 48.375 
Q 55.71875 40.765625 55.71875 27.296875 
Q 55.71875 13.875 49.015625 6.21875 
Q 42.328125 -1.421875 30.609375 -1.421875 
Q 18.84375 -1.421875 12.171875 6.21875 
Q 5.515625 13.875 5.515625 27.296875 
Q 5.515625 40.765625 12.171875 48.375 
Q 18.84375 56 30.609375 56 
z
" id="DejaVuSans-111"/>
     <path d="M 9.421875 75.984375 
L 18.40625 75.984375 
L 18.40625 0 
L 9.421875 0 
z
" id="DejaVuSans-108"/>
     <path d="M 8.5 21.578125 
L 8.5 54.6875 
L 17.484375 54.6875 
L 17.484375 21.921875 
Q 17.484375 14.15625 20.5 10.265625 
Q 23.53125 6.390625 29.59375 6.390625 
Q 36.859375 6.390625 41.078125 11.03125 
Q 45.3125 15.671875 45.3125 23.6875 
L 45.3125 54.6875 
L 54.296875 54.6875 
L 54.296875 0 
L 45.3125 0 
L 45.3125 8.40625 
Q 42.046875 3.421875 37.71875 1 
Q 33.40625 -1.421875 27.6875 -1.421875 
Q 18.265625 -1.421875 13.375 4.4375 
Q 8.5 10.296875 8.5 21.578125 
z
M 31.109375 56 
z
" id="DejaVuSans-117"/>
     <path d="M 54.890625 33.015625 
L 54.890625 0 
L 45.90625 0 
L 45.90625 32.71875 
Q 45.90625 40.484375 42.875 44.328125 
Q 39.84375 48.1875 33.796875 48.1875 
Q 26.515625 48.1875 22.3125 43.546875 
Q 18.109375 38.921875 18.109375 30.90625 
L 18.109375 0 
L 9.078125 0 
L 9.078125 54.6875 
L 18.109375 54.6875 
L 18.109375 46.1875 
Q 21.34375 51.125 25.703125 53.5625 
Q 30.078125 56 35.796875 56 
Q 45.21875 56 50.046875 50.171875 
Q 54.890625 44.34375 54.890625 33.015625 
z
" id="DejaVuSans-110"/>
     <path d="M 45.40625 46.390625 
L 45.40625 75.984375 
L 54.390625 75.984375 
L 54.390625 0 
L 45.40625 0 
L 45.40625 8.203125 
Q 42.578125 3.328125 38.25 0.953125 
Q 33.9375 -1.421875 27.875 -1.421875 
Q 17.96875 -1.421875 11.734375 6.484375 
Q 5.515625 14.40625 5.515625 27.296875 
Q 5.515625 40.1875 11.734375 48.09375 
Q 17.96875 56 27.875 56 
Q 33.9375 56 38.25 53.625 
Q 42.578125 51.265625 45.40625 46.390625 
z
M 14.796875 27.296875 
Q 14.796875 17.390625 18.875 11.75 
Q 22.953125 6.109375 30.078125 6.109375 
Q 37.203125 6.109375 41.296875 11.75 
Q 45.40625 17.390625 45.40625 27.296875 
Q 45.40625 37.203125 41.296875 42.84375 
Q 37.203125 48.484375 30.078125 48.484375 
Q 22.953125 48.484375 18.875 42.84375 
Q 14.796875 37.203125 14.796875 27.296875 
z
" id="DejaVuSans-100"/>
     <path d="M 9.421875 54.6875 
L 18.40625 54.6875 
L 18.40625 0 
L 9.421875 0 
z
M 9.421875 75.984375 
L 18.40625 75.984375 
L 18.40625 64.59375 
L 9.421875 64.59375 
z
" id="DejaVuSans-105"/>
     <path d="M 44.28125 53.078125 
L 44.28125 44.578125 
Q 40.484375 46.53125 36.375 47.5 
Q 32.28125 48.484375 27.875 48.484375 
Q 21.1875 48.484375 17.84375 46.4375 
Q 14.5 44.390625 14.5 40.28125 
Q 14.5 37.15625 16.890625 35.375 
Q 19.28125 33.59375 26.515625 31.984375 
L 29.59375 31.296875 
Q 39.15625 29.25 43.1875 25.515625 
Q 47.21875 21.78125 47.21875 15.09375 
Q 47.21875 7.46875 41.1875 3.015625 
Q 35.15625 -1.421875 24.609375 -1.421875 
Q 20.21875 -1.421875 15.453125 -0.5625 
Q 10.6875 0.296875 5.421875 2 
L 5.421875 11.28125 
Q 10.40625 8.6875 15.234375 7.390625 
Q 20.0625 6.109375 24.8125 6.109375 
Q 31.15625 6.109375 34.5625 8.28125 
Q 37.984375 10.453125 37.984375 14.40625 
Q 37.984375 18.0625 35.515625 20.015625 
Q 33.0625 21.96875 24.703125 23.78125 
L 21.578125 24.515625 
Q 13.234375 26.265625 9.515625 29.90625 
Q 5.8125 33.546875 5.8125 39.890625 
Q 5.8125 47.609375 11.28125 51.796875 
Q 16.75 56 26.8125 56 
Q 31.78125 56 36.171875 55.265625 
Q 40.578125 54.546875 44.28125 53.078125 
z
" id="DejaVuSans-115"/>
     <path d="M 18.3125 70.21875 
L 18.3125 54.6875 
L 36.8125 54.6875 
L 36.8125 47.703125 
L 18.3125 47.703125 
L 18.3125 18.015625 
Q 18.3125 11.328125 20.140625 9.421875 
Q 21.96875 7.515625 27.59375 7.515625 
L 36.8125 7.515625 
L 36.8125 0 
L 27.59375 0 
Q 17.1875 0 13.234375 3.875 
Q 9.28125 7.765625 9.28125 18.015625 
L 9.28125 47.703125 
L 2.6875 47.703125 
L 2.6875 54.6875 
L 9.28125 54.6875 
L 9.28125 70.21875 
z
" id="DejaVuSans-116"/>
     <path d="M 10.6875 12.40625 
L 21 12.40625 
L 21 0 
L 10.6875 0 
z
" id="DejaVuSans-46"/>
     <path d="M 11.71875 12.40625 
L 22.015625 12.40625 
L 22.015625 4 
L 14.015625 -11.625 
L 7.71875 -11.625 
L 11.71875 4 
z
" id="DejaVuSans-44"/>
     <path d="M 37.109375 75.984375 
L 37.109375 68.5 
L 28.515625 68.5 
Q 23.6875 68.5 21.796875 66.546875 
Q 19.921875 64.59375 19.921875 59.515625 
L 19.921875 54.6875 
L 34.71875 54.6875 
L 34.71875 47.703125 
L 19.921875 47.703125 
L 19.921875 0 
L 10.890625 0 
L 10.890625 47.703125 
L 2.296875 47.703125 
L 2.296875 54.6875 
L 10.890625 54.6875 
L 10.890625 58.5 
Q 10.890625 67.625 15.140625 71.796875 
Q 19.390625 75.984375 28.609375 75.984375 
z
" id="DejaVuSans-102"/>
     <path d="M 25.390625 72.90625 
L 33.6875 72.90625 
L 8.296875 -9.28125 
L 0 -9.28125 
z
" id="DejaVuSans-47"/>
    </defs>
    <g transform="translate(35.304688 672.558437)scale(0.1 -0.1)">
     <use xlink:href="#DejaVuSans-65"/>
     <use x="62.533203" xlink:href="#DejaVuSans-118"/>
     <use x="121.712891" xlink:href="#DejaVuSans-101"/>
     <use x="183.236328" xlink:href="#DejaVuSans-114"/>
     <use x="224.349609" xlink:href="#DejaVuSans-97"/>
     <use x="285.628906" xlink:href="#DejaVuSans-103"/>
     <use x="349.105469" xlink:href="#DejaVuSans-101"/>
     <use x="410.628906" xlink:href="#DejaVuSans-32"/>
     <use x="442.416016" xlink:href="#DejaVuSans-112"/>
     <use x="505.892578" xlink:href="#DejaVuSans-101"/>
     <use x="567.416016" xlink:href="#DejaVuSans-111"/>
     <use x="628.597656" xlink:href="#DejaVuSans-112"/>
     <use x="692.074219" xlink:href="#DejaVuSans-108"/>
     <use x="719.857422" xlink:href="#DejaVuSans-101"/>
     <use x="781.380859" xlink:href="#DejaVuSans-32"/>
     <use x="813.167969" xlink:href="#DejaVuSans-117"/>
     <use x="876.546875" xlink:href="#DejaVuSans-110"/>
     <use x="939.925781" xlink:href="#DejaVuSans-100"/>
     <use x="1003.402344" xlink:href="#DejaVuSans-101"/>
     <use x="1064.925781" xlink:href="#DejaVuSans-114"/>
     <use x="1106.039062" xlink:href="#DejaVuSans-32"/>
     <use x="1137.826172" xlink:href="#DejaVuSans-105"/>
     <use x="1165.609375" xlink:href="#DejaVuSans-110"/>
     <use x="1228.988281" xlink:href="#DejaVuSans-118"/>
     <use x="1288.167969" xlink:href="#DejaVuSans-101"/>
     <use x="1349.691406" xlink:href="#DejaVuSans-115"/>
     <use x="1401.791016" xlink:href="#DejaVuSans-116"/>
     <use x="1441" xlink:href="#DejaVuSans-105"/>
     <use x="1468.783203" xlink:href="#DejaVuSans-103"/>
     <use x="1532.259766" xlink:href="#DejaVuSans-97"/>
     <use x="1593.539062" xlink:href="#DejaVuSans-116"/>
     <use x="1632.748047" xlink:href="#DejaVuSans-105"/>
     <use x="1660.53125" xlink:href="#DejaVuSans-111"/>
     <use x="1721.712891" xlink:href="#DejaVuSans-110"/>
     <use x="1785.091797" xlink:href="#DejaVuSans-32"/>
     <use x="1816.878906" xlink:href="#DejaVuSans-112"/>
     <use x="1880.355469" xlink:href="#DejaVuSans-101"/>
     <use x="1941.878906" xlink:href="#DejaVuSans-114"/>
     <use x="1982.992188" xlink:href="#DejaVuSans-32"/>
     <use x="2014.779297" xlink:href="#DejaVuSans-114"/>
     <use x="2053.642578" xlink:href="#DejaVuSans-101"/>
     <use x="2115.166016" xlink:href="#DejaVuSans-103"/>
     <use x="2178.642578" xlink:href="#DejaVuSans-105"/>
     <use x="2206.425781" xlink:href="#DejaVuSans-111"/>
     <use x="2267.607422" xlink:href="#DejaVuSans-110"/>
     <use x="2330.986328" xlink:href="#DejaVuSans-32"/>
     <use x="2362.773438" xlink:href="#DejaVuSans-105"/>
     <use x="2390.556641" xlink:href="#DejaVuSans-115"/>
     <use x="2442.65625" xlink:href="#DejaVuSans-32"/>
     <use x="2474.443359" xlink:href="#DejaVuSans-49"/>
     <use x="2538.066406" xlink:href="#DejaVuSans-49"/>
     <use x="2601.689453" xlink:href="#DejaVuSans-48"/>
     <use x="2665.3125" xlink:href="#DejaVuSans-46"/>
     <use x="2697.099609" xlink:href="#DejaVuSans-54"/>
     <use x="2760.722656" xlink:href="#DejaVuSans-53"/>
     <use x="2824.345703" xlink:href="#DejaVuSans-32"/>
     <use x="2856.132812" xlink:href="#DejaVuSans-44"/>
     <use x="2887.919922" xlink:href="#DejaVuSans-32"/>
     <use x="2919.707031" xlink:href="#DejaVuSans-112"/>
     <use x="2983.183594" xlink:href="#DejaVuSans-101"/>
     <use x="3044.707031" xlink:href="#DejaVuSans-111"/>
     <use x="3105.888672" xlink:href="#DejaVuSans-112"/>
     <use x="3169.365234" xlink:href="#DejaVuSans-108"/>
     <use x="3197.148438" xlink:href="#DejaVuSans-101"/>
     <use x="3258.671875" xlink:href="#DejaVuSans-32"/>
     <use x="3290.458984" xlink:href="#DejaVuSans-97"/>
     <use x="3351.738281" xlink:href="#DejaVuSans-115"/>
     <use x="3403.837891" xlink:href="#DejaVuSans-32"/>
     <use x="3435.625" xlink:href="#DejaVuSans-111"/>
     <use x="3496.806641" xlink:href="#DejaVuSans-102"/>
     <use x="3532.011719" xlink:href="#DejaVuSans-32"/>
     <use x="3563.798828" xlink:href="#DejaVuSans-50"/>
     <use x="3627.421875" xlink:href="#DejaVuSans-48"/>
     <use x="3691.044922" xlink:href="#DejaVuSans-47"/>
     <use x="3724.736328" xlink:href="#DejaVuSans-48"/>
     <use x="3788.359375" xlink:href="#DejaVuSans-52"/>
     <use x="3851.982422" xlink:href="#DejaVuSans-47"/>
     <use x="3885.673828" xlink:href="#DejaVuSans-50"/>
     <use x="3949.296875" xlink:href="#DejaVuSans-48"/>
     <use x="4012.919922" xlink:href="#DejaVuSans-50"/>
     <use x="4076.542969" xlink:href="#DejaVuSans-48"/>
     <use x="4140.166016" xlink:href="#DejaVuSans-32"/>
     <use x="4171.953125" xlink:href="#DejaVuSans-46"/>
    </g>
   </g>
   <g id="text_48">
    <!-- People under Investigation as of 20/04/2020 -->
    <defs>
     <path d="M 19.671875 64.796875 
L 19.671875 37.40625 
L 32.078125 37.40625 
Q 38.96875 37.40625 42.71875 40.96875 
Q 46.484375 44.53125 46.484375 51.125 
Q 46.484375 57.671875 42.71875 61.234375 
Q 38.96875 64.796875 32.078125 64.796875 
z
M 9.8125 72.90625 
L 32.078125 72.90625 
Q 44.34375 72.90625 50.609375 67.359375 
Q 56.890625 61.8125 56.890625 51.125 
Q 56.890625 40.328125 50.609375 34.8125 
Q 44.34375 29.296875 32.078125 29.296875 
L 19.671875 29.296875 
L 19.671875 0 
L 9.8125 0 
z
" id="DejaVuSans-80"/>
     <path d="M 9.8125 72.90625 
L 19.671875 72.90625 
L 19.671875 0 
L 9.8125 0 
z
" id="DejaVuSans-73"/>
    </defs>
    <g transform="translate(41.659063 16.318125)scale(0.12 -0.12)">
     <use xlink:href="#DejaVuSans-80"/>
     <use x="56.677734" xlink:href="#DejaVuSans-101"/>
     <use x="118.201172" xlink:href="#DejaVuSans-111"/>
     <use x="179.382812" xlink:href="#DejaVuSans-112"/>
     <use x="242.859375" xlink:href="#DejaVuSans-108"/>
     <use x="270.642578" xlink:href="#DejaVuSans-101"/>
     <use x="332.166016" xlink:href="#DejaVuSans-32"/>
     <use x="363.953125" xlink:href="#DejaVuSans-117"/>
     <use x="427.332031" xlink:href="#DejaVuSans-110"/>
     <use x="490.710938" xlink:href="#DejaVuSans-100"/>
     <use x="554.1875" xlink:href="#DejaVuSans-101"/>
     <use x="615.710938" xlink:href="#DejaVuSans-114"/>
     <use x="656.824219" xlink:href="#DejaVuSans-32"/>
     <use x="688.611328" xlink:href="#DejaVuSans-73"/>
     <use x="718.103516" xlink:href="#DejaVuSans-110"/>
     <use x="781.482422" xlink:href="#DejaVuSans-118"/>
     <use x="840.662109" xlink:href="#DejaVuSans-101"/>
     <use x="902.185547" xlink:href="#DejaVuSans-115"/>
     <use x="954.285156" xlink:href="#DejaVuSans-116"/>
     <use x="993.494141" xlink:href="#DejaVuSans-105"/>
     <use x="1021.277344" xlink:href="#DejaVuSans-103"/>
     <use x="1084.753906" xlink:href="#DejaVuSans-97"/>
     <use x="1146.033203" xlink:href="#DejaVuSans-116"/>
     <use x="1185.242188" xlink:href="#DejaVuSans-105"/>
     <use x="1213.025391" xlink:href="#DejaVuSans-111"/>
     <use x="1274.207031" xlink:href="#DejaVuSans-110"/>
     <use x="1337.585938" xlink:href="#DejaVuSans-32"/>
     <use x="1369.373047" xlink:href="#DejaVuSans-97"/>
     <use x="1430.652344" xlink:href="#DejaVuSans-115"/>
     <use x="1482.751953" xlink:href="#DejaVuSans-32"/>
     <use x="1514.539062" xlink:href="#DejaVuSans-111"/>
     <use x="1575.720703" xlink:href="#DejaVuSans-102"/>
     <use x="1610.925781" xlink:href="#DejaVuSans-32"/>
     <use x="1642.712891" xlink:href="#DejaVuSans-50"/>
     <use x="1706.335938" xlink:href="#DejaVuSans-48"/>
     <use x="1769.958984" xlink:href="#DejaVuSans-47"/>
     <use x="1803.650391" xlink:href="#DejaVuSans-48"/>
     <use x="1867.273438" xlink:href="#DejaVuSans-52"/>
     <use x="1930.896484" xlink:href="#DejaVuSans-47"/>
     <use x="1964.587891" xlink:href="#DejaVuSans-50"/>
     <use x="2028.210938" xlink:href="#DejaVuSans-48"/>
     <use x="2091.833984" xlink:href="#DejaVuSans-50"/>
     <use x="2155.457031" xlink:href="#DejaVuSans-48"/>
    </g>
   </g>
   <g id="legend_1">
    <g id="patch_7">
     <path d="M 321.304688 294.524375 
L 439.21875 294.524375 
Q 441.21875 294.524375 441.21875 292.524375 
L 441.21875 29.318125 
Q 441.21875 27.318125 439.21875 27.318125 
L 321.304688 27.318125 
Q 319.304688 27.318125 319.304688 29.318125 
L 319.304688 292.524375 
Q 319.304688 294.524375 321.304688 294.524375 
z
" style="fill:#ffffff;opacity:0.8;stroke:#cccccc;stroke-linejoin:miter;"/>
    </g>
    <g id="line2d_111">
     <path d="M 323.304688 35.416562 
L 343.304688 35.416562 
" style="fill:none;stroke:#f08080;stroke-linecap:square;stroke-width:1.5;"/>
    </g>
    <g id="line2d_112"/>
    <g id="text_49">
     <!-- Kachin -->
     <defs>
      <path d="M 9.8125 72.90625 
L 19.671875 72.90625 
L 19.671875 42.09375 
L 52.390625 72.90625 
L 65.09375 72.90625 
L 28.90625 38.921875 
L 67.671875 0 
L 54.6875 0 
L 19.671875 35.109375 
L 19.671875 0 
L 9.8125 0 
z
" id="DejaVuSans-75"/>
      <path d="M 48.78125 52.59375 
L 48.78125 44.1875 
Q 44.96875 46.296875 41.140625 47.34375 
Q 37.3125 48.390625 33.40625 48.390625 
Q 24.65625 48.390625 19.8125 42.84375 
Q 14.984375 37.3125 14.984375 27.296875 
Q 14.984375 17.28125 19.8125 11.734375 
Q 24.65625 6.203125 33.40625 6.203125 
Q 37.3125 6.203125 41.140625 7.25 
Q 44.96875 8.296875 48.78125 10.40625 
L 48.78125 2.09375 
Q 45.015625 0.34375 40.984375 -0.53125 
Q 36.96875 -1.421875 32.421875 -1.421875 
Q 20.0625 -1.421875 12.78125 6.34375 
Q 5.515625 14.109375 5.515625 27.296875 
Q 5.515625 40.671875 12.859375 48.328125 
Q 20.21875 56 33.015625 56 
Q 37.15625 56 41.109375 55.140625 
Q 45.0625 54.296875 48.78125 52.59375 
z
" id="DejaVuSans-99"/>
      <path d="M 54.890625 33.015625 
L 54.890625 0 
L 45.90625 0 
L 45.90625 32.71875 
Q 45.90625 40.484375 42.875 44.328125 
Q 39.84375 48.1875 33.796875 48.1875 
Q 26.515625 48.1875 22.3125 43.546875 
Q 18.109375 38.921875 18.109375 30.90625 
L 18.109375 0 
L 9.078125 0 
L 9.078125 75.984375 
L 18.109375 75.984375 
L 18.109375 46.1875 
Q 21.34375 51.125 25.703125 53.5625 
Q 30.078125 56 35.796875 56 
Q 45.21875 56 50.046875 50.171875 
Q 54.890625 44.34375 54.890625 33.015625 
z
" id="DejaVuSans-104"/>
     </defs>
     <g transform="translate(351.304688 38.916562)scale(0.1 -0.1)">
      <use xlink:href="#DejaVuSans-75"/>
      <use x="63.826172" xlink:href="#DejaVuSans-97"/>
      <use x="125.105469" xlink:href="#DejaVuSans-99"/>
      <use x="180.085938" xlink:href="#DejaVuSans-104"/>
      <use x="243.464844" xlink:href="#DejaVuSans-105"/>
      <use x="271.248047" xlink:href="#DejaVuSans-110"/>
     </g>
    </g>
    <g id="line2d_113">
     <path d="M 323.304688 50.094687 
L 343.304688 50.094687 
" style="fill:none;stroke:#ff8c00;stroke-linecap:square;stroke-width:1.5;"/>
    </g>
    <g id="line2d_114"/>
    <g id="text_50">
     <!-- Kayar -->
     <defs>
      <path d="M 32.171875 -5.078125 
Q 28.375 -14.84375 24.75 -17.8125 
Q 21.140625 -20.796875 15.09375 -20.796875 
L 7.90625 -20.796875 
L 7.90625 -13.28125 
L 13.1875 -13.28125 
Q 16.890625 -13.28125 18.9375 -11.515625 
Q 21 -9.765625 23.484375 -3.21875 
L 25.09375 0.875 
L 2.984375 54.6875 
L 12.5 54.6875 
L 29.59375 11.921875 
L 46.6875 54.6875 
L 56.203125 54.6875 
z
" id="DejaVuSans-121"/>
     </defs>
     <g transform="translate(351.304688 53.594687)scale(0.1 -0.1)">
      <use xlink:href="#DejaVuSans-75"/>
      <use x="63.826172" xlink:href="#DejaVuSans-97"/>
      <use x="125.105469" xlink:href="#DejaVuSans-121"/>
      <use x="184.285156" xlink:href="#DejaVuSans-97"/>
      <use x="245.564453" xlink:href="#DejaVuSans-114"/>
     </g>
    </g>
    <g id="line2d_115">
     <path d="M 323.304688 64.772812 
L 343.304688 64.772812 
" style="fill:none;stroke:#fafad2;stroke-linecap:square;stroke-width:1.5;"/>
    </g>
    <g id="line2d_116"/>
    <g id="text_51">
     <!-- Kayin -->
     <g transform="translate(351.304688 68.272812)scale(0.1 -0.1)">
      <use xlink:href="#DejaVuSans-75"/>
      <use x="63.826172" xlink:href="#DejaVuSans-97"/>
      <use x="125.105469" xlink:href="#DejaVuSans-121"/>
      <use x="184.285156" xlink:href="#DejaVuSans-105"/>
      <use x="212.068359" xlink:href="#DejaVuSans-110"/>
     </g>
    </g>
    <g id="line2d_117">
     <path d="M 323.304688 79.450937 
L 343.304688 79.450937 
" style="fill:none;stroke:#ffdab9;stroke-linecap:square;stroke-width:1.5;"/>
    </g>
    <g id="line2d_118"/>
    <g id="text_52">
     <!-- Chin -->
     <defs>
      <path d="M 64.40625 67.28125 
L 64.40625 56.890625 
Q 59.421875 61.53125 53.78125 63.8125 
Q 48.140625 66.109375 41.796875 66.109375 
Q 29.296875 66.109375 22.65625 58.46875 
Q 16.015625 50.828125 16.015625 36.375 
Q 16.015625 21.96875 22.65625 14.328125 
Q 29.296875 6.6875 41.796875 6.6875 
Q 48.140625 6.6875 53.78125 8.984375 
Q 59.421875 11.28125 64.40625 15.921875 
L 64.40625 5.609375 
Q 59.234375 2.09375 53.4375 0.328125 
Q 47.65625 -1.421875 41.21875 -1.421875 
Q 24.65625 -1.421875 15.125 8.703125 
Q 5.609375 18.84375 5.609375 36.375 
Q 5.609375 53.953125 15.125 64.078125 
Q 24.65625 74.21875 41.21875 74.21875 
Q 47.75 74.21875 53.53125 72.484375 
Q 59.328125 70.75 64.40625 67.28125 
z
" id="DejaVuSans-67"/>
     </defs>
     <g transform="translate(351.304688 82.950937)scale(0.1 -0.1)">
      <use xlink:href="#DejaVuSans-67"/>
      <use x="69.824219" xlink:href="#DejaVuSans-104"/>
      <use x="133.203125" xlink:href="#DejaVuSans-105"/>
      <use x="160.986328" xlink:href="#DejaVuSans-110"/>
     </g>
    </g>
    <g id="line2d_119">
     <path d="M 323.304688 94.129063 
L 343.304688 94.129063 
" style="fill:none;stroke:#dda0dd;stroke-linecap:square;stroke-width:1.5;"/>
    </g>
    <g id="line2d_120"/>
    <g id="text_53">
     <!-- Mon -->
     <defs>
      <path d="M 9.8125 72.90625 
L 24.515625 72.90625 
L 43.109375 23.296875 
L 61.8125 72.90625 
L 76.515625 72.90625 
L 76.515625 0 
L 66.890625 0 
L 66.890625 64.015625 
L 48.09375 14.015625 
L 38.1875 14.015625 
L 19.390625 64.015625 
L 19.390625 0 
L 9.8125 0 
z
" id="DejaVuSans-77"/>
     </defs>
     <g transform="translate(351.304688 97.629063)scale(0.1 -0.1)">
      <use xlink:href="#DejaVuSans-77"/>
      <use x="86.279297" xlink:href="#DejaVuSans-111"/>
      <use x="147.460938" xlink:href="#DejaVuSans-110"/>
     </g>
    </g>
    <g id="line2d_121">
     <path d="M 323.304688 108.807187 
L 343.304688 108.807187 
" style="fill:none;stroke:#9370db;stroke-linecap:square;stroke-width:1.5;"/>
    </g>
    <g id="line2d_122"/>
    <g id="text_54">
     <!-- Rakhine -->
     <defs>
      <path d="M 44.390625 34.1875 
Q 47.5625 33.109375 50.5625 29.59375 
Q 53.5625 26.078125 56.59375 19.921875 
L 66.609375 0 
L 56 0 
L 46.6875 18.703125 
Q 43.0625 26.03125 39.671875 28.421875 
Q 36.28125 30.8125 30.421875 30.8125 
L 19.671875 30.8125 
L 19.671875 0 
L 9.8125 0 
L 9.8125 72.90625 
L 32.078125 72.90625 
Q 44.578125 72.90625 50.734375 67.671875 
Q 56.890625 62.453125 56.890625 51.90625 
Q 56.890625 45.015625 53.6875 40.46875 
Q 50.484375 35.9375 44.390625 34.1875 
z
M 19.671875 64.796875 
L 19.671875 38.921875 
L 32.078125 38.921875 
Q 39.203125 38.921875 42.84375 42.21875 
Q 46.484375 45.515625 46.484375 51.90625 
Q 46.484375 58.296875 42.84375 61.546875 
Q 39.203125 64.796875 32.078125 64.796875 
z
" id="DejaVuSans-82"/>
      <path d="M 9.078125 75.984375 
L 18.109375 75.984375 
L 18.109375 31.109375 
L 44.921875 54.6875 
L 56.390625 54.6875 
L 27.390625 29.109375 
L 57.625 0 
L 45.90625 0 
L 18.109375 26.703125 
L 18.109375 0 
L 9.078125 0 
z
" id="DejaVuSans-107"/>
     </defs>
     <g transform="translate(351.304688 112.307187)scale(0.1 -0.1)">
      <use xlink:href="#DejaVuSans-82"/>
      <use x="67.232422" xlink:href="#DejaVuSans-97"/>
      <use x="128.511719" xlink:href="#DejaVuSans-107"/>
      <use x="186.421875" xlink:href="#DejaVuSans-104"/>
      <use x="249.800781" xlink:href="#DejaVuSans-105"/>
      <use x="277.583984" xlink:href="#DejaVuSans-110"/>
      <use x="340.962891" xlink:href="#DejaVuSans-101"/>
     </g>
    </g>
    <g id="line2d_123">
     <path d="M 323.304688 123.485312 
L 343.304688 123.485312 
" style="fill:none;stroke:#800080;stroke-linecap:square;stroke-width:1.5;"/>
    </g>
    <g id="line2d_124"/>
    <g id="text_55">
     <!-- Shan (S) -->
     <defs>
      <path d="M 53.515625 70.515625 
L 53.515625 60.890625 
Q 47.90625 63.578125 42.921875 64.890625 
Q 37.9375 66.21875 33.296875 66.21875 
Q 25.25 66.21875 20.875 63.09375 
Q 16.5 59.96875 16.5 54.203125 
Q 16.5 49.359375 19.40625 46.890625 
Q 22.3125 44.4375 30.421875 42.921875 
L 36.375 41.703125 
Q 47.40625 39.59375 52.65625 34.296875 
Q 57.90625 29 57.90625 20.125 
Q 57.90625 9.515625 50.796875 4.046875 
Q 43.703125 -1.421875 29.984375 -1.421875 
Q 24.8125 -1.421875 18.96875 -0.25 
Q 13.140625 0.921875 6.890625 3.21875 
L 6.890625 13.375 
Q 12.890625 10.015625 18.65625 8.296875 
Q 24.421875 6.59375 29.984375 6.59375 
Q 38.421875 6.59375 43.015625 9.90625 
Q 47.609375 13.234375 47.609375 19.390625 
Q 47.609375 24.75 44.3125 27.78125 
Q 41.015625 30.8125 33.5 32.328125 
L 27.484375 33.5 
Q 16.453125 35.6875 11.515625 40.375 
Q 6.59375 45.0625 6.59375 53.421875 
Q 6.59375 63.09375 13.40625 68.65625 
Q 20.21875 74.21875 32.171875 74.21875 
Q 37.3125 74.21875 42.625 73.28125 
Q 47.953125 72.359375 53.515625 70.515625 
z
" id="DejaVuSans-83"/>
      <path d="M 31 75.875 
Q 24.46875 64.65625 21.28125 53.65625 
Q 18.109375 42.671875 18.109375 31.390625 
Q 18.109375 20.125 21.3125 9.0625 
Q 24.515625 -2 31 -13.1875 
L 23.1875 -13.1875 
Q 15.875 -1.703125 12.234375 9.375 
Q 8.59375 20.453125 8.59375 31.390625 
Q 8.59375 42.28125 12.203125 53.3125 
Q 15.828125 64.359375 23.1875 75.875 
z
" id="DejaVuSans-40"/>
      <path d="M 8.015625 75.875 
L 15.828125 75.875 
Q 23.140625 64.359375 26.78125 53.3125 
Q 30.421875 42.28125 30.421875 31.390625 
Q 30.421875 20.453125 26.78125 9.375 
Q 23.140625 -1.703125 15.828125 -13.1875 
L 8.015625 -13.1875 
Q 14.5 -2 17.703125 9.0625 
Q 20.90625 20.125 20.90625 31.390625 
Q 20.90625 42.671875 17.703125 53.65625 
Q 14.5 64.65625 8.015625 75.875 
z
" id="DejaVuSans-41"/>
     </defs>
     <g transform="translate(351.304688 126.985312)scale(0.1 -0.1)">
      <use xlink:href="#DejaVuSans-83"/>
      <use x="63.476562" xlink:href="#DejaVuSans-104"/>
      <use x="126.855469" xlink:href="#DejaVuSans-97"/>
      <use x="188.134766" xlink:href="#DejaVuSans-110"/>
      <use x="251.513672" xlink:href="#DejaVuSans-32"/>
      <use x="283.300781" xlink:href="#DejaVuSans-40"/>
      <use x="322.314453" xlink:href="#DejaVuSans-83"/>
      <use x="385.791016" xlink:href="#DejaVuSans-41"/>
     </g>
    </g>
    <g id="line2d_125">
     <path d="M 323.304688 138.163437 
L 343.304688 138.163437 
" style="fill:none;stroke:#7fff00;stroke-linecap:square;stroke-width:1.5;"/>
    </g>
    <g id="line2d_126"/>
    <g id="text_56">
     <!-- Shan (N) -->
     <defs>
      <path d="M 9.8125 72.90625 
L 23.09375 72.90625 
L 55.421875 11.921875 
L 55.421875 72.90625 
L 64.984375 72.90625 
L 64.984375 0 
L 51.703125 0 
L 19.390625 60.984375 
L 19.390625 0 
L 9.8125 0 
z
" id="DejaVuSans-78"/>
     </defs>
     <g transform="translate(351.304688 141.663437)scale(0.1 -0.1)">
      <use xlink:href="#DejaVuSans-83"/>
      <use x="63.476562" xlink:href="#DejaVuSans-104"/>
      <use x="126.855469" xlink:href="#DejaVuSans-97"/>
      <use x="188.134766" xlink:href="#DejaVuSans-110"/>
      <use x="251.513672" xlink:href="#DejaVuSans-32"/>
      <use x="283.300781" xlink:href="#DejaVuSans-40"/>
      <use x="322.314453" xlink:href="#DejaVuSans-78"/>
      <use x="397.119141" xlink:href="#DejaVuSans-41"/>
     </g>
    </g>
    <g id="line2d_127">
     <path d="M 323.304688 152.841562 
L 343.304688 152.841562 
" style="fill:none;stroke:#00fa9a;stroke-linecap:square;stroke-width:1.5;"/>
    </g>
    <g id="line2d_128"/>
    <g id="text_57">
     <!-- Shan (E) -->
     <defs>
      <path d="M 9.8125 72.90625 
L 55.90625 72.90625 
L 55.90625 64.59375 
L 19.671875 64.59375 
L 19.671875 43.015625 
L 54.390625 43.015625 
L 54.390625 34.71875 
L 19.671875 34.71875 
L 19.671875 8.296875 
L 56.78125 8.296875 
L 56.78125 0 
L 9.8125 0 
z
" id="DejaVuSans-69"/>
     </defs>
     <g transform="translate(351.304688 156.341562)scale(0.1 -0.1)">
      <use xlink:href="#DejaVuSans-83"/>
      <use x="63.476562" xlink:href="#DejaVuSans-104"/>
      <use x="126.855469" xlink:href="#DejaVuSans-97"/>
      <use x="188.134766" xlink:href="#DejaVuSans-110"/>
      <use x="251.513672" xlink:href="#DejaVuSans-32"/>
      <use x="283.300781" xlink:href="#DejaVuSans-40"/>
      <use x="322.314453" xlink:href="#DejaVuSans-69"/>
      <use x="385.498047" xlink:href="#DejaVuSans-41"/>
     </g>
    </g>
    <g id="line2d_129">
     <path d="M 323.304688 167.519687 
L 343.304688 167.519687 
" style="fill:none;stroke:#008000;stroke-linecap:square;stroke-width:1.5;"/>
    </g>
    <g id="line2d_130"/>
    <g id="text_58">
     <!-- Sagaing -->
     <g transform="translate(351.304688 171.019687)scale(0.1 -0.1)">
      <use xlink:href="#DejaVuSans-83"/>
      <use x="63.476562" xlink:href="#DejaVuSans-97"/>
      <use x="124.755859" xlink:href="#DejaVuSans-103"/>
      <use x="188.232422" xlink:href="#DejaVuSans-97"/>
      <use x="249.511719" xlink:href="#DejaVuSans-105"/>
      <use x="277.294922" xlink:href="#DejaVuSans-110"/>
      <use x="340.673828" xlink:href="#DejaVuSans-103"/>
     </g>
    </g>
    <g id="line2d_131">
     <path d="M 323.304688 182.197812 
L 343.304688 182.197812 
" style="fill:none;stroke:#00ffff;stroke-linecap:square;stroke-width:1.5;"/>
    </g>
    <g id="line2d_132"/>
    <g id="text_59">
     <!-- Mandalay -->
     <g transform="translate(351.304688 185.697812)scale(0.1 -0.1)">
      <use xlink:href="#DejaVuSans-77"/>
      <use x="86.279297" xlink:href="#DejaVuSans-97"/>
      <use x="147.558594" xlink:href="#DejaVuSans-110"/>
      <use x="210.9375" xlink:href="#DejaVuSans-100"/>
      <use x="274.414062" xlink:href="#DejaVuSans-97"/>
      <use x="335.693359" xlink:href="#DejaVuSans-108"/>
      <use x="363.476562" xlink:href="#DejaVuSans-97"/>
      <use x="424.755859" xlink:href="#DejaVuSans-121"/>
     </g>
    </g>
    <g id="line2d_133">
     <path d="M 323.304688 196.875937 
L 343.304688 196.875937 
" style="fill:none;stroke:#48d1cc;stroke-linecap:square;stroke-width:1.5;"/>
    </g>
    <g id="line2d_134"/>
    <g id="text_60">
     <!-- Magway -->
     <defs>
      <path d="M 4.203125 54.6875 
L 13.1875 54.6875 
L 24.421875 12.015625 
L 35.59375 54.6875 
L 46.1875 54.6875 
L 57.421875 12.015625 
L 68.609375 54.6875 
L 77.59375 54.6875 
L 63.28125 0 
L 52.6875 0 
L 40.921875 44.828125 
L 29.109375 0 
L 18.5 0 
z
" id="DejaVuSans-119"/>
     </defs>
     <g transform="translate(351.304688 200.375937)scale(0.1 -0.1)">
      <use xlink:href="#DejaVuSans-77"/>
      <use x="86.279297" xlink:href="#DejaVuSans-97"/>
      <use x="147.558594" xlink:href="#DejaVuSans-103"/>
      <use x="211.035156" xlink:href="#DejaVuSans-119"/>
      <use x="292.822266" xlink:href="#DejaVuSans-97"/>
      <use x="354.101562" xlink:href="#DejaVuSans-121"/>
     </g>
    </g>
    <g id="line2d_135">
     <path d="M 323.304688 211.554062 
L 343.304688 211.554062 
" style="fill:none;stroke:#b0e0e6;stroke-linecap:square;stroke-width:1.5;"/>
    </g>
    <g id="line2d_136"/>
    <g id="text_61">
     <!-- Bago -->
     <defs>
      <path d="M 19.671875 34.8125 
L 19.671875 8.109375 
L 35.5 8.109375 
Q 43.453125 8.109375 47.28125 11.40625 
Q 51.125 14.703125 51.125 21.484375 
Q 51.125 28.328125 47.28125 31.5625 
Q 43.453125 34.8125 35.5 34.8125 
z
M 19.671875 64.796875 
L 19.671875 42.828125 
L 34.28125 42.828125 
Q 41.5 42.828125 45.03125 45.53125 
Q 48.578125 48.25 48.578125 53.8125 
Q 48.578125 59.328125 45.03125 62.0625 
Q 41.5 64.796875 34.28125 64.796875 
z
M 9.8125 72.90625 
L 35.015625 72.90625 
Q 46.296875 72.90625 52.390625 68.21875 
Q 58.5 63.53125 58.5 54.890625 
Q 58.5 48.1875 55.375 44.234375 
Q 52.25 40.28125 46.1875 39.3125 
Q 53.46875 37.75 57.5 32.78125 
Q 61.53125 27.828125 61.53125 20.40625 
Q 61.53125 10.640625 54.890625 5.3125 
Q 48.25 0 35.984375 0 
L 9.8125 0 
z
" id="DejaVuSans-66"/>
     </defs>
     <g transform="translate(351.304688 215.054062)scale(0.1 -0.1)">
      <use xlink:href="#DejaVuSans-66"/>
      <use x="68.603516" xlink:href="#DejaVuSans-97"/>
      <use x="129.882812" xlink:href="#DejaVuSans-103"/>
      <use x="193.359375" xlink:href="#DejaVuSans-111"/>
     </g>
    </g>
    <g id="line2d_137">
     <path d="M 323.304688 226.232187 
L 343.304688 226.232187 
" style="fill:none;stroke:#6495ed;stroke-linecap:square;stroke-width:1.5;"/>
    </g>
    <g id="line2d_138"/>
    <g id="text_62">
     <!-- Yangon -->
     <defs>
      <path d="M -0.203125 72.90625 
L 10.40625 72.90625 
L 30.609375 42.921875 
L 50.6875 72.90625 
L 61.28125 72.90625 
L 35.5 34.71875 
L 35.5 0 
L 25.59375 0 
L 25.59375 34.71875 
z
" id="DejaVuSans-89"/>
     </defs>
     <g transform="translate(351.304688 229.732187)scale(0.1 -0.1)">
      <use xlink:href="#DejaVuSans-89"/>
      <use x="47.333984" xlink:href="#DejaVuSans-97"/>
      <use x="108.613281" xlink:href="#DejaVuSans-110"/>
      <use x="171.992188" xlink:href="#DejaVuSans-103"/>
      <use x="235.46875" xlink:href="#DejaVuSans-111"/>
      <use x="296.650391" xlink:href="#DejaVuSans-110"/>
     </g>
    </g>
    <g id="line2d_139">
     <path d="M 323.304688 240.910312 
L 343.304688 240.910312 
" style="fill:none;stroke:#000080;stroke-linecap:square;stroke-width:1.5;"/>
    </g>
    <g id="line2d_140"/>
    <g id="text_63">
     <!-- Ayeyarwaddy -->
     <g transform="translate(351.304688 244.410312)scale(0.1 -0.1)">
      <use xlink:href="#DejaVuSans-65"/>
      <use x="61.658203" xlink:href="#DejaVuSans-121"/>
      <use x="120.837891" xlink:href="#DejaVuSans-101"/>
      <use x="182.361328" xlink:href="#DejaVuSans-121"/>
      <use x="241.541016" xlink:href="#DejaVuSans-97"/>
      <use x="302.820312" xlink:href="#DejaVuSans-114"/>
      <use x="343.933594" xlink:href="#DejaVuSans-119"/>
      <use x="425.720703" xlink:href="#DejaVuSans-97"/>
      <use x="487" xlink:href="#DejaVuSans-100"/>
      <use x="550.476562" xlink:href="#DejaVuSans-100"/>
      <use x="613.953125" xlink:href="#DejaVuSans-121"/>
     </g>
    </g>
    <g id="line2d_141">
     <path d="M 323.304688 255.588437 
L 343.304688 255.588437 
" style="fill:none;stroke:#f5deb3;stroke-linecap:square;stroke-width:1.5;"/>
    </g>
    <g id="line2d_142"/>
    <g id="text_64">
     <!-- Tanintharyi -->
     <defs>
      <path d="M -0.296875 72.90625 
L 61.375 72.90625 
L 61.375 64.59375 
L 35.5 64.59375 
L 35.5 0 
L 25.59375 0 
L 25.59375 64.59375 
L -0.296875 64.59375 
z
" id="DejaVuSans-84"/>
     </defs>
     <g transform="translate(351.304688 259.088437)scale(0.1 -0.1)">
      <use xlink:href="#DejaVuSans-84"/>
      <use x="44.583984" xlink:href="#DejaVuSans-97"/>
      <use x="105.863281" xlink:href="#DejaVuSans-110"/>
      <use x="169.242188" xlink:href="#DejaVuSans-105"/>
      <use x="197.025391" xlink:href="#DejaVuSans-110"/>
      <use x="260.404297" xlink:href="#DejaVuSans-116"/>
      <use x="299.613281" xlink:href="#DejaVuSans-104"/>
      <use x="362.992188" xlink:href="#DejaVuSans-97"/>
      <use x="424.271484" xlink:href="#DejaVuSans-114"/>
      <use x="465.384766" xlink:href="#DejaVuSans-121"/>
      <use x="524.564453" xlink:href="#DejaVuSans-105"/>
     </g>
    </g>
    <g id="line2d_143">
     <path d="M 323.304688 270.266562 
L 343.304688 270.266562 
" style="fill:none;stroke:#b8860b;stroke-linecap:square;stroke-width:1.5;"/>
    </g>
    <g id="line2d_144"/>
    <g id="text_65">
     <!-- Naypyitaw -->
     <g transform="translate(351.304688 273.766562)scale(0.1 -0.1)">
      <use xlink:href="#DejaVuSans-78"/>
      <use x="74.804688" xlink:href="#DejaVuSans-97"/>
      <use x="136.083984" xlink:href="#DejaVuSans-121"/>
      <use x="195.263672" xlink:href="#DejaVuSans-112"/>
      <use x="258.740234" xlink:href="#DejaVuSans-121"/>
      <use x="317.919922" xlink:href="#DejaVuSans-105"/>
      <use x="345.703125" xlink:href="#DejaVuSans-116"/>
      <use x="384.912109" xlink:href="#DejaVuSans-97"/>
      <use x="446.191406" xlink:href="#DejaVuSans-119"/>
     </g>
    </g>
    <g id="line2d_145">
     <path d="M 323.304688 284.944687 
L 343.304688 284.944687 
" style="fill:none;stroke:#ff6347;stroke-dasharray:4.5,1.5,1.5,1.5,1.5,1.5;stroke-dashoffset:0;stroke-width:1.5;"/>
    </g>
    <g id="line2d_146"/>
    <g id="text_66">
     <!-- National Average -->
     <g transform="translate(351.304688 288.444687)scale(0.1 -0.1)">
      <use xlink:href="#DejaVuSans-78"/>
      <use x="74.804688" xlink:href="#DejaVuSans-97"/>
      <use x="136.083984" xlink:href="#DejaVuSans-116"/>
      <use x="175.292969" xlink:href="#DejaVuSans-105"/>
      <use x="203.076172" xlink:href="#DejaVuSans-111"/>
      <use x="264.257812" xlink:href="#DejaVuSans-110"/>
      <use x="327.636719" xlink:href="#DejaVuSans-97"/>
      <use x="388.916016" xlink:href="#DejaVuSans-108"/>
      <use x="416.699219" xlink:href="#DejaVuSans-32"/>
      <use x="448.486328" xlink:href="#DejaVuSans-65"/>
      <use x="511.019531" xlink:href="#DejaVuSans-118"/>
      <use x="570.199219" xlink:href="#DejaVuSans-101"/>
      <use x="631.722656" xlink:href="#DejaVuSans-114"/>
      <use x="672.835938" xlink:href="#DejaVuSans-97"/>
      <use x="734.115234" xlink:href="#DejaVuSans-103"/>
      <use x="797.591797" xlink:href="#DejaVuSans-101"/>
     </g>
    </g>
   </g>
  </g>
 </g>
 <defs>
  <clipPath id="p4c0aac8e2f">
   <rect height="543.6" width="279" x="35.304688" y="22.318125"/>
  </clipPath>
 </defs>
</svg>
