<?xml version="1.0" encoding="utf-8" standalone="no"?>
<!DOCTYPE svg PUBLIC "-//W3C//DTD SVG 1.1//EN"
  "http://www.w3.org/Graphics/SVG/1.1/DTD/svg11.dtd">
<!-- Created with matplotlib (https://matplotlib.org/) -->
<svg height="681.838125pt" version="1.1" viewBox="0 0 462.882812 681.838125" width="462.882812pt" xmlns="http://www.w3.org/2000/svg" xmlns:xlink="http://www.w3.org/1999/xlink">
 <defs>
  <style type="text/css">
*{stroke-linecap:butt;stroke-linejoin:round;}
  </style>
 </defs>
 <g id="figure_1">
  <g id="patch_1">
   <path d="M 0 681.838125 
L 462.882812 681.838125 
L 462.882812 0 
L 0 0 
z
" style="fill:#ffffff;"/>
  </g>
  <g id="axes_1">
   <g id="patch_2">
    <path d="M 35.304688 565.918125 
L 314.304688 565.918125 
L 314.304688 22.318125 
L 35.304688 22.318125 
z
" style="fill:#ffffff;"/>
   </g>
   <g id="matplotlib.axis_1">
    <g id="xtick_1">
     <g id="line2d_1">
      <path clip-path="url(#p3bebe37a9d)" d="M 62.906292 565.918125 
L 62.906292 22.318125 
" style="fill:none;stroke:#808080;stroke-dasharray:1.85,0.8;stroke-dashoffset:0;stroke-width:0.5;"/>
     </g>
     <g id="line2d_2">
      <defs>
       <path d="M 0 0 
L 0 3.5 
" id="m58a7ba0c91" style="stroke:#000000;stroke-width:0.8;"/>
      </defs>
      <g>
       <use style="stroke:#000000;stroke-width:0.8;" x="62.906292" xlink:href="#m58a7ba0c91" y="565.918125"/>
      </g>
     </g>
     <g id="text_1">
      <!-- 2020-04-05 -->
      <defs>
       <path d="M 19.1875 8.296875 
L 53.609375 8.296875 
L 53.609375 0 
L 7.328125 0 
L 7.328125 8.296875 
Q 12.9375 14.109375 22.625 23.890625 
Q 32.328125 33.6875 34.8125 36.53125 
Q 39.546875 41.84375 41.421875 45.53125 
Q 43.3125 49.21875 43.3125 52.78125 
Q 43.3125 58.59375 39.234375 62.25 
Q 35.15625 65.921875 28.609375 65.921875 
Q 23.96875 65.921875 18.8125 64.3125 
Q 13.671875 62.703125 7.8125 59.421875 
L 7.8125 69.390625 
Q 13.765625 71.78125 18.9375 73 
Q 24.125 74.21875 28.421875 74.21875 
Q 39.75 74.21875 46.484375 68.546875 
Q 53.21875 62.890625 53.21875 53.421875 
Q 53.21875 48.921875 51.53125 44.890625 
Q 49.859375 40.875 45.40625 35.40625 
Q 44.1875 33.984375 37.640625 27.21875 
Q 31.109375 20.453125 19.1875 8.296875 
z
" id="DejaVuSans-50"/>
       <path d="M 31.78125 66.40625 
Q 24.171875 66.40625 20.328125 58.90625 
Q 16.5 51.421875 16.5 36.375 
Q 16.5 21.390625 20.328125 13.890625 
Q 24.171875 6.390625 31.78125 6.390625 
Q 39.453125 6.390625 43.28125 13.890625 
Q 47.125 21.390625 47.125 36.375 
Q 47.125 51.421875 43.28125 58.90625 
Q 39.453125 66.40625 31.78125 66.40625 
z
M 31.78125 74.21875 
Q 44.046875 74.21875 50.515625 64.515625 
Q 56.984375 54.828125 56.984375 36.375 
Q 56.984375 17.96875 50.515625 8.265625 
Q 44.046875 -1.421875 31.78125 -1.421875 
Q 19.53125 -1.421875 13.0625 8.265625 
Q 6.59375 17.96875 6.59375 36.375 
Q 6.59375 54.828125 13.0625 64.515625 
Q 19.53125 74.21875 31.78125 74.21875 
z
" id="DejaVuSans-48"/>
       <path d="M 4.890625 31.390625 
L 31.203125 31.390625 
L 31.203125 23.390625 
L 4.890625 23.390625 
z
" id="DejaVuSans-45"/>
       <path d="M 37.796875 64.3125 
L 12.890625 25.390625 
L 37.796875 25.390625 
z
M 35.203125 72.90625 
L 47.609375 72.90625 
L 47.609375 25.390625 
L 58.015625 25.390625 
L 58.015625 17.1875 
L 47.609375 17.1875 
L 47.609375 0 
L 37.796875 0 
L 37.796875 17.1875 
L 4.890625 17.1875 
L 4.890625 26.703125 
z
" id="DejaVuSans-52"/>
       <path d="M 10.796875 72.90625 
L 49.515625 72.90625 
L 49.515625 64.59375 
L 19.828125 64.59375 
L 19.828125 46.734375 
Q 21.96875 47.46875 24.109375 47.828125 
Q 26.265625 48.1875 28.421875 48.1875 
Q 40.625 48.1875 47.75 41.5 
Q 54.890625 34.8125 54.890625 23.390625 
Q 54.890625 11.625 47.5625 5.09375 
Q 40.234375 -1.421875 26.90625 -1.421875 
Q 22.3125 -1.421875 17.546875 -0.640625 
Q 12.796875 0.140625 7.71875 1.703125 
L 7.71875 11.625 
Q 12.109375 9.234375 16.796875 8.0625 
Q 21.484375 6.890625 26.703125 6.890625 
Q 35.15625 6.890625 40.078125 11.328125 
Q 45.015625 15.765625 45.015625 23.390625 
Q 45.015625 31 40.078125 35.4375 
Q 35.15625 39.890625 26.703125 39.890625 
Q 22.75 39.890625 18.8125 39.015625 
Q 14.890625 38.140625 10.796875 36.28125 
z
" id="DejaVuSans-53"/>
      </defs>
      <g transform="translate(65.665667 631.03375)rotate(-90)scale(0.1 -0.1)">
       <use xlink:href="#DejaVuSans-50"/>
       <use x="63.623047" xlink:href="#DejaVuSans-48"/>
       <use x="127.246094" xlink:href="#DejaVuSans-50"/>
       <use x="190.869141" xlink:href="#DejaVuSans-48"/>
       <use x="254.492188" xlink:href="#DejaVuSans-45"/>
       <use x="290.576172" xlink:href="#DejaVuSans-48"/>
       <use x="354.199219" xlink:href="#DejaVuSans-52"/>
       <use x="417.822266" xlink:href="#DejaVuSans-45"/>
       <use x="453.90625" xlink:href="#DejaVuSans-48"/>
       <use x="517.529297" xlink:href="#DejaVuSans-53"/>
      </g>
     </g>
    </g>
    <g id="xtick_2">
     <g id="line2d_3">
      <path clip-path="url(#p3bebe37a9d)" d="M 92.745864 565.918125 
L 92.745864 22.318125 
" style="fill:none;stroke:#808080;stroke-dasharray:1.85,0.8;stroke-dashoffset:0;stroke-width:0.5;"/>
     </g>
     <g id="line2d_4">
      <g>
       <use style="stroke:#000000;stroke-width:0.8;" x="92.745864" xlink:href="#m58a7ba0c91" y="565.918125"/>
      </g>
     </g>
     <g id="text_2">
      <!-- 2020-04-07 -->
      <defs>
       <path d="M 8.203125 72.90625 
L 55.078125 72.90625 
L 55.078125 68.703125 
L 28.609375 0 
L 18.3125 0 
L 43.21875 64.59375 
L 8.203125 64.59375 
z
" id="DejaVuSans-55"/>
      </defs>
      <g transform="translate(95.505239 631.03375)rotate(-90)scale(0.1 -0.1)">
       <use xlink:href="#DejaVuSans-50"/>
       <use x="63.623047" xlink:href="#DejaVuSans-48"/>
       <use x="127.246094" xlink:href="#DejaVuSans-50"/>
       <use x="190.869141" xlink:href="#DejaVuSans-48"/>
       <use x="254.492188" xlink:href="#DejaVuSans-45"/>
       <use x="290.576172" xlink:href="#DejaVuSans-48"/>
       <use x="354.199219" xlink:href="#DejaVuSans-52"/>
       <use x="417.822266" xlink:href="#DejaVuSans-45"/>
       <use x="453.90625" xlink:href="#DejaVuSans-48"/>
       <use x="517.529297" xlink:href="#DejaVuSans-55"/>
      </g>
     </g>
    </g>
    <g id="xtick_3">
     <g id="line2d_5">
      <path clip-path="url(#p3bebe37a9d)" d="M 122.585436 565.918125 
L 122.585436 22.318125 
" style="fill:none;stroke:#808080;stroke-dasharray:1.85,0.8;stroke-dashoffset:0;stroke-width:0.5;"/>
     </g>
     <g id="line2d_6">
      <g>
       <use style="stroke:#000000;stroke-width:0.8;" x="122.585436" xlink:href="#m58a7ba0c91" y="565.918125"/>
      </g>
     </g>
     <g id="text_3">
      <!-- 2020-04-09 -->
      <defs>
       <path d="M 10.984375 1.515625 
L 10.984375 10.5 
Q 14.703125 8.734375 18.5 7.8125 
Q 22.3125 6.890625 25.984375 6.890625 
Q 35.75 6.890625 40.890625 13.453125 
Q 46.046875 20.015625 46.78125 33.40625 
Q 43.953125 29.203125 39.59375 26.953125 
Q 35.25 24.703125 29.984375 24.703125 
Q 19.046875 24.703125 12.671875 31.3125 
Q 6.296875 37.9375 6.296875 49.421875 
Q 6.296875 60.640625 12.9375 67.421875 
Q 19.578125 74.21875 30.609375 74.21875 
Q 43.265625 74.21875 49.921875 64.515625 
Q 56.59375 54.828125 56.59375 36.375 
Q 56.59375 19.140625 48.40625 8.859375 
Q 40.234375 -1.421875 26.421875 -1.421875 
Q 22.703125 -1.421875 18.890625 -0.6875 
Q 15.09375 0.046875 10.984375 1.515625 
z
M 30.609375 32.421875 
Q 37.25 32.421875 41.125 36.953125 
Q 45.015625 41.5 45.015625 49.421875 
Q 45.015625 57.28125 41.125 61.84375 
Q 37.25 66.40625 30.609375 66.40625 
Q 23.96875 66.40625 20.09375 61.84375 
Q 16.21875 57.28125 16.21875 49.421875 
Q 16.21875 41.5 20.09375 36.953125 
Q 23.96875 32.421875 30.609375 32.421875 
z
" id="DejaVuSans-57"/>
      </defs>
      <g transform="translate(125.344811 631.03375)rotate(-90)scale(0.1 -0.1)">
       <use xlink:href="#DejaVuSans-50"/>
       <use x="63.623047" xlink:href="#DejaVuSans-48"/>
       <use x="127.246094" xlink:href="#DejaVuSans-50"/>
       <use x="190.869141" xlink:href="#DejaVuSans-48"/>
       <use x="254.492188" xlink:href="#DejaVuSans-45"/>
       <use x="290.576172" xlink:href="#DejaVuSans-48"/>
       <use x="354.199219" xlink:href="#DejaVuSans-52"/>
       <use x="417.822266" xlink:href="#DejaVuSans-45"/>
       <use x="453.90625" xlink:href="#DejaVuSans-48"/>
       <use x="517.529297" xlink:href="#DejaVuSans-57"/>
      </g>
     </g>
    </g>
    <g id="xtick_4">
     <g id="line2d_7">
      <path clip-path="url(#p3bebe37a9d)" d="M 152.425008 565.918125 
L 152.425008 22.318125 
" style="fill:none;stroke:#808080;stroke-dasharray:1.85,0.8;stroke-dashoffset:0;stroke-width:0.5;"/>
     </g>
     <g id="line2d_8">
      <g>
       <use style="stroke:#000000;stroke-width:0.8;" x="152.425008" xlink:href="#m58a7ba0c91" y="565.918125"/>
      </g>
     </g>
     <g id="text_4">
      <!-- 2020-04-11 -->
      <defs>
       <path d="M 12.40625 8.296875 
L 28.515625 8.296875 
L 28.515625 63.921875 
L 10.984375 60.40625 
L 10.984375 69.390625 
L 28.421875 72.90625 
L 38.28125 72.90625 
L 38.28125 8.296875 
L 54.390625 8.296875 
L 54.390625 0 
L 12.40625 0 
z
" id="DejaVuSans-49"/>
      </defs>
      <g transform="translate(155.184383 631.03375)rotate(-90)scale(0.1 -0.1)">
       <use xlink:href="#DejaVuSans-50"/>
       <use x="63.623047" xlink:href="#DejaVuSans-48"/>
       <use x="127.246094" xlink:href="#DejaVuSans-50"/>
       <use x="190.869141" xlink:href="#DejaVuSans-48"/>
       <use x="254.492188" xlink:href="#DejaVuSans-45"/>
       <use x="290.576172" xlink:href="#DejaVuSans-48"/>
       <use x="354.199219" xlink:href="#DejaVuSans-52"/>
       <use x="417.822266" xlink:href="#DejaVuSans-45"/>
       <use x="453.90625" xlink:href="#DejaVuSans-49"/>
       <use x="517.529297" xlink:href="#DejaVuSans-49"/>
      </g>
     </g>
    </g>
    <g id="xtick_5">
     <g id="line2d_9">
      <path clip-path="url(#p3bebe37a9d)" d="M 182.264581 565.918125 
L 182.264581 22.318125 
" style="fill:none;stroke:#808080;stroke-dasharray:1.85,0.8;stroke-dashoffset:0;stroke-width:0.5;"/>
     </g>
     <g id="line2d_10">
      <g>
       <use style="stroke:#000000;stroke-width:0.8;" x="182.264581" xlink:href="#m58a7ba0c91" y="565.918125"/>
      </g>
     </g>
     <g id="text_5">
      <!-- 2020-04-13 -->
      <defs>
       <path d="M 40.578125 39.3125 
Q 47.65625 37.796875 51.625 33 
Q 55.609375 28.21875 55.609375 21.1875 
Q 55.609375 10.40625 48.1875 4.484375 
Q 40.765625 -1.421875 27.09375 -1.421875 
Q 22.515625 -1.421875 17.65625 -0.515625 
Q 12.796875 0.390625 7.625 2.203125 
L 7.625 11.71875 
Q 11.71875 9.328125 16.59375 8.109375 
Q 21.484375 6.890625 26.8125 6.890625 
Q 36.078125 6.890625 40.9375 10.546875 
Q 45.796875 14.203125 45.796875 21.1875 
Q 45.796875 27.640625 41.28125 31.265625 
Q 36.765625 34.90625 28.71875 34.90625 
L 20.21875 34.90625 
L 20.21875 43.015625 
L 29.109375 43.015625 
Q 36.375 43.015625 40.234375 45.921875 
Q 44.09375 48.828125 44.09375 54.296875 
Q 44.09375 59.90625 40.109375 62.90625 
Q 36.140625 65.921875 28.71875 65.921875 
Q 24.65625 65.921875 20.015625 65.03125 
Q 15.375 64.15625 9.8125 62.3125 
L 9.8125 71.09375 
Q 15.4375 72.65625 20.34375 73.4375 
Q 25.25 74.21875 29.59375 74.21875 
Q 40.828125 74.21875 47.359375 69.109375 
Q 53.90625 64.015625 53.90625 55.328125 
Q 53.90625 49.265625 50.4375 45.09375 
Q 46.96875 40.921875 40.578125 39.3125 
z
" id="DejaVuSans-51"/>
      </defs>
      <g transform="translate(185.023956 631.03375)rotate(-90)scale(0.1 -0.1)">
       <use xlink:href="#DejaVuSans-50"/>
       <use x="63.623047" xlink:href="#DejaVuSans-48"/>
       <use x="127.246094" xlink:href="#DejaVuSans-50"/>
       <use x="190.869141" xlink:href="#DejaVuSans-48"/>
       <use x="254.492188" xlink:href="#DejaVuSans-45"/>
       <use x="290.576172" xlink:href="#DejaVuSans-48"/>
       <use x="354.199219" xlink:href="#DejaVuSans-52"/>
       <use x="417.822266" xlink:href="#DejaVuSans-45"/>
       <use x="453.90625" xlink:href="#DejaVuSans-49"/>
       <use x="517.529297" xlink:href="#DejaVuSans-51"/>
      </g>
     </g>
    </g>
    <g id="xtick_6">
     <g id="line2d_11">
      <path clip-path="url(#p3bebe37a9d)" d="M 212.104153 565.918125 
L 212.104153 22.318125 
" style="fill:none;stroke:#808080;stroke-dasharray:1.85,0.8;stroke-dashoffset:0;stroke-width:0.5;"/>
     </g>
     <g id="line2d_12">
      <g>
       <use style="stroke:#000000;stroke-width:0.8;" x="212.104153" xlink:href="#m58a7ba0c91" y="565.918125"/>
      </g>
     </g>
     <g id="text_6">
      <!-- 2020-04-15 -->
      <g transform="translate(214.863528 631.03375)rotate(-90)scale(0.1 -0.1)">
       <use xlink:href="#DejaVuSans-50"/>
       <use x="63.623047" xlink:href="#DejaVuSans-48"/>
       <use x="127.246094" xlink:href="#DejaVuSans-50"/>
       <use x="190.869141" xlink:href="#DejaVuSans-48"/>
       <use x="254.492188" xlink:href="#DejaVuSans-45"/>
       <use x="290.576172" xlink:href="#DejaVuSans-48"/>
       <use x="354.199219" xlink:href="#DejaVuSans-52"/>
       <use x="417.822266" xlink:href="#DejaVuSans-45"/>
       <use x="453.90625" xlink:href="#DejaVuSans-49"/>
       <use x="517.529297" xlink:href="#DejaVuSans-53"/>
      </g>
     </g>
    </g>
    <g id="xtick_7">
     <g id="line2d_13">
      <path clip-path="url(#p3bebe37a9d)" d="M 241.943725 565.918125 
L 241.943725 22.318125 
" style="fill:none;stroke:#808080;stroke-dasharray:1.85,0.8;stroke-dashoffset:0;stroke-width:0.5;"/>
     </g>
     <g id="line2d_14">
      <g>
       <use style="stroke:#000000;stroke-width:0.8;" x="241.943725" xlink:href="#m58a7ba0c91" y="565.918125"/>
      </g>
     </g>
     <g id="text_7">
      <!-- 2020-04-17 -->
      <g transform="translate(244.7031 631.03375)rotate(-90)scale(0.1 -0.1)">
       <use xlink:href="#DejaVuSans-50"/>
       <use x="63.623047" xlink:href="#DejaVuSans-48"/>
       <use x="127.246094" xlink:href="#DejaVuSans-50"/>
       <use x="190.869141" xlink:href="#DejaVuSans-48"/>
       <use x="254.492188" xlink:href="#DejaVuSans-45"/>
       <use x="290.576172" xlink:href="#DejaVuSans-48"/>
       <use x="354.199219" xlink:href="#DejaVuSans-52"/>
       <use x="417.822266" xlink:href="#DejaVuSans-45"/>
       <use x="453.90625" xlink:href="#DejaVuSans-49"/>
       <use x="517.529297" xlink:href="#DejaVuSans-55"/>
      </g>
     </g>
    </g>
    <g id="xtick_8">
     <g id="line2d_15">
      <path clip-path="url(#p3bebe37a9d)" d="M 271.783297 565.918125 
L 271.783297 22.318125 
" style="fill:none;stroke:#808080;stroke-dasharray:1.85,0.8;stroke-dashoffset:0;stroke-width:0.5;"/>
     </g>
     <g id="line2d_16">
      <g>
       <use style="stroke:#000000;stroke-width:0.8;" x="271.783297" xlink:href="#m58a7ba0c91" y="565.918125"/>
      </g>
     </g>
     <g id="text_8">
      <!-- 2020-04-19 -->
      <g transform="translate(274.542672 631.03375)rotate(-90)scale(0.1 -0.1)">
       <use xlink:href="#DejaVuSans-50"/>
       <use x="63.623047" xlink:href="#DejaVuSans-48"/>
       <use x="127.246094" xlink:href="#DejaVuSans-50"/>
       <use x="190.869141" xlink:href="#DejaVuSans-48"/>
       <use x="254.492188" xlink:href="#DejaVuSans-45"/>
       <use x="290.576172" xlink:href="#DejaVuSans-48"/>
       <use x="354.199219" xlink:href="#DejaVuSans-52"/>
       <use x="417.822266" xlink:href="#DejaVuSans-45"/>
       <use x="453.90625" xlink:href="#DejaVuSans-49"/>
       <use x="517.529297" xlink:href="#DejaVuSans-57"/>
      </g>
     </g>
    </g>
    <g id="xtick_9">
     <g id="line2d_17">
      <path clip-path="url(#p3bebe37a9d)" d="M 301.622869 565.918125 
L 301.622869 22.318125 
" style="fill:none;stroke:#808080;stroke-dasharray:1.85,0.8;stroke-dashoffset:0;stroke-width:0.5;"/>
     </g>
     <g id="line2d_18">
      <g>
       <use style="stroke:#000000;stroke-width:0.8;" x="301.622869" xlink:href="#m58a7ba0c91" y="565.918125"/>
      </g>
     </g>
     <g id="text_9">
      <!-- 2020-04-21 -->
      <g transform="translate(304.382244 631.03375)rotate(-90)scale(0.1 -0.1)">
       <use xlink:href="#DejaVuSans-50"/>
       <use x="63.623047" xlink:href="#DejaVuSans-48"/>
       <use x="127.246094" xlink:href="#DejaVuSans-50"/>
       <use x="190.869141" xlink:href="#DejaVuSans-48"/>
       <use x="254.492188" xlink:href="#DejaVuSans-45"/>
       <use x="290.576172" xlink:href="#DejaVuSans-48"/>
       <use x="354.199219" xlink:href="#DejaVuSans-52"/>
       <use x="417.822266" xlink:href="#DejaVuSans-45"/>
       <use x="453.90625" xlink:href="#DejaVuSans-50"/>
       <use x="517.529297" xlink:href="#DejaVuSans-49"/>
      </g>
     </g>
    </g>
   </g>
   <g id="matplotlib.axis_2">
    <g id="ytick_1">
     <g id="line2d_19">
      <path clip-path="url(#p3bebe37a9d)" d="M 35.304688 557.184739 
L 314.304688 557.184739 
" style="fill:none;stroke:#808080;stroke-dasharray:1.85,0.8;stroke-dashoffset:0;stroke-width:0.5;"/>
     </g>
     <g id="line2d_20">
      <defs>
       <path d="M 0 0 
L -3.5 0 
" id="m5c8c918603" style="stroke:#000000;stroke-width:0.8;"/>
      </defs>
      <g>
       <use style="stroke:#000000;stroke-width:0.8;" x="35.304688" xlink:href="#m5c8c918603" y="557.184739"/>
      </g>
     </g>
     <g id="text_10">
      <!-- −25 -->
      <defs>
       <path d="M 10.59375 35.5 
L 73.1875 35.5 
L 73.1875 27.203125 
L 10.59375 27.203125 
z
" id="DejaVuSans-8722"/>
      </defs>
      <g transform="translate(7.2 560.983958)scale(0.1 -0.1)">
       <use xlink:href="#DejaVuSans-8722"/>
       <use x="83.789062" xlink:href="#DejaVuSans-50"/>
       <use x="147.412109" xlink:href="#DejaVuSans-53"/>
      </g>
     </g>
    </g>
    <g id="ytick_2">
     <g id="line2d_21">
      <path clip-path="url(#p3bebe37a9d)" d="M 35.304688 543.871652 
L 314.304688 543.871652 
" style="fill:none;stroke:#808080;stroke-dasharray:1.85,0.8;stroke-dashoffset:0;stroke-width:0.5;"/>
     </g>
     <g id="line2d_22">
      <g>
       <use style="stroke:#000000;stroke-width:0.8;" x="35.304688" xlink:href="#m5c8c918603" y="543.871652"/>
      </g>
     </g>
     <g id="text_11">
      <!-- 0 -->
      <g transform="translate(21.942187 547.67087)scale(0.1 -0.1)">
       <use xlink:href="#DejaVuSans-48"/>
      </g>
     </g>
    </g>
    <g id="ytick_3">
     <g id="line2d_23">
      <path clip-path="url(#p3bebe37a9d)" d="M 35.304688 530.558564 
L 314.304688 530.558564 
" style="fill:none;stroke:#808080;stroke-dasharray:1.85,0.8;stroke-dashoffset:0;stroke-width:0.5;"/>
     </g>
     <g id="line2d_24">
      <g>
       <use style="stroke:#000000;stroke-width:0.8;" x="35.304688" xlink:href="#m5c8c918603" y="530.558564"/>
      </g>
     </g>
     <g id="text_12">
      <!-- 25 -->
      <g transform="translate(15.579687 534.357783)scale(0.1 -0.1)">
       <use xlink:href="#DejaVuSans-50"/>
       <use x="63.623047" xlink:href="#DejaVuSans-53"/>
      </g>
     </g>
    </g>
    <g id="ytick_4">
     <g id="line2d_25">
      <path clip-path="url(#p3bebe37a9d)" d="M 35.304688 517.245476 
L 314.304688 517.245476 
" style="fill:none;stroke:#808080;stroke-dasharray:1.85,0.8;stroke-dashoffset:0;stroke-width:0.5;"/>
     </g>
     <g id="line2d_26">
      <g>
       <use style="stroke:#000000;stroke-width:0.8;" x="35.304688" xlink:href="#m5c8c918603" y="517.245476"/>
      </g>
     </g>
     <g id="text_13">
      <!-- 50 -->
      <g transform="translate(15.579687 521.044695)scale(0.1 -0.1)">
       <use xlink:href="#DejaVuSans-53"/>
       <use x="63.623047" xlink:href="#DejaVuSans-48"/>
      </g>
     </g>
    </g>
    <g id="ytick_5">
     <g id="line2d_27">
      <path clip-path="url(#p3bebe37a9d)" d="M 35.304688 503.932388 
L 314.304688 503.932388 
" style="fill:none;stroke:#808080;stroke-dasharray:1.85,0.8;stroke-dashoffset:0;stroke-width:0.5;"/>
     </g>
     <g id="line2d_28">
      <g>
       <use style="stroke:#000000;stroke-width:0.8;" x="35.304688" xlink:href="#m5c8c918603" y="503.932388"/>
      </g>
     </g>
     <g id="text_14">
      <!-- 75 -->
      <g transform="translate(15.579687 507.731607)scale(0.1 -0.1)">
       <use xlink:href="#DejaVuSans-55"/>
       <use x="63.623047" xlink:href="#DejaVuSans-53"/>
      </g>
     </g>
    </g>
    <g id="ytick_6">
     <g id="line2d_29">
      <path clip-path="url(#p3bebe37a9d)" d="M 35.304688 490.619301 
L 314.304688 490.619301 
" style="fill:none;stroke:#808080;stroke-dasharray:1.85,0.8;stroke-dashoffset:0;stroke-width:0.5;"/>
     </g>
     <g id="line2d_30">
      <g>
       <use style="stroke:#000000;stroke-width:0.8;" x="35.304688" xlink:href="#m5c8c918603" y="490.619301"/>
      </g>
     </g>
     <g id="text_15">
      <!-- 100 -->
      <g transform="translate(9.217187 494.418519)scale(0.1 -0.1)">
       <use xlink:href="#DejaVuSans-49"/>
       <use x="63.623047" xlink:href="#DejaVuSans-48"/>
       <use x="127.246094" xlink:href="#DejaVuSans-48"/>
      </g>
     </g>
    </g>
    <g id="ytick_7">
     <g id="line2d_31">
      <path clip-path="url(#p3bebe37a9d)" d="M 35.304688 477.306213 
L 314.304688 477.306213 
" style="fill:none;stroke:#808080;stroke-dasharray:1.85,0.8;stroke-dashoffset:0;stroke-width:0.5;"/>
     </g>
     <g id="line2d_32">
      <g>
       <use style="stroke:#000000;stroke-width:0.8;" x="35.304688" xlink:href="#m5c8c918603" y="477.306213"/>
      </g>
     </g>
     <g id="text_16">
      <!-- 125 -->
      <g transform="translate(9.217187 481.105432)scale(0.1 -0.1)">
       <use xlink:href="#DejaVuSans-49"/>
       <use x="63.623047" xlink:href="#DejaVuSans-50"/>
       <use x="127.246094" xlink:href="#DejaVuSans-53"/>
      </g>
     </g>
    </g>
    <g id="ytick_8">
     <g id="line2d_33">
      <path clip-path="url(#p3bebe37a9d)" d="M 35.304688 463.993125 
L 314.304688 463.993125 
" style="fill:none;stroke:#808080;stroke-dasharray:1.85,0.8;stroke-dashoffset:0;stroke-width:0.5;"/>
     </g>
     <g id="line2d_34">
      <g>
       <use style="stroke:#000000;stroke-width:0.8;" x="35.304688" xlink:href="#m5c8c918603" y="463.993125"/>
      </g>
     </g>
     <g id="text_17">
      <!-- 150 -->
      <g transform="translate(9.217187 467.792344)scale(0.1 -0.1)">
       <use xlink:href="#DejaVuSans-49"/>
       <use x="63.623047" xlink:href="#DejaVuSans-53"/>
       <use x="127.246094" xlink:href="#DejaVuSans-48"/>
      </g>
     </g>
    </g>
    <g id="ytick_9">
     <g id="line2d_35">
      <path clip-path="url(#p3bebe37a9d)" d="M 35.304688 450.680037 
L 314.304688 450.680037 
" style="fill:none;stroke:#808080;stroke-dasharray:1.85,0.8;stroke-dashoffset:0;stroke-width:0.5;"/>
     </g>
     <g id="line2d_36">
      <g>
       <use style="stroke:#000000;stroke-width:0.8;" x="35.304688" xlink:href="#m5c8c918603" y="450.680037"/>
      </g>
     </g>
     <g id="text_18">
      <!-- 175 -->
      <g transform="translate(9.217187 454.479256)scale(0.1 -0.1)">
       <use xlink:href="#DejaVuSans-49"/>
       <use x="63.623047" xlink:href="#DejaVuSans-55"/>
       <use x="127.246094" xlink:href="#DejaVuSans-53"/>
      </g>
     </g>
    </g>
    <g id="ytick_10">
     <g id="line2d_37">
      <path clip-path="url(#p3bebe37a9d)" d="M 35.304688 437.366949 
L 314.304688 437.366949 
" style="fill:none;stroke:#808080;stroke-dasharray:1.85,0.8;stroke-dashoffset:0;stroke-width:0.5;"/>
     </g>
     <g id="line2d_38">
      <g>
       <use style="stroke:#000000;stroke-width:0.8;" x="35.304688" xlink:href="#m5c8c918603" y="437.366949"/>
      </g>
     </g>
     <g id="text_19">
      <!-- 200 -->
      <g transform="translate(9.217187 441.166168)scale(0.1 -0.1)">
       <use xlink:href="#DejaVuSans-50"/>
       <use x="63.623047" xlink:href="#DejaVuSans-48"/>
       <use x="127.246094" xlink:href="#DejaVuSans-48"/>
      </g>
     </g>
    </g>
    <g id="ytick_11">
     <g id="line2d_39">
      <path clip-path="url(#p3bebe37a9d)" d="M 35.304688 424.053862 
L 314.304688 424.053862 
" style="fill:none;stroke:#808080;stroke-dasharray:1.85,0.8;stroke-dashoffset:0;stroke-width:0.5;"/>
     </g>
     <g id="line2d_40">
      <g>
       <use style="stroke:#000000;stroke-width:0.8;" x="35.304688" xlink:href="#m5c8c918603" y="424.053862"/>
      </g>
     </g>
     <g id="text_20">
      <!-- 225 -->
      <g transform="translate(9.217187 427.85308)scale(0.1 -0.1)">
       <use xlink:href="#DejaVuSans-50"/>
       <use x="63.623047" xlink:href="#DejaVuSans-50"/>
       <use x="127.246094" xlink:href="#DejaVuSans-53"/>
      </g>
     </g>
    </g>
    <g id="ytick_12">
     <g id="line2d_41">
      <path clip-path="url(#p3bebe37a9d)" d="M 35.304688 410.740774 
L 314.304688 410.740774 
" style="fill:none;stroke:#808080;stroke-dasharray:1.85,0.8;stroke-dashoffset:0;stroke-width:0.5;"/>
     </g>
     <g id="line2d_42">
      <g>
       <use style="stroke:#000000;stroke-width:0.8;" x="35.304688" xlink:href="#m5c8c918603" y="410.740774"/>
      </g>
     </g>
     <g id="text_21">
      <!-- 250 -->
      <g transform="translate(9.217187 414.539993)scale(0.1 -0.1)">
       <use xlink:href="#DejaVuSans-50"/>
       <use x="63.623047" xlink:href="#DejaVuSans-53"/>
       <use x="127.246094" xlink:href="#DejaVuSans-48"/>
      </g>
     </g>
    </g>
    <g id="ytick_13">
     <g id="line2d_43">
      <path clip-path="url(#p3bebe37a9d)" d="M 35.304688 397.427686 
L 314.304688 397.427686 
" style="fill:none;stroke:#808080;stroke-dasharray:1.85,0.8;stroke-dashoffset:0;stroke-width:0.5;"/>
     </g>
     <g id="line2d_44">
      <g>
       <use style="stroke:#000000;stroke-width:0.8;" x="35.304688" xlink:href="#m5c8c918603" y="397.427686"/>
      </g>
     </g>
     <g id="text_22">
      <!-- 275 -->
      <g transform="translate(9.217187 401.226905)scale(0.1 -0.1)">
       <use xlink:href="#DejaVuSans-50"/>
       <use x="63.623047" xlink:href="#DejaVuSans-55"/>
       <use x="127.246094" xlink:href="#DejaVuSans-53"/>
      </g>
     </g>
    </g>
    <g id="ytick_14">
     <g id="line2d_45">
      <path clip-path="url(#p3bebe37a9d)" d="M 35.304688 384.114598 
L 314.304688 384.114598 
" style="fill:none;stroke:#808080;stroke-dasharray:1.85,0.8;stroke-dashoffset:0;stroke-width:0.5;"/>
     </g>
     <g id="line2d_46">
      <g>
       <use style="stroke:#000000;stroke-width:0.8;" x="35.304688" xlink:href="#m5c8c918603" y="384.114598"/>
      </g>
     </g>
     <g id="text_23">
      <!-- 300 -->
      <g transform="translate(9.217187 387.913817)scale(0.1 -0.1)">
       <use xlink:href="#DejaVuSans-51"/>
       <use x="63.623047" xlink:href="#DejaVuSans-48"/>
       <use x="127.246094" xlink:href="#DejaVuSans-48"/>
      </g>
     </g>
    </g>
    <g id="ytick_15">
     <g id="line2d_47">
      <path clip-path="url(#p3bebe37a9d)" d="M 35.304688 370.801511 
L 314.304688 370.801511 
" style="fill:none;stroke:#808080;stroke-dasharray:1.85,0.8;stroke-dashoffset:0;stroke-width:0.5;"/>
     </g>
     <g id="line2d_48">
      <g>
       <use style="stroke:#000000;stroke-width:0.8;" x="35.304688" xlink:href="#m5c8c918603" y="370.801511"/>
      </g>
     </g>
     <g id="text_24">
      <!-- 325 -->
      <g transform="translate(9.217187 374.600729)scale(0.1 -0.1)">
       <use xlink:href="#DejaVuSans-51"/>
       <use x="63.623047" xlink:href="#DejaVuSans-50"/>
       <use x="127.246094" xlink:href="#DejaVuSans-53"/>
      </g>
     </g>
    </g>
    <g id="ytick_16">
     <g id="line2d_49">
      <path clip-path="url(#p3bebe37a9d)" d="M 35.304688 357.488423 
L 314.304688 357.488423 
" style="fill:none;stroke:#808080;stroke-dasharray:1.85,0.8;stroke-dashoffset:0;stroke-width:0.5;"/>
     </g>
     <g id="line2d_50">
      <g>
       <use style="stroke:#000000;stroke-width:0.8;" x="35.304688" xlink:href="#m5c8c918603" y="357.488423"/>
      </g>
     </g>
     <g id="text_25">
      <!-- 350 -->
      <g transform="translate(9.217187 361.287642)scale(0.1 -0.1)">
       <use xlink:href="#DejaVuSans-51"/>
       <use x="63.623047" xlink:href="#DejaVuSans-53"/>
       <use x="127.246094" xlink:href="#DejaVuSans-48"/>
      </g>
     </g>
    </g>
    <g id="ytick_17">
     <g id="line2d_51">
      <path clip-path="url(#p3bebe37a9d)" d="M 35.304688 344.175335 
L 314.304688 344.175335 
" style="fill:none;stroke:#808080;stroke-dasharray:1.85,0.8;stroke-dashoffset:0;stroke-width:0.5;"/>
     </g>
     <g id="line2d_52">
      <g>
       <use style="stroke:#000000;stroke-width:0.8;" x="35.304688" xlink:href="#m5c8c918603" y="344.175335"/>
      </g>
     </g>
     <g id="text_26">
      <!-- 375 -->
      <g transform="translate(9.217187 347.974554)scale(0.1 -0.1)">
       <use xlink:href="#DejaVuSans-51"/>
       <use x="63.623047" xlink:href="#DejaVuSans-55"/>
       <use x="127.246094" xlink:href="#DejaVuSans-53"/>
      </g>
     </g>
    </g>
    <g id="ytick_18">
     <g id="line2d_53">
      <path clip-path="url(#p3bebe37a9d)" d="M 35.304688 330.862247 
L 314.304688 330.862247 
" style="fill:none;stroke:#808080;stroke-dasharray:1.85,0.8;stroke-dashoffset:0;stroke-width:0.5;"/>
     </g>
     <g id="line2d_54">
      <g>
       <use style="stroke:#000000;stroke-width:0.8;" x="35.304688" xlink:href="#m5c8c918603" y="330.862247"/>
      </g>
     </g>
     <g id="text_27">
      <!-- 400 -->
      <g transform="translate(9.217187 334.661466)scale(0.1 -0.1)">
       <use xlink:href="#DejaVuSans-52"/>
       <use x="63.623047" xlink:href="#DejaVuSans-48"/>
       <use x="127.246094" xlink:href="#DejaVuSans-48"/>
      </g>
     </g>
    </g>
    <g id="ytick_19">
     <g id="line2d_55">
      <path clip-path="url(#p3bebe37a9d)" d="M 35.304688 317.549159 
L 314.304688 317.549159 
" style="fill:none;stroke:#808080;stroke-dasharray:1.85,0.8;stroke-dashoffset:0;stroke-width:0.5;"/>
     </g>
     <g id="line2d_56">
      <g>
       <use style="stroke:#000000;stroke-width:0.8;" x="35.304688" xlink:href="#m5c8c918603" y="317.549159"/>
      </g>
     </g>
     <g id="text_28">
      <!-- 425 -->
      <g transform="translate(9.217187 321.348378)scale(0.1 -0.1)">
       <use xlink:href="#DejaVuSans-52"/>
       <use x="63.623047" xlink:href="#DejaVuSans-50"/>
       <use x="127.246094" xlink:href="#DejaVuSans-53"/>
      </g>
     </g>
    </g>
    <g id="ytick_20">
     <g id="line2d_57">
      <path clip-path="url(#p3bebe37a9d)" d="M 35.304688 304.236072 
L 314.304688 304.236072 
" style="fill:none;stroke:#808080;stroke-dasharray:1.85,0.8;stroke-dashoffset:0;stroke-width:0.5;"/>
     </g>
     <g id="line2d_58">
      <g>
       <use style="stroke:#000000;stroke-width:0.8;" x="35.304688" xlink:href="#m5c8c918603" y="304.236072"/>
      </g>
     </g>
     <g id="text_29">
      <!-- 450 -->
      <g transform="translate(9.217187 308.03529)scale(0.1 -0.1)">
       <use xlink:href="#DejaVuSans-52"/>
       <use x="63.623047" xlink:href="#DejaVuSans-53"/>
       <use x="127.246094" xlink:href="#DejaVuSans-48"/>
      </g>
     </g>
    </g>
    <g id="ytick_21">
     <g id="line2d_59">
      <path clip-path="url(#p3bebe37a9d)" d="M 35.304688 290.922984 
L 314.304688 290.922984 
" style="fill:none;stroke:#808080;stroke-dasharray:1.85,0.8;stroke-dashoffset:0;stroke-width:0.5;"/>
     </g>
     <g id="line2d_60">
      <g>
       <use style="stroke:#000000;stroke-width:0.8;" x="35.304688" xlink:href="#m5c8c918603" y="290.922984"/>
      </g>
     </g>
     <g id="text_30">
      <!-- 475 -->
      <g transform="translate(9.217187 294.722203)scale(0.1 -0.1)">
       <use xlink:href="#DejaVuSans-52"/>
       <use x="63.623047" xlink:href="#DejaVuSans-55"/>
       <use x="127.246094" xlink:href="#DejaVuSans-53"/>
      </g>
     </g>
    </g>
    <g id="ytick_22">
     <g id="line2d_61">
      <path clip-path="url(#p3bebe37a9d)" d="M 35.304688 277.609896 
L 314.304688 277.609896 
" style="fill:none;stroke:#808080;stroke-dasharray:1.85,0.8;stroke-dashoffset:0;stroke-width:0.5;"/>
     </g>
     <g id="line2d_62">
      <g>
       <use style="stroke:#000000;stroke-width:0.8;" x="35.304688" xlink:href="#m5c8c918603" y="277.609896"/>
      </g>
     </g>
     <g id="text_31">
      <!-- 500 -->
      <g transform="translate(9.217187 281.409115)scale(0.1 -0.1)">
       <use xlink:href="#DejaVuSans-53"/>
       <use x="63.623047" xlink:href="#DejaVuSans-48"/>
       <use x="127.246094" xlink:href="#DejaVuSans-48"/>
      </g>
     </g>
    </g>
    <g id="ytick_23">
     <g id="line2d_63">
      <path clip-path="url(#p3bebe37a9d)" d="M 35.304688 264.296808 
L 314.304688 264.296808 
" style="fill:none;stroke:#808080;stroke-dasharray:1.85,0.8;stroke-dashoffset:0;stroke-width:0.5;"/>
     </g>
     <g id="line2d_64">
      <g>
       <use style="stroke:#000000;stroke-width:0.8;" x="35.304688" xlink:href="#m5c8c918603" y="264.296808"/>
      </g>
     </g>
     <g id="text_32">
      <!-- 525 -->
      <g transform="translate(9.217187 268.096027)scale(0.1 -0.1)">
       <use xlink:href="#DejaVuSans-53"/>
       <use x="63.623047" xlink:href="#DejaVuSans-50"/>
       <use x="127.246094" xlink:href="#DejaVuSans-53"/>
      </g>
     </g>
    </g>
    <g id="ytick_24">
     <g id="line2d_65">
      <path clip-path="url(#p3bebe37a9d)" d="M 35.304688 250.983721 
L 314.304688 250.983721 
" style="fill:none;stroke:#808080;stroke-dasharray:1.85,0.8;stroke-dashoffset:0;stroke-width:0.5;"/>
     </g>
     <g id="line2d_66">
      <g>
       <use style="stroke:#000000;stroke-width:0.8;" x="35.304688" xlink:href="#m5c8c918603" y="250.983721"/>
      </g>
     </g>
     <g id="text_33">
      <!-- 550 -->
      <g transform="translate(9.217187 254.782939)scale(0.1 -0.1)">
       <use xlink:href="#DejaVuSans-53"/>
       <use x="63.623047" xlink:href="#DejaVuSans-53"/>
       <use x="127.246094" xlink:href="#DejaVuSans-48"/>
      </g>
     </g>
    </g>
    <g id="ytick_25">
     <g id="line2d_67">
      <path clip-path="url(#p3bebe37a9d)" d="M 35.304688 237.670633 
L 314.304688 237.670633 
" style="fill:none;stroke:#808080;stroke-dasharray:1.85,0.8;stroke-dashoffset:0;stroke-width:0.5;"/>
     </g>
     <g id="line2d_68">
      <g>
       <use style="stroke:#000000;stroke-width:0.8;" x="35.304688" xlink:href="#m5c8c918603" y="237.670633"/>
      </g>
     </g>
     <g id="text_34">
      <!-- 575 -->
      <g transform="translate(9.217187 241.469852)scale(0.1 -0.1)">
       <use xlink:href="#DejaVuSans-53"/>
       <use x="63.623047" xlink:href="#DejaVuSans-55"/>
       <use x="127.246094" xlink:href="#DejaVuSans-53"/>
      </g>
     </g>
    </g>
    <g id="ytick_26">
     <g id="line2d_69">
      <path clip-path="url(#p3bebe37a9d)" d="M 35.304688 224.357545 
L 314.304688 224.357545 
" style="fill:none;stroke:#808080;stroke-dasharray:1.85,0.8;stroke-dashoffset:0;stroke-width:0.5;"/>
     </g>
     <g id="line2d_70">
      <g>
       <use style="stroke:#000000;stroke-width:0.8;" x="35.304688" xlink:href="#m5c8c918603" y="224.357545"/>
      </g>
     </g>
     <g id="text_35">
      <!-- 600 -->
      <defs>
       <path d="M 33.015625 40.375 
Q 26.375 40.375 22.484375 35.828125 
Q 18.609375 31.296875 18.609375 23.390625 
Q 18.609375 15.53125 22.484375 10.953125 
Q 26.375 6.390625 33.015625 6.390625 
Q 39.65625 6.390625 43.53125 10.953125 
Q 47.40625 15.53125 47.40625 23.390625 
Q 47.40625 31.296875 43.53125 35.828125 
Q 39.65625 40.375 33.015625 40.375 
z
M 52.59375 71.296875 
L 52.59375 62.3125 
Q 48.875 64.0625 45.09375 64.984375 
Q 41.3125 65.921875 37.59375 65.921875 
Q 27.828125 65.921875 22.671875 59.328125 
Q 17.53125 52.734375 16.796875 39.40625 
Q 19.671875 43.65625 24.015625 45.921875 
Q 28.375 48.1875 33.59375 48.1875 
Q 44.578125 48.1875 50.953125 41.515625 
Q 57.328125 34.859375 57.328125 23.390625 
Q 57.328125 12.15625 50.6875 5.359375 
Q 44.046875 -1.421875 33.015625 -1.421875 
Q 20.359375 -1.421875 13.671875 8.265625 
Q 6.984375 17.96875 6.984375 36.375 
Q 6.984375 53.65625 15.1875 63.9375 
Q 23.390625 74.21875 37.203125 74.21875 
Q 40.921875 74.21875 44.703125 73.484375 
Q 48.484375 72.75 52.59375 71.296875 
z
" id="DejaVuSans-54"/>
      </defs>
      <g transform="translate(9.217187 228.156764)scale(0.1 -0.1)">
       <use xlink:href="#DejaVuSans-54"/>
       <use x="63.623047" xlink:href="#DejaVuSans-48"/>
       <use x="127.246094" xlink:href="#DejaVuSans-48"/>
      </g>
     </g>
    </g>
    <g id="ytick_27">
     <g id="line2d_71">
      <path clip-path="url(#p3bebe37a9d)" d="M 35.304688 211.044457 
L 314.304688 211.044457 
" style="fill:none;stroke:#808080;stroke-dasharray:1.85,0.8;stroke-dashoffset:0;stroke-width:0.5;"/>
     </g>
     <g id="line2d_72">
      <g>
       <use style="stroke:#000000;stroke-width:0.8;" x="35.304688" xlink:href="#m5c8c918603" y="211.044457"/>
      </g>
     </g>
     <g id="text_36">
      <!-- 625 -->
      <g transform="translate(9.217187 214.843676)scale(0.1 -0.1)">
       <use xlink:href="#DejaVuSans-54"/>
       <use x="63.623047" xlink:href="#DejaVuSans-50"/>
       <use x="127.246094" xlink:href="#DejaVuSans-53"/>
      </g>
     </g>
    </g>
    <g id="ytick_28">
     <g id="line2d_73">
      <path clip-path="url(#p3bebe37a9d)" d="M 35.304688 197.73137 
L 314.304688 197.73137 
" style="fill:none;stroke:#808080;stroke-dasharray:1.85,0.8;stroke-dashoffset:0;stroke-width:0.5;"/>
     </g>
     <g id="line2d_74">
      <g>
       <use style="stroke:#000000;stroke-width:0.8;" x="35.304688" xlink:href="#m5c8c918603" y="197.73137"/>
      </g>
     </g>
     <g id="text_37">
      <!-- 650 -->
      <g transform="translate(9.217187 201.530588)scale(0.1 -0.1)">
       <use xlink:href="#DejaVuSans-54"/>
       <use x="63.623047" xlink:href="#DejaVuSans-53"/>
       <use x="127.246094" xlink:href="#DejaVuSans-48"/>
      </g>
     </g>
    </g>
    <g id="ytick_29">
     <g id="line2d_75">
      <path clip-path="url(#p3bebe37a9d)" d="M 35.304688 184.418282 
L 314.304688 184.418282 
" style="fill:none;stroke:#808080;stroke-dasharray:1.85,0.8;stroke-dashoffset:0;stroke-width:0.5;"/>
     </g>
     <g id="line2d_76">
      <g>
       <use style="stroke:#000000;stroke-width:0.8;" x="35.304688" xlink:href="#m5c8c918603" y="184.418282"/>
      </g>
     </g>
     <g id="text_38">
      <!-- 675 -->
      <g transform="translate(9.217187 188.2175)scale(0.1 -0.1)">
       <use xlink:href="#DejaVuSans-54"/>
       <use x="63.623047" xlink:href="#DejaVuSans-55"/>
       <use x="127.246094" xlink:href="#DejaVuSans-53"/>
      </g>
     </g>
    </g>
    <g id="ytick_30">
     <g id="line2d_77">
      <path clip-path="url(#p3bebe37a9d)" d="M 35.304688 171.105194 
L 314.304688 171.105194 
" style="fill:none;stroke:#808080;stroke-dasharray:1.85,0.8;stroke-dashoffset:0;stroke-width:0.5;"/>
     </g>
     <g id="line2d_78">
      <g>
       <use style="stroke:#000000;stroke-width:0.8;" x="35.304688" xlink:href="#m5c8c918603" y="171.105194"/>
      </g>
     </g>
     <g id="text_39">
      <!-- 700 -->
      <g transform="translate(9.217187 174.904413)scale(0.1 -0.1)">
       <use xlink:href="#DejaVuSans-55"/>
       <use x="63.623047" xlink:href="#DejaVuSans-48"/>
       <use x="127.246094" xlink:href="#DejaVuSans-48"/>
      </g>
     </g>
    </g>
    <g id="ytick_31">
     <g id="line2d_79">
      <path clip-path="url(#p3bebe37a9d)" d="M 35.304688 157.792106 
L 314.304688 157.792106 
" style="fill:none;stroke:#808080;stroke-dasharray:1.85,0.8;stroke-dashoffset:0;stroke-width:0.5;"/>
     </g>
     <g id="line2d_80">
      <g>
       <use style="stroke:#000000;stroke-width:0.8;" x="35.304688" xlink:href="#m5c8c918603" y="157.792106"/>
      </g>
     </g>
     <g id="text_40">
      <!-- 725 -->
      <g transform="translate(9.217187 161.591325)scale(0.1 -0.1)">
       <use xlink:href="#DejaVuSans-55"/>
       <use x="63.623047" xlink:href="#DejaVuSans-50"/>
       <use x="127.246094" xlink:href="#DejaVuSans-53"/>
      </g>
     </g>
    </g>
    <g id="ytick_32">
     <g id="line2d_81">
      <path clip-path="url(#p3bebe37a9d)" d="M 35.304688 144.479018 
L 314.304688 144.479018 
" style="fill:none;stroke:#808080;stroke-dasharray:1.85,0.8;stroke-dashoffset:0;stroke-width:0.5;"/>
     </g>
     <g id="line2d_82">
      <g>
       <use style="stroke:#000000;stroke-width:0.8;" x="35.304688" xlink:href="#m5c8c918603" y="144.479018"/>
      </g>
     </g>
     <g id="text_41">
      <!-- 750 -->
      <g transform="translate(9.217187 148.278237)scale(0.1 -0.1)">
       <use xlink:href="#DejaVuSans-55"/>
       <use x="63.623047" xlink:href="#DejaVuSans-53"/>
       <use x="127.246094" xlink:href="#DejaVuSans-48"/>
      </g>
     </g>
    </g>
    <g id="ytick_33">
     <g id="line2d_83">
      <path clip-path="url(#p3bebe37a9d)" d="M 35.304688 131.165931 
L 314.304688 131.165931 
" style="fill:none;stroke:#808080;stroke-dasharray:1.85,0.8;stroke-dashoffset:0;stroke-width:0.5;"/>
     </g>
     <g id="line2d_84">
      <g>
       <use style="stroke:#000000;stroke-width:0.8;" x="35.304688" xlink:href="#m5c8c918603" y="131.165931"/>
      </g>
     </g>
     <g id="text_42">
      <!-- 775 -->
      <g transform="translate(9.217187 134.965149)scale(0.1 -0.1)">
       <use xlink:href="#DejaVuSans-55"/>
       <use x="63.623047" xlink:href="#DejaVuSans-55"/>
       <use x="127.246094" xlink:href="#DejaVuSans-53"/>
      </g>
     </g>
    </g>
    <g id="ytick_34">
     <g id="line2d_85">
      <path clip-path="url(#p3bebe37a9d)" d="M 35.304688 117.852843 
L 314.304688 117.852843 
" style="fill:none;stroke:#808080;stroke-dasharray:1.85,0.8;stroke-dashoffset:0;stroke-width:0.5;"/>
     </g>
     <g id="line2d_86">
      <g>
       <use style="stroke:#000000;stroke-width:0.8;" x="35.304688" xlink:href="#m5c8c918603" y="117.852843"/>
      </g>
     </g>
     <g id="text_43">
      <!-- 800 -->
      <defs>
       <path d="M 31.78125 34.625 
Q 24.75 34.625 20.71875 30.859375 
Q 16.703125 27.09375 16.703125 20.515625 
Q 16.703125 13.921875 20.71875 10.15625 
Q 24.75 6.390625 31.78125 6.390625 
Q 38.8125 6.390625 42.859375 10.171875 
Q 46.921875 13.96875 46.921875 20.515625 
Q 46.921875 27.09375 42.890625 30.859375 
Q 38.875 34.625 31.78125 34.625 
z
M 21.921875 38.8125 
Q 15.578125 40.375 12.03125 44.71875 
Q 8.5 49.078125 8.5 55.328125 
Q 8.5 64.0625 14.71875 69.140625 
Q 20.953125 74.21875 31.78125 74.21875 
Q 42.671875 74.21875 48.875 69.140625 
Q 55.078125 64.0625 55.078125 55.328125 
Q 55.078125 49.078125 51.53125 44.71875 
Q 48 40.375 41.703125 38.8125 
Q 48.828125 37.15625 52.796875 32.3125 
Q 56.78125 27.484375 56.78125 20.515625 
Q 56.78125 9.90625 50.3125 4.234375 
Q 43.84375 -1.421875 31.78125 -1.421875 
Q 19.734375 -1.421875 13.25 4.234375 
Q 6.78125 9.90625 6.78125 20.515625 
Q 6.78125 27.484375 10.78125 32.3125 
Q 14.796875 37.15625 21.921875 38.8125 
z
M 18.3125 54.390625 
Q 18.3125 48.734375 21.84375 45.5625 
Q 25.390625 42.390625 31.78125 42.390625 
Q 38.140625 42.390625 41.71875 45.5625 
Q 45.3125 48.734375 45.3125 54.390625 
Q 45.3125 60.0625 41.71875 63.234375 
Q 38.140625 66.40625 31.78125 66.40625 
Q 25.390625 66.40625 21.84375 63.234375 
Q 18.3125 60.0625 18.3125 54.390625 
z
" id="DejaVuSans-56"/>
      </defs>
      <g transform="translate(9.217187 121.652062)scale(0.1 -0.1)">
       <use xlink:href="#DejaVuSans-56"/>
       <use x="63.623047" xlink:href="#DejaVuSans-48"/>
       <use x="127.246094" xlink:href="#DejaVuSans-48"/>
      </g>
     </g>
    </g>
    <g id="ytick_35">
     <g id="line2d_87">
      <path clip-path="url(#p3bebe37a9d)" d="M 35.304688 104.539755 
L 314.304688 104.539755 
" style="fill:none;stroke:#808080;stroke-dasharray:1.85,0.8;stroke-dashoffset:0;stroke-width:0.5;"/>
     </g>
     <g id="line2d_88">
      <g>
       <use style="stroke:#000000;stroke-width:0.8;" x="35.304688" xlink:href="#m5c8c918603" y="104.539755"/>
      </g>
     </g>
     <g id="text_44">
      <!-- 825 -->
      <g transform="translate(9.217187 108.338974)scale(0.1 -0.1)">
       <use xlink:href="#DejaVuSans-56"/>
       <use x="63.623047" xlink:href="#DejaVuSans-50"/>
       <use x="127.246094" xlink:href="#DejaVuSans-53"/>
      </g>
     </g>
    </g>
    <g id="ytick_36">
     <g id="line2d_89">
      <path clip-path="url(#p3bebe37a9d)" d="M 35.304688 91.226667 
L 314.304688 91.226667 
" style="fill:none;stroke:#808080;stroke-dasharray:1.85,0.8;stroke-dashoffset:0;stroke-width:0.5;"/>
     </g>
     <g id="line2d_90">
      <g>
       <use style="stroke:#000000;stroke-width:0.8;" x="35.304688" xlink:href="#m5c8c918603" y="91.226667"/>
      </g>
     </g>
     <g id="text_45">
      <!-- 850 -->
      <g transform="translate(9.217187 95.025886)scale(0.1 -0.1)">
       <use xlink:href="#DejaVuSans-56"/>
       <use x="63.623047" xlink:href="#DejaVuSans-53"/>
       <use x="127.246094" xlink:href="#DejaVuSans-48"/>
      </g>
     </g>
    </g>
    <g id="ytick_37">
     <g id="line2d_91">
      <path clip-path="url(#p3bebe37a9d)" d="M 35.304688 77.91358 
L 314.304688 77.91358 
" style="fill:none;stroke:#808080;stroke-dasharray:1.85,0.8;stroke-dashoffset:0;stroke-width:0.5;"/>
     </g>
     <g id="line2d_92">
      <g>
       <use style="stroke:#000000;stroke-width:0.8;" x="35.304688" xlink:href="#m5c8c918603" y="77.91358"/>
      </g>
     </g>
     <g id="text_46">
      <!-- 875 -->
      <g transform="translate(9.217187 81.712798)scale(0.1 -0.1)">
       <use xlink:href="#DejaVuSans-56"/>
       <use x="63.623047" xlink:href="#DejaVuSans-55"/>
       <use x="127.246094" xlink:href="#DejaVuSans-53"/>
      </g>
     </g>
    </g>
    <g id="ytick_38">
     <g id="line2d_93">
      <path clip-path="url(#p3bebe37a9d)" d="M 35.304688 64.600492 
L 314.304688 64.600492 
" style="fill:none;stroke:#808080;stroke-dasharray:1.85,0.8;stroke-dashoffset:0;stroke-width:0.5;"/>
     </g>
     <g id="line2d_94">
      <g>
       <use style="stroke:#000000;stroke-width:0.8;" x="35.304688" xlink:href="#m5c8c918603" y="64.600492"/>
      </g>
     </g>
     <g id="text_47">
      <!-- 900 -->
      <g transform="translate(9.217187 68.399711)scale(0.1 -0.1)">
       <use xlink:href="#DejaVuSans-57"/>
       <use x="63.623047" xlink:href="#DejaVuSans-48"/>
       <use x="127.246094" xlink:href="#DejaVuSans-48"/>
      </g>
     </g>
    </g>
    <g id="ytick_39">
     <g id="line2d_95">
      <path clip-path="url(#p3bebe37a9d)" d="M 35.304688 51.287404 
L 314.304688 51.287404 
" style="fill:none;stroke:#808080;stroke-dasharray:1.85,0.8;stroke-dashoffset:0;stroke-width:0.5;"/>
     </g>
     <g id="line2d_96">
      <g>
       <use style="stroke:#000000;stroke-width:0.8;" x="35.304688" xlink:href="#m5c8c918603" y="51.287404"/>
      </g>
     </g>
     <g id="text_48">
      <!-- 925 -->
      <g transform="translate(9.217187 55.086623)scale(0.1 -0.1)">
       <use xlink:href="#DejaVuSans-57"/>
       <use x="63.623047" xlink:href="#DejaVuSans-50"/>
       <use x="127.246094" xlink:href="#DejaVuSans-53"/>
      </g>
     </g>
    </g>
    <g id="ytick_40">
     <g id="line2d_97">
      <path clip-path="url(#p3bebe37a9d)" d="M 35.304688 37.974316 
L 314.304688 37.974316 
" style="fill:none;stroke:#808080;stroke-dasharray:1.85,0.8;stroke-dashoffset:0;stroke-width:0.5;"/>
     </g>
     <g id="line2d_98">
      <g>
       <use style="stroke:#000000;stroke-width:0.8;" x="35.304688" xlink:href="#m5c8c918603" y="37.974316"/>
      </g>
     </g>
     <g id="text_49">
      <!-- 950 -->
      <g transform="translate(9.217187 41.773535)scale(0.1 -0.1)">
       <use xlink:href="#DejaVuSans-57"/>
       <use x="63.623047" xlink:href="#DejaVuSans-53"/>
       <use x="127.246094" xlink:href="#DejaVuSans-48"/>
      </g>
     </g>
    </g>
    <g id="ytick_41">
     <g id="line2d_99">
      <path clip-path="url(#p3bebe37a9d)" d="M 35.304688 24.661228 
L 314.304688 24.661228 
" style="fill:none;stroke:#808080;stroke-dasharray:1.85,0.8;stroke-dashoffset:0;stroke-width:0.5;"/>
     </g>
     <g id="line2d_100">
      <g>
       <use style="stroke:#000000;stroke-width:0.8;" x="35.304688" xlink:href="#m5c8c918603" y="24.661228"/>
      </g>
     </g>
     <g id="text_50">
      <!-- 975 -->
      <g transform="translate(9.217187 28.460447)scale(0.1 -0.1)">
       <use xlink:href="#DejaVuSans-57"/>
       <use x="63.623047" xlink:href="#DejaVuSans-55"/>
       <use x="127.246094" xlink:href="#DejaVuSans-53"/>
      </g>
     </g>
    </g>
   </g>
   <g id="line2d_101">
    <path clip-path="url(#p3bebe37a9d)" d="M 47.986506 536.416322 
L 62.906292 536.416322 
L 77.826078 536.416322 
L 92.745864 536.416322 
L 107.66565 536.416322 
L 122.585436 536.416322 
L 137.505222 536.416322 
L 152.425008 536.416322 
L 167.344794 536.416322 
L 182.264581 535.883799 
L 197.184367 535.883799 
L 212.104153 535.883799 
L 227.023939 535.883799 
L 241.943725 535.883799 
L 256.863511 534.818752 
L 271.783297 534.818752 
L 286.703083 534.818752 
L 301.622869 534.818752 
" style="fill:none;stroke:#f08080;stroke-linecap:square;stroke-width:1.5;"/>
   </g>
   <g id="line2d_102">
    <path clip-path="url(#p3bebe37a9d)" d="M 47.986506 526.830899 
L 62.906292 526.298376 
L 77.826078 526.298376 
L 92.745864 526.298376 
L 107.66565 526.298376 
L 122.585436 525.233329 
L 137.505222 525.233329 
L 152.425008 525.233329 
L 167.344794 524.168282 
L 182.264581 524.168282 
L 197.184367 524.168282 
L 212.104153 520.440617 
L 227.023939 520.440617 
L 241.943725 520.440617 
L 256.863511 517.778 
L 271.783297 517.778 
L 286.703083 517.778 
L 301.622869 517.778 
" style="fill:none;stroke:#ff8c00;stroke-linecap:square;stroke-width:1.5;"/>
   </g>
   <g id="line2d_103">
    <path clip-path="url(#p3bebe37a9d)" d="M 47.986506 530.02604 
L 62.906292 528.960993 
L 77.826078 528.960993 
L 92.745864 528.960993 
L 107.66565 528.960993 
L 122.585436 527.895946 
L 137.505222 527.895946 
L 152.425008 526.830899 
L 167.344794 520.440617 
L 182.264581 520.440617 
L 197.184367 517.778 
L 212.104153 516.712953 
L 227.023939 515.647906 
L 241.943725 515.647906 
L 256.863511 512.452764 
L 271.783297 510.855194 
L 286.703083 510.855194 
L 301.622869 510.855194 
" style="fill:none;stroke:#fafad2;stroke-linecap:square;stroke-width:1.5;"/>
   </g>
   <g id="line2d_104">
    <path clip-path="url(#p3bebe37a9d)" d="M 47.986506 539.611464 
L 62.906292 539.611464 
L 77.826078 539.611464 
L 92.745864 539.611464 
L 107.66565 539.611464 
L 122.585436 539.611464 
L 137.505222 539.611464 
L 152.425008 539.611464 
L 167.344794 539.07894 
L 182.264581 539.07894 
L 197.184367 538.546417 
L 212.104153 538.546417 
L 227.023939 537.48137 
L 241.943725 537.48137 
L 256.863511 537.48137 
L 271.783297 537.48137 
L 286.703083 537.48137 
L 301.622869 537.48137 
" style="fill:none;stroke:#ffdab9;stroke-linecap:square;stroke-width:1.5;"/>
   </g>
   <g id="line2d_105">
    <path clip-path="url(#p3bebe37a9d)" d="M 47.986506 540.143987 
L 62.906292 539.611464 
L 77.826078 539.611464 
L 92.745864 538.546417 
L 107.66565 538.546417 
L 122.585436 536.416322 
L 137.505222 534.286228 
L 152.425008 534.286228 
L 167.344794 530.02604 
L 182.264581 527.895946 
L 197.184367 526.830899 
L 212.104153 524.168282 
L 227.023939 522.038188 
L 241.943725 522.038188 
L 256.863511 514.050335 
L 271.783297 510.855194 
L 286.703083 508.7251 
L 301.622869 508.7251 
" style="fill:none;stroke:#dda0dd;stroke-linecap:square;stroke-width:1.5;"/>
   </g>
   <g id="line2d_106">
    <path clip-path="url(#p3bebe37a9d)" d="M 47.986506 535.351275 
L 62.906292 535.351275 
L 77.826078 535.351275 
L 92.745864 533.221181 
L 107.66565 533.221181 
L 122.585436 533.221181 
L 137.505222 532.688658 
L 152.425008 532.688658 
L 167.344794 530.558564 
L 182.264581 529.493517 
L 197.184367 528.960993 
L 212.104153 528.960993 
L 227.023939 528.960993 
L 241.943725 528.960993 
L 256.863511 527.895946 
L 271.783297 526.830899 
L 286.703083 526.830899 
L 301.622869 526.830899 
" style="fill:none;stroke:#9370db;stroke-linecap:square;stroke-width:1.5;"/>
   </g>
   <g id="line2d_107">
    <path clip-path="url(#p3bebe37a9d)" d="M 47.986506 526.298376 
L 62.906292 526.298376 
L 77.826078 526.298376 
L 92.745864 526.298376 
L 107.66565 526.298376 
L 122.585436 526.298376 
L 137.505222 526.298376 
L 152.425008 526.298376 
L 167.344794 526.298376 
L 182.264581 525.765852 
L 197.184367 524.168282 
L 212.104153 524.168282 
L 227.023939 524.168282 
L 241.943725 524.168282 
L 256.863511 520.973141 
L 271.783297 518.310523 
L 286.703083 518.310523 
L 301.622869 518.310523 
" style="fill:none;stroke:#800080;stroke-linecap:square;stroke-width:1.5;"/>
   </g>
   <g id="line2d_108">
    <path clip-path="url(#p3bebe37a9d)" d="M 47.986506 517.778 
L 62.906292 516.180429 
L 77.826078 516.180429 
L 92.745864 514.582859 
L 107.66565 514.582859 
L 122.585436 514.582859 
L 137.505222 513.517812 
L 152.425008 512.452764 
L 167.344794 510.32267 
L 182.264581 509.790147 
L 197.184367 508.192576 
L 212.104153 505.529959 
L 227.023939 505.529959 
L 241.943725 505.529959 
L 256.863511 496.477059 
L 271.783297 494.346965 
L 286.703083 493.281918 
L 301.622869 493.281918 
" style="fill:none;stroke:#7fff00;stroke-linecap:square;stroke-width:1.5;"/>
   </g>
   <g id="line2d_109">
    <path clip-path="url(#p3bebe37a9d)" d="M 47.986506 525.765852 
L 62.906292 524.168282 
L 77.826078 524.168282 
L 92.745864 522.038188 
L 107.66565 522.038188 
L 122.585436 520.440617 
L 137.505222 519.37557 
L 152.425008 519.37557 
L 167.344794 519.37557 
L 182.264581 519.37557 
L 197.184367 516.712953 
L 212.104153 515.115382 
L 227.023939 512.985288 
L 241.943725 512.985288 
L 256.863511 512.985288 
L 271.783297 512.985288 
L 286.703083 512.452764 
L 301.622869 512.452764 
" style="fill:none;stroke:#00fa9a;stroke-linecap:square;stroke-width:1.5;"/>
   </g>
   <g id="line2d_110">
    <path clip-path="url(#p3bebe37a9d)" d="M 47.986506 530.02604 
L 62.906292 528.42847 
L 77.826078 528.42847 
L 92.745864 528.42847 
L 107.66565 528.42847 
L 122.585436 527.895946 
L 137.505222 527.895946 
L 152.425008 527.895946 
L 167.344794 527.363423 
L 182.264581 526.830899 
L 197.184367 524.168282 
L 212.104153 523.103235 
L 227.023939 522.570711 
L 241.943725 522.570711 
L 256.863511 522.038188 
L 271.783297 522.038188 
L 286.703083 522.038188 
L 301.622869 522.038188 
" style="fill:none;stroke:#008000;stroke-linecap:square;stroke-width:1.5;"/>
   </g>
   <g id="line2d_111">
    <path clip-path="url(#p3bebe37a9d)" d="M 47.986506 497.009583 
L 62.906292 494.879489 
L 77.826078 494.879489 
L 92.745864 491.684348 
L 107.66565 491.684348 
L 122.585436 487.956683 
L 137.505222 486.891636 
L 152.425008 484.229018 
L 167.344794 477.306213 
L 182.264581 474.111072 
L 197.184367 468.253313 
L 212.104153 461.863031 
L 227.023939 455.472749 
L 241.943725 455.472749 
L 256.863511 431.509191 
L 271.783297 425.651432 
L 286.703083 420.858721 
L 301.622869 420.858721 
" style="fill:none;stroke:#00ffff;stroke-linecap:square;stroke-width:1.5;"/>
   </g>
   <g id="line2d_112">
    <path clip-path="url(#p3bebe37a9d)" d="M 47.986506 528.960993 
L 62.906292 527.363423 
L 77.826078 527.363423 
L 92.745864 525.765852 
L 107.66565 525.765852 
L 122.585436 525.233329 
L 137.505222 524.168282 
L 152.425008 523.103235 
L 167.344794 519.908094 
L 182.264581 519.908094 
L 197.184367 517.778 
L 212.104153 516.180429 
L 227.023939 515.115382 
L 241.943725 515.115382 
L 256.863511 509.790147 
L 271.783297 507.660053 
L 286.703083 503.932388 
L 301.622869 503.932388 
" style="fill:none;stroke:#48d1cc;stroke-linecap:square;stroke-width:1.5;"/>
   </g>
   <g id="line2d_113">
    <path clip-path="url(#p3bebe37a9d)" d="M 47.986506 516.180429 
L 62.906292 514.582859 
L 77.826078 514.582859 
L 92.745864 511.920241 
L 107.66565 511.920241 
L 122.585436 510.32267 
L 137.505222 502.334818 
L 152.425008 501.802294 
L 167.344794 500.737247 
L 182.264581 499.139677 
L 197.184367 495.412012 
L 212.104153 493.281918 
L 227.023939 489.554254 
L 241.943725 489.554254 
L 256.863511 480.501354 
L 271.783297 478.37126 
L 286.703083 475.708642 
L 301.622869 475.708642 
" style="fill:none;stroke:#b0e0e6;stroke-linecap:square;stroke-width:1.5;"/>
   </g>
   <g id="line2d_114">
    <path clip-path="url(#p3bebe37a9d)" d="M 47.986506 422.456291 
L 62.906292 406.480586 
L 77.826078 406.480586 
L 92.745864 385.179645 
L 107.66565 385.179645 
L 122.585436 365.476275 
L 137.505222 345.240382 
L 152.425008 327.667106 
L 167.344794 303.171025 
L 182.264581 281.870084 
L 197.184367 246.723533 
L 212.104153 212.109504 
L 227.023939 176.962953 
L 241.943725 176.962953 
L 256.863511 116.787796 
L 271.783297 76.848533 
L 286.703083 47.027216 
L 301.622869 47.027216 
" style="fill:none;stroke:#6495ed;stroke-linecap:square;stroke-width:1.5;"/>
   </g>
   <g id="line2d_115">
    <path clip-path="url(#p3bebe37a9d)" d="M 47.986506 534.286228 
L 62.906292 533.221181 
L 77.826078 533.221181 
L 92.745864 533.221181 
L 107.66565 533.221181 
L 122.585436 532.156134 
L 137.505222 532.156134 
L 152.425008 530.02604 
L 167.344794 529.493517 
L 182.264581 527.895946 
L 197.184367 527.363423 
L 212.104153 525.765852 
L 227.023939 523.635758 
L 241.943725 523.635758 
L 256.863511 520.440617 
L 271.783297 518.843047 
L 286.703083 518.310523 
L 301.622869 518.310523 
" style="fill:none;stroke:#000080;stroke-linecap:square;stroke-width:1.5;"/>
   </g>
   <g id="line2d_116">
    <path clip-path="url(#p3bebe37a9d)" d="M 47.986506 541.209034 
L 62.906292 540.676511 
L 77.826078 540.676511 
L 92.745864 540.143987 
L 107.66565 540.143987 
L 122.585436 540.143987 
L 137.505222 540.143987 
L 152.425008 540.143987 
L 167.344794 539.611464 
L 182.264581 536.948846 
L 197.184367 536.416322 
L 212.104153 534.818752 
L 227.023939 533.221181 
L 241.943725 533.221181 
L 256.863511 532.156134 
L 271.783297 532.156134 
L 286.703083 531.623611 
L 301.622869 531.623611 
" style="fill:none;stroke:#f5deb3;stroke-linecap:square;stroke-width:1.5;"/>
   </g>
   <g id="line2d_117">
    <path clip-path="url(#p3bebe37a9d)" d="M 47.986506 535.351275 
L 62.906292 534.286228 
L 77.826078 534.286228 
L 92.745864 533.753705 
L 107.66565 533.753705 
L 122.585436 533.221181 
L 137.505222 533.221181 
L 152.425008 532.688658 
L 167.344794 531.623611 
L 182.264581 531.623611 
L 197.184367 530.558564 
L 212.104153 525.765852 
L 227.023939 525.765852 
L 241.943725 525.765852 
L 256.863511 523.635758 
L 271.783297 518.310523 
L 286.703083 518.310523 
L 301.622869 518.310523 
" style="fill:none;stroke:#b8860b;stroke-linecap:square;stroke-width:1.5;"/>
   </g>
   <g id="line2d_118">
    <path clip-path="url(#p3bebe37a9d)" d="M 47.986506 522.570711 
L 62.906292 520.753866 
L 77.826078 520.753866 
L 92.745864 518.592447 
L 107.66565 518.592447 
L 122.585436 516.618978 
L 137.505222 514.551534 
L 152.425008 512.985288 
L 167.344794 509.758822 
L 182.264581 507.660053 
L 197.184367 503.995038 
L 212.104153 500.142074 
L 227.023939 496.790308 
L 241.943725 496.790308 
L 256.863511 488.927755 
L 271.783297 484.949491 
L 286.703083 482.255549 
L 301.622869 482.255549 
" style="fill:none;stroke:#ff6347;stroke-dasharray:4.5,1.5,1.5,1.5,1.5,1.5;stroke-dashoffset:0;stroke-width:1.5;"/>
   </g>
   <g id="patch_3">
    <path d="M 35.304688 565.918125 
L 35.304688 22.318125 
" style="fill:none;stroke:#000000;stroke-linecap:square;stroke-linejoin:miter;stroke-width:0.8;"/>
   </g>
   <g id="patch_4">
    <path d="M 314.304688 565.918125 
L 314.304688 22.318125 
" style="fill:none;stroke:#000000;stroke-linecap:square;stroke-linejoin:miter;stroke-width:0.8;"/>
   </g>
   <g id="patch_5">
    <path d="M 35.304688 565.918125 
L 314.304688 565.918125 
" style="fill:none;stroke:#000000;stroke-linecap:square;stroke-linejoin:miter;stroke-width:0.8;"/>
   </g>
   <g id="patch_6">
    <path d="M 35.304688 22.318125 
L 314.304688 22.318125 
" style="fill:none;stroke:#000000;stroke-linecap:square;stroke-linejoin:miter;stroke-width:0.8;"/>
   </g>
   <g id="text_51">
    <!-- Average people under investigation per region is 115.71 , people as of 21/04/2020 . -->
    <defs>
     <path d="M 34.1875 63.1875 
L 20.796875 26.90625 
L 47.609375 26.90625 
z
M 28.609375 72.90625 
L 39.796875 72.90625 
L 67.578125 0 
L 57.328125 0 
L 50.6875 18.703125 
L 17.828125 18.703125 
L 11.1875 0 
L 0.78125 0 
z
" id="DejaVuSans-65"/>
     <path d="M 2.984375 54.6875 
L 12.5 54.6875 
L 29.59375 8.796875 
L 46.6875 54.6875 
L 56.203125 54.6875 
L 35.6875 0 
L 23.484375 0 
z
" id="DejaVuSans-118"/>
     <path d="M 56.203125 29.59375 
L 56.203125 25.203125 
L 14.890625 25.203125 
Q 15.484375 15.921875 20.484375 11.0625 
Q 25.484375 6.203125 34.421875 6.203125 
Q 39.59375 6.203125 44.453125 7.46875 
Q 49.3125 8.734375 54.109375 11.28125 
L 54.109375 2.78125 
Q 49.265625 0.734375 44.1875 -0.34375 
Q 39.109375 -1.421875 33.890625 -1.421875 
Q 20.796875 -1.421875 13.15625 6.1875 
Q 5.515625 13.8125 5.515625 26.8125 
Q 5.515625 40.234375 12.765625 48.109375 
Q 20.015625 56 32.328125 56 
Q 43.359375 56 49.78125 48.890625 
Q 56.203125 41.796875 56.203125 29.59375 
z
M 47.21875 32.234375 
Q 47.125 39.59375 43.09375 43.984375 
Q 39.0625 48.390625 32.421875 48.390625 
Q 24.90625 48.390625 20.390625 44.140625 
Q 15.875 39.890625 15.1875 32.171875 
z
" id="DejaVuSans-101"/>
     <path d="M 41.109375 46.296875 
Q 39.59375 47.171875 37.8125 47.578125 
Q 36.03125 48 33.890625 48 
Q 26.265625 48 22.1875 43.046875 
Q 18.109375 38.09375 18.109375 28.8125 
L 18.109375 0 
L 9.078125 0 
L 9.078125 54.6875 
L 18.109375 54.6875 
L 18.109375 46.1875 
Q 20.953125 51.171875 25.484375 53.578125 
Q 30.03125 56 36.53125 56 
Q 37.453125 56 38.578125 55.875 
Q 39.703125 55.765625 41.0625 55.515625 
z
" id="DejaVuSans-114"/>
     <path d="M 34.28125 27.484375 
Q 23.390625 27.484375 19.1875 25 
Q 14.984375 22.515625 14.984375 16.5 
Q 14.984375 11.71875 18.140625 8.90625 
Q 21.296875 6.109375 26.703125 6.109375 
Q 34.1875 6.109375 38.703125 11.40625 
Q 43.21875 16.703125 43.21875 25.484375 
L 43.21875 27.484375 
z
M 52.203125 31.203125 
L 52.203125 0 
L 43.21875 0 
L 43.21875 8.296875 
Q 40.140625 3.328125 35.546875 0.953125 
Q 30.953125 -1.421875 24.3125 -1.421875 
Q 15.921875 -1.421875 10.953125 3.296875 
Q 6 8.015625 6 15.921875 
Q 6 25.140625 12.171875 29.828125 
Q 18.359375 34.515625 30.609375 34.515625 
L 43.21875 34.515625 
L 43.21875 35.40625 
Q 43.21875 41.609375 39.140625 45 
Q 35.0625 48.390625 27.6875 48.390625 
Q 23 48.390625 18.546875 47.265625 
Q 14.109375 46.140625 10.015625 43.890625 
L 10.015625 52.203125 
Q 14.9375 54.109375 19.578125 55.046875 
Q 24.21875 56 28.609375 56 
Q 40.484375 56 46.34375 49.84375 
Q 52.203125 43.703125 52.203125 31.203125 
z
" id="DejaVuSans-97"/>
     <path d="M 45.40625 27.984375 
Q 45.40625 37.75 41.375 43.109375 
Q 37.359375 48.484375 30.078125 48.484375 
Q 22.859375 48.484375 18.828125 43.109375 
Q 14.796875 37.75 14.796875 27.984375 
Q 14.796875 18.265625 18.828125 12.890625 
Q 22.859375 7.515625 30.078125 7.515625 
Q 37.359375 7.515625 41.375 12.890625 
Q 45.40625 18.265625 45.40625 27.984375 
z
M 54.390625 6.78125 
Q 54.390625 -7.171875 48.1875 -13.984375 
Q 42 -20.796875 29.203125 -20.796875 
Q 24.46875 -20.796875 20.265625 -20.09375 
Q 16.0625 -19.390625 12.109375 -17.921875 
L 12.109375 -9.1875 
Q 16.0625 -11.328125 19.921875 -12.34375 
Q 23.78125 -13.375 27.78125 -13.375 
Q 36.625 -13.375 41.015625 -8.765625 
Q 45.40625 -4.15625 45.40625 5.171875 
L 45.40625 9.625 
Q 42.625 4.78125 38.28125 2.390625 
Q 33.9375 0 27.875 0 
Q 17.828125 0 11.671875 7.65625 
Q 5.515625 15.328125 5.515625 27.984375 
Q 5.515625 40.671875 11.671875 48.328125 
Q 17.828125 56 27.875 56 
Q 33.9375 56 38.28125 53.609375 
Q 42.625 51.21875 45.40625 46.390625 
L 45.40625 54.6875 
L 54.390625 54.6875 
z
" id="DejaVuSans-103"/>
     <path id="DejaVuSans-32"/>
     <path d="M 18.109375 8.203125 
L 18.109375 -20.796875 
L 9.078125 -20.796875 
L 9.078125 54.6875 
L 18.109375 54.6875 
L 18.109375 46.390625 
Q 20.953125 51.265625 25.265625 53.625 
Q 29.59375 56 35.59375 56 
Q 45.5625 56 51.78125 48.09375 
Q 58.015625 40.1875 58.015625 27.296875 
Q 58.015625 14.40625 51.78125 6.484375 
Q 45.5625 -1.421875 35.59375 -1.421875 
Q 29.59375 -1.421875 25.265625 0.953125 
Q 20.953125 3.328125 18.109375 8.203125 
z
M 48.6875 27.296875 
Q 48.6875 37.203125 44.609375 42.84375 
Q 40.53125 48.484375 33.40625 48.484375 
Q 26.265625 48.484375 22.1875 42.84375 
Q 18.109375 37.203125 18.109375 27.296875 
Q 18.109375 17.390625 22.1875 11.75 
Q 26.265625 6.109375 33.40625 6.109375 
Q 40.53125 6.109375 44.609375 11.75 
Q 48.6875 17.390625 48.6875 27.296875 
z
" id="DejaVuSans-112"/>
     <path d="M 30.609375 48.390625 
Q 23.390625 48.390625 19.1875 42.75 
Q 14.984375 37.109375 14.984375 27.296875 
Q 14.984375 17.484375 19.15625 11.84375 
Q 23.34375 6.203125 30.609375 6.203125 
Q 37.796875 6.203125 41.984375 11.859375 
Q 46.1875 17.53125 46.1875 27.296875 
Q 46.1875 37.015625 41.984375 42.703125 
Q 37.796875 48.390625 30.609375 48.390625 
z
M 30.609375 56 
Q 42.328125 56 49.015625 48.375 
Q 55.71875 40.765625 55.71875 27.296875 
Q 55.71875 13.875 49.015625 6.21875 
Q 42.328125 -1.421875 30.609375 -1.421875 
Q 18.84375 -1.421875 12.171875 6.21875 
Q 5.515625 13.875 5.515625 27.296875 
Q 5.515625 40.765625 12.171875 48.375 
Q 18.84375 56 30.609375 56 
z
" id="DejaVuSans-111"/>
     <path d="M 9.421875 75.984375 
L 18.40625 75.984375 
L 18.40625 0 
L 9.421875 0 
z
" id="DejaVuSans-108"/>
     <path d="M 8.5 21.578125 
L 8.5 54.6875 
L 17.484375 54.6875 
L 17.484375 21.921875 
Q 17.484375 14.15625 20.5 10.265625 
Q 23.53125 6.390625 29.59375 6.390625 
Q 36.859375 6.390625 41.078125 11.03125 
Q 45.3125 15.671875 45.3125 23.6875 
L 45.3125 54.6875 
L 54.296875 54.6875 
L 54.296875 0 
L 45.3125 0 
L 45.3125 8.40625 
Q 42.046875 3.421875 37.71875 1 
Q 33.40625 -1.421875 27.6875 -1.421875 
Q 18.265625 -1.421875 13.375 4.4375 
Q 8.5 10.296875 8.5 21.578125 
z
M 31.109375 56 
z
" id="DejaVuSans-117"/>
     <path d="M 54.890625 33.015625 
L 54.890625 0 
L 45.90625 0 
L 45.90625 32.71875 
Q 45.90625 40.484375 42.875 44.328125 
Q 39.84375 48.1875 33.796875 48.1875 
Q 26.515625 48.1875 22.3125 43.546875 
Q 18.109375 38.921875 18.109375 30.90625 
L 18.109375 0 
L 9.078125 0 
L 9.078125 54.6875 
L 18.109375 54.6875 
L 18.109375 46.1875 
Q 21.34375 51.125 25.703125 53.5625 
Q 30.078125 56 35.796875 56 
Q 45.21875 56 50.046875 50.171875 
Q 54.890625 44.34375 54.890625 33.015625 
z
" id="DejaVuSans-110"/>
     <path d="M 45.40625 46.390625 
L 45.40625 75.984375 
L 54.390625 75.984375 
L 54.390625 0 
L 45.40625 0 
L 45.40625 8.203125 
Q 42.578125 3.328125 38.25 0.953125 
Q 33.9375 -1.421875 27.875 -1.421875 
Q 17.96875 -1.421875 11.734375 6.484375 
Q 5.515625 14.40625 5.515625 27.296875 
Q 5.515625 40.1875 11.734375 48.09375 
Q 17.96875 56 27.875 56 
Q 33.9375 56 38.25 53.625 
Q 42.578125 51.265625 45.40625 46.390625 
z
M 14.796875 27.296875 
Q 14.796875 17.390625 18.875 11.75 
Q 22.953125 6.109375 30.078125 6.109375 
Q 37.203125 6.109375 41.296875 11.75 
Q 45.40625 17.390625 45.40625 27.296875 
Q 45.40625 37.203125 41.296875 42.84375 
Q 37.203125 48.484375 30.078125 48.484375 
Q 22.953125 48.484375 18.875 42.84375 
Q 14.796875 37.203125 14.796875 27.296875 
z
" id="DejaVuSans-100"/>
     <path d="M 9.421875 54.6875 
L 18.40625 54.6875 
L 18.40625 0 
L 9.421875 0 
z
M 9.421875 75.984375 
L 18.40625 75.984375 
L 18.40625 64.59375 
L 9.421875 64.59375 
z
" id="DejaVuSans-105"/>
     <path d="M 44.28125 53.078125 
L 44.28125 44.578125 
Q 40.484375 46.53125 36.375 47.5 
Q 32.28125 48.484375 27.875 48.484375 
Q 21.1875 48.484375 17.84375 46.4375 
Q 14.5 44.390625 14.5 40.28125 
Q 14.5 37.15625 16.890625 35.375 
Q 19.28125 33.59375 26.515625 31.984375 
L 29.59375 31.296875 
Q 39.15625 29.25 43.1875 25.515625 
Q 47.21875 21.78125 47.21875 15.09375 
Q 47.21875 7.46875 41.1875 3.015625 
Q 35.15625 -1.421875 24.609375 -1.421875 
Q 20.21875 -1.421875 15.453125 -0.5625 
Q 10.6875 0.296875 5.421875 2 
L 5.421875 11.28125 
Q 10.40625 8.6875 15.234375 7.390625 
Q 20.0625 6.109375 24.8125 6.109375 
Q 31.15625 6.109375 34.5625 8.28125 
Q 37.984375 10.453125 37.984375 14.40625 
Q 37.984375 18.0625 35.515625 20.015625 
Q 33.0625 21.96875 24.703125 23.78125 
L 21.578125 24.515625 
Q 13.234375 26.265625 9.515625 29.90625 
Q 5.8125 33.546875 5.8125 39.890625 
Q 5.8125 47.609375 11.28125 51.796875 
Q 16.75 56 26.8125 56 
Q 31.78125 56 36.171875 55.265625 
Q 40.578125 54.546875 44.28125 53.078125 
z
" id="DejaVuSans-115"/>
     <path d="M 18.3125 70.21875 
L 18.3125 54.6875 
L 36.8125 54.6875 
L 36.8125 47.703125 
L 18.3125 47.703125 
L 18.3125 18.015625 
Q 18.3125 11.328125 20.140625 9.421875 
Q 21.96875 7.515625 27.59375 7.515625 
L 36.8125 7.515625 
L 36.8125 0 
L 27.59375 0 
Q 17.1875 0 13.234375 3.875 
Q 9.28125 7.765625 9.28125 18.015625 
L 9.28125 47.703125 
L 2.6875 47.703125 
L 2.6875 54.6875 
L 9.28125 54.6875 
L 9.28125 70.21875 
z
" id="DejaVuSans-116"/>
     <path d="M 10.6875 12.40625 
L 21 12.40625 
L 21 0 
L 10.6875 0 
z
" id="DejaVuSans-46"/>
     <path d="M 11.71875 12.40625 
L 22.015625 12.40625 
L 22.015625 4 
L 14.015625 -11.625 
L 7.71875 -11.625 
L 11.71875 4 
z
" id="DejaVuSans-44"/>
     <path d="M 37.109375 75.984375 
L 37.109375 68.5 
L 28.515625 68.5 
Q 23.6875 68.5 21.796875 66.546875 
Q 19.921875 64.59375 19.921875 59.515625 
L 19.921875 54.6875 
L 34.71875 54.6875 
L 34.71875 47.703125 
L 19.921875 47.703125 
L 19.921875 0 
L 10.890625 0 
L 10.890625 47.703125 
L 2.296875 47.703125 
L 2.296875 54.6875 
L 10.890625 54.6875 
L 10.890625 58.5 
Q 10.890625 67.625 15.140625 71.796875 
Q 19.390625 75.984375 28.609375 75.984375 
z
" id="DejaVuSans-102"/>
     <path d="M 25.390625 72.90625 
L 33.6875 72.90625 
L 8.296875 -9.28125 
L 0 -9.28125 
z
" id="DejaVuSans-47"/>
    </defs>
    <g transform="translate(35.304688 672.558437)scale(0.1 -0.1)">
     <use xlink:href="#DejaVuSans-65"/>
     <use x="62.533203" xlink:href="#DejaVuSans-118"/>
     <use x="121.712891" xlink:href="#DejaVuSans-101"/>
     <use x="183.236328" xlink:href="#DejaVuSans-114"/>
     <use x="224.349609" xlink:href="#DejaVuSans-97"/>
     <use x="285.628906" xlink:href="#DejaVuSans-103"/>
     <use x="349.105469" xlink:href="#DejaVuSans-101"/>
     <use x="410.628906" xlink:href="#DejaVuSans-32"/>
     <use x="442.416016" xlink:href="#DejaVuSans-112"/>
     <use x="505.892578" xlink:href="#DejaVuSans-101"/>
     <use x="567.416016" xlink:href="#DejaVuSans-111"/>
     <use x="628.597656" xlink:href="#DejaVuSans-112"/>
     <use x="692.074219" xlink:href="#DejaVuSans-108"/>
     <use x="719.857422" xlink:href="#DejaVuSans-101"/>
     <use x="781.380859" xlink:href="#DejaVuSans-32"/>
     <use x="813.167969" xlink:href="#DejaVuSans-117"/>
     <use x="876.546875" xlink:href="#DejaVuSans-110"/>
     <use x="939.925781" xlink:href="#DejaVuSans-100"/>
     <use x="1003.402344" xlink:href="#DejaVuSans-101"/>
     <use x="1064.925781" xlink:href="#DejaVuSans-114"/>
     <use x="1106.039062" xlink:href="#DejaVuSans-32"/>
     <use x="1137.826172" xlink:href="#DejaVuSans-105"/>
     <use x="1165.609375" xlink:href="#DejaVuSans-110"/>
     <use x="1228.988281" xlink:href="#DejaVuSans-118"/>
     <use x="1288.167969" xlink:href="#DejaVuSans-101"/>
     <use x="1349.691406" xlink:href="#DejaVuSans-115"/>
     <use x="1401.791016" xlink:href="#DejaVuSans-116"/>
     <use x="1441" xlink:href="#DejaVuSans-105"/>
     <use x="1468.783203" xlink:href="#DejaVuSans-103"/>
     <use x="1532.259766" xlink:href="#DejaVuSans-97"/>
     <use x="1593.539062" xlink:href="#DejaVuSans-116"/>
     <use x="1632.748047" xlink:href="#DejaVuSans-105"/>
     <use x="1660.53125" xlink:href="#DejaVuSans-111"/>
     <use x="1721.712891" xlink:href="#DejaVuSans-110"/>
     <use x="1785.091797" xlink:href="#DejaVuSans-32"/>
     <use x="1816.878906" xlink:href="#DejaVuSans-112"/>
     <use x="1880.355469" xlink:href="#DejaVuSans-101"/>
     <use x="1941.878906" xlink:href="#DejaVuSans-114"/>
     <use x="1982.992188" xlink:href="#DejaVuSans-32"/>
     <use x="2014.779297" xlink:href="#DejaVuSans-114"/>
     <use x="2053.642578" xlink:href="#DejaVuSans-101"/>
     <use x="2115.166016" xlink:href="#DejaVuSans-103"/>
     <use x="2178.642578" xlink:href="#DejaVuSans-105"/>
     <use x="2206.425781" xlink:href="#DejaVuSans-111"/>
     <use x="2267.607422" xlink:href="#DejaVuSans-110"/>
     <use x="2330.986328" xlink:href="#DejaVuSans-32"/>
     <use x="2362.773438" xlink:href="#DejaVuSans-105"/>
     <use x="2390.556641" xlink:href="#DejaVuSans-115"/>
     <use x="2442.65625" xlink:href="#DejaVuSans-32"/>
     <use x="2474.443359" xlink:href="#DejaVuSans-49"/>
     <use x="2538.066406" xlink:href="#DejaVuSans-49"/>
     <use x="2601.689453" xlink:href="#DejaVuSans-53"/>
     <use x="2665.3125" xlink:href="#DejaVuSans-46"/>
     <use x="2697.099609" xlink:href="#DejaVuSans-55"/>
     <use x="2760.722656" xlink:href="#DejaVuSans-49"/>
     <use x="2824.345703" xlink:href="#DejaVuSans-32"/>
     <use x="2856.132812" xlink:href="#DejaVuSans-44"/>
     <use x="2887.919922" xlink:href="#DejaVuSans-32"/>
     <use x="2919.707031" xlink:href="#DejaVuSans-112"/>
     <use x="2983.183594" xlink:href="#DejaVuSans-101"/>
     <use x="3044.707031" xlink:href="#DejaVuSans-111"/>
     <use x="3105.888672" xlink:href="#DejaVuSans-112"/>
     <use x="3169.365234" xlink:href="#DejaVuSans-108"/>
     <use x="3197.148438" xlink:href="#DejaVuSans-101"/>
     <use x="3258.671875" xlink:href="#DejaVuSans-32"/>
     <use x="3290.458984" xlink:href="#DejaVuSans-97"/>
     <use x="3351.738281" xlink:href="#DejaVuSans-115"/>
     <use x="3403.837891" xlink:href="#DejaVuSans-32"/>
     <use x="3435.625" xlink:href="#DejaVuSans-111"/>
     <use x="3496.806641" xlink:href="#DejaVuSans-102"/>
     <use x="3532.011719" xlink:href="#DejaVuSans-32"/>
     <use x="3563.798828" xlink:href="#DejaVuSans-50"/>
     <use x="3627.421875" xlink:href="#DejaVuSans-49"/>
     <use x="3691.044922" xlink:href="#DejaVuSans-47"/>
     <use x="3724.736328" xlink:href="#DejaVuSans-48"/>
     <use x="3788.359375" xlink:href="#DejaVuSans-52"/>
     <use x="3851.982422" xlink:href="#DejaVuSans-47"/>
     <use x="3885.673828" xlink:href="#DejaVuSans-50"/>
     <use x="3949.296875" xlink:href="#DejaVuSans-48"/>
     <use x="4012.919922" xlink:href="#DejaVuSans-50"/>
     <use x="4076.542969" xlink:href="#DejaVuSans-48"/>
     <use x="4140.166016" xlink:href="#DejaVuSans-32"/>
     <use x="4171.953125" xlink:href="#DejaVuSans-46"/>
    </g>
   </g>
   <g id="text_52">
    <!-- People under Investigation as of 21/04/2020 -->
    <defs>
     <path d="M 19.671875 64.796875 
L 19.671875 37.40625 
L 32.078125 37.40625 
Q 38.96875 37.40625 42.71875 40.96875 
Q 46.484375 44.53125 46.484375 51.125 
Q 46.484375 57.671875 42.71875 61.234375 
Q 38.96875 64.796875 32.078125 64.796875 
z
M 9.8125 72.90625 
L 32.078125 72.90625 
Q 44.34375 72.90625 50.609375 67.359375 
Q 56.890625 61.8125 56.890625 51.125 
Q 56.890625 40.328125 50.609375 34.8125 
Q 44.34375 29.296875 32.078125 29.296875 
L 19.671875 29.296875 
L 19.671875 0 
L 9.8125 0 
z
" id="DejaVuSans-80"/>
     <path d="M 9.8125 72.90625 
L 19.671875 72.90625 
L 19.671875 0 
L 9.8125 0 
z
" id="DejaVuSans-73"/>
    </defs>
    <g transform="translate(41.659063 16.318125)scale(0.12 -0.12)">
     <use xlink:href="#DejaVuSans-80"/>
     <use x="56.677734" xlink:href="#DejaVuSans-101"/>
     <use x="118.201172" xlink:href="#DejaVuSans-111"/>
     <use x="179.382812" xlink:href="#DejaVuSans-112"/>
     <use x="242.859375" xlink:href="#DejaVuSans-108"/>
     <use x="270.642578" xlink:href="#DejaVuSans-101"/>
     <use x="332.166016" xlink:href="#DejaVuSans-32"/>
     <use x="363.953125" xlink:href="#DejaVuSans-117"/>
     <use x="427.332031" xlink:href="#DejaVuSans-110"/>
     <use x="490.710938" xlink:href="#DejaVuSans-100"/>
     <use x="554.1875" xlink:href="#DejaVuSans-101"/>
     <use x="615.710938" xlink:href="#DejaVuSans-114"/>
     <use x="656.824219" xlink:href="#DejaVuSans-32"/>
     <use x="688.611328" xlink:href="#DejaVuSans-73"/>
     <use x="718.103516" xlink:href="#DejaVuSans-110"/>
     <use x="781.482422" xlink:href="#DejaVuSans-118"/>
     <use x="840.662109" xlink:href="#DejaVuSans-101"/>
     <use x="902.185547" xlink:href="#DejaVuSans-115"/>
     <use x="954.285156" xlink:href="#DejaVuSans-116"/>
     <use x="993.494141" xlink:href="#DejaVuSans-105"/>
     <use x="1021.277344" xlink:href="#DejaVuSans-103"/>
     <use x="1084.753906" xlink:href="#DejaVuSans-97"/>
     <use x="1146.033203" xlink:href="#DejaVuSans-116"/>
     <use x="1185.242188" xlink:href="#DejaVuSans-105"/>
     <use x="1213.025391" xlink:href="#DejaVuSans-111"/>
     <use x="1274.207031" xlink:href="#DejaVuSans-110"/>
     <use x="1337.585938" xlink:href="#DejaVuSans-32"/>
     <use x="1369.373047" xlink:href="#DejaVuSans-97"/>
     <use x="1430.652344" xlink:href="#DejaVuSans-115"/>
     <use x="1482.751953" xlink:href="#DejaVuSans-32"/>
     <use x="1514.539062" xlink:href="#DejaVuSans-111"/>
     <use x="1575.720703" xlink:href="#DejaVuSans-102"/>
     <use x="1610.925781" xlink:href="#DejaVuSans-32"/>
     <use x="1642.712891" xlink:href="#DejaVuSans-50"/>
     <use x="1706.335938" xlink:href="#DejaVuSans-49"/>
     <use x="1769.958984" xlink:href="#DejaVuSans-47"/>
     <use x="1803.650391" xlink:href="#DejaVuSans-48"/>
     <use x="1867.273438" xlink:href="#DejaVuSans-52"/>
     <use x="1930.896484" xlink:href="#DejaVuSans-47"/>
     <use x="1964.587891" xlink:href="#DejaVuSans-50"/>
     <use x="2028.210938" xlink:href="#DejaVuSans-48"/>
     <use x="2091.833984" xlink:href="#DejaVuSans-50"/>
     <use x="2155.457031" xlink:href="#DejaVuSans-48"/>
    </g>
   </g>
   <g id="legend_1">
    <g id="patch_7">
     <path d="M 321.304688 294.524375 
L 439.21875 294.524375 
Q 441.21875 294.524375 441.21875 292.524375 
L 441.21875 29.318125 
Q 441.21875 27.318125 439.21875 27.318125 
L 321.304688 27.318125 
Q 319.304688 27.318125 319.304688 29.318125 
L 319.304688 292.524375 
Q 319.304688 294.524375 321.304688 294.524375 
z
" style="fill:#ffffff;opacity:0.8;stroke:#cccccc;stroke-linejoin:miter;"/>
    </g>
    <g id="line2d_119">
     <path d="M 323.304688 35.416562 
L 343.304688 35.416562 
" style="fill:none;stroke:#f08080;stroke-linecap:square;stroke-width:1.5;"/>
    </g>
    <g id="line2d_120"/>
    <g id="text_53">
     <!-- Kachin -->
     <defs>
      <path d="M 9.8125 72.90625 
L 19.671875 72.90625 
L 19.671875 42.09375 
L 52.390625 72.90625 
L 65.09375 72.90625 
L 28.90625 38.921875 
L 67.671875 0 
L 54.6875 0 
L 19.671875 35.109375 
L 19.671875 0 
L 9.8125 0 
z
" id="DejaVuSans-75"/>
      <path d="M 48.78125 52.59375 
L 48.78125 44.1875 
Q 44.96875 46.296875 41.140625 47.34375 
Q 37.3125 48.390625 33.40625 48.390625 
Q 24.65625 48.390625 19.8125 42.84375 
Q 14.984375 37.3125 14.984375 27.296875 
Q 14.984375 17.28125 19.8125 11.734375 
Q 24.65625 6.203125 33.40625 6.203125 
Q 37.3125 6.203125 41.140625 7.25 
Q 44.96875 8.296875 48.78125 10.40625 
L 48.78125 2.09375 
Q 45.015625 0.34375 40.984375 -0.53125 
Q 36.96875 -1.421875 32.421875 -1.421875 
Q 20.0625 -1.421875 12.78125 6.34375 
Q 5.515625 14.109375 5.515625 27.296875 
Q 5.515625 40.671875 12.859375 48.328125 
Q 20.21875 56 33.015625 56 
Q 37.15625 56 41.109375 55.140625 
Q 45.0625 54.296875 48.78125 52.59375 
z
" id="DejaVuSans-99"/>
      <path d="M 54.890625 33.015625 
L 54.890625 0 
L 45.90625 0 
L 45.90625 32.71875 
Q 45.90625 40.484375 42.875 44.328125 
Q 39.84375 48.1875 33.796875 48.1875 
Q 26.515625 48.1875 22.3125 43.546875 
Q 18.109375 38.921875 18.109375 30.90625 
L 18.109375 0 
L 9.078125 0 
L 9.078125 75.984375 
L 18.109375 75.984375 
L 18.109375 46.1875 
Q 21.34375 51.125 25.703125 53.5625 
Q 30.078125 56 35.796875 56 
Q 45.21875 56 50.046875 50.171875 
Q 54.890625 44.34375 54.890625 33.015625 
z
" id="DejaVuSans-104"/>
     </defs>
     <g transform="translate(351.304688 38.916562)scale(0.1 -0.1)">
      <use xlink:href="#DejaVuSans-75"/>
      <use x="63.826172" xlink:href="#DejaVuSans-97"/>
      <use x="125.105469" xlink:href="#DejaVuSans-99"/>
      <use x="180.085938" xlink:href="#DejaVuSans-104"/>
      <use x="243.464844" xlink:href="#DejaVuSans-105"/>
      <use x="271.248047" xlink:href="#DejaVuSans-110"/>
     </g>
    </g>
    <g id="line2d_121">
     <path d="M 323.304688 50.094687 
L 343.304688 50.094687 
" style="fill:none;stroke:#ff8c00;stroke-linecap:square;stroke-width:1.5;"/>
    </g>
    <g id="line2d_122"/>
    <g id="text_54">
     <!-- Kayar -->
     <defs>
      <path d="M 32.171875 -5.078125 
Q 28.375 -14.84375 24.75 -17.8125 
Q 21.140625 -20.796875 15.09375 -20.796875 
L 7.90625 -20.796875 
L 7.90625 -13.28125 
L 13.1875 -13.28125 
Q 16.890625 -13.28125 18.9375 -11.515625 
Q 21 -9.765625 23.484375 -3.21875 
L 25.09375 0.875 
L 2.984375 54.6875 
L 12.5 54.6875 
L 29.59375 11.921875 
L 46.6875 54.6875 
L 56.203125 54.6875 
z
" id="DejaVuSans-121"/>
     </defs>
     <g transform="translate(351.304688 53.594687)scale(0.1 -0.1)">
      <use xlink:href="#DejaVuSans-75"/>
      <use x="63.826172" xlink:href="#DejaVuSans-97"/>
      <use x="125.105469" xlink:href="#DejaVuSans-121"/>
      <use x="184.285156" xlink:href="#DejaVuSans-97"/>
      <use x="245.564453" xlink:href="#DejaVuSans-114"/>
     </g>
    </g>
    <g id="line2d_123">
     <path d="M 323.304688 64.772812 
L 343.304688 64.772812 
" style="fill:none;stroke:#fafad2;stroke-linecap:square;stroke-width:1.5;"/>
    </g>
    <g id="line2d_124"/>
    <g id="text_55">
     <!-- Kayin -->
     <g transform="translate(351.304688 68.272812)scale(0.1 -0.1)">
      <use xlink:href="#DejaVuSans-75"/>
      <use x="63.826172" xlink:href="#DejaVuSans-97"/>
      <use x="125.105469" xlink:href="#DejaVuSans-121"/>
      <use x="184.285156" xlink:href="#DejaVuSans-105"/>
      <use x="212.068359" xlink:href="#DejaVuSans-110"/>
     </g>
    </g>
    <g id="line2d_125">
     <path d="M 323.304688 79.450937 
L 343.304688 79.450937 
" style="fill:none;stroke:#ffdab9;stroke-linecap:square;stroke-width:1.5;"/>
    </g>
    <g id="line2d_126"/>
    <g id="text_56">
     <!-- Chin -->
     <defs>
      <path d="M 64.40625 67.28125 
L 64.40625 56.890625 
Q 59.421875 61.53125 53.78125 63.8125 
Q 48.140625 66.109375 41.796875 66.109375 
Q 29.296875 66.109375 22.65625 58.46875 
Q 16.015625 50.828125 16.015625 36.375 
Q 16.015625 21.96875 22.65625 14.328125 
Q 29.296875 6.6875 41.796875 6.6875 
Q 48.140625 6.6875 53.78125 8.984375 
Q 59.421875 11.28125 64.40625 15.921875 
L 64.40625 5.609375 
Q 59.234375 2.09375 53.4375 0.328125 
Q 47.65625 -1.421875 41.21875 -1.421875 
Q 24.65625 -1.421875 15.125 8.703125 
Q 5.609375 18.84375 5.609375 36.375 
Q 5.609375 53.953125 15.125 64.078125 
Q 24.65625 74.21875 41.21875 74.21875 
Q 47.75 74.21875 53.53125 72.484375 
Q 59.328125 70.75 64.40625 67.28125 
z
" id="DejaVuSans-67"/>
     </defs>
     <g transform="translate(351.304688 82.950937)scale(0.1 -0.1)">
      <use xlink:href="#DejaVuSans-67"/>
      <use x="69.824219" xlink:href="#DejaVuSans-104"/>
      <use x="133.203125" xlink:href="#DejaVuSans-105"/>
      <use x="160.986328" xlink:href="#DejaVuSans-110"/>
     </g>
    </g>
    <g id="line2d_127">
     <path d="M 323.304688 94.129063 
L 343.304688 94.129063 
" style="fill:none;stroke:#dda0dd;stroke-linecap:square;stroke-width:1.5;"/>
    </g>
    <g id="line2d_128"/>
    <g id="text_57">
     <!-- Mon -->
     <defs>
      <path d="M 9.8125 72.90625 
L 24.515625 72.90625 
L 43.109375 23.296875 
L 61.8125 72.90625 
L 76.515625 72.90625 
L 76.515625 0 
L 66.890625 0 
L 66.890625 64.015625 
L 48.09375 14.015625 
L 38.1875 14.015625 
L 19.390625 64.015625 
L 19.390625 0 
L 9.8125 0 
z
" id="DejaVuSans-77"/>
     </defs>
     <g transform="translate(351.304688 97.629063)scale(0.1 -0.1)">
      <use xlink:href="#DejaVuSans-77"/>
      <use x="86.279297" xlink:href="#DejaVuSans-111"/>
      <use x="147.460938" xlink:href="#DejaVuSans-110"/>
     </g>
    </g>
    <g id="line2d_129">
     <path d="M 323.304688 108.807187 
L 343.304688 108.807187 
" style="fill:none;stroke:#9370db;stroke-linecap:square;stroke-width:1.5;"/>
    </g>
    <g id="line2d_130"/>
    <g id="text_58">
     <!-- Rakhine -->
     <defs>
      <path d="M 44.390625 34.1875 
Q 47.5625 33.109375 50.5625 29.59375 
Q 53.5625 26.078125 56.59375 19.921875 
L 66.609375 0 
L 56 0 
L 46.6875 18.703125 
Q 43.0625 26.03125 39.671875 28.421875 
Q 36.28125 30.8125 30.421875 30.8125 
L 19.671875 30.8125 
L 19.671875 0 
L 9.8125 0 
L 9.8125 72.90625 
L 32.078125 72.90625 
Q 44.578125 72.90625 50.734375 67.671875 
Q 56.890625 62.453125 56.890625 51.90625 
Q 56.890625 45.015625 53.6875 40.46875 
Q 50.484375 35.9375 44.390625 34.1875 
z
M 19.671875 64.796875 
L 19.671875 38.921875 
L 32.078125 38.921875 
Q 39.203125 38.921875 42.84375 42.21875 
Q 46.484375 45.515625 46.484375 51.90625 
Q 46.484375 58.296875 42.84375 61.546875 
Q 39.203125 64.796875 32.078125 64.796875 
z
" id="DejaVuSans-82"/>
      <path d="M 9.078125 75.984375 
L 18.109375 75.984375 
L 18.109375 31.109375 
L 44.921875 54.6875 
L 56.390625 54.6875 
L 27.390625 29.109375 
L 57.625 0 
L 45.90625 0 
L 18.109375 26.703125 
L 18.109375 0 
L 9.078125 0 
z
" id="DejaVuSans-107"/>
     </defs>
     <g transform="translate(351.304688 112.307187)scale(0.1 -0.1)">
      <use xlink:href="#DejaVuSans-82"/>
      <use x="67.232422" xlink:href="#DejaVuSans-97"/>
      <use x="128.511719" xlink:href="#DejaVuSans-107"/>
      <use x="186.421875" xlink:href="#DejaVuSans-104"/>
      <use x="249.800781" xlink:href="#DejaVuSans-105"/>
      <use x="277.583984" xlink:href="#DejaVuSans-110"/>
      <use x="340.962891" xlink:href="#DejaVuSans-101"/>
     </g>
    </g>
    <g id="line2d_131">
     <path d="M 323.304688 123.485312 
L 343.304688 123.485312 
" style="fill:none;stroke:#800080;stroke-linecap:square;stroke-width:1.5;"/>
    </g>
    <g id="line2d_132"/>
    <g id="text_59">
     <!-- Shan (S) -->
     <defs>
      <path d="M 53.515625 70.515625 
L 53.515625 60.890625 
Q 47.90625 63.578125 42.921875 64.890625 
Q 37.9375 66.21875 33.296875 66.21875 
Q 25.25 66.21875 20.875 63.09375 
Q 16.5 59.96875 16.5 54.203125 
Q 16.5 49.359375 19.40625 46.890625 
Q 22.3125 44.4375 30.421875 42.921875 
L 36.375 41.703125 
Q 47.40625 39.59375 52.65625 34.296875 
Q 57.90625 29 57.90625 20.125 
Q 57.90625 9.515625 50.796875 4.046875 
Q 43.703125 -1.421875 29.984375 -1.421875 
Q 24.8125 -1.421875 18.96875 -0.25 
Q 13.140625 0.921875 6.890625 3.21875 
L 6.890625 13.375 
Q 12.890625 10.015625 18.65625 8.296875 
Q 24.421875 6.59375 29.984375 6.59375 
Q 38.421875 6.59375 43.015625 9.90625 
Q 47.609375 13.234375 47.609375 19.390625 
Q 47.609375 24.75 44.3125 27.78125 
Q 41.015625 30.8125 33.5 32.328125 
L 27.484375 33.5 
Q 16.453125 35.6875 11.515625 40.375 
Q 6.59375 45.0625 6.59375 53.421875 
Q 6.59375 63.09375 13.40625 68.65625 
Q 20.21875 74.21875 32.171875 74.21875 
Q 37.3125 74.21875 42.625 73.28125 
Q 47.953125 72.359375 53.515625 70.515625 
z
" id="DejaVuSans-83"/>
      <path d="M 31 75.875 
Q 24.46875 64.65625 21.28125 53.65625 
Q 18.109375 42.671875 18.109375 31.390625 
Q 18.109375 20.125 21.3125 9.0625 
Q 24.515625 -2 31 -13.1875 
L 23.1875 -13.1875 
Q 15.875 -1.703125 12.234375 9.375 
Q 8.59375 20.453125 8.59375 31.390625 
Q 8.59375 42.28125 12.203125 53.3125 
Q 15.828125 64.359375 23.1875 75.875 
z
" id="DejaVuSans-40"/>
      <path d="M 8.015625 75.875 
L 15.828125 75.875 
Q 23.140625 64.359375 26.78125 53.3125 
Q 30.421875 42.28125 30.421875 31.390625 
Q 30.421875 20.453125 26.78125 9.375 
Q 23.140625 -1.703125 15.828125 -13.1875 
L 8.015625 -13.1875 
Q 14.5 -2 17.703125 9.0625 
Q 20.90625 20.125 20.90625 31.390625 
Q 20.90625 42.671875 17.703125 53.65625 
Q 14.5 64.65625 8.015625 75.875 
z
" id="DejaVuSans-41"/>
     </defs>
     <g transform="translate(351.304688 126.985312)scale(0.1 -0.1)">
      <use xlink:href="#DejaVuSans-83"/>
      <use x="63.476562" xlink:href="#DejaVuSans-104"/>
      <use x="126.855469" xlink:href="#DejaVuSans-97"/>
      <use x="188.134766" xlink:href="#DejaVuSans-110"/>
      <use x="251.513672" xlink:href="#DejaVuSans-32"/>
      <use x="283.300781" xlink:href="#DejaVuSans-40"/>
      <use x="322.314453" xlink:href="#DejaVuSans-83"/>
      <use x="385.791016" xlink:href="#DejaVuSans-41"/>
     </g>
    </g>
    <g id="line2d_133">
     <path d="M 323.304688 138.163437 
L 343.304688 138.163437 
" style="fill:none;stroke:#7fff00;stroke-linecap:square;stroke-width:1.5;"/>
    </g>
    <g id="line2d_134"/>
    <g id="text_60">
     <!-- Shan (N) -->
     <defs>
      <path d="M 9.8125 72.90625 
L 23.09375 72.90625 
L 55.421875 11.921875 
L 55.421875 72.90625 
L 64.984375 72.90625 
L 64.984375 0 
L 51.703125 0 
L 19.390625 60.984375 
L 19.390625 0 
L 9.8125 0 
z
" id="DejaVuSans-78"/>
     </defs>
     <g transform="translate(351.304688 141.663437)scale(0.1 -0.1)">
      <use xlink:href="#DejaVuSans-83"/>
      <use x="63.476562" xlink:href="#DejaVuSans-104"/>
      <use x="126.855469" xlink:href="#DejaVuSans-97"/>
      <use x="188.134766" xlink:href="#DejaVuSans-110"/>
      <use x="251.513672" xlink:href="#DejaVuSans-32"/>
      <use x="283.300781" xlink:href="#DejaVuSans-40"/>
      <use x="322.314453" xlink:href="#DejaVuSans-78"/>
      <use x="397.119141" xlink:href="#DejaVuSans-41"/>
     </g>
    </g>
    <g id="line2d_135">
     <path d="M 323.304688 152.841562 
L 343.304688 152.841562 
" style="fill:none;stroke:#00fa9a;stroke-linecap:square;stroke-width:1.5;"/>
    </g>
    <g id="line2d_136"/>
    <g id="text_61">
     <!-- Shan (E) -->
     <defs>
      <path d="M 9.8125 72.90625 
L 55.90625 72.90625 
L 55.90625 64.59375 
L 19.671875 64.59375 
L 19.671875 43.015625 
L 54.390625 43.015625 
L 54.390625 34.71875 
L 19.671875 34.71875 
L 19.671875 8.296875 
L 56.78125 8.296875 
L 56.78125 0 
L 9.8125 0 
z
" id="DejaVuSans-69"/>
     </defs>
     <g transform="translate(351.304688 156.341562)scale(0.1 -0.1)">
      <use xlink:href="#DejaVuSans-83"/>
      <use x="63.476562" xlink:href="#DejaVuSans-104"/>
      <use x="126.855469" xlink:href="#DejaVuSans-97"/>
      <use x="188.134766" xlink:href="#DejaVuSans-110"/>
      <use x="251.513672" xlink:href="#DejaVuSans-32"/>
      <use x="283.300781" xlink:href="#DejaVuSans-40"/>
      <use x="322.314453" xlink:href="#DejaVuSans-69"/>
      <use x="385.498047" xlink:href="#DejaVuSans-41"/>
     </g>
    </g>
    <g id="line2d_137">
     <path d="M 323.304688 167.519687 
L 343.304688 167.519687 
" style="fill:none;stroke:#008000;stroke-linecap:square;stroke-width:1.5;"/>
    </g>
    <g id="line2d_138"/>
    <g id="text_62">
     <!-- Sagaing -->
     <g transform="translate(351.304688 171.019687)scale(0.1 -0.1)">
      <use xlink:href="#DejaVuSans-83"/>
      <use x="63.476562" xlink:href="#DejaVuSans-97"/>
      <use x="124.755859" xlink:href="#DejaVuSans-103"/>
      <use x="188.232422" xlink:href="#DejaVuSans-97"/>
      <use x="249.511719" xlink:href="#DejaVuSans-105"/>
      <use x="277.294922" xlink:href="#DejaVuSans-110"/>
      <use x="340.673828" xlink:href="#DejaVuSans-103"/>
     </g>
    </g>
    <g id="line2d_139">
     <path d="M 323.304688 182.197812 
L 343.304688 182.197812 
" style="fill:none;stroke:#00ffff;stroke-linecap:square;stroke-width:1.5;"/>
    </g>
    <g id="line2d_140"/>
    <g id="text_63">
     <!-- Mandalay -->
     <g transform="translate(351.304688 185.697812)scale(0.1 -0.1)">
      <use xlink:href="#DejaVuSans-77"/>
      <use x="86.279297" xlink:href="#DejaVuSans-97"/>
      <use x="147.558594" xlink:href="#DejaVuSans-110"/>
      <use x="210.9375" xlink:href="#DejaVuSans-100"/>
      <use x="274.414062" xlink:href="#DejaVuSans-97"/>
      <use x="335.693359" xlink:href="#DejaVuSans-108"/>
      <use x="363.476562" xlink:href="#DejaVuSans-97"/>
      <use x="424.755859" xlink:href="#DejaVuSans-121"/>
     </g>
    </g>
    <g id="line2d_141">
     <path d="M 323.304688 196.875937 
L 343.304688 196.875937 
" style="fill:none;stroke:#48d1cc;stroke-linecap:square;stroke-width:1.5;"/>
    </g>
    <g id="line2d_142"/>
    <g id="text_64">
     <!-- Magway -->
     <defs>
      <path d="M 4.203125 54.6875 
L 13.1875 54.6875 
L 24.421875 12.015625 
L 35.59375 54.6875 
L 46.1875 54.6875 
L 57.421875 12.015625 
L 68.609375 54.6875 
L 77.59375 54.6875 
L 63.28125 0 
L 52.6875 0 
L 40.921875 44.828125 
L 29.109375 0 
L 18.5 0 
z
" id="DejaVuSans-119"/>
     </defs>
     <g transform="translate(351.304688 200.375937)scale(0.1 -0.1)">
      <use xlink:href="#DejaVuSans-77"/>
      <use x="86.279297" xlink:href="#DejaVuSans-97"/>
      <use x="147.558594" xlink:href="#DejaVuSans-103"/>
      <use x="211.035156" xlink:href="#DejaVuSans-119"/>
      <use x="292.822266" xlink:href="#DejaVuSans-97"/>
      <use x="354.101562" xlink:href="#DejaVuSans-121"/>
     </g>
    </g>
    <g id="line2d_143">
     <path d="M 323.304688 211.554062 
L 343.304688 211.554062 
" style="fill:none;stroke:#b0e0e6;stroke-linecap:square;stroke-width:1.5;"/>
    </g>
    <g id="line2d_144"/>
    <g id="text_65">
     <!-- Bago -->
     <defs>
      <path d="M 19.671875 34.8125 
L 19.671875 8.109375 
L 35.5 8.109375 
Q 43.453125 8.109375 47.28125 11.40625 
Q 51.125 14.703125 51.125 21.484375 
Q 51.125 28.328125 47.28125 31.5625 
Q 43.453125 34.8125 35.5 34.8125 
z
M 19.671875 64.796875 
L 19.671875 42.828125 
L 34.28125 42.828125 
Q 41.5 42.828125 45.03125 45.53125 
Q 48.578125 48.25 48.578125 53.8125 
Q 48.578125 59.328125 45.03125 62.0625 
Q 41.5 64.796875 34.28125 64.796875 
z
M 9.8125 72.90625 
L 35.015625 72.90625 
Q 46.296875 72.90625 52.390625 68.21875 
Q 58.5 63.53125 58.5 54.890625 
Q 58.5 48.1875 55.375 44.234375 
Q 52.25 40.28125 46.1875 39.3125 
Q 53.46875 37.75 57.5 32.78125 
Q 61.53125 27.828125 61.53125 20.40625 
Q 61.53125 10.640625 54.890625 5.3125 
Q 48.25 0 35.984375 0 
L 9.8125 0 
z
" id="DejaVuSans-66"/>
     </defs>
     <g transform="translate(351.304688 215.054062)scale(0.1 -0.1)">
      <use xlink:href="#DejaVuSans-66"/>
      <use x="68.603516" xlink:href="#DejaVuSans-97"/>
      <use x="129.882812" xlink:href="#DejaVuSans-103"/>
      <use x="193.359375" xlink:href="#DejaVuSans-111"/>
     </g>
    </g>
    <g id="line2d_145">
     <path d="M 323.304688 226.232187 
L 343.304688 226.232187 
" style="fill:none;stroke:#6495ed;stroke-linecap:square;stroke-width:1.5;"/>
    </g>
    <g id="line2d_146"/>
    <g id="text_66">
     <!-- Yangon -->
     <defs>
      <path d="M -0.203125 72.90625 
L 10.40625 72.90625 
L 30.609375 42.921875 
L 50.6875 72.90625 
L 61.28125 72.90625 
L 35.5 34.71875 
L 35.5 0 
L 25.59375 0 
L 25.59375 34.71875 
z
" id="DejaVuSans-89"/>
     </defs>
     <g transform="translate(351.304688 229.732187)scale(0.1 -0.1)">
      <use xlink:href="#DejaVuSans-89"/>
      <use x="47.333984" xlink:href="#DejaVuSans-97"/>
      <use x="108.613281" xlink:href="#DejaVuSans-110"/>
      <use x="171.992188" xlink:href="#DejaVuSans-103"/>
      <use x="235.46875" xlink:href="#DejaVuSans-111"/>
      <use x="296.650391" xlink:href="#DejaVuSans-110"/>
     </g>
    </g>
    <g id="line2d_147">
     <path d="M 323.304688 240.910312 
L 343.304688 240.910312 
" style="fill:none;stroke:#000080;stroke-linecap:square;stroke-width:1.5;"/>
    </g>
    <g id="line2d_148"/>
    <g id="text_67">
     <!-- Ayeyarwaddy -->
     <g transform="translate(351.304688 244.410312)scale(0.1 -0.1)">
      <use xlink:href="#DejaVuSans-65"/>
      <use x="61.658203" xlink:href="#DejaVuSans-121"/>
      <use x="120.837891" xlink:href="#DejaVuSans-101"/>
      <use x="182.361328" xlink:href="#DejaVuSans-121"/>
      <use x="241.541016" xlink:href="#DejaVuSans-97"/>
      <use x="302.820312" xlink:href="#DejaVuSans-114"/>
      <use x="343.933594" xlink:href="#DejaVuSans-119"/>
      <use x="425.720703" xlink:href="#DejaVuSans-97"/>
      <use x="487" xlink:href="#DejaVuSans-100"/>
      <use x="550.476562" xlink:href="#DejaVuSans-100"/>
      <use x="613.953125" xlink:href="#DejaVuSans-121"/>
     </g>
    </g>
    <g id="line2d_149">
     <path d="M 323.304688 255.588437 
L 343.304688 255.588437 
" style="fill:none;stroke:#f5deb3;stroke-linecap:square;stroke-width:1.5;"/>
    </g>
    <g id="line2d_150"/>
    <g id="text_68">
     <!-- Tanintharyi -->
     <defs>
      <path d="M -0.296875 72.90625 
L 61.375 72.90625 
L 61.375 64.59375 
L 35.5 64.59375 
L 35.5 0 
L 25.59375 0 
L 25.59375 64.59375 
L -0.296875 64.59375 
z
" id="DejaVuSans-84"/>
     </defs>
     <g transform="translate(351.304688 259.088437)scale(0.1 -0.1)">
      <use xlink:href="#DejaVuSans-84"/>
      <use x="44.583984" xlink:href="#DejaVuSans-97"/>
      <use x="105.863281" xlink:href="#DejaVuSans-110"/>
      <use x="169.242188" xlink:href="#DejaVuSans-105"/>
      <use x="197.025391" xlink:href="#DejaVuSans-110"/>
      <use x="260.404297" xlink:href="#DejaVuSans-116"/>
      <use x="299.613281" xlink:href="#DejaVuSans-104"/>
      <use x="362.992188" xlink:href="#DejaVuSans-97"/>
      <use x="424.271484" xlink:href="#DejaVuSans-114"/>
      <use x="465.384766" xlink:href="#DejaVuSans-121"/>
      <use x="524.564453" xlink:href="#DejaVuSans-105"/>
     </g>
    </g>
    <g id="line2d_151">
     <path d="M 323.304688 270.266562 
L 343.304688 270.266562 
" style="fill:none;stroke:#b8860b;stroke-linecap:square;stroke-width:1.5;"/>
    </g>
    <g id="line2d_152"/>
    <g id="text_69">
     <!-- Naypyitaw -->
     <g transform="translate(351.304688 273.766562)scale(0.1 -0.1)">
      <use xlink:href="#DejaVuSans-78"/>
      <use x="74.804688" xlink:href="#DejaVuSans-97"/>
      <use x="136.083984" xlink:href="#DejaVuSans-121"/>
      <use x="195.263672" xlink:href="#DejaVuSans-112"/>
      <use x="258.740234" xlink:href="#DejaVuSans-121"/>
      <use x="317.919922" xlink:href="#DejaVuSans-105"/>
      <use x="345.703125" xlink:href="#DejaVuSans-116"/>
      <use x="384.912109" xlink:href="#DejaVuSans-97"/>
      <use x="446.191406" xlink:href="#DejaVuSans-119"/>
     </g>
    </g>
    <g id="line2d_153">
     <path d="M 323.304688 284.944687 
L 343.304688 284.944687 
" style="fill:none;stroke:#ff6347;stroke-dasharray:4.5,1.5,1.5,1.5,1.5,1.5;stroke-dashoffset:0;stroke-width:1.5;"/>
    </g>
    <g id="line2d_154"/>
    <g id="text_70">
     <!-- National Average -->
     <g transform="translate(351.304688 288.444687)scale(0.1 -0.1)">
      <use xlink:href="#DejaVuSans-78"/>
      <use x="74.804688" xlink:href="#DejaVuSans-97"/>
      <use x="136.083984" xlink:href="#DejaVuSans-116"/>
      <use x="175.292969" xlink:href="#DejaVuSans-105"/>
      <use x="203.076172" xlink:href="#DejaVuSans-111"/>
      <use x="264.257812" xlink:href="#DejaVuSans-110"/>
      <use x="327.636719" xlink:href="#DejaVuSans-97"/>
      <use x="388.916016" xlink:href="#DejaVuSans-108"/>
      <use x="416.699219" xlink:href="#DejaVuSans-32"/>
      <use x="448.486328" xlink:href="#DejaVuSans-65"/>
      <use x="511.019531" xlink:href="#DejaVuSans-118"/>
      <use x="570.199219" xlink:href="#DejaVuSans-101"/>
      <use x="631.722656" xlink:href="#DejaVuSans-114"/>
      <use x="672.835938" xlink:href="#DejaVuSans-97"/>
      <use x="734.115234" xlink:href="#DejaVuSans-103"/>
      <use x="797.591797" xlink:href="#DejaVuSans-101"/>
     </g>
    </g>
   </g>
  </g>
 </g>
 <defs>
  <clipPath id="p3bebe37a9d">
   <rect height="543.6" width="279" x="35.304688" y="22.318125"/>
  </clipPath>
 </defs>
</svg>
