<?xml version="1.0" encoding="utf-8" standalone="no"?>
<!DOCTYPE svg PUBLIC "-//W3C//DTD SVG 1.1//EN"
  "http://www.w3.org/Graphics/SVG/1.1/DTD/svg11.dtd">
<!-- Created with matplotlib (https://matplotlib.org/) -->
<svg height="681.838125pt" version="1.1" viewBox="0 0 437.30625 681.838125" width="437.30625pt" xmlns="http://www.w3.org/2000/svg" xmlns:xlink="http://www.w3.org/1999/xlink">
 <defs>
  <style type="text/css">
*{stroke-linecap:butt;stroke-linejoin:round;}
  </style>
 </defs>
 <g id="figure_1">
  <g id="patch_1">
   <path d="M 0 681.838125 
L 437.30625 681.838125 
L 437.30625 0 
L 0 0 
z
" style="fill:#ffffff;"/>
  </g>
  <g id="axes_1">
   <g id="patch_2">
    <path d="M 42.789062 565.918125 
L 321.789062 565.918125 
L 321.789062 22.318125 
L 42.789062 22.318125 
z
" style="fill:#ffffff;"/>
   </g>
   <g id="PolyCollection_1">
    <path clip-path="url(#p01154f893f)" d="M 55.470881 535.179612 
L 55.470881 565.918125 
L 70.390667 565.918125 
L 85.310453 565.918125 
L 100.230239 565.918125 
L 115.150025 565.918125 
L 130.069811 565.918125 
L 144.989597 565.918125 
L 159.909383 565.918125 
L 174.829169 565.918125 
L 189.748956 565.918125 
L 204.668742 565.918125 
L 219.588528 565.918125 
L 234.508314 565.918125 
L 249.4281 565.918125 
L 264.347886 565.918125 
L 279.267672 565.918125 
L 294.187458 565.918125 
L 309.107244 565.918125 
L 309.107244 505.487605 
L 309.107244 505.487605 
L 294.187458 521.20635 
L 279.267672 516.027088 
L 264.347886 521.525877 
L 249.4281 526.613799 
L 234.508314 526.613799 
L 219.588528 534.378325 
L 204.668742 510.063069 
L 189.748956 504.62637 
L 174.829169 518.968938 
L 159.909383 525.672106 
L 144.989597 528.848116 
L 130.069811 529.777356 
L 115.150025 532.107789 
L 100.230239 532.107789 
L 85.310453 538.825301 
L 70.390667 538.825301 
L 55.470881 535.179612 
z
" style="fill:#f08080;"/>
   </g>
   <g id="PolyCollection_2">
    <path clip-path="url(#p01154f893f)" d="M 55.470881 530.798491 
L 55.470881 535.179612 
L 70.390667 538.825301 
L 85.310453 538.825301 
L 100.230239 532.107789 
L 115.150025 532.107789 
L 130.069811 529.777356 
L 144.989597 528.848116 
L 159.909383 525.672106 
L 174.829169 518.968938 
L 189.748956 504.62637 
L 204.668742 510.063069 
L 219.588528 534.378325 
L 234.508314 526.613799 
L 249.4281 526.613799 
L 264.347886 521.525877 
L 279.267672 516.027088 
L 294.187458 521.20635 
L 309.107244 505.487605 
L 309.107244 503.846634 
L 309.107244 503.846634 
L 294.187458 520.166763 
L 279.267672 514.708948 
L 264.347886 520.055301 
L 249.4281 524.64021 
L 234.508314 524.64021 
L 219.588528 532.790486 
L 204.668742 509.421473 
L 189.748956 503.973245 
L 174.829169 518.416406 
L 159.909383 525.141174 
L 144.989597 528.242419 
L 130.069811 528.812416 
L 115.150025 529.545875 
L 100.230239 529.545875 
L 85.310453 534.963795 
L 70.390667 534.963795 
L 55.470881 530.798491 
z
" style="fill:#ff8c00;"/>
   </g>
   <g id="PolyCollection_3">
    <path clip-path="url(#p01154f893f)" d="M 55.470881 509.581851 
L 55.470881 530.798491 
L 70.390667 534.963795 
L 85.310453 534.963795 
L 100.230239 529.545875 
L 115.150025 529.545875 
L 130.069811 528.812416 
L 144.989597 528.242419 
L 159.909383 525.141174 
L 174.829169 518.416406 
L 189.748956 503.973245 
L 204.668742 509.421473 
L 219.588528 532.790486 
L 234.508314 524.64021 
L 249.4281 524.64021 
L 264.347886 520.055301 
L 279.267672 514.708948 
L 294.187458 520.166763 
L 309.107244 503.846634 
L 309.107244 469.207888 
L 309.107244 469.207888 
L 294.187458 489.637243 
L 279.267672 477.392738 
L 264.347886 481.880119 
L 249.4281 486.699455 
L 234.508314 486.699455 
L 219.588528 501.586005 
L 204.668742 481.435207 
L 189.748956 470.980198 
L 174.829169 503.00157 
L 159.909383 503.477764 
L 144.989597 507.138307 
L 130.069811 509.575207 
L 115.150025 510.532321 
L 100.230239 510.532321 
L 85.310453 516.263518 
L 70.390667 516.263518 
L 55.470881 509.581851 
z
" style="fill:#fafad2;"/>
   </g>
   <g id="PolyCollection_4">
    <path clip-path="url(#p01154f893f)" d="M 55.470881 509.581851 
L 55.470881 509.581851 
L 70.390667 516.263518 
L 85.310453 516.263518 
L 100.230239 510.532321 
L 115.150025 510.532321 
L 130.069811 509.575207 
L 144.989597 507.138307 
L 159.909383 503.477764 
L 174.829169 503.00157 
L 189.748956 470.980198 
L 204.668742 481.435207 
L 219.588528 501.586005 
L 234.508314 486.699455 
L 249.4281 486.699455 
L 264.347886 481.880119 
L 279.267672 477.392738 
L 294.187458 489.637243 
L 309.107244 469.207888 
L 309.107244 467.626373 
L 309.107244 467.626373 
L 294.187458 488.435518 
L 279.267672 475.957948 
L 264.347886 480.600838 
L 249.4281 485.575107 
L 234.508314 485.575107 
L 219.588528 500.76743 
L 204.668742 480.883976 
L 189.748956 470.418918 
L 174.829169 502.625207 
L 159.909383 503.15641 
L 144.989597 506.832056 
L 130.069811 509.267248 
L 115.150025 510.255357 
L 100.230239 510.255357 
L 85.310453 516.263518 
L 70.390667 516.263518 
L 55.470881 509.581851 
z
" style="fill:#ffdab9;"/>
   </g>
   <g id="PolyCollection_5">
    <path clip-path="url(#p01154f893f)" d="M 55.470881 441.79813 
L 55.470881 509.581851 
L 70.390667 516.263518 
L 85.310453 516.263518 
L 100.230239 510.255357 
L 115.150025 510.255357 
L 130.069811 509.267248 
L 144.989597 506.832056 
L 159.909383 503.15641 
L 174.829169 502.625207 
L 189.748956 470.418918 
L 204.668742 480.883976 
L 219.588528 500.76743 
L 234.508314 485.575107 
L 249.4281 485.575107 
L 264.347886 480.600838 
L 279.267672 475.957948 
L 294.187458 488.435518 
L 309.107244 467.626373 
L 309.107244 446.412668 
L 309.107244 446.412668 
L 294.187458 471.010516 
L 279.267672 454.692725 
L 264.347886 458.924796 
L 249.4281 463.734054 
L 234.508314 463.734054 
L 219.588528 483.557627 
L 204.668742 465.115157 
L 189.748956 450.80474 
L 174.829169 481.244629 
L 159.909383 484.503942 
L 144.989597 474.655261 
L 130.069811 476.91096 
L 115.150025 449.849587 
L 100.230239 449.849587 
L 85.310453 449.333343 
L 70.390667 449.333343 
L 55.470881 441.79813 
z
" style="fill:#dda0dd;"/>
   </g>
   <g id="PolyCollection_6">
    <path clip-path="url(#p01154f893f)" d="M 55.470881 439.634068 
L 55.470881 441.79813 
L 70.390667 449.333343 
L 85.310453 449.333343 
L 100.230239 449.849587 
L 115.150025 449.849587 
L 130.069811 476.91096 
L 144.989597 474.655261 
L 159.909383 484.503942 
L 174.829169 481.244629 
L 189.748956 450.80474 
L 204.668742 465.115157 
L 219.588528 483.557627 
L 234.508314 463.734054 
L 249.4281 463.734054 
L 264.347886 458.924796 
L 279.267672 454.692725 
L 294.187458 471.010516 
L 309.107244 446.412668 
L 309.107244 434.699944 
L 309.107244 434.699944 
L 294.187458 461.329958 
L 279.267672 444.252585 
L 264.347886 448.200355 
L 249.4281 454.09337 
L 234.508314 454.09337 
L 219.588528 476.289074 
L 204.668742 458.455203 
L 189.748956 443.416257 
L 174.829169 474.470109 
L 159.909383 478.593834 
L 144.989597 470.136354 
L 130.069811 473.851895 
L 115.150025 447.557713 
L 100.230239 447.557713 
L 85.310453 447.425946 
L 70.390667 447.425946 
L 55.470881 439.634068 
z
" style="fill:#9370db;"/>
   </g>
   <g id="PolyCollection_7">
    <path clip-path="url(#p01154f893f)" d="M 55.470881 419.654035 
L 55.470881 439.634068 
L 70.390667 447.425946 
L 85.310453 447.425946 
L 100.230239 447.557713 
L 115.150025 447.557713 
L 130.069811 473.851895 
L 144.989597 470.136354 
L 159.909383 478.593834 
L 174.829169 474.470109 
L 189.748956 443.416257 
L 204.668742 458.455203 
L 219.588528 476.289074 
L 234.508314 454.09337 
L 249.4281 454.09337 
L 264.347886 448.200355 
L 279.267672 444.252585 
L 294.187458 461.329958 
L 309.107244 434.699944 
L 309.107244 414.960735 
L 309.107244 414.960735 
L 294.187458 445.211592 
L 279.267672 424.643786 
L 264.347886 427.863373 
L 249.4281 434.441207 
L 234.508314 434.441207 
L 219.588528 459.966882 
L 204.668742 443.626187 
L 189.748956 426.822785 
L 174.829169 458.414656 
L 159.909383 461.059116 
L 144.989597 450.420581 
L 130.069811 456.044987 
L 115.150025 424.507414 
L 100.230239 424.507414 
L 85.310453 429.81561 
L 70.390667 429.81561 
L 55.470881 419.654035 
z
" style="fill:#800080;"/>
   </g>
   <g id="PolyCollection_8">
    <path clip-path="url(#p01154f893f)" d="M 55.470881 367.036414 
L 55.470881 419.654035 
L 70.390667 429.81561 
L 85.310453 429.81561 
L 100.230239 424.507414 
L 115.150025 424.507414 
L 130.069811 456.044987 
L 144.989597 450.420581 
L 159.909383 461.059116 
L 174.829169 458.414656 
L 189.748956 426.822785 
L 204.668742 443.626187 
L 219.588528 459.966882 
L 234.508314 434.441207 
L 249.4281 434.441207 
L 264.347886 427.863373 
L 279.267672 424.643786 
L 294.187458 445.211592 
L 309.107244 414.960735 
L 309.107244 388.931138 
L 309.107244 388.931138 
L 294.187458 425.306841 
L 279.267672 403.588532 
L 264.347886 408.088318 
L 249.4281 419.370163 
L 234.508314 419.370163 
L 219.588528 447.540319 
L 204.668742 430.740034 
L 189.748956 410.892643 
L 174.829169 448.252875 
L 159.909383 452.193954 
L 144.989597 443.111386 
L 130.069811 448.96876 
L 115.150025 400.34926 
L 100.230239 400.34926 
L 85.310453 383.438612 
L 70.390667 383.438612 
L 55.470881 367.036414 
z
" style="fill:#7fff00;"/>
   </g>
   <g id="PolyCollection_9">
    <path clip-path="url(#p01154f893f)" d="M 55.470881 330.291525 
L 55.470881 367.036414 
L 70.390667 383.438612 
L 85.310453 383.438612 
L 100.230239 400.34926 
L 115.150025 400.34926 
L 130.069811 448.96876 
L 144.989597 443.111386 
L 159.909383 452.193954 
L 174.829169 448.252875 
L 189.748956 410.892643 
L 204.668742 430.740034 
L 219.588528 447.540319 
L 234.508314 419.370163 
L 249.4281 419.370163 
L 264.347886 408.088318 
L 279.267672 403.588532 
L 294.187458 425.306841 
L 309.107244 388.931138 
L 309.107244 371.593929 
L 309.107244 371.593929 
L 294.187458 416.036396 
L 279.267672 392.378505 
L 264.347886 397.304099 
L 249.4281 408.186492 
L 234.508314 408.186492 
L 219.588528 438.31902 
L 204.668742 422.290839 
L 189.748956 400.963093 
L 174.829169 438.531519 
L 159.909383 443.713019 
L 144.989597 435.598022 
L 130.069811 441.413485 
L 115.150025 398.735947 
L 100.230239 398.735947 
L 85.310453 351.051788 
L 70.390667 351.051788 
L 55.470881 330.291525 
z
" style="fill:#00fa9a;"/>
   </g>
   <g id="PolyCollection_10">
    <path clip-path="url(#p01154f893f)" d="M 55.470881 283.644948 
L 55.470881 330.291525 
L 70.390667 351.051788 
L 85.310453 351.051788 
L 100.230239 398.735947 
L 115.150025 398.735947 
L 130.069811 441.413485 
L 144.989597 435.598022 
L 159.909383 443.713019 
L 174.829169 438.531519 
L 189.748956 400.963093 
L 204.668742 422.290839 
L 219.588528 438.31902 
L 234.508314 408.186492 
L 249.4281 408.186492 
L 264.347886 397.304099 
L 279.267672 392.378505 
L 294.187458 416.036396 
L 309.107244 371.593929 
L 309.107244 286.976931 
L 309.107244 286.976931 
L 294.187458 352.211482 
L 279.267672 322.062122 
L 264.347886 332.192279 
L 249.4281 352.722657 
L 234.508314 352.722657 
L 219.588528 285.275047 
L 204.668742 268.316677 
L 189.748956 351.774572 
L 174.829169 300.270446 
L 159.909383 299.131937 
L 144.989597 300.078454 
L 130.069811 310.770184 
L 115.150025 316.540063 
L 100.230239 316.540063 
L 85.310453 309.937648 
L 70.390667 309.937648 
L 55.470881 283.644948 
z
" style="fill:#008000;"/>
   </g>
   <g id="PolyCollection_11">
    <path clip-path="url(#p01154f893f)" d="M 55.470881 236.503729 
L 55.470881 283.644948 
L 70.390667 309.937648 
L 85.310453 309.937648 
L 100.230239 316.540063 
L 115.150025 316.540063 
L 130.069811 310.770184 
L 144.989597 300.078454 
L 159.909383 299.131937 
L 174.829169 300.270446 
L 189.748956 351.774572 
L 204.668742 268.316677 
L 219.588528 285.275047 
L 234.508314 352.722657 
L 249.4281 352.722657 
L 264.347886 332.192279 
L 279.267672 322.062122 
L 294.187458 352.211482 
L 309.107244 286.976931 
L 309.107244 241.624313 
L 309.107244 241.624313 
L 294.187458 311.123955 
L 279.267672 272.031105 
L 264.347886 280.949301 
L 249.4281 300.524216 
L 234.508314 300.524216 
L 219.588528 241.131162 
L 204.668742 226.730369 
L 189.748956 304.81076 
L 174.829169 258.806539 
L 159.909383 257.411883 
L 144.989597 254.242855 
L 130.069811 264.678899 
L 115.150025 271.000316 
L 100.230239 271.000316 
L 85.310453 263.264809 
L 70.390667 263.264809 
L 55.470881 236.503729 
z
" style="fill:#00ffff;"/>
   </g>
   <g id="PolyCollection_12">
    <path clip-path="url(#p01154f893f)" d="M 55.470881 171.149058 
L 55.470881 236.503729 
L 70.390667 263.264809 
L 85.310453 263.264809 
L 100.230239 271.000316 
L 115.150025 271.000316 
L 130.069811 264.678899 
L 144.989597 254.242855 
L 159.909383 257.411883 
L 174.829169 258.806539 
L 189.748956 304.81076 
L 204.668742 226.730369 
L 219.588528 241.131162 
L 234.508314 300.524216 
L 249.4281 300.524216 
L 264.347886 280.949301 
L 279.267672 272.031105 
L 294.187458 311.123955 
L 309.107244 241.624313 
L 309.107244 137.529709 
L 309.107244 137.529709 
L 294.187458 137.140977 
L 279.267672 157.597841 
L 264.347886 163.661944 
L 249.4281 177.336372 
L 234.508314 177.336372 
L 219.588528 155.368152 
L 204.668742 148.148333 
L 189.748956 164.113221 
L 174.829169 146.858792 
L 159.909383 159.748396 
L 144.989597 159.100809 
L 130.069811 169.00612 
L 115.150025 184.13067 
L 100.230239 184.13067 
L 85.310453 165.590507 
L 70.390667 165.590507 
L 55.470881 171.149058 
z
" style="fill:#48d1cc;"/>
   </g>
   <g id="PolyCollection_13">
    <path clip-path="url(#p01154f893f)" d="M 55.470881 97.191136 
L 55.470881 171.149058 
L 70.390667 165.590507 
L 85.310453 165.590507 
L 100.230239 184.13067 
L 115.150025 184.13067 
L 130.069811 169.00612 
L 144.989597 159.100809 
L 159.909383 159.748396 
L 174.829169 146.858792 
L 189.748956 164.113221 
L 204.668742 148.148333 
L 219.588528 155.368152 
L 234.508314 177.336372 
L 249.4281 177.336372 
L 264.347886 163.661944 
L 279.267672 157.597841 
L 294.187458 137.140977 
L 309.107244 137.529709 
L 309.107244 94.02021 
L 309.107244 94.02021 
L 294.187458 86.334743 
L 279.267672 95.458595 
L 264.347886 96.433931 
L 249.4281 112.686378 
L 234.508314 112.686378 
L 219.588528 101.933931 
L 204.668742 99.188182 
L 189.748956 108.985339 
L 174.829169 98.596341 
L 159.909383 99.843932 
L 144.989597 100.742938 
L 130.069811 104.403042 
L 115.150025 121.890016 
L 100.230239 121.890016 
L 85.310453 96.558302 
L 70.390667 96.558302 
L 55.470881 97.191136 
z
" style="fill:#b0e0e6;"/>
   </g>
   <g id="PolyCollection_14">
    <path clip-path="url(#p01154f893f)" d="M 55.470881 73.836932 
L 55.470881 97.191136 
L 70.390667 96.558302 
L 85.310453 96.558302 
L 100.230239 121.890016 
L 115.150025 121.890016 
L 130.069811 104.403042 
L 144.989597 100.742938 
L 159.909383 99.843932 
L 174.829169 98.596341 
L 189.748956 108.985339 
L 204.668742 99.188182 
L 219.588528 101.933931 
L 234.508314 112.686378 
L 249.4281 112.686378 
L 264.347886 96.433931 
L 279.267672 95.458595 
L 294.187458 86.334743 
L 309.107244 94.02021 
L 309.107244 78.014802 
L 309.107244 78.014802 
L 294.187458 73.354213 
L 279.267672 79.955862 
L 264.347886 80.544543 
L 249.4281 81.324253 
L 234.508314 81.324253 
L 219.588528 76.607412 
L 204.668742 76.551568 
L 189.748956 82.472523 
L 174.829169 77.792317 
L 159.909383 80.541771 
L 144.989597 79.877021 
L 130.069811 81.100767 
L 115.150025 98.265017 
L 100.230239 98.265017 
L 85.310453 75.973984 
L 70.390667 75.973984 
L 55.470881 73.836932 
z
" style="fill:#6495ed;"/>
   </g>
   <g id="PolyCollection_15">
    <path clip-path="url(#p01154f893f)" d="M 55.470881 54.095388 
L 55.470881 73.836932 
L 70.390667 75.973984 
L 85.310453 75.973984 
L 100.230239 98.265017 
L 115.150025 98.265017 
L 130.069811 81.100767 
L 144.989597 79.877021 
L 159.909383 80.541771 
L 174.829169 77.792317 
L 189.748956 82.472523 
L 204.668742 76.551568 
L 219.588528 76.607412 
L 234.508314 81.324253 
L 249.4281 81.324253 
L 264.347886 80.544543 
L 279.267672 79.955862 
L 294.187458 73.354213 
L 309.107244 78.014802 
L 309.107244 68.038178 
L 309.107244 68.038178 
L 294.187458 64.780005 
L 279.267672 69.072454 
L 264.347886 69.437514 
L 249.4281 69.650174 
L 234.508314 69.650174 
L 219.588528 66.163182 
L 204.668742 65.707681 
L 189.748956 68.644629 
L 174.829169 64.875886 
L 159.909383 63.286491 
L 144.989597 63.067232 
L 130.069811 64.197207 
L 115.150025 78.9745 
L 100.230239 78.9745 
L 85.310453 54.424289 
L 70.390667 54.424289 
L 55.470881 54.095388 
z
" style="fill:#000080;"/>
   </g>
   <g id="PolyCollection_16">
    <path clip-path="url(#p01154f893f)" d="M 55.470881 54.095388 
L 55.470881 54.095388 
L 70.390667 54.424289 
L 85.310453 54.424289 
L 100.230239 78.9745 
L 115.150025 78.9745 
L 130.069811 64.197207 
L 144.989597 63.067232 
L 159.909383 63.286491 
L 174.829169 64.875886 
L 189.748956 68.644629 
L 204.668742 65.707681 
L 219.588528 66.163182 
L 234.508314 69.650174 
L 249.4281 69.650174 
L 264.347886 69.437514 
L 279.267672 69.072454 
L 294.187458 64.780005 
L 309.107244 68.038178 
L 309.107244 60.511118 
L 309.107244 60.511118 
L 294.187458 58.351734 
L 279.267672 60.102099 
L 264.347886 60.315164 
L 249.4281 59.997529 
L 234.508314 59.997529 
L 219.588528 57.829494 
L 204.668742 56.951242 
L 189.748956 57.755801 
L 174.829169 55.987331 
L 159.909383 55.343473 
L 144.989597 55.281645 
L 130.069811 55.451155 
L 115.150025 53.805429 
L 100.230239 53.805429 
L 85.310453 54.424289 
L 70.390667 54.424289 
L 55.470881 54.095388 
z
" style="fill:#f5deb3;"/>
   </g>
   <g id="PolyCollection_17">
    <path clip-path="url(#p01154f893f)" d="M 55.470881 48.203839 
L 55.470881 54.095388 
L 70.390667 54.424289 
L 85.310453 54.424289 
L 100.230239 53.805429 
L 115.150025 53.805429 
L 130.069811 55.451155 
L 144.989597 55.281645 
L 159.909383 55.343473 
L 174.829169 55.987331 
L 189.748956 57.755801 
L 204.668742 56.951242 
L 219.588528 57.829494 
L 234.508314 59.997529 
L 249.4281 59.997529 
L 264.347886 60.315164 
L 279.267672 60.102099 
L 294.187458 58.351734 
L 309.107244 60.511118 
L 309.107244 48.203839 
L 309.107244 48.203839 
L 294.187458 48.203839 
L 279.267672 48.203839 
L 264.347886 48.203839 
L 249.4281 48.203839 
L 234.508314 48.203839 
L 219.588528 48.203839 
L 204.668742 48.203839 
L 189.748956 48.203839 
L 174.829169 48.203839 
L 159.909383 48.203839 
L 144.989597 48.203839 
L 130.069811 48.203839 
L 115.150025 48.203839 
L 100.230239 48.203839 
L 85.310453 48.203839 
L 70.390667 48.203839 
L 55.470881 48.203839 
z
" style="fill:#b8860b;"/>
   </g>
   <g id="matplotlib.axis_1">
    <g id="xtick_1">
     <g id="line2d_1">
      <path clip-path="url(#p01154f893f)" d="M 70.390667 565.918125 
L 70.390667 22.318125 
" style="fill:none;stroke:#808080;stroke-dasharray:1.85,0.8;stroke-dashoffset:0;stroke-width:0.5;"/>
     </g>
     <g id="line2d_2">
      <defs>
       <path d="M 0 0 
L 0 3.5 
" id="m5cbe2801d7" style="stroke:#000000;stroke-width:0.8;"/>
      </defs>
      <g>
       <use style="stroke:#000000;stroke-width:0.8;" x="70.390667" xlink:href="#m5cbe2801d7" y="565.918125"/>
      </g>
     </g>
     <g id="text_1">
      <!-- 2020-04-05 -->
      <defs>
       <path d="M 19.1875 8.296875 
L 53.609375 8.296875 
L 53.609375 0 
L 7.328125 0 
L 7.328125 8.296875 
Q 12.9375 14.109375 22.625 23.890625 
Q 32.328125 33.6875 34.8125 36.53125 
Q 39.546875 41.84375 41.421875 45.53125 
Q 43.3125 49.21875 43.3125 52.78125 
Q 43.3125 58.59375 39.234375 62.25 
Q 35.15625 65.921875 28.609375 65.921875 
Q 23.96875 65.921875 18.8125 64.3125 
Q 13.671875 62.703125 7.8125 59.421875 
L 7.8125 69.390625 
Q 13.765625 71.78125 18.9375 73 
Q 24.125 74.21875 28.421875 74.21875 
Q 39.75 74.21875 46.484375 68.546875 
Q 53.21875 62.890625 53.21875 53.421875 
Q 53.21875 48.921875 51.53125 44.890625 
Q 49.859375 40.875 45.40625 35.40625 
Q 44.1875 33.984375 37.640625 27.21875 
Q 31.109375 20.453125 19.1875 8.296875 
z
" id="DejaVuSans-50"/>
       <path d="M 31.78125 66.40625 
Q 24.171875 66.40625 20.328125 58.90625 
Q 16.5 51.421875 16.5 36.375 
Q 16.5 21.390625 20.328125 13.890625 
Q 24.171875 6.390625 31.78125 6.390625 
Q 39.453125 6.390625 43.28125 13.890625 
Q 47.125 21.390625 47.125 36.375 
Q 47.125 51.421875 43.28125 58.90625 
Q 39.453125 66.40625 31.78125 66.40625 
z
M 31.78125 74.21875 
Q 44.046875 74.21875 50.515625 64.515625 
Q 56.984375 54.828125 56.984375 36.375 
Q 56.984375 17.96875 50.515625 8.265625 
Q 44.046875 -1.421875 31.78125 -1.421875 
Q 19.53125 -1.421875 13.0625 8.265625 
Q 6.59375 17.96875 6.59375 36.375 
Q 6.59375 54.828125 13.0625 64.515625 
Q 19.53125 74.21875 31.78125 74.21875 
z
" id="DejaVuSans-48"/>
       <path d="M 4.890625 31.390625 
L 31.203125 31.390625 
L 31.203125 23.390625 
L 4.890625 23.390625 
z
" id="DejaVuSans-45"/>
       <path d="M 37.796875 64.3125 
L 12.890625 25.390625 
L 37.796875 25.390625 
z
M 35.203125 72.90625 
L 47.609375 72.90625 
L 47.609375 25.390625 
L 58.015625 25.390625 
L 58.015625 17.1875 
L 47.609375 17.1875 
L 47.609375 0 
L 37.796875 0 
L 37.796875 17.1875 
L 4.890625 17.1875 
L 4.890625 26.703125 
z
" id="DejaVuSans-52"/>
       <path d="M 10.796875 72.90625 
L 49.515625 72.90625 
L 49.515625 64.59375 
L 19.828125 64.59375 
L 19.828125 46.734375 
Q 21.96875 47.46875 24.109375 47.828125 
Q 26.265625 48.1875 28.421875 48.1875 
Q 40.625 48.1875 47.75 41.5 
Q 54.890625 34.8125 54.890625 23.390625 
Q 54.890625 11.625 47.5625 5.09375 
Q 40.234375 -1.421875 26.90625 -1.421875 
Q 22.3125 -1.421875 17.546875 -0.640625 
Q 12.796875 0.140625 7.71875 1.703125 
L 7.71875 11.625 
Q 12.109375 9.234375 16.796875 8.0625 
Q 21.484375 6.890625 26.703125 6.890625 
Q 35.15625 6.890625 40.078125 11.328125 
Q 45.015625 15.765625 45.015625 23.390625 
Q 45.015625 31 40.078125 35.4375 
Q 35.15625 39.890625 26.703125 39.890625 
Q 22.75 39.890625 18.8125 39.015625 
Q 14.890625 38.140625 10.796875 36.28125 
z
" id="DejaVuSans-53"/>
      </defs>
      <g transform="translate(73.150042 631.03375)rotate(-90)scale(0.1 -0.1)">
       <use xlink:href="#DejaVuSans-50"/>
       <use x="63.623047" xlink:href="#DejaVuSans-48"/>
       <use x="127.246094" xlink:href="#DejaVuSans-50"/>
       <use x="190.869141" xlink:href="#DejaVuSans-48"/>
       <use x="254.492188" xlink:href="#DejaVuSans-45"/>
       <use x="290.576172" xlink:href="#DejaVuSans-48"/>
       <use x="354.199219" xlink:href="#DejaVuSans-52"/>
       <use x="417.822266" xlink:href="#DejaVuSans-45"/>
       <use x="453.90625" xlink:href="#DejaVuSans-48"/>
       <use x="517.529297" xlink:href="#DejaVuSans-53"/>
      </g>
     </g>
    </g>
    <g id="xtick_2">
     <g id="line2d_3">
      <path clip-path="url(#p01154f893f)" d="M 100.230239 565.918125 
L 100.230239 22.318125 
" style="fill:none;stroke:#808080;stroke-dasharray:1.85,0.8;stroke-dashoffset:0;stroke-width:0.5;"/>
     </g>
     <g id="line2d_4">
      <g>
       <use style="stroke:#000000;stroke-width:0.8;" x="100.230239" xlink:href="#m5cbe2801d7" y="565.918125"/>
      </g>
     </g>
     <g id="text_2">
      <!-- 2020-04-07 -->
      <defs>
       <path d="M 8.203125 72.90625 
L 55.078125 72.90625 
L 55.078125 68.703125 
L 28.609375 0 
L 18.3125 0 
L 43.21875 64.59375 
L 8.203125 64.59375 
z
" id="DejaVuSans-55"/>
      </defs>
      <g transform="translate(102.989614 631.03375)rotate(-90)scale(0.1 -0.1)">
       <use xlink:href="#DejaVuSans-50"/>
       <use x="63.623047" xlink:href="#DejaVuSans-48"/>
       <use x="127.246094" xlink:href="#DejaVuSans-50"/>
       <use x="190.869141" xlink:href="#DejaVuSans-48"/>
       <use x="254.492188" xlink:href="#DejaVuSans-45"/>
       <use x="290.576172" xlink:href="#DejaVuSans-48"/>
       <use x="354.199219" xlink:href="#DejaVuSans-52"/>
       <use x="417.822266" xlink:href="#DejaVuSans-45"/>
       <use x="453.90625" xlink:href="#DejaVuSans-48"/>
       <use x="517.529297" xlink:href="#DejaVuSans-55"/>
      </g>
     </g>
    </g>
    <g id="xtick_3">
     <g id="line2d_5">
      <path clip-path="url(#p01154f893f)" d="M 130.069811 565.918125 
L 130.069811 22.318125 
" style="fill:none;stroke:#808080;stroke-dasharray:1.85,0.8;stroke-dashoffset:0;stroke-width:0.5;"/>
     </g>
     <g id="line2d_6">
      <g>
       <use style="stroke:#000000;stroke-width:0.8;" x="130.069811" xlink:href="#m5cbe2801d7" y="565.918125"/>
      </g>
     </g>
     <g id="text_3">
      <!-- 2020-04-09 -->
      <defs>
       <path d="M 10.984375 1.515625 
L 10.984375 10.5 
Q 14.703125 8.734375 18.5 7.8125 
Q 22.3125 6.890625 25.984375 6.890625 
Q 35.75 6.890625 40.890625 13.453125 
Q 46.046875 20.015625 46.78125 33.40625 
Q 43.953125 29.203125 39.59375 26.953125 
Q 35.25 24.703125 29.984375 24.703125 
Q 19.046875 24.703125 12.671875 31.3125 
Q 6.296875 37.9375 6.296875 49.421875 
Q 6.296875 60.640625 12.9375 67.421875 
Q 19.578125 74.21875 30.609375 74.21875 
Q 43.265625 74.21875 49.921875 64.515625 
Q 56.59375 54.828125 56.59375 36.375 
Q 56.59375 19.140625 48.40625 8.859375 
Q 40.234375 -1.421875 26.421875 -1.421875 
Q 22.703125 -1.421875 18.890625 -0.6875 
Q 15.09375 0.046875 10.984375 1.515625 
z
M 30.609375 32.421875 
Q 37.25 32.421875 41.125 36.953125 
Q 45.015625 41.5 45.015625 49.421875 
Q 45.015625 57.28125 41.125 61.84375 
Q 37.25 66.40625 30.609375 66.40625 
Q 23.96875 66.40625 20.09375 61.84375 
Q 16.21875 57.28125 16.21875 49.421875 
Q 16.21875 41.5 20.09375 36.953125 
Q 23.96875 32.421875 30.609375 32.421875 
z
" id="DejaVuSans-57"/>
      </defs>
      <g transform="translate(132.829186 631.03375)rotate(-90)scale(0.1 -0.1)">
       <use xlink:href="#DejaVuSans-50"/>
       <use x="63.623047" xlink:href="#DejaVuSans-48"/>
       <use x="127.246094" xlink:href="#DejaVuSans-50"/>
       <use x="190.869141" xlink:href="#DejaVuSans-48"/>
       <use x="254.492188" xlink:href="#DejaVuSans-45"/>
       <use x="290.576172" xlink:href="#DejaVuSans-48"/>
       <use x="354.199219" xlink:href="#DejaVuSans-52"/>
       <use x="417.822266" xlink:href="#DejaVuSans-45"/>
       <use x="453.90625" xlink:href="#DejaVuSans-48"/>
       <use x="517.529297" xlink:href="#DejaVuSans-57"/>
      </g>
     </g>
    </g>
    <g id="xtick_4">
     <g id="line2d_7">
      <path clip-path="url(#p01154f893f)" d="M 159.909383 565.918125 
L 159.909383 22.318125 
" style="fill:none;stroke:#808080;stroke-dasharray:1.85,0.8;stroke-dashoffset:0;stroke-width:0.5;"/>
     </g>
     <g id="line2d_8">
      <g>
       <use style="stroke:#000000;stroke-width:0.8;" x="159.909383" xlink:href="#m5cbe2801d7" y="565.918125"/>
      </g>
     </g>
     <g id="text_4">
      <!-- 2020-04-11 -->
      <defs>
       <path d="M 12.40625 8.296875 
L 28.515625 8.296875 
L 28.515625 63.921875 
L 10.984375 60.40625 
L 10.984375 69.390625 
L 28.421875 72.90625 
L 38.28125 72.90625 
L 38.28125 8.296875 
L 54.390625 8.296875 
L 54.390625 0 
L 12.40625 0 
z
" id="DejaVuSans-49"/>
      </defs>
      <g transform="translate(162.668758 631.03375)rotate(-90)scale(0.1 -0.1)">
       <use xlink:href="#DejaVuSans-50"/>
       <use x="63.623047" xlink:href="#DejaVuSans-48"/>
       <use x="127.246094" xlink:href="#DejaVuSans-50"/>
       <use x="190.869141" xlink:href="#DejaVuSans-48"/>
       <use x="254.492188" xlink:href="#DejaVuSans-45"/>
       <use x="290.576172" xlink:href="#DejaVuSans-48"/>
       <use x="354.199219" xlink:href="#DejaVuSans-52"/>
       <use x="417.822266" xlink:href="#DejaVuSans-45"/>
       <use x="453.90625" xlink:href="#DejaVuSans-49"/>
       <use x="517.529297" xlink:href="#DejaVuSans-49"/>
      </g>
     </g>
    </g>
    <g id="xtick_5">
     <g id="line2d_9">
      <path clip-path="url(#p01154f893f)" d="M 189.748956 565.918125 
L 189.748956 22.318125 
" style="fill:none;stroke:#808080;stroke-dasharray:1.85,0.8;stroke-dashoffset:0;stroke-width:0.5;"/>
     </g>
     <g id="line2d_10">
      <g>
       <use style="stroke:#000000;stroke-width:0.8;" x="189.748956" xlink:href="#m5cbe2801d7" y="565.918125"/>
      </g>
     </g>
     <g id="text_5">
      <!-- 2020-04-13 -->
      <defs>
       <path d="M 40.578125 39.3125 
Q 47.65625 37.796875 51.625 33 
Q 55.609375 28.21875 55.609375 21.1875 
Q 55.609375 10.40625 48.1875 4.484375 
Q 40.765625 -1.421875 27.09375 -1.421875 
Q 22.515625 -1.421875 17.65625 -0.515625 
Q 12.796875 0.390625 7.625 2.203125 
L 7.625 11.71875 
Q 11.71875 9.328125 16.59375 8.109375 
Q 21.484375 6.890625 26.8125 6.890625 
Q 36.078125 6.890625 40.9375 10.546875 
Q 45.796875 14.203125 45.796875 21.1875 
Q 45.796875 27.640625 41.28125 31.265625 
Q 36.765625 34.90625 28.71875 34.90625 
L 20.21875 34.90625 
L 20.21875 43.015625 
L 29.109375 43.015625 
Q 36.375 43.015625 40.234375 45.921875 
Q 44.09375 48.828125 44.09375 54.296875 
Q 44.09375 59.90625 40.109375 62.90625 
Q 36.140625 65.921875 28.71875 65.921875 
Q 24.65625 65.921875 20.015625 65.03125 
Q 15.375 64.15625 9.8125 62.3125 
L 9.8125 71.09375 
Q 15.4375 72.65625 20.34375 73.4375 
Q 25.25 74.21875 29.59375 74.21875 
Q 40.828125 74.21875 47.359375 69.109375 
Q 53.90625 64.015625 53.90625 55.328125 
Q 53.90625 49.265625 50.4375 45.09375 
Q 46.96875 40.921875 40.578125 39.3125 
z
" id="DejaVuSans-51"/>
      </defs>
      <g transform="translate(192.508331 631.03375)rotate(-90)scale(0.1 -0.1)">
       <use xlink:href="#DejaVuSans-50"/>
       <use x="63.623047" xlink:href="#DejaVuSans-48"/>
       <use x="127.246094" xlink:href="#DejaVuSans-50"/>
       <use x="190.869141" xlink:href="#DejaVuSans-48"/>
       <use x="254.492188" xlink:href="#DejaVuSans-45"/>
       <use x="290.576172" xlink:href="#DejaVuSans-48"/>
       <use x="354.199219" xlink:href="#DejaVuSans-52"/>
       <use x="417.822266" xlink:href="#DejaVuSans-45"/>
       <use x="453.90625" xlink:href="#DejaVuSans-49"/>
       <use x="517.529297" xlink:href="#DejaVuSans-51"/>
      </g>
     </g>
    </g>
    <g id="xtick_6">
     <g id="line2d_11">
      <path clip-path="url(#p01154f893f)" d="M 219.588528 565.918125 
L 219.588528 22.318125 
" style="fill:none;stroke:#808080;stroke-dasharray:1.85,0.8;stroke-dashoffset:0;stroke-width:0.5;"/>
     </g>
     <g id="line2d_12">
      <g>
       <use style="stroke:#000000;stroke-width:0.8;" x="219.588528" xlink:href="#m5cbe2801d7" y="565.918125"/>
      </g>
     </g>
     <g id="text_6">
      <!-- 2020-04-15 -->
      <g transform="translate(222.347903 631.03375)rotate(-90)scale(0.1 -0.1)">
       <use xlink:href="#DejaVuSans-50"/>
       <use x="63.623047" xlink:href="#DejaVuSans-48"/>
       <use x="127.246094" xlink:href="#DejaVuSans-50"/>
       <use x="190.869141" xlink:href="#DejaVuSans-48"/>
       <use x="254.492188" xlink:href="#DejaVuSans-45"/>
       <use x="290.576172" xlink:href="#DejaVuSans-48"/>
       <use x="354.199219" xlink:href="#DejaVuSans-52"/>
       <use x="417.822266" xlink:href="#DejaVuSans-45"/>
       <use x="453.90625" xlink:href="#DejaVuSans-49"/>
       <use x="517.529297" xlink:href="#DejaVuSans-53"/>
      </g>
     </g>
    </g>
    <g id="xtick_7">
     <g id="line2d_13">
      <path clip-path="url(#p01154f893f)" d="M 249.4281 565.918125 
L 249.4281 22.318125 
" style="fill:none;stroke:#808080;stroke-dasharray:1.85,0.8;stroke-dashoffset:0;stroke-width:0.5;"/>
     </g>
     <g id="line2d_14">
      <g>
       <use style="stroke:#000000;stroke-width:0.8;" x="249.4281" xlink:href="#m5cbe2801d7" y="565.918125"/>
      </g>
     </g>
     <g id="text_7">
      <!-- 2020-04-17 -->
      <g transform="translate(252.187475 631.03375)rotate(-90)scale(0.1 -0.1)">
       <use xlink:href="#DejaVuSans-50"/>
       <use x="63.623047" xlink:href="#DejaVuSans-48"/>
       <use x="127.246094" xlink:href="#DejaVuSans-50"/>
       <use x="190.869141" xlink:href="#DejaVuSans-48"/>
       <use x="254.492188" xlink:href="#DejaVuSans-45"/>
       <use x="290.576172" xlink:href="#DejaVuSans-48"/>
       <use x="354.199219" xlink:href="#DejaVuSans-52"/>
       <use x="417.822266" xlink:href="#DejaVuSans-45"/>
       <use x="453.90625" xlink:href="#DejaVuSans-49"/>
       <use x="517.529297" xlink:href="#DejaVuSans-55"/>
      </g>
     </g>
    </g>
    <g id="xtick_8">
     <g id="line2d_15">
      <path clip-path="url(#p01154f893f)" d="M 279.267672 565.918125 
L 279.267672 22.318125 
" style="fill:none;stroke:#808080;stroke-dasharray:1.85,0.8;stroke-dashoffset:0;stroke-width:0.5;"/>
     </g>
     <g id="line2d_16">
      <g>
       <use style="stroke:#000000;stroke-width:0.8;" x="279.267672" xlink:href="#m5cbe2801d7" y="565.918125"/>
      </g>
     </g>
     <g id="text_8">
      <!-- 2020-04-19 -->
      <g transform="translate(282.027047 631.03375)rotate(-90)scale(0.1 -0.1)">
       <use xlink:href="#DejaVuSans-50"/>
       <use x="63.623047" xlink:href="#DejaVuSans-48"/>
       <use x="127.246094" xlink:href="#DejaVuSans-50"/>
       <use x="190.869141" xlink:href="#DejaVuSans-48"/>
       <use x="254.492188" xlink:href="#DejaVuSans-45"/>
       <use x="290.576172" xlink:href="#DejaVuSans-48"/>
       <use x="354.199219" xlink:href="#DejaVuSans-52"/>
       <use x="417.822266" xlink:href="#DejaVuSans-45"/>
       <use x="453.90625" xlink:href="#DejaVuSans-49"/>
       <use x="517.529297" xlink:href="#DejaVuSans-57"/>
      </g>
     </g>
    </g>
    <g id="xtick_9">
     <g id="line2d_17">
      <path clip-path="url(#p01154f893f)" d="M 309.107244 565.918125 
L 309.107244 22.318125 
" style="fill:none;stroke:#808080;stroke-dasharray:1.85,0.8;stroke-dashoffset:0;stroke-width:0.5;"/>
     </g>
     <g id="line2d_18">
      <g>
       <use style="stroke:#000000;stroke-width:0.8;" x="309.107244" xlink:href="#m5cbe2801d7" y="565.918125"/>
      </g>
     </g>
     <g id="text_9">
      <!-- 2020-04-21 -->
      <g transform="translate(311.866619 631.03375)rotate(-90)scale(0.1 -0.1)">
       <use xlink:href="#DejaVuSans-50"/>
       <use x="63.623047" xlink:href="#DejaVuSans-48"/>
       <use x="127.246094" xlink:href="#DejaVuSans-50"/>
       <use x="190.869141" xlink:href="#DejaVuSans-48"/>
       <use x="254.492188" xlink:href="#DejaVuSans-45"/>
       <use x="290.576172" xlink:href="#DejaVuSans-48"/>
       <use x="354.199219" xlink:href="#DejaVuSans-52"/>
       <use x="417.822266" xlink:href="#DejaVuSans-45"/>
       <use x="453.90625" xlink:href="#DejaVuSans-50"/>
       <use x="517.529297" xlink:href="#DejaVuSans-49"/>
      </g>
     </g>
    </g>
   </g>
   <g id="matplotlib.axis_2">
    <g id="ytick_1">
     <g id="line2d_19">
      <path clip-path="url(#p01154f893f)" d="M 42.789062 565.918125 
L 321.789062 565.918125 
" style="fill:none;stroke:#808080;stroke-dasharray:1.85,0.8;stroke-dashoffset:0;stroke-width:0.5;"/>
     </g>
     <g id="line2d_20">
      <defs>
       <path d="M 0 0 
L -3.5 0 
" id="m1d6e2e931c" style="stroke:#000000;stroke-width:0.8;"/>
      </defs>
      <g>
       <use style="stroke:#000000;stroke-width:0.8;" x="42.789062" xlink:href="#m1d6e2e931c" y="565.918125"/>
      </g>
     </g>
     <g id="text_10">
      <!-- 0% -->
      <defs>
       <path d="M 72.703125 32.078125 
Q 68.453125 32.078125 66.03125 28.46875 
Q 63.625 24.859375 63.625 18.40625 
Q 63.625 12.0625 66.03125 8.421875 
Q 68.453125 4.78125 72.703125 4.78125 
Q 76.859375 4.78125 79.265625 8.421875 
Q 81.6875 12.0625 81.6875 18.40625 
Q 81.6875 24.8125 79.265625 28.4375 
Q 76.859375 32.078125 72.703125 32.078125 
z
M 72.703125 38.28125 
Q 80.421875 38.28125 84.953125 32.90625 
Q 89.5 27.546875 89.5 18.40625 
Q 89.5 9.28125 84.9375 3.921875 
Q 80.375 -1.421875 72.703125 -1.421875 
Q 64.890625 -1.421875 60.34375 3.921875 
Q 55.8125 9.28125 55.8125 18.40625 
Q 55.8125 27.59375 60.375 32.9375 
Q 64.9375 38.28125 72.703125 38.28125 
z
M 22.3125 68.015625 
Q 18.109375 68.015625 15.6875 64.375 
Q 13.28125 60.75 13.28125 54.390625 
Q 13.28125 47.953125 15.671875 44.328125 
Q 18.0625 40.71875 22.3125 40.71875 
Q 26.5625 40.71875 28.96875 44.328125 
Q 31.390625 47.953125 31.390625 54.390625 
Q 31.390625 60.6875 28.953125 64.34375 
Q 26.515625 68.015625 22.3125 68.015625 
z
M 66.40625 74.21875 
L 74.21875 74.21875 
L 28.609375 -1.421875 
L 20.796875 -1.421875 
z
M 22.3125 74.21875 
Q 30.03125 74.21875 34.609375 68.875 
Q 39.203125 63.53125 39.203125 54.390625 
Q 39.203125 45.171875 34.640625 39.84375 
Q 30.078125 34.515625 22.3125 34.515625 
Q 14.546875 34.515625 10.03125 39.859375 
Q 5.515625 45.21875 5.515625 54.390625 
Q 5.515625 63.484375 10.046875 68.84375 
Q 14.59375 74.21875 22.3125 74.21875 
z
" id="DejaVuSans-37"/>
      </defs>
      <g transform="translate(19.925 569.717344)scale(0.1 -0.1)">
       <use xlink:href="#DejaVuSans-48"/>
       <use x="63.623047" xlink:href="#DejaVuSans-37"/>
      </g>
     </g>
    </g>
    <g id="ytick_2">
     <g id="line2d_21">
      <path clip-path="url(#p01154f893f)" d="M 42.789062 462.375268 
L 321.789062 462.375268 
" style="fill:none;stroke:#808080;stroke-dasharray:1.85,0.8;stroke-dashoffset:0;stroke-width:0.5;"/>
     </g>
     <g id="line2d_22">
      <g>
       <use style="stroke:#000000;stroke-width:0.8;" x="42.789062" xlink:href="#m1d6e2e931c" y="462.375268"/>
      </g>
     </g>
     <g id="text_11">
      <!-- 20% -->
      <g transform="translate(13.5625 466.174487)scale(0.1 -0.1)">
       <use xlink:href="#DejaVuSans-50"/>
       <use x="63.623047" xlink:href="#DejaVuSans-48"/>
       <use x="127.246094" xlink:href="#DejaVuSans-37"/>
      </g>
     </g>
    </g>
    <g id="ytick_3">
     <g id="line2d_23">
      <path clip-path="url(#p01154f893f)" d="M 42.789062 358.832411 
L 321.789062 358.832411 
" style="fill:none;stroke:#808080;stroke-dasharray:1.85,0.8;stroke-dashoffset:0;stroke-width:0.5;"/>
     </g>
     <g id="line2d_24">
      <g>
       <use style="stroke:#000000;stroke-width:0.8;" x="42.789062" xlink:href="#m1d6e2e931c" y="358.832411"/>
      </g>
     </g>
     <g id="text_12">
      <!-- 40% -->
      <g transform="translate(13.5625 362.631629)scale(0.1 -0.1)">
       <use xlink:href="#DejaVuSans-52"/>
       <use x="63.623047" xlink:href="#DejaVuSans-48"/>
       <use x="127.246094" xlink:href="#DejaVuSans-37"/>
      </g>
     </g>
    </g>
    <g id="ytick_4">
     <g id="line2d_25">
      <path clip-path="url(#p01154f893f)" d="M 42.789062 255.289554 
L 321.789062 255.289554 
" style="fill:none;stroke:#808080;stroke-dasharray:1.85,0.8;stroke-dashoffset:0;stroke-width:0.5;"/>
     </g>
     <g id="line2d_26">
      <g>
       <use style="stroke:#000000;stroke-width:0.8;" x="42.789062" xlink:href="#m1d6e2e931c" y="255.289554"/>
      </g>
     </g>
     <g id="text_13">
      <!-- 60% -->
      <defs>
       <path d="M 33.015625 40.375 
Q 26.375 40.375 22.484375 35.828125 
Q 18.609375 31.296875 18.609375 23.390625 
Q 18.609375 15.53125 22.484375 10.953125 
Q 26.375 6.390625 33.015625 6.390625 
Q 39.65625 6.390625 43.53125 10.953125 
Q 47.40625 15.53125 47.40625 23.390625 
Q 47.40625 31.296875 43.53125 35.828125 
Q 39.65625 40.375 33.015625 40.375 
z
M 52.59375 71.296875 
L 52.59375 62.3125 
Q 48.875 64.0625 45.09375 64.984375 
Q 41.3125 65.921875 37.59375 65.921875 
Q 27.828125 65.921875 22.671875 59.328125 
Q 17.53125 52.734375 16.796875 39.40625 
Q 19.671875 43.65625 24.015625 45.921875 
Q 28.375 48.1875 33.59375 48.1875 
Q 44.578125 48.1875 50.953125 41.515625 
Q 57.328125 34.859375 57.328125 23.390625 
Q 57.328125 12.15625 50.6875 5.359375 
Q 44.046875 -1.421875 33.015625 -1.421875 
Q 20.359375 -1.421875 13.671875 8.265625 
Q 6.984375 17.96875 6.984375 36.375 
Q 6.984375 53.65625 15.1875 63.9375 
Q 23.390625 74.21875 37.203125 74.21875 
Q 40.921875 74.21875 44.703125 73.484375 
Q 48.484375 72.75 52.59375 71.296875 
z
" id="DejaVuSans-54"/>
      </defs>
      <g transform="translate(13.5625 259.088772)scale(0.1 -0.1)">
       <use xlink:href="#DejaVuSans-54"/>
       <use x="63.623047" xlink:href="#DejaVuSans-48"/>
       <use x="127.246094" xlink:href="#DejaVuSans-37"/>
      </g>
     </g>
    </g>
    <g id="ytick_5">
     <g id="line2d_27">
      <path clip-path="url(#p01154f893f)" d="M 42.789062 151.746696 
L 321.789062 151.746696 
" style="fill:none;stroke:#808080;stroke-dasharray:1.85,0.8;stroke-dashoffset:0;stroke-width:0.5;"/>
     </g>
     <g id="line2d_28">
      <g>
       <use style="stroke:#000000;stroke-width:0.8;" x="42.789062" xlink:href="#m1d6e2e931c" y="151.746696"/>
      </g>
     </g>
     <g id="text_14">
      <!-- 80% -->
      <defs>
       <path d="M 31.78125 34.625 
Q 24.75 34.625 20.71875 30.859375 
Q 16.703125 27.09375 16.703125 20.515625 
Q 16.703125 13.921875 20.71875 10.15625 
Q 24.75 6.390625 31.78125 6.390625 
Q 38.8125 6.390625 42.859375 10.171875 
Q 46.921875 13.96875 46.921875 20.515625 
Q 46.921875 27.09375 42.890625 30.859375 
Q 38.875 34.625 31.78125 34.625 
z
M 21.921875 38.8125 
Q 15.578125 40.375 12.03125 44.71875 
Q 8.5 49.078125 8.5 55.328125 
Q 8.5 64.0625 14.71875 69.140625 
Q 20.953125 74.21875 31.78125 74.21875 
Q 42.671875 74.21875 48.875 69.140625 
Q 55.078125 64.0625 55.078125 55.328125 
Q 55.078125 49.078125 51.53125 44.71875 
Q 48 40.375 41.703125 38.8125 
Q 48.828125 37.15625 52.796875 32.3125 
Q 56.78125 27.484375 56.78125 20.515625 
Q 56.78125 9.90625 50.3125 4.234375 
Q 43.84375 -1.421875 31.78125 -1.421875 
Q 19.734375 -1.421875 13.25 4.234375 
Q 6.78125 9.90625 6.78125 20.515625 
Q 6.78125 27.484375 10.78125 32.3125 
Q 14.796875 37.15625 21.921875 38.8125 
z
M 18.3125 54.390625 
Q 18.3125 48.734375 21.84375 45.5625 
Q 25.390625 42.390625 31.78125 42.390625 
Q 38.140625 42.390625 41.71875 45.5625 
Q 45.3125 48.734375 45.3125 54.390625 
Q 45.3125 60.0625 41.71875 63.234375 
Q 38.140625 66.40625 31.78125 66.40625 
Q 25.390625 66.40625 21.84375 63.234375 
Q 18.3125 60.0625 18.3125 54.390625 
z
" id="DejaVuSans-56"/>
      </defs>
      <g transform="translate(13.5625 155.545915)scale(0.1 -0.1)">
       <use xlink:href="#DejaVuSans-56"/>
       <use x="63.623047" xlink:href="#DejaVuSans-48"/>
       <use x="127.246094" xlink:href="#DejaVuSans-37"/>
      </g>
     </g>
    </g>
    <g id="ytick_6">
     <g id="line2d_29">
      <path clip-path="url(#p01154f893f)" d="M 42.789062 48.203839 
L 321.789062 48.203839 
" style="fill:none;stroke:#808080;stroke-dasharray:1.85,0.8;stroke-dashoffset:0;stroke-width:0.5;"/>
     </g>
     <g id="line2d_30">
      <g>
       <use style="stroke:#000000;stroke-width:0.8;" x="42.789062" xlink:href="#m1d6e2e931c" y="48.203839"/>
      </g>
     </g>
     <g id="text_15">
      <!-- 100% -->
      <g transform="translate(7.2 52.003058)scale(0.1 -0.1)">
       <use xlink:href="#DejaVuSans-49"/>
       <use x="63.623047" xlink:href="#DejaVuSans-48"/>
       <use x="127.246094" xlink:href="#DejaVuSans-48"/>
       <use x="190.869141" xlink:href="#DejaVuSans-37"/>
      </g>
     </g>
    </g>
   </g>
   <g id="patch_3">
    <path d="M 42.789062 565.918125 
L 42.789062 22.318125 
" style="fill:none;stroke:#000000;stroke-linecap:square;stroke-linejoin:miter;stroke-width:0.8;"/>
   </g>
   <g id="patch_4">
    <path d="M 321.789062 565.918125 
L 321.789062 22.318125 
" style="fill:none;stroke:#000000;stroke-linecap:square;stroke-linejoin:miter;stroke-width:0.8;"/>
   </g>
   <g id="patch_5">
    <path d="M 42.789062 565.918125 
L 321.789062 565.918125 
" style="fill:none;stroke:#000000;stroke-linecap:square;stroke-linejoin:miter;stroke-width:0.8;"/>
   </g>
   <g id="patch_6">
    <path d="M 42.789062 22.318125 
L 321.789062 22.318125 
" style="fill:none;stroke:#000000;stroke-linecap:square;stroke-linejoin:miter;stroke-width:0.8;"/>
   </g>
   <g id="text_16">
    <!-- There are 43538.0 people quarantined all across country, as of 21/04/2020 . -->
    <defs>
     <path d="M -0.296875 72.90625 
L 61.375 72.90625 
L 61.375 64.59375 
L 35.5 64.59375 
L 35.5 0 
L 25.59375 0 
L 25.59375 64.59375 
L -0.296875 64.59375 
z
" id="DejaVuSans-84"/>
     <path d="M 54.890625 33.015625 
L 54.890625 0 
L 45.90625 0 
L 45.90625 32.71875 
Q 45.90625 40.484375 42.875 44.328125 
Q 39.84375 48.1875 33.796875 48.1875 
Q 26.515625 48.1875 22.3125 43.546875 
Q 18.109375 38.921875 18.109375 30.90625 
L 18.109375 0 
L 9.078125 0 
L 9.078125 75.984375 
L 18.109375 75.984375 
L 18.109375 46.1875 
Q 21.34375 51.125 25.703125 53.5625 
Q 30.078125 56 35.796875 56 
Q 45.21875 56 50.046875 50.171875 
Q 54.890625 44.34375 54.890625 33.015625 
z
" id="DejaVuSans-104"/>
     <path d="M 56.203125 29.59375 
L 56.203125 25.203125 
L 14.890625 25.203125 
Q 15.484375 15.921875 20.484375 11.0625 
Q 25.484375 6.203125 34.421875 6.203125 
Q 39.59375 6.203125 44.453125 7.46875 
Q 49.3125 8.734375 54.109375 11.28125 
L 54.109375 2.78125 
Q 49.265625 0.734375 44.1875 -0.34375 
Q 39.109375 -1.421875 33.890625 -1.421875 
Q 20.796875 -1.421875 13.15625 6.1875 
Q 5.515625 13.8125 5.515625 26.8125 
Q 5.515625 40.234375 12.765625 48.109375 
Q 20.015625 56 32.328125 56 
Q 43.359375 56 49.78125 48.890625 
Q 56.203125 41.796875 56.203125 29.59375 
z
M 47.21875 32.234375 
Q 47.125 39.59375 43.09375 43.984375 
Q 39.0625 48.390625 32.421875 48.390625 
Q 24.90625 48.390625 20.390625 44.140625 
Q 15.875 39.890625 15.1875 32.171875 
z
" id="DejaVuSans-101"/>
     <path d="M 41.109375 46.296875 
Q 39.59375 47.171875 37.8125 47.578125 
Q 36.03125 48 33.890625 48 
Q 26.265625 48 22.1875 43.046875 
Q 18.109375 38.09375 18.109375 28.8125 
L 18.109375 0 
L 9.078125 0 
L 9.078125 54.6875 
L 18.109375 54.6875 
L 18.109375 46.1875 
Q 20.953125 51.171875 25.484375 53.578125 
Q 30.03125 56 36.53125 56 
Q 37.453125 56 38.578125 55.875 
Q 39.703125 55.765625 41.0625 55.515625 
z
" id="DejaVuSans-114"/>
     <path id="DejaVuSans-32"/>
     <path d="M 34.28125 27.484375 
Q 23.390625 27.484375 19.1875 25 
Q 14.984375 22.515625 14.984375 16.5 
Q 14.984375 11.71875 18.140625 8.90625 
Q 21.296875 6.109375 26.703125 6.109375 
Q 34.1875 6.109375 38.703125 11.40625 
Q 43.21875 16.703125 43.21875 25.484375 
L 43.21875 27.484375 
z
M 52.203125 31.203125 
L 52.203125 0 
L 43.21875 0 
L 43.21875 8.296875 
Q 40.140625 3.328125 35.546875 0.953125 
Q 30.953125 -1.421875 24.3125 -1.421875 
Q 15.921875 -1.421875 10.953125 3.296875 
Q 6 8.015625 6 15.921875 
Q 6 25.140625 12.171875 29.828125 
Q 18.359375 34.515625 30.609375 34.515625 
L 43.21875 34.515625 
L 43.21875 35.40625 
Q 43.21875 41.609375 39.140625 45 
Q 35.0625 48.390625 27.6875 48.390625 
Q 23 48.390625 18.546875 47.265625 
Q 14.109375 46.140625 10.015625 43.890625 
L 10.015625 52.203125 
Q 14.9375 54.109375 19.578125 55.046875 
Q 24.21875 56 28.609375 56 
Q 40.484375 56 46.34375 49.84375 
Q 52.203125 43.703125 52.203125 31.203125 
z
" id="DejaVuSans-97"/>
     <path d="M 10.6875 12.40625 
L 21 12.40625 
L 21 0 
L 10.6875 0 
z
" id="DejaVuSans-46"/>
     <path d="M 18.109375 8.203125 
L 18.109375 -20.796875 
L 9.078125 -20.796875 
L 9.078125 54.6875 
L 18.109375 54.6875 
L 18.109375 46.390625 
Q 20.953125 51.265625 25.265625 53.625 
Q 29.59375 56 35.59375 56 
Q 45.5625 56 51.78125 48.09375 
Q 58.015625 40.1875 58.015625 27.296875 
Q 58.015625 14.40625 51.78125 6.484375 
Q 45.5625 -1.421875 35.59375 -1.421875 
Q 29.59375 -1.421875 25.265625 0.953125 
Q 20.953125 3.328125 18.109375 8.203125 
z
M 48.6875 27.296875 
Q 48.6875 37.203125 44.609375 42.84375 
Q 40.53125 48.484375 33.40625 48.484375 
Q 26.265625 48.484375 22.1875 42.84375 
Q 18.109375 37.203125 18.109375 27.296875 
Q 18.109375 17.390625 22.1875 11.75 
Q 26.265625 6.109375 33.40625 6.109375 
Q 40.53125 6.109375 44.609375 11.75 
Q 48.6875 17.390625 48.6875 27.296875 
z
" id="DejaVuSans-112"/>
     <path d="M 30.609375 48.390625 
Q 23.390625 48.390625 19.1875 42.75 
Q 14.984375 37.109375 14.984375 27.296875 
Q 14.984375 17.484375 19.15625 11.84375 
Q 23.34375 6.203125 30.609375 6.203125 
Q 37.796875 6.203125 41.984375 11.859375 
Q 46.1875 17.53125 46.1875 27.296875 
Q 46.1875 37.015625 41.984375 42.703125 
Q 37.796875 48.390625 30.609375 48.390625 
z
M 30.609375 56 
Q 42.328125 56 49.015625 48.375 
Q 55.71875 40.765625 55.71875 27.296875 
Q 55.71875 13.875 49.015625 6.21875 
Q 42.328125 -1.421875 30.609375 -1.421875 
Q 18.84375 -1.421875 12.171875 6.21875 
Q 5.515625 13.875 5.515625 27.296875 
Q 5.515625 40.765625 12.171875 48.375 
Q 18.84375 56 30.609375 56 
z
" id="DejaVuSans-111"/>
     <path d="M 9.421875 75.984375 
L 18.40625 75.984375 
L 18.40625 0 
L 9.421875 0 
z
" id="DejaVuSans-108"/>
     <path d="M 14.796875 27.296875 
Q 14.796875 17.390625 18.875 11.75 
Q 22.953125 6.109375 30.078125 6.109375 
Q 37.203125 6.109375 41.296875 11.75 
Q 45.40625 17.390625 45.40625 27.296875 
Q 45.40625 37.203125 41.296875 42.84375 
Q 37.203125 48.484375 30.078125 48.484375 
Q 22.953125 48.484375 18.875 42.84375 
Q 14.796875 37.203125 14.796875 27.296875 
z
M 45.40625 8.203125 
Q 42.578125 3.328125 38.25 0.953125 
Q 33.9375 -1.421875 27.875 -1.421875 
Q 17.96875 -1.421875 11.734375 6.484375 
Q 5.515625 14.40625 5.515625 27.296875 
Q 5.515625 40.1875 11.734375 48.09375 
Q 17.96875 56 27.875 56 
Q 33.9375 56 38.25 53.625 
Q 42.578125 51.265625 45.40625 46.390625 
L 45.40625 54.6875 
L 54.390625 54.6875 
L 54.390625 -20.796875 
L 45.40625 -20.796875 
z
" id="DejaVuSans-113"/>
     <path d="M 8.5 21.578125 
L 8.5 54.6875 
L 17.484375 54.6875 
L 17.484375 21.921875 
Q 17.484375 14.15625 20.5 10.265625 
Q 23.53125 6.390625 29.59375 6.390625 
Q 36.859375 6.390625 41.078125 11.03125 
Q 45.3125 15.671875 45.3125 23.6875 
L 45.3125 54.6875 
L 54.296875 54.6875 
L 54.296875 0 
L 45.3125 0 
L 45.3125 8.40625 
Q 42.046875 3.421875 37.71875 1 
Q 33.40625 -1.421875 27.6875 -1.421875 
Q 18.265625 -1.421875 13.375 4.4375 
Q 8.5 10.296875 8.5 21.578125 
z
M 31.109375 56 
z
" id="DejaVuSans-117"/>
     <path d="M 54.890625 33.015625 
L 54.890625 0 
L 45.90625 0 
L 45.90625 32.71875 
Q 45.90625 40.484375 42.875 44.328125 
Q 39.84375 48.1875 33.796875 48.1875 
Q 26.515625 48.1875 22.3125 43.546875 
Q 18.109375 38.921875 18.109375 30.90625 
L 18.109375 0 
L 9.078125 0 
L 9.078125 54.6875 
L 18.109375 54.6875 
L 18.109375 46.1875 
Q 21.34375 51.125 25.703125 53.5625 
Q 30.078125 56 35.796875 56 
Q 45.21875 56 50.046875 50.171875 
Q 54.890625 44.34375 54.890625 33.015625 
z
" id="DejaVuSans-110"/>
     <path d="M 18.3125 70.21875 
L 18.3125 54.6875 
L 36.8125 54.6875 
L 36.8125 47.703125 
L 18.3125 47.703125 
L 18.3125 18.015625 
Q 18.3125 11.328125 20.140625 9.421875 
Q 21.96875 7.515625 27.59375 7.515625 
L 36.8125 7.515625 
L 36.8125 0 
L 27.59375 0 
Q 17.1875 0 13.234375 3.875 
Q 9.28125 7.765625 9.28125 18.015625 
L 9.28125 47.703125 
L 2.6875 47.703125 
L 2.6875 54.6875 
L 9.28125 54.6875 
L 9.28125 70.21875 
z
" id="DejaVuSans-116"/>
     <path d="M 9.421875 54.6875 
L 18.40625 54.6875 
L 18.40625 0 
L 9.421875 0 
z
M 9.421875 75.984375 
L 18.40625 75.984375 
L 18.40625 64.59375 
L 9.421875 64.59375 
z
" id="DejaVuSans-105"/>
     <path d="M 45.40625 46.390625 
L 45.40625 75.984375 
L 54.390625 75.984375 
L 54.390625 0 
L 45.40625 0 
L 45.40625 8.203125 
Q 42.578125 3.328125 38.25 0.953125 
Q 33.9375 -1.421875 27.875 -1.421875 
Q 17.96875 -1.421875 11.734375 6.484375 
Q 5.515625 14.40625 5.515625 27.296875 
Q 5.515625 40.1875 11.734375 48.09375 
Q 17.96875 56 27.875 56 
Q 33.9375 56 38.25 53.625 
Q 42.578125 51.265625 45.40625 46.390625 
z
M 14.796875 27.296875 
Q 14.796875 17.390625 18.875 11.75 
Q 22.953125 6.109375 30.078125 6.109375 
Q 37.203125 6.109375 41.296875 11.75 
Q 45.40625 17.390625 45.40625 27.296875 
Q 45.40625 37.203125 41.296875 42.84375 
Q 37.203125 48.484375 30.078125 48.484375 
Q 22.953125 48.484375 18.875 42.84375 
Q 14.796875 37.203125 14.796875 27.296875 
z
" id="DejaVuSans-100"/>
     <path d="M 48.78125 52.59375 
L 48.78125 44.1875 
Q 44.96875 46.296875 41.140625 47.34375 
Q 37.3125 48.390625 33.40625 48.390625 
Q 24.65625 48.390625 19.8125 42.84375 
Q 14.984375 37.3125 14.984375 27.296875 
Q 14.984375 17.28125 19.8125 11.734375 
Q 24.65625 6.203125 33.40625 6.203125 
Q 37.3125 6.203125 41.140625 7.25 
Q 44.96875 8.296875 48.78125 10.40625 
L 48.78125 2.09375 
Q 45.015625 0.34375 40.984375 -0.53125 
Q 36.96875 -1.421875 32.421875 -1.421875 
Q 20.0625 -1.421875 12.78125 6.34375 
Q 5.515625 14.109375 5.515625 27.296875 
Q 5.515625 40.671875 12.859375 48.328125 
Q 20.21875 56 33.015625 56 
Q 37.15625 56 41.109375 55.140625 
Q 45.0625 54.296875 48.78125 52.59375 
z
" id="DejaVuSans-99"/>
     <path d="M 44.28125 53.078125 
L 44.28125 44.578125 
Q 40.484375 46.53125 36.375 47.5 
Q 32.28125 48.484375 27.875 48.484375 
Q 21.1875 48.484375 17.84375 46.4375 
Q 14.5 44.390625 14.5 40.28125 
Q 14.5 37.15625 16.890625 35.375 
Q 19.28125 33.59375 26.515625 31.984375 
L 29.59375 31.296875 
Q 39.15625 29.25 43.1875 25.515625 
Q 47.21875 21.78125 47.21875 15.09375 
Q 47.21875 7.46875 41.1875 3.015625 
Q 35.15625 -1.421875 24.609375 -1.421875 
Q 20.21875 -1.421875 15.453125 -0.5625 
Q 10.6875 0.296875 5.421875 2 
L 5.421875 11.28125 
Q 10.40625 8.6875 15.234375 7.390625 
Q 20.0625 6.109375 24.8125 6.109375 
Q 31.15625 6.109375 34.5625 8.28125 
Q 37.984375 10.453125 37.984375 14.40625 
Q 37.984375 18.0625 35.515625 20.015625 
Q 33.0625 21.96875 24.703125 23.78125 
L 21.578125 24.515625 
Q 13.234375 26.265625 9.515625 29.90625 
Q 5.8125 33.546875 5.8125 39.890625 
Q 5.8125 47.609375 11.28125 51.796875 
Q 16.75 56 26.8125 56 
Q 31.78125 56 36.171875 55.265625 
Q 40.578125 54.546875 44.28125 53.078125 
z
" id="DejaVuSans-115"/>
     <path d="M 32.171875 -5.078125 
Q 28.375 -14.84375 24.75 -17.8125 
Q 21.140625 -20.796875 15.09375 -20.796875 
L 7.90625 -20.796875 
L 7.90625 -13.28125 
L 13.1875 -13.28125 
Q 16.890625 -13.28125 18.9375 -11.515625 
Q 21 -9.765625 23.484375 -3.21875 
L 25.09375 0.875 
L 2.984375 54.6875 
L 12.5 54.6875 
L 29.59375 11.921875 
L 46.6875 54.6875 
L 56.203125 54.6875 
z
" id="DejaVuSans-121"/>
     <path d="M 11.71875 12.40625 
L 22.015625 12.40625 
L 22.015625 4 
L 14.015625 -11.625 
L 7.71875 -11.625 
L 11.71875 4 
z
" id="DejaVuSans-44"/>
     <path d="M 37.109375 75.984375 
L 37.109375 68.5 
L 28.515625 68.5 
Q 23.6875 68.5 21.796875 66.546875 
Q 19.921875 64.59375 19.921875 59.515625 
L 19.921875 54.6875 
L 34.71875 54.6875 
L 34.71875 47.703125 
L 19.921875 47.703125 
L 19.921875 0 
L 10.890625 0 
L 10.890625 47.703125 
L 2.296875 47.703125 
L 2.296875 54.6875 
L 10.890625 54.6875 
L 10.890625 58.5 
Q 10.890625 67.625 15.140625 71.796875 
Q 19.390625 75.984375 28.609375 75.984375 
z
" id="DejaVuSans-102"/>
     <path d="M 25.390625 72.90625 
L 33.6875 72.90625 
L 8.296875 -9.28125 
L 0 -9.28125 
z
" id="DejaVuSans-47"/>
    </defs>
    <g transform="translate(42.789062 672.558437)scale(0.1 -0.1)">
     <use xlink:href="#DejaVuSans-84"/>
     <use x="61.083984" xlink:href="#DejaVuSans-104"/>
     <use x="124.462891" xlink:href="#DejaVuSans-101"/>
     <use x="185.986328" xlink:href="#DejaVuSans-114"/>
     <use x="224.849609" xlink:href="#DejaVuSans-101"/>
     <use x="286.373047" xlink:href="#DejaVuSans-32"/>
     <use x="318.160156" xlink:href="#DejaVuSans-97"/>
     <use x="379.439453" xlink:href="#DejaVuSans-114"/>
     <use x="418.302734" xlink:href="#DejaVuSans-101"/>
     <use x="479.826172" xlink:href="#DejaVuSans-32"/>
     <use x="511.613281" xlink:href="#DejaVuSans-52"/>
     <use x="575.236328" xlink:href="#DejaVuSans-51"/>
     <use x="638.859375" xlink:href="#DejaVuSans-53"/>
     <use x="702.482422" xlink:href="#DejaVuSans-51"/>
     <use x="766.105469" xlink:href="#DejaVuSans-56"/>
     <use x="829.728516" xlink:href="#DejaVuSans-46"/>
     <use x="861.515625" xlink:href="#DejaVuSans-48"/>
     <use x="925.138672" xlink:href="#DejaVuSans-32"/>
     <use x="956.925781" xlink:href="#DejaVuSans-112"/>
     <use x="1020.402344" xlink:href="#DejaVuSans-101"/>
     <use x="1081.925781" xlink:href="#DejaVuSans-111"/>
     <use x="1143.107422" xlink:href="#DejaVuSans-112"/>
     <use x="1206.583984" xlink:href="#DejaVuSans-108"/>
     <use x="1234.367188" xlink:href="#DejaVuSans-101"/>
     <use x="1295.890625" xlink:href="#DejaVuSans-32"/>
     <use x="1327.677734" xlink:href="#DejaVuSans-113"/>
     <use x="1391.154297" xlink:href="#DejaVuSans-117"/>
     <use x="1454.533203" xlink:href="#DejaVuSans-97"/>
     <use x="1515.8125" xlink:href="#DejaVuSans-114"/>
     <use x="1556.925781" xlink:href="#DejaVuSans-97"/>
     <use x="1618.205078" xlink:href="#DejaVuSans-110"/>
     <use x="1681.583984" xlink:href="#DejaVuSans-116"/>
     <use x="1720.792969" xlink:href="#DejaVuSans-105"/>
     <use x="1748.576172" xlink:href="#DejaVuSans-110"/>
     <use x="1811.955078" xlink:href="#DejaVuSans-101"/>
     <use x="1873.478516" xlink:href="#DejaVuSans-100"/>
     <use x="1936.955078" xlink:href="#DejaVuSans-32"/>
     <use x="1968.742188" xlink:href="#DejaVuSans-97"/>
     <use x="2030.021484" xlink:href="#DejaVuSans-108"/>
     <use x="2057.804688" xlink:href="#DejaVuSans-108"/>
     <use x="2085.587891" xlink:href="#DejaVuSans-32"/>
     <use x="2117.375" xlink:href="#DejaVuSans-97"/>
     <use x="2178.654297" xlink:href="#DejaVuSans-99"/>
     <use x="2233.634766" xlink:href="#DejaVuSans-114"/>
     <use x="2272.498047" xlink:href="#DejaVuSans-111"/>
     <use x="2333.679688" xlink:href="#DejaVuSans-115"/>
     <use x="2385.779297" xlink:href="#DejaVuSans-115"/>
     <use x="2437.878906" xlink:href="#DejaVuSans-32"/>
     <use x="2469.666016" xlink:href="#DejaVuSans-99"/>
     <use x="2524.646484" xlink:href="#DejaVuSans-111"/>
     <use x="2585.828125" xlink:href="#DejaVuSans-117"/>
     <use x="2649.207031" xlink:href="#DejaVuSans-110"/>
     <use x="2712.585938" xlink:href="#DejaVuSans-116"/>
     <use x="2751.794922" xlink:href="#DejaVuSans-114"/>
     <use x="2792.908203" xlink:href="#DejaVuSans-121"/>
     <use x="2852.087891" xlink:href="#DejaVuSans-44"/>
     <use x="2883.875" xlink:href="#DejaVuSans-32"/>
     <use x="2915.662109" xlink:href="#DejaVuSans-97"/>
     <use x="2976.941406" xlink:href="#DejaVuSans-115"/>
     <use x="3029.041016" xlink:href="#DejaVuSans-32"/>
     <use x="3060.828125" xlink:href="#DejaVuSans-111"/>
     <use x="3122.009766" xlink:href="#DejaVuSans-102"/>
     <use x="3157.214844" xlink:href="#DejaVuSans-32"/>
     <use x="3189.001953" xlink:href="#DejaVuSans-50"/>
     <use x="3252.625" xlink:href="#DejaVuSans-49"/>
     <use x="3316.248047" xlink:href="#DejaVuSans-47"/>
     <use x="3349.939453" xlink:href="#DejaVuSans-48"/>
     <use x="3413.5625" xlink:href="#DejaVuSans-52"/>
     <use x="3477.185547" xlink:href="#DejaVuSans-47"/>
     <use x="3510.876953" xlink:href="#DejaVuSans-50"/>
     <use x="3574.5" xlink:href="#DejaVuSans-48"/>
     <use x="3638.123047" xlink:href="#DejaVuSans-50"/>
     <use x="3701.746094" xlink:href="#DejaVuSans-48"/>
     <use x="3765.369141" xlink:href="#DejaVuSans-32"/>
     <use x="3797.15625" xlink:href="#DejaVuSans-46"/>
    </g>
   </g>
   <g id="text_17">
    <!-- Quarantined people distribution as of 21/04/2020 -->
    <defs>
     <path d="M 39.40625 66.21875 
Q 28.65625 66.21875 22.328125 58.203125 
Q 16.015625 50.203125 16.015625 36.375 
Q 16.015625 22.609375 22.328125 14.59375 
Q 28.65625 6.59375 39.40625 6.59375 
Q 50.140625 6.59375 56.421875 14.59375 
Q 62.703125 22.609375 62.703125 36.375 
Q 62.703125 50.203125 56.421875 58.203125 
Q 50.140625 66.21875 39.40625 66.21875 
z
M 53.21875 1.3125 
L 66.21875 -12.890625 
L 54.296875 -12.890625 
L 43.5 -1.21875 
Q 41.890625 -1.3125 41.03125 -1.359375 
Q 40.1875 -1.421875 39.40625 -1.421875 
Q 24.03125 -1.421875 14.8125 8.859375 
Q 5.609375 19.140625 5.609375 36.375 
Q 5.609375 53.65625 14.8125 63.9375 
Q 24.03125 74.21875 39.40625 74.21875 
Q 54.734375 74.21875 63.90625 63.9375 
Q 73.09375 53.65625 73.09375 36.375 
Q 73.09375 23.6875 67.984375 14.640625 
Q 62.890625 5.609375 53.21875 1.3125 
z
" id="DejaVuSans-81"/>
     <path d="M 48.6875 27.296875 
Q 48.6875 37.203125 44.609375 42.84375 
Q 40.53125 48.484375 33.40625 48.484375 
Q 26.265625 48.484375 22.1875 42.84375 
Q 18.109375 37.203125 18.109375 27.296875 
Q 18.109375 17.390625 22.1875 11.75 
Q 26.265625 6.109375 33.40625 6.109375 
Q 40.53125 6.109375 44.609375 11.75 
Q 48.6875 17.390625 48.6875 27.296875 
z
M 18.109375 46.390625 
Q 20.953125 51.265625 25.265625 53.625 
Q 29.59375 56 35.59375 56 
Q 45.5625 56 51.78125 48.09375 
Q 58.015625 40.1875 58.015625 27.296875 
Q 58.015625 14.40625 51.78125 6.484375 
Q 45.5625 -1.421875 35.59375 -1.421875 
Q 29.59375 -1.421875 25.265625 0.953125 
Q 20.953125 3.328125 18.109375 8.203125 
L 18.109375 0 
L 9.078125 0 
L 9.078125 75.984375 
L 18.109375 75.984375 
z
" id="DejaVuSans-98"/>
    </defs>
    <g transform="translate(33.58375 16.318125)scale(0.12 -0.12)">
     <use xlink:href="#DejaVuSans-81"/>
     <use x="78.710938" xlink:href="#DejaVuSans-117"/>
     <use x="142.089844" xlink:href="#DejaVuSans-97"/>
     <use x="203.369141" xlink:href="#DejaVuSans-114"/>
     <use x="244.482422" xlink:href="#DejaVuSans-97"/>
     <use x="305.761719" xlink:href="#DejaVuSans-110"/>
     <use x="369.140625" xlink:href="#DejaVuSans-116"/>
     <use x="408.349609" xlink:href="#DejaVuSans-105"/>
     <use x="436.132812" xlink:href="#DejaVuSans-110"/>
     <use x="499.511719" xlink:href="#DejaVuSans-101"/>
     <use x="561.035156" xlink:href="#DejaVuSans-100"/>
     <use x="624.511719" xlink:href="#DejaVuSans-32"/>
     <use x="656.298828" xlink:href="#DejaVuSans-112"/>
     <use x="719.775391" xlink:href="#DejaVuSans-101"/>
     <use x="781.298828" xlink:href="#DejaVuSans-111"/>
     <use x="842.480469" xlink:href="#DejaVuSans-112"/>
     <use x="905.957031" xlink:href="#DejaVuSans-108"/>
     <use x="933.740234" xlink:href="#DejaVuSans-101"/>
     <use x="995.263672" xlink:href="#DejaVuSans-32"/>
     <use x="1027.050781" xlink:href="#DejaVuSans-100"/>
     <use x="1090.527344" xlink:href="#DejaVuSans-105"/>
     <use x="1118.310547" xlink:href="#DejaVuSans-115"/>
     <use x="1170.410156" xlink:href="#DejaVuSans-116"/>
     <use x="1209.619141" xlink:href="#DejaVuSans-114"/>
     <use x="1250.732422" xlink:href="#DejaVuSans-105"/>
     <use x="1278.515625" xlink:href="#DejaVuSans-98"/>
     <use x="1341.992188" xlink:href="#DejaVuSans-117"/>
     <use x="1405.371094" xlink:href="#DejaVuSans-116"/>
     <use x="1444.580078" xlink:href="#DejaVuSans-105"/>
     <use x="1472.363281" xlink:href="#DejaVuSans-111"/>
     <use x="1533.544922" xlink:href="#DejaVuSans-110"/>
     <use x="1596.923828" xlink:href="#DejaVuSans-32"/>
     <use x="1628.710938" xlink:href="#DejaVuSans-97"/>
     <use x="1689.990234" xlink:href="#DejaVuSans-115"/>
     <use x="1742.089844" xlink:href="#DejaVuSans-32"/>
     <use x="1773.876953" xlink:href="#DejaVuSans-111"/>
     <use x="1835.058594" xlink:href="#DejaVuSans-102"/>
     <use x="1870.263672" xlink:href="#DejaVuSans-32"/>
     <use x="1902.050781" xlink:href="#DejaVuSans-50"/>
     <use x="1965.673828" xlink:href="#DejaVuSans-49"/>
     <use x="2029.296875" xlink:href="#DejaVuSans-47"/>
     <use x="2062.988281" xlink:href="#DejaVuSans-48"/>
     <use x="2126.611328" xlink:href="#DejaVuSans-52"/>
     <use x="2190.234375" xlink:href="#DejaVuSans-47"/>
     <use x="2223.925781" xlink:href="#DejaVuSans-50"/>
     <use x="2287.548828" xlink:href="#DejaVuSans-48"/>
     <use x="2351.171875" xlink:href="#DejaVuSans-50"/>
     <use x="2414.794922" xlink:href="#DejaVuSans-48"/>
    </g>
   </g>
   <g id="legend_1">
    <g id="patch_7">
     <path d="M 328.789062 279.84625 
L 428.10625 279.84625 
Q 430.10625 279.84625 430.10625 277.84625 
L 430.10625 29.318125 
Q 430.10625 27.318125 428.10625 27.318125 
L 328.789062 27.318125 
Q 326.789062 27.318125 326.789062 29.318125 
L 326.789062 277.84625 
Q 326.789062 279.84625 328.789062 279.84625 
z
" style="fill:#ffffff;opacity:0.8;stroke:#cccccc;stroke-linejoin:miter;"/>
    </g>
    <g id="patch_8">
     <path d="M 330.789062 38.916562 
L 350.789062 38.916562 
L 350.789062 31.916562 
L 330.789062 31.916562 
z
" style="fill:#f08080;"/>
    </g>
    <g id="text_18">
     <!-- Kachin -->
     <defs>
      <path d="M 9.8125 72.90625 
L 19.671875 72.90625 
L 19.671875 42.09375 
L 52.390625 72.90625 
L 65.09375 72.90625 
L 28.90625 38.921875 
L 67.671875 0 
L 54.6875 0 
L 19.671875 35.109375 
L 19.671875 0 
L 9.8125 0 
z
" id="DejaVuSans-75"/>
     </defs>
     <g transform="translate(358.789062 38.916562)scale(0.1 -0.1)">
      <use xlink:href="#DejaVuSans-75"/>
      <use x="63.826172" xlink:href="#DejaVuSans-97"/>
      <use x="125.105469" xlink:href="#DejaVuSans-99"/>
      <use x="180.085938" xlink:href="#DejaVuSans-104"/>
      <use x="243.464844" xlink:href="#DejaVuSans-105"/>
      <use x="271.248047" xlink:href="#DejaVuSans-110"/>
     </g>
    </g>
    <g id="patch_9">
     <path d="M 330.789062 53.594687 
L 350.789062 53.594687 
L 350.789062 46.594687 
L 330.789062 46.594687 
z
" style="fill:#ff8c00;"/>
    </g>
    <g id="text_19">
     <!-- Kayar -->
     <g transform="translate(358.789062 53.594687)scale(0.1 -0.1)">
      <use xlink:href="#DejaVuSans-75"/>
      <use x="63.826172" xlink:href="#DejaVuSans-97"/>
      <use x="125.105469" xlink:href="#DejaVuSans-121"/>
      <use x="184.285156" xlink:href="#DejaVuSans-97"/>
      <use x="245.564453" xlink:href="#DejaVuSans-114"/>
     </g>
    </g>
    <g id="patch_10">
     <path d="M 330.789062 68.272812 
L 350.789062 68.272812 
L 350.789062 61.272812 
L 330.789062 61.272812 
z
" style="fill:#fafad2;"/>
    </g>
    <g id="text_20">
     <!-- Kayin -->
     <g transform="translate(358.789062 68.272812)scale(0.1 -0.1)">
      <use xlink:href="#DejaVuSans-75"/>
      <use x="63.826172" xlink:href="#DejaVuSans-97"/>
      <use x="125.105469" xlink:href="#DejaVuSans-121"/>
      <use x="184.285156" xlink:href="#DejaVuSans-105"/>
      <use x="212.068359" xlink:href="#DejaVuSans-110"/>
     </g>
    </g>
    <g id="patch_11">
     <path d="M 330.789062 82.950937 
L 350.789062 82.950937 
L 350.789062 75.950937 
L 330.789062 75.950937 
z
" style="fill:#ffdab9;"/>
    </g>
    <g id="text_21">
     <!-- Chin -->
     <defs>
      <path d="M 64.40625 67.28125 
L 64.40625 56.890625 
Q 59.421875 61.53125 53.78125 63.8125 
Q 48.140625 66.109375 41.796875 66.109375 
Q 29.296875 66.109375 22.65625 58.46875 
Q 16.015625 50.828125 16.015625 36.375 
Q 16.015625 21.96875 22.65625 14.328125 
Q 29.296875 6.6875 41.796875 6.6875 
Q 48.140625 6.6875 53.78125 8.984375 
Q 59.421875 11.28125 64.40625 15.921875 
L 64.40625 5.609375 
Q 59.234375 2.09375 53.4375 0.328125 
Q 47.65625 -1.421875 41.21875 -1.421875 
Q 24.65625 -1.421875 15.125 8.703125 
Q 5.609375 18.84375 5.609375 36.375 
Q 5.609375 53.953125 15.125 64.078125 
Q 24.65625 74.21875 41.21875 74.21875 
Q 47.75 74.21875 53.53125 72.484375 
Q 59.328125 70.75 64.40625 67.28125 
z
" id="DejaVuSans-67"/>
     </defs>
     <g transform="translate(358.789062 82.950937)scale(0.1 -0.1)">
      <use xlink:href="#DejaVuSans-67"/>
      <use x="69.824219" xlink:href="#DejaVuSans-104"/>
      <use x="133.203125" xlink:href="#DejaVuSans-105"/>
      <use x="160.986328" xlink:href="#DejaVuSans-110"/>
     </g>
    </g>
    <g id="patch_12">
     <path d="M 330.789062 97.629063 
L 350.789062 97.629063 
L 350.789062 90.629063 
L 330.789062 90.629063 
z
" style="fill:#dda0dd;"/>
    </g>
    <g id="text_22">
     <!-- Mon -->
     <defs>
      <path d="M 9.8125 72.90625 
L 24.515625 72.90625 
L 43.109375 23.296875 
L 61.8125 72.90625 
L 76.515625 72.90625 
L 76.515625 0 
L 66.890625 0 
L 66.890625 64.015625 
L 48.09375 14.015625 
L 38.1875 14.015625 
L 19.390625 64.015625 
L 19.390625 0 
L 9.8125 0 
z
" id="DejaVuSans-77"/>
     </defs>
     <g transform="translate(358.789062 97.629063)scale(0.1 -0.1)">
      <use xlink:href="#DejaVuSans-77"/>
      <use x="86.279297" xlink:href="#DejaVuSans-111"/>
      <use x="147.460938" xlink:href="#DejaVuSans-110"/>
     </g>
    </g>
    <g id="patch_13">
     <path d="M 330.789062 112.307187 
L 350.789062 112.307187 
L 350.789062 105.307187 
L 330.789062 105.307187 
z
" style="fill:#9370db;"/>
    </g>
    <g id="text_23">
     <!-- Rakhine -->
     <defs>
      <path d="M 44.390625 34.1875 
Q 47.5625 33.109375 50.5625 29.59375 
Q 53.5625 26.078125 56.59375 19.921875 
L 66.609375 0 
L 56 0 
L 46.6875 18.703125 
Q 43.0625 26.03125 39.671875 28.421875 
Q 36.28125 30.8125 30.421875 30.8125 
L 19.671875 30.8125 
L 19.671875 0 
L 9.8125 0 
L 9.8125 72.90625 
L 32.078125 72.90625 
Q 44.578125 72.90625 50.734375 67.671875 
Q 56.890625 62.453125 56.890625 51.90625 
Q 56.890625 45.015625 53.6875 40.46875 
Q 50.484375 35.9375 44.390625 34.1875 
z
M 19.671875 64.796875 
L 19.671875 38.921875 
L 32.078125 38.921875 
Q 39.203125 38.921875 42.84375 42.21875 
Q 46.484375 45.515625 46.484375 51.90625 
Q 46.484375 58.296875 42.84375 61.546875 
Q 39.203125 64.796875 32.078125 64.796875 
z
" id="DejaVuSans-82"/>
      <path d="M 9.078125 75.984375 
L 18.109375 75.984375 
L 18.109375 31.109375 
L 44.921875 54.6875 
L 56.390625 54.6875 
L 27.390625 29.109375 
L 57.625 0 
L 45.90625 0 
L 18.109375 26.703125 
L 18.109375 0 
L 9.078125 0 
z
" id="DejaVuSans-107"/>
     </defs>
     <g transform="translate(358.789062 112.307187)scale(0.1 -0.1)">
      <use xlink:href="#DejaVuSans-82"/>
      <use x="67.232422" xlink:href="#DejaVuSans-97"/>
      <use x="128.511719" xlink:href="#DejaVuSans-107"/>
      <use x="186.421875" xlink:href="#DejaVuSans-104"/>
      <use x="249.800781" xlink:href="#DejaVuSans-105"/>
      <use x="277.583984" xlink:href="#DejaVuSans-110"/>
      <use x="340.962891" xlink:href="#DejaVuSans-101"/>
     </g>
    </g>
    <g id="patch_14">
     <path d="M 330.789062 126.985312 
L 350.789062 126.985312 
L 350.789062 119.985312 
L 330.789062 119.985312 
z
" style="fill:#800080;"/>
    </g>
    <g id="text_24">
     <!-- Shan (S) -->
     <defs>
      <path d="M 53.515625 70.515625 
L 53.515625 60.890625 
Q 47.90625 63.578125 42.921875 64.890625 
Q 37.9375 66.21875 33.296875 66.21875 
Q 25.25 66.21875 20.875 63.09375 
Q 16.5 59.96875 16.5 54.203125 
Q 16.5 49.359375 19.40625 46.890625 
Q 22.3125 44.4375 30.421875 42.921875 
L 36.375 41.703125 
Q 47.40625 39.59375 52.65625 34.296875 
Q 57.90625 29 57.90625 20.125 
Q 57.90625 9.515625 50.796875 4.046875 
Q 43.703125 -1.421875 29.984375 -1.421875 
Q 24.8125 -1.421875 18.96875 -0.25 
Q 13.140625 0.921875 6.890625 3.21875 
L 6.890625 13.375 
Q 12.890625 10.015625 18.65625 8.296875 
Q 24.421875 6.59375 29.984375 6.59375 
Q 38.421875 6.59375 43.015625 9.90625 
Q 47.609375 13.234375 47.609375 19.390625 
Q 47.609375 24.75 44.3125 27.78125 
Q 41.015625 30.8125 33.5 32.328125 
L 27.484375 33.5 
Q 16.453125 35.6875 11.515625 40.375 
Q 6.59375 45.0625 6.59375 53.421875 
Q 6.59375 63.09375 13.40625 68.65625 
Q 20.21875 74.21875 32.171875 74.21875 
Q 37.3125 74.21875 42.625 73.28125 
Q 47.953125 72.359375 53.515625 70.515625 
z
" id="DejaVuSans-83"/>
      <path d="M 31 75.875 
Q 24.46875 64.65625 21.28125 53.65625 
Q 18.109375 42.671875 18.109375 31.390625 
Q 18.109375 20.125 21.3125 9.0625 
Q 24.515625 -2 31 -13.1875 
L 23.1875 -13.1875 
Q 15.875 -1.703125 12.234375 9.375 
Q 8.59375 20.453125 8.59375 31.390625 
Q 8.59375 42.28125 12.203125 53.3125 
Q 15.828125 64.359375 23.1875 75.875 
z
" id="DejaVuSans-40"/>
      <path d="M 8.015625 75.875 
L 15.828125 75.875 
Q 23.140625 64.359375 26.78125 53.3125 
Q 30.421875 42.28125 30.421875 31.390625 
Q 30.421875 20.453125 26.78125 9.375 
Q 23.140625 -1.703125 15.828125 -13.1875 
L 8.015625 -13.1875 
Q 14.5 -2 17.703125 9.0625 
Q 20.90625 20.125 20.90625 31.390625 
Q 20.90625 42.671875 17.703125 53.65625 
Q 14.5 64.65625 8.015625 75.875 
z
" id="DejaVuSans-41"/>
     </defs>
     <g transform="translate(358.789062 126.985312)scale(0.1 -0.1)">
      <use xlink:href="#DejaVuSans-83"/>
      <use x="63.476562" xlink:href="#DejaVuSans-104"/>
      <use x="126.855469" xlink:href="#DejaVuSans-97"/>
      <use x="188.134766" xlink:href="#DejaVuSans-110"/>
      <use x="251.513672" xlink:href="#DejaVuSans-32"/>
      <use x="283.300781" xlink:href="#DejaVuSans-40"/>
      <use x="322.314453" xlink:href="#DejaVuSans-83"/>
      <use x="385.791016" xlink:href="#DejaVuSans-41"/>
     </g>
    </g>
    <g id="patch_15">
     <path d="M 330.789062 141.663437 
L 350.789062 141.663437 
L 350.789062 134.663437 
L 330.789062 134.663437 
z
" style="fill:#7fff00;"/>
    </g>
    <g id="text_25">
     <!-- Shan (N) -->
     <defs>
      <path d="M 9.8125 72.90625 
L 23.09375 72.90625 
L 55.421875 11.921875 
L 55.421875 72.90625 
L 64.984375 72.90625 
L 64.984375 0 
L 51.703125 0 
L 19.390625 60.984375 
L 19.390625 0 
L 9.8125 0 
z
" id="DejaVuSans-78"/>
     </defs>
     <g transform="translate(358.789062 141.663437)scale(0.1 -0.1)">
      <use xlink:href="#DejaVuSans-83"/>
      <use x="63.476562" xlink:href="#DejaVuSans-104"/>
      <use x="126.855469" xlink:href="#DejaVuSans-97"/>
      <use x="188.134766" xlink:href="#DejaVuSans-110"/>
      <use x="251.513672" xlink:href="#DejaVuSans-32"/>
      <use x="283.300781" xlink:href="#DejaVuSans-40"/>
      <use x="322.314453" xlink:href="#DejaVuSans-78"/>
      <use x="397.119141" xlink:href="#DejaVuSans-41"/>
     </g>
    </g>
    <g id="patch_16">
     <path d="M 330.789062 156.341562 
L 350.789062 156.341562 
L 350.789062 149.341562 
L 330.789062 149.341562 
z
" style="fill:#00fa9a;"/>
    </g>
    <g id="text_26">
     <!-- Shan (E) -->
     <defs>
      <path d="M 9.8125 72.90625 
L 55.90625 72.90625 
L 55.90625 64.59375 
L 19.671875 64.59375 
L 19.671875 43.015625 
L 54.390625 43.015625 
L 54.390625 34.71875 
L 19.671875 34.71875 
L 19.671875 8.296875 
L 56.78125 8.296875 
L 56.78125 0 
L 9.8125 0 
z
" id="DejaVuSans-69"/>
     </defs>
     <g transform="translate(358.789062 156.341562)scale(0.1 -0.1)">
      <use xlink:href="#DejaVuSans-83"/>
      <use x="63.476562" xlink:href="#DejaVuSans-104"/>
      <use x="126.855469" xlink:href="#DejaVuSans-97"/>
      <use x="188.134766" xlink:href="#DejaVuSans-110"/>
      <use x="251.513672" xlink:href="#DejaVuSans-32"/>
      <use x="283.300781" xlink:href="#DejaVuSans-40"/>
      <use x="322.314453" xlink:href="#DejaVuSans-69"/>
      <use x="385.498047" xlink:href="#DejaVuSans-41"/>
     </g>
    </g>
    <g id="patch_17">
     <path d="M 330.789062 171.019687 
L 350.789062 171.019687 
L 350.789062 164.019687 
L 330.789062 164.019687 
z
" style="fill:#008000;"/>
    </g>
    <g id="text_27">
     <!-- Sagaing -->
     <defs>
      <path d="M 45.40625 27.984375 
Q 45.40625 37.75 41.375 43.109375 
Q 37.359375 48.484375 30.078125 48.484375 
Q 22.859375 48.484375 18.828125 43.109375 
Q 14.796875 37.75 14.796875 27.984375 
Q 14.796875 18.265625 18.828125 12.890625 
Q 22.859375 7.515625 30.078125 7.515625 
Q 37.359375 7.515625 41.375 12.890625 
Q 45.40625 18.265625 45.40625 27.984375 
z
M 54.390625 6.78125 
Q 54.390625 -7.171875 48.1875 -13.984375 
Q 42 -20.796875 29.203125 -20.796875 
Q 24.46875 -20.796875 20.265625 -20.09375 
Q 16.0625 -19.390625 12.109375 -17.921875 
L 12.109375 -9.1875 
Q 16.0625 -11.328125 19.921875 -12.34375 
Q 23.78125 -13.375 27.78125 -13.375 
Q 36.625 -13.375 41.015625 -8.765625 
Q 45.40625 -4.15625 45.40625 5.171875 
L 45.40625 9.625 
Q 42.625 4.78125 38.28125 2.390625 
Q 33.9375 0 27.875 0 
Q 17.828125 0 11.671875 7.65625 
Q 5.515625 15.328125 5.515625 27.984375 
Q 5.515625 40.671875 11.671875 48.328125 
Q 17.828125 56 27.875 56 
Q 33.9375 56 38.28125 53.609375 
Q 42.625 51.21875 45.40625 46.390625 
L 45.40625 54.6875 
L 54.390625 54.6875 
z
" id="DejaVuSans-103"/>
     </defs>
     <g transform="translate(358.789062 171.019687)scale(0.1 -0.1)">
      <use xlink:href="#DejaVuSans-83"/>
      <use x="63.476562" xlink:href="#DejaVuSans-97"/>
      <use x="124.755859" xlink:href="#DejaVuSans-103"/>
      <use x="188.232422" xlink:href="#DejaVuSans-97"/>
      <use x="249.511719" xlink:href="#DejaVuSans-105"/>
      <use x="277.294922" xlink:href="#DejaVuSans-110"/>
      <use x="340.673828" xlink:href="#DejaVuSans-103"/>
     </g>
    </g>
    <g id="patch_18">
     <path d="M 330.789062 185.697812 
L 350.789062 185.697812 
L 350.789062 178.697812 
L 330.789062 178.697812 
z
" style="fill:#00ffff;"/>
    </g>
    <g id="text_28">
     <!-- Mandalay -->
     <g transform="translate(358.789062 185.697812)scale(0.1 -0.1)">
      <use xlink:href="#DejaVuSans-77"/>
      <use x="86.279297" xlink:href="#DejaVuSans-97"/>
      <use x="147.558594" xlink:href="#DejaVuSans-110"/>
      <use x="210.9375" xlink:href="#DejaVuSans-100"/>
      <use x="274.414062" xlink:href="#DejaVuSans-97"/>
      <use x="335.693359" xlink:href="#DejaVuSans-108"/>
      <use x="363.476562" xlink:href="#DejaVuSans-97"/>
      <use x="424.755859" xlink:href="#DejaVuSans-121"/>
     </g>
    </g>
    <g id="patch_19">
     <path d="M 330.789062 200.375937 
L 350.789062 200.375937 
L 350.789062 193.375937 
L 330.789062 193.375937 
z
" style="fill:#48d1cc;"/>
    </g>
    <g id="text_29">
     <!-- Magway -->
     <defs>
      <path d="M 4.203125 54.6875 
L 13.1875 54.6875 
L 24.421875 12.015625 
L 35.59375 54.6875 
L 46.1875 54.6875 
L 57.421875 12.015625 
L 68.609375 54.6875 
L 77.59375 54.6875 
L 63.28125 0 
L 52.6875 0 
L 40.921875 44.828125 
L 29.109375 0 
L 18.5 0 
z
" id="DejaVuSans-119"/>
     </defs>
     <g transform="translate(358.789062 200.375937)scale(0.1 -0.1)">
      <use xlink:href="#DejaVuSans-77"/>
      <use x="86.279297" xlink:href="#DejaVuSans-97"/>
      <use x="147.558594" xlink:href="#DejaVuSans-103"/>
      <use x="211.035156" xlink:href="#DejaVuSans-119"/>
      <use x="292.822266" xlink:href="#DejaVuSans-97"/>
      <use x="354.101562" xlink:href="#DejaVuSans-121"/>
     </g>
    </g>
    <g id="patch_20">
     <path d="M 330.789062 215.054062 
L 350.789062 215.054062 
L 350.789062 208.054062 
L 330.789062 208.054062 
z
" style="fill:#b0e0e6;"/>
    </g>
    <g id="text_30">
     <!-- Bago -->
     <defs>
      <path d="M 19.671875 34.8125 
L 19.671875 8.109375 
L 35.5 8.109375 
Q 43.453125 8.109375 47.28125 11.40625 
Q 51.125 14.703125 51.125 21.484375 
Q 51.125 28.328125 47.28125 31.5625 
Q 43.453125 34.8125 35.5 34.8125 
z
M 19.671875 64.796875 
L 19.671875 42.828125 
L 34.28125 42.828125 
Q 41.5 42.828125 45.03125 45.53125 
Q 48.578125 48.25 48.578125 53.8125 
Q 48.578125 59.328125 45.03125 62.0625 
Q 41.5 64.796875 34.28125 64.796875 
z
M 9.8125 72.90625 
L 35.015625 72.90625 
Q 46.296875 72.90625 52.390625 68.21875 
Q 58.5 63.53125 58.5 54.890625 
Q 58.5 48.1875 55.375 44.234375 
Q 52.25 40.28125 46.1875 39.3125 
Q 53.46875 37.75 57.5 32.78125 
Q 61.53125 27.828125 61.53125 20.40625 
Q 61.53125 10.640625 54.890625 5.3125 
Q 48.25 0 35.984375 0 
L 9.8125 0 
z
" id="DejaVuSans-66"/>
     </defs>
     <g transform="translate(358.789062 215.054062)scale(0.1 -0.1)">
      <use xlink:href="#DejaVuSans-66"/>
      <use x="68.603516" xlink:href="#DejaVuSans-97"/>
      <use x="129.882812" xlink:href="#DejaVuSans-103"/>
      <use x="193.359375" xlink:href="#DejaVuSans-111"/>
     </g>
    </g>
    <g id="patch_21">
     <path d="M 330.789062 229.732187 
L 350.789062 229.732187 
L 350.789062 222.732187 
L 330.789062 222.732187 
z
" style="fill:#6495ed;"/>
    </g>
    <g id="text_31">
     <!-- Yangon -->
     <defs>
      <path d="M -0.203125 72.90625 
L 10.40625 72.90625 
L 30.609375 42.921875 
L 50.6875 72.90625 
L 61.28125 72.90625 
L 35.5 34.71875 
L 35.5 0 
L 25.59375 0 
L 25.59375 34.71875 
z
" id="DejaVuSans-89"/>
     </defs>
     <g transform="translate(358.789062 229.732187)scale(0.1 -0.1)">
      <use xlink:href="#DejaVuSans-89"/>
      <use x="47.333984" xlink:href="#DejaVuSans-97"/>
      <use x="108.613281" xlink:href="#DejaVuSans-110"/>
      <use x="171.992188" xlink:href="#DejaVuSans-103"/>
      <use x="235.46875" xlink:href="#DejaVuSans-111"/>
      <use x="296.650391" xlink:href="#DejaVuSans-110"/>
     </g>
    </g>
    <g id="patch_22">
     <path d="M 330.789062 244.410312 
L 350.789062 244.410312 
L 350.789062 237.410312 
L 330.789062 237.410312 
z
" style="fill:#000080;"/>
    </g>
    <g id="text_32">
     <!-- Ayeyarwaddy -->
     <defs>
      <path d="M 34.1875 63.1875 
L 20.796875 26.90625 
L 47.609375 26.90625 
z
M 28.609375 72.90625 
L 39.796875 72.90625 
L 67.578125 0 
L 57.328125 0 
L 50.6875 18.703125 
L 17.828125 18.703125 
L 11.1875 0 
L 0.78125 0 
z
" id="DejaVuSans-65"/>
     </defs>
     <g transform="translate(358.789062 244.410312)scale(0.1 -0.1)">
      <use xlink:href="#DejaVuSans-65"/>
      <use x="61.658203" xlink:href="#DejaVuSans-121"/>
      <use x="120.837891" xlink:href="#DejaVuSans-101"/>
      <use x="182.361328" xlink:href="#DejaVuSans-121"/>
      <use x="241.541016" xlink:href="#DejaVuSans-97"/>
      <use x="302.820312" xlink:href="#DejaVuSans-114"/>
      <use x="343.933594" xlink:href="#DejaVuSans-119"/>
      <use x="425.720703" xlink:href="#DejaVuSans-97"/>
      <use x="487" xlink:href="#DejaVuSans-100"/>
      <use x="550.476562" xlink:href="#DejaVuSans-100"/>
      <use x="613.953125" xlink:href="#DejaVuSans-121"/>
     </g>
    </g>
    <g id="patch_23">
     <path d="M 330.789062 259.088437 
L 350.789062 259.088437 
L 350.789062 252.088437 
L 330.789062 252.088437 
z
" style="fill:#f5deb3;"/>
    </g>
    <g id="text_33">
     <!-- Tanintharyi -->
     <g transform="translate(358.789062 259.088437)scale(0.1 -0.1)">
      <use xlink:href="#DejaVuSans-84"/>
      <use x="44.583984" xlink:href="#DejaVuSans-97"/>
      <use x="105.863281" xlink:href="#DejaVuSans-110"/>
      <use x="169.242188" xlink:href="#DejaVuSans-105"/>
      <use x="197.025391" xlink:href="#DejaVuSans-110"/>
      <use x="260.404297" xlink:href="#DejaVuSans-116"/>
      <use x="299.613281" xlink:href="#DejaVuSans-104"/>
      <use x="362.992188" xlink:href="#DejaVuSans-97"/>
      <use x="424.271484" xlink:href="#DejaVuSans-114"/>
      <use x="465.384766" xlink:href="#DejaVuSans-121"/>
      <use x="524.564453" xlink:href="#DejaVuSans-105"/>
     </g>
    </g>
    <g id="patch_24">
     <path d="M 330.789062 273.766562 
L 350.789062 273.766562 
L 350.789062 266.766562 
L 330.789062 266.766562 
z
" style="fill:#b8860b;"/>
    </g>
    <g id="text_34">
     <!-- Naypyitaw -->
     <g transform="translate(358.789062 273.766562)scale(0.1 -0.1)">
      <use xlink:href="#DejaVuSans-78"/>
      <use x="74.804688" xlink:href="#DejaVuSans-97"/>
      <use x="136.083984" xlink:href="#DejaVuSans-121"/>
      <use x="195.263672" xlink:href="#DejaVuSans-112"/>
      <use x="258.740234" xlink:href="#DejaVuSans-121"/>
      <use x="317.919922" xlink:href="#DejaVuSans-105"/>
      <use x="345.703125" xlink:href="#DejaVuSans-116"/>
      <use x="384.912109" xlink:href="#DejaVuSans-97"/>
      <use x="446.191406" xlink:href="#DejaVuSans-119"/>
     </g>
    </g>
   </g>
  </g>
 </g>
 <defs>
  <clipPath id="p01154f893f">
   <rect height="543.6" width="279" x="42.789062" y="22.318125"/>
  </clipPath>
 </defs>
</svg>
