<?xml version="1.0" encoding="utf-8" standalone="no"?>
<!DOCTYPE svg PUBLIC "-//W3C//DTD SVG 1.1//EN"
  "http://www.w3.org/Graphics/SVG/1.1/DTD/svg11.dtd">
<!-- Created with matplotlib (https://matplotlib.org/) -->
<svg height="337.136875pt" version="1.1" viewBox="0 0 585.7625 337.136875" width="585.7625pt" xmlns="http://www.w3.org/2000/svg" xmlns:xlink="http://www.w3.org/1999/xlink">
 <defs>
  <style type="text/css">
*{stroke-linecap:butt;stroke-linejoin:round;}
  </style>
 </defs>
 <g id="figure_1">
  <g id="patch_1">
   <path d="M 0 337.136875 
L 585.7625 337.136875 
L 585.7625 0 
L 0 0 
z
" style="fill:#ffffff;"/>
  </g>
  <g id="axes_1">
   <g id="patch_2">
    <path d="M 20.5625 294.118125 
L 578.5625 294.118125 
L 578.5625 22.318125 
L 20.5625 22.318125 
z
" style="fill:#ffffff;"/>
   </g>
   <g id="matplotlib.axis_1">
    <g id="xtick_1">
     <g id="line2d_1">
      <path clip-path="url(#p0700267b6a)" d="M 51.43997 294.118125 
L 51.43997 22.318125 
" style="fill:none;stroke:#c0c0c0;stroke-dasharray:0.5,0.825;stroke-dashoffset:0;stroke-width:0.5;"/>
     </g>
     <g id="line2d_2">
      <defs>
       <path d="M 0 0 
L 0 3.5 
" id="m3e84ab2ab8" style="stroke:#000000;stroke-width:0.8;"/>
      </defs>
      <g>
       <use style="stroke:#000000;stroke-width:0.8;" x="51.43997" xlink:href="#m3e84ab2ab8" y="294.118125"/>
      </g>
     </g>
     <g id="text_1">
      <!-- 23/03 -->
      <defs>
       <path d="M 19.1875 8.296875 
L 53.609375 8.296875 
L 53.609375 0 
L 7.328125 0 
L 7.328125 8.296875 
Q 12.9375 14.109375 22.625 23.890625 
Q 32.328125 33.6875 34.8125 36.53125 
Q 39.546875 41.84375 41.421875 45.53125 
Q 43.3125 49.21875 43.3125 52.78125 
Q 43.3125 58.59375 39.234375 62.25 
Q 35.15625 65.921875 28.609375 65.921875 
Q 23.96875 65.921875 18.8125 64.3125 
Q 13.671875 62.703125 7.8125 59.421875 
L 7.8125 69.390625 
Q 13.765625 71.78125 18.9375 73 
Q 24.125 74.21875 28.421875 74.21875 
Q 39.75 74.21875 46.484375 68.546875 
Q 53.21875 62.890625 53.21875 53.421875 
Q 53.21875 48.921875 51.53125 44.890625 
Q 49.859375 40.875 45.40625 35.40625 
Q 44.1875 33.984375 37.640625 27.21875 
Q 31.109375 20.453125 19.1875 8.296875 
z
" id="DejaVuSans-50"/>
       <path d="M 40.578125 39.3125 
Q 47.65625 37.796875 51.625 33 
Q 55.609375 28.21875 55.609375 21.1875 
Q 55.609375 10.40625 48.1875 4.484375 
Q 40.765625 -1.421875 27.09375 -1.421875 
Q 22.515625 -1.421875 17.65625 -0.515625 
Q 12.796875 0.390625 7.625 2.203125 
L 7.625 11.71875 
Q 11.71875 9.328125 16.59375 8.109375 
Q 21.484375 6.890625 26.8125 6.890625 
Q 36.078125 6.890625 40.9375 10.546875 
Q 45.796875 14.203125 45.796875 21.1875 
Q 45.796875 27.640625 41.28125 31.265625 
Q 36.765625 34.90625 28.71875 34.90625 
L 20.21875 34.90625 
L 20.21875 43.015625 
L 29.109375 43.015625 
Q 36.375 43.015625 40.234375 45.921875 
Q 44.09375 48.828125 44.09375 54.296875 
Q 44.09375 59.90625 40.109375 62.90625 
Q 36.140625 65.921875 28.71875 65.921875 
Q 24.65625 65.921875 20.015625 65.03125 
Q 15.375 64.15625 9.8125 62.3125 
L 9.8125 71.09375 
Q 15.4375 72.65625 20.34375 73.4375 
Q 25.25 74.21875 29.59375 74.21875 
Q 40.828125 74.21875 47.359375 69.109375 
Q 53.90625 64.015625 53.90625 55.328125 
Q 53.90625 49.265625 50.4375 45.09375 
Q 46.96875 40.921875 40.578125 39.3125 
z
" id="DejaVuSans-51"/>
       <path d="M 25.390625 72.90625 
L 33.6875 72.90625 
L 8.296875 -9.28125 
L 0 -9.28125 
z
" id="DejaVuSans-47"/>
       <path d="M 31.78125 66.40625 
Q 24.171875 66.40625 20.328125 58.90625 
Q 16.5 51.421875 16.5 36.375 
Q 16.5 21.390625 20.328125 13.890625 
Q 24.171875 6.390625 31.78125 6.390625 
Q 39.453125 6.390625 43.28125 13.890625 
Q 47.125 21.390625 47.125 36.375 
Q 47.125 51.421875 43.28125 58.90625 
Q 39.453125 66.40625 31.78125 66.40625 
z
M 31.78125 74.21875 
Q 44.046875 74.21875 50.515625 64.515625 
Q 56.984375 54.828125 56.984375 36.375 
Q 56.984375 17.96875 50.515625 8.265625 
Q 44.046875 -1.421875 31.78125 -1.421875 
Q 19.53125 -1.421875 13.0625 8.265625 
Q 6.59375 17.96875 6.59375 36.375 
Q 6.59375 54.828125 13.0625 64.515625 
Q 19.53125 74.21875 31.78125 74.21875 
z
" id="DejaVuSans-48"/>
      </defs>
      <g transform="translate(54.199345 329.936875)rotate(-90)scale(0.1 -0.1)">
       <use xlink:href="#DejaVuSans-50"/>
       <use x="63.623047" xlink:href="#DejaVuSans-51"/>
       <use x="127.246094" xlink:href="#DejaVuSans-47"/>
       <use x="160.9375" xlink:href="#DejaVuSans-48"/>
       <use x="224.560547" xlink:href="#DejaVuSans-51"/>
      </g>
     </g>
    </g>
    <g id="xtick_2">
     <g id="line2d_3">
      <path clip-path="url(#p0700267b6a)" d="M 65.224555 294.118125 
L 65.224555 22.318125 
" style="fill:none;stroke:#c0c0c0;stroke-dasharray:0.5,0.825;stroke-dashoffset:0;stroke-width:0.5;"/>
     </g>
     <g id="line2d_4">
      <g>
       <use style="stroke:#000000;stroke-width:0.8;" x="65.224555" xlink:href="#m3e84ab2ab8" y="294.118125"/>
      </g>
     </g>
     <g id="text_2">
      <!-- 24/03 -->
      <defs>
       <path d="M 37.796875 64.3125 
L 12.890625 25.390625 
L 37.796875 25.390625 
z
M 35.203125 72.90625 
L 47.609375 72.90625 
L 47.609375 25.390625 
L 58.015625 25.390625 
L 58.015625 17.1875 
L 47.609375 17.1875 
L 47.609375 0 
L 37.796875 0 
L 37.796875 17.1875 
L 4.890625 17.1875 
L 4.890625 26.703125 
z
" id="DejaVuSans-52"/>
      </defs>
      <g transform="translate(67.98393 329.936875)rotate(-90)scale(0.1 -0.1)">
       <use xlink:href="#DejaVuSans-50"/>
       <use x="63.623047" xlink:href="#DejaVuSans-52"/>
       <use x="127.246094" xlink:href="#DejaVuSans-47"/>
       <use x="160.9375" xlink:href="#DejaVuSans-48"/>
       <use x="224.560547" xlink:href="#DejaVuSans-51"/>
      </g>
     </g>
    </g>
    <g id="xtick_3">
     <g id="line2d_5">
      <path clip-path="url(#p0700267b6a)" d="M 79.00914 294.118125 
L 79.00914 22.318125 
" style="fill:none;stroke:#c0c0c0;stroke-dasharray:0.5,0.825;stroke-dashoffset:0;stroke-width:0.5;"/>
     </g>
     <g id="line2d_6">
      <g>
       <use style="stroke:#000000;stroke-width:0.8;" x="79.00914" xlink:href="#m3e84ab2ab8" y="294.118125"/>
      </g>
     </g>
     <g id="text_3">
      <!-- 25/03 -->
      <defs>
       <path d="M 10.796875 72.90625 
L 49.515625 72.90625 
L 49.515625 64.59375 
L 19.828125 64.59375 
L 19.828125 46.734375 
Q 21.96875 47.46875 24.109375 47.828125 
Q 26.265625 48.1875 28.421875 48.1875 
Q 40.625 48.1875 47.75 41.5 
Q 54.890625 34.8125 54.890625 23.390625 
Q 54.890625 11.625 47.5625 5.09375 
Q 40.234375 -1.421875 26.90625 -1.421875 
Q 22.3125 -1.421875 17.546875 -0.640625 
Q 12.796875 0.140625 7.71875 1.703125 
L 7.71875 11.625 
Q 12.109375 9.234375 16.796875 8.0625 
Q 21.484375 6.890625 26.703125 6.890625 
Q 35.15625 6.890625 40.078125 11.328125 
Q 45.015625 15.765625 45.015625 23.390625 
Q 45.015625 31 40.078125 35.4375 
Q 35.15625 39.890625 26.703125 39.890625 
Q 22.75 39.890625 18.8125 39.015625 
Q 14.890625 38.140625 10.796875 36.28125 
z
" id="DejaVuSans-53"/>
      </defs>
      <g transform="translate(81.768515 329.936875)rotate(-90)scale(0.1 -0.1)">
       <use xlink:href="#DejaVuSans-50"/>
       <use x="63.623047" xlink:href="#DejaVuSans-53"/>
       <use x="127.246094" xlink:href="#DejaVuSans-47"/>
       <use x="160.9375" xlink:href="#DejaVuSans-48"/>
       <use x="224.560547" xlink:href="#DejaVuSans-51"/>
      </g>
     </g>
    </g>
    <g id="xtick_4">
     <g id="line2d_7">
      <path clip-path="url(#p0700267b6a)" d="M 92.793725 294.118125 
L 92.793725 22.318125 
" style="fill:none;stroke:#c0c0c0;stroke-dasharray:0.5,0.825;stroke-dashoffset:0;stroke-width:0.5;"/>
     </g>
     <g id="line2d_8">
      <g>
       <use style="stroke:#000000;stroke-width:0.8;" x="92.793725" xlink:href="#m3e84ab2ab8" y="294.118125"/>
      </g>
     </g>
     <g id="text_4">
      <!-- 26/03 -->
      <defs>
       <path d="M 33.015625 40.375 
Q 26.375 40.375 22.484375 35.828125 
Q 18.609375 31.296875 18.609375 23.390625 
Q 18.609375 15.53125 22.484375 10.953125 
Q 26.375 6.390625 33.015625 6.390625 
Q 39.65625 6.390625 43.53125 10.953125 
Q 47.40625 15.53125 47.40625 23.390625 
Q 47.40625 31.296875 43.53125 35.828125 
Q 39.65625 40.375 33.015625 40.375 
z
M 52.59375 71.296875 
L 52.59375 62.3125 
Q 48.875 64.0625 45.09375 64.984375 
Q 41.3125 65.921875 37.59375 65.921875 
Q 27.828125 65.921875 22.671875 59.328125 
Q 17.53125 52.734375 16.796875 39.40625 
Q 19.671875 43.65625 24.015625 45.921875 
Q 28.375 48.1875 33.59375 48.1875 
Q 44.578125 48.1875 50.953125 41.515625 
Q 57.328125 34.859375 57.328125 23.390625 
Q 57.328125 12.15625 50.6875 5.359375 
Q 44.046875 -1.421875 33.015625 -1.421875 
Q 20.359375 -1.421875 13.671875 8.265625 
Q 6.984375 17.96875 6.984375 36.375 
Q 6.984375 53.65625 15.1875 63.9375 
Q 23.390625 74.21875 37.203125 74.21875 
Q 40.921875 74.21875 44.703125 73.484375 
Q 48.484375 72.75 52.59375 71.296875 
z
" id="DejaVuSans-54"/>
      </defs>
      <g transform="translate(95.5531 329.936875)rotate(-90)scale(0.1 -0.1)">
       <use xlink:href="#DejaVuSans-50"/>
       <use x="63.623047" xlink:href="#DejaVuSans-54"/>
       <use x="127.246094" xlink:href="#DejaVuSans-47"/>
       <use x="160.9375" xlink:href="#DejaVuSans-48"/>
       <use x="224.560547" xlink:href="#DejaVuSans-51"/>
      </g>
     </g>
    </g>
    <g id="xtick_5">
     <g id="line2d_9">
      <path clip-path="url(#p0700267b6a)" d="M 106.57831 294.118125 
L 106.57831 22.318125 
" style="fill:none;stroke:#c0c0c0;stroke-dasharray:0.5,0.825;stroke-dashoffset:0;stroke-width:0.5;"/>
     </g>
     <g id="line2d_10">
      <g>
       <use style="stroke:#000000;stroke-width:0.8;" x="106.57831" xlink:href="#m3e84ab2ab8" y="294.118125"/>
      </g>
     </g>
     <g id="text_5">
      <!-- 27/03 -->
      <defs>
       <path d="M 8.203125 72.90625 
L 55.078125 72.90625 
L 55.078125 68.703125 
L 28.609375 0 
L 18.3125 0 
L 43.21875 64.59375 
L 8.203125 64.59375 
z
" id="DejaVuSans-55"/>
      </defs>
      <g transform="translate(109.337685 329.936875)rotate(-90)scale(0.1 -0.1)">
       <use xlink:href="#DejaVuSans-50"/>
       <use x="63.623047" xlink:href="#DejaVuSans-55"/>
       <use x="127.246094" xlink:href="#DejaVuSans-47"/>
       <use x="160.9375" xlink:href="#DejaVuSans-48"/>
       <use x="224.560547" xlink:href="#DejaVuSans-51"/>
      </g>
     </g>
    </g>
    <g id="xtick_6">
     <g id="line2d_11">
      <path clip-path="url(#p0700267b6a)" d="M 120.362895 294.118125 
L 120.362895 22.318125 
" style="fill:none;stroke:#c0c0c0;stroke-dasharray:0.5,0.825;stroke-dashoffset:0;stroke-width:0.5;"/>
     </g>
     <g id="line2d_12">
      <g>
       <use style="stroke:#000000;stroke-width:0.8;" x="120.362895" xlink:href="#m3e84ab2ab8" y="294.118125"/>
      </g>
     </g>
     <g id="text_6">
      <!-- 28/03 -->
      <defs>
       <path d="M 31.78125 34.625 
Q 24.75 34.625 20.71875 30.859375 
Q 16.703125 27.09375 16.703125 20.515625 
Q 16.703125 13.921875 20.71875 10.15625 
Q 24.75 6.390625 31.78125 6.390625 
Q 38.8125 6.390625 42.859375 10.171875 
Q 46.921875 13.96875 46.921875 20.515625 
Q 46.921875 27.09375 42.890625 30.859375 
Q 38.875 34.625 31.78125 34.625 
z
M 21.921875 38.8125 
Q 15.578125 40.375 12.03125 44.71875 
Q 8.5 49.078125 8.5 55.328125 
Q 8.5 64.0625 14.71875 69.140625 
Q 20.953125 74.21875 31.78125 74.21875 
Q 42.671875 74.21875 48.875 69.140625 
Q 55.078125 64.0625 55.078125 55.328125 
Q 55.078125 49.078125 51.53125 44.71875 
Q 48 40.375 41.703125 38.8125 
Q 48.828125 37.15625 52.796875 32.3125 
Q 56.78125 27.484375 56.78125 20.515625 
Q 56.78125 9.90625 50.3125 4.234375 
Q 43.84375 -1.421875 31.78125 -1.421875 
Q 19.734375 -1.421875 13.25 4.234375 
Q 6.78125 9.90625 6.78125 20.515625 
Q 6.78125 27.484375 10.78125 32.3125 
Q 14.796875 37.15625 21.921875 38.8125 
z
M 18.3125 54.390625 
Q 18.3125 48.734375 21.84375 45.5625 
Q 25.390625 42.390625 31.78125 42.390625 
Q 38.140625 42.390625 41.71875 45.5625 
Q 45.3125 48.734375 45.3125 54.390625 
Q 45.3125 60.0625 41.71875 63.234375 
Q 38.140625 66.40625 31.78125 66.40625 
Q 25.390625 66.40625 21.84375 63.234375 
Q 18.3125 60.0625 18.3125 54.390625 
z
" id="DejaVuSans-56"/>
      </defs>
      <g transform="translate(123.12227 329.936875)rotate(-90)scale(0.1 -0.1)">
       <use xlink:href="#DejaVuSans-50"/>
       <use x="63.623047" xlink:href="#DejaVuSans-56"/>
       <use x="127.246094" xlink:href="#DejaVuSans-47"/>
       <use x="160.9375" xlink:href="#DejaVuSans-48"/>
       <use x="224.560547" xlink:href="#DejaVuSans-51"/>
      </g>
     </g>
    </g>
    <g id="xtick_7">
     <g id="line2d_13">
      <path clip-path="url(#p0700267b6a)" d="M 134.14748 294.118125 
L 134.14748 22.318125 
" style="fill:none;stroke:#c0c0c0;stroke-dasharray:0.5,0.825;stroke-dashoffset:0;stroke-width:0.5;"/>
     </g>
     <g id="line2d_14">
      <g>
       <use style="stroke:#000000;stroke-width:0.8;" x="134.14748" xlink:href="#m3e84ab2ab8" y="294.118125"/>
      </g>
     </g>
     <g id="text_7">
      <!-- 29/03 -->
      <defs>
       <path d="M 10.984375 1.515625 
L 10.984375 10.5 
Q 14.703125 8.734375 18.5 7.8125 
Q 22.3125 6.890625 25.984375 6.890625 
Q 35.75 6.890625 40.890625 13.453125 
Q 46.046875 20.015625 46.78125 33.40625 
Q 43.953125 29.203125 39.59375 26.953125 
Q 35.25 24.703125 29.984375 24.703125 
Q 19.046875 24.703125 12.671875 31.3125 
Q 6.296875 37.9375 6.296875 49.421875 
Q 6.296875 60.640625 12.9375 67.421875 
Q 19.578125 74.21875 30.609375 74.21875 
Q 43.265625 74.21875 49.921875 64.515625 
Q 56.59375 54.828125 56.59375 36.375 
Q 56.59375 19.140625 48.40625 8.859375 
Q 40.234375 -1.421875 26.421875 -1.421875 
Q 22.703125 -1.421875 18.890625 -0.6875 
Q 15.09375 0.046875 10.984375 1.515625 
z
M 30.609375 32.421875 
Q 37.25 32.421875 41.125 36.953125 
Q 45.015625 41.5 45.015625 49.421875 
Q 45.015625 57.28125 41.125 61.84375 
Q 37.25 66.40625 30.609375 66.40625 
Q 23.96875 66.40625 20.09375 61.84375 
Q 16.21875 57.28125 16.21875 49.421875 
Q 16.21875 41.5 20.09375 36.953125 
Q 23.96875 32.421875 30.609375 32.421875 
z
" id="DejaVuSans-57"/>
      </defs>
      <g transform="translate(136.906855 329.936875)rotate(-90)scale(0.1 -0.1)">
       <use xlink:href="#DejaVuSans-50"/>
       <use x="63.623047" xlink:href="#DejaVuSans-57"/>
       <use x="127.246094" xlink:href="#DejaVuSans-47"/>
       <use x="160.9375" xlink:href="#DejaVuSans-48"/>
       <use x="224.560547" xlink:href="#DejaVuSans-51"/>
      </g>
     </g>
    </g>
    <g id="xtick_8">
     <g id="line2d_15">
      <path clip-path="url(#p0700267b6a)" d="M 147.932065 294.118125 
L 147.932065 22.318125 
" style="fill:none;stroke:#c0c0c0;stroke-dasharray:0.5,0.825;stroke-dashoffset:0;stroke-width:0.5;"/>
     </g>
     <g id="line2d_16">
      <g>
       <use style="stroke:#000000;stroke-width:0.8;" x="147.932065" xlink:href="#m3e84ab2ab8" y="294.118125"/>
      </g>
     </g>
     <g id="text_8">
      <!-- 30/03 -->
      <g transform="translate(150.69144 329.936875)rotate(-90)scale(0.1 -0.1)">
       <use xlink:href="#DejaVuSans-51"/>
       <use x="63.623047" xlink:href="#DejaVuSans-48"/>
       <use x="127.246094" xlink:href="#DejaVuSans-47"/>
       <use x="160.9375" xlink:href="#DejaVuSans-48"/>
       <use x="224.560547" xlink:href="#DejaVuSans-51"/>
      </g>
     </g>
    </g>
    <g id="xtick_9">
     <g id="line2d_17">
      <path clip-path="url(#p0700267b6a)" d="M 161.71665 294.118125 
L 161.71665 22.318125 
" style="fill:none;stroke:#c0c0c0;stroke-dasharray:0.5,0.825;stroke-dashoffset:0;stroke-width:0.5;"/>
     </g>
     <g id="line2d_18">
      <g>
       <use style="stroke:#000000;stroke-width:0.8;" x="161.71665" xlink:href="#m3e84ab2ab8" y="294.118125"/>
      </g>
     </g>
     <g id="text_9">
      <!-- 31/03 -->
      <defs>
       <path d="M 12.40625 8.296875 
L 28.515625 8.296875 
L 28.515625 63.921875 
L 10.984375 60.40625 
L 10.984375 69.390625 
L 28.421875 72.90625 
L 38.28125 72.90625 
L 38.28125 8.296875 
L 54.390625 8.296875 
L 54.390625 0 
L 12.40625 0 
z
" id="DejaVuSans-49"/>
      </defs>
      <g transform="translate(164.476025 329.936875)rotate(-90)scale(0.1 -0.1)">
       <use xlink:href="#DejaVuSans-51"/>
       <use x="63.623047" xlink:href="#DejaVuSans-49"/>
       <use x="127.246094" xlink:href="#DejaVuSans-47"/>
       <use x="160.9375" xlink:href="#DejaVuSans-48"/>
       <use x="224.560547" xlink:href="#DejaVuSans-51"/>
      </g>
     </g>
    </g>
    <g id="xtick_10">
     <g id="line2d_19">
      <path clip-path="url(#p0700267b6a)" d="M 175.501235 294.118125 
L 175.501235 22.318125 
" style="fill:none;stroke:#c0c0c0;stroke-dasharray:0.5,0.825;stroke-dashoffset:0;stroke-width:0.5;"/>
     </g>
     <g id="line2d_20">
      <g>
       <use style="stroke:#000000;stroke-width:0.8;" x="175.501235" xlink:href="#m3e84ab2ab8" y="294.118125"/>
      </g>
     </g>
     <g id="text_10">
      <!-- 01/04 -->
      <g transform="translate(178.26061 329.936875)rotate(-90)scale(0.1 -0.1)">
       <use xlink:href="#DejaVuSans-48"/>
       <use x="63.623047" xlink:href="#DejaVuSans-49"/>
       <use x="127.246094" xlink:href="#DejaVuSans-47"/>
       <use x="160.9375" xlink:href="#DejaVuSans-48"/>
       <use x="224.560547" xlink:href="#DejaVuSans-52"/>
      </g>
     </g>
    </g>
    <g id="xtick_11">
     <g id="line2d_21">
      <path clip-path="url(#p0700267b6a)" d="M 189.28582 294.118125 
L 189.28582 22.318125 
" style="fill:none;stroke:#c0c0c0;stroke-dasharray:0.5,0.825;stroke-dashoffset:0;stroke-width:0.5;"/>
     </g>
     <g id="line2d_22">
      <g>
       <use style="stroke:#000000;stroke-width:0.8;" x="189.28582" xlink:href="#m3e84ab2ab8" y="294.118125"/>
      </g>
     </g>
     <g id="text_11">
      <!-- 02/04 -->
      <g transform="translate(192.045195 329.936875)rotate(-90)scale(0.1 -0.1)">
       <use xlink:href="#DejaVuSans-48"/>
       <use x="63.623047" xlink:href="#DejaVuSans-50"/>
       <use x="127.246094" xlink:href="#DejaVuSans-47"/>
       <use x="160.9375" xlink:href="#DejaVuSans-48"/>
       <use x="224.560547" xlink:href="#DejaVuSans-52"/>
      </g>
     </g>
    </g>
    <g id="xtick_12">
     <g id="line2d_23">
      <path clip-path="url(#p0700267b6a)" d="M 203.070405 294.118125 
L 203.070405 22.318125 
" style="fill:none;stroke:#c0c0c0;stroke-dasharray:0.5,0.825;stroke-dashoffset:0;stroke-width:0.5;"/>
     </g>
     <g id="line2d_24">
      <g>
       <use style="stroke:#000000;stroke-width:0.8;" x="203.070405" xlink:href="#m3e84ab2ab8" y="294.118125"/>
      </g>
     </g>
     <g id="text_12">
      <!-- 03/04 -->
      <g transform="translate(205.82978 329.936875)rotate(-90)scale(0.1 -0.1)">
       <use xlink:href="#DejaVuSans-48"/>
       <use x="63.623047" xlink:href="#DejaVuSans-51"/>
       <use x="127.246094" xlink:href="#DejaVuSans-47"/>
       <use x="160.9375" xlink:href="#DejaVuSans-48"/>
       <use x="224.560547" xlink:href="#DejaVuSans-52"/>
      </g>
     </g>
    </g>
    <g id="xtick_13">
     <g id="line2d_25">
      <path clip-path="url(#p0700267b6a)" d="M 216.85499 294.118125 
L 216.85499 22.318125 
" style="fill:none;stroke:#c0c0c0;stroke-dasharray:0.5,0.825;stroke-dashoffset:0;stroke-width:0.5;"/>
     </g>
     <g id="line2d_26">
      <g>
       <use style="stroke:#000000;stroke-width:0.8;" x="216.85499" xlink:href="#m3e84ab2ab8" y="294.118125"/>
      </g>
     </g>
     <g id="text_13">
      <!-- 04/04 -->
      <g transform="translate(219.614365 329.936875)rotate(-90)scale(0.1 -0.1)">
       <use xlink:href="#DejaVuSans-48"/>
       <use x="63.623047" xlink:href="#DejaVuSans-52"/>
       <use x="127.246094" xlink:href="#DejaVuSans-47"/>
       <use x="160.9375" xlink:href="#DejaVuSans-48"/>
       <use x="224.560547" xlink:href="#DejaVuSans-52"/>
      </g>
     </g>
    </g>
    <g id="xtick_14">
     <g id="line2d_27">
      <path clip-path="url(#p0700267b6a)" d="M 230.639575 294.118125 
L 230.639575 22.318125 
" style="fill:none;stroke:#c0c0c0;stroke-dasharray:0.5,0.825;stroke-dashoffset:0;stroke-width:0.5;"/>
     </g>
     <g id="line2d_28">
      <g>
       <use style="stroke:#000000;stroke-width:0.8;" x="230.639575" xlink:href="#m3e84ab2ab8" y="294.118125"/>
      </g>
     </g>
     <g id="text_14">
      <!-- 05/04 -->
      <g transform="translate(233.39895 329.936875)rotate(-90)scale(0.1 -0.1)">
       <use xlink:href="#DejaVuSans-48"/>
       <use x="63.623047" xlink:href="#DejaVuSans-53"/>
       <use x="127.246094" xlink:href="#DejaVuSans-47"/>
       <use x="160.9375" xlink:href="#DejaVuSans-48"/>
       <use x="224.560547" xlink:href="#DejaVuSans-52"/>
      </g>
     </g>
    </g>
    <g id="xtick_15">
     <g id="line2d_29">
      <path clip-path="url(#p0700267b6a)" d="M 244.42416 294.118125 
L 244.42416 22.318125 
" style="fill:none;stroke:#c0c0c0;stroke-dasharray:0.5,0.825;stroke-dashoffset:0;stroke-width:0.5;"/>
     </g>
     <g id="line2d_30">
      <g>
       <use style="stroke:#000000;stroke-width:0.8;" x="244.42416" xlink:href="#m3e84ab2ab8" y="294.118125"/>
      </g>
     </g>
     <g id="text_15">
      <!-- 06/04 -->
      <g transform="translate(247.183535 329.936875)rotate(-90)scale(0.1 -0.1)">
       <use xlink:href="#DejaVuSans-48"/>
       <use x="63.623047" xlink:href="#DejaVuSans-54"/>
       <use x="127.246094" xlink:href="#DejaVuSans-47"/>
       <use x="160.9375" xlink:href="#DejaVuSans-48"/>
       <use x="224.560547" xlink:href="#DejaVuSans-52"/>
      </g>
     </g>
    </g>
    <g id="xtick_16">
     <g id="line2d_31">
      <path clip-path="url(#p0700267b6a)" d="M 258.208745 294.118125 
L 258.208745 22.318125 
" style="fill:none;stroke:#c0c0c0;stroke-dasharray:0.5,0.825;stroke-dashoffset:0;stroke-width:0.5;"/>
     </g>
     <g id="line2d_32">
      <g>
       <use style="stroke:#000000;stroke-width:0.8;" x="258.208745" xlink:href="#m3e84ab2ab8" y="294.118125"/>
      </g>
     </g>
     <g id="text_16">
      <!-- 07/04 -->
      <g transform="translate(260.96812 329.936875)rotate(-90)scale(0.1 -0.1)">
       <use xlink:href="#DejaVuSans-48"/>
       <use x="63.623047" xlink:href="#DejaVuSans-55"/>
       <use x="127.246094" xlink:href="#DejaVuSans-47"/>
       <use x="160.9375" xlink:href="#DejaVuSans-48"/>
       <use x="224.560547" xlink:href="#DejaVuSans-52"/>
      </g>
     </g>
    </g>
    <g id="xtick_17">
     <g id="line2d_33">
      <path clip-path="url(#p0700267b6a)" d="M 271.99333 294.118125 
L 271.99333 22.318125 
" style="fill:none;stroke:#c0c0c0;stroke-dasharray:0.5,0.825;stroke-dashoffset:0;stroke-width:0.5;"/>
     </g>
     <g id="line2d_34">
      <g>
       <use style="stroke:#000000;stroke-width:0.8;" x="271.99333" xlink:href="#m3e84ab2ab8" y="294.118125"/>
      </g>
     </g>
     <g id="text_17">
      <!-- 08/04 -->
      <g transform="translate(274.752705 329.936875)rotate(-90)scale(0.1 -0.1)">
       <use xlink:href="#DejaVuSans-48"/>
       <use x="63.623047" xlink:href="#DejaVuSans-56"/>
       <use x="127.246094" xlink:href="#DejaVuSans-47"/>
       <use x="160.9375" xlink:href="#DejaVuSans-48"/>
       <use x="224.560547" xlink:href="#DejaVuSans-52"/>
      </g>
     </g>
    </g>
    <g id="xtick_18">
     <g id="line2d_35">
      <path clip-path="url(#p0700267b6a)" d="M 285.777915 294.118125 
L 285.777915 22.318125 
" style="fill:none;stroke:#c0c0c0;stroke-dasharray:0.5,0.825;stroke-dashoffset:0;stroke-width:0.5;"/>
     </g>
     <g id="line2d_36">
      <g>
       <use style="stroke:#000000;stroke-width:0.8;" x="285.777915" xlink:href="#m3e84ab2ab8" y="294.118125"/>
      </g>
     </g>
     <g id="text_18">
      <!-- 09/04 -->
      <g transform="translate(288.53729 329.936875)rotate(-90)scale(0.1 -0.1)">
       <use xlink:href="#DejaVuSans-48"/>
       <use x="63.623047" xlink:href="#DejaVuSans-57"/>
       <use x="127.246094" xlink:href="#DejaVuSans-47"/>
       <use x="160.9375" xlink:href="#DejaVuSans-48"/>
       <use x="224.560547" xlink:href="#DejaVuSans-52"/>
      </g>
     </g>
    </g>
    <g id="xtick_19">
     <g id="line2d_37">
      <path clip-path="url(#p0700267b6a)" d="M 299.5625 294.118125 
L 299.5625 22.318125 
" style="fill:none;stroke:#c0c0c0;stroke-dasharray:0.5,0.825;stroke-dashoffset:0;stroke-width:0.5;"/>
     </g>
     <g id="line2d_38">
      <g>
       <use style="stroke:#000000;stroke-width:0.8;" x="299.5625" xlink:href="#m3e84ab2ab8" y="294.118125"/>
      </g>
     </g>
     <g id="text_19">
      <!-- 10/04 -->
      <g transform="translate(302.321875 329.936875)rotate(-90)scale(0.1 -0.1)">
       <use xlink:href="#DejaVuSans-49"/>
       <use x="63.623047" xlink:href="#DejaVuSans-48"/>
       <use x="127.246094" xlink:href="#DejaVuSans-47"/>
       <use x="160.9375" xlink:href="#DejaVuSans-48"/>
       <use x="224.560547" xlink:href="#DejaVuSans-52"/>
      </g>
     </g>
    </g>
    <g id="xtick_20">
     <g id="line2d_39">
      <path clip-path="url(#p0700267b6a)" d="M 313.347085 294.118125 
L 313.347085 22.318125 
" style="fill:none;stroke:#c0c0c0;stroke-dasharray:0.5,0.825;stroke-dashoffset:0;stroke-width:0.5;"/>
     </g>
     <g id="line2d_40">
      <g>
       <use style="stroke:#000000;stroke-width:0.8;" x="313.347085" xlink:href="#m3e84ab2ab8" y="294.118125"/>
      </g>
     </g>
     <g id="text_20">
      <!-- 11/04 -->
      <g transform="translate(316.10646 329.936875)rotate(-90)scale(0.1 -0.1)">
       <use xlink:href="#DejaVuSans-49"/>
       <use x="63.623047" xlink:href="#DejaVuSans-49"/>
       <use x="127.246094" xlink:href="#DejaVuSans-47"/>
       <use x="160.9375" xlink:href="#DejaVuSans-48"/>
       <use x="224.560547" xlink:href="#DejaVuSans-52"/>
      </g>
     </g>
    </g>
    <g id="xtick_21">
     <g id="line2d_41">
      <path clip-path="url(#p0700267b6a)" d="M 327.13167 294.118125 
L 327.13167 22.318125 
" style="fill:none;stroke:#c0c0c0;stroke-dasharray:0.5,0.825;stroke-dashoffset:0;stroke-width:0.5;"/>
     </g>
     <g id="line2d_42">
      <g>
       <use style="stroke:#000000;stroke-width:0.8;" x="327.13167" xlink:href="#m3e84ab2ab8" y="294.118125"/>
      </g>
     </g>
     <g id="text_21">
      <!-- 12/04 -->
      <g transform="translate(329.891045 329.936875)rotate(-90)scale(0.1 -0.1)">
       <use xlink:href="#DejaVuSans-49"/>
       <use x="63.623047" xlink:href="#DejaVuSans-50"/>
       <use x="127.246094" xlink:href="#DejaVuSans-47"/>
       <use x="160.9375" xlink:href="#DejaVuSans-48"/>
       <use x="224.560547" xlink:href="#DejaVuSans-52"/>
      </g>
     </g>
    </g>
    <g id="xtick_22">
     <g id="line2d_43">
      <path clip-path="url(#p0700267b6a)" d="M 340.916255 294.118125 
L 340.916255 22.318125 
" style="fill:none;stroke:#c0c0c0;stroke-dasharray:0.5,0.825;stroke-dashoffset:0;stroke-width:0.5;"/>
     </g>
     <g id="line2d_44">
      <g>
       <use style="stroke:#000000;stroke-width:0.8;" x="340.916255" xlink:href="#m3e84ab2ab8" y="294.118125"/>
      </g>
     </g>
     <g id="text_22">
      <!-- 13/04 -->
      <g transform="translate(343.67563 329.936875)rotate(-90)scale(0.1 -0.1)">
       <use xlink:href="#DejaVuSans-49"/>
       <use x="63.623047" xlink:href="#DejaVuSans-51"/>
       <use x="127.246094" xlink:href="#DejaVuSans-47"/>
       <use x="160.9375" xlink:href="#DejaVuSans-48"/>
       <use x="224.560547" xlink:href="#DejaVuSans-52"/>
      </g>
     </g>
    </g>
    <g id="xtick_23">
     <g id="line2d_45">
      <path clip-path="url(#p0700267b6a)" d="M 354.70084 294.118125 
L 354.70084 22.318125 
" style="fill:none;stroke:#c0c0c0;stroke-dasharray:0.5,0.825;stroke-dashoffset:0;stroke-width:0.5;"/>
     </g>
     <g id="line2d_46">
      <g>
       <use style="stroke:#000000;stroke-width:0.8;" x="354.70084" xlink:href="#m3e84ab2ab8" y="294.118125"/>
      </g>
     </g>
     <g id="text_23">
      <!-- 14/04 -->
      <g transform="translate(357.460215 329.936875)rotate(-90)scale(0.1 -0.1)">
       <use xlink:href="#DejaVuSans-49"/>
       <use x="63.623047" xlink:href="#DejaVuSans-52"/>
       <use x="127.246094" xlink:href="#DejaVuSans-47"/>
       <use x="160.9375" xlink:href="#DejaVuSans-48"/>
       <use x="224.560547" xlink:href="#DejaVuSans-52"/>
      </g>
     </g>
    </g>
    <g id="xtick_24">
     <g id="line2d_47">
      <path clip-path="url(#p0700267b6a)" d="M 368.485425 294.118125 
L 368.485425 22.318125 
" style="fill:none;stroke:#c0c0c0;stroke-dasharray:0.5,0.825;stroke-dashoffset:0;stroke-width:0.5;"/>
     </g>
     <g id="line2d_48">
      <g>
       <use style="stroke:#000000;stroke-width:0.8;" x="368.485425" xlink:href="#m3e84ab2ab8" y="294.118125"/>
      </g>
     </g>
     <g id="text_24">
      <!-- 15/04 -->
      <g transform="translate(371.2448 329.936875)rotate(-90)scale(0.1 -0.1)">
       <use xlink:href="#DejaVuSans-49"/>
       <use x="63.623047" xlink:href="#DejaVuSans-53"/>
       <use x="127.246094" xlink:href="#DejaVuSans-47"/>
       <use x="160.9375" xlink:href="#DejaVuSans-48"/>
       <use x="224.560547" xlink:href="#DejaVuSans-52"/>
      </g>
     </g>
    </g>
    <g id="xtick_25">
     <g id="line2d_49">
      <path clip-path="url(#p0700267b6a)" d="M 382.27001 294.118125 
L 382.27001 22.318125 
" style="fill:none;stroke:#c0c0c0;stroke-dasharray:0.5,0.825;stroke-dashoffset:0;stroke-width:0.5;"/>
     </g>
     <g id="line2d_50">
      <g>
       <use style="stroke:#000000;stroke-width:0.8;" x="382.27001" xlink:href="#m3e84ab2ab8" y="294.118125"/>
      </g>
     </g>
     <g id="text_25">
      <!-- 16/04 -->
      <g transform="translate(385.029385 329.936875)rotate(-90)scale(0.1 -0.1)">
       <use xlink:href="#DejaVuSans-49"/>
       <use x="63.623047" xlink:href="#DejaVuSans-54"/>
       <use x="127.246094" xlink:href="#DejaVuSans-47"/>
       <use x="160.9375" xlink:href="#DejaVuSans-48"/>
       <use x="224.560547" xlink:href="#DejaVuSans-52"/>
      </g>
     </g>
    </g>
    <g id="xtick_26">
     <g id="line2d_51">
      <path clip-path="url(#p0700267b6a)" d="M 396.054595 294.118125 
L 396.054595 22.318125 
" style="fill:none;stroke:#c0c0c0;stroke-dasharray:0.5,0.825;stroke-dashoffset:0;stroke-width:0.5;"/>
     </g>
     <g id="line2d_52">
      <g>
       <use style="stroke:#000000;stroke-width:0.8;" x="396.054595" xlink:href="#m3e84ab2ab8" y="294.118125"/>
      </g>
     </g>
     <g id="text_26">
      <!-- 17/04 -->
      <g transform="translate(398.81397 329.936875)rotate(-90)scale(0.1 -0.1)">
       <use xlink:href="#DejaVuSans-49"/>
       <use x="63.623047" xlink:href="#DejaVuSans-55"/>
       <use x="127.246094" xlink:href="#DejaVuSans-47"/>
       <use x="160.9375" xlink:href="#DejaVuSans-48"/>
       <use x="224.560547" xlink:href="#DejaVuSans-52"/>
      </g>
     </g>
    </g>
    <g id="xtick_27">
     <g id="line2d_53">
      <path clip-path="url(#p0700267b6a)" d="M 409.83918 294.118125 
L 409.83918 22.318125 
" style="fill:none;stroke:#c0c0c0;stroke-dasharray:0.5,0.825;stroke-dashoffset:0;stroke-width:0.5;"/>
     </g>
     <g id="line2d_54">
      <g>
       <use style="stroke:#000000;stroke-width:0.8;" x="409.83918" xlink:href="#m3e84ab2ab8" y="294.118125"/>
      </g>
     </g>
     <g id="text_27">
      <!-- 18/04 -->
      <g transform="translate(412.598555 329.936875)rotate(-90)scale(0.1 -0.1)">
       <use xlink:href="#DejaVuSans-49"/>
       <use x="63.623047" xlink:href="#DejaVuSans-56"/>
       <use x="127.246094" xlink:href="#DejaVuSans-47"/>
       <use x="160.9375" xlink:href="#DejaVuSans-48"/>
       <use x="224.560547" xlink:href="#DejaVuSans-52"/>
      </g>
     </g>
    </g>
    <g id="xtick_28">
     <g id="line2d_55">
      <path clip-path="url(#p0700267b6a)" d="M 423.623765 294.118125 
L 423.623765 22.318125 
" style="fill:none;stroke:#c0c0c0;stroke-dasharray:0.5,0.825;stroke-dashoffset:0;stroke-width:0.5;"/>
     </g>
     <g id="line2d_56">
      <g>
       <use style="stroke:#000000;stroke-width:0.8;" x="423.623765" xlink:href="#m3e84ab2ab8" y="294.118125"/>
      </g>
     </g>
     <g id="text_28">
      <!-- 19/04 -->
      <g transform="translate(426.38314 329.936875)rotate(-90)scale(0.1 -0.1)">
       <use xlink:href="#DejaVuSans-49"/>
       <use x="63.623047" xlink:href="#DejaVuSans-57"/>
       <use x="127.246094" xlink:href="#DejaVuSans-47"/>
       <use x="160.9375" xlink:href="#DejaVuSans-48"/>
       <use x="224.560547" xlink:href="#DejaVuSans-52"/>
      </g>
     </g>
    </g>
    <g id="xtick_29">
     <g id="line2d_57">
      <path clip-path="url(#p0700267b6a)" d="M 437.40835 294.118125 
L 437.40835 22.318125 
" style="fill:none;stroke:#c0c0c0;stroke-dasharray:0.5,0.825;stroke-dashoffset:0;stroke-width:0.5;"/>
     </g>
     <g id="line2d_58">
      <g>
       <use style="stroke:#000000;stroke-width:0.8;" x="437.40835" xlink:href="#m3e84ab2ab8" y="294.118125"/>
      </g>
     </g>
     <g id="text_29">
      <!-- 20/04 -->
      <g transform="translate(440.167725 329.936875)rotate(-90)scale(0.1 -0.1)">
       <use xlink:href="#DejaVuSans-50"/>
       <use x="63.623047" xlink:href="#DejaVuSans-48"/>
       <use x="127.246094" xlink:href="#DejaVuSans-47"/>
       <use x="160.9375" xlink:href="#DejaVuSans-48"/>
       <use x="224.560547" xlink:href="#DejaVuSans-52"/>
      </g>
     </g>
    </g>
    <g id="xtick_30">
     <g id="line2d_59">
      <path clip-path="url(#p0700267b6a)" d="M 451.192935 294.118125 
L 451.192935 22.318125 
" style="fill:none;stroke:#c0c0c0;stroke-dasharray:0.5,0.825;stroke-dashoffset:0;stroke-width:0.5;"/>
     </g>
     <g id="line2d_60">
      <g>
       <use style="stroke:#000000;stroke-width:0.8;" x="451.192935" xlink:href="#m3e84ab2ab8" y="294.118125"/>
      </g>
     </g>
     <g id="text_30">
      <!-- 21/04 -->
      <g transform="translate(453.95231 329.936875)rotate(-90)scale(0.1 -0.1)">
       <use xlink:href="#DejaVuSans-50"/>
       <use x="63.623047" xlink:href="#DejaVuSans-49"/>
       <use x="127.246094" xlink:href="#DejaVuSans-47"/>
       <use x="160.9375" xlink:href="#DejaVuSans-48"/>
       <use x="224.560547" xlink:href="#DejaVuSans-52"/>
      </g>
     </g>
    </g>
    <g id="xtick_31">
     <g id="line2d_61">
      <path clip-path="url(#p0700267b6a)" d="M 464.97752 294.118125 
L 464.97752 22.318125 
" style="fill:none;stroke:#c0c0c0;stroke-dasharray:0.5,0.825;stroke-dashoffset:0;stroke-width:0.5;"/>
     </g>
     <g id="line2d_62">
      <g>
       <use style="stroke:#000000;stroke-width:0.8;" x="464.97752" xlink:href="#m3e84ab2ab8" y="294.118125"/>
      </g>
     </g>
     <g id="text_31">
      <!-- 22/04 -->
      <g transform="translate(467.736895 329.936875)rotate(-90)scale(0.1 -0.1)">
       <use xlink:href="#DejaVuSans-50"/>
       <use x="63.623047" xlink:href="#DejaVuSans-50"/>
       <use x="127.246094" xlink:href="#DejaVuSans-47"/>
       <use x="160.9375" xlink:href="#DejaVuSans-48"/>
       <use x="224.560547" xlink:href="#DejaVuSans-52"/>
      </g>
     </g>
    </g>
    <g id="xtick_32">
     <g id="line2d_63">
      <path clip-path="url(#p0700267b6a)" d="M 478.762105 294.118125 
L 478.762105 22.318125 
" style="fill:none;stroke:#c0c0c0;stroke-dasharray:0.5,0.825;stroke-dashoffset:0;stroke-width:0.5;"/>
     </g>
     <g id="line2d_64">
      <g>
       <use style="stroke:#000000;stroke-width:0.8;" x="478.762105" xlink:href="#m3e84ab2ab8" y="294.118125"/>
      </g>
     </g>
     <g id="text_32">
      <!-- 23/04 -->
      <g transform="translate(481.52148 329.936875)rotate(-90)scale(0.1 -0.1)">
       <use xlink:href="#DejaVuSans-50"/>
       <use x="63.623047" xlink:href="#DejaVuSans-51"/>
       <use x="127.246094" xlink:href="#DejaVuSans-47"/>
       <use x="160.9375" xlink:href="#DejaVuSans-48"/>
       <use x="224.560547" xlink:href="#DejaVuSans-52"/>
      </g>
     </g>
    </g>
    <g id="xtick_33">
     <g id="line2d_65">
      <path clip-path="url(#p0700267b6a)" d="M 492.54669 294.118125 
L 492.54669 22.318125 
" style="fill:none;stroke:#c0c0c0;stroke-dasharray:0.5,0.825;stroke-dashoffset:0;stroke-width:0.5;"/>
     </g>
     <g id="line2d_66">
      <g>
       <use style="stroke:#000000;stroke-width:0.8;" x="492.54669" xlink:href="#m3e84ab2ab8" y="294.118125"/>
      </g>
     </g>
     <g id="text_33">
      <!-- 24/04 -->
      <g transform="translate(495.306065 329.936875)rotate(-90)scale(0.1 -0.1)">
       <use xlink:href="#DejaVuSans-50"/>
       <use x="63.623047" xlink:href="#DejaVuSans-52"/>
       <use x="127.246094" xlink:href="#DejaVuSans-47"/>
       <use x="160.9375" xlink:href="#DejaVuSans-48"/>
       <use x="224.560547" xlink:href="#DejaVuSans-52"/>
      </g>
     </g>
    </g>
    <g id="xtick_34">
     <g id="line2d_67">
      <path clip-path="url(#p0700267b6a)" d="M 506.331275 294.118125 
L 506.331275 22.318125 
" style="fill:none;stroke:#c0c0c0;stroke-dasharray:0.5,0.825;stroke-dashoffset:0;stroke-width:0.5;"/>
     </g>
     <g id="line2d_68">
      <g>
       <use style="stroke:#000000;stroke-width:0.8;" x="506.331275" xlink:href="#m3e84ab2ab8" y="294.118125"/>
      </g>
     </g>
     <g id="text_34">
      <!-- 25/04 -->
      <g transform="translate(509.09065 329.936875)rotate(-90)scale(0.1 -0.1)">
       <use xlink:href="#DejaVuSans-50"/>
       <use x="63.623047" xlink:href="#DejaVuSans-53"/>
       <use x="127.246094" xlink:href="#DejaVuSans-47"/>
       <use x="160.9375" xlink:href="#DejaVuSans-48"/>
       <use x="224.560547" xlink:href="#DejaVuSans-52"/>
      </g>
     </g>
    </g>
    <g id="xtick_35">
     <g id="line2d_69">
      <path clip-path="url(#p0700267b6a)" d="M 520.11586 294.118125 
L 520.11586 22.318125 
" style="fill:none;stroke:#c0c0c0;stroke-dasharray:0.5,0.825;stroke-dashoffset:0;stroke-width:0.5;"/>
     </g>
     <g id="line2d_70">
      <g>
       <use style="stroke:#000000;stroke-width:0.8;" x="520.11586" xlink:href="#m3e84ab2ab8" y="294.118125"/>
      </g>
     </g>
     <g id="text_35">
      <!-- 26/04 -->
      <g transform="translate(522.875235 329.936875)rotate(-90)scale(0.1 -0.1)">
       <use xlink:href="#DejaVuSans-50"/>
       <use x="63.623047" xlink:href="#DejaVuSans-54"/>
       <use x="127.246094" xlink:href="#DejaVuSans-47"/>
       <use x="160.9375" xlink:href="#DejaVuSans-48"/>
       <use x="224.560547" xlink:href="#DejaVuSans-52"/>
      </g>
     </g>
    </g>
    <g id="xtick_36">
     <g id="line2d_71">
      <path clip-path="url(#p0700267b6a)" d="M 533.900445 294.118125 
L 533.900445 22.318125 
" style="fill:none;stroke:#c0c0c0;stroke-dasharray:0.5,0.825;stroke-dashoffset:0;stroke-width:0.5;"/>
     </g>
     <g id="line2d_72">
      <g>
       <use style="stroke:#000000;stroke-width:0.8;" x="533.900445" xlink:href="#m3e84ab2ab8" y="294.118125"/>
      </g>
     </g>
     <g id="text_36">
      <!-- 27/04 -->
      <g transform="translate(536.65982 329.936875)rotate(-90)scale(0.1 -0.1)">
       <use xlink:href="#DejaVuSans-50"/>
       <use x="63.623047" xlink:href="#DejaVuSans-55"/>
       <use x="127.246094" xlink:href="#DejaVuSans-47"/>
       <use x="160.9375" xlink:href="#DejaVuSans-48"/>
       <use x="224.560547" xlink:href="#DejaVuSans-52"/>
      </g>
     </g>
    </g>
    <g id="xtick_37">
     <g id="line2d_73">
      <path clip-path="url(#p0700267b6a)" d="M 547.68503 294.118125 
L 547.68503 22.318125 
" style="fill:none;stroke:#c0c0c0;stroke-dasharray:0.5,0.825;stroke-dashoffset:0;stroke-width:0.5;"/>
     </g>
     <g id="line2d_74">
      <g>
       <use style="stroke:#000000;stroke-width:0.8;" x="547.68503" xlink:href="#m3e84ab2ab8" y="294.118125"/>
      </g>
     </g>
     <g id="text_37">
      <!-- 28/04 -->
      <g transform="translate(550.444405 329.936875)rotate(-90)scale(0.1 -0.1)">
       <use xlink:href="#DejaVuSans-50"/>
       <use x="63.623047" xlink:href="#DejaVuSans-56"/>
       <use x="127.246094" xlink:href="#DejaVuSans-47"/>
       <use x="160.9375" xlink:href="#DejaVuSans-48"/>
       <use x="224.560547" xlink:href="#DejaVuSans-52"/>
      </g>
     </g>
    </g>
   </g>
   <g id="matplotlib.axis_2">
    <g id="ytick_1">
     <g id="line2d_75">
      <path clip-path="url(#p0700267b6a)" d="M 20.5625 294.118125 
L 578.5625 294.118125 
" style="fill:none;stroke:#c0c0c0;stroke-dasharray:0.5,0.825;stroke-dashoffset:0;stroke-width:0.5;"/>
     </g>
     <g id="line2d_76">
      <defs>
       <path d="M 0 0 
L -3.5 0 
" id="m48ecf347b8" style="stroke:#000000;stroke-width:0.8;"/>
      </defs>
      <g>
       <use style="stroke:#000000;stroke-width:0.8;" x="20.5625" xlink:href="#m48ecf347b8" y="294.118125"/>
      </g>
     </g>
     <g id="text_38">
      <!-- 0 -->
      <g transform="translate(7.2 297.917344)scale(0.1 -0.1)">
       <use xlink:href="#DejaVuSans-48"/>
      </g>
     </g>
    </g>
    <g id="ytick_2">
     <g id="line2d_77">
      <path clip-path="url(#p0700267b6a)" d="M 20.5625 242.346696 
L 578.5625 242.346696 
" style="fill:none;stroke:#c0c0c0;stroke-dasharray:0.5,0.825;stroke-dashoffset:0;stroke-width:0.5;"/>
     </g>
     <g id="line2d_78">
      <g>
       <use style="stroke:#000000;stroke-width:0.8;" x="20.5625" xlink:href="#m48ecf347b8" y="242.346696"/>
      </g>
     </g>
     <g id="text_39">
      <!-- 1 -->
      <g transform="translate(7.2 246.145915)scale(0.1 -0.1)">
       <use xlink:href="#DejaVuSans-49"/>
      </g>
     </g>
    </g>
    <g id="ytick_3">
     <g id="line2d_79">
      <path clip-path="url(#p0700267b6a)" d="M 20.5625 190.575268 
L 578.5625 190.575268 
" style="fill:none;stroke:#c0c0c0;stroke-dasharray:0.5,0.825;stroke-dashoffset:0;stroke-width:0.5;"/>
     </g>
     <g id="line2d_80">
      <g>
       <use style="stroke:#000000;stroke-width:0.8;" x="20.5625" xlink:href="#m48ecf347b8" y="190.575268"/>
      </g>
     </g>
     <g id="text_40">
      <!-- 2 -->
      <g transform="translate(7.2 194.374487)scale(0.1 -0.1)">
       <use xlink:href="#DejaVuSans-50"/>
      </g>
     </g>
    </g>
    <g id="ytick_4">
     <g id="line2d_81">
      <path clip-path="url(#p0700267b6a)" d="M 20.5625 138.803839 
L 578.5625 138.803839 
" style="fill:none;stroke:#c0c0c0;stroke-dasharray:0.5,0.825;stroke-dashoffset:0;stroke-width:0.5;"/>
     </g>
     <g id="line2d_82">
      <g>
       <use style="stroke:#000000;stroke-width:0.8;" x="20.5625" xlink:href="#m48ecf347b8" y="138.803839"/>
      </g>
     </g>
     <g id="text_41">
      <!-- 3 -->
      <g transform="translate(7.2 142.603058)scale(0.1 -0.1)">
       <use xlink:href="#DejaVuSans-51"/>
      </g>
     </g>
    </g>
    <g id="ytick_5">
     <g id="line2d_83">
      <path clip-path="url(#p0700267b6a)" d="M 20.5625 87.032411 
L 578.5625 87.032411 
" style="fill:none;stroke:#c0c0c0;stroke-dasharray:0.5,0.825;stroke-dashoffset:0;stroke-width:0.5;"/>
     </g>
     <g id="line2d_84">
      <g>
       <use style="stroke:#000000;stroke-width:0.8;" x="20.5625" xlink:href="#m48ecf347b8" y="87.032411"/>
      </g>
     </g>
     <g id="text_42">
      <!-- 4 -->
      <g transform="translate(7.2 90.831629)scale(0.1 -0.1)">
       <use xlink:href="#DejaVuSans-52"/>
      </g>
     </g>
    </g>
    <g id="ytick_6">
     <g id="line2d_85">
      <path clip-path="url(#p0700267b6a)" d="M 20.5625 35.260982 
L 578.5625 35.260982 
" style="fill:none;stroke:#c0c0c0;stroke-dasharray:0.5,0.825;stroke-dashoffset:0;stroke-width:0.5;"/>
     </g>
     <g id="line2d_86">
      <g>
       <use style="stroke:#000000;stroke-width:0.8;" x="20.5625" xlink:href="#m48ecf347b8" y="35.260982"/>
      </g>
     </g>
     <g id="text_43">
      <!-- 5 -->
      <g transform="translate(7.2 39.060201)scale(0.1 -0.1)">
       <use xlink:href="#DejaVuSans-53"/>
      </g>
     </g>
    </g>
   </g>
   <g id="patch_3">
    <path clip-path="url(#p0700267b6a)" d="M 45.926136 294.118125 
L 56.953804 294.118125 
L 56.953804 294.118125 
L 45.926136 294.118125 
z
" style="fill:#ff0000;stroke-dasharray:3,1,1,1,1,1;stroke-dashoffset:0;"/>
   </g>
   <g id="patch_4">
    <path clip-path="url(#p0700267b6a)" d="M 59.710721 294.118125 
L 70.738389 294.118125 
L 70.738389 294.118125 
L 59.710721 294.118125 
z
" style="fill:#ff0000;stroke-dasharray:3,1,1,1,1,1;stroke-dashoffset:0;"/>
   </g>
   <g id="patch_5">
    <path clip-path="url(#p0700267b6a)" d="M 73.495306 294.118125 
L 84.522974 294.118125 
L 84.522974 294.118125 
L 73.495306 294.118125 
z
" style="fill:#ff0000;stroke-dasharray:3,1,1,1,1,1;stroke-dashoffset:0;"/>
   </g>
   <g id="patch_6">
    <path clip-path="url(#p0700267b6a)" d="M 87.279891 294.118125 
L 98.307559 294.118125 
L 98.307559 294.118125 
L 87.279891 294.118125 
z
" style="fill:#ff0000;stroke-dasharray:3,1,1,1,1,1;stroke-dashoffset:0;"/>
   </g>
   <g id="patch_7">
    <path clip-path="url(#p0700267b6a)" d="M 101.064476 294.118125 
L 112.092144 294.118125 
L 112.092144 294.118125 
L 101.064476 294.118125 
z
" style="fill:#ff0000;stroke-dasharray:3,1,1,1,1,1;stroke-dashoffset:0;"/>
   </g>
   <g id="patch_8">
    <path clip-path="url(#p0700267b6a)" d="M 114.849061 294.118125 
L 125.876729 294.118125 
L 125.876729 294.118125 
L 114.849061 294.118125 
z
" style="fill:#ff0000;stroke-dasharray:3,1,1,1,1,1;stroke-dashoffset:0;"/>
   </g>
   <g id="patch_9">
    <path clip-path="url(#p0700267b6a)" d="M 128.633646 294.118125 
L 139.661314 294.118125 
L 139.661314 294.118125 
L 128.633646 294.118125 
z
" style="fill:#ff0000;stroke-dasharray:3,1,1,1,1,1;stroke-dashoffset:0;"/>
   </g>
   <g id="patch_10">
    <path clip-path="url(#p0700267b6a)" d="M 142.418231 294.118125 
L 153.445899 294.118125 
L 153.445899 294.118125 
L 142.418231 294.118125 
z
" style="fill:#ff0000;stroke-dasharray:3,1,1,1,1,1;stroke-dashoffset:0;"/>
   </g>
   <g id="patch_11">
    <path clip-path="url(#p0700267b6a)" d="M 156.202816 294.118125 
L 167.230484 294.118125 
L 167.230484 242.346696 
L 156.202816 242.346696 
z
" style="fill:#ff0000;stroke-dasharray:3,1,1,1,1,1;stroke-dashoffset:0;"/>
   </g>
   <g id="patch_12">
    <path clip-path="url(#p0700267b6a)" d="M 169.987401 294.118125 
L 181.015069 294.118125 
L 181.015069 242.346696 
L 169.987401 242.346696 
z
" style="fill:#ff0000;stroke-dasharray:3,1,1,1,1,1;stroke-dashoffset:0;"/>
   </g>
   <g id="patch_13">
    <path clip-path="url(#p0700267b6a)" d="M 183.771986 294.118125 
L 194.799654 294.118125 
L 194.799654 242.346696 
L 183.771986 242.346696 
z
" style="fill:#ff0000;stroke-dasharray:3,1,1,1,1,1;stroke-dashoffset:0;"/>
   </g>
   <g id="patch_14">
    <path clip-path="url(#p0700267b6a)" d="M 197.556571 294.118125 
L 208.584239 294.118125 
L 208.584239 242.346696 
L 197.556571 242.346696 
z
" style="fill:#ff0000;stroke-dasharray:3,1,1,1,1,1;stroke-dashoffset:0;"/>
   </g>
   <g id="patch_15">
    <path clip-path="url(#p0700267b6a)" d="M 211.341156 294.118125 
L 222.368824 294.118125 
L 222.368824 242.346696 
L 211.341156 242.346696 
z
" style="fill:#ff0000;stroke-dasharray:3,1,1,1,1,1;stroke-dashoffset:0;"/>
   </g>
   <g id="patch_16">
    <path clip-path="url(#p0700267b6a)" d="M 225.125741 294.118125 
L 236.153409 294.118125 
L 236.153409 242.346696 
L 225.125741 242.346696 
z
" style="fill:#ff0000;stroke-dasharray:3,1,1,1,1,1;stroke-dashoffset:0;"/>
   </g>
   <g id="patch_17">
    <path clip-path="url(#p0700267b6a)" d="M 238.910326 294.118125 
L 249.937994 294.118125 
L 249.937994 242.346696 
L 238.910326 242.346696 
z
" style="fill:#ff0000;stroke-dasharray:3,1,1,1,1,1;stroke-dashoffset:0;"/>
   </g>
   <g id="patch_18">
    <path clip-path="url(#p0700267b6a)" d="M 252.694911 294.118125 
L 263.722579 294.118125 
L 263.722579 242.346696 
L 252.694911 242.346696 
z
" style="fill:#ff0000;stroke-dasharray:3,1,1,1,1,1;stroke-dashoffset:0;"/>
   </g>
   <g id="patch_19">
    <path clip-path="url(#p0700267b6a)" d="M 266.479496 294.118125 
L 277.507164 294.118125 
L 277.507164 138.803839 
L 266.479496 138.803839 
z
" style="fill:#ff0000;stroke-dasharray:3,1,1,1,1,1;stroke-dashoffset:0;"/>
   </g>
   <g id="patch_20">
    <path clip-path="url(#p0700267b6a)" d="M 280.264081 294.118125 
L 291.291749 294.118125 
L 291.291749 138.803839 
L 280.264081 138.803839 
z
" style="fill:#ff0000;stroke-dasharray:3,1,1,1,1,1;stroke-dashoffset:0;"/>
   </g>
   <g id="patch_21">
    <path clip-path="url(#p0700267b6a)" d="M 294.048666 294.118125 
L 305.076334 294.118125 
L 305.076334 138.803839 
L 294.048666 138.803839 
z
" style="fill:#ff0000;stroke-dasharray:3,1,1,1,1,1;stroke-dashoffset:0;"/>
   </g>
   <g id="patch_22">
    <path clip-path="url(#p0700267b6a)" d="M 307.833251 294.118125 
L 318.860919 294.118125 
L 318.860919 138.803839 
L 307.833251 138.803839 
z
" style="fill:#ff0000;stroke-dasharray:3,1,1,1,1,1;stroke-dashoffset:0;"/>
   </g>
   <g id="patch_23">
    <path clip-path="url(#p0700267b6a)" d="M 321.617836 294.118125 
L 332.645504 294.118125 
L 332.645504 87.032411 
L 321.617836 87.032411 
z
" style="fill:#ff0000;stroke-dasharray:3,1,1,1,1,1;stroke-dashoffset:0;"/>
   </g>
   <g id="patch_24">
    <path clip-path="url(#p0700267b6a)" d="M 335.402421 294.118125 
L 346.430089 294.118125 
L 346.430089 87.032411 
L 335.402421 87.032411 
z
" style="fill:#ff0000;stroke-dasharray:3,1,1,1,1,1;stroke-dashoffset:0;"/>
   </g>
   <g id="patch_25">
    <path clip-path="url(#p0700267b6a)" d="M 349.187006 294.118125 
L 360.214674 294.118125 
L 360.214674 87.032411 
L 349.187006 87.032411 
z
" style="fill:#ff0000;stroke-dasharray:3,1,1,1,1,1;stroke-dashoffset:0;"/>
   </g>
   <g id="patch_26">
    <path clip-path="url(#p0700267b6a)" d="M 362.971591 294.118125 
L 373.999259 294.118125 
L 373.999259 87.032411 
L 362.971591 87.032411 
z
" style="fill:#ff0000;stroke-dasharray:3,1,1,1,1,1;stroke-dashoffset:0;"/>
   </g>
   <g id="patch_27">
    <path clip-path="url(#p0700267b6a)" d="M 376.756176 294.118125 
L 387.783844 294.118125 
L 387.783844 87.032411 
L 376.756176 87.032411 
z
" style="fill:#ff0000;stroke-dasharray:3,1,1,1,1,1;stroke-dashoffset:0;"/>
   </g>
   <g id="patch_28">
    <path clip-path="url(#p0700267b6a)" d="M 390.540761 294.118125 
L 401.568429 294.118125 
L 401.568429 87.032411 
L 390.540761 87.032411 
z
" style="fill:#ff0000;stroke-dasharray:3,1,1,1,1,1;stroke-dashoffset:0;"/>
   </g>
   <g id="patch_29">
    <path clip-path="url(#p0700267b6a)" d="M 404.325346 294.118125 
L 415.353014 294.118125 
L 415.353014 35.260982 
L 404.325346 35.260982 
z
" style="fill:#ff0000;stroke-dasharray:3,1,1,1,1,1;stroke-dashoffset:0;"/>
   </g>
   <g id="patch_30">
    <path clip-path="url(#p0700267b6a)" d="M 418.109931 294.118125 
L 429.137599 294.118125 
L 429.137599 35.260982 
L 418.109931 35.260982 
z
" style="fill:#ff0000;stroke-dasharray:3,1,1,1,1,1;stroke-dashoffset:0;"/>
   </g>
   <g id="patch_31">
    <path clip-path="url(#p0700267b6a)" d="M 431.894516 294.118125 
L 442.922184 294.118125 
L 442.922184 35.260982 
L 431.894516 35.260982 
z
" style="fill:#ff0000;stroke-dasharray:3,1,1,1,1,1;stroke-dashoffset:0;"/>
   </g>
   <g id="patch_32">
    <path clip-path="url(#p0700267b6a)" d="M 445.679101 294.118125 
L 456.706769 294.118125 
L 456.706769 35.260982 
L 445.679101 35.260982 
z
" style="fill:#ff0000;stroke-dasharray:3,1,1,1,1,1;stroke-dashoffset:0;"/>
   </g>
   <g id="patch_33">
    <path clip-path="url(#p0700267b6a)" d="M 459.463686 294.118125 
L 470.491354 294.118125 
L 470.491354 35.260982 
L 459.463686 35.260982 
z
" style="fill:#ff0000;stroke-dasharray:3,1,1,1,1,1;stroke-dashoffset:0;"/>
   </g>
   <g id="patch_34">
    <path clip-path="url(#p0700267b6a)" d="M 473.248271 294.118125 
L 484.275939 294.118125 
L 484.275939 35.260982 
L 473.248271 35.260982 
z
" style="fill:#ff0000;stroke-dasharray:3,1,1,1,1,1;stroke-dashoffset:0;"/>
   </g>
   <g id="patch_35">
    <path clip-path="url(#p0700267b6a)" d="M 487.032856 294.118125 
L 498.060524 294.118125 
L 498.060524 35.260982 
L 487.032856 35.260982 
z
" style="fill:#ff0000;stroke-dasharray:3,1,1,1,1,1;stroke-dashoffset:0;"/>
   </g>
   <g id="patch_36">
    <path clip-path="url(#p0700267b6a)" d="M 500.817441 294.118125 
L 511.845109 294.118125 
L 511.845109 35.260982 
L 500.817441 35.260982 
z
" style="fill:#ff0000;stroke-dasharray:3,1,1,1,1,1;stroke-dashoffset:0;"/>
   </g>
   <g id="patch_37">
    <path clip-path="url(#p0700267b6a)" d="M 514.602026 294.118125 
L 525.629694 294.118125 
L 525.629694 35.260982 
L 514.602026 35.260982 
z
" style="fill:#ff0000;stroke-dasharray:3,1,1,1,1,1;stroke-dashoffset:0;"/>
   </g>
   <g id="patch_38">
    <path clip-path="url(#p0700267b6a)" d="M 528.386611 294.118125 
L 539.414279 294.118125 
L 539.414279 35.260982 
L 528.386611 35.260982 
z
" style="fill:#ff0000;stroke-dasharray:3,1,1,1,1,1;stroke-dashoffset:0;"/>
   </g>
   <g id="patch_39">
    <path clip-path="url(#p0700267b6a)" d="M 542.171196 294.118125 
L 553.198864 294.118125 
L 553.198864 35.260982 
L 542.171196 35.260982 
z
" style="fill:#ff0000;stroke-dasharray:3,1,1,1,1,1;stroke-dashoffset:0;"/>
   </g>
   <g id="patch_40">
    <path d="M 20.5625 294.118125 
L 20.5625 22.318125 
" style="fill:none;stroke:#000000;stroke-linecap:square;stroke-linejoin:miter;stroke-width:0.8;"/>
   </g>
   <g id="patch_41">
    <path d="M 578.5625 294.118125 
L 578.5625 22.318125 
" style="fill:none;stroke:#000000;stroke-linecap:square;stroke-linejoin:miter;stroke-width:0.8;"/>
   </g>
   <g id="patch_42">
    <path d="M 20.5625 294.118125 
L 578.5625 294.118125 
" style="fill:none;stroke:#000000;stroke-linecap:square;stroke-linejoin:miter;stroke-width:0.8;"/>
   </g>
   <g id="patch_43">
    <path d="M 20.5625 22.318125 
L 578.5625 22.318125 
" style="fill:none;stroke:#000000;stroke-linecap:square;stroke-linejoin:miter;stroke-width:0.8;"/>
   </g>
   <g id="text_44">
    <!-- Cummulative mortality as of 28/04/2020 -->
    <defs>
     <path d="M 64.40625 67.28125 
L 64.40625 56.890625 
Q 59.421875 61.53125 53.78125 63.8125 
Q 48.140625 66.109375 41.796875 66.109375 
Q 29.296875 66.109375 22.65625 58.46875 
Q 16.015625 50.828125 16.015625 36.375 
Q 16.015625 21.96875 22.65625 14.328125 
Q 29.296875 6.6875 41.796875 6.6875 
Q 48.140625 6.6875 53.78125 8.984375 
Q 59.421875 11.28125 64.40625 15.921875 
L 64.40625 5.609375 
Q 59.234375 2.09375 53.4375 0.328125 
Q 47.65625 -1.421875 41.21875 -1.421875 
Q 24.65625 -1.421875 15.125 8.703125 
Q 5.609375 18.84375 5.609375 36.375 
Q 5.609375 53.953125 15.125 64.078125 
Q 24.65625 74.21875 41.21875 74.21875 
Q 47.75 74.21875 53.53125 72.484375 
Q 59.328125 70.75 64.40625 67.28125 
z
" id="DejaVuSans-67"/>
     <path d="M 8.5 21.578125 
L 8.5 54.6875 
L 17.484375 54.6875 
L 17.484375 21.921875 
Q 17.484375 14.15625 20.5 10.265625 
Q 23.53125 6.390625 29.59375 6.390625 
Q 36.859375 6.390625 41.078125 11.03125 
Q 45.3125 15.671875 45.3125 23.6875 
L 45.3125 54.6875 
L 54.296875 54.6875 
L 54.296875 0 
L 45.3125 0 
L 45.3125 8.40625 
Q 42.046875 3.421875 37.71875 1 
Q 33.40625 -1.421875 27.6875 -1.421875 
Q 18.265625 -1.421875 13.375 4.4375 
Q 8.5 10.296875 8.5 21.578125 
z
M 31.109375 56 
z
" id="DejaVuSans-117"/>
     <path d="M 52 44.1875 
Q 55.375 50.25 60.0625 53.125 
Q 64.75 56 71.09375 56 
Q 79.640625 56 84.28125 50.015625 
Q 88.921875 44.046875 88.921875 33.015625 
L 88.921875 0 
L 79.890625 0 
L 79.890625 32.71875 
Q 79.890625 40.578125 77.09375 44.375 
Q 74.3125 48.1875 68.609375 48.1875 
Q 61.625 48.1875 57.5625 43.546875 
Q 53.515625 38.921875 53.515625 30.90625 
L 53.515625 0 
L 44.484375 0 
L 44.484375 32.71875 
Q 44.484375 40.625 41.703125 44.40625 
Q 38.921875 48.1875 33.109375 48.1875 
Q 26.21875 48.1875 22.15625 43.53125 
Q 18.109375 38.875 18.109375 30.90625 
L 18.109375 0 
L 9.078125 0 
L 9.078125 54.6875 
L 18.109375 54.6875 
L 18.109375 46.1875 
Q 21.1875 51.21875 25.484375 53.609375 
Q 29.78125 56 35.6875 56 
Q 41.65625 56 45.828125 52.96875 
Q 50 49.953125 52 44.1875 
z
" id="DejaVuSans-109"/>
     <path d="M 9.421875 75.984375 
L 18.40625 75.984375 
L 18.40625 0 
L 9.421875 0 
z
" id="DejaVuSans-108"/>
     <path d="M 34.28125 27.484375 
Q 23.390625 27.484375 19.1875 25 
Q 14.984375 22.515625 14.984375 16.5 
Q 14.984375 11.71875 18.140625 8.90625 
Q 21.296875 6.109375 26.703125 6.109375 
Q 34.1875 6.109375 38.703125 11.40625 
Q 43.21875 16.703125 43.21875 25.484375 
L 43.21875 27.484375 
z
M 52.203125 31.203125 
L 52.203125 0 
L 43.21875 0 
L 43.21875 8.296875 
Q 40.140625 3.328125 35.546875 0.953125 
Q 30.953125 -1.421875 24.3125 -1.421875 
Q 15.921875 -1.421875 10.953125 3.296875 
Q 6 8.015625 6 15.921875 
Q 6 25.140625 12.171875 29.828125 
Q 18.359375 34.515625 30.609375 34.515625 
L 43.21875 34.515625 
L 43.21875 35.40625 
Q 43.21875 41.609375 39.140625 45 
Q 35.0625 48.390625 27.6875 48.390625 
Q 23 48.390625 18.546875 47.265625 
Q 14.109375 46.140625 10.015625 43.890625 
L 10.015625 52.203125 
Q 14.9375 54.109375 19.578125 55.046875 
Q 24.21875 56 28.609375 56 
Q 40.484375 56 46.34375 49.84375 
Q 52.203125 43.703125 52.203125 31.203125 
z
" id="DejaVuSans-97"/>
     <path d="M 18.3125 70.21875 
L 18.3125 54.6875 
L 36.8125 54.6875 
L 36.8125 47.703125 
L 18.3125 47.703125 
L 18.3125 18.015625 
Q 18.3125 11.328125 20.140625 9.421875 
Q 21.96875 7.515625 27.59375 7.515625 
L 36.8125 7.515625 
L 36.8125 0 
L 27.59375 0 
Q 17.1875 0 13.234375 3.875 
Q 9.28125 7.765625 9.28125 18.015625 
L 9.28125 47.703125 
L 2.6875 47.703125 
L 2.6875 54.6875 
L 9.28125 54.6875 
L 9.28125 70.21875 
z
" id="DejaVuSans-116"/>
     <path d="M 9.421875 54.6875 
L 18.40625 54.6875 
L 18.40625 0 
L 9.421875 0 
z
M 9.421875 75.984375 
L 18.40625 75.984375 
L 18.40625 64.59375 
L 9.421875 64.59375 
z
" id="DejaVuSans-105"/>
     <path d="M 2.984375 54.6875 
L 12.5 54.6875 
L 29.59375 8.796875 
L 46.6875 54.6875 
L 56.203125 54.6875 
L 35.6875 0 
L 23.484375 0 
z
" id="DejaVuSans-118"/>
     <path d="M 56.203125 29.59375 
L 56.203125 25.203125 
L 14.890625 25.203125 
Q 15.484375 15.921875 20.484375 11.0625 
Q 25.484375 6.203125 34.421875 6.203125 
Q 39.59375 6.203125 44.453125 7.46875 
Q 49.3125 8.734375 54.109375 11.28125 
L 54.109375 2.78125 
Q 49.265625 0.734375 44.1875 -0.34375 
Q 39.109375 -1.421875 33.890625 -1.421875 
Q 20.796875 -1.421875 13.15625 6.1875 
Q 5.515625 13.8125 5.515625 26.8125 
Q 5.515625 40.234375 12.765625 48.109375 
Q 20.015625 56 32.328125 56 
Q 43.359375 56 49.78125 48.890625 
Q 56.203125 41.796875 56.203125 29.59375 
z
M 47.21875 32.234375 
Q 47.125 39.59375 43.09375 43.984375 
Q 39.0625 48.390625 32.421875 48.390625 
Q 24.90625 48.390625 20.390625 44.140625 
Q 15.875 39.890625 15.1875 32.171875 
z
" id="DejaVuSans-101"/>
     <path id="DejaVuSans-32"/>
     <path d="M 30.609375 48.390625 
Q 23.390625 48.390625 19.1875 42.75 
Q 14.984375 37.109375 14.984375 27.296875 
Q 14.984375 17.484375 19.15625 11.84375 
Q 23.34375 6.203125 30.609375 6.203125 
Q 37.796875 6.203125 41.984375 11.859375 
Q 46.1875 17.53125 46.1875 27.296875 
Q 46.1875 37.015625 41.984375 42.703125 
Q 37.796875 48.390625 30.609375 48.390625 
z
M 30.609375 56 
Q 42.328125 56 49.015625 48.375 
Q 55.71875 40.765625 55.71875 27.296875 
Q 55.71875 13.875 49.015625 6.21875 
Q 42.328125 -1.421875 30.609375 -1.421875 
Q 18.84375 -1.421875 12.171875 6.21875 
Q 5.515625 13.875 5.515625 27.296875 
Q 5.515625 40.765625 12.171875 48.375 
Q 18.84375 56 30.609375 56 
z
" id="DejaVuSans-111"/>
     <path d="M 41.109375 46.296875 
Q 39.59375 47.171875 37.8125 47.578125 
Q 36.03125 48 33.890625 48 
Q 26.265625 48 22.1875 43.046875 
Q 18.109375 38.09375 18.109375 28.8125 
L 18.109375 0 
L 9.078125 0 
L 9.078125 54.6875 
L 18.109375 54.6875 
L 18.109375 46.1875 
Q 20.953125 51.171875 25.484375 53.578125 
Q 30.03125 56 36.53125 56 
Q 37.453125 56 38.578125 55.875 
Q 39.703125 55.765625 41.0625 55.515625 
z
" id="DejaVuSans-114"/>
     <path d="M 32.171875 -5.078125 
Q 28.375 -14.84375 24.75 -17.8125 
Q 21.140625 -20.796875 15.09375 -20.796875 
L 7.90625 -20.796875 
L 7.90625 -13.28125 
L 13.1875 -13.28125 
Q 16.890625 -13.28125 18.9375 -11.515625 
Q 21 -9.765625 23.484375 -3.21875 
L 25.09375 0.875 
L 2.984375 54.6875 
L 12.5 54.6875 
L 29.59375 11.921875 
L 46.6875 54.6875 
L 56.203125 54.6875 
z
" id="DejaVuSans-121"/>
     <path d="M 44.28125 53.078125 
L 44.28125 44.578125 
Q 40.484375 46.53125 36.375 47.5 
Q 32.28125 48.484375 27.875 48.484375 
Q 21.1875 48.484375 17.84375 46.4375 
Q 14.5 44.390625 14.5 40.28125 
Q 14.5 37.15625 16.890625 35.375 
Q 19.28125 33.59375 26.515625 31.984375 
L 29.59375 31.296875 
Q 39.15625 29.25 43.1875 25.515625 
Q 47.21875 21.78125 47.21875 15.09375 
Q 47.21875 7.46875 41.1875 3.015625 
Q 35.15625 -1.421875 24.609375 -1.421875 
Q 20.21875 -1.421875 15.453125 -0.5625 
Q 10.6875 0.296875 5.421875 2 
L 5.421875 11.28125 
Q 10.40625 8.6875 15.234375 7.390625 
Q 20.0625 6.109375 24.8125 6.109375 
Q 31.15625 6.109375 34.5625 8.28125 
Q 37.984375 10.453125 37.984375 14.40625 
Q 37.984375 18.0625 35.515625 20.015625 
Q 33.0625 21.96875 24.703125 23.78125 
L 21.578125 24.515625 
Q 13.234375 26.265625 9.515625 29.90625 
Q 5.8125 33.546875 5.8125 39.890625 
Q 5.8125 47.609375 11.28125 51.796875 
Q 16.75 56 26.8125 56 
Q 31.78125 56 36.171875 55.265625 
Q 40.578125 54.546875 44.28125 53.078125 
z
" id="DejaVuSans-115"/>
     <path d="M 37.109375 75.984375 
L 37.109375 68.5 
L 28.515625 68.5 
Q 23.6875 68.5 21.796875 66.546875 
Q 19.921875 64.59375 19.921875 59.515625 
L 19.921875 54.6875 
L 34.71875 54.6875 
L 34.71875 47.703125 
L 19.921875 47.703125 
L 19.921875 0 
L 10.890625 0 
L 10.890625 47.703125 
L 2.296875 47.703125 
L 2.296875 54.6875 
L 10.890625 54.6875 
L 10.890625 58.5 
Q 10.890625 67.625 15.140625 71.796875 
Q 19.390625 75.984375 28.609375 75.984375 
z
" id="DejaVuSans-102"/>
    </defs>
    <g transform="translate(177.42875 16.318125)scale(0.12 -0.12)">
     <use xlink:href="#DejaVuSans-67"/>
     <use x="69.824219" xlink:href="#DejaVuSans-117"/>
     <use x="133.203125" xlink:href="#DejaVuSans-109"/>
     <use x="230.615234" xlink:href="#DejaVuSans-109"/>
     <use x="328.027344" xlink:href="#DejaVuSans-117"/>
     <use x="391.40625" xlink:href="#DejaVuSans-108"/>
     <use x="419.189453" xlink:href="#DejaVuSans-97"/>
     <use x="480.46875" xlink:href="#DejaVuSans-116"/>
     <use x="519.677734" xlink:href="#DejaVuSans-105"/>
     <use x="547.460938" xlink:href="#DejaVuSans-118"/>
     <use x="606.640625" xlink:href="#DejaVuSans-101"/>
     <use x="668.164062" xlink:href="#DejaVuSans-32"/>
     <use x="699.951172" xlink:href="#DejaVuSans-109"/>
     <use x="797.363281" xlink:href="#DejaVuSans-111"/>
     <use x="858.544922" xlink:href="#DejaVuSans-114"/>
     <use x="899.658203" xlink:href="#DejaVuSans-116"/>
     <use x="938.867188" xlink:href="#DejaVuSans-97"/>
     <use x="1000.146484" xlink:href="#DejaVuSans-108"/>
     <use x="1027.929688" xlink:href="#DejaVuSans-105"/>
     <use x="1055.712891" xlink:href="#DejaVuSans-116"/>
     <use x="1094.921875" xlink:href="#DejaVuSans-121"/>
     <use x="1154.101562" xlink:href="#DejaVuSans-32"/>
     <use x="1185.888672" xlink:href="#DejaVuSans-97"/>
     <use x="1247.167969" xlink:href="#DejaVuSans-115"/>
     <use x="1299.267578" xlink:href="#DejaVuSans-32"/>
     <use x="1331.054688" xlink:href="#DejaVuSans-111"/>
     <use x="1392.236328" xlink:href="#DejaVuSans-102"/>
     <use x="1427.441406" xlink:href="#DejaVuSans-32"/>
     <use x="1459.228516" xlink:href="#DejaVuSans-50"/>
     <use x="1522.851562" xlink:href="#DejaVuSans-56"/>
     <use x="1586.474609" xlink:href="#DejaVuSans-47"/>
     <use x="1620.166016" xlink:href="#DejaVuSans-48"/>
     <use x="1683.789062" xlink:href="#DejaVuSans-52"/>
     <use x="1747.412109" xlink:href="#DejaVuSans-47"/>
     <use x="1781.103516" xlink:href="#DejaVuSans-50"/>
     <use x="1844.726562" xlink:href="#DejaVuSans-48"/>
     <use x="1908.349609" xlink:href="#DejaVuSans-50"/>
     <use x="1971.972656" xlink:href="#DejaVuSans-48"/>
    </g>
   </g>
  </g>
 </g>
 <defs>
  <clipPath id="p0700267b6a">
   <rect height="271.8" width="558" x="20.5625" y="22.318125"/>
  </clipPath>
 </defs>
</svg>
